<?xml version="1.0" encoding="UTF-8"?>
<svg id="Camada_1" xmlns="http://www.w3.org/2000/svg" version="1.1" viewBox="0 0 595.28 841.89">
  <!-- Generator: Adobe Illustrator 29.0.0, SVG Export Plug-In . SVG Version: 2.1.0 Build 186)  -->
  <g>
    <path d="M594-.11v843H1V-.11h593ZM63.5,5.89H7v590l15-4.01c-3.82-6.22-15.7-26.02-11.07-32.58l3.1-1.03c7.62,5.16,15.02,13.37,16.99,22.61l2.07-15.5c-.12-11-6.24-9.85-12.5-17.58-5.66-7-13.53-21.83-10.06-30.88s15.03,8.44,16.88,12.06c2.21,4.33,2.89,9.8,5.59,13.9l-.13-37.36c-26.78-9.56-27.28-57.44.13-14.64,2.73-12.14-4.13-12.77-9.41-20.08-4.7-6.5-13.75-28.17-2.34-30.74,13.51,8.21,13.78,27.58,14.77,41.82,14.5-34.14,33.65-15.29,8.88,8.4-2.25,2.15-5.65,2.93-7.9,5.1v22.5c4.16-7.56,19.59-29.61,29.99-24.5,5.41,2.66-5.73,18.35-8.48,21.51-5.62,6.45-14.52,11.45-20.99,17.01l-1.51,26.97c6.69-13.33,17.92-37.12,34.73-36.78,6.85,7.27-12.51,33.7-17.82,39.97-6.51,7.69-19.78,13.95-17.91,24.81.99,1.36,24.78-26.15,25-9,1.45-1.26,5.74-1.8,6.52-2.97.57-.86,3.75-16.5,5-20,2.51-7.02,5.74-15.76,10.99-21.02,2.38-.49,1.61,1.96,1.27,3.27-.82,3.18-5.55,10.21-7.23,14.77-1.25,3.4-7.38,19.77-5.55,21.94,11.33-1.19,7.83-5.79,11.11-13.38.8-1.85,6.49-11.02,8.88-8.61-1.13,6.28-8.68,10.39-7.99,17.99l24.01-7.48,5.99-50.5c-6.48-1.15-14.63-6.31-15.07-13.53-.23-3.72,1.9-5.81,1.84-7.8-.04-1.23-1.86-2.71-1.77-5.09.15-4.09,4.41-6.32,5.46-8.62,1.2-2.62.25-6.08,2.51-9.21,1.95-2.7,8.62-4.81,11.97-4.81l.04-4.95c-15.53,11.45-30.88,11.28-48.03,3.54-2.48-1.12-8.39-6.05-9.7-6.37-3.86-.96-10.28,3.77-11.83-5.16-.13-.73,3.75-10.54,4.1-11.02.74-1,2.78-.78,3.17-1.28,1.55-1.96,1.96-5.35,4.95-6.63l9.33,8.43-5.99-12.52-30.99,6.01c1.58-32.61-2.09-67.16-.05-99.55,3.58-56.74,55.22-85.88,95.04-38.45,2.51-6.95,11.46-48.52,17.33-48.84.43-.02,2.16.71,2.45,1.1,2.99,4.05,1.87,53.5,3.25,62.26-8.59,16.24-10.2,34.72-11.06,52.94-.77,16.21,2.17,35.96,1.1,51.01-.46,6.51-5.09,4.92-5.93,7.16l-4.19,41.75c8.91,2.05,14.73,6.89,21.04,13.13-14.55-22.45-1.13-63.59,10.04-13.52l2.02-6.46-1.2-407.87L63.5,5.89ZM142,5.89h-69l67.48,27.02,1.52-27.02ZM588,5.89H145v28.5l21,10v62c0,.39,1.3,1.52,1.01,2.51,28.05-11.09,50.42,4.55,74.34,16.87,15.39-11.37,32.52-23.3,50.15-30.88,25.33-10.88,34.28-4.45,57.94,6,16.67-9.67,32.51-24.46,50.59-31.48,17.81-6.92,25.76-3.38,42.42,4.45,7.06-17.32,22.2-21.22,39.63-20.41,2.71-29.87,45.84-36.91,62.52-14.49,11.15-7.37,16.16-9.29,29.65-6.81,2.21.41,4.15,2.61,6.35,2.72,1.15.06,7.42-2.59,7.42-2.99V5.89ZM588,35.89c-7.89,6.83-7.62,2.05-14.57.07-12.93-3.7-19.12.88-28.94,8.92-14.98-25.31-56.88-19.12-59.43,11.59-15.78-.68-33.16,2.33-39.1,18.89l64.58,30.57c1.93.16,1.9-1.31,2.45-2.53,2.09-4.64,4.66-36.48,10.62-37.44,4.71-.76,7.13,14.91,6.53,18.31l1.31,1.37,56.54-6.73v-43ZM326,166.89v-16.5c0-.25,3.25-3.5,3.5-3.5h43l1.5,1.5v36.5l18.01-1-.19-3.83c-2.01-.55-5.03-1.45-6.23-3.25-2.86-4.27,2.28-24.25,3.92-29.92.8-2.79,5.13-16.4,6.17-17.78,1.51-2,2.84-1.47,5.18-1.07,2.65,1.67,6.35,42.5,3.56,47.75s-8.88,2.64-8.41,8.09h20c1.08-3.87-.68-19,4.5-19h15.5c2.47-8.91-7.38-6.79-9.45-13.05-2.78-8.4,4.88-31.85,8.43-40.46.93-2.25,2.28-7.62,4.71-8.34l4.28,1.63c-.34,16.62,14.87,45.96-4.5,55.22-2.56,7.21,6,4.64,10.52,5.01-1.89-14.22,7.68-8.51,16.99-11.01v-27.5c0-1.39,2.75-3.96,4.54-4.46,6.51-1.82,36.25-1.57,38.3-3.2l.94-8.63c-20.7-8.95-40.81-21.19-61.41-30.08-38.08-16.44-42.87-13.17-76.69,9.05-28.55,18.76-55.63,42.54-83.66,62.32l36.98,15.5ZM518.21,141.66c7.24,3.65,12.54-9.95,12.83-15.32.54-9.75-3.01-39.73-5.12-49.88-.38-1.81-.93-3.38-2.43-4.57-2.49,9.88-5.22,19.9-7.03,29.96-1.12,6.23-4.37,20.35-4.1,25.74.1,1.98,4.9,13.6,5.85,14.07ZM588,81.89l-57.01,7.51,3.02,27.48,26.11-1.41,1.94,26.35,25.94-1.93v-58ZM345,102.91c-9.7-3.01-20.12-10.81-30.55-11.03-19.49-.42-53.2,24.69-69.42,35.52l40.29,22.29,59.68-46.77ZM440.01,154.89c1.41-.91,4.08-2.26,4.88-3.61,4.15-6.96-3.73-34.43-4.39-43.41-3.24,8.58-14.88,36.58-9.91,43.93.74,1.1,3.83,3.16,5.4,3.08.89-1.04-1.54-14.32,4-12l.02,12.01ZM325,190.89v-19.5c-38.62-12.91-71.58-38.25-108.64-54.36-18.42-8.01-30.33-11.42-50.36-3.64v16l1.5,1.5h37c.94.9,2.5,4.57,2.5,5.5v20.5h43.5l1.5,1.5v17.5l47.29,2.21c3.69,1.17,3.21,9.38,3.71,12.79h22ZM558,142.39c-1.23-6.36.91-16.2,0-23l-22.06.94c-.16,10.56-6.37,17.45-8.67,27.33l-10.12,162.56,18.84,12.68c0-29.73-3.25-72.71,25.71-90.8,8.77-5.47,16.61-6.05,26.3-8.7v-80.5c-7.63.34-20.37,3.54-27.53,2.08-1.52-.31-2.21-1.2-2.47-2.58ZM509,122.89l-38.07,3.59,1.2,71.78c17.7,8.49,31.89,27.97,31.88,48.2,0,5.42-2.66,5.39-2.93,7.85-.13,1.17,3.26,22.59,4.41,22.6l9.45-133.46c-2.62-7.15-7.55-12.3-5.95-20.55ZM248,159.89l-39.42.91-5.58-2.41v-23l-1.5-1.5h-34.5v44c26.91-2.67,53.92-4.42,81-2v-16ZM397.01,176.89c4.49-1.27,5.04-5.38,5.08-9.51.03-2.94-2.58-32.5-4.59-32.51-1.27,7.51-11.59,34.17-8.55,39.56.43.76,3.32,3.3,4.05,2.45l.91-9.41,3.09-.59.02,10ZM522.93,144.96l-4.91-.05-1.02,11.98,5.99-.02-.05-11.91ZM371,149.89h-39.5l-3,43c-2.36,4.69-20.62.36-25.5,1v14l42.32-.04,2.61,17.61,23.07-.58v-75ZM467,156.89l-12.07,1.43c-1.84,1.27-.38,5.8-1.1,7.9-1.86,5.4-27.39,1.09-32.9,3.1-1.19.83-1.9,25.22-1.99,29.01-.04,1.78-.93,7.05,1.53,6.54.72-.15,9.39-5.75,13.01-7,4.7-1.62,9.47-2.96,14.5-3-1.17-13.33,7.52-16.2,19.01-12.99v-25ZM512.99,326.89l9.87-165.36c-.24-2.01-5.44-2.02-5.85-1.64-1.36,1.29-.79,21.76-1.03,25.48-2.94,46.82-7.51,93.61-8.97,140.51l5.98,1.01ZM209,177.89l-42.05,4.44.23,25.37,9.35,1.22c7.32-17.76,23.22-8.26,20.52,8.92l11.95,3.05v-43ZM299.9,245.78l-1.83-63.45-84.62-3.49-1.27,42.39c1.27,3.52,13.14,3.39,15.89,6.37,1.71,1.85,4.22,24.15,4.02,27.82-.52,9.35-13.84,1.5-20.09,3.48l1.01,20.01,25.86-6.14c.49-10.89-1.94-24.03,7.59-31.91,16.23-13.42,32.34,5.98,28.56,23.05l11.94-2.04c-1.17-9.61,4.12-14.5,12.95-16.06ZM467.99,196.89c3.83-14.54-16.56-18.13-16.9-3.1l16.9,3.1ZM416,187.89h-42v37h10.01c-3.93-26.09,22.92-33.38,21.01-4,.76-2.72,10.99-11.67,10.99-12.5v-20.5ZM498.99,239.89c-6.26-50.59-76.51-56.59-93.98-9.49,31.45-.47,64.02-1.24,93.98,9.49ZM192.99,215.89c2.66-13.83-11.22-18.95-12.89-4.1l12.89,4.1ZM401,224.89v-15.5c0-.29-3.91-3.09-4.77-3.28-9.46-2.18-8.22,13.03-8.23,18.79h13.01ZM303,211.89v35c0,.57,8.09,2.82,8.5,6.98,2.96.07-1.24-24.3,12.08-24.95,9.26-.45,10.56,13.31,9.42,19.98,15.83-1.2,9.66-5.74,10.01-15.5.26-7.08,2.67-15.28-.17-22.35l-39.85.85ZM199,311.39c.73,8.16-.54,17.24,0,25.5l11.04-3.67-1.04-74.33-12.98-2.5c-.03-3.82,29.66.57,32.97-.51l-3.14-25.35-57.38-18.7c-1.74-.38-2.02,1.45-2.11,2.68-.46,6.1.66,12.93.67,18.84.03,14.84-.11,29.7-.03,44.54,22.76-7.51,30.39,15.56,31.99,33.5ZM347,241.89h15v4h-15c-.2,0,.38,3.49-.05,3.95-1.15,1.25-28.87,4.61-33.27,7.24-2.77,1.65-3.95,7.21-1.7,9.33.69.65,10.72,3.27,13.39,4.61,21.4,10.72,22.73,20,30.85,40.15.91,2.25,3.87,3.37,4.57,6.44,1.39,6.13-2.81,8.65-2.81,14.71,0,11.57,5.94,26.06,8.03,37.56,1.81-1.42,5.04-11.12,4.94-12.55-.15-1.99-2.34-2.67-2.75-4.16-2.66-9.72,15.68-31.42,23.32-37.26,3.81-2.91,18.92-9.43,19.24-10.48,1.58-5.18-11.23-2.73-15.72-7.09-8.83-8.56,9.86-42,5.44-50.44-1.44-2.75-6.63-1.38-5.44-9.43.85-5.72,6.22-4.86,5.96-9.57l-52.36.14-1.64,12.86ZM588,227.89c-33.64.89-45.98,28.78-48.05,58.46-.54,7.68-1.26,33.64.08,40.02.67,3.19,5.39,5.99,5.98,9.52l4.03-16.55c-.21-4.31-5.98-4.96-4.01-13.92,1.04-4.72,7.67-5.99,8.94-8.31,2.03-3.7.42-10.41,1.13-14.6,3.43-20.29,10.03-37.82,31.74-43.76l.15-10.86ZM329.01,249.89c2.49-26.28-14.34-18.85-13,1.99l13-1.99ZM399.1,242.8c17.04,4.09,34.97,1.21,52.38,2.11,15.11.78,30.28,3.47,45.18,5.92,13.48-6.23-10.69-11.1-15.82-12.28-18.8-4.34-49.13-6.27-68.38-4.69-6.29.51-14.97.47-13.36,8.95ZM266.65,244.24c-3.85-3.81-9.39-4.16-14.39-2.58-10.26,3.24-10.72,21.4-10.26,30.23l5.86-1.12c-4.17-24.19,18.99-36.09,17.13-4.87l5.85-1.16c.49-6.51.84-15.52-4.2-20.5ZM588,242.89c-21.46,5.68-27.02,26.39-29,45.99,2.27-.98,10.98-1.69,12.05-2.44.53-.37,2.87-9.14,4.96-12.04,3.17-4.41,7.77-6.1,11.99-9.01v-22.5ZM477,250.89l-70.02-1.49,5.03,42.48,10.1-7.38,5.88-1.63c-4.8-4.64-2.92-16.34,4-16.98-7.03,17.15.37,12.25,10.73,16.77,7.89,3.44,12.76,8.81,16.66,16.34l4.1,9.86c4.05-1.41,15.35-18.9,16.11-23,.59-3.15-2.59-9.15-2.59-12.49v-22.5ZM307,265.89c5.09-22.07-19.85-21.29-16,0h16ZM259.82,252.08c-9.36-4.41-7.51,12.11-7.81,17.81l8.93-2.05-1.12-15.76ZM480,251.89v15.5c0,13.79,8.24,32.89,24.89,29.39l-7.1-41.68-17.79-3.21ZM144.99,253.89c-1.49.26-1.96,1.81-2.48,3.01-1.75,4.05-14.09,47.82-14.07,50.48.02,3.12,5.68,16.22,9.1,16.55,5.54-.75,7.12-9.29,9.38-13.62l-1.94-56.43ZM403.01,256.9c2.53,9.84-13.68,34.17-2.93,40.41,2.72,1.58,7.75,2.83,9.92.05l-6.99-40.46ZM214,327.89h16l-1.66,3.84c-2.35.82-13.45-.54-14.28.22-.26.24.1,2.8-.55,3.91-2.15,3.66-39.91,8.89-46.36,12.17l-.13,100.85c6.16-15.76,37.84-42.5,21.02-4.47l-20.51,25.49c4.45-3.42,20.15-3.98,23.07-5.93.66-.44,8.37-12.45,8.65-13.35,3.81-12.15,2.1-13.7,10.76-25.24,12.31-16.38,32.68-32.37,54-32.51-5.88-9.13-19.8,2.4-28.02-6.47-7.07-7.63,1.05-19.81,2.73-28.3,1.4-7.07,4.07-21.08,4.34-27.75.24-5.96-5.9-9.08-1.48-16.39,4.77-7.88,4.08-8.26,7.56-16.44,3.89-9.14,9.64-16.52,17.95-22.05,6.24-4.15,13.49-5.96,19.92-9.57l-73.01,16.48v45.51ZM352,310.88c-9.62-53.95-92.87-56.85-102-1l102,1ZM588,269.89c-7.83,2.45-12.59,9.58-13.83,17.41l13.83,9.59v-27ZM122.99,409.88c.26-3.77-.34-7.71.03-11.47,2.11-21.06,6.5-45.09,7.01-65.98.3-12.15-4.28-14.96-4.98-23.16-.3-3.51,1.45-6.92.77-9.63-.43-1.69-7.52-10.07-9.3-11.77-10.28-9.83-23.38-13.88-37.52-12.97l20.52,12.97c10.33,12.04,22.06,22.41,22.53,39.48.7,25.33-3,51.63-1.09,77.09.11,1.45.06,5.16,2.03,5.45ZM101,295.88c2.25-1.75-22.09-23.04-36.88-15.36-17.13,8.89-27.92,35.65-27.11,54.36,12.7-25.41,32.09-48.56,63.99-39.01ZM167,280.89v15c23.6-6.31,17.33,30.23,18.01,44l10.05-2.58c-1.63-19.64,4.08-63.99-28.06-56.41ZM458.91,312.78c-1.52-11.55-7.29-26.15-20.5-27.79-10.1-1.26-26.29,4.21-23.76,16.68,3.72,18.37,31.23,18.26,44.26,11.11ZM505.01,299.88c-10.37,1.13-17.03-2.44-23.49-10.01l-4.53,10.5,27.5,4.53.52-5.02ZM587.99,314.88c.98-10.32.27-16.84-9.45-22.03-12.85-6.85-14.85-1.06-22,7.07-4.14,4.71-11.05,6.59-5.04,14.96,2.59-1.32,5.92-8.37,8.15-8.78,2.43-.45,10.8,4.43,15.35-.21-1.26,8.36,7.85,4.45,10.45,5.12,2.1.54.58,4,2.55,3.88ZM118.99,330.88c-1.6-39-42.28-44.31-64.97-16.47-12.28,15.07-21.86,34.66-17.01,54.47,14.55-11.79,21.23-30.37,26.11-47.89,9.31,1.28,18.71,1.17,27.2-3.3,2-1.05,8.65-7.52,9.67-6.82,1.84,9.8,9.48,17.48,19.01,19.99ZM167,300.39v43.5l13.42-2.88.65-1.59c-1.61-10.01,5.36-49.74-14.07-39.03ZM476.99,303.9c-5.22-1.13-5.52,3.61-8.45,6.04-12.54,10.41-26.63,14.13-42.53,8.95l-2.01,8,42.36-.14,10.63-22.85ZM495,305.9c-4.38.28-10.63-2.74-14.58-.09-2.42,1.63-10.92,21.52-9.01,24.14,17.46,6.6,15.43-14.58,23.59-24.05ZM489.99,356.9c2.19-2.06-1.77-8.14-1.69-10.35.02-.67,2.74-11.27,3.14-12.66,2.36-8.23,11.49-7.2,12.43-9.62l.84-13.93-6.68-1.97c-5.62,4.1-8.02,23.63-13.75,25.32l-60.66-2.85c-1.5,9.43-12.89,8.41-19.61,5.07-2.57,20.26-2.1,40.72,0,61,8.01-.73,8.16-9.08,11.83-14.67,10.77-16.43,25.53-28.01,46.07-28.44,1.11-23.43,30.91-22.87,23.1,2.09,1.14.08,4.4,1.58,4.99,1.02ZM412.52,308.89c-1.28.25-9.57,21.94-6.53,24.51,10.7,7.51,18.42-8.51,16.66-16.08-.15-.64-8.75-6.87-10.14-8.43ZM588,359.89v-36.5c0-.47-4.57-7.79-4.98-8.02-1.85-1.04-4.59.02-6.31-.68-1.9-.78-2.88-3.27-4.32-3.55-2.66-.52-8.34,2.23-12.41-.78-10.53,11.2-10.72,27.42-6.97,41.53,6.33-16.65,26.72-5.87,28.04,7.95l6.95.05ZM398,359.89c-.16-16.68,3.02-33.47,8.98-49-11.53,5.27-24.87,16.56-30.97,27.73-1.43,2.61-5.78,11.7-4.03,13.77,1.91,2.26,24.62,8.91,26.02,7.51ZM257.8,313.19c-3.8.34-10.19.11-12.29,2.71-3.69,4.56-1.58,8.28,3.97,9.01,30.83,4.05,69.39-3.69,101.02.77l5.44-1.34c3.16-2.07,1.47-8.25-1.64-9.25-2.6-.83-20.68-1.97-24.82-2.18-20.95-1.07-51.03-1.54-71.68.28ZM550.99,355.89c-3.54-17.32-17.28-33.93-33.98-40,.15,2.75-2.23,9.77-.83,11.84.22.33,2.43.31,3.32,1.12,5.14,4.69,18.25,27.6,22.12,27.75,3.01.12,5.94-3.24,9.37-.72ZM98.99,316.89c-10.33,6.87-20.74,9.31-33.11,8.6-1.55,11.33-12.22,23.81-10.79,34.81,1.15,8.82,9.08,18.86,17.63,21.36,28.73,8.42,42.33-24.38,44.35-47.16-8.03-2.78-16.72-8.8-18.08-17.62ZM140,326.89h-6.01c-3.84,15.59,8.27,15.33,6.01,0ZM249,328.88h-2.99c-.71,7.06-.91,15.36-2.27,22.24-3.35,17.04-18.52,41.07,13.26,33.75-7.55-17.61-8.14-37.04-8-55.99ZM329,328.89h-76c.11,19.02-1.32,40.24,9.99,56.51l7.98-12.04,9.03-3.48c-.45-1.86-3.19-1.86-3.83-3.65-1.85-5.18,5.23-22.64,8.82-19.33-.63,4.2-7.27,14.32-4.56,18.06,18.01,2.94,33.07,9.09,33.58,29.93,6.67-4.11,17.4-14.93,18.75-22.73,1.01-5.81-3.17-20.4-3.75-27.78-.4-5.11.25-10.37-.02-15.48ZM355,328.89h-22c.62,22.17-1.14,61.77,32.57,53.07,1.68-2.35-6.21-22.04-7.27-26.87-1.89-8.62-2.66-17.42-3.3-26.2ZM532.63,374.52c12.32-13.57,4.49-14.38-2.05-23.72-5.21-7.43-8.26-18.85-18.33-20.67-6.79-1.22-16.87-1.88-18.25,6.75l14.33-.83,1.66,3.83c-8.2-1.8-19.53-1.05-17.99,10l16.99-1.5c-5.1,5.19-16.33-.51-16.99,10.49,7.28-.55,15.75,12.5,19.97,13.61,3.92,1.03,8.78-3.92,9.02,1.39-7.98.98-6.01,3.87-2.31,9.08,2.91.67,11.94-6.22,13.95-8.43ZM481.95,354.86c5.25-18.79-15.91-19.73-14.95-.97l14.95.97ZM139.01,341.9l-6-1.01-11.57,121.06,5.52.88c4.86-40.18,7.17-80.77,12.05-120.94ZM560,358.9l.51-11.98c-6.38,7.37-2.83,17.92.05,26.03,10.22-.67,20.85-6.32,16.43-18.05l-3.98,4.99-2.52-11.98-2.5,9.98-1.99-1.48-1.48-8.51-1.52,10.99h-2.99ZM117,397.89v-44c-3.39,8.84-7.78,17.06-13.66,24.51l13.66,19.49ZM503.65,369.24c-27.79-23.67-78.05-13.01-88.65,23.64,35.11-2.07,71.25-.25,104.98,10.01.42-11.72-7.57-26.18-16.34-33.65ZM366.17,397.72l23.83,16.69c1.05-.61,9.6-20.69,9.77-22.24.71-6.44-3.48-19.66-2.24-27.31l-23.49-6.94c-.79,5.49-3.76,11.37-4.98,16.54-.57,2.4.35,5.34-.13,7.87-.84,4.38-5.08,9.33-2.76,15.39ZM524.19,404.69c31.42,11.32,42.19-26.46,23.82-46.33l-4.9,2.87,7.85,12.16-3.92,1.45-4.55-7.94c-5.93,8.69-11.16,15.37-21.05,19.97l2.74,17.81ZM55,371.87l-4.49-11.98c-4.32,7.65-16.27,11.92-13.49,21.99,5.65-3.8,11.13-8.4,17.99-10.01ZM588,362.89c-3.55-.03-7.75.55-8.74,4.52,5.1,3.87,6.21,9.02,8.74,14.48v-19ZM309.77,397.68c1.82-3.62-1.33-13.16-3.4-16.66-9.41-15.95-37.9-12.35-38.4,7.44-.26,10.3,14.71,15.65,23.37,15.36,2.77-.09,17.44-4.16,18.43-6.13ZM588,402.89v-15.5c0-.28-2.87-2.71-3.55-4.45-1.17-2.96-3.28-11.16-6.17-11.93-3.42.75-17.98,5.66-18.31,8.36-1.3,10.7,15.3,31.09,28.03,23.52ZM60.36,378.53c-.87-.68-1.19-2.53-2.35-3.2-3.41-1.52-19.14,8.63-20.87,12.18l-1.13,26.37c3.66-3.84,24.81-5.32,25.88-6.12.25-.19.42-3,1.27-4.21,11.54-16.43,26.45-19.63,44.82-12.16l-8.69-9.37c-15.54,6.95-25.39,7.04-38.93-3.5ZM336.98,375.9l-2.05.61-2.91,7.87,30.98,10.52v-8.01c-9.5,1-22.34-1.03-26.02-10.99ZM266,414.88c17.69,3.18,35.58,3.69,53.36.87,4.03-9.11,7.77-18.74,15.62-25.36l-7.01-3.04c-13.77,16.72-36.88,25.22-57.36,14.59l-4.61,12.95ZM92.9,404c.28.22.03,2.46,1.1,3.36,3.42,2.86,9.02,3.73,12.51.56,2.04,5.49,4.27,12.16,11.56,10.55,5.16-15.59-14.86-28.23-28.52-27.6-16.03.75-29.04,16.02-25.06,32.03,1.29,2.38,5.04-4.6,5.54-5.49,1.65-2.95,5.06-14.31,6.95-15.08,3.3,3.93,15.29,1.15,15.93,1.66ZM588,406.89c-13.62,4.2-22.52-5.56-28.99-15.99.4,4.51-5.38,9.55-5.99,12.52-1.51,7.32-.9,20.3-2.16,28.84-.87,5.86-7.54,34.39-4.9,37.16l42.03,6.47v-69ZM353,395.9c-3.91-.4-8.86-4.05-12.65-3.98-8.11.16-20.05,27.78-18.22,35.83,20.37,8.69,16.84-7.47,22.99-20.24,2.05-4.26,5.5-7.58,7.87-11.61ZM267,395.89c-18.02-2.62-20.83,17.56-23.98,30.96,5.2,1.5,10.41,2.82,15.51.07l8.47-31.03ZM522.78,408.1c-3.62-5.54-57.25-11.8-66.24-12.25-10.16-.51-31.61-1.33-40.94.13-3.19.5-6.77,1.95-7.64,5.46-.11,1.31,1.37,4.41,2.36,5.12,2.71,1.95,56.96,2.48,66.16,3.34,11.52,1.07,34.05,7.41,43.08,7.02,4.94-.21,5.04-6.04,3.22-8.82ZM386.63,416.25c-7.84-7.98-18.58-14.73-29.16-18.33-17.16,14.13-15.14,43.63-7.5,62.53,26.66-1.98,68.28-12.03,36.66-44.2ZM247.99,399.9c-19.95,6.5-35.52,25.62-44.83,43.68l.74,1.85c9.66,7.15,20.71,11.86,32.09,15.46.05-21.25,2.84-41.71,12.01-60.99ZM401.99,428.88c3.4-9.41,1.27-18.76-1.49-27.99-.92.18-7.52,16-7.28,17.35.12.69,7.6,11.68,8.77,10.64ZM546.99,429.89c1.42-7.97,2.64-15.84,2-24l-10.03,4.67,1.19,17.19,6.85,2.15ZM104.89,413.01c-.49-.37-6.31-.04-8.73-.78-3.08-.94-4.05-3.76-6.68-4.32-3.07-.66-7.96.28-11.49-.59-4.46,14.01-17.71,21.98-.48,33.56,15.98,10.75,33.88.72,36.46-17.55-.21-3.24-4.97-2.74-7.02-4.88-1.57-1.64-1.83-5.26-2.06-5.44ZM535,409.89l-7.99-1c.54,5.82.08,8.55-4.02,12.49l12.01,4.51v-16ZM413.99,410.89l-3.96.02c-1.74,14.94-8.65,28.72-14.02,42.59-.75,9.37,11.6,10,17.99,9.39-4.08-17.07-1.56-34.74-.01-52ZM496,415.9l-78.06-4.6c-2.26,1.64-2.49,44.22-.46,49.6.16.42,1.56,1.68,1.5.43,3.82-6.72,10.09-12.21,18.02-13.46-4.97-6.14-1.55-16.98,4.99-19.99.83,5.08-6.21,10.84-2.92,15.4,1.75,2.43,13.55,4.85,17.3,6.72,11.95,5.97,16.56,17.78,20.12,29.87,1.48-.29,12.1-13.45,13.34-15.66,8.87-15.71.73-31.62,6.16-48.33ZM60,411.89c-11.1.23-27.79,1.94-23,17.01l22.98-4.02.02-12.99ZM518.9,419.99l-18.82-3.74-1.91,1.22c-.15,13.63-5.98,48.01,13.4,51.34,3.36.58,13.2.71,14.28-3.62l-6.95-45.2ZM340.99,430.89c-3.84,3.25-15.61,2.59-19.72.23-6.43-3.7-.5-11.44-3.83-12.15-17.13,3.01-34.85,2.43-51.82-1.14-2.27,14.47-9.63,17.53-23.13,12.09-.99.67-1.27,1.32-1.49,2.48-1.49,7.8-2.2,23.85-2.04,32.04.11,5.68,3.24,35.21,6.26,38.24,20.9,6.5,42.92,7.9,64.77,7.21-1.5-2.07-3.1-1.98-4.74-4.75-4.87-8.25-14.87-36.81-18.02-46.98-4.1-13.24-1.22-14.73,9.26-6.21,3.69,3,34.43,35.07,35.56,37.39,1.94,3.96,1.82,13.77,2.95,18.56.86.88,22.58-6.01,23.56-6.94,2.94-2.78,4.12-19.32,3.18-23.31-.16-.7-6.29-12.23-6.91-12.58-1.09-.62-3.5.2-5.06-.45-8.21-3.41-8.35-25.59-8.78-33.72ZM67,455.88c13.59,7.26,30.62,10.92,44.33,1.84,12.47-8.25,6.49-24.66,10.64-37.34-7.53,3.21-5.88,13.86-11.96,20.74-11.33,12.81-24.78,6.58-38.38,2.87-1.93,4.48.2,8.04-4.63,11.89ZM545.89,432.99l-22.89-7.1c-.53,5.52.49,10.8,1.29,16.2s5.67,19.35,5.59,22.32c-.16,6.01-7.83,4.97-7.73,9.71.61,5.71,21.71,19,23.84,10.27.32-1.32.27-8.65-.16-9.84-.56-1.56-2.84-1.77-3.33-2.67-3.82-7.17,5.25-36.47,3.38-38.89ZM188.99,428.9c-13.47,6.89-20.39,23.95-23.98,37.99,5.29-3.93,28.35-32.71,23.98-37.99ZM53.01,451.88l13.54-.94c2.15-6.22-1.76-11.92-6.06-16.05-1.24,7.32-8.25,9.75-7.49,16.99ZM159,475.89c1.19-1.31-1.47-32.64-8.98-33-1.88,7.26-1.22,17.21,1.25,24.23.61,1.72,5.76,10.95,7.73,8.77ZM31.99,473.89c2.65-3.7-8.03-35.59-12.98-30-.24,10.78,3.69,23.65,12.98,30ZM165,518.89h33.5c10.28,0,37.14-27.58,38.55-36.45.5-3.1.16-16.04-2.06-18.05-.69-.63-14.59-5.13-17.52-6.48-4.91-2.26-9.07-5.74-13.95-8.05l-14.55,23.53,9.83,8.66c-.34,9.51-7.57-4.65-12.67-5.62-3.52-.67-11.56,3.01-16.13,1.47,5.46,14.54,1.86,27.75-5,40.99ZM296.64,457.25c-.65-.62-7.99-7.91-7.61-4.9.36,2.81,17.04,48.24,18.55,50.46,3.54,5.2,17.98,14.37,24.35,9.01-1.85-6.27-1.56-16.37-4.51-21.85s-24.89-27.07-30.78-32.72ZM459.68,456.22c-25.38-20.06-58.37,16.88-24.95,30.45,8.05,3.27,30.69,3.98,36.27-3.29,4.03-5.26-6.63-23.45-11.32-27.16ZM405.74,467.15c-3.15-2.9-14.18-2.82-13.75-13.26l-33.96,10.49,16.98,34.51c7.25-5.38,12.48-12.32,20.08-17.41,2.33-1.56,11.77-5.42,12.47-6.6.83-1.43-.85-6.85-1.82-7.74ZM519.01,472.89c-9.19-.03-19.34-3.43-22.02-13l-5.98,8.51,26.62,7.38,1.38-2.88ZM416.99,465.89l-7,1,1.11,6.88,5.46-.82.43-7.06ZM54,466.9c-7.51-2.43-18.84,21.99-16.99,23.99,6,.64,19.09-21.97,16.99-23.99ZM122.99,466.9c-6.9-.63-16.74.02-15.98,8.99,7.47-3.33,12.74.35,15.98-8.99ZM127.21,505.09c-.17.23-1.02,5.04-1,5.55.17,4.16,15.55,3.26,19.29-3.74,6.7-12.55,6.32-38.19-12.12-39.98-12.47-1.21-19.11,25.93-10.12,24.84,6.24-.75,7.08-12.93,13.73-13.86,1.71,1.82-5.96,11.58-6.04,13.48-.02.53,4.66,2.35,2.63,9.6-.96,3.42-5.78,3.32-6.38,4.12ZM188,467.9c-.95-.74-20.79,4.49-22.99,6.98,7.74-.77,19.41,1.2,22.99-6.98ZM430.01,488.89l-2.82,9.54c15.99,5.4,34.19,4.44,51.18,3.33,1.61-.63,5.14-12.99,6.45-15.55,1.45-2.82,9.24-12.05,9.15-12.83-.13-1.07-2.35-1.62-3.49-1.6-2.41.05-11.7,11.39-16.01,14.08-13.77,8.59-29.55,8.38-44.46,3.03ZM512,476.9c-3.5.38-8.65-2.99-11.52-2.91-8.1.22-20.13,27.84-17.29,35.71l14.67,2.04c2.72-11.29,4.8-23.78,13.85-32.1l.29-2.75ZM549.99,486.9l13.07.58.5-10.65-13.56-1.94v12.01ZM31.99,500.89c2.02-2.61-9.95-25.96-16.98-24,.52,10.5,7.81,19.59,16.98,24ZM369.31,520.59c2.33,2.77,24.67,13.41,26.72,11.86,2.22-19.89,6.09-38.03,15.96-55.57-14.28,6.02-27.4,15.29-36.42,28.07-2.12,3-8.69,12.74-6.26,15.63ZM418.98,476.9c-2.87-1.72-12.46,20.39-13.14,23.34-.36,1.59-1.65,3.86.13,5.17,5.33.81,13.04,4.23,16.24-1.81.65-1.23,4.89-15.33,4.8-16.18-.39-3.47-7.61-6.43-8.03-10.52ZM116,477.9c-14.84-1.89-22.07,16.08-1.1,8.9l1.1-8.9ZM165.9,477.96l-13.9.94c2.81,12.56-.33,24.74-6,35.98l14.57,3.67,1.28-1.23c6.2-12.08,10.81-26.64,4.04-39.35ZM567,477.89v24l-11.49,2.02c-1.29-.39-2,.17-1.49,1.46,1.4,3.6,6.44,8.48,7.49,13.51.98,4.69-.71,7.43-.31,10.31.54,3.94,8.59,16.06,9.97,23.05,5.61,28.58-16.03,41.46-34.21,58.21,4.31,11.09,22.64,44.3,18.88,54.78-.88,2.46-23.54,12.1-27.75,12.75l-.16,1.4c-.43,4.85,4.88,17.16,7.65,21.45,8.72,13.53,28.76,26.17,37.28,38.72,9.41,13.85-9.25,47.11-23.49,54.21-9.72,4.85-43.84,10.89-43.12-6.1.59-13.89,20.05-16,21.76-29.73-24.63-18.21-50.63-37.9-58.62-69.09-5,1.24-11.53-1.08-15.88-.95-1.53.04-1.71-.35-1.48,1.5l33.96,53.12c.93,6.44-6.08,10.94-11.68,7.09l-42.79-63.67c-2.01,0-12.65,29-13.97,33-7.29,22.05-12.42,57.75-22.03,76.97-6.31,12.62-28.03,3.09-38.17-.81-26.35-10.15-79.95-39.18-14.77-44.22l15.98,3.07,4.47-25.02c-8.09,4.26-33.18,7.61-37.76-1.74-6.05-12.37,16.95-24.94,23.29-33.24l.47-2c-17.71-15-33.03-37.25-41.47-59.04-1.32-3.39-5.44-21.18-7.16-21.84l-23.84-.11c-17.81,31.26-22.89,67-33.24,100.77-1.99,6.48-3.44,16.48-11.02,17.97-13.31,2.62-71.56-18.21-75.99-31.52-6.73-20.24,34.56-21.53,45.71-14.24l19.77-86.53c-.36-1.89-11.69-4.54-13.24-7.48-3.04-5.76,8.08-28.47,11.11-34.86,3.91-8.26,19.49-30.88,20.91-36.09,2.36-8.65-.79-20.28-1.55-29.03-9.1,5.81-13.73,17.04-22.47,24.02-5.05,4.03-11.86,7.57-18.26,8.74-4.93.9-11.62-.26-15.74.25s-9.29,16.4-13.49,19.5c22.28-10.58,19.56,2.17,5.98,13.48,4.75.71,10.74.42,15.27,1.29,1.76.34,3.29.39,2.73,2.71-6.49,1.23-15.52-1.27-21.4-.89-8.39.54-18.1,8.69-26.95,3.74-2.25-1.26-3.62-4.51-6.16-4.83-1.23-.16-16.56,3.2-17.06,3.92l-15.01,134.19c-3.91,1.31-12.14,2.04-12.23-3.57l12.8-126.55c-13.23,5.67-35.86,8.78-47.69,15.79-4.3,2.55-8.03,9.3-13.37,12.63-15,9.34-13.46.44-22.37.5-3.96.03-12.48,4.07-16.56,5.57v236.5h581v-327c-23,1.32-17.87-9.14-4.13-19.3l-3.98-12.59-12.89-.11ZM587.99,489.88l-.15-10.33-3.83-1.66,3.98,11.99ZM541.57,496.34c-7.02-7.08-14.94-13.4-24.26-17.28-9.93,6.76-14.31,20.89-15.29,32.35-.43,5.03-.51,28.94,3.97,31.03,18.43-.91,37.06-5.26,52.06-16.28,3.83-6.45-11.75-25.05-16.49-29.82ZM365.99,515.88c.22-4.49,7.11-10.51,7.02-14.39-.08-3.64-6.48-12.37-7.5-16.61-.5,10.42-5.02,21.14.49,31ZM564.01,490.88l-24.01-.98c2.88,2.39,9.75,10.85,12.48,11.09s7.48-1.66,10.59-1.53l.94-8.57ZM111.2,503.73l1.26-2.5,14.25.94c9.72-10.7-1-6.71-5.74-7.65-5.5-1.09-5.99-6.47-15.37-2.53-12.18,5.11,5.02,18.51,7.4,15.9l-1.79-4.16ZM583,503.89c1.58-.54,3.28-.68,4.88-1.11l.1-8.89c-.53-.72-14.65,7.92-12.49,10.99l7.5-3.99c-.07.97.15,2.05,0,2.99-2.6.89-7.86,2.24-1.51,2.99,1.28-.75,1.31-1.71,1.51-2.99ZM65,495.9c-13.35,2.86-22.63,17.84-25.98,29.99,11.16-7.23,22.47-16.67,25.98-29.99ZM479,504.88c-17.5,2.36-35.07.84-52.35-2.08-3.32,10.95-14,8.78-22.64,5.09-3.38,2.19-5.21,64.97,1.01,72.47,3.97,3.47,35.06,8.88,41.61,9.39,5.03.39,21.84,1.1,25.87.14,1.91-.45,7.02-7.67,12.51-9.49,7.56-2.51,18.28.64,19.96,0,3.67-1.38,11.21-13.56,15.8-15.75.55-1.72-7.71-18.76-8.72-19.29s-8.77,2.33-11.01-2.29c-2.35-4.85-2.1-26.21-3.04-27.2-8.18.51-20.68.22-19.01-11ZM122.97,505.92c-6.31-.92-6.18-2.48-6.96,4.48-2.54,22.89-3.6,46.06-6.03,68.97-4,37.69-9.11,75.32-12.71,113.06l2.25,1.52c3.59.5,4.84-1.37,5.4-4.63l18.04-183.39ZM359.99,504.89c-6.75,2.39-16.17,3.47-22.55,5.97-.97.38-1.81-.71-1.43,1.52l8.7,10.38,17.37-5.52-2.09-12.35ZM245.49,505.93c-2.05.31-2.04,10.41-1.02,11.99.8,1.24,18.48,6.15,21.28,6.72,14.11,2.87,32.37,4.08,46.74,3.23,2.58-.15,15.31-1.08,15.49-2.47-7.57-17.57-23.92-10.68-39.45-11.53-13.79-.75-30.03-3.44-43.03-7.94ZM587.5,505.89v1l.5-.5-.5-.5ZM327,516.91l43.45,67,6.1-2.99-44.02-66.01-5.53,2ZM149.85,520.04c-8.41-5.09-14.91-2.6-23.85-4.15l-5,42,16-3c-12.44-22.17-10.32-46.08,10.99-12.99l1.87-21.85ZM20.58,541.31c3.26,4.81,6.55,8.7,10.93,12.55,1.34-4.37-13.54-40.46-18.51-34.97-.76,8.65,2.98,15.64,7.57,22.42ZM161.99,521.9l-8.99-1.01-.99,18,9.98-16.99ZM260.99,526.9l-18.89-4.92c-12.24,20.49-24.52,41.33-31.05,64.51.54,4.56,28.4,12.75,33.73,14.12,34.05,8.74,69.76,8.11,104.22,2.29.76-4.56-2.37-8.39-2.91-12.59-1.35-10.51,3.76-18.52,5.49-28.44-3.95-4.66-18.7-31.41-22.14-31.99-3.12-.52-7.03,1.77-10.43,1.03l3.48,56.98c-2.31,1.07-3.32-9.04-3.46-10.51-1.33-14.55-1.33-29.41-3.03-43.97-.77-4.41-6.04-1.49-9.44-1.46-5.06.05-10.73.58-15.54-1.06l-10.52,60-2.5-.5,9.01-59.5-22.84-1.82-21.08,52.22-3.09.6,20.99-54.99ZM362.91,521.96l-16.91,4.94,13.02,20.98c2.29.46,1.59-.21,2.22-1.27,3.91-6.56,6.87-18.18,1.67-24.65ZM151.01,557.89c7.05-8.77,21.33-21.4,24.18-32.34.24-.91,1.47-.97-.16-2.19-2.83-.69-7.03-1.29-9.52.54-4.65,3.41-14.9,27.14-14.5,33.99ZM367.5,523.89v1l.5-.5-.5-.5ZM36.99,573.88c10.12-12.28,24.18-24.32,29.81-39.7.53-1.44,3.35-9.1.72-9.26-14.92,8.25-29.02,29.84-31.24,46.76-.13,1.03-.98,2.48.72,2.2ZM395.87,537.02l-24.86-10.13c-.61,6.85-8.35,19.31-7.91,25.55.11,1.57,9.94,16.75,11.32,17.52,5.2,2.92,19.13-1.61,19.58,10.93,1.59.32,2.1-.41,2.87-1.62,4.29-6.77-2.77-33.11-1.01-42.25ZM135.58,531.31c-.51-.32-.93-.81-1.57-.92-1.28-1.19-1.01-.15-1.02,1-.04,7.81,7.24,23.9,14,28.5.07-8.31-4.28-24.11-11.41-28.58ZM558.99,530.89c-6.05,2.85-11.57,6.3-17.97,8.52-8.44,2.94-16.56,3.66-25.03,6l7.02,15.48c.75.57,5.61-2.95,4.97.47l-12.98,14.51c13.43,1.72,22.31,14.13,24.01,27.01,14.48-10.29,31.85-25.53,29.72-45.24-1.07-9.88-7.26-17.47-9.74-26.76ZM180.99,541.89c-10.78,1.96-19.79,11.12-26.99,18.98,10.31-2.53,24.41-7.76,26.99-18.98ZM30.99,593.89c-1.89-11.63-6.9-26.16-17.98-31.99-2.1,2.44,10.58,31.81,17.98,31.99ZM351.01,579.88l8.88-4.47-5.39-8.5c-1.11.04-4.65,11.52-3.49,12.97ZM390.99,581.89c-.94-5.59-8.14-10.66-12.96-6.51,2.15,5.37,8.64,1.18,12.96,6.51ZM36.01,594.88c8.86-3.01,17.46-9.12,19.97-18.51-3.85-.24-22.83,15.59-19.97,18.51ZM534.77,606.68c1.63-11.15-6.86-23.23-17.08-26.97-6.39-2.34-6.68-1.12-10.69,4.16,9.91,4.81,16.14,16.51,19.01,27.02l8.76-4.21ZM362.86,578.98l-11.94,6.39c-1.19,21.19,11.73,41.02,35.31,33.26,5.85-1.93,17.7-10.55,12.25-17.73-6.33,4.67-11.85,10.89-20.48,10.99-1.05-4.52,5.29-4.18,8.31-6.18,3.38-2.23,8.9-5.59,8.66-10.24-.61-11.61-15.1,6.59-20.97,4.41-4.5-4.27,21.75-9.21,13.57-16.08-4.17-5.1-16.64,5.39-22.09,6.05l-1.34-2.3c3.56-3.3-.08-5.09-1.29-8.58ZM401,595.39c.93-3.6-.67-10.44,0-14.5-8.44,6.58-4.67,8.08-1.99,16,.31.27,1.89-1.13,1.99-1.5ZM511.63,591.26c-11.51-12.32-32.5-12.98-35.63,5.63,1.07,1.31,10.41-9.65,10.99-2.02-6.22,1.54-21.45,15.55-10.72,18.89,4.87-1.41,7.46-7.52,12.73-6.86-1.05,6.14-13.05,8.33-8.08,15.35,3.41,4.82,14.98-6.55,16.08-5.35.45,5.34-5.7,5.98-8.55,8.96,3.03,14.32,28.14,1.56,31.95-7.07s-2.56-20.9-8.76-27.53ZM471.99,592.88c-22.49,1.37-46.68-.89-67.98-8.99l.13,12.87c20.67,8.35,42.6,10.84,64.75,12,1.27-7.29,6.81-8.01,3.1-15.88ZM272.99,608.9c-16.83-.46-33.26-5.53-48.98-11.01l-11.98,53.97c14.28,2.1,26.22,10.1,38.96,16.03l22.01-59ZM419,604.9l-17-5c3.43,4.28-.52,9.11.16,13.25.17,1.02,6.65,11.7,7.34,11.71l9.5-19.97ZM351.91,605.97l-46.91,4.93c-3.08,2.96,17.15,49.92,24.69,53.8,5.58,1.79,27.79-1.31,32.62-5,1.33-1.02,5.01-9.27,5.25-10.82.64-4.21-7.28-10-9.04-15.01-2.14-6.09-.62-11.77-1.75-17.25-.7-3.41-4.61-6.68-4.86-10.65ZM433.99,661.88l9.94-50.37c-.84-2.36-17.79-3.63-21.25-4.69l-10.22,23.16,21.53,31.9ZM468.78,612.12l-21.77-1.22-9.95,54.44,11.94,19.05c35.04,1.82,73.19-3.27,103.55-21.52,2.03-4.51-17.31-50.47-20.04-50.74-5.52-.54-9.02,9.93-12.48,13.29-3.1,3.02-7.56,4.38-10.91,7.04-.39,1.31,5.95,22.08,6.24,26.62.34,5.24-1.71,5.39-3.44.38-1.27-3.7-4.68-24.25-5.88-25.16-6.1.41-12.83,3.27-18.33-1.35-1.81-1.52-1.74-4.69-2.99-5.78s-4.95-.77-6.79-3.71c-1.4-2.24-.23-5.47-2.93-6.56.75,11.7,1.74,23.74,2.04,35.45.06,2.41.69,15.39-1.55,15.53-1.26-1.03-2.12-1.82-2.47-3.51-1.44-7.1,1.03-49.71-4.26-52.23ZM419.4,647.5c-7.06-10.5-13.47-21.53-20.37-32.15l-6.1,3.11,83.6,128.44c2.99,2.39,8.21-2.56,5.73-5.73-20.63-31.44-41.9-62.5-62.86-93.67ZM379.99,623.9c-7.41.33-13.68-1.42-19.99-5-1.53,10.17,3.29,17.63,9.49,24.97l10.49-19.97ZM398.01,658.89c-1.13-5.87,4.64-12.81,3.8-18.31-.45-2.97-10.65-14.84-11.8-19.27-1.12-.65-3.26.17-4.28.79-3.47,2.09-19.97,36.89-18.54,39.58,19.32,10.5,40.33,16.77,61.81,21.19l-23.5-35.99-4.39,11.39-3.09.6ZM249,672.89c-10.16-9.11-24.44-14.06-37.46-18.02l-3.54,18.02h41ZM364,663.9c-10.59,2.1-19.89,5.93-30.99,5.48,2.37,1.91,9.24,13.64,11.5,13.21l19.49-18.7ZM378,670.91l-10.97-4.57-19.97,19.93c.93,6.4,24.07-1.58,26.98-5.83,1.6-2.33,1.75-6.95,3.96-9.52ZM426.99,684.9l-46.9-11.92-12.09,47.91c14.24,2.6,27.87,8.44,39.51,16.98l19.49-52.97ZM248,676.89h-41c-.2,0-.03,3.14-1,3.96l36.49,16.05c2.32.3,1.16-.49,1.48-1.53,1.69-5.54,2.79-12.72,4.03-18.49ZM523.98,679.88l-50.98,8.02c5.68,19.84,16.99,35.62,33.62,47.75,14.65-2.48,27.79-8.8,38.36-19.27-11.67-9.88-18.5-21.21-21-36.51ZM184.99,699.89c.84-6.63-.64-17.24-8.99-17l-1.02,9c-4.25.95-.05-6.72-3.44-7.71-4.5-1.11-5.17,4.57-6.04,4.7-.4.06-3.02-3.43-6.48,1.52l25.97,9.5ZM201.99,706.89c.3-13.64-.83-24.08-16.99-23.99,4.29,3.63,3.12,16.93,4.46,19.03.83,1.3,10.48,3.42,12.53,4.96ZM236.99,722.88l4.11-22.52c-2.34-3.54-33.34-16.9-35.63-15.57-5.54,3.23,2.72,16.91-.04,23.1l31.56,14.99ZM372.99,685.9c-4.38,3.12-16.36,4.08-19.72,6.27-.54.35-6.45,9.1-7.27,10.72,8.48-.69,14.15,5.53,20.99,9l6-25.99ZM233,725.88c-22.17-14.73-49.03-22.12-73.99-30.98-.32,1.53.21,2.32.95,3.54,7.35,12.12,57.84,28.59,73.05,27.44ZM363.99,723.89c4.33-8.57-2.83-13.15-10.29-16.2-7.97-3.25-13.02-3.59-18.69,3.72-.43,2.3,1.02,1.32,2.47,1.49,4.69.54,7.53-.32,12.68,1.34,6.46,2.08,8.17,7.24,13.83,9.66ZM359,726.88c-4.05-12.75-39.08-19.64-29.01,1.01-.56-4.14,2.22-10.34,7.01-9.99l-3.06,10.37,3.6,1.42c2.22-.74.41-7.23,4.99-7.78s-3.17,5.8.99,7.97c.82.43,3.09.5,2.49-1.5-1.3-7.22,6.21-6.82,3,.51l9.99-2.01ZM553.36,725.53c-.89-1-5.38-7.27-6.35-6.63-1.73,5.18-3.58,11.47-6.37,16.15-1.98,3.33-16.39,16.54-15.64,17.83,5.33,9.19,32.8-13.69,33.82-21.67.04-2.7-4.09-4.13-5.46-5.67ZM406.99,740.9c-12.79-6.85-25.5-14.16-39.98-17.02l-3,18,42.99-.98ZM532.64,739.53c3.64-4.31,6.24-9.44,8.35-14.64-9.04,6.69-19.43,12.88-30.99,13.01l11.65,10.9c.71.1,10.05-8.17,10.98-9.27ZM565.42,737.46c-1.24-1.13-1.98-2.88-3.94-3.54-3.83,5.37-6.83,10.61-12.01,14.95-7.8,6.53-19.33,7.1-21.48,17.53l18.34,6.66,9.69,11.83c7.22-7.4,18.4-30.35,15.53-40.06-.66-2.24-4.3-5.7-6.13-7.37ZM405,745.89h-42l.14,5.86c13.28,3.41,24.96,10.83,36.35,18.15l5.51-24.01ZM343.02,770.83l14.46,6.07,1.46-2.38c-1.54-12.83-4.18-20.94-18.93-20.61,2.17,5.49,5.37,10.93,3.01,16.93ZM339.99,768.88c-1.11-9.66-1.03-15.99-12.99-13.99-.67,2.22,4.83,6.7,1.48,7.98-3.96,1.51-1.93-4.94-5.15-5.9-1.89-.56-5.86,2.05-7.33,3.41l23.99,8.49ZM391.99,795.89c.25-5.03,7.55-19.92,5.1-23.54-1.7-2.52-28.43-16.72-31.92-17.25-3.1-.47-4.3,1.67-7.11,1.87.92,7.46,5.92,14.04,3.02,21.78l30.9,17.15ZM388,797.88c-21.49-15.65-47.31-24.63-71.99-33.98-4.58,4.64,21.56,18.34,24.64,19.85,13.78,6.76,32.06,14.61,47.36,14.13ZM552.94,787.8c3.47-6.81-27.71-26.5-33.93-12.4,11.71.62,21.84,5.64,28.48,15.31.85-.9,5.31-2.63,5.45-2.91ZM543,792.88c-1.5-10.89-30.58-21.39-32.95-7.41-.35,2.06-.57,5.61,1.94,6.43-.78-4.17,2.45-12.03,6.99-7.5-4.47,2.14-5.77,7.34-1.46,10.49,2.46.96,1.54-8.95,5.96-9.03,1.33-.03,1.73.68,2.5,1.54-3.16,2.19-3.34,4.86-2.98,8.5h5c-.62-3.72,1.53-11.08,5.98-6.51-1.4,1.91-3.18,3.88-.42,5.41l9.44-1.91Z"/>
    <path d="M588,5.89v26c0,.4-6.27,3.04-7.42,2.99-2.2-.11-4.13-2.31-6.35-2.72-13.49-2.49-18.5-.57-29.65,6.81-16.68-22.42-59.81-15.38-62.52,14.49-17.42-.81-32.57,3.09-39.63,20.41-16.66-7.83-24.61-11.37-42.42-4.45-18.08,7.02-33.91,21.81-50.59,31.48-23.66-10.45-32.61-16.88-57.94-6-17.63,7.57-34.76,19.5-50.15,30.88-23.91-12.32-46.29-27.96-74.34-16.87.29-.99-1.01-2.12-1.01-2.51v-62l-21-10V5.89h443ZM257,45.89c-2.35-23.49-42.41-27.31-49.02-5-33.26-12.04-41.92,38.44-2.58,33.9,2.83-.33,7.05-2.99,9.14-2.85,1.12.07,7.42,4.76,11.4,5.49,14.29,2.6,17.16-4.01,24.6-4.52,2.72-.19,8.89,2.56,13.11,2.57,33.69.11,23.24-37.57-6.66-29.59Z" fill="#fff"/>
    <path d="M326,166.89l-36.98-15.5c28.03-19.78,55.1-43.56,83.66-62.32,33.83-22.22,38.62-25.5,76.69-9.05,20.6,8.89,40.71,21.13,61.41,30.08l-.94,8.63c-2.06,1.63-31.8,1.37-38.3,3.2-1.79.5-4.54,3.07-4.54,4.46v27.5c-9.32,2.5-18.88-3.21-16.99,11.01-4.53-.37-13.08,2.19-10.52-5.01,19.37-9.26,4.17-38.6,4.5-55.22l-4.28-1.63c-2.43.72-3.78,6.09-4.71,8.34-3.55,8.61-11.21,32.06-8.43,40.46,2.07,6.26,11.92,4.14,9.45,13.05h-15.5c-5.18,0-3.42,15.13-4.5,19h-20c-.47-5.45,5.68-2.97,8.41-8.09s-.91-46.08-3.56-47.75c-2.34-.4-3.67-.94-5.18,1.07-1.04,1.38-5.37,14.99-6.17,17.78-1.63,5.67-6.77,25.65-3.92,29.92,1.2,1.8,4.21,2.7,6.23,3.25l.19,3.83-18.01,1v-36.5l-1.5-1.5h-43c-.25,0-3.5,3.25-3.5,3.5v16.5Z" fill="#fff"/>
    <path d="M260.99,526.9l-20.99,54.99,3.09-.6,21.08-52.22,22.84,1.82-9.01,59.5,2.5.5,10.52-60c4.8,1.64,10.48,1.1,15.54,1.06,3.4-.03,8.68-2.96,9.44,1.46,1.7,14.55,1.7,29.42,3.03,43.97.13,1.48,1.14,11.59,3.46,10.51l-3.48-56.98c3.4.74,7.31-1.55,10.43-1.03,3.45.58,18.19,27.33,22.14,31.99-1.73,9.92-6.83,17.94-5.49,28.44.54,4.2,3.67,8.03,2.91,12.59-34.46,5.82-70.17,6.46-104.22-2.29-5.33-1.37-33.19-9.56-33.73-14.12,6.53-23.18,18.81-44.02,31.05-64.51l18.89,4.92Z" fill="#fff"/>
    <path d="M479,504.88c-1.67,11.22,10.82,11.51,19.01,11,.95.99.69,22.35,3.04,27.2s9.98,1.75,11.01,2.29,9.27,17.57,8.72,19.29c-4.6,2.2-12.13,14.37-15.8,15.75-1.68.63-12.4-2.52-19.96,0-5.49,1.82-10.6,9.04-12.51,9.49-4.02.95-20.83.24-25.87-.14-6.56-.5-37.64-5.91-41.61-9.39-6.22-7.5-4.39-70.29-1.01-72.47,8.64,3.69,19.32,5.86,22.64-5.09,17.27,2.92,34.84,4.44,52.35,2.08Z" fill="#fff"/>
    <path d="M214,327.89v-45.51s73-16.48,73-16.48c-6.43,3.61-13.67,5.42-19.92,9.57-8.31,5.53-14.06,12.91-17.95,22.05-3.48,8.18-2.79,8.55-7.56,16.44-4.42,7.31,1.72,10.43,1.48,16.39-.27,6.68-2.94,20.68-4.34,27.75-1.68,8.49-9.8,20.67-2.73,28.3,8.22,8.87,22.13-2.65,28.02,6.47-21.32.15-41.7,16.13-54,32.51-8.66,11.54-6.95,13.08-10.76,25.24-.28.89-7.99,12.9-8.65,13.35-2.92,1.95-18.62,2.51-23.07,5.93l20.51-25.49c16.82-38.04-14.86-11.29-21.02,4.47l.13-100.85c6.45-3.28,44.21-8.51,46.36-12.17.66-1.12.29-3.67.55-3.91.83-.76,11.93.59,14.28-.22l1.66-3.84h-16ZM231.99,291.9c-3.08.42-8.27-1.49-9.99,1.98,2.22.8,9.78,2.33,9.99-1.98ZM240.85,307.74c3.78-11.89-17.19-9.15-13.74-.49,1.17,2.94,10.8,1.84,13.74.49ZM206.75,353.15c-3.73.22-9.05,2.98-6.86,7.3l14.17,1c3.43-5.64-1.98-8.62-7.31-8.3ZM192.79,376.12c-5.64.65-17.61,9.14-10.18,13.67,2.64,1.61,14.5,1.52,17.89,1.1,17.94-2.25,6.52-16.41-7.71-14.77ZM217.01,392.89h-8.01v2.99h8.01v-2.99Z" fill="#fff"/>
    <path d="M340.99,430.89c.43,8.14.58,30.32,8.78,33.72,1.56.65,3.97-.17,5.06.45.62.35,6.75,11.88,6.91,12.58.94,3.99-.24,20.53-3.18,23.31-.98.93-22.71,7.82-23.56,6.94-1.13-4.79-1.01-14.6-2.95-18.56-1.13-2.32-31.88-34.39-35.56-37.39-10.48-8.52-13.36-7.03-9.26,6.21,3.15,10.17,13.15,38.74,18.02,46.98,1.63,2.76,3.23,2.68,4.74,4.75-21.85.69-43.87-.72-64.77-7.21-3.02-3.02-6.15-32.56-6.26-38.24-.16-8.18.55-24.24,2.04-32.04.22-1.15.5-1.8,1.49-2.48,13.5,5.44,20.85,2.38,23.13-12.09,16.97,3.57,34.69,4.16,51.82,1.14,3.33.71-2.6,8.45,3.83,12.15,4.11,2.36,15.88,3.02,19.72-.23Z" fill="#fff"/>
    <path d="M558,142.39c.27,1.38.95,2.27,2.47,2.58,7.16,1.46,19.89-1.74,27.53-2.08v80.5c-9.69,2.65-17.53,3.23-26.3,8.7-28.97,18.09-25.72,61.07-25.71,90.8l-18.84-12.68,10.12-162.56c2.31-9.88,8.51-16.77,8.67-27.33l22.06-.94c.91,6.8-1.23,16.64,0,23ZM565,185.89l12.84-1.66c1.5-3.63,2.35-17.04-.84-18.85-4.77-.2-25.63-2.23-27.51,1.5-.84,1.67-.9,16.86-.06,18.07l11.56.94v15.5c1.57,2.03,2.48,1.97,4,0v-15.5Z" fill="#fff"/>
    <path d="M588,35.89v43l-56.54,6.73-1.31-1.37c.6-3.4-1.82-19.06-6.53-18.31-5.96.96-8.53,32.8-10.62,37.44-.55,1.22-.52,2.69-2.45,2.53l-64.58-30.57c5.94-16.56,23.33-19.56,39.1-18.89,2.54-30.71,44.45-36.9,59.43-11.59,9.82-8.03,16.01-12.61,28.94-8.92,6.94,1.99,6.67,6.76,14.57-.07Z" fill="#fff"/>
    <path d="M468.78,612.12c5.29,2.52,2.81,45.14,4.26,52.23.34,1.69,1.21,2.49,2.47,3.51,2.24-.14,1.61-13.12,1.55-15.53-.3-11.71-1.29-23.76-2.04-35.45,2.69,1.09,1.52,4.32,2.93,6.56,1.84,2.94,5.53,2.62,6.79,3.71s1.19,4.27,2.99,5.78c5.51,4.63,12.24,1.76,18.33,1.35,1.2.92,4.6,21.46,5.88,25.16,1.73,5.01,3.78,4.86,3.44-.38-.3-4.54-6.63-25.31-6.24-26.62,3.35-2.65,7.81-4.02,10.91-7.04,3.46-3.37,6.96-13.84,12.48-13.29,2.73.27,22.07,46.23,20.04,50.74-30.37,18.25-68.51,23.34-103.55,21.52l-11.94-19.05,9.95-54.44,21.77,1.22Z" fill="#fff"/>
    <path d="M347,241.89l1.64-12.86,52.36-.14c.26,4.71-5.11,3.85-5.96,9.57-1.19,8.05,3.99,6.68,5.44,9.43,4.43,8.44-14.27,41.88-5.44,50.44,4.5,4.36,17.3,1.91,15.72,7.09-.32,1.05-15.43,7.57-19.24,10.48-7.64,5.84-25.98,27.54-23.32,37.26.41,1.49,2.6,2.18,2.75,4.16.11,1.43-3.13,11.13-4.94,12.55-2.09-11.5-8.04-25.99-8.03-37.56,0-6.07,4.2-8.58,2.81-14.71-.7-3.07-3.66-4.19-4.57-6.44-8.12-20.15-9.45-29.44-30.85-40.15-2.66-1.33-12.7-3.96-13.39-4.61-2.25-2.12-1.07-7.68,1.7-9.33,4.4-2.63,32.11-5.99,33.27-7.24.42-.46-.15-3.95.05-3.95h15v-4h-15ZM377.99,257.9h-8s0,2.99,0,2.99c2.93-.12,8.07,1.27,8-2.99ZM346,265.89h17l-.59-3.1c-1.82-1.5-16.17-2.19-16.41,3.1ZM367.74,275.09c-7.56,1.6-6.32,9.25,3.62,8.72,12.47-.67,4.65-10.47-3.62-8.72ZM384.99,307.88c.59-4.76-11.55-3.48-11.99-1.48-.95,4.36,10.05.39,11.99,1.48Z" fill="#fff"/>
    <path d="M299.9,245.78c-8.83,1.56-14.12,6.45-12.95,16.06l-11.94,2.04c3.78-17.07-12.33-36.46-28.56-23.05-9.53,7.87-7.09,21.01-7.59,31.91l-25.86,6.14-1.01-20.01c6.25-1.97,19.57,5.87,20.09-3.48.2-3.67-2.31-25.97-4.02-27.82-2.75-2.98-14.62-2.85-15.89-6.37l1.27-42.39,84.62,3.49,1.83,63.45ZM229.24,222.64l15.28.27.55-22.58-15.63.5-.2,21.81ZM283,221.39c1.25-4.15-.92-14.09,0-19,0-2.34-13.13-1.86-15.33-.58-4.03,2.63.06,17.67-.68,22.09,3.49-.5,14.75,1.65,16.01-2.51Z" fill="#fff"/>
    <path d="M325,190.89h-22c-.49-3.41-.01-11.62-3.71-12.79l-47.29-2.21v-17.5l-1.5-1.5h-43.5v-20.5c0-.93-1.56-4.6-2.5-5.5h-37l-1.5-1.5v-16c20.02-7.78,31.94-4.36,50.36,3.64,37.06,16.11,70.02,41.45,108.64,54.36v19.5Z" fill="#fff"/>
    <path d="M199,311.39c-1.6-17.95-9.23-41.01-31.99-33.5-.09-14.83.06-29.69.03-44.54-.01-5.91-1.13-12.75-.67-18.84.09-1.23.37-3.06,2.11-2.68l57.38,18.7,3.14,25.35c-3.32,1.08-33.01-3.31-32.97.51l12.98,2.5,1.04,74.33-11.04,3.67c-.54-8.26.73-17.34,0-25.5ZM200.76,235.13c-1.63-1.63-20.44-1.85-23.05-1.03-4.27,1.33-4.46,13.43,1.83,14.76,1.92.41,18.37.37,19.79-.14,3.52-1.25,3.49-11.53,1.43-13.59Z" fill="#fff"/>
    <path d="M509,122.89c-1.61,8.25,3.33,13.41,5.95,20.55l-9.45,133.46c-1.15-.01-4.54-21.44-4.41-22.6.27-2.45,2.93-2.43,2.93-7.85,0-20.23-14.19-39.71-31.88-48.2l-1.2-71.78,38.07-3.59ZM507,179.89v-28.5l-1.5-1.5h-15c-4.21,2.44-3.18,26.66-2,29,1.8,3.58,14.76,2,18.5,1Z" fill="#fff"/>
    <path d="M329,328.89c.27,5.12-.38,10.37.02,15.48.58,7.39,4.76,21.97,3.75,27.78-1.35,7.8-12.09,18.63-18.75,22.73-.51-20.83-15.57-26.99-33.58-29.93-2.71-3.74,3.93-13.87,4.56-18.06-3.59-3.31-10.68,14.15-8.82,19.33.64,1.8,3.38,1.79,3.83,3.65l-9.03,3.48-7.98,12.04c-11.32-16.27-9.88-37.49-9.99-56.51h76ZM257.17,335.74c1.27,1.58,16.62,4.9,18.8,1.65-.02-1.61-15.52-4.65-17.5-4.5-2.29.18-2.04,1.93-1.31,2.85ZM310.81,333.17c-2.08.06-12.37,1.11-11.8,4.2s16.96-1.21,16.97-2.98c-1.5-2.34-3.14-1.28-5.17-1.22ZM265.68,342c-3.91,1.27-3.48,11.89.81,11.94,6.76-1.2,5.89-14.12-.81-11.94ZM306.7,343c-3.44.82-3.2,7.25-2.25,9.94,7.69,5.07,8.92-11.52,2.25-9.94Z" fill="#fff"/>
    <path d="M496,415.9c-5.43,16.71,2.71,32.62-6.16,48.33-1.25,2.21-11.86,15.37-13.34,15.66-3.56-12.09-8.17-23.9-20.12-29.87-3.75-1.87-15.55-4.29-17.3-6.72-3.29-4.56,3.76-10.32,2.92-15.4-6.54,3.01-9.97,13.85-4.99,19.99-7.93,1.25-14.2,6.73-18.02,13.46.06,1.25-1.34-.01-1.5-.43-2.04-5.38-1.8-47.96.46-49.6l78.06,4.6ZM433.99,420.88c2.51-2.28-13.01-8.84-14.99-4.49l14.99,4.49ZM473.99,417.9c-.97-.78-11.11.81-13.17,1.33-1.13.29-4.72.2-3.82,2.14,1.32,2.85,20.11-.98,16.98-3.48ZM425.7,424.03c-4.67,2.48-4.28,9.73.78,11.91,6.73-1.15,5.65-13.81-.78-11.91ZM462.17,437.71c6.25,3.63,10.2-9.07,3.17-11.6-5.16-.75-6.11,9.9-3.17,11.6Z" fill="#fff"/>
    <path d="M352,310.88l-102-1c9.12-55.84,92.37-52.94,102,1Z" fill="#fff"/>
    <path d="M165,518.89c6.87-13.24,10.47-26.45,5-40.99,4.56,1.54,12.61-2.14,16.13-1.47,5.1.97,12.33,15.13,12.67,5.62l-9.83-8.66,14.55-23.53c4.88,2.31,9.04,5.8,13.95,8.05,2.94,1.35,16.83,5.85,17.52,6.48,2.22,2.01,2.56,14.95,2.06,18.05-1.42,8.87-28.27,36.45-38.55,36.45h-33.5Z" fill="#fff"/>
    <path d="M503.65,369.24c8.77,7.47,16.76,21.92,16.34,33.65-33.73-10.26-69.87-12.08-104.98-10.01,10.6-36.65,60.86-47.31,88.65-23.64Z" fill="#fff"/>
    <path d="M371,149.89v75l-23.07.58-2.61-17.61-42.32.04v-14c4.88-.64,23.14,3.7,25.5-1l3-43h39.5ZM341.17,163.07c-2.06,2.89-3.92,13.34-.52,14.68,9.74,4.23,8.59-19.26.52-14.68ZM359.86,163.03c-1.06-.66-3.63-.2-4.87.36-2.68,1.63-4.05,14.81,1.66,15.26,6.97.55,4.31-14.93,3.2-15.62Z" fill="#fff"/>
    <path d="M345,102.91l-59.68,46.77-40.29-22.29c16.23-10.83,49.93-35.94,69.42-35.52,10.43.22,20.86,8.02,30.55,11.03Z" fill="#fff"/>
    <path d="M489.99,356.9c-.59.56-3.85-.94-4.99-1.02,7.8-24.96-21.99-25.52-23.1-2.09-20.54.42-35.29,12-46.07,28.44-3.67,5.59-3.81,13.93-11.83,14.67-2.09-20.28-2.56-40.74,0-61,6.72,3.34,18.11,4.36,19.61-5.07l60.66,2.85c5.73-1.69,8.13-21.22,13.75-25.32l6.68,1.97-.84,13.93c-.95,2.42-10.07,1.39-12.43,9.62-.4,1.39-3.11,12-3.14,12.66-.08,2.21,3.88,8.3,1.69,10.35Z" fill="#fff"/>
    <path d="M588,406.89v69l-42.03-6.47c-2.64-2.77,4.03-31.3,4.9-37.16,1.26-8.54.65-21.52,2.16-28.84.61-2.97,6.39-8.01,5.99-12.52,6.47,10.43,15.36,20.2,28.99,15.99ZM581,452.89v-24.5c0-.26-1.15-1-1.5-1.48-.35.47-1.5,1.21-1.5,1.48v23l3,1.5ZM564.52,435.9c-1.65.38-3.56,20.71-3.54,23.55.01,1.86-.28,3.21,1.53,4.42,4.31-3.26,2.02-9.55,2.52-14.45.2-1.91,4.24-14.61-.51-13.52Z" fill="#fff"/>
    <path d="M351.91,605.97c.25,3.97,4.16,7.24,4.86,10.65,1.12,5.48-.4,11.17,1.75,17.25,1.76,5,9.69,10.8,9.04,15.01-.24,1.55-3.92,9.8-5.25,10.82-4.82,3.69-27.03,6.79-32.62,5-7.55-3.88-27.78-50.84-24.69-53.8l46.91-4.93Z" fill="#fff"/>
    <path d="M272.99,608.9l-22.01,59c-12.74-5.93-24.68-13.93-38.96-16.03l11.98-53.97c15.72,5.48,32.15,10.54,48.98,11.01Z" fill="#fff"/>
    <path d="M98.99,316.89c1.36,8.81,10.05,14.84,18.08,17.62-2.02,22.78-15.62,55.58-44.35,47.16-8.55-2.51-16.48-12.54-17.63-21.36-1.44-11,9.24-23.49,10.79-34.81,12.37.71,22.78-1.73,33.11-8.6ZM83.99,333.88c-.46-5.34-9.14-2.22-13-2.99v2.99s13,0,13,0ZM113.99,339.88c.53-3.15-7.56-7.29-8.99-5.99-.46,4.69,5.48,6.49,8.99,5.99ZM76.66,338.02c-2.92.98-4.38,9.58-.22,9.87,5.1-.65,5.42-4.7,4.1-9.05-.82-1.19-2.64-1.25-3.89-.83ZM98.73,357.63c3.69-4.33-1.85-14.81-3.72-12.73l1,11c-12.58-.67-5.38,7.88,2.72,1.73ZM79.73,364.12c-1.4.37-3.03.94-3.58,2.45l.79,4.89c3.96-.35,14.56,3.53,16.61-.58,1.79-7.46-8.67-8.12-13.83-6.75Z" fill="#fff"/>
    <path d="M477,250.89v22.5c0,3.34,3.17,9.34,2.59,12.49-.76,4.09-12.05,21.59-16.11,23l-4.1-9.86c-3.9-7.53-8.77-12.9-16.66-16.34-10.36-4.52-17.76.38-10.73-16.77-6.92.64-8.8,12.34-4,16.98l-5.88,1.63-10.1,7.38-5.03-42.48,70.02,1.49ZM410.01,251.9c-2.95,2.37,15.99,8.96,17.97,4.49.12-2.49-15.15-5.09-17.97-4.49ZM460.99,252.9c-4.9.37-15.7-1.43-16.99,4.99.73.58,17.82-.1,16.99-4.99ZM417.49,260.12c-2.81.26-3.41,7.3-1.57,9.35,4.44,5.97,10.49-7.39,1.57-9.35ZM450.1,272.78c4.47,2.86,9.58-8.16,4.25-10.75-6.95-3.38-5.85,9.72-4.25,10.75Z" fill="#fff"/>
    <path d="M541.57,496.34c4.73,4.77,20.32,23.37,16.49,29.82-15,11.02-33.63,15.36-52.06,16.28-4.48-2.09-4.4-26-3.97-31.03.98-11.46,5.36-25.6,15.29-32.35,9.31,3.89,17.23,10.21,24.26,17.28Z" fill="#fff"/>
    <path d="M386.63,416.25c31.62,32.17-10.01,42.22-36.66,44.2-7.64-18.9-9.65-48.41,7.5-62.53,10.58,3.6,21.32,10.35,29.16,18.33Z" fill="#fff"/>
    <path d="M523.98,679.88c2.49,15.29,9.32,26.63,21,36.51-10.57,10.47-23.71,16.78-38.36,19.27-16.63-12.13-27.95-27.92-33.62-47.75l50.98-8.02Z" fill="#fff"/>
    <path d="M498.99,239.89c-29.96-10.74-62.53-9.96-93.98-9.49,17.47-47.09,87.72-41.09,93.98,9.49Z" fill="#fff"/>
    <polygon points="588 81.89 588 139.89 562.06 141.82 560.12 115.47 534.01 116.88 530.99 89.4 588 81.89" fill="#fff"/>
    <path d="M426.99,684.9l-19.49,52.97c-11.64-8.54-25.27-14.38-39.51-16.98l12.09-47.91,46.9,11.92Z" fill="#fff"/>
    <path d="M558.99,530.89c2.49,9.29,8.68,16.87,9.74,26.76,2.13,19.71-15.25,34.95-29.72,45.24-1.7-12.88-10.58-25.29-24.01-27.01l12.98-14.51c.64-3.42-4.23.1-4.97-.47l-7.02-15.48c8.47-2.34,16.59-3.06,25.03-6,6.4-2.23,11.91-5.67,17.97-8.52Z" fill="#fff"/>
    <path d="M248,159.89v16c-27.08-2.42-54.09-.66-81,2v-44h34.5l1.5,1.5v23l5.58,2.41,39.42-.91ZM189.76,165.64l.8-18.82-12.63-.5-.06,18.98,11.88.34Z" fill="#fff"/>
    <path d="M118.99,330.88c-9.53-2.51-17.17-10.19-19.01-19.99-1.02-.71-7.67,5.76-9.67,6.82-8.49,4.47-17.89,4.57-27.2,3.3-4.88,17.51-11.56,36.1-26.11,47.89-4.85-19.81,4.73-39.41,17.01-54.47,22.69-27.84,63.36-22.53,64.97,16.47Z" fill="#fff"/>
    <path d="M398.01,658.89l3.09-.6,4.39-11.39,23.5,35.99c-21.47-4.43-42.48-10.7-61.81-21.19-1.43-2.7,15.08-37.49,18.54-39.58,1.02-.62,3.16-1.44,4.28-.79,1.15,4.43,11.35,16.29,11.8,19.27.84,5.5-4.93,12.44-3.8,18.31Z" fill="#fff"/>
    <path d="M511.63,591.26c6.19,6.63,12.67,18.65,8.76,27.53s-28.91,21.39-31.95,7.07c2.85-2.98,9-3.62,8.55-8.96-1.11-1.2-12.67,10.17-16.08,5.35-4.97-7.01,7.03-9.21,8.08-15.35-5.27-.66-7.86,5.45-12.73,6.86-10.73-3.34,4.51-17.35,10.72-18.89-.57-7.64-9.92,3.33-10.99,2.02,3.13-18.61,24.12-17.95,35.63-5.63Z" fill="#fff"/>
    <path d="M588,227.89l-.15,10.86c-21.72,5.93-28.31,23.47-31.74,43.76-.71,4.19.89,10.9-1.13,14.6-1.27,2.32-7.91,3.59-8.94,8.31-1.97,8.96,3.8,9.61,4.01,13.92l-4.03,16.55c-.59-3.53-5.32-6.34-5.98-9.52-1.34-6.38-.61-32.34-.08-40.02,2.07-29.68,14.42-57.57,48.05-58.46Z" fill="#fff"/>
    <path d="M532.63,374.52c-2.01,2.21-11.03,9.1-13.95,8.43-3.7-5.21-5.67-8.1,2.31-9.08-.23-5.31-5.1-.36-9.02-1.39-4.23-1.11-12.69-14.16-19.97-13.61.66-11,11.89-5.3,16.99-10.49l-16.99,1.5c-1.55-11.05,9.79-11.8,17.99-10l-1.66-3.83-14.33.83c1.38-8.63,11.46-7.97,18.25-6.75,10.07,1.82,13.13,13.23,18.33,20.67,6.54,9.34,14.36,10.15,2.05,23.72Z" fill="#fff"/>
    <path d="M459.68,456.22c4.69,3.71,15.35,21.9,11.32,27.16-5.58,7.27-28.22,6.56-36.27,3.29-33.42-13.56-.43-50.5,24.95-30.45ZM454.99,467.89c2.61-9.08-21.03-9.03-21.98-4.48-.23,1.08.81,2.54,2.06,2.11,7.06-2.54,13.42-.74,19.92,2.38Z" fill="#fff"/>
    <path d="M522.78,408.1c1.82,2.79,1.71,8.61-3.22,8.82-9.03.39-31.56-5.95-43.08-7.02-9.2-.86-63.45-1.39-66.16-3.34-.99-.71-2.47-3.81-2.36-5.12.86-3.51,4.45-4.96,7.64-5.46,9.33-1.47,30.78-.64,40.94-.13,8.99.45,62.63,6.71,66.24,12.25Z" fill="#fff"/>
    <path d="M366.17,397.72c-2.32-6.06,1.93-11.02,2.76-15.39.48-2.53-.44-5.47.13-7.87,1.22-5.17,4.19-11.04,4.98-16.54l23.49,6.94c-1.23,7.65,2.95,20.87,2.24,27.31-.17,1.55-8.72,21.63-9.77,22.24l-23.83-16.69Z" fill="#fff"/>
    <path d="M257.8,313.19c20.66-1.82,50.73-1.35,71.68-.28,4.15.21,22.22,1.35,24.82,2.18,3.12.99,4.8,7.17,1.64,9.25l-5.44,1.34c-31.63-4.46-70.19,3.28-101.02-.77-5.55-.73-7.66-4.45-3.97-9.01,2.1-2.6,8.49-2.37,12.29-2.71Z" fill="#fff"/>
    <path d="M247.99,399.9c-9.16,19.29-11.95,39.74-12.01,60.99-11.38-3.6-22.42-8.32-32.09-15.46l-.74-1.85c9.32-18.07,24.89-37.19,44.83-43.68Z" fill="#fff"/>
    <path d="M362.86,578.98c1.2,3.49,4.85,5.28,1.29,8.58l1.34,2.3c5.45-.66,17.92-11.16,22.09-6.05,8.18,6.87-18.07,11.8-13.57,16.08,5.88,2.17,20.36-16.02,20.97-4.41.24,4.65-5.28,8.01-8.66,10.24-3.02,2-9.37,1.65-8.31,6.18,8.63-.09,14.14-6.32,20.48-10.99,5.45,7.18-6.4,15.8-12.25,17.73-23.59,7.77-36.5-12.07-35.31-33.26l11.94-6.39Z" fill="#fff"/>
    <path d="M355,328.89c.64,8.78,1.41,17.58,3.3,26.2,1.06,4.83,8.95,24.52,7.27,26.87-33.72,8.7-31.95-30.9-32.57-53.07h22Z" fill="#fff"/>
    <path d="M467,156.89v25c-11.49-3.2-20.18-.33-19.01,12.99-5.03.03-9.8,1.38-14.5,3-3.62,1.25-12.28,6.85-13.01,7-2.46.51-1.57-4.75-1.53-6.54.09-3.8.79-28.18,1.99-29.01,5.51-2.01,31.04,2.29,32.9-3.1.72-2.1-.74-6.63,1.1-7.9l12.07-1.43Z" fill="#fff"/>
    <path d="M209,177.89v43l-11.95-3.05c2.7-17.18-13.2-26.68-20.52-8.92l-9.35-1.22-.23-25.37,42.05-4.44Z" fill="#fff"/>
    <path d="M419.4,647.5c20.96,31.18,42.23,62.23,62.86,93.67,2.48,3.17-2.74,8.12-5.73,5.73l-83.6-128.44,6.1-3.11c6.9,10.62,13.31,21.65,20.37,32.15Z" fill="#fff"/>
    <path d="M395.87,537.02c-1.76,9.14,5.3,35.48,1.01,42.25-.77,1.21-1.28,1.94-2.87,1.62-.45-12.54-14.38-8.01-19.58-10.93-1.38-.78-11.21-15.95-11.32-17.52-.45-6.24,7.29-18.7,7.91-25.55l24.86,10.13Z" fill="#fff"/>
    <path d="M303,211.89l39.85-.85c2.84,7.07.42,15.27.17,22.35-.35,9.76,5.82,14.3-10.01,15.5,1.14-6.67-.17-20.43-9.42-19.98-13.32.65-9.12,25.03-12.08,24.95-.41-4.15-8.5-6.41-8.5-6.98v-35Z" fill="#fff"/>
    <path d="M122.97,505.92l-18.04,183.39c-.56,3.26-1.82,5.13-5.4,4.63l-2.25-1.52c3.6-37.74,8.71-75.38,12.71-113.06,2.43-22.91,3.49-46.08,6.03-68.97.77-6.96.65-5.4,6.96-4.48Z" fill="#fff"/>
    <path d="M518.9,419.99l6.95,45.2c-1.08,4.34-10.92,4.2-14.28,3.62-19.39-3.33-13.56-37.71-13.4-51.34l1.91-1.22,18.82,3.74Z" fill="#fff"/>
    <path d="M405.74,467.15c.97.89,2.66,6.31,1.82,7.74-.69,1.18-10.13,5.03-12.47,6.6-7.6,5.09-12.83,12.03-20.08,17.41l-16.98-34.51,33.96-10.49c-.42,10.43,10.6,10.36,13.75,13.26Z" fill="#fff"/>
    <path d="M122.99,409.88c-1.97-.29-1.92-4.01-2.03-5.45-1.91-25.46,1.8-51.76,1.09-77.09-.47-17.07-12.19-27.43-22.53-39.48l-20.52-12.97c14.13-.91,27.24,3.14,37.52,12.97,1.78,1.71,8.87,10.08,9.3,11.77.68,2.71-1.06,6.12-.77,9.63.7,8.2,5.27,11.01,4.98,23.16-.51,20.9-4.91,44.92-7.01,65.98-.38,3.76.22,7.7-.03,11.47Z" fill="#fff"/>
    <path d="M104.89,413.01c.23.17.48,3.8,2.06,5.44,2.05,2.14,6.82,1.64,7.02,4.88-2.58,18.28-20.48,28.3-36.46,17.55-17.22-11.58-3.98-19.55.48-33.56,3.53.87,8.42-.07,11.49.59,2.62.56,3.6,3.38,6.68,4.32,2.42.74,8.24.41,8.73.78ZM83.52,414.89c-2.75,1.72.05,3.14,1.59,4.39,8.51,6.94,6.15-3.97-1.59-4.39ZM110.99,427.88c.88-2.67-7.66-5.35-7.99-4.99-.68,4.75,4.45,5.24,7.99,4.99ZM90.17,430.74c.26.37,4.74,2.3,5.85,1.75,4.56-.99,6.23-8.31-.02-7.61v4.01s-6-1-6-1c.09.91-.29,2.19.16,2.84ZM88.05,437.82c.96,1.3,8.14,2.17,6.94-2.42l-6.99-.5c.13.85-.25,2.5.06,2.92Z" fill="#fff"/>
    <path d="M245.49,505.93c13,4.5,29.24,7.19,43.03,7.94,15.53.84,31.88-6.04,39.45,11.53-.18,1.39-12.92,2.32-15.49,2.47-14.36.85-32.63-.35-46.74-3.23-2.8-.57-20.48-5.48-21.28-6.72-1.02-1.58-1.02-11.68,1.02-11.99Z" fill="#fff"/>
    <path d="M588,359.89l-6.95-.05c-1.32-13.82-21.71-24.6-28.04-7.95-3.75-14.11-3.56-30.33,6.97-41.53,4.06,3.01,9.75.26,12.41.78,1.44.28,2.42,2.77,4.32,3.55,1.72.7,4.46-.36,6.31.68.41.23,4.98,7.55,4.98,8.02v36.5ZM562.76,317.09c-1.04-.11-7.22.96-6.75,3.29.9,4.47,14.46-2.47,6.75-3.29ZM578.01,322.9c-2.25,2.26,8.48,11.71,8.97,6.5.15-1.57-7.57-7.91-8.97-6.5ZM557.61,323.98c-2.85,1.13-2.46,9.11,1.79,7.82,3.41-1.04,3.91-10.08-1.79-7.82ZM566.99,329.9c-3.4-3.33-13.13,14.17,0,11.99l-3.08-3.64,3.08-8.35ZM581.74,331.15c-3.25-3.57-8.19,4.89-4.81,7.32,3.83,2.75,8.04-3.77,4.81-7.32Z" fill="#fff"/>
    <path d="M369.31,520.59c-2.43-2.89,4.14-12.63,6.26-15.63,9.02-12.78,22.14-22.04,36.42-28.07-9.86,17.54-13.73,35.68-15.96,55.57-2.05,1.55-24.39-9.09-26.72-11.86Z" fill="#fff"/>
    <path d="M565.42,737.46c1.82,1.66,5.46,5.13,6.13,7.37,2.87,9.71-8.31,32.66-15.53,40.06l-9.69-11.83-18.34-6.66c2.16-10.43,13.68-11.01,21.48-17.53,5.19-4.34,8.18-9.58,12.01-14.95,1.96.67,2.7,2.41,3.94,3.54Z" fill="#fff"/>
    <path d="M458.91,312.78c-13.04,7.15-40.55,7.26-44.26-11.11-2.52-12.47,13.66-17.94,23.76-16.68,13.21,1.64,18.98,16.24,20.5,27.79ZM443.75,294.09c-1.82-3.01-19.31-4.01-18.74,1.28.21,2.01,8.22-.74,10.5-.54,2.99.27,5.3,2.62,8.49,2.05-.06-.92.27-1.93-.25-2.79Z" fill="#fff"/>
    <path d="M512.99,326.89l-5.98-1.01c1.46-46.9,6.03-93.69,8.97-140.51.23-3.72-.33-24.19,1.03-25.48.4-.38,5.61-.37,5.85,1.64l-9.87,165.36Z" fill="#fff"/>
    <path d="M545.89,432.99c1.87,2.42-7.2,31.71-3.38,38.89.48.91,2.76,1.12,3.33,2.67.43,1.18.48,8.52.16,9.84-2.13,8.73-23.23-4.56-23.84-10.27-.1-4.74,7.57-3.7,7.73-9.71.08-2.97-4.83-17.18-5.59-22.32-.8-5.4-1.83-10.69-1.29-16.2l22.89,7.1Z" fill="#fff"/>
    <path d="M524.19,404.69l-2.74-17.81c9.89-4.6,15.13-11.28,21.05-19.97l4.55,7.94,3.92-1.45-7.85-12.16,4.9-2.87c18.37,19.87,7.6,57.65-23.82,46.33Z" fill="#fff"/>
    <path d="M416,187.89v20.5c0,.83-10.23,9.78-10.99,12.5,1.91-29.38-24.94-22.09-21.01,4.01h-10.01v-37.01h42Z" fill="#fff"/>
    <path d="M399.1,242.8c-1.61-8.48,7.08-8.44,13.36-8.95,19.25-1.58,49.58.36,68.38,4.69,5.13,1.18,29.29,6.06,15.82,12.28-14.9-2.45-30.07-5.14-45.18-5.92-17.41-.9-35.35,1.99-52.38-2.11Z" fill="#fff"/>
    <path d="M309.77,397.68c-.99,1.97-15.66,6.04-18.43,6.13-8.66.29-23.63-5.07-23.37-15.36.5-19.79,28.99-23.39,38.4-7.44,2.07,3.51,5.22,13.04,3.4,16.66ZM286.8,380.11c-2.66.22-10.85,2.47-6.21,5.74,2.82.02,5.09-1.94,7.9-1.97,2.55-.03,8.05,4.04,8.5,1.5.76-4.35-6.97-5.54-10.2-5.27Z" fill="#fff"/>
    <path d="M433.99,661.88l-21.53-31.9,10.22-23.16c3.46,1.05,20.41,2.33,21.25,4.69l-9.94,50.37Z" fill="#fff"/>
    <path d="M296.64,457.25c5.89,5.65,27.79,27.15,30.78,32.72s2.66,15.59,4.51,21.85c-6.37,5.36-20.81-3.8-24.35-9.01-1.51-2.22-18.19-47.65-18.55-50.46-.38-3.01,6.96,4.28,7.61,4.9Z" fill="#fff"/>
    <path d="M101,295.88c-31.9-9.56-51.28,13.6-63.99,39.01-.81-18.71,9.98-45.47,27.11-54.36,14.79-7.68,39.12,13.61,36.88,15.36Z" fill="#fff"/>
    <polygon points="142 5.89 140.48 32.91 73 5.89 142 5.89" fill="#fff"/>
    <path d="M471.99,592.88c3.71,7.88-1.83,8.59-3.1,15.88-22.16-1.16-44.08-3.65-64.75-12l-.13-12.87c21.3,8.1,45.49,10.36,67.98,8.99Z" fill="#fff"/>
    <path d="M391.99,795.89l-30.9-17.15c2.9-7.74-2.1-14.32-3.02-21.78,2.81-.19,4.01-2.34,7.11-1.87,3.48.53,30.21,14.73,31.92,17.25,2.44,3.62-4.85,18.51-5.1,23.54Z" fill="#fff"/>
    <path d="M127.21,505.09c.59-.8,5.41-.7,6.38-4.12,2.04-7.25-2.65-9.07-2.63-9.6.08-1.9,7.74-11.66,6.04-13.48-6.64.94-7.48,13.11-13.73,13.86-8.99,1.09-2.35-26.05,10.12-24.84,18.43,1.79,18.82,27.43,12.12,39.98-3.74,7.01-19.12,7.91-19.29,3.74-.02-.51.83-5.32,1-5.55Z" fill="#fff"/>
    <path d="M398,359.89c-1.4,1.4-24.11-5.25-26.02-7.51-1.75-2.07,2.6-11.15,4.03-13.77,6.1-11.17,19.44-22.46,30.97-27.73-5.97,15.53-9.14,32.32-8.98,49Z" fill="#fff"/>
    <path d="M236.99,722.88l-31.56-14.99c2.76-6.19-5.5-19.88.04-23.1,2.29-1.33,33.29,12.03,35.63,15.57l-4.11,22.52Z" fill="#fff"/>
    <path d="M266,414.88l4.61-12.95c20.48,10.63,43.59,2.14,57.36-14.59l7.01,3.04c-7.85,6.62-11.59,16.25-15.62,25.36-17.78,2.82-35.67,2.31-53.36-.87Z" fill="#fff"/>
    <path d="M67,455.88c4.83-3.85,2.7-7.4,4.63-11.89,13.6,3.7,27.05,9.93,38.38-2.87,6.08-6.87,4.43-17.53,11.96-20.74-4.15,12.68,1.82,29.09-10.64,37.34-13.71,9.07-30.73,5.42-44.33-1.84Z" fill="#fff"/>
    <path d="M480,251.89l17.79,3.21,7.1,41.68c-16.65,3.5-24.89-15.6-24.89-29.39v-15.5Z" fill="#fff"/>
    <path d="M518.21,141.66c-.95-.48-5.75-12.09-5.85-14.07-.26-5.38,2.98-19.51,4.1-25.74,1.81-10.06,4.54-20.07,7.03-29.96,1.5,1.19,2.06,2.75,2.43,4.57,2.11,10.16,5.66,40.13,5.12,49.88-.3,5.36-5.59,18.97-12.83,15.32Z" fill="#fff"/>
    <path d="M92.9,404c-.64-.51-12.63,2.27-15.93-1.66-1.89.77-5.29,12.13-6.95,15.08-.5.89-4.25,7.87-5.54,5.49-3.98-16.02,9.04-31.29,25.06-32.03,13.66-.64,33.69,12,28.52,27.6-7.3,1.61-9.52-5.06-11.56-10.55-3.48,3.17-9.09,2.3-12.51-.56-1.07-.89-.83-3.14-1.1-3.36Z" fill="#fff"/>
    <path d="M144.99,253.89l1.94,56.43c-2.26,4.33-3.84,12.87-9.38,13.62-3.43-.32-9.08-13.43-9.1-16.55-.02-2.66,12.32-46.43,14.07-50.48.52-1.2.99-2.75,2.48-3.01Z" fill="#fff"/>
    <path d="M167,280.89c32.14-7.57,26.43,36.78,28.06,56.41l-10.05,2.58c-.68-13.77,5.59-50.3-18.01-44v-15Z" fill="#fff"/>
    <path d="M430.01,488.89c14.92,5.35,30.7,5.57,44.46-3.03,4.31-2.69,13.6-14.03,16.01-14.08,1.14-.02,3.36.53,3.49,1.6.1.78-7.7,10.01-9.15,12.83-1.31,2.56-4.84,14.91-6.45,15.55-17,1.1-35.19,2.06-51.18-3.33l2.82-9.54Z" fill="#fff"/>
    <path d="M139.01,341.9c-4.88,40.16-7.19,80.75-12.05,120.94l-5.52-.88,11.57-121.06,6,1.01Z" fill="#fff"/>
    <path d="M588,242.89v22.5c-4.23,2.91-8.82,4.59-11.99,9.01-2.09,2.91-4.42,11.67-4.96,12.04-1.07.75-9.78,1.45-12.05,2.44,1.98-19.6,7.54-40.31,29-45.99Z" fill="#fff"/>
    <path d="M588,402.89c-12.74,7.57-29.34-12.82-28.03-23.52.33-2.7,14.89-7.61,18.31-8.36,2.89.77,4.99,8.97,6.17,11.93.69,1.73,3.55,4.16,3.55,4.45v15.5Z" fill="#fff"/>
    <path d="M353,395.9c-2.37,4.03-5.82,7.35-7.87,11.61-6.15,12.77-2.62,28.93-22.99,20.24-1.83-8.05,10.11-35.67,18.22-35.83,3.78-.08,8.74,3.58,12.65,3.98Z" fill="#fff"/>
    <path d="M165.9,477.96c6.76,12.71,2.16,27.28-4.04,39.35l-1.28,1.23-14.57-3.67c5.66-11.24,8.8-23.42,6-35.98l13.9-.94Z" fill="#fff"/>
    <polygon points="327 516.91 332.53 514.91 376.55 580.92 370.45 583.91 327 516.91" fill="#fff"/>
    <path d="M512,476.9l-.29,2.75c-9.05,8.32-11.13,20.81-13.85,32.1l-14.67-2.04c-2.84-7.87,9.19-35.49,17.29-35.71,2.87-.08,8.02,3.29,11.52,2.91Z" fill="#fff"/>
    <path d="M149.85,520.04l-1.87,21.85c-21.31-33.09-23.43-9.18-10.99,12.99l-16,3,5-42c8.93,1.55,15.44-.94,23.85,4.15Z" fill="#fff"/>
    <path d="M388,797.88c-15.29.47-33.58-7.37-47.36-14.13-3.08-1.51-29.22-15.21-24.64-19.85,24.69,9.35,50.5,18.33,71.99,33.98Z" fill="#fff"/>
    <path d="M167,300.39c19.43-10.7,12.46,29.03,14.07,39.03l-.65,1.59-13.42,2.88v-43.5Z" fill="#fff"/>
    <path d="M233,725.88c-15.2,1.15-65.7-15.32-73.05-27.44-.74-1.22-1.27-2.01-.95-3.54,24.96,8.86,51.82,16.25,73.99,30.98Z" fill="#fff"/>
    <path d="M405,745.89l-5.51,24.01c-11.39-7.31-23.08-14.73-36.35-18.15l-.14-5.86h42Z" fill="#fff"/>
    <path d="M550.99,355.89c-3.43-2.52-6.36.84-9.37.72-3.88-.15-16.99-23.07-22.12-27.75-.89-.81-3.1-.79-3.32-1.12-1.4-2.08.98-9.1.83-11.84,16.7,6.07,30.44,22.68,33.98,40Z" fill="#fff"/>
    <path d="M587.99,314.88c-1.97.12-.46-3.34-2.55-3.88-2.6-.67-11.7,3.24-10.45-5.12-4.55,4.64-12.92-.24-15.35.21-2.23.41-5.56,7.47-8.15,8.78-6-8.37.9-10.25,5.04-14.96,7.15-8.13,9.15-13.92,22-7.07,9.72,5.18,10.43,11.71,9.45,22.03Z" fill="#fff"/>
    <path d="M249,328.88c-.13,18.95.45,38.38,8,55.99-31.78,7.32-16.62-16.71-13.26-33.75,1.35-6.88,1.56-15.18,2.27-22.24h2.99Z" fill="#fff"/>
    <path d="M413.99,410.89c-1.55,17.26-4.07,34.93.01,52-6.39.61-18.74-.02-17.99-9.39,5.36-13.87,12.27-27.65,14.02-42.59l3.96-.02Z" fill="#fff"/>
    <path d="M267,395.89l-8.47,31.03c-5.1,2.75-10.31,1.43-15.51-.07,3.15-13.4,5.96-33.58,23.98-30.96Z" fill="#fff"/>
    <path d="M248,676.89c-1.24,5.77-2.34,12.95-4.03,18.49-.32,1.04.84,1.83-1.48,1.53l-36.49-16.05c.97-.82.8-3.96,1-3.96h41Z" fill="#fff"/>
    <path d="M36.99,573.88c-1.7.27-.85-1.18-.72-2.2,2.22-16.92,16.31-38.51,31.24-46.76,2.63.17-.19,7.82-.72,9.26-5.63,15.38-19.68,27.42-29.81,39.7Z" fill="#fff"/>
    <path d="M553.36,725.53c1.38,1.55,5.5,2.98,5.46,5.67-1.02,7.98-28.48,30.86-33.82,21.67-.75-1.29,13.66-14.5,15.64-17.83,2.78-4.68,4.63-10.96,6.37-16.15.97-.63,5.46,5.63,6.35,6.63Z" fill="#fff"/>
    <path d="M406.99,740.9l-42.99.98,3-18c14.48,2.85,27.2,10.17,39.98,17.02Z" fill="#fff"/>
    <path d="M440.01,154.89l-.02-12.01c-5.54-2.32-3.11,10.96-4,12-1.58.08-4.66-1.98-5.4-3.08-4.97-7.35,6.67-35.35,9.91-43.93.66,8.97,8.55,36.45,4.39,43.41-.81,1.35-3.47,2.69-4.88,3.61Z" fill="#fff"/>
    <path d="M476.99,303.9l-10.63,22.85-42.36.14,2.01-8c15.91,5.18,30,1.46,42.53-8.95,2.92-2.43,3.23-7.17,8.45-6.04Z" fill="#fff"/>
    <path d="M249,672.89h-41l3.54-18.02c13.02,3.96,27.3,8.91,37.46,18.02Z" fill="#fff"/>
    <path d="M418.98,476.9c.42,4.09,7.64,7.05,8.03,10.52.09.85-4.15,14.95-4.8,16.18-3.2,6.04-10.91,2.62-16.24,1.81-1.78-1.31-.49-3.58-.13-5.17.67-2.95,10.27-25.06,13.14-23.34Z" fill="#fff"/>
    <path d="M534.77,606.68l-8.76,4.21c-2.87-10.51-9.11-22.21-19.01-27.02,4.01-5.28,4.29-6.5,10.69-4.16,10.23,3.74,18.71,15.82,17.08,26.97Z" fill="#fff"/>
    <path d="M266.65,244.24c5.04,4.98,4.69,13.99,4.2,20.5l-5.85,1.16c1.85-31.22-21.31-19.31-17.13,4.87l-5.86,1.12c-.46-8.82,0-26.99,10.26-30.23,5-1.58,10.53-1.22,14.39,2.58Z" fill="#fff"/>
    <path d="M495,305.9c-8.16,9.47-6.13,30.65-23.59,24.05-1.92-2.62,6.59-22.51,9.01-24.14,3.95-2.66,10.19.37,14.58.09Z" fill="#fff"/>
    <path d="M378,670.91c-2.21,2.56-2.35,7.18-3.96,9.52-2.92,4.25-26.05,12.23-26.98,5.83l19.97-19.93,10.97,4.57Z" fill="#fff"/>
    <path d="M372.99,685.9l-6,25.99c-6.84-3.47-12.5-9.69-20.99-9,.82-1.62,6.73-10.36,7.27-10.72,3.35-2.19,15.33-3.15,19.72-6.27Z" fill="#fff"/>
    <path d="M560,358.9h2.99s1.52-10.99,1.52-10.99l1.48,8.51,1.99,1.48,2.5-9.98,2.52,11.98,3.98-4.99c4.43,11.72-6.2,17.37-16.43,18.05-2.88-8.12-6.42-18.67-.05-26.03l-.51,11.98Z" fill="#fff"/>
    <path d="M397.01,176.89l-.02-10-3.09.59-.91,9.41c-.73.85-3.62-1.69-4.05-2.45-3.04-5.39,7.29-32.05,8.55-39.56,2.01,0,4.62,29.57,4.59,32.51-.04,4.13-.59,8.23-5.08,9.51Z" fill="#fff"/>
    <path d="M543,792.88l-9.44,1.91c-2.76-1.52-.98-3.49.42-5.41-4.45-4.57-6.6,2.79-5.98,6.5h-5c-.35-3.63-.18-6.3,2.98-8.49-.77-.87-1.17-1.57-2.5-1.54-4.43.08-3.5,9.99-5.96,9.03-4.31-3.15-3.01-8.35,1.46-10.49-4.54-4.53-7.77,3.33-6.99,7.5-2.51-.81-2.29-4.36-1.94-6.43,2.38-13.97,31.45-3.48,32.95,7.41Z" fill="#fff"/>
    <path d="M412.52,308.89c1.39,1.55,9.99,7.79,10.14,8.43,1.76,7.58-5.96,23.59-16.66,16.08-3.04-2.57,5.24-24.26,6.53-24.51Z" fill="#fff"/>
    <path d="M60,411.89l-.02,12.99-22.98,4.02c-4.8-15.07,11.9-16.78,23-17.01Z" fill="#fff"/>
    <path d="M151.01,557.89c-.4-6.85,9.85-30.57,14.5-33.99,2.49-1.83,6.69-1.23,9.52-.54,1.63,1.22.4,1.28.16,2.19-2.85,10.94-17.13,23.57-24.18,32.34Z" fill="#fff"/>
    <path d="M359.99,504.89l2.09,12.35-17.37,5.52-8.7-10.38c-.37-2.22.47-1.14,1.43-1.52,6.37-2.5,15.79-3.58,22.55-5.97Z" fill="#fff"/>
    <path d="M111.2,503.73l1.79,4.16c-2.38,2.61-19.59-10.79-7.4-15.9,9.38-3.93,9.87,1.45,15.37,2.53,4.74.94,15.47-3.05,5.74,7.65l-14.25-.94-1.26,2.5Z" fill="#fff"/>
    <path d="M117,397.89l-13.66-19.49c5.88-7.46,10.27-15.67,13.66-24.51v44Z" fill="#fff"/>
    <path d="M362.91,521.96c5.19,6.48,2.24,18.09-1.67,24.65-.63,1.06.06,1.73-2.22,1.27l-13.02-20.98,16.91-4.94Z" fill="#fff"/>
    <path d="M403.01,256.9l6.99,40.46c-2.17,2.78-7.2,1.53-9.92-.05-10.75-6.25,5.47-30.58,2.93-40.41Z" fill="#fff"/>
    <path d="M379.99,623.9l-10.49,19.97c-6.2-7.34-11.02-14.8-9.49-24.97,6.31,3.58,12.58,5.33,19.99,5Z" fill="#fff"/>
    <path d="M359,726.88l-9.99,2.01c3.21-7.32-4.31-7.73-3-.51.6,2-1.67,1.93-2.49,1.5-4.15-2.17,3.53-8.51-.99-7.97s-2.77,7.04-4.99,7.78l-3.6-1.42,3.06-10.37c-4.78-.35-7.56,5.85-7.01,9.99-10.08-20.65,24.96-13.75,29.01-1.01Z" fill="#fff"/>
    <path d="M343.02,770.83c2.36-6-.84-11.45-3.01-16.93,14.75-.33,17.39,7.78,18.93,20.61l-1.46,2.38-14.46-6.07Z" fill="#fff"/>
    <path d="M188.99,428.9c4.36,5.28-18.69,34.07-23.98,37.99,3.6-14.05,10.51-31.1,23.98-37.99Z" fill="#fff"/>
    <path d="M201.99,706.89c-2.05-1.55-11.69-3.66-12.53-4.96-1.34-2.09-.17-15.4-4.46-19.03,16.16-.09,17.29,10.34,16.99,23.99Z" fill="#fff"/>
    <path d="M552.94,787.8c-.14.28-4.6,2.01-5.45,2.91-6.64-9.67-16.77-14.69-28.48-15.31,6.22-14.1,37.41,5.6,33.93,12.4Z" fill="#fff"/>
    <path d="M532.64,739.53c-.94,1.11-10.27,9.37-10.98,9.27l-11.65-10.9c11.56-.13,21.95-6.32,30.99-13.01-2.12,5.2-4.71,10.33-8.35,14.64Z" fill="#fff"/>
    <path d="M419,604.9l-9.5,19.97c-.69-.01-7.17-10.7-7.34-11.71-.68-4.14,3.27-8.97-.16-13.25l17,5Z" fill="#fff"/>
    <path d="M65,495.9c-3.51,13.32-14.82,22.76-25.98,29.99,3.35-12.16,12.63-27.13,25.98-29.99Z" fill="#fff"/>
    <path d="M307,265.89h-16c-3.85-21.29,21.09-22.07,16,0Z" fill="#fff"/>
    <path d="M364,663.9l-19.49,18.7c-2.26.42-9.13-11.3-11.5-13.21,11.11.45,20.4-3.38,30.99-5.48Z" fill="#fff"/>
    <path d="M588,269.89v27l-13.83-9.59c1.24-7.83,6-14.96,13.83-17.41Z" fill="#fff"/>
    <path d="M184.99,699.89l-25.97-9.5c3.46-4.95,6.08-1.46,6.48-1.52.87-.13,1.54-5.8,6.04-4.7,3.39.99-.81,8.66,3.44,7.71l1.02-9c8.35-.24,9.83,10.37,8.99,17Z" fill="#fff"/>
    <path d="M363.99,723.89c-5.66-2.42-7.37-7.58-13.83-9.66-5.15-1.66-7.99-.79-12.68-1.34-1.45-.17-2.9.81-2.47-1.49,5.67-7.3,10.72-6.97,18.69-3.72,7.46,3.05,14.62,7.63,10.29,16.2Z" fill="#fff"/>
    <path d="M401,224.89h-13.01c.01-5.75-1.23-20.96,8.23-18.78.86.2,4.77,2.99,4.77,3.28v15.5Z" fill="#fff"/>
    <path d="M159,475.89c-1.97,2.18-7.12-7.05-7.73-8.77-2.48-7.02-3.13-16.97-1.25-24.23,7.52.36,10.17,31.69,8.98,33Z" fill="#fff"/>
    <path d="M30.99,593.89c-7.4-.19-20.09-29.55-17.98-31.99,11.08,5.83,16.09,20.37,17.98,31.99Z" fill="#fff"/>
    <path d="M336.98,375.9c3.67,9.96,16.52,11.98,26.03,10.99v8.01s-30.99-10.52-30.99-10.52l2.91-7.87,2.05-.61Z" fill="#fff"/>
    <path d="M329.01,249.89l-13,1.99c-1.34-20.84,15.49-28.27,13-1.99Z" fill="#fff"/>
    <path d="M31.99,473.89c-9.29-6.34-13.23-19.22-12.98-30,4.95-5.59,15.63,26.29,12.98,30Z" fill="#fff"/>
    <path d="M564.01,490.88l-.94,8.57c-3.11-.12-7.94,1.77-10.59,1.53s-9.6-8.7-12.48-11.09l24.01.98Z" fill="#fff"/>
    <path d="M481.95,354.86l-14.95-.97c-.96-18.76,20.2-17.82,14.95.97Z" fill="#fff"/>
    <path d="M546.99,429.89l-6.85-2.15-1.19-17.19,10.03-4.67c.64,8.16-.58,16.03-2,24Z" fill="#fff"/>
    <path d="M401.99,428.88c-1.17,1.04-8.64-9.95-8.77-10.64-.24-1.35,6.36-17.17,7.28-17.35,2.76,9.23,4.89,18.58,1.49,27.99Z" fill="#fff"/>
    <path d="M55,371.87c-6.86,1.62-12.33,6.22-17.99,10.01-2.77-10.07,9.17-14.34,13.49-21.99l4.49,11.98Z" fill="#fff"/>
    <path d="M135.58,531.31c7.13,4.47,11.48,20.27,11.41,28.58-6.76-4.61-14.05-20.69-14-28.5,0-1.15-.26-2.19,1.02-1,.64.11,1.07.6,1.57.92Z" fill="#fff"/>
    <path d="M31.99,500.89c-9.17-4.41-16.47-13.49-16.98-24,7.03-1.96,19,21.39,16.98,24Z" fill="#fff"/>
    <path d="M467.99,196.89l-16.9-3.1c.34-15.03,20.73-11.44,16.9,3.1Z" fill="#fff"/>
    <path d="M339.99,768.88l-23.99-8.49c1.47-1.36,5.45-3.98,7.33-3.41,3.22.96,1.19,7.41,5.15,5.9,3.35-1.28-2.16-5.77-1.48-7.98,11.95-2,11.88,4.33,12.99,13.99Z" fill="#fff"/>
    <polygon points="549.99 486.9 550 474.89 563.56 476.83 563.06 487.48 549.99 486.9" fill="#fff"/>
    <path d="M365.99,515.88c-5.51-9.86-.99-20.58-.49-31,1.02,4.24,7.42,12.97,7.5,16.61.09,3.88-6.8,9.91-7.02,14.39Z" fill="#fff"/>
    <path d="M180.99,541.89c-2.58,11.23-16.68,16.46-26.99,18.98,7.2-7.86,16.22-17.03,26.99-18.98Z" fill="#fff"/>
    <path d="M54,466.9c2.1,2.01-10.99,24.63-16.99,23.99-1.85-2,9.48-26.42,16.99-23.99Z" fill="#fff"/>
    <path d="M53.01,451.88c-.76-7.24,6.25-9.66,7.49-16.99,4.3,4.12,8.21,9.83,6.06,16.05l-13.54.94Z" fill="#fff"/>
    <path d="M505.01,299.88l-.52,5.02-27.5-4.53,4.53-10.5c6.47,7.57,13.13,11.14,23.49,10.01Z" fill="#fff"/>
    <path d="M259.82,252.08l1.12,15.76-8.93,2.05c.3-5.7-1.55-22.21,7.81-17.81Z" fill="#fff"/>
    <path d="M535,409.89v16l-12.01-4.51c4.1-3.94,4.56-6.67,4.02-12.49l7.99,1Z" fill="#fff"/>
    <path d="M192.99,215.89l-12.89-4.1c1.67-14.85,15.55-9.73,12.89,4.1Z" fill="#fff"/>
    <path d="M36.01,594.88c-2.86-2.91,16.12-18.74,19.97-18.51-2.51,9.39-11.11,15.5-19.97,18.51Z" fill="#fff"/>
    <path d="M116,477.9l-1.1,8.9c-20.97,7.18-13.74-10.78,1.1-8.9Z" fill="#fff"/>
    <path d="M519.01,472.89l-1.38,2.88-26.62-7.38,5.98-8.51c2.68,9.57,12.83,12.97,22.02,13Z" fill="#fff"/>
    <path d="M122.99,466.9c-3.24,9.34-8.51,5.66-15.98,8.99-.76-8.97,9.08-9.62,15.98-8.99Z" fill="#fff"/>
    <polygon points="161.99 521.9 152.01 538.88 153.01 520.89 161.99 521.9" fill="#fff"/>
    <path d="M588,362.89v19c-2.53-5.46-3.63-10.61-8.74-14.48.98-3.97,5.18-4.55,8.74-4.52Z" fill="#fff"/>
    <polygon points="522.93 144.96 522.98 156.87 516.99 156.89 518.02 144.91 522.93 144.96" fill="#fff"/>
    <path d="M188,467.9c-3.59,8.18-15.26,6.21-22.99,6.98,2.2-2.48,22.04-7.72,22.99-6.98Z" fill="#fff"/>
    <path d="M140,326.89c2.26,15.33-9.85,15.59-6.01,0h6.01Z" fill="#fff"/>
    <path d="M351.01,579.88c-1.16-1.45,2.38-12.93,3.49-12.97l5.39,8.5-8.88,4.47Z" fill="#fff"/>
    <path d="M583,503.89c.15-.94-.08-2.03,0-2.99l-7.5,3.99c-2.16-3.08,11.96-11.71,12.49-10.99l-.1,8.89c-1.6.43-3.31.57-4.88,1.11-.2,1.28-.23,2.24-1.51,2.99-6.35-.75-1.09-2.11,1.51-2.99Z" fill="#fff"/>
    <path d="M401,595.39c-.09.36-1.68,1.77-1.99,1.5-2.68-7.92-6.45-9.42,1.99-16-.67,4.06.93,10.9,0,14.5Z" fill="#fff"/>
    <polygon points="416.99 465.89 416.56 472.95 411.1 473.77 410 466.89 416.99 465.89" fill="#fff"/>
    <path d="M390.99,581.89c-4.32-5.33-10.81-1.13-12.96-6.51,4.82-4.16,12.02.92,12.96,6.51Z" fill="#fff"/>
    <polygon points="587.99 489.88 584.01 477.9 587.84 479.55 587.99 489.88" fill="#fff"/>
    <path d="M63.5,5.89l99.33,41.67,1.2,407.87-2.02,6.46c-11.17-50.07-24.59-8.93-10.04,13.52-6.31-6.24-12.13-11.08-21.04-13.13l4.19-41.75c.84-2.24,5.47-.65,5.93-7.16,1.07-15.04-1.86-34.8-1.1-51.01.86-18.22,2.47-36.7,11.06-52.94-1.38-8.76-.27-58.22-3.25-62.26-.29-.39-2.02-1.12-2.45-1.1-5.88.32-14.82,41.89-17.33,48.84-39.81-47.43-91.46-18.29-95.04,38.45-2.04,32.39,1.63,66.94.05,99.55l30.99-6.01,5.99,12.52-9.33-8.43c-2.99,1.27-3.4,4.67-4.95,6.63-.39.49-2.43.27-3.17,1.28-.35.47-4.23,10.28-4.1,11.02,1.55,8.93,7.97,4.21,11.83,5.16,1.31.32,7.22,5.25,9.7,6.37,17.15,7.74,32.51,7.9,48.03-3.54l-.04,4.95c-3.35,0-10.02,2.1-11.97,4.81-2.26,3.14-1.3,6.59-2.51,9.21-1.05,2.29-5.3,4.53-5.46,8.62-.09,2.38,1.73,3.85,1.77,5.09.06,1.99-2.06,4.09-1.84,7.8.44,7.22,8.59,12.39,15.07,13.53l-5.99,50.5-24.01,7.48c-.69-7.6,6.86-11.71,7.99-17.99-2.39-2.41-8.08,6.76-8.88,8.61-3.27,7.59.22,12.19-11.11,13.38-1.83-2.17,4.29-18.53,5.55-21.94,1.68-4.56,6.41-11.6,7.23-14.77.34-1.32,1.11-3.76-1.27-3.27-5.25,5.26-8.48,13.99-10.99,21.02-1.25,3.5-4.43,19.14-5,20-.77,1.17-5.06,1.72-6.52,2.97-.22-17.15-24.01,10.36-25,9-1.88-10.86,11.4-17.12,17.91-24.81,5.31-6.27,24.68-32.7,17.82-39.97-16.81-.34-28.04,23.45-34.73,36.78l1.51-26.97c6.47-5.56,15.37-10.56,20.99-17.01,2.75-3.16,13.89-18.85,8.48-21.51-10.39-5.1-25.83,16.94-29.99,24.5v-22.5c2.24-2.18,5.65-2.96,7.9-5.1,24.77-23.69,5.61-42.54-8.88-8.4-.99-14.24-1.26-33.62-14.77-41.82-11.41,2.58-2.35,24.24,2.34,30.74,5.28,7.3,12.14,7.94,9.41,20.08-27.41-42.79-26.91,5.09-.13,14.64l.13,37.36c-2.69-4.09-3.37-9.56-5.59-13.9-1.85-3.62-13.44-21.02-16.88-12.06s4.4,23.87,10.06,30.88c6.26,7.74,12.37,6.58,12.5,17.58l-2.07,15.5c-1.97-9.25-9.37-17.46-16.99-22.61l-3.1,1.03c-4.63,6.56,7.25,26.35,11.07,32.58l-15,4.01V5.89h56.5ZM140,191.39v-93c0-36.21-47.48-68.04-79.92-43.92-34.18,25.42-20.54,87.66-22.61,124.45,2.25,3.56,30.07,3.12,35.81,6.19,2.58,1.38,2.8,6.01,7.16,7.89,2.92,1.26,3.85.03,5.61.46.68.17,1.51,2.17,3.51,2.46,9.47,1.35,13.51-7.36,14.88-7.68,5.82-1.37,25.83,5.97,32.3,5.4,1.22-.11,3.02-1.33,3.28-2.25ZM108.75,210.05c-6.2,1.12-7.44,17.68-4.33,21.92,2.72,3.71,24.87,5.02,30.16,3.99,3.7-2.48,2.93-17.3,1.46-21.6-1.78-1.9-24.41-4.82-27.28-4.3ZM56,247.89c0-.7,12.39,1.65,13.49-2.01,1.88-5.98,4.06-20.53-4.05-21.93-3.65-.63-25.21-2.44-27.49-1.6-1.16.43-2.12,1.14-2.95,2.04v18.5c-16.99-3.58-12,11.33-11.11,22.61,2.18,2.69,22.65,2.94,26.67,2.46,1.47-.18,5.44-.76,5.44-2.56v-17.5Z" fill="#fff"/>
    <path d="M20.58,541.31c-4.6-6.78-8.33-13.77-7.57-22.42,4.96-5.49,19.85,30.6,18.51,34.97-4.38-3.85-7.67-7.74-10.93-12.55Z" fill="#fff"/>
    <polygon points="367.5 523.89 368 524.39 367.5 524.89 367.5 523.89" fill="#fff"/>
    <path d="M60.36,378.53c13.54,10.54,23.38,10.45,38.93,3.5l8.69,9.37c-18.37-7.47-33.28-4.28-44.82,12.16-.85,1.21-1.02,4.02-1.27,4.21-1.07.8-22.22,2.28-25.88,6.12l1.13-26.37c1.73-3.55,17.46-13.7,20.87-12.18,1.16.67,1.48,2.52,2.35,3.2Z" fill="#fff"/>
    <polygon points="587.5 505.89 588 506.39 587.5 506.89 587.5 505.89" fill="#fff"/>
    <path d="M567,477.89l12.89.11,3.98,12.59c-13.73,10.16-18.87,20.62,4.13,19.3v327H7v-236.5c4.08-1.5,12.6-5.54,16.56-5.57,8.91-.06,7.37,8.84,22.37-.5,5.34-3.33,9.07-10.08,13.37-12.63,11.84-7.01,34.46-10.12,47.69-15.79l-12.8,126.55c.09,5.6,8.32,4.87,12.23,3.57l15.01-134.19c.5-.72,15.83-4.08,17.06-3.92,2.54.32,3.91,3.57,6.16,4.83,8.85,4.95,18.56-3.2,26.95-3.74,5.88-.38,14.9,2.12,21.4.89.57-2.33-.97-2.38-2.73-2.71-4.53-.87-10.52-.58-15.27-1.29,13.59-11.31,16.3-24.06-5.98-13.48,4.2-3.1,9.47-19,13.49-19.5s10.81.65,15.74-.25c6.41-1.17,13.22-4.71,18.26-8.74,8.74-6.97,13.37-18.21,22.47-24.02.75,8.75,3.91,20.39,1.55,29.03-1.42,5.21-17,27.83-20.91,36.09-3.03,6.39-14.15,29.1-11.11,34.86,1.55,2.94,12.87,5.59,13.24,7.48l-19.77,86.53c-11.15-7.3-52.45-6.01-45.71,14.24,4.43,13.32,62.69,34.14,75.99,31.52,7.58-1.49,9.03-11.5,11.02-17.97,10.35-33.76,15.43-69.51,33.24-100.77l23.84.11c1.72.66,5.84,18.45,7.16,21.84,8.44,21.8,23.76,44.04,41.47,59.04l-.47,2c-6.35,8.3-29.34,20.87-23.29,33.24,4.57,9.35,29.67,6,37.76,1.74l-4.47,25.02-15.98-3.07c-65.17,5.04-11.58,34.07,14.77,44.22,10.14,3.91,31.86,13.43,38.17.81,9.61-19.21,14.74-54.91,22.03-76.97,1.32-4,11.97-33.01,13.97-33l42.79,63.67c5.59,3.86,12.61-.65,11.68-7.09l-33.96-53.12c-.23-1.84-.05-1.45,1.48-1.5,4.35-.12,10.88,2.19,15.88.95,7.99,31.19,33.99,50.87,58.62,69.09-1.71,13.73-21.17,15.84-21.76,29.73-.72,16.99,33.4,10.95,43.12,6.1,14.24-7.1,32.9-40.36,23.49-54.21-8.52-12.55-28.56-25.19-37.28-38.72-2.77-4.3-8.08-16.6-7.65-21.45l.16-1.4c4.21-.64,26.87-10.28,27.75-12.75,3.76-10.49-14.58-43.69-18.88-54.78,18.18-16.75,39.82-29.62,34.21-58.21-1.37-6.99-9.42-19.11-9.97-23.05-.4-2.89,1.29-5.62.31-10.31-1.05-5.03-6.09-9.91-7.49-13.51-.5-1.29.21-1.85,1.49-1.46l11.49-2.02v-24ZM585.99,537.88c.72-4.32-8.51-3.66-8.99-1.47-.8,3.66,7.06,2.44,8.99,1.47ZM202.99,550.88c.15-4.21-6.86-3.94-8.98-1.48l8.98,1.48ZM153.99,580.88c2.32-3.76-11.39-4.17-11.99-1.47-.74,3.03,11.65,2.03,11.99,1.47ZM167.15,594.75c1.81,3.13,25.74,4.63,21.69-6.19-4.09-7.95-25.64-.65-21.69,6.19ZM65.42,593.27c-5,9.11,18.39,10.04,19.61,2.06,1.33-8.78-16.55-7.63-19.61-2.06ZM580.69,610.57c1.24-.96,2.74-4.2,2.18-5.94-3.63-10.45-25.67-4.18-21.41,4.27,4.22,3.62,14.75,5.14,19.24,1.68ZM153.83,602.16c-5.68.3-23.11,5.85-19.37,13.72,3.42,7.18,53.05,6.81,35.55-9.51-4.22-3.94-10.51-4.51-16.18-4.21ZM56,612.91c-1.9-1.03-11.92-2.04-11.97.48l10.5,1.5,1.47-1.98ZM34.79,629.1c-10.42.79-16.87,12.3-4.28,13.78,4.23.5,17.02.84,19.03-4.03,1.69-7.03-9.3-10.16-14.75-9.75ZM295,657.89c-.98-5.49-13-5.47-14,0h14ZM145.93,655.98c-1.13-1.5-9.83-1.98-10.9,1.41.15,2.36,9.07,1.33,10.98,1.5-.13-.86.26-2.46-.08-2.91ZM177.66,656.06c-7.38,2.66,8.41,6.39,9.33,2.31.72-3.19-7.55-2.95-9.33-2.31ZM71.99,661.88c-.54-6.88-20.12-5.76-21.01-.5-.52,3.12,7.32-.48,9.49-.55,4.1-.14,7.53,1.04,11.52,1.05ZM50.96,668.94c-2.14-2.45-16.56-2.46-19.38-.15l-.58,3.09h19.99c-.12-.83.23-2.63-.04-2.94ZM580.99,678.88c.71-4.78-11-3.35-10.97-1.49,2.72,2.87,7.48,1.03,10.97,1.49ZM295.14,692.74c4.66,2.89,14.61,3.26,18.81-.4,9.47-8.25-21.39-14.55-18.81.4ZM566.99,693.88c4.29-3.63-18.93-7.23-18.99.99,7.66-1.42,11.04-3.77,18.99-.99ZM41.7,707.18c-3.89-4.88-15.86-4.57-20.22.68-9.24,11.16,18.66,9.14,21.07,5.04.93-1.86.39-4.17-.85-5.72ZM145.99,723.88c-1.75-6.64-14.07-4.64-17.97-.49l17.97.49ZM55.33,740.22c-1.77,2.22-3.09,5.8-1.61,8.43.57,1.23,1.49,1.77,2.55,2.47,4.17,2.75,34.04,2.5,40.14,1.68,9.09-1.22,18.2-8.12,8.55-16.37-10.17-8.69-41.04-6.95-49.63,3.79ZM281.99,742.88c1.18-7.89-21.32-5.62-21.99-1.49,7.23.96,14.11-2,21.99,1.49ZM126.73,753.13c-3.74.68-10.58,5.03-10.63,9.07,1.38,5.76,28.09,5.28,25.75-3.58-3.17-5.5-9.19-6.57-15.12-5.49ZM457.01,758.89c-4.81-.14-14.42-2.69-16.01,2.98,3.25.53,6.28-.91,9.45-1.02s7.52,3.65,6.56-1.97ZM182.35,765.24c-15.67,16.88,48.69,12.48,27.59-1.8-7.14-4.83-21.62-4.63-27.59,1.8ZM66,772.91c-9.68-2.87-23.11-5.28-30.97,2.48,1.57,2.32,1.84.85,3.45.49,10.1-2.24,14.91-4.35,26.01-.95l1.51-2.02ZM442.73,777.12c-14.02.79-18.73,15.95,2.8,14.81,19.74-1.05,10.86-15.58-2.8-14.81ZM273.99,790.88c-1.71-8.92-26.91-5.55-27.99-.48-.26,1.24.67,2.24,2.08,2.1,2.61-.26,6.36-3.41,11.41-3.66s9.57,1.43,14.51,2.04ZM145.76,794.09c-9.75-5.89-23.73-6.56-32.74,1.3,4.76,3.03,10.36-2.5,16.48-2.56,5.64-.06,10.6,3.12,15.99,4.08l.27-2.82ZM88.99,800.91c-1.41-1.81-17.4-1.11-20.41.88l-.58,3.09,21-1c-.14-.82.23-2.67-.01-2.97ZM297.76,810.65c9.97-9.65-24.59-14.92-19.26.25,1.94,3.37,16.8,2.13,19.26-.25ZM497.99,812.88c-.4-6.34-21.85-3.62-22.99-1.98.18,5.24,6.57.99,10.48.94,4.43-.05,8.18,1.17,12.51,1.04Z" fill="#fff"/>
    <path d="M55.33,740.22c8.59-10.74,39.46-12.48,49.63-3.79s.53,15.15-8.55,16.37c-6.1.82-35.97,1.07-40.14-1.68-1.06-.7-1.98-1.24-2.55-2.47-1.48-2.63-.16-6.21,1.61-8.43ZM81.77,734.17c-4.4.09-29.93,5.79-23.73,13.1,3.61,4.26,41.34,2.76,45.36-.48,9.72-7.84-16.86-12.73-21.63-12.62Z"/>
    <path d="M153.83,602.16c5.67-.3,11.96.28,16.18,4.21,17.5,16.32-32.13,16.69-35.55,9.51-3.74-7.87,13.69-13.42,19.37-13.72ZM151.78,606.18c-2.96.36-15.21,3.85-13.78,8.2,3.36,4.59,32.54,2.02,32.97-.98-3.75-7.91-11.37-8.17-19.19-7.22Z"/>
    <path d="M182.35,765.24c5.97-6.43,20.46-6.63,27.59-1.8,21.1,14.28-43.26,18.68-27.59,1.8ZM209.9,770.8c1.3-11.45-24.58-8.86-25.9-1.39-.91,5.15,22.39,3.33,25.9,1.39Z"/>
    <path d="M442.73,777.12c13.66-.77,22.54,13.76,2.8,14.81-21.53,1.15-16.82-14.01-2.8-14.81ZM453,786.87c.8-8.25-18.31-7.16-19.03-1.5-.29,2.31,3.19,2.37,4.53,2.52,2.11.22,13.74.19,14.5-1.01Z"/>
    <path d="M34.79,629.1c5.45-.41,16.43,2.72,14.75,9.75-2.01,4.87-14.8,4.53-19.03,4.03-12.59-1.48-6.14-12.99,4.28-13.78ZM45.99,638.88c.94-8.98-20.21-7.52-19.03-.53,2.19,2.55,18.25,1.75,19.03.53Z"/>
    <path d="M126.73,753.13c5.92-1.07,11.94-.01,15.12,5.49,2.34,8.85-24.37,9.34-25.75,3.58.05-4.04,6.89-8.39,10.63-9.07ZM121,762.88c2.53-.19,17.8,1.43,16.99-3.47s-18.2-4.28-16.99,3.47Z"/>
    <path d="M167.15,594.75c-3.95-6.84,17.6-14.14,21.69-6.19,4.04,10.83-19.88,9.32-21.69,6.19ZM171.01,592.88c4.94-.64,11.59,1.99,14.97-2.49-3.14-3.06-9.4-1.27-12.78.24-1.41.63-2.74-.63-2.19,2.25Z"/>
    <path d="M580.69,610.57c-4.49,3.46-15.01,1.94-19.24-1.68-4.26-8.45,17.78-14.71,21.41-4.27.56,1.74-.93,4.99-2.18,5.94ZM580,604.91c-4.96-2.02-9.6-3.51-14.34-.1l-.61,3.02c1.13,1.4,15.97,2.89,14.95-2.92Z"/>
    <path d="M297.76,810.65c-2.46,2.38-17.31,3.62-19.26.25-5.33-15.17,29.23-9.89,19.26-.25ZM294.99,805.9c-2.02-1.66-13.73-1.02-12.99,2.47,1.91,3.62,15.1.66,12.99-2.47Z"/>
    <path d="M41.7,707.18c1.24,1.55,1.78,3.86.85,5.72-2.41,4.1-30.31,6.12-21.07-5.04,4.36-5.26,16.33-5.56,20.22-.68ZM38.93,708.97c-5.19-2.54-13.39-4.13-15.93,2.41.53,2.33,19.27,3.25,15.93-2.41Z"/>
    <path d="M65.42,593.27c3.06-5.57,20.94-6.72,19.61,2.06-1.21,7.98-24.61,7.05-19.61-2.06ZM69,595.87c4.22,1.44,9.38,1.78,12.97-1.48-3.39-3.99-7.59-1.98-11.71-.74l-1.26,2.22Z"/>
    <path d="M295.14,692.74c-2.58-14.94,28.28-8.65,18.81-.4-4.19,3.65-14.15,3.28-18.81.4ZM298,690.88c4.61.51,10.12,2.24,13.98-1.49-3.34-4.2-11.68-3.76-13.98,1.49Z"/>
    <path d="M145.76,794.09l-.27,2.82c-5.38-.96-10.34-4.14-15.99-4.08-6.11.06-11.72,5.6-16.48,2.56,9.01-7.86,22.98-7.19,32.74-1.3Z"/>
    <path d="M273.99,790.88c-4.94-.61-9.38-2.29-14.51-2.04s-8.79,3.4-11.41,3.66c-1.4.14-2.34-.86-2.08-2.1,1.08-5.07,26.28-8.44,27.99.48Z"/>
    <path d="M66,772.91l-1.51,2.02c-11.1-3.4-15.92-1.29-26.01.95-1.61.36-1.88,1.83-3.45-.49,7.87-7.76,21.29-5.35,30.97-2.48Z"/>
    <path d="M88.99,800.91c.24.3-.13,2.15.01,2.97l-21,1,.58-3.09c3-1.99,19-2.68,20.41-.88Z"/>
    <path d="M71.99,661.88c-3.99-.01-7.41-1.19-11.52-1.05-2.17.07-10.01,3.68-9.49.55.88-5.26,20.46-6.38,21.01.5Z"/>
    <path d="M50.96,668.94c.27.31-.08,2.12.04,2.94h-19.99s.58-3.09.58-3.09c2.82-2.32,17.23-2.31,19.38.15Z"/>
    <path d="M281.99,742.88c-7.88-3.49-14.75-.53-21.99-1.49.67-4.13,23.17-6.41,21.99,1.49Z"/>
    <path d="M497.99,812.88c-4.33.13-8.08-1.09-12.51-1.04-3.91.05-10.3,4.3-10.48-.94,1.14-1.64,22.59-4.36,22.99,1.98Z"/>
    <path d="M145.99,723.88l-17.97-.49c3.9-4.14,16.22-6.15,17.97.49Z"/>
    <path d="M566.99,693.88c-7.95-2.78-11.34-.43-18.99.99.06-8.23,23.29-4.62,18.99-.99Z"/>
    <path d="M295,657.89h-14c1-5.47,13.02-5.49,14,0Z"/>
    <path d="M457.01,758.89c.96,5.62-3.25,1.86-6.56,1.97s-6.2,1.54-9.45,1.02c1.59-5.67,11.2-3.12,16.01-2.98Z"/>
    <path d="M177.66,656.06c1.78-.64,10.05-.87,9.33,2.31-.92,4.08-16.71.35-9.33-2.31Z"/>
    <path d="M145.93,655.98c.34.45-.05,2.05.08,2.91-1.91-.16-10.84.86-10.98-1.5,1.07-3.4,9.78-2.92,10.9-1.41Z"/>
    <path d="M153.99,580.88c-.34.55-12.73,1.56-11.99-1.47.6-2.7,14.3-2.28,11.99,1.47Z"/>
    <path d="M56,612.91l-1.47,1.98-10.5-1.5c.05-2.52,10.08-1.51,11.97-.48Z"/>
    <path d="M585.99,537.88c-1.93.97-9.79,2.19-8.99-1.47.48-2.19,9.71-2.85,8.99,1.47Z"/>
    <path d="M580.99,678.88c-3.49-.46-8.25,1.38-10.97-1.49-.03-1.85,11.68-3.29,10.97,1.49Z"/>
    <path d="M202.99,550.88l-8.98-1.48c2.12-2.46,9.13-2.74,8.98,1.48Z"/>
    <path d="M140,191.39c-.26.92-2.06,2.14-3.28,2.25-6.46.57-26.47-6.77-32.3-5.4-1.37.32-5.41,9.03-14.88,7.68-2-.28-2.82-2.29-3.51-2.46-1.76-.43-2.69.8-5.61-.46-4.36-1.88-4.58-6.51-7.16-7.89-5.74-3.07-33.56-2.63-35.81-6.19,2.07-36.79-11.57-99.03,22.61-124.45s79.92,7.7,79.92,43.92v93ZM123.37,69.54c-11.09-15.01-28.36-23.24-47.37-18.15,11.04,3.15,18,11.57,26.49,17.51,3.57,2.5,7.88,3.24,12.39,6.61,17.85,13.38,16.79,38.74,12.87,58.64-1.42,7.22-9.93,27.2-9.46,32.11.12,1.21,10.25,20.87,11.19,21.64,1.76,1.46,4.49.81,6.5,1.99-1.65-28.5,3.13-58.22-.01-86.48-1.56-13.98-4.43-22.82-12.61-33.87ZM95.99,66.9c-13.66-6.49-22.06-19.64-36.45-6.98-12.97,11.41-18.98,33.21-18.53,49.96,10-16.47,15.6-35.64,36.8-40.69l18.18-2.3ZM125.99,106.89c.18-31.98-36.87-47.01-61.2-27.93-5.68,4.45-21.69,33.3-23.89,40.41-1.56,5.05,1.54,10.76-.83,15.96,1.18,5.21,13.03-5.94,14.34-7.54,6.45-7.85,9.25-19.77,13.23-29.01,13.63-1.44,24.41-6.14,34.34-15.52,4-.94,4.42,4.92,6.04,7.1,5.3,7.12,10.87,11.39,17.97,16.52ZM112.37,101.52c-3.92-3.89-6.77-9.12-9.89-13.64-9.79,8.43-20.27,12.94-33.03,14.96-3.59,18.74-15.27,20.33-6.31,40.4,5.43,12.16,17.27,17.67,30.39,15.68,14.96-2.26,26.19-29.45,27.35-42.64s-1.84-8.12-8.52-14.76ZM126,123.39c.56-4.85-.41-10.54,0-15.5l-5.8,26.7-10.93,18.79,6.72,7.51c2.08-12.53,8.54-24.88,10.01-37.5ZM41.01,168.89l20.87-19.65-7.38-16.33-14.56,8.65,1.07,27.33ZM123.99,187.88c1.38-1.35-14.42-30.15-17.71-30.88-13.31,7.87-29.59,8.65-40.32-3.65l-2.2-.31c-3.6.58-21.09,18.54-22.75,22.36-.83,1.91.87,1.27,1.51,1.45,1.92.55,17.5,2.27,18.93,2.06,4.61-.68,9-10.1,21.61-9.56,4.65.2,23.51,5.97,27.64,8.34,5.48,3.16,6.57,9.89,13.3,10.19ZM96.01,191.89c4.54-1.97,3.4-8.28,1.4-11.91-4.39-7.96-24.7-8.59-30.4-.59-.25,1.21,7.97,1.57,9.33,2.41,1.78,1.09,3.2,9.27,7.15,8.08,5.01-1.51-3.04-11.49-2.48-11.99,8.54-1.73,5.66,14.85,9.48,13.99,3.8-3.75.19-8.47-.5-12.48l2.52-.54c2.39,3.98,4.26,8.22,3.51,13.02ZM113,185.88c.3-3.37-11.78-8.97-13-7.98,1.22,7.11,7.33,6.36,13,7.98Z"/>
    <path d="M56,247.89v17.5c0,1.8-3.96,2.39-5.44,2.56-4.02.48-24.49.23-26.67-2.46-.9-11.28-5.89-26.18,11.11-22.61v-18.5c.83-.9,1.78-1.62,2.95-2.04,2.28-.83,23.84.97,27.49,1.6,8.11,1.4,5.93,15.95,4.05,21.93-1.1,3.66-13.49,1.3-13.49,2.01ZM67,227.89l-28-3v19h28v-16ZM52,247.89l-25-1v17h25v-16Z"/>
    <path d="M108.75,210.05c2.88-.52,25.51,2.4,27.28,4.3,1.47,4.3,2.24,19.12-1.46,21.6-5.28,1.03-27.44-.28-30.16-3.99-3.11-4.24-1.87-20.8,4.33-21.92ZM133,216.89l-24.85-2.85c-1.33.82-2.44,15.59.49,16.71,3.76,1.44,19.23.94,24.36,2.14v-16Z"/>
    <path d="M257,45.89c29.9-7.99,40.35,29.69,6.66,29.59-4.22-.01-10.39-2.76-13.11-2.57-7.44.52-10.31,7.12-24.6,4.52-3.99-.72-10.29-5.42-11.4-5.49-2.09-.14-6.31,2.53-9.14,2.85-39.35,4.53-30.68-45.94,2.58-33.9,6.61-22.31,46.67-18.49,49.02,5ZM209.99,45.89c-28.44-15.26-39.8,28.58-6.77,25.72,3.61-.31,10.93-3.76,12.31-3.69,1.51.08,7.84,6.42,14.99,6.96,10.65.79,15.68-5.75,19.95-5.88,2.24-.07,7,2.44,10.14,2.78,9.04.97,22.89-2.36,20.18-14.16-2.09-9.07-18.63-8.72-25.82-8.19-3.72-23.7-39.88-28-44.98-3.54Z"/>
    <path d="M192.79,376.12c14.23-1.64,25.65,12.52,7.71,14.77-3.39.42-15.25.51-17.89-1.1-7.43-4.53,4.54-13.02,10.18-13.67ZM205,385.87c.41-8.4-19.61-7.26-20.01-.5-.12,2.08,0,1.32,1.5,1.51,6.22.81,12.49.79,18.51-1.02Z"/>
    <path d="M240.85,307.74c-2.94,1.34-12.56,2.44-13.74-.49-3.45-8.65,17.52-11.39,13.74.49ZM238,304.88c-1.12-2.9-5.31-2.64-6.99-.48l6.99.48Z"/>
    <path d="M206.75,353.15c5.33-.32,10.74,2.66,7.31,8.3l-14.17-1c-2.19-4.33,3.13-7.08,6.86-7.3ZM210.99,359.88c-.35-4.55-5.58-4.24-7.99-1.49l7.99,1.49Z"/>
    <path d="M231.99,291.9c-.21,4.31-7.77,2.78-9.99,1.98,1.72-3.47,6.91-1.56,9.99-1.98Z"/>
    <rect x="208.99" y="392.89" width="8.01" height="2.99"/>
    <path d="M565,185.89v15.5c-1.52,1.97-2.43,2.03-4,0v-15.5l-11.56-.94c-.84-1.2-.78-16.4.06-18.07,1.88-3.74,22.74-1.7,27.51-1.5,3.19,1.81,2.33,15.22.84,18.85l-12.84,1.66ZM575,181.89v-14c-.78-.22-1.21,1-1.5,1h-20.5v13h22Z"/>
    <path d="M367.74,275.09c8.26-1.75,16.08,8.05,3.62,8.72-9.94.53-11.18-7.12-3.62-8.72ZM372.99,278.9c-.42-.17-6.57-.17-6.99,0-2.98,1.22,9.96,1.22,6.99,0Z"/>
    <path d="M346,265.89c.24-5.29,14.59-4.59,16.41-3.1l.59,3.1h-17Z"/>
    <path d="M384.99,307.88c-1.94-1.09-12.94,2.89-11.99-1.48.44-2,12.57-3.29,11.99,1.48Z"/>
    <path d="M377.99,257.9c.07,4.26-5.07,2.87-8,2.99v-2.99s8,0,8,0Z"/>
    <path d="M283,221.39c-1.26,4.16-12.51,2-16.01,2.51.74-4.42-3.35-19.46.68-22.09,2.2-1.28,15.33-1.76,15.33.58-.92,4.91,1.25,14.85,0,19ZM270,204.89v16l8.93-.08c1-5.22,1.27-10.57,1.08-15.93h-10.01Z"/>
    <path d="M229.24,222.64l.2-21.81,15.63-.5-.55,22.58-15.28-.27ZM232,202.89v18l9.56-.94,1.45-16.55-11.02-.52Z"/>
    <path d="M200.76,235.13c2.06,2.06,2.08,12.34-1.43,13.59-1.42.5-17.87.55-19.79.14-6.29-1.33-6.09-13.43-1.83-14.76,2.61-.82,21.43-.6,23.05,1.03ZM180.5,244.89h17.5v-7.01s-17.42-.86-17.42-.86c-2.39.75-2.24,7.05-.08,7.87Z"/>
    <path d="M507,179.89c-3.74,1-16.7,2.59-18.5-1-1.18-2.34-2.21-26.56,2-29h15l1.5,1.5v28.5ZM504,152.89h-12v24h12v-24Z"/>
    <path d="M265.68,342c6.69-2.18,7.56,10.74.81,11.94-4.29-.05-4.72-10.67-.81-11.94Z"/>
    <path d="M257.17,335.74c-.74-.92-.98-2.67,1.31-2.85,1.97-.15,17.48,2.89,17.5,4.5-2.18,3.25-17.53-.07-18.8-1.65Z"/>
    <path d="M306.7,343c6.67-1.58,5.45,15-2.25,9.94-.95-2.68-1.2-9.12,2.25-9.94Z"/>
    <path d="M310.81,333.17c2.02-.06,3.66-1.13,5.17,1.22-.01,1.77-16.41,6.01-16.97,2.98s9.72-4.14,11.8-4.2Z"/>
    <path d="M425.7,424.03c6.43-1.9,7.51,10.77.78,11.91-5.06-2.18-5.45-9.43-.78-11.91Z"/>
    <path d="M462.17,437.71c-2.94-1.71-1.99-12.35,3.17-11.6,7.03,2.53,3.08,15.23-3.17,11.6Z"/>
    <path d="M473.99,417.9c3.12,2.5-15.67,6.32-16.98,3.48-.9-1.95,2.69-1.86,3.82-2.14,2.06-.53,12.19-2.11,13.17-1.33Z"/>
    <path d="M433.99,420.88l-14.99-4.49c1.98-4.35,17.5,2.21,14.99,4.49Z"/>
    <path d="M359.86,163.03c1.1.68,3.77,16.17-3.2,15.62-5.71-.45-4.34-13.63-1.66-15.26,1.24-.56,3.81-1.01,4.87-.36Z"/>
    <path d="M341.17,163.07c8.07-4.58,9.21,18.91-.52,14.68-3.39-1.34-1.53-11.79.52-14.68Z"/>
    <path d="M564.52,435.9c4.75-1.1.7,11.61.51,13.52-.5,4.9,1.78,11.2-2.52,14.45-1.81-1.22-1.51-2.57-1.53-4.42-.02-2.84,1.89-23.17,3.54-23.55Z"/>
    <path d="M581,452.89l-3-1.5v-23c0-.26,1.15-1,1.5-1.48.35.47,1.5,1.21,1.5,1.48v24.5Z"/>
    <path d="M79.73,364.12c5.16-1.36,15.61-.71,13.83,6.75-2.06,4.11-12.65.23-16.61.58l-.79-4.89c.55-1.5,2.18-2.08,3.58-2.45ZM91,369.88c-2.29-4.1-7.39-3.23-10.99-1.97,2.05,3.21,7.79,1.66,10.99,1.97Z"/>
    <path d="M98.73,357.63c-8.09,6.15-15.3-2.4-2.72-1.73l-1-11c1.87-2.08,7.41,8.4,3.72,12.73Z"/>
    <path d="M76.66,338.02c1.25-.42,3.07-.36,3.89.83,1.31,4.34,1,8.4-4.1,9.05-4.16-.29-2.7-8.89.22-9.87Z"/>
    <path d="M83.99,333.88h-13s0-2.99,0-2.99c3.86.76,12.54-2.35,13,2.99Z"/>
    <path d="M113.99,339.88c-3.51.5-9.45-1.3-8.99-5.99,1.43-1.3,9.52,2.83,8.99,5.99Z"/>
    <path d="M450.1,272.78c-1.61-1.03-2.7-14.13,4.25-10.75,5.33,2.59.22,13.61-4.25,10.75Z"/>
    <path d="M410.01,251.9c2.82-.59,18.09,2,17.97,4.49-1.98,4.46-20.92-2.12-17.97-4.49Z"/>
    <path d="M460.99,252.9c.83,4.89-16.26,5.57-16.99,4.99,1.29-6.41,12.09-4.62,16.99-4.99Z"/>
    <path d="M417.49,260.12c8.92,1.96,2.87,15.32-1.57,9.35-1.83-2.05-1.23-9.1,1.57-9.35Z"/>
    <path d="M189.76,165.64l-11.88-.34.06-18.98,12.63.5-.8,18.82ZM187,148.89h-7.01c.48,2.74-1.07,12.18.94,13.56l6.07.44v-14Z"/>
    <path d="M454.99,467.89c-6.51-3.12-12.86-4.91-19.92-2.38-1.25.43-2.29-1.03-2.06-2.11.96-4.55,24.59-4.59,21.98,4.48Z"/>
    <path d="M90.17,430.74c-.46-.65-.07-1.93-.16-2.84l5.99,1v-4.01c6.26-.7,4.59,6.62.03,7.61-1.12.54-5.6-1.39-5.85-1.75Z"/>
    <path d="M83.52,414.89c7.73.43,10.09,11.34,1.59,4.39-1.53-1.25-4.33-2.67-1.59-4.39Z"/>
    <path d="M88.05,437.82c-.31-.42.07-2.07-.06-2.92l6.99.5c1.2,4.59-5.98,3.72-6.94,2.42Z"/>
    <path d="M110.99,427.88c-3.54.25-8.67-.24-7.99-4.99.33-.36,8.87,2.32,7.99,4.99Z"/>
    <path d="M566.99,329.9l-3.08,8.35,3.08,3.64c-13.13,2.18-3.4-15.32,0-11.99Z"/>
    <path d="M581.74,331.15c3.22,3.55-.98,10.07-4.81,7.32-3.38-2.43,1.56-10.89,4.81-7.32Z"/>
    <path d="M557.61,323.98c5.7-2.26,5.2,6.78,1.79,7.82-4.25,1.29-4.64-6.69-1.79-7.82Z"/>
    <path d="M578.01,322.9c1.4-1.41,9.11,4.93,8.97,6.5-.48,5.21-11.22-4.24-8.97-6.5Z"/>
    <path d="M562.76,317.09c7.71.82-5.85,7.76-6.75,3.29-.47-2.33,5.71-3.4,6.75-3.29Z"/>
    <path d="M443.75,294.09c.52.86.19,1.87.25,2.79-3.19.57-5.5-1.78-8.49-2.05-2.27-.2-10.28,2.55-10.5.54-.56-5.29,16.92-4.29,18.74-1.28Z"/>
    <path d="M286.8,380.11c3.23-.27,10.96.92,10.2,5.27-.44,2.54-5.95-1.52-8.5-1.5-2.82.03-5.09,2-7.9,1.97-4.64-3.27,3.54-5.52,6.21-5.74Z"/>
    <path d="M81.77,734.17c4.78-.1,31.36,4.78,21.63,12.62-4.02,3.24-41.74,4.74-45.36.48-6.2-7.31,19.32-13.01,23.73-13.1Z" fill="#fff"/>
    <path d="M151.78,606.18c7.82-.95,15.44-.69,19.19,7.22-.43,3-29.61,5.57-32.97.98-1.43-4.35,10.81-7.84,13.78-8.2Z" fill="#fff"/>
    <path d="M209.9,770.8c-3.51,1.94-26.81,3.75-25.9-1.39,1.32-7.47,27.19-10.06,25.9,1.39Z" fill="#fff"/>
    <path d="M453,786.87c-.76,1.2-12.39,1.24-14.5,1.01-1.33-.14-4.82-.21-4.53-2.52.72-5.66,19.82-6.75,19.03,1.5Z" fill="#fff"/>
    <path d="M45.99,638.88c-.78,1.22-16.83,2.02-19.03-.53-1.18-7,19.97-8.46,19.03.53Z" fill="#fff"/>
    <path d="M121,762.88c-1.21-7.75,16.14-8.62,16.99-3.47s-14.45,3.28-16.99,3.47Z" fill="#fff"/>
    <path d="M171.01,592.88c-.54-2.88.78-1.62,2.19-2.25,3.38-1.52,9.64-3.3,12.78-.24-3.38,4.48-10.03,1.85-14.97,2.49Z" fill="#fff"/>
    <path d="M580,604.91c1.02,5.81-13.81,4.32-14.95,2.92l.61-3.02c4.74-3.41,9.38-1.92,14.34.1Z" fill="#fff"/>
    <path d="M294.99,805.9c2.11,3.13-11.08,6.1-12.99,2.47-.75-3.49,10.97-4.14,12.99-2.47Z" fill="#fff"/>
    <path d="M38.93,708.97c3.34,5.65-15.39,4.74-15.93,2.41,2.53-6.54,10.74-4.95,15.93-2.41Z" fill="#fff"/>
    <path d="M69,595.87l1.26-2.22c4.12-1.24,8.32-3.26,11.71.74-3.59,3.27-8.75,2.92-12.97,1.48Z" fill="#fff"/>
    <path d="M298,690.88c2.3-5.25,10.63-5.69,13.98-1.49-3.85,3.73-9.37,1.99-13.98,1.49Z" fill="#fff"/>
    <path d="M112.37,101.52c6.69,6.63,9.7,1.4,8.52,14.76s-12.4,40.38-27.35,42.64c-13.12,1.99-24.96-3.52-30.39-15.68-8.97-20.07,2.72-21.66,6.31-40.4,12.76-2.01,23.23-6.53,33.03-14.96,3.12,4.51,5.97,9.75,9.89,13.64ZM91,107.88c.56-.97-.02-3.49-1.66-3.82l-13.34-.16.59,3.09c1.2.99,13.98,1.63,14.41.89ZM109.52,106.89c-6,1.17,8.61,10.49,9.47,5.49.31-1.81-7.9-5.79-9.47-5.49ZM84.89,113c-4.29-2.73-10.32,8.31-4.19,9.78,4.65,1.11,6.62-8.23,4.19-9.78ZM110.68,117.04c-10.58,2.47,4.32,20.3,2.84.82-.8-1.2-1.55-1.12-2.84-.82ZM103.73,132.64c2.99-2.64-1.2-14.76-3.23-14.72-3.31,2.7-.16,7.71,1.47,10.48l-6.97,3.98c.56,2.44,7.48,1.36,8.73.26ZM86.77,139.08c-3.14.42-7.71,3.27-5.33,6.85,1.72,2.59,21.76,6.48,14.58-4.57-2.93-1.55-5.79-2.74-9.25-2.28Z" fill="#fff"/>
    <path d="M125.99,106.89c-7.1-5.14-12.67-9.4-17.97-16.52-1.63-2.19-2.05-8.05-6.04-7.1-9.93,9.38-20.72,14.08-34.34,15.52-3.98,9.24-6.78,21.16-13.23,29.01-1.31,1.59-13.16,12.75-14.34,7.54,2.37-5.2-.73-10.91.83-15.96,2.2-7.12,18.21-35.96,23.89-40.41,24.33-19.08,61.37-4.05,61.2,27.93Z" fill="#fff"/>
    <path d="M123.37,69.54c8.17,11.06,11.05,19.9,12.61,33.87,3.14,28.26-1.64,57.98.01,86.48-2.01-1.18-4.74-.53-6.5-1.99-.94-.78-11.08-20.43-11.19-21.64-.47-4.92,8.04-24.9,9.46-32.11,3.92-19.9,4.98-45.26-12.87-58.64-4.5-3.38-8.81-4.12-12.39-6.61-8.49-5.94-15.45-14.36-26.49-17.51,19.01-5.09,36.28,3.15,47.37,18.15Z" fill="#fff"/>
    <path d="M123.99,187.88c-6.73-.3-7.82-7.02-13.3-10.19-4.12-2.38-22.99-8.15-27.64-8.34-12.61-.54-17,8.89-21.61,9.56-1.43.21-17.01-1.51-18.93-2.06-.64-.18-2.34.46-1.51-1.45,1.66-3.83,19.15-21.79,22.75-22.36l2.2.31c10.74,12.3,27.01,11.53,40.32,3.65,3.29.73,19.09,29.53,17.71,30.88Z" fill="#fff"/>
    <path d="M95.99,66.9l-18.18,2.3c-21.2,5.05-26.8,24.22-36.8,40.69-.45-16.75,5.55-38.55,18.53-49.96,14.39-12.66,22.79.49,36.45,6.98Z" fill="#fff"/>
    <polygon points="41.01 168.89 39.94 141.56 54.5 132.91 61.88 149.24 41.01 168.89" fill="#fff"/>
    <path d="M96.01,191.89c.75-4.8-1.11-9.05-3.51-13.02l-2.52.54c.68,4.01,4.3,8.74.5,12.48-3.82.86-.94-15.72-9.48-13.99-.56.5,7.49,10.48,2.48,11.99-3.95,1.19-5.36-6.99-7.15-8.08-1.36-.83-9.58-1.2-9.33-2.41,5.7-8.01,26.02-7.37,30.4.59,2,3.63,3.15,9.94-1.4,11.91Z" fill="#fff"/>
    <path d="M126,123.39c-1.46,12.61-7.92,24.97-10.01,37.5l-6.72-7.51,10.93-18.79,5.8-26.7c-.41,4.96.56,10.65,0,15.5Z" fill="#fff"/>
    <path d="M113,185.88c-5.67-1.62-11.77-.87-13-7.98,1.22-.99,13.3,4.61,13,7.98Z" fill="#fff"/>
    <polygon points="67 227.89 67 243.89 39 243.89 39 224.89 67 227.89" fill="#fff"/>
    <polygon points="52 247.89 52 263.89 27 263.89 27 246.89 52 247.89" fill="#fff"/>
    <path d="M133,216.89v16c-5.13-1.2-20.6-.7-24.36-2.14-2.93-1.12-1.82-15.89-.49-16.71l24.85,2.85Z" fill="#fff"/>
    <path d="M209.99,45.89c5.09-24.46,41.25-20.16,44.98,3.54,7.19-.53,23.74-.89,25.82,8.19,2.71,11.8-11.13,15.12-20.18,14.16-3.14-.34-7.9-2.85-10.14-2.78-4.27.13-9.31,6.68-19.95,5.88-7.15-.53-13.48-6.88-14.99-6.96-1.38-.07-8.7,3.38-12.31,3.69-33.03,2.86-21.67-40.98,6.77-25.72Z" fill="#fff"/>
    <path d="M205,385.87c-6.02,1.81-12.3,1.83-18.51,1.02-1.5-.19-1.62.56-1.5-1.51.41-6.76,20.42-7.9,20.01.5Z" fill="#fff"/>
    <path d="M238,304.88l-6.99-.48c1.68-2.16,5.87-2.41,6.99.48Z" fill="#fff"/>
    <path d="M210.99,359.88l-7.99-1.49c2.41-2.75,7.64-3.07,7.99,1.49Z" fill="#fff"/>
    <path d="M575,181.89h-22v-13h20.5c.29,0,.72-1.22,1.5-1v14Z" fill="#fff"/>
    <path d="M372.99,278.9c2.98,1.22-9.96,1.22-6.99,0,.42-.17,6.57-.17,6.99,0Z" fill="#fff"/>
    <path d="M270,204.89h10.01c.19,5.35-.08,10.7-1.08,15.92l-8.93.08v-16Z" fill="#fff"/>
    <polygon points="232 202.89 243.02 203.41 241.56 219.95 232 220.89 232 202.89" fill="#fff"/>
    <path d="M180.5,244.89c-2.16-.81-2.31-7.12.08-7.87l17.43.86v7.01h-17.51Z" fill="#fff"/>
    <rect x="492" y="152.89" width="12" height="24" fill="#fff"/>
    <path d="M91,369.88c-3.2-.32-8.94,1.23-10.99-1.97,3.6-1.26,8.7-2.13,10.99,1.97Z" fill="#fff"/>
    <path d="M187,148.89v14l-6.07-.44c-2.01-1.38-.46-10.82-.94-13.57h7.01Z" fill="#fff"/>
    <path d="M86.77,139.08c3.46-.46,6.32.72,9.25,2.28,7.18,11.05-12.86,7.16-14.58,4.57-2.38-3.58,2.19-6.43,5.33-6.85ZM94,143.91l-9.99-1,8.73,2.78,1.26-1.77Z"/>
    <path d="M103.73,132.64c-1.25,1.1-8.17,2.18-8.73-.26l6.97-3.98c-1.64-2.78-4.79-7.78-1.47-10.48,2.03-.04,6.23,12.09,3.23,14.72Z"/>
    <path d="M84.89,113c2.43,1.55.46,10.89-4.19,9.78-6.13-1.47-.1-12.51,4.19-9.78Z"/>
    <path d="M91,107.88c-.43.74-13.21.1-14.41-.89l-.59-3.09,13.34.16c1.64.33,2.22,2.86,1.66,3.82Z"/>
    <path d="M110.68,117.04c1.29-.3,2.04-.38,2.84.82,1.48,19.48-13.42,1.65-2.84-.82Z"/>
    <path d="M109.52,106.89c1.57-.31,9.78,3.67,9.47,5.49-.86,5.01-15.47-4.31-9.47-5.49Z"/>
    <polygon points="94 143.91 92.73 145.68 84.01 142.9 94 143.91" fill="#fff"/>
  </g>
  <path d="M104.11,339.78s.03,0,.04-.01c1.91-.62,3.93.68,4.3,2.65.68,3.61-.17,6.68-4.55,7.23-4.16-.29-2.7-8.89.22-9.87Z"/>
</svg>