<?xml version="1.0" encoding="UTF-8"?>
<svg id="Camada_1" xmlns="http://www.w3.org/2000/svg" version="1.1" viewBox="0 0 595.28 841.89">
  <!-- Generator: Adobe Illustrator 29.0.0, SVG Export Plug-In . SVG Version: 2.1.0 Build 186)  -->
  <path d="M.14,841.29V-.06h595v841.34H.14ZM590.54,3.89H4.08v255.03c24.85-14.26,54.75-40.58,85.47-33.2,17.1,4.11,35.95,22.21,50.41,32.43,1.84,1.3,16.37,11.66,17.31,10.63-1.03-6.73,2.23-15.57,8.32-18.96,2.06-1.14,5.38-1.13,6.53-2.01.62-.48,2.57-5.2,4.2-6.98,4.78-5.25,12.96-8.36,20.01-7.48,2.05.26,4.67,2.05,6.49,1.8,3.07-.44,8.54-4.62,14.62-5.13,16.34-1.36,17.49,5.84,28.78,10.63,9.38,3.98,12.85,1.31,21.18,10.38s5.41,13.48,9.25,21.64c.96,2.05,6.03,7.56,6.79,9.79,1.07,3.17,1.49,9.91-.82,12.66-1.28.81.59.65,1.07.48,1.77-.63,15.26-7.37,15.53-8.2-.68-5.55-.91-11.37-.58-16.96.82-13.83,3.12-36.5,6.11-49.78,13.65-60.57,95.8-62.17,117.67-6.27,4.61,11.79,4.78,28.34,9.03,38.92.36.9.61,1.78,1.61,2.2l56.01-40.51c29.99-15.86,58.27,14.46,80.78,30.75,6.7,4.84,13.69,9.43,20.68,13.83V3.89ZM439.98,358.5c.46,3.78-.33,8.29,0,12.16,9.11-10.17,8.11-27.41,6.48-40.33-4.44-35.23-18.96-72.4-24.18-107.92-10.45-42.06-60.56-61.52-95.71-33.82-19.7,15.52-22.68,49.07-24.64,72.64-1.05,12.6-1.89,25.98,3.28,37.78,1,.66,5.68-5.17,5.72-5.57.04-.37-2.52-5.09-2.91-6.77-2.65-11.24,3.24-64.78,8.25-75.54,11.93-25.61,52.68-30.45,73.44-13.35,26.52,21.84,11.32,78.55,23.29,110.14,6.36,16.78,24.99,34.11,26.98,50.59ZM398.15,213.98c-16.36-33.77-69.59-31.5-81.31,2.39-3.34,9.65-8.83,59.74-6.63,68.76.52,2.14,1.66,3.91,2.22,6,8.99-6.98,18.47-14.56,30.23-15.78-19.87-6.9-30.41-29.55-25.57-49.43.06-.26,2.33-2.85,1.82-4.75,9.95-.91,19.81-6.41,26.4-13.83,1.59-1.79,6.01-10.12,7.86-8.89,3.85,18.1,24.33,26.99,40.45,31.54,9.73,23.82-16.3,62.72,14.46,75.58,1.36-.86.58-1.09.55-1.83-.41-8.2-2.91-17.92-3.5-26.76-1.38-20.47,1.98-44.49-6.99-63.01ZM352.18,204.71c-.4-.44-1.21-1.91-1.61-1.66-5.4,11.28-18.16,18.15-30.16,20.47-6.67,31.61,11.67,54.08,44.31,51.86,5.89-.4,24.72-5.47,26.83-11.3,3.01-8.31,1.71-23.3.31-32-11.51-3-26.29-9.58-34.05-18.88-2.24-2.68-3.55-6.19-5.64-8.5ZM590.54,406.16v-142.96c-6.63-5.06-13.99-9.23-20.69-14.15-15.82-11.61-41.93-35.69-61.82-36.18-23.68-.58-52.51,33.22-72.97,44.09l-1.62,3.51c4.09,29.13,33.08,98.21,2.56,119.03-2.06,1.41-9.76,3.76-10.15,4.31-1.02,1.47-1.28,8.78-3.52,10.86l8.75,3.64c30.9-3.68,62.04-4.05,93.07-2l.34-16.46c-5.18-1.73-10.11-6.37-12.19-11.15-24.32,9.81-48.79-15.4-26.3-35.16-14.75-14.63-.94-43.09,20.39-37.8-1.82-41.95,58.17-37.46,49.32,4.6,20.14-.9,26.37,26.83,9.21,36.17,15.43,12.41,5.74,37.51-13.37,37.85-2.7.05-10.04-2.41-10.56-2.27s-2.37,3.14-3.77,4.1c-2.3,1.58-6.3,3.12-9.1,3.07l-.69,17.73,63.12,9.2ZM4.08,261.55v162.35c21.71-5.44,44.01-8.5,66.4-9.2v-19.72c-3.62-.31-6.86-2.39-8.94-5.17-24.19,10.11-45.69-14.92-25.89-34.58-16.63-10.4-7.65-37.81,11.83-37.15-9.67-38.77,47.79-47.43,48-7.23,23.28-4.67,32.15,22.98,16.43,37.78,12.87,9.52,8.79,31.22-5.8,36.94l-.14,22.19c6.34.27,11.18,4.4,13.19,10.23,2.48.35,0-2,2.93-2.28,4.81-.46,11.24,2.54,16.13,2.94-1.58-4.07-3.03-8.16-4.41-12.31-3.09-9.29-5.68-20.86-4.04-31.31,1.49-9.49,7.12-13.2,15.36-6.98,3.04,2.29,9.82,11.42,12.05,14.87.57.88,4.67,10.9,6.03,9.44,3.82-14.94,15.37-27.92,28.93-35.17l-14.48-9.17-6.67-10.42-3.95-24.97c-5.55-4.24-11.05-6.86-9.69-15.21.25-1.52,1.8-3.07,1.79-3.33-.02-.95-3.43-3.41-3.82-4.09-2.97-5.2-2.64-13.53,1.33-17.91-23.31-11.09-50.02-44.57-76.6-45.35-26.96-.79-53.42,22.98-75.93,34.82ZM167.13,308.88v-18.4c0-.07,1.18.26,1.3-.46.84-4.67,1.4-9.37,2.7-13.94,5.94.19,10.94-2.04,14.05-7.22,9.16,5.26,18.74,1.15,23.03-7.95,5.88,10.8,17.41,7.64,26.27,2.62,2.53,8.86,9.68,13.05,18.72,13.86-3.37,13.74,1.41,30.59-8.15,42.02-9.8,11.71-18.75-2.12-27.08-2.49-1.45-.06-5.41,3.42-7.46,4.1-6.72,2.25-12.77,1.46-16.74-4.74-8.14,3.37-14.57,8.98-23.35,3.12.96,12.06,2.07,21.79,12.17,29.56,18.89,14.52,54.75,11.1,66.7-11,6.54-12.11,5.39-26.12,7.34-39.18,1.18-7.9,4.19-12.62,12.24-6.5,8.09,6.15,4.21,16.58-1.82,22.65-3.55,3.57-6.9,3.03-10.38,5.59l-2.49,12.71c3.44,1.76,8.85.17,11.26-2.62s2.58-8.55,3.74-9.74c.6-.61,3.31-1.01,4.78-2.12,3.94-2.98,6.22-7.84,6.16-12.75-.03-2.19-1.35-5.04-1.26-7.28.29-7.27,4.35-9.32.14-18.54-1.16-2.54-4.16-4.92-4.79-6.38-3.45-7.93-1.71-13.45-9.15-21.74s-12.17-5.97-20.62-9.62c-3.56-1.54-7.34-5.57-11.66-7.4-6.87-2.91-13.65-3.28-20.97-1.42-3.04.77-7.14,3.89-8.84,4s-4.17-1.47-5.99-1.62c-7.11-.58-14.42,1.37-19.36,6.82-1.69,1.86-3.09,6.61-3.7,6.99-1.69,1.06-4.99.6-8.14,2.87-7.83,5.67-4.58,12.03-5.93,19.05-.85,4.42-3.94,5.33-3.17,12.45.55,5.11,4.88,7.46,5.04,9.38.11,1.27-1.53,2.88-1.78,4.54-.81,5.28,2.07,9.48,7.19,10.8ZM232.87,266.81c-7.17,5-18.52,5.72-24.65-1.3-4.33,6.9-10,8.14-17.75,7.88-1.58-.05-3.57-1.35-4.51-1.18-1.18.22-8.74,8.2-12.8,6.54-2.85,7.42-5.36,34.52.54,39.67,1.85,1.61,4.42,1.93,6.76,1.49.73-.14,13.15-5.52,13.66-6.07,1.31-1.43,1.87-15.34,8.19-15.48,1.02,2.72-2.42,4.32-3.74,7.44-3.09,7.29-2.63,15.31,7.38,13.99,3.65-.48,9.36-4.99,10.79-5.06,9.67-.5,21.06,16.27,28.76-.79,3.43-7.59,3.46-18.25,3.83-26.4.11-2.5.94-5.68,1.3-8.22-7.53-.26-15.52-5.1-17.76-12.49ZM381.47,274.03l8.22,2.62c1.63-.2.81-6.44.97-7.87l-9.19,5.25ZM509.01,286.2c-.58,3.44.42,8.21,0,11.83l-1.34.7c-9.91-3.85-21.98,3.12-24.77,13.29-2.1,7.68-1.35,19.25,8.36,20.52.65,2.59-2.55,2.18-4.92,3.94-8.06,5.98-8.14,18.3-1.93,25.58,6.72,7.88,19.72,7.25,28.59,3.6,3.8,4.25,5.32,10.19,11.78,11.57-1.18-2.6,1.27-4.07,1.37-4.89.62-4.97-.57-11.22-.02-16.35-8.69-5.34-14.19-14.89-17.08-24.39l2.59-1.03c.84,4.74,8.55,19.55,12.52,21.34.86.39,1.69.44,2.61.35l.66-31.22,1.64-.33c2.72,1.45-.68,19.48.34,23,.29.38,7.86-4.41,8.3-4.83,1.27-1.21,6-11.22,6.81-7.31-1.95,8.23-8.3,11.35-15.01,15.2l-1.42,30.46c5.33-.6,8.98-3.89,12.28-7.79,22.72,10.98,41.24-17.42,20.6-32.63,11.48-5.36,14.94-20.03,6.58-29.6-4.17-4.78-8.58-4.5-14.49-4.25,2.57-12.45,1.83-25.25-10.73-31.67-12.4-6.34-31.01,1.22-33.32,14.91ZM378.83,275.36c-11.41,3.28-21.92,2.57-33.54,1.65,5.36,15.21,27.4,10.69,33.54-1.65ZM393.3,333.85v-16.43h1.97c.76.77.18,15.25-.09,17.33-1.95,14.84-11.27,24.91-22.14,34.26l12.4,17.83c12.82-5.82,25.22-16.21,31.88-28.64,2.89-5.4,7.02-16.06,6.89-22.08-.11-4.86-5.14-10.25-7.59-14.75-1.18-2.18-5.2-12.54-5.74-13-.38-.33-7.14-1.97-9.5-3.32-5.11-2.92-8.11-7.7-9.74-13.27-.67-2.31-1.6-12.11-2.05-12.56-.55-.55-7.52-2.82-8.37-2.61-7.99,14.24-31.34,18.6-38.34,1.32-16.75,2.36-31.95,16.03-40.02,30.27-8.91,15.72-18.46,41.17-1.93,55.2,5.66,4.81,14.52,7.45,21.92,7.83,1.18-4.39,1.46-9.06,3.56-13.2,1.65-3.24,4.8-4.68,6.37-7.74-2.85-.41-7.16-4.27-9.25-4.95-1.65-.53-4.71.18-7.19-.65-5.77-1.92-5.02-5.93-7.21-9.88-4.57-8.26-8.22-14.48-3.96-24.82,11.78-28.59,43.47-25.13,59.19-1.3,1.84,2.79,3.3,10.25,4.09,11.18.92,1.08,9.28,4.07,11.45,5.31,1.78,1.02,12.83,9.25,13.37,8.65ZM73.12,344.04c.56,5.51,0,12.67,0,18.4,0,.26.86,1,.67,1.65,8.38-2.57,12.14-12.87,14.51-20.34l1.92-.05c-.27,10.26-7.98,19.7-17,24.08l-.09,25.21c5.43,2.39,10.25-7.33,11.63-7.8,2.31-.78,6.03,2.08,8.75,1.23,1-5.68-1-20.42,6.96-21.68,2.92-.46,5.53,2.41,5.53,4.92v12.82c14.49-5.28,16.45-28.57.67-33.85,20.8-11.05,10.24-42.55-13.16-35.17,1.66-40.5-56.56-31.09-42.08,6.23-1.57,2.05-3.82.1-6.16.37-16.59,1.92-22.11,28.63-5.68,34.16,1.05,1.56-5,5.43-6.2,7.26-3.86,5.93-3.21,15.63.95,21.32,4.65,6.36,13.17,7.78,20.63,6.83,2.13-.27,6.25-2.37,7.3-2.28,1.29.11,7.17,7.43,8.57,5.01l-.42-22.96c-10.44-1.46-13.96-12.72-16.39-21.43l2.65-1.64c.79,7.88,4.66,19.8,13.81,20.38l-.65-28.92c2.89-.89,3.05,3.94,3.28,6.24ZM299.93,290.47l-18.37,7.91c1.13,10.08,2.01,16.71-7.06,22.85-1.19.81-3.93,1.35-4.06,1.52-.38.51.14,2.39-.23,3.38-1.75,4.58-4.64,8.3-9.57,9.5-1.85.45-6.87.19-7.37.49-.62.36-2.94,5.69-3.95,7.08-1.29,1.77-6.98,5.35-4.13,6.95,2.3,1.28,10.89,2.52,14.8,4.27,12.06,5.4,24.05,16.64,30.46,28.11,1.08.38,7.92-6.87,9.55-8.19s4.34-3.35,6.52-3.68l-.46-1.3c-19.82-8.89-19.48-30.75-12.22-48.48.29-.71,1.19-.78,1.44-1.35,1.42-3.25,8.18-15.39,8.49-17.05.34-1.82-4.35-9.09-3.83-11.99ZM345.3,295.07c-21.73-13.08-49.21,16.39-34.85,37.81,1.89-1.67,3.08-2.74,5.92-2.32.37-3.05-.96-5.74-.61-8.81.52-4.54,8.7-7.11,5.53-14.19l2.01-.02c1.54,12.16,11.08-3.32,6.23-9.18,4.51-.04,3.69,8.35,2,10.88-.35,3.17,5.31-3.17,5.72-4.81.75-2.99-.44-6.39.45-9.41l7.6.03ZM259.4,295.27c-.51,1.41-2.29,17.22-2.25,19.2.11,5.31,6.08,1.1,8.21-1.06,3.77-3.8,6.75-12.51,3.83-17.5-2.06-3.52-8.1-5.32-9.79-.64ZM363.33,313.21c-4.45-9.36-12.37-16.66-23.33-16.54-.45,4.6.02,9.5-3.63,13.47-4.4,4.79-10.17,2.83-12.77,4.32-.29.16-3.72,5.05-3.86,5.35-2.09,4.57.73,10.71-.16,12.96-1.08,2.74-5.75-.58-6.85,1.05-1.74,5.48,3.55,9.33,8.58,9.23,2.51-.05,3.89-1.87,5.9-2.02,2.14-.15,4.97,1.26,7.25,1.35,16.87.63,38-9.98,28.86-29.17ZM375.95,350.03c3.11-5.79,3.92-13.84,1.91-20.13-1.78-5.53-5.14-4.55-9.22-7.87-2.99,19.94-25.13,25.18-42.39,21.69-.36,1.78.46,1.13,1.32,1.61,11.01,6.07,12.38,1.01,22.68,2.33,4.91.63,4.33,2.58,6.26,3.6,1.26.66,3.04.22,4.48.78,4,1.58,5.09,4.04,6.03,8.11.69.53,8.43-9.17,8.94-10.11ZM391.86,336.61l-11.71-8.68c2.21,8.77,1.88,18.22-3.39,25.87-3.58,5.2-11.43,8.53-11.74,15.54,5.98.99,4.2-.7,5.88-2.31,2.88-2.76,6.29-4.7,9.26-7.86,5.6-5.97,11.45-14.11,11.7-22.56ZM432.35,346.09c-.39-.74-5.04-10.38-6.17-8.95.16,7.04-2.22,14.38-5.79,20.17,3.43,7.46,6.24,15.44,5.79,23.86,15-2.17,12.58-21.44,8.37-31.71-.77-1.88-1.77-2.55-2.2-3.38ZM353.85,352.91c-1.1-4.21-10.53-3.06-13.84-2.34-9.74,2.12-14.44,11.25-14.35,20.67,10.85,2.21,22.36,4.68,33.45,2.7.23-3.25-5.88,1.83-5.91-2.61,1.76.09,10.98-2.13,9.19-4.6-2.39.4-8.75,4.03-9.19,0,4.03-.96,12.08-2.03,11.83-7.23l-13.14,1.96c-.2-1.78.05-1.03.98-1.3,3.21-.92,6.87-.87,9.54-3.63l-1.33-1.95c-2.73-1.31-9.96,1.62-12.81,2.92-3.42-3.05,3.15-4.12,5.59-4.58ZM216.77,360.14c-3.6.41-7.82-.3-11.51,0,6.48,19.37,38.63,9.9,37.47-9.2-8.08,4.47-16.66,8.14-25.97,9.2ZM283.27,375.49c-9.03-11.33-23.67-20.15-37.89-22.58-1.63,19.57-33.42,29.41-41.45,9.22-2.48-1.57-7.03,9.13-7.7,10.99-1.57,4.33-6.48,25.33-4.45,28.46l13.76,5.29c4.96-12.72,25.42-34.75,40.01-32.1.97.18,3.83,1.38,4.39,2.18.91,1.63.77,3.44.73,5.22-.12,5.45-4.66,17.87-6.96,23.29-3.63,8.59-9.04,14.75-14.62,22.05,3.05,2.94,6.3,9.91,10.35,11.19,6.78,2.16,15.47-.16,22.43-.64,1.54-8.09.42-16.92-1.42-24.83-.12-.5-1.06-.52-1.19-1.04-.75-3.01-2.91-8.41-1.05-10.64,2.34.13,5.99,19.57,6.23,22.68,1.07,13.76.6,22.05-10.16,31.22-4.21,3.59-9.56,5.37-12.84,9.84,12.71,1.46,22.83,13,25.65,24.98,17.63-10.64,32.27-29.19,34.09-50.37,1.89-22.02-4.07-47.07-17.89-64.42ZM201.32,358.83c-6.79-1.95-11.03,1.37-16.08,5.28-7.07,5.46-14.31,14.77-18.04,22.86-2.39,5.18-5.05,10-.72,14.93,1.67,1,6.88-2.02,9.54-2.33,4.38-.5,8.6.39,12.82,1.31.18-10.52,2.27-22.25,6.57-31.88,1.61-3.61,4.16-6.68,5.92-10.18ZM421.18,367.12c-.72-1.95-.83-4.15-2.57-5.65-6.15,9.65-18.91,22.91-29.94,26.58-2.73.91-5.16.35-6.58.76-3.01.87-8.14,4.65-12.31,6-17.18,5.55-32.6,1.59-30.45-18.85-5.91-1.7-12.15-1.37-17.94-2.1-3.25-.41-8.97-2.58-11.3-2.58-4.79-.01-14.94,10.61-17.92,14.29,8.03,12.49,12.19,30.4,12.23,45.24.02,7.49-2.73,14.95.73,22.27,11.39,3.29,24.66.71,35.71,4.54,8.84,3.06,15.37,11.05,25.85,11.63,6.19.34,22.49-3.71,25.32-9.49,2.36-4.82-1.74-18.13-2.03-24.32-1.46-31.77,16.96-19.9,28.54-39.22,5.53-9.23,6.3-19.23,2.66-29.09ZM104.02,404.18v-32.54c0-5-5.13-5.82-6.62-.68s-2.19,26.46-1.31,31.59c.46,2.68,6.11.71,7.94,1.62ZM155.56,386.18c-2.71-4.5-12.66-21.63-19.33-18.48-.47.22-3.83,5.73-3.91,6.08-1.56,6.29.95,21.63,2.64,28.07,2.21,8.41,5.64,16.63,11.14,23.38l18.23-21.33c-1.93-6.53-5.36-12.03-8.78-17.7ZM375.95,376.83c-.64-.8-3.7-4.73-3.97-4.89-1.21-.75-10.35-.3-10.9.05-.17.11,1.33,1.95-.68,3.59-2.84,2.32-13.82,1.32-17.73,1.01.38,6.02,10.59,2.98,14.45,5.59.03,1.71-4.63,1.06-5.6,1-3.19-.2-6.28-1.42-9.51-1.33.31,5.54,10.32,4.25,14.46,4.6.06,4.9-13.33-.69-13.13,1.64,3.23,3.34,7.73,1.79,11.82,2.96-.33,3.5-5.06,1.64-7.23,1.32,10.3,6.47,24.07-.24,33.58-5.69.25-1.32-4.49-8.49-5.57-9.84ZM237.25,412.51c3.4-5.67,12.76-28.36,10.28-33.79-3.15-6.9-19.9,4.04-23.52,7.06-15.17,12.66-18.5,36.05-32.09,44.17-6.07,3.63-12.01,3.46-15.26-3.43-8.13,7.22-22.04,9.37-24.31-3.93-13.22,17.33-19.58,38.69-22.68,59.81,16.44-10.52,42.68-4.62,54.9,9.85,1.93,2.29,5.57,7.78,6.85,10.39.63,1.29,1.62,7.76,3,7.36,13.3-10.88,23.93-24.22,27.62-41.39,2.48,6.56-3.05,17.1-6.76,22.82-3.25,5-10.16,13.12-15.26,15.95l6.62,12.46c7.12-.15,25.75-20.1,20.86-26.13-.73-.9-4.34-.13-4.53-4.42-.15-3.55,2.21-4.26,2.63-5.46,2.46-7.05-.85-10.07,7.36-15.51,4.16-2.76,3.12-1.64,6.82-5.01,2.46-2.24,5.03-4.16,7.52-6.35l-19.65-27.52-9.21,4.31c-.36-1.69.14-1.44.81-2.17,2.68-2.95,7.54-5.3,10.7-8.99,1.77-2.07,5.96-7.82,7.32-10.09ZM73.12,395.64v19.06h14.14c.14,0,1.84-1.45,2.32-1.7-3.72-5.34,3.57-8.01,3.94-9.29,1.29-4.45-.35-10.68,0-15.31l-7.46-1.24c-3.05,4.84-6.92,8.24-12.93,8.47ZM590.46,408.86c-50.65-11.41-103.39-14.56-155.08-8.61-.41,1.51.36,1.11.82,1.51,2.86,2.49,7.43,4.91,10.04,7.66,2.2,2.32,5.11,8.58,6.57,9.86s4.32,1.22,6.56,2.65c10.22,6.52,18.05,25.7,20.64,36.68,2.04,8.68,1.97,17.85,4.39,26.45l106.04-27.73.02-48.47ZM456.06,430.18c-7.52-15.63-18.17-28.7-35.8-32.27l-4.56,6.51c15.15,16.65,23.99,45.26,21.63,67.78-1.47,14.08-25.1,20.49-36.94,24.19-16.64,5.21-34.43,9-51.65,11.79-1.18,6.39-7.8,9.25-13.43,10.57-27.35,6.42-29.4-23.25-36.36-41.59-3.54,4.84-9.02,7.81-14.16,10.84l-.53,1.17c2.75,7.2,5.15,14.6,6.82,22.14,2.27,10.29,3.19,20.47,5.01,30.48.91,4.98,1.81,9.96,2.84,14.91l1.32.66c38.03-2.68,75.77-13.39,108.51-32.85l-1.66-13.52,1.31-.97c1.28,2.5.15,5.79.7,8.06,1.71,7.02,9.03,15.83,14.89,20.07,3.22,2.33,16.17,8.18,16.62,10.33,1.29,6.06-3,25.9-4.78,32.65-.99,3.76-2.77,7.38-3.84,10.65-1.45,4.4-2.64,8.88-4.45,13.15.74,3.07,17.95,3.98,20.98,2.04,2.95-8.98,4.71-18.34,7.3-27.41,3.43-12.06,10.12-28.62,10.48-41.59.19-6.74-4.61-9.99-7.16-15.88-1.71-3.95-4.01-11.51-3.36-15.54,4.67-28.95,14.99-45.76.28-76.36ZM202.35,413.11c.48-.93,2.03-2.6,1.33-3.69-14.03-7.58-31.89-12.26-43.45,1.99-4.25,5.24-8.5,13.72-.36,17.46,7.17,3.3,13.37-2.8,17.96-7.46l2.47.52c-1.42,2.73-.62,5.33,1.59,7.27,1.51.98,3.48.79,5.15.46,6.43-1.26,12.69-11.45,15.32-16.55ZM104.01,408.77c2.23-3.28-16.84-5.07-11.99,3.29,6.29,2.46,7.08-1.34,11.99-3.29ZM421.99,416.24c-.6-.96-6.06-8.28-6.65-8.79-.62-.53-1.03-1.32-2-1.31-12.71,7.11-21.58,8.45-21.39,25.36.14,12.99,10.81,31.68-7.59,36.41.63,7.07,1.21,10.28-2.64,16.41-5.68,9.02-26.32,20.32-36.96,18.02-5.02-1.09-7.92-6.07-8.44-6.17-1.63-.31-10.44,3.79-13.4,2.97-2.75,6.06,10.7,7.52,14.79,7.63,17.2.44,78.8-14.56,91.75-25.33.45-.37,3.79-3.85,3.93-4.11,6.46-12.43-4.04-49.15-11.39-61.07ZM107.3,442.96l10.2-1.3c1.16-5.48,2.95-11.84,2.32-17.46-.44-3.92-6.1-12.65-10.26-13.4-10.63-1.91-11.39,9.91-7.7,11.02l6.75-2.52c.94,1.54-1.31,3.42-1.31,3.61v20.05ZM97.44,415.36c-5.14-.75-10.6-1.07-8.92,5.96l8.91.61v-6.57ZM4.08,426.86v224.47l89.96-37.58.12-171.12c-3.6.1-8.78-6.25-7.89-9.09.2-.65,2.03-.19,1.31-1.74-5.95-2.42-1.7-6.3-1.44-8.35.17-1.35-2.46-3.87-.52-6.12-27.23-1.02-55.29,1.99-81.53,9.52ZM146.09,427.2c-3.55.16-3.8-4.04-5.74-5.12-1.79-1-16.57-4.15-17.28-3.44.91,12.94-3.63,24.02-6.94,36.18l15.46,4.56c4.74-10.86,7.12-22.6,14.49-32.18ZM467.99,434.67c-2.54-3.68-8.99-11.37-13.54-11.76,7.2,6.83,7.36,17.36,10.19,25.96,4.93,15,10.73,30.03,13.27,45.89,1.36,8.47-1.6,12.99,4.15,20.17,5.38,6.72,14.73,9.17,21.68,14.14,3.24-10.2-2.38-23.57-11.51-28.9-1.83-1.07-8.35-2.81-8.75-3.74-3.31-19-4.24-45.49-15.49-61.76ZM89.88,424.24c-10.68,4.02,12.93,12.09,12.14,1.26-.18-2.44-10.47-1.89-12.14-1.26ZM104.34,423.9v.66l.33-.33-.33-.33ZM97.59,442.45c.39,65.35-2.67,130.9-.88,196.12,3.96,2.62,7.59-.08,7.32-4.64l.64-205.76c-5.19,3.37.84,11.28-7.08,14.27ZM100.06,432.45h-10.51c-.81,10.22,12.09,10.84,10.51,0ZM261.8,441l-21.03.98,9.52,13.46c2.48-.29,12.56-13.55,11.51-14.43ZM111.25,455.45v-9.53l-3.84-.22-1.11,162.92,36.42-11.28,9.35-67.3-.13-.91c-33.09-7.76-26.17-42.41-20.97-67.77l-19.73-5.92ZM116.5,444.94l-3.19,1.08-.09,7.46c1.86.34,1.09-.44,1.48-1.44.35-.86,2.06-6.85,1.8-7.1ZM302.56,451.51c-1.7-.31-1.02.23-1.38.92-.47.91-3.72,9.5-3.74,10.03-.06,1.67,3.06,3.59,3.16,5.47,2.35,1.14,2.87-14.76,1.96-16.43ZM329.25,465.05c.9-2.02,1.65-3.96,2.13-6.13l-.97-1.39-25.2-1.41,4.6,13.14c5.85-8.36,11.96-7.91,16.42,1.31.21-1.84,2.43-4.17,3.02-5.52ZM353.19,467.3c-6.35-3.49-12.16-8.43-19.71-9.21-.54,9.06-7.48,15.5-10.52,23.66,11.61-4.39,22.83-2.54,30.23-14.45ZM467.19,463.75l-1.57-4.35c1.13,11.07-1.91,22.48-3.29,33.52l11.64-4.89-6.79-24.28ZM590.54,459.4l-105.2,27.93-.05,7.3c15.27,3.91,28.4,23.89,18.15,38.26-6.8-8.1-25.01-11.44-26.58-23.26-.81-6.1.74-12.48-2.04-18.67-10.69,2.57-14.69,3.03-15.69,14.87-.47,5.52.21,11.36,2.43,16.46,1.11,2.54,6.87,9.23,7.06,10,.86,3.39.23,9.84-.42,13.37-2.55,13.87-8.52,30.36-12.54,44.13-2.15,7.37-4.32,21.22-7.46,27.36-3.46,6.76-16.96,9.09-23.51,7.06-10.96-3.4-2.07-12.81.18-18.55,3.1-7.9,6.52-17.75,8.58-25.63,1.46-5.6,5.89-24.86,5.27-29.62-.12-.94-.11-1.75-1.11-2.21l-19.64-10.59-30.04,76.5c-5.02,7.68-28.55,9.8-28.81-.56-.17-6.84,4.65-10.77,7.03-15.98,7.3-16.03,13.08-32.48,17.5-49.55l.8-8.41c-26.51,11.08-55.6,19.08-84.5,19.71,4.11,19.68,14.18,41.16,27.63,56.18,2.03,2.26,7.23,5.54,8.96,7.8,7.6,9.93-5.31,30.39-16.57,26.75-5.96-1.93-7.55-8.91-10.82-12.84-2.11-2.54-5.28-4.78-7.57-7.55-4.54-5.52-9.06-11.11-13.12-17l-2.94,1.25c-.35.54,4.5,11.28,4.93,11.76,2.27,2.59,4.7.15,3.29,7.3-1.72,8.73-13.87,20.38-21.49,24.52-8.55,4.65-27.92,9.04-36.25,2.9-3.68-2.72-2.98-12.96-.38-16.51,1.89-2.59,20.56-17.17,17.65-20.14-11.39,1.59-22.76,2.56-34.21.93-1.22.92-3.55,19.46-4.34,22.66-.45,1.8-2.62,8.64-3.39,10.39-3.8,8.63-21.77,10.61-28.27,4.34l5.45-40.28c-1.78-.32-1.23-.03-1.79.84-1.62,2.53-3.4,11.97-3.81,15.3-.49,4.03,2.52,6.49-2.69,10.4-5.64,4.24-25.88,7.35-33.12,6.96-15-.81-44-12.49-20.01-27.21,8.05-4.94,21.42-3.89,24.27-12.87l-8.24-2.62-.65-13.17-35.88,12.76c-1.76,2.41.17,19.77-.64,24.34-.94,5.36-9.72,6.74-11.35,3.5-1.46-2.9.49-23.48-1.42-23.48l-89.09,37.45v183.39h148.91c23.37-24.95,52.43-45.3,81.65-62.98,41.01-24.83,85.06-45.19,129.72-62.57-2.66-2.31-6.63-5.26-5.8-9.36l1.59-2.39c3.45-2.19,8.47.86,11.38,2.95,2.4,1.72,3.62,6.1,6.64,3.23,1.78-1.69.14-15.49-.01-18.73-10.24,7.07-23.32-5.51-10.51-13.14-15.28-3.27-5.28-20.54,6.57-13.16.69-11.69,18.36-10.4,15.79,2.63,12.31-3.24,16.47,12.36,2.62,13.15,3.8,8.78-2.36,18.84-11.82,12.49,1.12,4.24-.1,10.33.65,14.14.17.86-.43,1.14.97.96,35.81-14.94,73.02-26.11,110.51-36.1,9.6-10.08,20.68-11.41,33.96-8.74l63.63-16.94v-183.39ZM305.2,487.66v-9.2c0-.07,1.1.16,1.29-.48.44-1.47,1.86-4.76,1.9-5.74.07-1.56-1.94-9.37-3.85-7.59l-3.31,10.17,3.96,12.84ZM294.26,478.04c4.47-4.48,8.85-7.54,1.14-12.65-5.65,9.81-13.84,16.48-21.76,24.23,8.55-1.97,14.52-5.48,20.62-11.58ZM341.36,479.78c-3.45-.53-18.14,4.78-19.76,3.65-2.28-1.59,5.09-13.59-1.04-17.41-7.34-4.57-17.91,19.22-9.1,27.55,5.55,5.25,17.44,3.18,23.67.03.38-5.42,2.38-10.03,6.23-13.81ZM260.23,480.02c-2.93-4.1-10.47-10.7-15.39-11.9-6.95-1.7-17.53,4.12-15.9,12.31,2.1-1.15,4.53-5.78,7.21-2.96-2.26,2.77-11.45,8.11-9.77,12.39,1.67,4.28,12.03-4.55,11.46.45l-7.58,2.95c-1.05.4,0,2.05.32,2.29,3.67,2.67,11.31-2.83,12.16-1.97,1.12,4.18-9.07,4.27-9.19,5.58,4.23,4.54,9.67-.72,14.45-.98.15,3.65-5.79,2.4-5.91,5.25,5.49,1.92,20.21-8.42,21.87-12.67,1.11-2.84-1.99-8.32-3.73-10.73ZM363.3,493.33c.89.75,1.5,1.47,2.82,1.08,5.96-1.79,21.51-17.1,15.39-24.88-9.46,2.31-17.44,3.14-26.54-.98l-10.97,11.55c5.8,1.4,10.81,3.76,15.15,7.85,1.42,1.34,2.79,4.23,4.16,5.37ZM190.41,508.44c-6.34-20.03-26.9-32.39-47.75-28.48-14.41,2.7-15.03,8.04-13.65,21.82,1.14,11.36,9.91,21.24,20.67,24.69,16.91,5.42,30.55-2.85,42.09-14.45.82-1.64-1.3-3.38-1.37-3.57ZM361.74,496.86c2.29-2.82-20.82-24.11-24.03-7.26-2.58,13.5,16.31,11.65,24.03,7.26ZM281.52,489.63c-4.59,1.18-9.56,3.24-14.27,3.78-.9.1-1.65-1.11-1.83-1.1-.35.03-3.38,4.14-4.62,5.19-4.41,3.71-10.95,8.53-16.97,8.34-2.72-.09-6.81-3.29-10.29-3.06-1.96,8.1-8,15.13-14.53,20-1.78,1.33-9.19,4.65-9.08,5.86,7.25,9.14,14.37,17.15,25.12,22.26,8.76,4.16,18.44,5.87,28.06,6.45l-.65-5.25c.57-.06.87-.12,1.32.31.88.83,6.01,19.04,7.28,22.16,6.72,16.56,20.92,41.8,33.48,54.75.67.69,4.7,4.69,4.99,4.87,5.59,3.44,18.32-8.38,18.57-14.58-11.03-13.2-20.85-27.72-26.51-43.88-8.2-23.43-8.49-46.63-14.61-70.19-1.42-5.45-3.31-10.74-5.48-15.89ZM319.64,498.86c-.27-.29-6.54-.35-7.68-1.85l-5.46-5.72c3.87,14.51,8.3,28.28,26.47,25.78,4.1-.56,12.66-3.66,12.99-8.37-6.92-.24-22.18,1.36-25.8-6.08-.58-1.19-.38-3.62-.52-3.76ZM231.56,498.18c-1.49-.28-1.49.69-1.95,1.65-7.39,15.39-22.46,28.46-41.06,25.24-1.92-.33-4.33-2.55-5.19-2.47-.32.03-5.87,2.93-5.05,3.82,13.83,5.77,30.05,2.54,41.42-6.88,5.76-4.77,12.35-13.63,11.82-21.36ZM202.4,515.49c-.29-.5-4.23-5.52-4.65-5.45l-12.2,10.82c4.33,4.41,12.61,1.99,17.93.85,2.42-.95-.15-4.62-1.08-6.21ZM207.77,529.17c-6.72,1.37-13.65,2.56-20.58,1.86-3.45-.35-11.31-3.97-12.44-3.94-1.21.04-2.85,1.39-4.33,1.66-5.2.97-10.54,2.38-15.79.97-5.71,26.71-9.04,53.98-9.09,81.39.69,1.21,17.42,4.68,20.12,5.19,4.42.84,18.66,3.65,22.21,3.49.71-.03,1.53.05,1.98-.64,5.08-24.45,10.08-47.86,18.01-71.39.84-2.5,4.38-8.75,4.53-10.66.18-2.33-3.86-5.7-4.62-7.94ZM410.12,552.47c1.13-3.11,5.56-14.16,5.58-16.53s-4.09-9.31-6.77-8.71c-4.34.96-14.51,9.23-19.88,10.41-3.6,12.89-6.61,26.45-11.34,39.27-2.73,7.41-7.19,14.92-9.76,22.52,1.18,2.18,17.11,3.82,19.76,3.25,3.17-.68,8.39-17.05,10.03-20.84,4.06-9.38,8.87-19.66,12.4-29.36ZM237.47,554.71c-8.79-3.13-15.86-9.03-22.07-15.75-2.76-1.06-8.86,21.1-9.68,23.77-6.56,21.52-11.42,45.22-15.65,67.2-.45,2.32-2.89,14.41-1.53,15.56,4.27,1.7,20.49,3.62,22.93-.1,1.07-1.63,1.17-6.52,1.73-8.66,6.79-26.29,10.75-55.36,22.75-80.55.53-1.1,1.63-.44,1.51-1.46ZM271.27,580.75c-2.94-6.8-4.74-14.07-7.76-20.84l-24.07-3.57c-7.14,12.44-10.08,26.81-13.87,40.56-.14.5-1.12.61-1.34,1.45-2.11,7.89-3.45,16.07-5.16,24.06,22.92,2.56,46.52-2.78,67.66-11.23,1.01-1.72-5.1-9.05-6.2-11.1-3.21-5.99-6.67-13.29-9.27-19.32ZM388.04,604.66h-10.85c-2.13,0-10.33-3.57-10.81-3.27-2.36,7.16-10.91,15.41,2.24,16.45,10.08.79,19.06-1.86,19.42-13.18ZM447.86,609.92c-7.61,1.13-14.02.66-21.26-1.91-1.91.57-4.72,10-4.06,11.75,7.68,6.34,25.22,1.71,25.32-9.84ZM255.23,626.35c.35.37,8.73,0,10.19,0,5.65,0,13.32,5.95,16.78,10.2,2.91,1.4,5.88-7.03,5.91-9.2.05-3.91-3.46-8.69-5-12.23l-27.8,8.01c-.19.26-.19,3.1-.07,3.21ZM168.45,644.75l12.17-4.59,4.23-18.1-31.46-5.5-2.7,5.83c10.41,1.79,17.02,12.74,17.75,22.35ZM312.43,636.87c.55,3.41,5.58,10.3,9.03,11.04,10.36,2.23,23.24-21.79,8.74-26.17-3.54,7.12-9.15,14.4-17.76,15.12ZM165.82,646.07c-.18-8.94-5-17.82-13.66-20.86s-14.89,2.5-23.16,3.78c2.9,1.1,5.3.42,8.54,1.64,6.16,2.32,11.71,9.97,11.19,16.75l17.09-1.3ZM278.62,643.15c.62-.73,2.79-2.98,2.66-3.69-2.92-7.78-20.95-13.82-27.36-10.81-1.19.56-7.93,10.04-10.51,11.18,10.09.11,19.19,4.42,27.94,8.93,1.83-.01,5.95-4.04,7.27-5.61ZM237.77,658.25c12.54,9.45,36.48-2.21,45.65-12.59,3.01-3.4,10.5-13.69,7.32-17.34-7.5,22.49-31.95,34.08-54.57,27.61-.34,1.1.86,1.76,1.6,2.32ZM144.55,639.71c-1.49-2.51-7.84-7.36-10.77-7.95s-14.01.8-10.95,4.51c.31.38,6.88,5.52,7.65,6.02,4.77,3.1,10.06,4.31,15.61,5.09.23-2.67-.15-5.35-1.53-7.68ZM180.94,643.44c-15.33,5.39-36.59,10.55-51.23.94-3.16-2.08-5.52-6.88-9.9-6.2-2.91,2.95,9.37,10.26,11.49,11.19,11.32,4.97,25.41,4.02,37.17.98,1.11-.29,15.15-4.33,12.48-6.9ZM257.4,650.84c-.45,1.31-.58,3.6,1.3,3.66,1.39.04,10.73-2.72,9.04-4.83-3.28-4.11-22.8-8.54-27.8-6.07-4.14,2.04-6.32,9.3-.5,10.36-.12-3.66,1.4-9.05,5.92-8.54.79.66-4.84,4.63-3.19,8.78l4.51,1.08c-.41-3.3.21-6.66,3.78-7.72.87-.26,2.43-.77,2.13.81-3.57,1.66-2.61,4.17-2.62,7.57l4.99-1.28c-.74-2.53.68-8.41,4.19-5.62-.05.94-1.71,1.7-1.75,1.82ZM590.54,644.76l-61.79,16.76c7.28,5.09,11.59,10.77,13.09,19.76,10.01-1.95,28.26,6.25,25.67,18.34-1.12,5.22-19.99,6.79-24.62,6.95-9,.3-33.88,1.14-23.37-13.82-5.43.59-31.55-.91-34.23-4.88s3.03-12.52,4.65-16.15c-36.67,9.44-72.74,21.04-107.84,35.14l-.63,8.23c3.36-3.01,13.25-11.02,17.74-8.87,5.44,2.6-2.94,9.98-5.31,11.77-2.94,2.22-13.62,6.71-14.45,7.9-1.4,1.99-.58,11.19-4.57,5.95,1.82-1.75,3.47-11.08,2.33-12.83l-11.08-5.76c-45.3,17.57-89.93,38.52-131.36,63.87-27.6,16.89-56.01,36.01-77.5,60.22h433.27v-192.59ZM211.18,648.7c-7.85,2.04-15.75,1.74-23.29-1.3-6.38,13.28-4.8,17.34,10.46,15.74,9.41-.99,11.45-5.73,12.83-14.44ZM386.38,657.58c-5.04-5.7-10.54-.11-9.52,6.24-3.35.91-5.75-2.85-8.84-2.61-.99.08-4.61,2.38-5,3.07-3.86,6.83,5.21,7.63,9.23,9.74.32,1.33-12.93,6.09-4.83,12.05,6.43,4.73,11.52-4.04,12.38-3.84,2.01,9.93,13.67,8.25,11.37-1.5-.71-3.03-3.64-2.33-3.15-5.07,3.04.57,11.42-2.25,11.24-5.58-.05-.94-3.89-4.58-5.15-4.83-2.4-.47-4.47.93-6.74,1.2-.43-3.75,1.79-5.71-1-8.87ZM536.22,673.43c-13.29-25.34-44.73-10.81-49.49,12.3,1.1,3.74,30.81,5.38,34.96,4.23s11.2-9.52,17.57-8.4c.18-3.47-1.78-5.73-3.04-8.13ZM519.65,701.17c5.62,4.6,43.39,3.13,45.13-1.64,1.94-5.32-4.46-11.86-8.84-13.94-12.25-5.81-35.35.33-36.29,15.58ZM375.17,712.18c-2.17-4.26-5.21-9.47-10.65-10.1-11.13-1.3,6.69,13.31,11.35,13.67,2.68-.05-.48-3.14-.7-3.57ZM378.83,708.52h-1.31s.66,3.94.66,3.94c1.3.14.42-2.6.64-3.94ZM397.9,708.52c-7.49.48-15.78,7.15-17.74,14.46,6.74-2.97,16.03-6.51,17.74-14.46Z"/>
  <rect x=".14" y="841.29" width="595" height=".66" fill="#fff"/>
  <path d="M590.54,3.89v255.69c-6.99-4.4-13.99-8.99-20.68-13.83-22.51-16.28-50.79-46.61-80.78-30.75l-56.01,40.51c-1-.42-1.25-1.29-1.61-2.2-4.25-10.58-4.42-27.13-9.03-38.92-21.87-55.9-104.02-54.3-117.67,6.27-2.99,13.28-5.29,35.95-6.11,49.78-.33,5.58-.1,11.41.58,16.96-.27.84-13.75,7.57-15.53,8.2-.47.17-2.35.33-1.07-.48,2.31-2.75,1.89-9.49.82-12.66-.76-2.23-5.82-7.74-6.79-9.79-3.84-8.17-1.32-13-9.25-21.64-8.33-9.07-11.8-6.4-21.18-10.38-11.29-4.79-12.44-12-28.78-10.63-6.08.51-11.55,4.69-14.62,5.13-1.83.26-4.44-1.54-6.49-1.8-7.05-.88-15.23,2.23-20.01,7.48-1.62,1.78-3.57,6.5-4.2,6.98-1.15.88-4.48.87-6.53,2.01-6.09,3.39-9.35,12.23-8.32,18.96-.94,1.03-15.46-9.32-17.31-10.63-14.46-10.22-33.3-28.32-50.41-32.43-30.72-7.38-60.62,18.94-85.47,33.2V3.89h586.45ZM479.02,58.67c-.56,2.4-.85,4.88-1.47,7.27.39.9,1.29,1.34,2.2,1.04s3.86-16.79,3.99-19.03c.07-1.17.75-1.72-.7-2.64-1.96-.01-2.6,10.54-3.03,12.61-.1.47-.96.59-1,.75ZM433.23,53.37l-1.81-.53-1.02,1.69c3.67,4.01,6.02,13.08,9.08,16.58,1.53,1.75,3.21,1.67,2.6-.61-.36-1.35-8.15-16.47-8.84-17.13ZM521.84,65.68c-1.06.18-15.11,13.86-15.36,14.9-.29,1.18.02,1.48.89,2.18,1.91-2.32,15.86-14.07,16.09-15.45.15-.85-.78-1.78-1.63-1.63ZM513.23,104.86c-15.17-54.72-104.9-33.05-91.05,18.51,16.17,60.2,105.65,34.13,91.05-18.51ZM163.61,116.06c8.94-9.6-.25-23.83-12.6-17.54l-2.18-14.23c-6.25-12.24-20.26-3.56-21.82,7.02l-1.37-.42c-8.62-16.45-35.9-17.18-30.84,6.33-10.26-6.78-26.34-2.79-26.56,11.08-.2,12.85,18.7,15.17,28.22,15.86,13.47.98,58.37,1.32,67.14-8.11ZM397.91,84.07c.68.83,18.1,7.73,19.86,8.11,3.29.7,3.21-.97.51-2.5-2.45-1.38-18.16-7.48-20.04-6.91-.57-.08-.4,1.21-.32,1.3ZM259.32,118.76c-4.71-6.24-13.2-13.54-20.27-16.85-11.45-5.37-22.3-.67-11.56,10.77-10.16,7.05,1.88,13.87,8.03,18.06-3.97,1.12-18.84-4.59-19.74,1.69-.38,3.87,3.53,4.16,5.94,5.88-2.59,1.1-3.22,3.67-2.3,6.24,5.69,5.84,14.34.45,20.41.98,9.02.8,11.52,5.34,23.45,2.11,15.63-4.24,14.57-11.77,22.5-21.54,1.18-1.45,9.03-5.65,7.6-7.83-3.25-1.27-4.66-1.54-7.87-.01-3.18-11.2-14.74-11.6-21.99-3.24-1.58,1.82-.9,5.01-4.18,3.75ZM521.51,106.42l21.68-2.95c-.77-1.13-1.74-1.02-2.94-1.04-2.67-.04-14.58,1.35-17.07,2.06-1.12.32-1.89.52-1.67,1.94ZM408.95,122.4c-3.94.21-13.08.96-16.62,1.79-2.67.63-1.97,2.58.6,2.64,3.71.08,13.06-.92,16.95-1.52,5.64-.87,5.1-3.23-.93-2.91ZM537.28,145.22c-2.8-1.02-19.61-10.62-21.03-9.87-.09.05-.47,1.6-.36,1.97.22.43,7.25,4.12,8.46,4.72,1.41.71,8.6,4,9.65,4.22.9.19,3.14.29,3.29-1.05ZM178.57,147.59c-2.48-4.41-6.72-12.37-12.9-7.65-4.86,3.72,0,13.27-4.91,13.65-2.02.16-9.53-6.29-13.18-6.91-11.02-1.85-9.12,10.21-2.81,14.95-4.23.23-6.74,3.85-5.78,8.08s7.8,7.41,11.12,9.93c.72.55,1.63.02,1.23,1.71-5.56-.11-19.83-4.55-18.91,4.44l7.08,2.14c-8.58,7.21-3.67,10.22,5.59,9.19,3.32-.37,7.23-2.84,10.51-2.67,2.86.15,7.47,3.49,11.85,3.97,9.93,1.09,21.22-1.16,28.6-8.19,3.6-3.43,5.91-9.12,8.83-12.2,2.72-2.87,16.02-9,1.02-7.85-1.53-12.23-13.49-12.19-22.36-7.24.02-5.66-2.37-10.69-5.01-15.37ZM429.45,147.84c-.59-.64-2.07.55-2.66.95-1.99,1.37-14.36,11.8-15.12,13.15-.59,1.04-.8,1.78-.62,2.99l17.73-14.14c.75-.44.91-2.68.67-2.94ZM502.06,175.18c-1.05-2.26-7.33-16.74-8.16-17.2-.28-.15-1.93.29-1.99.38-.58.88,7.84,18.43,8.52,19.24,2.06,2.44,3.57,1,2.47-1.97-.07-.2-.75-.26-.84-.44ZM456.82,178.51c.61-2.42,2.34-11.89,2.24-13.94-.17-3.48-3-1.4-3.31-.47-.58,1.79-2.51,14.7-2.61,16.96-.05,1.2-.05,2.4-.01,3.6,3.3.85,2-3.27,2.68-5.42.16-.5.97-.55,1.02-.72Z" fill="#fff"/>
  <path d="M590.54,459.4v183.39l-63.63,16.94c-13.27-2.67-24.35-1.35-33.96,8.74-37.5,9.99-74.7,21.16-110.51,36.1-1.4.18-.8-.1-.97-.96-.74-3.82.47-9.9-.65-14.14,9.46,6.36,15.62-3.71,11.82-12.49,13.85-.79,9.69-16.39-2.62-13.15,2.57-13.03-15.09-14.32-15.79-2.63-11.85-7.38-21.85,9.89-6.57,13.16-12.81,7.63.27,20.2,10.51,13.14.15,3.24,1.79,17.04.01,18.73-3.01,2.87-4.23-1.5-6.64-3.23-2.91-2.08-7.93-5.14-11.38-2.95l-1.59,2.39c-.83,4.1,3.14,7.05,5.8,9.36-44.66,17.38-88.71,37.75-129.72,62.57-29.21,17.68-58.28,38.04-81.65,62.98H4.08v-183.39l89.09-37.45c1.92,0-.04,20.58,1.42,23.48,1.63,3.24,10.41,1.87,11.35-3.5.8-4.57-1.12-21.93.64-24.34l35.88-12.76.65,13.17,8.24,2.62c-2.86,8.97-16.22,7.93-24.27,12.87-24,14.72,5.01,26.4,20.01,27.21,7.23.39,27.47-2.72,33.12-6.96,5.21-3.91,2.2-6.37,2.69-10.4.41-3.33,2.19-12.77,3.81-15.3.56-.87,0-1.15,1.79-.84l-5.45,40.28c6.5,6.27,24.47,4.29,28.27-4.34.77-1.75,2.95-8.59,3.39-10.39.79-3.2,3.12-21.73,4.34-22.66,11.46,1.62,22.82.66,34.21-.93,2.91,2.97-15.76,17.55-17.65,20.14-2.6,3.55-3.3,13.8.38,16.51,8.33,6.15,27.7,1.75,36.25-2.9,7.62-4.14,19.77-15.79,21.49-24.52,1.41-7.16-1.02-4.72-3.29-7.3-.42-.48-5.28-11.22-4.93-11.76l2.94-1.25c4.06,5.89,8.58,11.48,13.12,17,2.28,2.77,5.45,5.02,7.57,7.55,3.27,3.93,4.86,10.91,10.82,12.84,11.26,3.64,24.16-16.82,16.57-26.75-1.73-2.26-6.93-5.54-8.96-7.8-13.44-15.03-23.51-36.5-27.63-56.18,28.9-.63,57.99-8.62,84.5-19.71l-.8,8.41c-4.42,17.07-10.19,33.52-17.5,49.55-2.37,5.21-7.2,9.15-7.03,15.98.26,10.36,23.78,8.24,28.81.56l30.04-76.5,19.64,10.59c1.01.47.99,1.28,1.11,2.21.62,4.75-3.81,24.02-5.27,29.62-2.06,7.88-5.48,17.73-8.58,25.63-2.25,5.73-11.14,15.15-.18,18.55,6.55,2.03,20.05-.29,23.51-7.06,3.14-6.14,5.31-19.99,7.46-27.36,4.02-13.77,9.99-30.27,12.54-44.13.65-3.54,1.29-9.98.42-13.37-.2-.78-5.96-7.46-7.06-10-2.22-5.1-2.9-10.95-2.43-16.46,1-11.84,5-12.3,15.69-14.87,2.77,6.2,1.23,12.58,2.04,18.67,1.57,11.82,19.78,15.16,26.58,23.26,10.25-14.37-2.88-34.35-18.15-38.26l.05-7.3,105.2-27.93ZM533.16,490.45c-6.52,1.36-5.49,8.63,1.2,8.99,11.06.59,14.29-12.22-1.2-8.99ZM558.14,516.76c-2.55-2.9-16.37-2.38-15.49,3.94.67,4.76,16.66,4.71,16.22-1.84-.03-.78-.21-1.5-.73-2.1ZM548.08,565.62c-3.28-6.09-7.61-7.1-13.77-3.77-6.29-11.41-20.45-5.05-16.38,7.36-13.17,2.62-12.94,16.42,1.31,16.35-1.73,9.07,8.76,13.82,14.11,7.29l1.59.68c3.37,7.93,3.65,16.42,3.65,24.94-3.12-1.5-4.51-4.93-7.27-6.86-12.57-8.77-21.87,2.33-8.06,10.03,4.34,2.42,9.89,3.33,14.7,4.37,1.88,1.5-.85,6.06.97,6.27,2.67.31,1.93-9.45,2.63-11.16s6.28-3.95,7.87-5.28c3.11-2.59,13.48-14.63,8.62-18.46-5.89-4.65-15.22,9.86-17.48,13.87.7-7.54-1.79-14.5-3.29-21.69,12.73,3.96,18.81-9.36,6.58-15.45l5.22-6.07.02-1.69c-.14-.5-.92-.52-1.03-.72ZM477.61,569.67c2.75,2.9,18.51,1.91,15.48-5.3l-1.22-1.41c-5.23-3.31-19.71.99-14.27,6.71ZM340.52,571.94c-3.26.8-4.3,5.76-1.77,7.4,2.34,1.51,9.98,1.37,11.75-1.36,4.09-6.33-5.82-7.06-9.98-6.04ZM491.26,604.66c-3.39-2.94-6.08,10.3-5.25,12.48,1.39,2.39,2.25-5.27,2.43-5.78.31-.89,3.1-6.46,2.82-6.7ZM477.85,608.87c-.9-.65-4.31-2.85-3.68.05.13.6,7.95,6.77,8.54,8.88.55-3.58-2.19-7.01-4.85-8.94ZM448.86,647.39c-.58.11-1.35,1.44-.89,2.18l6.79,11.61c3.37-.76-3.74-14.21-5.89-13.8ZM468.9,647.39c-3.77-.78-8.73,10.85-7.22,12.49l1.98-.44,5.24-12.04ZM57.18,659.39c-2.23.33-7.9,2.22-8.97,4.17-6.46,11.75,25.66,11.07,23.48.09-1.03-5.18-10.59-4.83-14.5-4.26ZM84.14,675.82c-9.91,1.35-8.57,11.18,4.38,8.98,8.9-1.51,6.45-10.45-4.38-8.98ZM295.85,675.83c-14.62,1.72-12.55,14.34,3.04,12.24,14.75-1.98,13.79-14.22-3.04-12.24ZM148.73,690.76c-2.22-13.48-19.9-7.98-17.11,3.94-12.38-2.86-16.01,15.1-1.96,15.12-2.56,8.88.53,15.73,10.51,13.8l-3.29,18.4c-1.57.4-1.08-.34-1.47-.85-5.21-6.8-10.28-18.1-21.18-14.24-3.09,7.77,6.56,16.57,12.59,20.23,1.67,1.01,8.8,3.65,9.09,4.06,1.7,2.43-.24,13.58,4.28,12.15-.04-2.24-1.51-5.44-.34-7.56.38-.69,10.74-6.33,13.14-8.55s9-8.55,5.32-11.88c-4.8-4.34-16.98,6.29-19.44,10.57-.02-4.77,2.91-25.62,7.62-26.87,11.18,4.92,20.57-5.18,10.78-14.21,10.77-7.78,3.66-19.19-8.54-14.14ZM225.49,703.4c-2.31-4.21-20.77-3.93-19.59,4.09,1.35,9.13,22.96,2.06,19.59-4.09ZM270.23,701.45c-11.02.83-8.28,10.72,1.73,8.99,6.6-1.14,6.91-9.64-1.73-8.99ZM59.11,721.19c-3.37-4.63-19.41-1.63-15.8,6.23,1.63,3.55,21.63,1.79,15.8-6.23ZM189.98,751.41c-14.52,1.86-8.27,15.9,6.33,12.24,3.5-.88,9.33-3.53,8.17-7.99-1-3.58-11.29-4.67-14.5-4.25ZM82.32,774.57v-11.17c0-.24,1.21-.71-.34-1.64-2.77-.32-2.73,11.71-1.62,13.8l1.96-.98ZM74.71,772.67c-1.23-3.37-3.61-10.43-8.16-8.93,2.48,4.26,6.32,6.9,6.65,12.4,4.73.7,2.12-1.8,1.51-3.46ZM94.15,764.39c-1.75-2-11.92,14.05-5.25,10.88l5.25-10.88Z" fill="#fff"/>
  <path d="M590.54,644.76v192.59H157.27c21.49-24.21,49.9-43.34,77.5-60.22,41.43-25.35,86.06-46.3,131.36-63.87l11.08,5.76c1.14,1.75-.52,11.08-2.33,12.83,3.99,5.25,3.17-3.96,4.57-5.95.83-1.19,11.51-5.68,14.45-7.9,2.38-1.79,10.76-9.18,5.31-11.77-4.5-2.14-14.38,5.87-17.74,8.87l.63-8.23c35.1-14.1,71.17-25.71,107.84-35.14-1.62,3.63-7.23,12.34-4.65,16.15s28.8,5.47,34.23,4.88c-10.51,14.96,14.37,14.12,23.37,13.82,4.63-.15,23.5-1.73,24.62-6.95,2.59-12.09-15.66-20.28-25.67-18.34-1.5-8.99-5.81-14.67-13.09-19.76l61.79-16.76ZM461.67,720.34c-2.05-2.18-3.09,5.86-3.27,7.57-.1,1-.81,7.38.33,7.54,1.99.29,3.48-14.54,2.94-15.12ZM453.78,734.8c.79-1.58-4.91-13.44-8.54-12.48l6.25,12.49c.22.84,2.24.1,2.29,0ZM471.53,724.95c-1.66-1.64-10.74,9.81-6.89,10.51l6.89-10.51ZM533.99,747.29c-.07-.07-1.89-.07-1.96,0-.53.49-2.22,12.78-2.01,14.16.41,2.7,2.1,3.27,2.66.62.3-1.41,1.82-14.24,1.32-14.79ZM524.79,764.38c-.3-4.98-3.24-10.76-8.2-12.49-1.13.88-.86.73-.52,1.77.48,1.46,7.94,6.43,6.11,10.71h2.61ZM539.26,764.38c1.47.32,1.46-.76,1.99-1.61,1.45-2.33,4.95-7.05,5.77-8.7.32-.64,1.22-2.02-.22-2.17-2.12-.23-9.24,9.44-7.55,12.48ZM409.14,774.83c-4-15.18-23.29-18.66-36.38-13.56-6.23,2.42-20.9,15.86-15.32,22.86,4.18,5.24,30.85,4.21,37.82,3.26-.08,1.94-.16,4.11,1.29,5.62,4.81,4.97,38.07,3.5,41.38-2.73,3.92-7.37-4.46-14.8-10.94-16.52-6.09-1.62-11.81.63-17.85,1.08ZM318.9,766.46l-2.52-.11v14.46c3.33,3.62,3.27-13.9,2.52-14.36ZM306.26,773.17c1.83,2.96,2.52,5.18,3.87,8.28,4.35-1.81-3.23-14.16-5.58-11.81-1.39,1.39,1.51,3.21,1.71,3.53ZM329.28,774.02c.22-.33.57-.6.64-1.03l-.74-2.03c-2.18-.38-6.32,8.43-5.57,9.19,2.62.65,2.51-2.53,3.77-4.46.56-.85,1.62-1.25,1.9-1.67Z" fill="#fff"/>
  <path d="M4.08,261.55c22.5-11.84,48.97-35.61,75.93-34.82,26.57.78,53.28,34.26,76.6,45.35-3.97,4.38-4.3,12.71-1.33,17.91.39.68,3.8,3.15,3.82,4.09,0,.26-1.55,1.81-1.79,3.33-1.36,8.35,4.14,10.96,9.69,15.21l3.95,24.97,6.67,10.42,14.48,9.17c-13.55,7.25-25.11,20.24-28.93,35.17-1.36,1.45-5.46-8.56-6.03-9.44-2.23-3.45-9.01-12.58-12.05-14.87-8.24-6.22-13.87-2.5-15.36,6.98-1.64,10.44.95,22.01,4.04,31.31,1.38,4.16,2.84,8.24,4.41,12.31-4.89-.39-11.32-3.4-16.13-2.94-2.92.28-.45,2.63-2.93,2.28-2.01-5.84-6.85-9.97-13.19-10.23l.14-22.19c14.6-5.72,18.68-27.42,5.8-36.94,15.73-14.8,6.85-42.44-16.43-37.78-.21-40.2-57.67-31.54-48,7.23-19.47-.66-28.46,26.75-11.83,37.15-19.8,19.67,1.7,44.69,25.89,34.58,2.08,2.79,5.32,4.86,8.94,5.17v19.72c-22.4.71-44.69,3.77-66.4,9.2v-162.35Z" fill="#fff"/>
  <path d="M4.08,426.86c26.24-7.53,54.3-10.54,81.53-9.52-1.95,2.25.69,4.77.52,6.12-.26,2.05-4.51,5.93,1.44,8.35.72,1.55-1.1,1.09-1.31,1.74-.89,2.83,4.29,9.19,7.89,9.09l-.12,171.12-89.96,37.58v-224.47ZM50.1,447.56c-.11-.12-1.44.08-1.97,0-.19,4.32-1.35,8.18,0,12.49l1.31-.97c-.75-1.84,1.28-10.84.65-11.52ZM58.65,449.54c-3.53,1.07-3.93,6.85-4.59,9.85,2.37,2.32,4.47-8.33,4.59-9.85ZM40.68,452.39c-.7-.56-1.45-1.02-2.41-.88-.82,3.04,1.68,3.1,2.64,4.44,1.21,1.7,1.48,4.71,3.93,4.09.7-.7-3.27-6.94-4.16-7.66ZM71.8,513.95c3.37-11.62-7.81-15.22-13.47-5.28-10.32-6.48-19.76,5.26-8.9,12.84-10.81,5.79-5.89,16.92,5.93,13.48l-2.63,20.38c-.54-.09-1.77.14-1.96,0-.31-.25-1.57-5.5-2.76-7.44-3.51-5.71-12.48-10.09-11-.17.62,4.12,5.72,9.49,8.83,12.2,4.38,3.82,6.9,1.53,5.56,10.72l1.68,1.1,1.04-4.51c5.17-.84,16.33-7.13,16.35-12.97.02-7.64-14.53.93-15.76,5.01l2.63-22.35c2.43.59,1.72,2.56,5.09,3.13,7.5,1.26,10.2-4.41,9.4-10.99,13.1-.16,13.05-15.96-.03-15.15ZM54.7,601.38c-5.23,3.56-4.1,13.74-.97,18.39,2.36-.52.22-5.28.26-6.9.09-3.68,1.31-7.62.71-11.49ZM63.49,614.75c.99-1.5,6.09-4.56,3.38-6.79-2.46.95-8.71,9.88-6.9,11.82s2.77-3.9,3.52-5.03ZM41.32,612.78c2.14,2.26,3.4,5.12,5.17,7.64,3.24-2.35-4.45-10.67-6.03-11.05-5.03.76.1,2.61.87,3.41Z" fill="#fff"/>
  <path d="M590.54,406.16l-63.12-9.2.69-17.73c2.8.05,6.8-1.48,9.1-3.07,1.4-.96,3.25-3.97,3.77-4.1s7.86,2.32,10.56,2.27c19.11-.34,28.79-25.44,13.37-37.85,17.17-9.34,10.94-37.07-9.21-36.17,8.86-42.06-51.13-46.55-49.32-4.6-21.33-5.29-35.14,23.17-20.39,37.8-22.48,19.77,1.98,44.97,26.3,35.16,2.08,4.78,7.01,9.42,12.19,11.15l-.34,16.46c-31.03-2.05-62.17-1.67-93.07,2l-8.75-3.64c2.24-2.08,2.5-9.4,3.52-10.86.38-.55,8.09-2.91,10.15-4.31,30.53-20.82,1.53-89.9-2.56-119.03l1.62-3.51c20.45-10.87,49.29-44.67,72.97-44.09,19.89.48,46,24.57,61.82,36.18,6.71,4.92,14.07,9.09,20.69,14.15v142.96Z" fill="#fff"/>
  <path d="M456.06,430.18c14.72,30.6,4.4,47.41-.28,76.36-.65,4.03,1.64,11.59,3.36,15.54,2.55,5.89,7.35,9.14,7.16,15.88-.36,12.97-7.05,29.53-10.48,41.59-2.58,9.08-4.35,18.43-7.3,27.41-3.03,1.94-20.24,1.03-20.98-2.04,1.82-4.27,3-8.75,4.45-13.15,1.08-3.26,2.85-6.89,3.84-10.65,1.78-6.75,6.08-26.59,4.78-32.65-.46-2.15-13.4-7.99-16.62-10.33-5.86-4.24-13.18-13.05-14.89-20.07-.55-2.27.58-5.56-.7-8.06l-1.31.97,1.66,13.52c-32.74,19.46-70.48,30.17-108.51,32.85l-1.32-.66c-1.03-4.95-1.93-9.93-2.84-14.91-1.83-10.01-2.74-20.19-5.01-30.48-1.66-7.54-4.06-14.94-6.82-22.14l.53-1.17c5.14-3.03,10.62-6,14.16-10.84,6.96,18.34,9,48.01,36.36,41.59,5.64-1.32,12.25-4.17,13.43-10.57,17.22-2.79,35-6.58,51.65-11.79,11.84-3.71,35.47-10.12,36.94-24.19,2.36-22.52-6.48-51.13-21.63-67.78l4.56-6.51c17.63,3.57,28.28,16.63,35.8,32.27Z" fill="#fff"/>
  <path d="M590.46,408.86l-.02,48.47-106.04,27.73c-2.42-8.6-2.34-17.77-4.39-26.45-2.59-10.98-10.42-30.16-20.64-36.68-2.23-1.43-5.08-1.35-6.56-2.65s-4.38-7.54-6.57-9.86c-2.62-2.76-7.18-5.18-10.04-7.66-.46-.4-1.24,0-.82-1.51,51.69-5.95,104.43-2.8,155.08,8.61ZM518.87,410.1c-2.23-2.29-2.95,9.7-.97,10.51,1.41.33,1.59-2.91,1.63-3.63.13-2.48-.44-4.48-.66-6.88ZM526.76,412.08c-3.02-2.76-7.12,9.54-2.61,6.79l2.61-6.79ZM509.53,413.55l-1.83-.16c-.77.78,3.97,8.74,6.57,7.22l-4.73-7.06ZM543.19,443.63c-2.53-3.08-6.32,17.79-3.61,17.73l3.61-17.73ZM526.62,449.69c-.49-.24-3.56-.85-3.13.82,4.41,2.38,5.08,7.1,7.16,10.58,1.2,2,2.77.9,2.41-1.06-.23-1.22-5.66-9.95-6.44-10.34ZM555.69,450.86c-2.28-1.92-10.24,8.23-8.54,11.17l2.27-.68,6.27-10.48Z" fill="#fff"/>
  <path d="M421.18,367.12c3.64,9.86,2.87,19.86-2.66,29.09-11.58,19.33-30,7.45-28.54,39.22.28,6.2,4.38,19.51,2.03,24.32-2.83,5.78-19.13,9.83-25.32,9.49-10.48-.57-17.01-8.57-25.85-11.63-11.05-3.83-24.33-1.25-35.71-4.54-3.46-7.32-.71-14.78-.73-22.27-.03-14.84-4.2-32.75-12.23-45.24,2.99-3.68,13.14-14.3,17.92-14.29,2.33,0,8.06,2.17,11.3,2.58,5.79.74,12.04.4,17.94,2.1-2.15,20.44,13.27,24.4,30.45,18.85,4.17-1.35,9.3-5.13,12.31-6,1.42-.41,3.85.15,6.58-.76,11.03-3.67,23.78-16.93,29.94-26.58,1.75,1.5,1.85,3.7,2.57,5.65ZM316.37,385.78c-.07-.07-1.9-.07-1.96,0-2.48,2.61,7.07,14.2,9.19,16.12,5.47,4.95,14.91,8.72,22.37,8.2v-1.97c-12.59-.48-23.03-7.3-28.88-18.27-.59-1.11-.56-3.95-.71-4.09Z" fill="#fff"/>
  <path d="M237.25,412.51c-1.36,2.27-5.55,8.02-7.32,10.09-3.16,3.69-8.02,6.04-10.7,8.99-.67.74-1.17.48-.81,2.17l9.21-4.31,19.65,27.52c-2.49,2.19-5.06,4.11-7.52,6.35-3.7,3.38-2.66,2.26-6.82,5.01-8.21,5.44-4.9,8.45-7.36,15.51-.42,1.2-2.78,1.9-2.63,5.46.18,4.29,3.8,3.52,4.53,4.42,4.89,6.03-13.74,25.99-20.86,26.13l-6.62-12.46c5.1-2.84,12.02-10.95,15.26-15.95,3.71-5.72,9.24-16.26,6.76-22.82-3.69,17.17-14.32,30.51-27.62,41.39-1.38.4-2.37-6.07-3-7.36-1.28-2.6-4.91-8.1-6.85-10.39-12.21-14.47-38.46-20.38-54.9-9.85,3.1-21.12,9.46-42.48,22.68-59.81,2.27,13.3,16.18,11.15,24.31,3.93,3.25,6.89,9.2,7.06,15.26,3.43,13.59-8.12,16.91-31.51,32.09-44.17,3.62-3.02,20.38-13.96,23.52-7.06,2.48,5.43-6.88,28.12-10.28,33.79ZM225.41,404.6c1.67-1.95,8.86-8.37,9.14-8.94.57-1.18.09-1.28-.7-2-8.51,5.57-16.39,13.63-18.72,23.66,1.84,1.93,6.62-9.16,7.59-10.48.89-1.2,2.04-1.49,2.69-2.25ZM143.93,458.86c-2.58.8-5.25,9.2-.13,9.15,3.79-.03,6-10.98.13-9.15ZM188.76,464.72c-3.43-2.18-6.71,7.88-2.76,9.03s4.03-6.75,2.76-9.03Z" fill="#fff"/>
  <path d="M167.13,308.88c-5.12-1.32-8-5.52-7.19-10.8.26-1.67,1.89-3.27,1.78-4.54-.16-1.92-4.49-4.27-5.04-9.38-.77-7.12,2.32-8.03,3.17-12.45,1.36-7.02-1.9-13.38,5.93-19.05,3.15-2.28,6.45-1.81,8.14-2.87.61-.38,2.01-5.13,3.7-6.99,4.94-5.45,12.25-7.4,19.36-6.82,1.82.15,4.2,1.73,5.99,1.62s5.8-3.23,8.84-4c7.32-1.85,14.1-1.49,20.97,1.42,4.33,1.83,8.1,5.86,11.66,7.4,8.44,3.66,13.09,1.23,20.62,9.62s5.7,13.81,9.15,21.74c.63,1.46,3.63,3.84,4.79,6.38,4.21,9.22.15,11.27-.14,18.54-.09,2.24,1.23,5.09,1.26,7.28.06,4.91-2.22,9.77-6.16,12.75-1.47,1.11-4.19,1.51-4.78,2.12-1.15,1.19-1.41,7.05-3.74,9.74s-7.82,4.39-11.26,2.62l2.49-12.71c3.48-2.56,6.84-2.02,10.38-5.59,6.03-6.07,9.91-16.5,1.82-22.65-8.06-6.12-11.07-1.39-12.24,6.5-1.95,13.06-.8,27.07-7.34,39.18-11.94,22.1-47.81,25.52-66.7,11-10.11-7.77-11.22-17.5-12.17-29.56,8.78,5.86,15.21.26,23.35-3.12,3.96,6.2,10.01,6.99,16.74,4.74,2.05-.69,6.02-4.17,7.46-4.1,8.33.37,17.29,14.2,27.08,2.49,9.56-11.43,4.78-28.28,8.15-42.02-9.03-.81-16.19-5-18.72-13.86-8.85,5.02-20.38,8.19-26.27-2.62-4.29,9.11-13.87,13.21-23.03,7.95-3.11,5.18-8.11,7.41-14.05,7.22-1.31,4.57-1.86,9.27-2.7,13.94-.13.72-1.3.39-1.3.46v18.4ZM217.1,325.97c-6.06,3.94-8.64,6.39-16.47,4.96-2.04-.37-8.4-4.73-7.85-1.36.92,5.59,25.1,6.49,24.32-3.6Z" fill="#fff"/>
  <path d="M509.01,286.2c2.31-13.69,20.92-21.25,33.32-14.91,12.55,6.42,13.3,19.22,10.73,31.67,5.91-.25,10.31-.53,14.49,4.25,8.35,9.57,4.9,24.24-6.58,29.6,20.64,15.21,2.12,43.61-20.6,32.63-3.31,3.91-6.95,7.19-12.28,7.79l1.42-30.46c6.71-3.85,13.06-6.97,15.01-15.2-.8-3.91-5.54,6.1-6.81,7.31-.44.42-8.02,5.22-8.3,4.83-1.02-3.52,2.38-21.55-.34-23l-1.64.33-.66,31.22c-.92.09-1.74.04-2.61-.35-3.96-1.79-11.68-16.6-12.52-21.34l-2.59,1.03c2.89,9.5,8.4,19.05,17.08,24.39-.55,5.14.64,11.38.02,16.35-.1.82-2.55,2.29-1.37,4.89-6.47-1.38-7.98-7.32-11.78-11.57-8.87,3.66-21.87,4.28-28.59-3.6-6.21-7.28-6.12-19.59,1.93-25.58,2.37-1.76,5.58-1.35,4.92-3.94-9.7-1.28-10.46-12.85-8.36-20.52,2.79-10.17,14.86-17.14,24.77-13.29l1.34-.7c.42-3.62-.58-8.39,0-11.83Z" fill="#fff"/>
  <path d="M283.27,375.49c13.82,17.35,19.78,42.4,17.89,64.42-1.82,21.18-16.46,39.73-34.09,50.37-2.82-11.98-12.94-23.52-25.65-24.98,3.28-4.47,8.63-6.25,12.84-9.84,10.76-9.18,11.23-17.47,10.16-31.22-.24-3.11-3.89-22.55-6.23-22.68-1.86,2.23.29,7.63,1.05,10.64.13.51,1.07.53,1.19,1.04,1.84,7.91,2.96,16.74,1.42,24.83-6.95.48-15.64,2.8-22.43.64-4.05-1.29-7.29-8.26-10.35-11.19,5.59-7.3,10.99-13.46,14.62-22.05,2.29-5.42,6.84-17.84,6.96-23.29.04-1.78.17-3.59-.73-5.22-.55-.8-3.41-2.01-4.39-2.18-14.59-2.65-35.05,19.38-40.01,32.1l-13.76-5.29c-2.02-3.13,2.89-24.13,4.45-28.46.67-1.86,5.23-12.57,7.7-10.99,8.04,20.19,39.82,10.35,41.45-9.22,14.22,2.43,28.87,11.25,37.89,22.58Z" fill="#fff"/>
  <path d="M73.12,344.04c-.23-2.3-.4-7.13-3.28-6.24l.65,28.92c-9.15-.58-13.01-12.5-13.81-20.38l-2.65,1.64c2.43,8.72,5.94,19.98,16.39,21.43l.42,22.96c-1.4,2.43-7.29-4.89-8.57-5.01-1.05-.09-5.17,2.01-7.3,2.28-7.46.95-15.98-.47-20.63-6.83-4.16-5.68-4.81-15.39-.95-21.32,1.2-1.83,7.25-5.71,6.2-7.26-16.44-5.53-10.91-32.24,5.68-34.16,2.35-.27,4.59,1.68,6.16-.37-14.48-37.32,43.74-46.73,42.08-6.23,23.4-7.38,33.96,24.12,13.16,35.17,15.77,5.28,13.81,28.57-.67,33.85v-12.82c0-2.5-2.61-5.38-5.53-4.92-7.96,1.27-5.95,16.01-6.96,21.68-2.72.85-6.45-2.01-8.75-1.23-1.37.47-6.2,10.19-11.63,7.8l.09-25.21c9.01-4.39,16.73-13.82,17-24.08l-1.92.05c-2.37,7.46-6.12,17.77-14.51,20.34.19-.65-.67-1.39-.67-1.65,0-5.73.56-12.9,0-18.4Z" fill="#fff"/>
  <path d="M281.52,489.63c2.17,5.16,4.07,10.44,5.48,15.89,6.12,23.56,6.41,46.75,14.61,70.19,5.66,16.16,15.48,30.68,26.51,43.88-.26,6.19-12.98,18.02-18.57,14.58-.3-.18-4.33-4.18-4.99-4.87-12.56-12.95-26.76-38.19-33.48-54.75-1.27-3.12-6.4-21.33-7.28-22.16-.46-.43-.75-.37-1.32-.31l.65,5.25c-9.62-.58-19.3-2.29-28.06-6.45-10.75-5.1-17.87-13.11-25.12-22.26-.11-1.2,7.29-4.53,9.08-5.86,6.53-4.87,12.57-11.9,14.53-20,3.48-.23,7.57,2.98,10.29,3.06,6.02.19,12.56-4.63,16.97-8.34,1.24-1.04,4.27-5.16,4.62-5.19.18-.01.93,1.21,1.83,1.1,4.71-.55,9.69-2.6,14.27-3.78Z" fill="#fff"/>
  <path d="M439.98,358.5c-1.99-16.48-20.62-33.81-26.98-50.59-11.98-31.6,3.23-88.31-23.29-110.14-20.76-17.09-61.51-12.26-73.44,13.35-5.01,10.77-10.9,64.3-8.25,75.54.4,1.68,2.95,6.4,2.91,6.77-.04.41-4.72,6.23-5.72,5.57-5.17-11.79-4.33-25.17-3.28-37.78,1.97-23.57,4.94-57.12,24.64-72.64,35.15-27.7,85.26-8.24,95.71,33.82,5.22,35.52,19.74,72.69,24.18,107.92,1.63,12.92,2.62,30.16-6.48,40.33-.33-3.87.46-8.39,0-12.16Z" fill="#fff"/>
  <path d="M393.3,333.85c-.54.6-11.59-7.63-13.37-8.65-2.16-1.25-10.53-4.23-11.45-5.31-.79-.93-2.25-8.39-4.09-11.18-15.72-23.84-47.41-27.29-59.19,1.3-4.26,10.33-.61,16.56,3.96,24.82,2.18,3.95,1.43,7.96,7.21,9.88,2.48.83,5.54.12,7.19.65,2.09.68,6.4,4.53,9.25,4.95-1.57,3.07-4.72,4.51-6.37,7.74-2.11,4.13-2.38,8.81-3.56,13.2-7.4-.38-16.26-3.03-21.92-7.83-16.53-14.04-6.98-39.48,1.93-55.2,8.07-14.24,23.26-27.91,40.02-30.27,7,17.28,30.34,12.92,38.34-1.32.85-.21,7.82,2.06,8.37,2.61.45.45,1.38,10.25,2.05,12.56,1.62,5.57,4.63,10.35,9.74,13.27,2.36,1.34,9.11,2.99,9.5,3.32.54.46,4.55,10.82,5.74,13,2.44,4.49,7.48,9.88,7.59,14.75.14,6.02-4,16.68-6.89,22.08-6.65,12.43-19.06,22.82-31.88,28.64l-12.4-17.83c10.87-9.35,20.18-19.43,22.14-34.26.27-2.08.84-16.56.09-17.33h-1.97v16.44Z" fill="#fff"/>
  <path d="M111.25,455.45l19.73,5.92c-5.21,25.36-12.13,60.01,20.97,67.77l.13.91-9.35,67.3-36.42,11.28,1.11-162.92,3.84.22v9.53ZM129,567.85v-12.16c0-.15.64-.52.37-.99-.96-1.55-2.34-.13-2.34.99v12.16h1.97ZM119.73,558.05c-.91-.4-1.4.38-1.89.92l5.57,9.52c2.66-1.41-2.79-10.05-3.68-10.44ZM138.86,558.65c-2.23.04-10.19,9.02-6.23,9.85.58.12,6.71-8.3,6.23-9.85Z" fill="#fff"/>
  <path d="M207.77,529.17c.76,2.25,4.8,5.62,4.62,7.94-.15,1.91-3.69,8.16-4.53,10.66-7.93,23.53-12.92,46.94-18.01,71.39-.45.69-1.27.61-1.98.64-3.55.15-17.79-2.65-22.21-3.49-2.7-.51-19.42-3.98-20.12-5.19.05-27.41,3.38-54.68,9.09-81.39,5.25,1.41,10.59,0,15.79-.97,1.47-.27,3.12-1.62,4.33-1.66,1.13-.03,8.98,3.59,12.44,3.94,6.93.7,13.86-.49,20.58-1.86ZM190.4,566.29c-2-4.49-4.15-10.72-5.21-15.5-.8-3.6-.28-7.94-1.95-11.18-2.59.01.79,14.43,1.17,15.9.91,3.54,5.26,15.93,8.02,17.6,4.6,2.77-1.85-6.4-2.03-6.82Z" fill="#fff"/>
  <path d="M421.99,416.24c7.36,11.92,17.85,48.64,11.39,61.07-.14.26-3.48,3.74-3.93,4.11-12.95,10.77-74.55,25.78-91.75,25.33-4.09-.11-17.55-1.57-14.79-7.63,2.96.82,11.77-3.28,13.4-2.97.53.1,3.42,5.08,8.44,6.17,10.64,2.3,31.28-9,36.96-18.02,3.85-6.12,3.27-9.33,2.64-16.41,18.4-4.72,7.73-23.42,7.59-36.41-.19-16.91,8.68-18.25,21.39-25.36.97,0,1.39.78,2,1.31.58.51,6.05,7.82,6.65,8.79Z" fill="#fff"/>
  <path d="M352.18,204.71c2.09,2.31,3.4,5.82,5.64,8.5,7.76,9.29,22.54,15.88,34.05,18.88,1.4,8.7,2.71,23.69-.31,32-2.11,5.83-20.94,10.9-26.83,11.3-32.64,2.22-50.99-20.25-44.31-51.86,11.99-2.32,24.75-9.19,30.16-20.47.4-.25,1.21,1.22,1.61,1.66ZM330.84,233.95l-2.52.77c-2.39,8.23,6.49,13.24,10.41,4.49-2.91-1.1-4.28,3.71-6.59,2.33-1.78-1.06-1.25-5.74-1.3-7.59ZM368.31,240.52c-4.24.71-1.03,7.41,1.96,8.27s8.1-2.57,7.9-5.64c-1.93-1.86-9.48,11.12-9.86-2.63ZM349.9,243.15c-4.62,1.24-6.11,7.34-.33,7.89,1.74-2.1-1.89-2.12-1.63-3.61.09-.5,2.98-2.26,1.96-4.29ZM343.32,254.98c-4.71,1.08,1.41,7.1,4.44,7.73,3.81.79,12.91-.62,11.69-5.75-4.8,4.66-14.51,6.21-16.12-1.97Z" fill="#fff"/>
  <path d="M232.87,266.81c2.24,7.39,10.23,12.24,17.76,12.49-.36,2.54-1.19,5.72-1.3,8.22-.37,8.16-.41,18.81-3.83,26.4-7.71,17.06-19.09.28-28.76.79-1.42.07-7.14,4.58-10.79,5.06-10.01,1.33-10.47-6.7-7.38-13.99,1.32-3.11,4.76-4.72,3.74-7.44-6.32.13-6.87,14.05-8.19,15.48-.51.55-12.93,5.93-13.66,6.07-2.34.44-4.91.13-6.76-1.49-5.9-5.15-3.39-32.25-.54-39.67,4.06,1.65,11.62-6.33,12.8-6.54.94-.17,2.94,1.13,4.51,1.18,7.75.26,13.42-.98,17.75-7.88,6.12,7.03,17.48,6.3,24.65,1.3ZM177.65,290.46c.65.84,12.7-1.01,11.77-4.79-1.91-5.25-13.26,2.87-11.77,4.79ZM229.35,284.78c-2.29.17-4.5,2.09-2.39,4.06.45.42,10.49,4.73,11.56,3,2.25-3.11-6.6-7.24-9.16-7.05ZM186.2,297.7l-2.21.09c-2.11,1.72-1.94,4.77-1.06,7.14,4.03.29,3.28-4.59,3.27-7.23ZM229.5,298.45c-3.12-1.95-7.89,5.08-4.72,7.18,5.01,3.33,6.79-5.89,4.72-7.18Z" fill="#fff"/>
  <path d="M398.15,213.98c8.97,18.52,5.61,42.53,6.99,63.01.59,8.84,3.09,18.56,3.5,26.76.04.74.82.96-.55,1.83-30.76-12.86-4.73-51.76-14.46-75.58-16.12-4.55-36.6-13.44-40.45-31.54-1.86-1.23-6.27,7.1-7.86,8.89-6.59,7.43-16.45,12.92-26.4,13.83.51,1.9-1.76,4.49-1.82,4.75-4.84,19.88,5.7,42.53,25.57,49.43-11.76,1.22-21.24,8.8-30.23,15.78-.56-2.1-1.7-3.86-2.22-6-2.2-9.02,3.29-59.11,6.63-68.76,11.72-33.88,64.95-36.16,81.31-2.39Z" fill="#fff"/>
  <path d="M271.27,580.75c2.6,6.02,6.06,13.33,9.27,19.32,1.1,2.06,7.21,9.38,6.2,11.1-21.14,8.45-44.74,13.79-67.66,11.23,1.71-7.98,3.05-16.17,5.16-24.06.22-.83,1.21-.95,1.34-1.45,3.78-13.76,6.73-28.12,13.87-40.56l24.07,3.57c3.02,6.78,4.82,14.04,7.76,20.84Z" fill="#fff"/>
  <path d="M237.47,554.71c.12,1.02-.98.36-1.51,1.46-12,25.19-15.96,54.26-22.75,80.55-.55,2.15-.66,7.03-1.73,8.66-2.44,3.72-18.66,1.8-22.93.1-1.36-1.16,1.08-13.24,1.53-15.56,4.23-21.98,9.09-45.67,15.65-67.2.81-2.67,6.91-24.83,9.68-23.77,6.21,6.72,13.28,12.62,22.07,15.75Z" fill="#fff"/>
  <path d="M190.41,508.44c.06.19,2.18,1.94,1.37,3.57-11.54,11.6-25.18,19.87-42.09,14.45-10.76-3.45-19.53-13.33-20.67-24.69-1.38-13.78-.76-19.12,13.65-21.82,20.85-3.9,41.41,8.46,47.75,28.48ZM137.88,499.5c-2.31,1.41-.69,8.89,1.88,8.5,3.2-.48.87-9.38-1.88-8.5ZM161.54,501.7c-2.55.01-6.31,8.36-2.49,9.55,3.28.77,7.14-9.57,2.49-9.55ZM154.64,522.49c7.58,2.25,18.83-2.31,21.04-10.17-2.33-2.42-2.64,1.37-3.57,2.31-4.03,4.08-10.77,8.37-16.47,5.23l-1,2.62Z" fill="#fff"/>
  <path d="M299.93,290.47c-.52,2.9,4.17,10.18,3.83,11.99-.31,1.67-7.07,13.8-8.49,17.05-.25.58-1.15.65-1.44,1.35-7.25,17.73-7.6,39.59,12.22,48.48l.46,1.3c-2.18.33-4.84,2.33-6.52,3.68s-8.47,8.57-9.55,8.19c-6.41-11.47-18.4-22.7-30.46-28.11-3.91-1.75-12.5-2.99-14.8-4.27-2.85-1.59,2.84-5.17,4.13-6.95,1.01-1.39,3.33-6.72,3.95-7.08.5-.29,5.53-.04,7.37-.49,4.93-1.2,7.83-4.91,9.57-9.5.38-.99-.15-2.86.23-3.38.13-.17,2.87-.72,4.06-1.52,9.07-6.14,8.19-12.77,7.06-22.85l18.37-7.91Z" fill="#fff"/>
  <path d="M410.12,552.47c-3.52,9.7-8.34,19.98-12.4,29.36-1.64,3.79-6.86,20.16-10.03,20.84-2.65.57-18.58-1.07-19.76-3.25,2.57-7.6,7.03-15.11,9.76-22.52,4.73-12.82,7.74-26.38,11.34-39.27,5.38-1.18,15.54-9.45,19.88-10.41,2.69-.6,6.79,6.29,6.77,8.71s-4.45,13.42-5.58,16.53Z" fill="#fff"/>
  <path d="M97.59,442.45c7.92-2.99,1.89-10.9,7.08-14.27l-.64,205.76c.26,4.56-3.36,7.26-7.32,4.64-1.79-65.22,1.27-130.78.88-196.12Z" fill="#fff"/>
  <path d="M363.33,313.21c9.14,19.19-11.99,29.8-28.86,29.17-2.28-.08-5.11-1.5-7.25-1.35-2.01.14-3.4,1.97-5.9,2.02-5.03.09-10.33-3.76-8.58-9.23,1.1-1.63,5.77,1.69,6.85-1.05.89-2.26-1.92-8.39.16-12.96.14-.3,3.57-5.18,3.86-5.35,2.61-1.49,8.37.47,12.77-4.32,3.65-3.97,3.18-8.87,3.63-13.47,10.96-.12,18.88,7.18,23.33,16.54ZM350.57,316.1c3.39.68,7.75-3.44,4.27-5.9-1.03,3.14-2.71,3.51-4.27,5.9ZM347.27,323.99c.32-2.51-.3-4.9-3.28-4.6-.31.3,1.21,5.97,3.28,4.6ZM329.52,329.25c2.6,2.42,10.76-4.43,5.27-5.91.35,3.87-2.03,4.27-5.27,3.95.08.53-.12,1.86,0,1.97ZM355.16,324c-2.18.47-3.07,4.23-4.99,5.19s-3.99.14-5.51,1.71c4.8,2.97,11.5-1.13,10.5-6.9Z" fill="#fff"/>
  <path d="M536.22,673.43c1.26,2.4,3.22,4.66,3.04,8.13-6.37-1.12-13.37,7.24-17.57,8.4s-33.86-.5-34.96-4.23c4.76-23.11,36.2-37.64,49.49-12.3Z" fill="#fff"/>
  <path d="M155.56,386.18c3.42,5.67,6.85,11.17,8.78,17.7l-18.23,21.33c-5.5-6.75-8.93-14.97-11.14-23.38-1.69-6.43-4.2-21.77-2.64-28.07.09-.35,3.45-5.86,3.91-6.08,6.67-3.14,16.62,13.98,19.33,18.48ZM153.31,410.07c.73-1.3-5.31-19.34-6.84-20.4-.98-.68-1.87-.73-3-.6l4.62,10.16,3.59,11.51c.29-.63,1.59-.59,1.63-.67Z" fill="#fff"/>
  <path d="M467.99,434.67c11.24,16.27,12.18,42.76,15.49,61.76.4.93,6.92,2.67,8.75,3.74,9.13,5.33,14.75,18.71,11.51,28.9-6.96-4.97-16.3-7.42-21.68-14.14-5.75-7.18-2.79-11.7-4.15-20.17-2.54-15.86-8.34-30.89-13.27-45.89-2.83-8.61-2.99-19.13-10.19-25.96,4.55.39,11,8.08,13.54,11.76Z" fill="#fff"/>
  <path d="M202.35,413.11c-2.62,5.11-8.88,15.29-15.32,16.55-1.67.33-3.64.52-5.15-.46-2.21-1.93-3.01-4.54-1.59-7.27l-2.47-.52c-4.59,4.65-10.79,10.76-17.96,7.46-8.13-3.74-3.89-12.22.36-17.46,11.56-14.25,29.43-9.57,43.45-1.99.71,1.1-.85,2.76-1.33,3.69Z" fill="#fff"/>
  <path d="M260.23,480.02c1.73,2.42,4.83,7.9,3.73,10.73-1.66,4.26-16.39,14.6-21.87,12.67.12-2.85,6.06-1.6,5.91-5.25-4.78.26-10.22,5.52-14.45.98.12-1.31,10.31-1.41,9.19-5.58-.85-.86-8.49,4.64-12.16,1.97-.33-.24-1.36-1.89-.32-2.29l7.58-2.95c.58-5.01-9.79,3.82-11.46-.45-1.67-4.28,7.51-9.61,9.77-12.39-2.68-2.82-5.11,1.81-7.21,2.96-1.63-8.18,8.95-14.01,15.9-12.31,4.92,1.2,12.46,7.8,15.39,11.9Z" fill="#fff"/>
  <path d="M201.32,358.83c-1.76,3.5-4.31,6.57-5.92,10.18-4.3,9.63-6.4,21.36-6.57,31.88-4.22-.92-8.44-1.81-12.82-1.31-2.65.3-7.86,3.32-9.54,2.33-4.33-4.93-1.67-9.75.72-14.93,3.73-8.1,10.97-17.4,18.04-22.86,5.06-3.91,9.29-7.23,16.08-5.28Z" fill="#fff"/>
  <path d="M519.65,701.17c.94-15.25,24.04-21.39,36.29-15.58,4.39,2.08,10.79,8.62,8.84,13.94-1.74,4.77-39.51,6.24-45.13,1.64Z" fill="#fff"/>
  <path d="M146.09,427.2c-7.38,9.59-9.75,21.32-14.49,32.18l-15.46-4.56c3.31-12.16,7.85-23.24,6.94-36.18.71-.71,15.49,2.43,17.28,3.44,1.94,1.08,2.19,5.28,5.74,5.12Z" fill="#fff"/>
  <path d="M353.85,352.91c-2.45.46-9.02,1.53-5.59,4.58,2.85-1.3,10.09-4.24,12.81-2.92l1.33,1.95c-2.67,2.76-6.33,2.72-9.54,3.63-.92.26-1.18-.49-.98,1.3l13.14-1.96c.25,5.2-7.79,6.28-11.83,7.23.44,4.03,6.8.39,9.19,0,1.79,2.47-7.43,4.69-9.19,4.6.03,4.44,6.14-.64,5.91,2.61-11.09,1.98-22.6-.49-33.45-2.7-.1-9.41,4.61-18.54,14.35-20.67,3.31-.72,12.74-1.87,13.84,2.34Z" fill="#fff"/>
  <path d="M375.95,350.03c-.51.94-8.24,10.65-8.94,10.11-.95-4.06-2.04-6.53-6.03-8.11-1.43-.57-3.21-.12-4.48-.78-1.93-1.01-1.35-2.97-6.26-3.6-10.29-1.32-11.67,3.74-22.68-2.33-.86-.47-1.68.18-1.32-1.61,17.26,3.49,39.4-1.75,42.39-21.69,4.08,3.32,7.44,2.34,9.22,7.87,2.02,6.29,1.2,14.34-1.91,20.13Z" fill="#fff"/>
  <path d="M386.38,657.58c2.8,3.16.57,5.12,1,8.87,2.26-.27,4.33-1.67,6.74-1.2,1.26.24,5.1,3.89,5.15,4.83.18,3.33-8.2,6.15-11.24,5.58-.49,2.74,2.43,2.04,3.15,5.07,2.3,9.75-9.36,11.43-11.37,1.5-.86-.2-5.95,8.57-12.38,3.84-8.11-5.96,5.15-10.71,4.83-12.05-4.02-2.11-13.1-2.9-9.23-9.74.39-.69,4.01-2.99,5-3.07,3.09-.24,5.49,3.52,8.84,2.61-1.01-6.35,4.48-11.94,9.52-6.24ZM384.55,669.92c-3.77-3.16-6.99-.88-9.63,2.27.51,8.74,14.24,6.93,9.63-2.27Z" fill="#fff"/>
  <path d="M345.3,295.07l-7.6-.03c-.9,3.01.29,6.42-.45,9.41-.41,1.64-6.07,7.98-5.72,4.81,1.69-2.53,2.51-10.92-2-10.88,4.85,5.86-4.69,21.34-6.23,9.18l-2.01.02c3.17,7.08-5.02,9.66-5.53,14.19-.35,3.07.98,5.76.61,8.81-2.84-.42-4.03.65-5.92,2.32-14.36-21.43,13.12-50.89,34.85-37.81Z" fill="#fff"/>
  <path d="M363.3,493.33c-1.37-1.14-2.74-4.04-4.16-5.37-4.34-4.09-9.35-6.45-15.15-7.85l10.97-11.55c9.1,4.12,17.09,3.29,26.54.98,6.12,7.78-9.43,23.09-15.39,24.88-1.32.4-1.92-.33-2.82-1.08Z" fill="#fff"/>
  <path d="M375.95,376.83c1.08,1.35,5.82,8.52,5.57,9.84-9.51,5.46-23.28,12.17-33.58,5.69,2.17.33,6.9,2.19,7.23-1.32-4.09-1.17-8.58.38-11.82-2.96-.2-2.33,13.19,3.26,13.13-1.64-4.13-.35-14.15.94-14.46-4.6,3.23-.09,6.32,1.14,9.51,1.33.98.06,5.64.71,5.6-1-3.86-2.61-14.07.43-14.45-5.59,3.91.31,14.88,1.31,17.73-1.01,2.01-1.64.51-3.49.68-3.59.55-.34,9.69-.79,10.9-.05.27.17,3.33,4.09,3.97,4.89Z" fill="#fff"/>
  <path d="M341.36,479.78c-3.85,3.79-5.85,8.39-6.23,13.81-6.23,3.16-18.13,5.22-23.67-.03-8.81-8.33,1.77-32.12,9.1-27.55,6.13,3.82-1.24,15.82,1.04,17.41,1.62,1.13,16.31-4.18,19.76-3.65Z" fill="#fff"/>
  <path d="M168.45,644.75c-.74-9.61-7.34-20.56-17.75-22.35l2.7-5.83,31.46,5.5-4.23,18.1-12.17,4.59Z" fill="#fff"/>
  <path d="M432.35,346.09c.43.82,1.43,1.5,2.2,3.38,4.21,10.28,6.63,29.54-8.37,31.71.45-8.42-2.37-16.4-5.79-23.86,3.57-5.79,5.95-13.13,5.79-20.17,1.13-1.44,5.79,8.2,6.17,8.95Z" fill="#fff"/>
  <path d="M278.62,643.15c-1.32,1.57-5.45,5.6-7.27,5.61-8.75-4.52-17.85-8.83-27.94-8.93,2.58-1.14,9.33-10.63,10.51-11.18,6.41-3,24.44,3.04,27.36,10.81.13.71-2.04,2.96-2.66,3.69Z" fill="#fff"/>
  <path d="M73.12,395.64c6.01-.24,9.88-3.63,12.93-8.47l7.46,1.24c-.35,4.62,1.3,10.85,0,15.31-.37,1.28-7.65,3.95-3.94,9.29-.47.25-2.17,1.7-2.32,1.7h-14.14v-19.06Z" fill="#fff"/>
  <path d="M165.82,646.07l-17.09,1.3c.52-6.77-5.03-14.42-11.19-16.75-3.24-1.22-5.64-.53-8.54-1.64,8.27-1.27,14.78-6.72,23.16-3.78s13.48,11.92,13.66,20.86Z" fill="#fff"/>
  <path d="M107.3,442.96v-20.05c0-.19,2.25-2.07,1.31-3.61l-6.75,2.52c-3.69-1.11-2.93-12.94,7.7-11.02,4.16.75,9.82,9.47,10.26,13.4.63,5.62-1.16,11.99-2.32,17.46l-10.2,1.3Z" fill="#fff"/>
  <path d="M216.77,360.14c9.31-1.05,17.89-4.73,25.97-9.2,1.16,19.1-30.99,28.57-37.47,9.2,3.68-.3,7.9.41,11.51,0Z" fill="#fff"/>
  <path d="M353.19,467.3c-7.4,11.91-18.62,10.06-30.23,14.45,3.04-8.16,9.98-14.6,10.52-23.66,7.55.79,13.37,5.72,19.71,9.21Z" fill="#fff"/>
  <path d="M319.64,498.86c.13.14-.06,2.57.52,3.76,3.62,7.45,18.88,5.85,25.8,6.08-.33,4.71-8.89,7.81-12.99,8.37-18.16,2.5-22.59-11.27-26.47-25.78l5.46,5.72c1.14,1.5,7.41,1.57,7.68,1.85Z" fill="#fff"/>
  <path d="M312.43,636.87c8.61-.72,14.22-8,17.76-15.12,14.5,4.37,1.62,28.39-8.74,26.17-3.45-.74-8.48-7.63-9.03-11.04Z" fill="#fff"/>
  <path d="M255.23,626.35c-.11-.12-.11-2.96.07-3.21l27.8-8.01c1.54,3.53,5.05,8.32,5,12.23-.03,2.17-3,10.6-5.91,9.2-3.46-4.25-11.13-10.2-16.78-10.2-1.46,0-9.84.37-10.19,0Z" fill="#fff"/>
  <path d="M391.86,336.61c-.24,8.46-6.09,16.59-11.7,22.56-2.97,3.16-6.38,5.1-9.26,7.86-1.67,1.6.1,3.29-5.88,2.31.3-7.01,8.15-10.34,11.74-15.54,5.27-7.65,5.6-17.1,3.39-25.87l11.71,8.68Z" fill="#fff"/>
  <path d="M211.18,648.7c-1.38,8.71-3.42,13.45-12.83,14.44-15.26,1.6-16.84-2.46-10.46-15.74,7.54,3.04,15.45,3.34,23.29,1.3Z" fill="#fff"/>
  <path d="M388.04,604.66c-.37,11.31-9.34,13.97-19.42,13.18-13.15-1.04-4.6-9.29-2.24-16.45.48-.3,8.68,3.27,10.81,3.27h10.85Z" fill="#fff"/>
  <path d="M361.74,496.86c-7.73,4.39-26.61,6.23-24.03-7.26,3.22-16.84,26.32,4.44,24.03,7.26Z" fill="#fff"/>
  <path d="M104.02,404.18c-1.83-.91-7.48,1.06-7.94-1.62-.87-5.13-.15-26.56,1.31-31.59s6.62-4.32,6.62.68v32.54Z" fill="#fff"/>
  <path d="M447.86,609.92c-.1,11.55-17.64,16.18-25.32,9.84-.66-1.75,2.15-11.18,4.06-11.75,7.24,2.57,13.65,3.04,21.26,1.91Z" fill="#fff"/>
  <path d="M231.56,498.18c.53,7.74-6.07,16.59-11.82,21.36-11.37,9.42-27.59,12.65-41.42,6.88-.82-.89,4.72-3.79,5.05-3.82.86-.08,3.26,2.14,5.19,2.47,18.6,3.22,33.67-9.85,41.06-25.24.46-.96.47-1.94,1.95-1.65Z" fill="#fff"/>
  <path d="M257.4,650.84c.04-.12,1.7-.88,1.75-1.82-3.51-2.8-4.93,3.09-4.19,5.62l-4.99,1.28c0-3.4-.95-5.91,2.62-7.57.31-1.58-1.26-1.06-2.13-.81-3.58,1.06-4.19,4.42-3.78,7.72l-4.51-1.08c-1.65-4.14,3.98-8.11,3.19-8.78-4.52-.51-6.04,4.88-5.92,8.54-5.83-1.06-3.64-8.31.5-10.36,5.01-2.47,24.52,1.96,27.8,6.07,1.68,2.11-7.65,4.87-9.04,4.83-1.88-.06-1.75-2.35-1.3-3.66Z" fill="#fff"/>
  <path d="M259.4,295.27c1.69-4.68,7.73-2.88,9.79.64,2.92,4.99-.05,13.7-3.83,17.5-2.13,2.15-8.09,6.36-8.21,1.06-.04-1.97,1.74-17.79,2.25-19.2Z" fill="#fff"/>
  <path d="M378.83,275.36c-6.14,12.34-28.18,16.85-33.54,1.65,11.62.93,22.13,1.63,33.54-1.65Z" fill="#fff"/>
  <path d="M144.55,639.71c1.38,2.32,1.77,5,1.53,7.68-5.55-.79-10.83-2-15.61-5.09-.76-.5-7.34-5.64-7.65-6.02-3.06-3.71,8.14-5.07,10.95-4.51s9.28,5.44,10.77,7.95Z" fill="#fff"/>
  <path d="M180.94,643.44c2.67,2.57-11.37,6.62-12.48,6.9-11.76,3.04-25.85,4-37.17-.98-2.12-.93-14.4-8.24-11.49-11.19,4.38-.68,6.74,4.12,9.9,6.2,14.64,9.62,35.91,4.45,51.23-.94Z" fill="#fff"/>
  <path d="M329.25,465.05c-.6,1.35-2.81,3.68-3.02,5.52-4.46-9.23-10.56-9.67-16.42-1.31l-4.6-13.14,25.2,1.41.97,1.39c-.48,2.17-1.23,4.11-2.13,6.13Z" fill="#fff"/>
  <path d="M237.77,658.25c-.74-.56-1.94-1.22-1.6-2.32,22.63,6.47,47.08-5.12,54.57-27.61,3.18,3.65-4.31,13.94-7.32,17.34-9.18,10.38-33.11,22.04-45.65,12.59Z" fill="#fff"/>
  <path d="M467.19,463.75l6.79,24.28-11.64,4.89c1.38-11.04,4.42-22.45,3.29-33.52l1.57,4.35Z" fill="#fff"/>
  <path d="M294.26,478.04c-6.1,6.11-12.07,9.61-20.62,11.58,7.92-7.76,16.11-14.43,21.76-24.23,7.71,5.11,3.33,8.17-1.14,12.65Z" fill="#fff"/>
  <path d="M261.8,441c1.05.89-9.04,14.14-11.51,14.43l-9.52-13.46,21.03-.98Z" fill="#fff"/>
  <path d="M202.4,515.49c.92,1.6,3.5,5.27,1.08,6.21-5.32,1.14-13.6,3.56-17.93-.85l12.2-10.82c.42-.07,4.36,4.94,4.65,5.45Z" fill="#fff"/>
  <path d="M375.17,712.18c.22.43,3.38,3.52.7,3.57-4.66-.37-22.48-14.97-11.35-13.67,5.44.64,8.48,5.84,10.65,10.1Z" fill="#fff"/>
  <path d="M397.9,708.52c-1.71,7.94-11,11.49-17.74,14.46,1.96-7.3,10.25-13.98,17.74-14.46Z" fill="#fff"/>
  <path d="M89.88,424.24c1.67-.63,11.97-1.18,12.14,1.26.79,10.84-22.83,2.77-12.14-1.26Z" fill="#fff"/>
  <path d="M305.2,487.66l-3.96-12.84,3.31-10.17c1.91-1.78,3.92,6.03,3.85,7.59-.04.98-1.47,4.27-1.9,5.74-.19.64-1.29.41-1.29.48v9.2Z" fill="#fff"/>
  <path d="M100.06,432.45c1.58,10.84-11.31,10.22-10.51,0h10.51Z" fill="#fff"/>
  <path d="M104.01,408.77c-4.91,1.96-5.7,5.75-11.99,3.29-4.84-8.37,14.22-6.57,11.99-3.29Z" fill="#fff"/>
  <path d="M97.44,415.36v6.57s-8.92-.61-8.92-.61c-1.68-7.03,3.78-6.7,8.92-5.96Z" fill="#fff"/>
  <path d="M302.56,451.51c.91,1.66.39,17.57-1.96,16.43-.11-1.88-3.22-3.8-3.16-5.47.02-.54,3.27-9.12,3.74-10.03.35-.69-.32-1.24,1.38-.92Z" fill="#fff"/>
  <path d="M381.47,274.03l9.19-5.25c-.17,1.43.66,7.67-.97,7.87l-8.22-2.62Z" fill="#fff"/>
  <path d="M116.5,444.94c.27.25-1.45,6.24-1.8,7.1-.4.99.37,1.77-1.48,1.44l.09-7.46,3.19-1.08Z" fill="#fff"/>
  <path d="M378.83,708.52c-.23,1.34.66,4.07-.64,3.94l-.66-3.93h1.31Z" fill="#fff"/>
  <polygon points="104.34 423.9 104.67 424.23 104.34 424.56 104.34 423.9" fill="#fff"/>
  <path d="M178.57,147.59c2.63,4.67,5.03,9.71,5.01,15.37,8.87-4.95,20.83-4.99,22.36,7.24,15-1.15,1.7,4.99-1.02,7.85-2.92,3.08-5.23,8.78-8.83,12.2-7.38,7.03-18.67,9.28-28.6,8.19-4.38-.48-9-3.82-11.85-3.97-3.29-.17-7.19,2.3-10.51,2.67-9.26,1.02-14.17-1.98-5.59-9.19l-7.08-2.14c-.92-8.99,13.35-4.56,18.91-4.44.4-1.69-.5-1.16-1.23-1.71-3.33-2.53-10.12-5.52-11.12-9.93s1.55-7.85,5.78-8.08c-6.32-4.73-8.21-16.8,2.81-14.95,3.65.61,11.15,7.06,13.18,6.91,4.9-.38.05-9.94,4.91-13.65,6.18-4.72,10.41,3.24,12.9,7.65ZM178.58,153.5c-1.4-3.28-5.19-12.75-9.65-12.13s-3.92,9.11-1.79,12.03l-4.6,2,14.85,14.82c6.62-2.45,4.32-10.24,2.34-15.56-.34-.91-1.09-1.03-1.15-1.17ZM180.18,174.01c-2.68,1.56-8.44-6.37-10.72-8.45-4.36-3.97-20.19-19.06-25.99-16.09-7.08,3.63,9.73,14.27,7.89,16.1-15.93-4.28-10.83,5.93-1.4,11.59,4.07,2.44,9.77,3.25,11.92,6.81-1.3,1.92-22.66-3.5-26.25-1.26-2.49,3.23,10.24,3.31,11.78,4.89l-8.51,3.96-1.34,2.93c5.25,2.45,15.44-3.48,18.77-3.25.47.03,5.68,3.4,8.33,4.09,14.85,3.86,33.68-3.94,38.04-19.55,1.39-4.99.52-12.07-5.27-13.19-6.95-1.35-11.56,1.66-15.42,6.99-.65.89-1.41,4.18-1.82,4.42ZM209.21,171.5l-2.9.59c-2.15,4.4,4.15.16,2.9-.59Z"/>
  <path d="M513.23,104.86c14.6,52.64-74.89,78.7-91.05,18.51-13.85-51.56,75.88-73.22,91.05-18.51ZM502.85,139.71c32.92-38.74-23.82-86.16-64.5-54.29-47.44,37.17,24.88,100.91,64.5,54.29Z"/>
  <path d="M259.32,118.76c3.28,1.27,2.6-1.93,4.18-3.75,7.24-8.35,18.81-7.95,21.99,3.24,3.21-1.52,4.62-1.26,7.87.01,1.44,2.18-6.42,6.38-7.6,7.83-7.94,9.77-6.87,17.3-22.5,21.54-11.93,3.24-14.43-1.31-23.45-2.11-6.07-.54-14.72,4.86-20.41-.98-.92-2.57-.29-5.14,2.3-6.24-2.41-1.71-6.32-2-5.94-5.88.9-6.28,15.77-.58,19.74-1.69-6.15-4.19-18.19-11.01-8.03-18.06-10.73-11.45.11-16.15,11.56-10.77,7.07,3.32,15.56,10.61,20.27,16.85ZM259.32,122.7c-.55-.29-6.26-7.82-8.02-9.39-3.63-3.23-14.35-10.65-18.92-11.33-4.84-.72-7.21.57-5.58,5.59,1.24,3.83,5.74,4.71,6.06,8.06l-4.59-.37c-7,8.33,11.93,13.1,15.1,16.49.77.82.81,1.17.67,2.28-.88.86-21.64-2.86-24.53-1.85-.87.31-1.28.91-1.1,1.84,1.42,2.23,24.63,1.68,4.21,6.52-4.38,8.37,14.66,1.91,17.73,2.23,1.81.19,5.58,2.62,8.7,3.01,15.68,1.94,31-6.19,34.41-22.09.56-2.62-.54-6.63-2.29-8.7-4.31-5.1-10.45-4.46-14.75.32-2.32,2.58-3.43,9.34-7.1,7.39ZM288.54,121.32c.17-.2.95-1.46.56-1.73-5.87,1.19-3.79,5.51-.56,1.73Z"/>
  <path d="M163.61,116.06c-8.77,9.42-53.68,9.09-67.14,8.11-9.52-.7-28.42-3.01-28.22-15.86.22-13.87,16.3-17.86,26.56-11.08-5.06-23.51,22.22-22.78,30.84-6.33l1.37.42c1.56-10.58,15.57-19.26,21.82-7.02l2.18,14.23c12.35-6.29,21.53,7.93,12.6,17.54ZM120.16,87.65c-10.47-10.44-27.23-8.16-22.96,8.2.43,1.63,3.97,4.11,3.21,6.64-1.25,1.97-9.65-5.08-12.12-5.64-17.19-3.86-26.18,16.07-7.26,22.38,13.99,4.66,64.82,4.54,77.6-2.57,11.42-6.36,4.98-22.33-7.08-16.29-1.85.93-3.09,5.12-5.45,2.43,9.28-24.06-14.94-31.41-17.75-5.57-3.27.29-3.69-4.38-5.48-6.68-.82-1.05-1.77-1.98-2.69-2.9Z"/>
  <path d="M455.76,164.09c.3-.93,3.13-3.02,3.31.47.1,2.06-1.63,11.53-2.24,13.94-.04.17-.86.22-1.02.72-.68,2.15.62,6.27-2.68,5.42-.04-1.2-.04-2.4.01-3.6"/>
  <path d="M429.45,147.84c.24.26.08,2.5-.67,2.94l-17.73,14.14c-.18-1.21.03-1.94.62-2.99.76-1.35,13.13-11.78,15.12-13.15.59-.4,2.07-1.58,2.66-.95Z"/>
  <path d="M537.28,145.22c-.16,1.34-2.39,1.24-3.29,1.05-1.05-.22-8.23-3.51-9.65-4.22-1.21-.61-8.24-4.29-8.46-4.72-.11-.37.28-1.93.36-1.97,1.42-.75,18.23,8.85,21.03,9.87Z"/>
  <path d="M408.95,122.4c6.04-.32,6.57,2.03.93,2.91-3.89.6-13.24,1.6-16.95,1.52-2.58-.05-3.27-2.01-.6-2.64,3.54-.83,12.68-1.58,16.62-1.79Z"/>
  <path d="M433.23,53.37c.7.67,8.48,15.78,8.84,17.13.61,2.27-1.07,2.36-2.6.61-3.06-3.5-5.41-12.57-9.08-16.58l1.02-1.69,1.81.53Z"/>
  <path d="M397.91,84.07c-.08-.09-.24-1.38.32-1.3,1.89-.56,17.59,5.53,20.04,6.91,2.7,1.52,2.78,3.2-.51,2.5-1.75-.37-19.18-7.27-19.86-8.11Z"/>
  <path d="M521.84,65.68c.85-.15,1.78.78,1.63,1.63-.24,1.38-14.19,13.13-16.09,15.45-.88-.7-1.18-1-.89-2.18.25-1.04,14.3-14.72,15.36-14.9Z"/>
  <path d="M502.06,175.18c.08.18.76.24.84.44,1.1,2.98-.41,4.41-2.47,1.97-.68-.8-9.1-18.36-8.52-19.24.06-.08,1.71-.53,1.99-.38.83.46,7.11,14.93,8.16,17.2Z"/>
  <path d="M479.02,58.67c.04-.16.9-.28,1-.75.43-2.07,1.07-12.62,3.03-12.61,1.44.92.77,1.47.7,2.64-.13,2.24-3.06,18.72-3.99,19.03s-1.81-.13-2.2-1.04c.62-2.39.91-4.87,1.47-7.27Z"/>
  <path d="M521.51,106.42c-.22-1.42.55-1.62,1.67-1.94,2.48-.71,14.4-2.1,17.07-2.06,1.2.02,2.17-.09,2.94,1.04l-21.68,2.95Z"/>
  <path d="M148.73,690.76c12.2-5.04,19.31,6.36,8.54,14.14,9.78,9.02.4,19.13-10.78,14.21-4.71,1.24-7.64,22.1-7.62,26.87,2.46-4.28,14.63-14.91,19.44-10.57,3.68,3.33-2.93,9.68-5.32,11.88s-12.76,7.86-13.14,8.55c-1.17,2.12.3,5.32.34,7.56-4.52,1.43-2.58-9.72-4.28-12.15-.29-.41-7.42-3.05-9.09-4.06-6.03-3.66-15.67-12.46-12.59-20.23,10.9-3.87,15.97,7.44,21.18,14.24.39.51-.1,1.25,1.47.85l3.29-18.4c-9.98,1.93-13.07-4.92-10.51-13.8-14.04-.02-10.41-17.99,1.96-15.12-2.79-11.93,14.89-17.43,17.11-3.94ZM151.35,705.88c-2.23-2.79,7.89-2.07,8.59-8.19.89-7.87-7.42-5.79-12.13-3.66-1.41-.43-.23-8.42-7.53-8.83-6.16-.34-6.6,8.57-5.36,12.8-4.64-1.78-10.94-2.83-11.79,3.68-1.14,8.75,9.53,4.96,10.48,6.2.02,2.35-1.87,2.54-2.32,5.2-.71,4.23-.35,7.91,4.69,8.55,7.99,1.01,6.27-6.76,8.77-6.92,10.79,10.03,22.56-4.47,6.62-8.83ZM132.55,742.44c-3.43-6.16-7.74-15.21-16.39-13.59-3.51,5.14,13.7,18.41,18.45,19.1,2.68.39-1.89-5.22-2.05-5.51ZM156.61,736.78c-7.96.03-16.68,8.57-17.09,16.43,2-1.51,4.6-2.21,6.67-3.52,2.17-1.37,12.71-10.49,10.42-12.92Z"/>
  <path d="M548.08,565.62c.11.2.89.22,1.03.72l-.02,1.69-5.22,6.07c12.23,6.09,6.15,19.4-6.58,15.45,1.49,7.19,3.99,14.15,3.29,21.69,2.26-4,11.59-18.52,17.48-13.87,4.85,3.83-5.52,15.87-8.62,18.46-1.59,1.33-7.15,3.53-7.87,5.28s.04,11.46-2.63,11.16c-1.82-.21.91-4.76-.97-6.27-4.81-1.03-10.36-1.95-14.7-4.37-13.82-7.7-4.52-18.79,8.06-10.03,2.76,1.92,4.15,5.36,7.27,6.86,0-8.52-.28-17.01-3.65-24.94l-1.59-.68c-5.35,6.54-15.84,1.78-14.11-7.29-14.25.07-14.48-13.73-1.31-16.35-4.07-12.41,10.09-18.77,16.38-7.36,6.17-3.33,10.49-2.32,13.77,3.77ZM533.43,587.01c2.42-1.5,11.18,4.94,13.89-2.24,2.92-7.75-8.66-8.62-8.7-9.35,1.51-2.18,4.23-2.66,5.91-4.59,6.35-7.31-8.24-12.5-10.85-3.64-2.36-5.44-3.16-10.65-10.88-8.23-6.28,1.97-1.47,11.28-2.21,12.23-14.4,1.23-13.11,15.92,1.59,10.48-3.86,11.82,7.36,18.38,11.27,5.35ZM541.89,617.14c1.83,1.84,17.98-13.22,14.5-18.11-1.81-1.23-8.31,4.75-9.54,6.3-1.05,1.33-5.56,11.19-4.95,11.8ZM536.21,621.54c-3.32-6.4-8.69-12.15-16.76-9.91-4.53,5.12,14.01,12.71,17.82,11.44.61-1.61-.9-1.2-1.06-1.53Z"/>
  <path d="M189.98,751.41c3.22-.41,13.5.67,14.5,4.25,1.16,4.46-4.67,7.11-8.17,7.99-14.61,3.67-20.86-10.38-6.33-12.24ZM189.33,754.04c-2.37.37-6.81,1.6-5.3,4.9,1.93,4.23,14.8,3.46,17.2-.93l-.21-2.18c-3.18-2.31-7.92-2.37-11.68-1.79Z"/>
  <path d="M57.18,659.39c3.91-.57,13.47-.92,14.5,4.26,2.19,10.98-29.94,11.66-23.48-.09,1.07-1.95,6.74-3.85,8.97-4.17ZM57.83,661.35c-13.36,1.98-9.12,10.1,4.27,8.21,11.92-1.68,8.73-10.14-4.27-8.21Z"/>
  <path d="M295.85,675.83c16.83-1.98,17.79,10.26,3.04,12.24-15.59,2.1-17.66-10.53-3.04-12.24ZM306.32,682.7c2.75-2.96-3.49-5.04-6.06-5.13s-11.74,1.23-12,4.43c-.49,5.93,15.28,3.71,18.07.7Z"/>
  <path d="M225.49,703.4c3.37,6.15-18.24,13.21-19.59,4.09-1.18-8.01,17.27-8.3,19.59-4.09ZM208.62,708.45c2.51,1.8,14.59.27,13.68-3.44s-15.26-2.76-13.68,3.44Z"/>
  <path d="M477.61,569.67c-5.44-5.72,9.04-10.02,14.27-6.71l1.22,1.41c3.03,7.21-12.73,8.2-15.48,5.3ZM491.26,565.23c-2.7-.53-5.39-.98-8.17-.62-1.69.22-5.34,1.34-4.32,3.23.61.77,13.84,1.97,12.49-2.61Z"/>
  <path d="M59.11,721.19c5.83,8.02-14.17,9.78-15.8,6.23-3.61-7.86,12.43-10.87,15.8-6.23ZM53.17,721.26c-1.84-.03-8.71,1.3-8.29,3.94,4.84,7.05,19.82-3.74,8.29-3.94Z"/>
  <path d="M84.14,675.82c10.84-1.47,13.28,7.47,4.38,8.98-12.95,2.2-14.29-7.63-4.38-8.98ZM80.35,682.22h9.53c.58,0,2.2-2.43,1.64-3.27-3.55-1.69-11.66-2.23-11.17,3.27Z"/>
  <path d="M558.14,516.76c.52.6.71,1.32.73,2.1.44,6.55-15.55,6.6-16.22,1.84-.89-6.32,12.94-6.85,15.49-3.94ZM556.25,517.99c-.92-1.36-12.67-1.57-11.11,2.77.81,2.2,13.97,1.44,11.11-2.77Z"/>
  <path d="M533.16,490.45c15.5-3.23,12.26,9.57,1.2,8.99-6.69-.35-7.72-7.63-1.2-8.99ZM534.48,492.42c-2.53.54-5.79,2.82-1.83,4.14,8.41,2.82,13.15-6.54,1.83-4.14Z"/>
  <path d="M340.52,571.94c4.16-1.02,14.07-.29,9.98,6.04-1.76,2.73-9.41,2.87-11.75,1.36-2.53-1.64-1.5-6.6,1.77-7.4ZM339.39,575.09l.29,2c1.42,1.62,12.99.83,8.24-2.98l-8.53.98Z"/>
  <path d="M270.23,701.45c8.64-.65,8.33,7.85,1.73,8.99-10.01,1.73-12.75-8.16-1.73-8.99ZM268.19,704.06c-1.75.43-4.58,2.56-1.96,3.65,4.67,2.68,10.84-2.25,6.98-3.68-1.59-.18-3.45-.35-5.01.03Z"/>
  <path d="M74.71,772.67c.61,1.66,3.22,4.16-1.51,3.46-.33-5.49-4.17-8.13-6.65-12.4,4.56-1.49,6.94,5.57,8.16,8.93Z"/>
  <path d="M448.86,647.39c2.15-.41,9.27,13.04,5.89,13.8l-6.79-11.61c-.46-.74.31-2.07.89-2.18Z"/>
  <path d="M82.32,774.57l-1.96.98c-1.11-2.09-1.14-14.12,1.62-13.8,1.55.93.34,1.4.34,1.64v11.17Z"/>
  <path d="M468.9,647.39l-5.24,12.04-1.98.44c-1.5-1.64,3.45-13.26,7.22-12.49Z"/>
  <path d="M94.15,764.39l-5.25,10.88c-6.67,3.16,3.5-12.89,5.25-10.88Z"/>
  <path d="M491.26,604.66c.27.24-2.51,5.81-2.82,6.7-.18.51-1.04,8.17-2.43,5.78-.83-2.18,1.86-15.42,5.25-12.48Z"/>
  <path d="M477.85,608.87c2.66,1.93,5.4,5.36,4.85,8.94-.59-2.11-8.41-8.28-8.54-8.88-.63-2.91,2.79-.7,3.68-.05Z"/>
  <path d="M409.14,774.83c6.04-.45,11.76-2.7,17.85-1.08,6.48,1.72,14.87,9.15,10.94,16.52-3.31,6.23-36.57,7.71-41.38,2.73-1.45-1.5-1.37-3.68-1.29-5.62-6.97.94-33.64,1.98-37.82-3.26-5.59-7,9.09-20.43,15.32-22.86,13.09-5.1,32.38-1.61,36.38,13.56ZM398.16,783.06c1.05-.72,8.37-6.37,8.63-6.85,1.56-2.9-4.08-9.15-6.42-10.67-8.11-5.24-21.36-5.21-29.61-.36-4.56,2.68-13.77,11.23-11.55,17.19,1.53,4.09,29.52,3.94,34.34,2.97,3.32-.67,2.55-.85,4.62-2.27ZM398.05,791.19c2.16,4.2,33.59,2.95,37.34-1.49,4.11-4.86-4.49-12.45-8.75-13.64-6.48-1.8-18.61.93-23.63,5.39-1.88,1.67-6.21,7.3-4.96,9.73Z"/>
  <path d="M318.9,766.46c.75.46.81,17.98-2.52,14.36v-14.46s2.52.11,2.52.11Z"/>
  <path d="M533.99,747.29c.51.54-1.02,13.38-1.32,14.79-.56,2.65-2.24,2.08-2.66-.62-.21-1.39,1.48-13.68,2.01-14.16.07-.07,1.9-.07,1.96,0Z"/>
  <path d="M524.79,764.38h-2.61c1.83-4.28-5.63-9.26-6.11-10.71-.34-1.04-.61-.89.52-1.77,4.96,1.73,7.9,7.5,8.2,12.49Z"/>
  <path d="M461.67,720.34c.54.57-.95,15.41-2.94,15.12-1.13-.16-.43-6.54-.33-7.54.18-1.71,1.22-9.76,3.27-7.57Z"/>
  <path d="M453.78,734.8c-.05.1-2.07.84-2.29,0l-6.25-12.49c3.64-.95,9.34,10.9,8.54,12.48Z"/>
  <path d="M306.26,773.17c-.2-.32-3.1-2.14-1.71-3.53,2.35-2.35,9.93,10.01,5.58,11.81-1.35-3.1-2.04-5.32-3.87-8.28Z"/>
  <path d="M539.26,764.38c-1.7-3.04,5.42-12.71,7.55-12.48,1.44.16.54,1.53.22,2.17-.83,1.64-4.32,6.37-5.77,8.7-.54.86-.52,1.93-1.99,1.61Z"/>
  <path d="M471.53,724.95l-6.89,10.51c-3.85-.7,5.23-12.15,6.89-10.51Z"/>
  <path d="M329.28,774.02c-.28.42-1.35.82-1.9,1.67-1.26,1.94-1.15,5.12-3.77,4.46-.74-.77,3.39-9.57,5.57-9.19l.74,2.03c-.07.43-.42.7-.64,1.03Z"/>
  <path d="M71.8,513.95c13.09-.81,13.13,14.99.03,15.15.8,6.58-1.9,12.26-9.4,10.99-3.38-.57-2.67-2.54-5.09-3.13l-2.63,22.35c1.22-4.08,15.78-12.65,15.76-5.01-.02,5.84-11.18,12.12-16.35,12.97l-1.04,4.51-1.68-1.1c1.33-9.19-1.18-6.9-5.56-10.72-3.11-2.71-8.21-8.08-8.83-12.2-1.48-9.92,7.5-5.54,11,.17,1.19,1.94,2.46,7.19,2.76,7.44.18.15,1.42-.08,1.96,0l2.63-20.38c-11.82,3.44-16.74-7.69-5.93-13.48-10.87-7.58-1.43-19.32,8.9-12.84,5.67-9.94,16.84-6.35,13.47,5.28ZM68.52,526.45c12.64,2.75,15.77-10.5,1.6-11.13,1.44-11.98-5.89-13.73-10.48-3.32-2.69-.26-1.75-2.28-5.26-2.66-4.84-.53-10.13,1.94-6.83,7.5,1.3,2.19,6.19,2.63,6.51,4.67l-7.82,5.33c-2.85,8.68,7.81,6.35,12.69,4.22,2.16.67-1.28,5.55,4.06,6.5,7.87,1.4,7.32-5.87,5.54-11.12ZM50.1,559.3c-1.76-5.46-4.11-15.36-11.18-15.11-2.49,3.89,9.41,16.47,11.18,15.11ZM67.85,553.39c-6.69.74-10.42,5.55-13.15,11.16,1.3,1.02,14.64-7.29,13.15-11.16Z"/>
  <path d="M54.7,601.38c.6,3.88-.62,7.82-.71,11.49-.04,1.62,2.1,6.38-.26,6.9-3.13-4.65-4.26-14.84.97-18.39Z"/>
  <path d="M63.49,614.75c-.75,1.13-1.63,7.06-3.52,5.03s4.44-10.86,6.9-11.82c2.72,2.23-2.38,5.29-3.38,6.79Z"/>
  <path d="M41.32,612.78c-.77-.81-5.89-2.65-.87-3.41,1.58.38,9.27,8.71,6.03,11.05-1.76-2.52-3.02-5.38-5.17-7.64Z"/>
  <path d="M50.1,447.56c.63.68-1.4,9.68-.65,11.52l-1.31.97c-1.35-4.31-.2-8.18,0-12.49.53.08,1.86-.12,1.97,0Z"/>
  <path d="M58.65,449.54c-.12,1.52-2.22,12.17-4.59,9.85.66-3,1.06-8.78,4.59-9.85Z"/>
  <path d="M40.68,452.39c.89.71,4.86,6.95,4.16,7.66-2.45.62-2.72-2.39-3.93-4.09-.95-1.34-3.46-1.4-2.64-4.44.96-.14,1.71.32,2.41.88Z"/>
  <path d="M543.19,443.63l-3.61,17.73c-2.71.06,1.08-20.8,3.61-17.73Z"/>
  <path d="M526.62,449.69c.78.39,6.21,9.12,6.44,10.34.37,1.96-1.21,3.06-2.41,1.06-2.08-3.48-2.75-8.2-7.16-10.58-.43-1.67,2.64-1.07,3.13-.82Z"/>
  <path d="M555.69,450.86l-6.27,10.48-2.27.68c-1.7-2.93,6.26-13.08,8.54-11.17Z"/>
  <path d="M518.87,410.1c.22,2.39.79,4.39.66,6.88-.04.72-.22,3.96-1.63,3.63-1.98-.81-1.26-12.8.97-10.51Z"/>
  <path d="M509.53,413.55l4.73,7.06c-2.59,1.52-7.33-6.44-6.57-7.22l1.83.16Z"/>
  <path d="M526.76,412.08l-2.61,6.79c-4.51,2.75-.41-9.55,2.61-6.79Z"/>
  <path d="M316.37,385.78c.15.14.12,2.98.71,4.09,5.85,10.96,16.29,17.79,28.88,18.27v1.97c-7.47.52-16.91-3.25-22.37-8.2-2.12-1.92-11.67-13.51-9.19-16.12.07-.07,1.89-.07,1.96,0Z"/>
  <path d="M225.41,404.6c-.64.75-1.8,1.05-2.69,2.25-.98,1.32-5.76,12.41-7.59,10.48,2.33-10.03,10.21-18.09,18.72-23.66.79.71,1.27.82.7,2-.28.58-7.47,7-9.14,8.94Z"/>
  <path d="M143.93,458.86c5.87-1.83,3.66,9.12-.13,9.15-5.12.05-2.45-8.35.13-9.15Z"/>
  <path d="M188.76,464.72c1.27,2.28,1.33,10.22-2.76,9.03s-.67-11.21,2.76-9.03Z"/>
  <path d="M217.1,325.97c.78,10.09-23.4,9.19-24.32,3.6-.55-3.37,5.81.99,7.85,1.36,7.82,1.43,10.41-1.03,16.47-4.96Z"/>
  <path d="M129,567.85h-1.97v-12.16c0-1.12,1.38-2.54,2.34-.99.28.46-.37.83-.37.99v12.16Z"/>
  <path d="M138.86,558.65c.48,1.55-5.65,9.97-6.23,9.85-3.96-.83,4-9.81,6.23-9.85Z"/>
  <path d="M119.73,558.05c.89.39,6.34,9.03,3.68,10.44l-5.57-9.52c.49-.54.99-1.32,1.89-.92Z"/>
  <path d="M190.4,566.29c.19.42,6.63,9.59,2.03,6.82-2.76-1.66-7.11-14.05-8.02-17.6-.38-1.48-3.76-15.89-1.17-15.9,1.66,3.24,1.15,7.59,1.95,11.18,1.06,4.78,3.21,11.01,5.21,15.5Z"/>
  <path d="M343.32,254.98c1.61,8.19,11.33,6.63,16.12,1.97,1.23,5.14-7.88,6.54-11.69,5.75-3.03-.63-9.15-6.65-4.44-7.73Z"/>
  <path d="M330.84,233.95c.05,1.85-.47,6.53,1.3,7.59,2.31,1.38,3.67-3.43,6.59-2.33-3.91,8.75-12.79,3.74-10.41-4.49l2.52-.77Z"/>
  <path d="M368.31,240.52c.38,13.75,7.93.77,9.86,2.63.2,3.08-5.07,6.45-7.9,5.64-2.99-.86-6.2-7.56-1.96-8.27Z"/>
  <path d="M349.9,243.15c1.02,2.02-1.87,3.78-1.96,4.29-.27,1.49,3.37,1.51,1.63,3.61-5.78-.56-4.29-6.66.33-7.89Z"/>
  <path d="M229.35,284.78c2.56-.19,11.41,3.94,9.16,7.05-1.07,1.74-11.11-2.58-11.56-3-2.11-1.97.11-3.89,2.39-4.06Z"/>
  <path d="M177.65,290.46c-1.49-1.92,9.85-10.04,11.77-4.79.94,3.78-11.11,5.63-11.77,4.79Z"/>
  <path d="M229.5,298.45c2.07,1.3.29,10.51-4.72,7.18-3.17-2.1,1.6-9.14,4.72-7.18Z"/>
  <path d="M186.2,297.7c0,2.64.75,7.52-3.27,7.23-.88-2.37-1.05-5.42,1.06-7.14l2.21-.09Z"/>
  <path d="M154.64,522.49l1-2.62c5.7,3.14,12.44-1.15,16.47-5.23.93-.94,1.24-4.73,3.57-2.31-2.21,7.85-13.46,12.42-21.04,10.17Z"/>
  <path d="M161.54,501.7c4.65-.02.79,10.32-2.49,9.55-3.82-1.19-.06-9.54,2.49-9.55Z"/>
  <path d="M137.88,499.5c2.76-.88,5.08,8.02,1.88,8.5-2.58.39-4.2-7.09-1.88-8.5Z"/>
  <path d="M355.16,324c1,5.77-5.7,9.87-10.5,6.9,1.52-1.56,3.51-.7,5.51-1.71s2.81-4.73,4.99-5.19Z"/>
  <path d="M329.52,329.25c-.12-.11.08-1.44,0-1.97,3.23.33,5.62-.07,5.27-3.95,5.49,1.48-2.67,8.33-5.27,5.91Z"/>
  <path d="M350.57,316.1c1.56-2.38,3.24-2.76,4.27-5.9,3.48,2.46-.88,6.58-4.27,5.9Z"/>
  <path d="M347.27,323.99c-2.07,1.38-3.59-4.3-3.28-4.6,2.98-.3,3.6,2.09,3.28,4.6Z"/>
  <path d="M153.31,410.07c-.04.08-1.34.04-1.63.67l-3.59-11.51-4.62-10.16c1.14-.12,2.03-.08,3,.6,1.52,1.06,7.56,19.1,6.84,20.4Z"/>
  <path d="M384.55,669.92c4.6,9.2-9.12,11.01-9.63,2.27,2.65-3.15,5.86-5.43,9.63-2.27ZM378.27,674.9c1.05,1.67,6.77.6,4.85-3.19-1.78-3.52-6.63.36-4.85,3.19Z"/>
  <path d="M180.18,174.01c.41-.24,1.17-3.53,1.82-4.42,3.86-5.33,8.47-8.35,15.42-6.99,5.79,1.13,6.66,8.21,5.27,13.19-4.36,15.62-23.18,23.42-38.04,19.55-2.65-.69-7.86-4.06-8.33-4.09-3.32-.23-13.52,5.69-18.77,3.25l1.34-2.93,8.51-3.96c-1.54-1.58-14.27-1.66-11.78-4.89,3.59-2.24,24.95,3.18,26.25,1.26-2.14-3.56-7.85-4.37-11.92-6.81-9.43-5.66-14.53-15.88,1.4-11.59,1.85-1.83-14.97-12.47-7.89-16.1,5.8-2.98,21.63,12.12,25.99,16.09,2.28,2.08,8.05,10,10.72,8.45ZM193.5,175.37c2.88,1.79,6.01-4.23,1.57-4.28-2.56-.03-2.68,3.6-1.57,4.28Z" fill="#fff"/>
  <path d="M178.58,153.5c.06.13.81.26,1.15,1.17,1.98,5.32,4.28,13.11-2.34,15.56l-14.85-14.82,4.6-2c-2.13-2.93-2.77-11.4,1.79-12.03s8.25,8.85,9.65,12.13Z" fill="#fff"/>
  <path d="M209.21,171.5c1.26.75-5.05,4.99-2.9.59l2.9-.59Z" fill="#fff"/>
  <path d="M502.85,139.71c-39.61,46.62-111.94-17.12-64.5-54.29,40.67-31.87,97.41,15.55,64.5,54.29ZM444.08,114.83c.11.23,2.4,1.46,2.82,1.46l1.66-.95c1.43-2.31,1.97-5.11-.01-7.29-2.35-1.4-5.88,3.88-4.46,6.79ZM485.12,111.84c-3.77.31-3.09,7.77-.1,7.75,3.57-.71,4.42-8.1.1-7.75ZM456.9,120.42c-.78-.92-2.5-1.12-3.11.16,1.3,6.56,9.39,10.66,15.59,7.69,1.69-.81,4.74-3.95,2.48-5.39-3.36,4.58-9.61,5.68-13.49.98-1.01-1.22-.99-2.85-1.48-3.44Z" fill="#fff"/>
  <path d="M259.32,122.7c3.68,1.95,4.78-4.8,7.1-7.39,4.3-4.78,10.44-5.42,14.75-.32,1.75,2.07,2.85,6.08,2.29,8.7-3.41,15.91-18.73,24.03-34.41,22.09-3.12-.39-6.89-2.82-8.7-3.01-3.08-.32-22.11,6.13-17.73-2.23,20.41-4.84-2.79-4.29-4.21-6.52-.18-.93.23-1.53,1.1-1.84,2.89-1.01,23.65,2.71,24.53,1.85.14-1.12.1-1.47-.67-2.28-3.17-3.39-22.1-8.16-15.1-16.49l4.59.37c-.32-3.35-4.82-4.23-6.06-8.06-1.63-5.02.74-6.31,5.58-5.59,4.57.68,15.29,8.1,18.92,11.33,1.76,1.57,7.47,9.1,8.02,9.39ZM273.14,124c2.25,2.21,6.23-1.97,3.12-3.44-2.89-1.36-4.65,1.93-3.12,3.44Z" fill="#fff"/>
  <path d="M288.54,121.32c-3.22,3.78-5.31-.54.56-1.73.39.27-.39,1.53-.56,1.73Z" fill="#fff"/>
  <path d="M120.16,87.65c.92.92,1.88,1.85,2.69,2.9,1.79,2.3,2.21,6.98,5.48,6.68,2.81-25.84,27.03-18.49,17.75,5.57,2.36,2.69,3.6-1.51,5.45-2.43,12.07-6.05,18.5,9.93,7.08,16.29-12.78,7.11-63.6,7.24-77.6,2.57-18.92-6.31-9.93-26.23,7.26-22.38,2.47.55,10.87,7.6,12.12,5.64.76-2.53-2.78-5.01-3.21-6.64-4.27-16.36,12.49-18.64,22.96-8.2Z" fill="#fff"/>
  <path d="M151.35,705.88c15.94,4.35,4.17,18.85-6.62,8.83-2.5.16-.78,7.93-8.77,6.92-5.04-.63-5.4-4.32-4.69-8.55.45-2.67,2.34-2.86,2.32-5.2-.95-1.24-11.62,2.55-10.48-6.2.85-6.51,7.15-5.45,11.79-3.68-1.24-4.23-.8-13.14,5.36-12.8,7.31.41,6.12,8.4,7.53,8.83,4.71-2.13,13.02-4.21,12.13,3.66-.69,6.12-10.82,5.4-8.59,8.19ZM147.25,708.36c6.04-14.69-15.34-10.94-9.42-1.77,1.86,2.89,6.52,3.37,9.42,1.77Z" fill="#fff"/>
  <path d="M132.55,742.44c.16.29,4.73,5.9,2.05,5.51-4.75-.69-21.95-13.95-18.45-19.1,8.65-1.62,12.97,7.43,16.39,13.59Z" fill="#fff"/>
  <path d="M156.61,736.78c2.29,2.43-8.25,11.55-10.42,12.92s-4.66,2.01-6.67,3.52c.41-7.86,9.13-16.41,17.09-16.43Z" fill="#fff"/>
  <path d="M533.43,587.01c-3.91,13.03-15.14,6.47-11.27-5.35-14.7,5.44-15.99-9.25-1.59-10.48.74-.96-4.07-10.27,2.21-12.23,7.73-2.42,8.52,2.79,10.88,8.23,2.61-8.86,17.2-3.67,10.85,3.64-1.68,1.93-4.4,2.41-5.91,4.59.05.73,11.63,1.6,8.7,9.35-2.71,7.18-11.47.74-13.89,2.24ZM525.8,577.35c4.2,6.37,9.63,2.67,10.05-3.73-2.5-7.6-13.84-2.03-10.05,3.73Z" fill="#fff"/>
  <path d="M536.21,621.54c.17.33,1.67-.08,1.06,1.53-3.81,1.27-22.35-6.31-17.82-11.44,8.06-2.24,13.44,3.51,16.76,9.91Z" fill="#fff"/>
  <path d="M541.89,617.14c-.61-.61,3.9-10.48,4.95-11.8,1.23-1.55,7.73-7.53,9.54-6.3,3.49,4.88-12.67,19.94-14.5,18.11Z" fill="#fff"/>
  <path d="M189.33,754.04c3.77-.59,8.51-.53,11.68,1.79l.21,2.18c-2.39,4.39-15.26,5.16-17.2.93-1.51-3.3,2.93-4.53,5.3-4.9Z" fill="#fff"/>
  <path d="M57.83,661.35c13-1.93,16.19,6.53,4.27,8.21-13.39,1.89-17.63-6.23-4.27-8.21Z" fill="#fff"/>
  <path d="M306.32,682.7c-2.79,3.01-18.56,5.23-18.07-.7.26-3.2,9.53-4.53,12-4.43s8.82,2.17,6.06,5.13Z" fill="#fff"/>
  <path d="M208.62,708.45c-1.59-6.2,12.74-7.24,13.68-3.44s-11.17,5.25-13.68,3.44Z" fill="#fff"/>
  <path d="M491.26,565.23c1.35,4.57-11.88,3.38-12.49,2.61-1.02-1.89,2.63-3.01,4.32-3.23,2.78-.36,5.47.09,8.17.62Z" fill="#fff"/>
  <path d="M53.17,721.26c11.53.2-3.46,10.99-8.29,3.94-.41-2.63,6.46-3.97,8.29-3.94Z" fill="#fff"/>
  <path d="M80.35,682.22c-.49-5.5,7.62-4.96,11.17-3.27.56.84-1.05,3.27-1.64,3.27h-9.53Z" fill="#fff"/>
  <path d="M556.25,517.99c2.86,4.21-10.3,4.97-11.11,2.77-1.57-4.33,10.19-4.12,11.11-2.77Z" fill="#fff"/>
  <path d="M534.48,492.42c11.32-2.4,6.58,6.96-1.83,4.14-3.96-1.32-.7-3.61,1.83-4.14Z" fill="#fff"/>
  <path d="M339.39,575.09l8.53-.98c4.74,3.81-6.82,4.6-8.24,2.98l-.29-2Z" fill="#fff"/>
  <path d="M268.19,704.06c1.56-.38,3.42-.21,5.01-.03,3.87,1.43-2.31,6.36-6.98,3.68-2.61-1.09.21-3.22,1.96-3.65Z" fill="#fff"/>
  <path d="M398.16,783.06c-2.07,1.42-1.3,1.61-4.62,2.27-4.82.97-32.81,1.12-34.34-2.97-2.22-5.96,6.99-14.51,11.55-17.19,8.26-4.85,21.51-4.88,29.61.36,2.35,1.52,7.98,7.77,6.42,10.67-.26.49-7.58,6.13-8.63,6.85Z" fill="#fff"/>
  <path d="M398.05,791.19c-1.25-2.43,3.08-8.06,4.96-9.73,5.03-4.46,17.16-7.19,23.63-5.39,4.26,1.19,12.86,8.78,8.75,13.64-3.75,4.44-35.18,5.69-37.34,1.49Z" fill="#fff"/>
  <path d="M68.52,526.45c1.78,5.26,2.32,12.52-5.54,11.12-5.34-.95-1.89-5.83-4.06-6.5-4.88,2.13-15.54,4.46-12.69-4.22l7.82-5.33c-.32-2.04-5.21-2.48-6.51-4.67-3.3-5.56,1.99-8.03,6.83-7.5,3.5.38,2.57,2.39,5.26,2.66,4.58-10.42,11.92-8.66,10.48,3.32,14.17.63,11.04,13.89-1.6,11.13ZM66.36,518.06c-1.56-1.38-7.22.53-8.3,2.21-2.65,10.81,15.06,8.46,8.3-2.21Z" fill="#fff"/>
  <path d="M50.1,559.3c-1.76,1.35-13.67-11.22-11.18-15.11,7.07-.24,9.41,9.65,11.18,15.11Z" fill="#fff"/>
  <path d="M67.85,553.39c1.5,3.87-11.85,12.18-13.15,11.16,2.72-5.61,6.45-10.42,13.15-11.16Z" fill="#fff"/>
  <path d="M378.27,674.9c-1.77-2.83,3.08-6.71,4.85-3.19,1.91,3.79-3.81,4.86-4.85,3.19Z" fill="#fff"/>
  <path d="M193.5,175.37c-1.11-.69-.99-4.32,1.57-4.28,4.44.05,1.31,6.07-1.57,4.28Z"/>
  <path d="M456.9,120.42c.49.59.48,2.22,1.48,3.44,3.87,4.7,10.13,3.6,13.49-.98,2.26,1.45-.79,4.58-2.48,5.39-6.2,2.97-14.29-1.13-15.59-7.69.61-1.28,2.33-1.08,3.11-.16Z"/>
  <path d="M444.08,114.83c-1.42-2.91,2.12-8.19,4.46-6.79,1.98,2.17,1.44,4.98.01,7.29l-1.66.95c-.42,0-2.71-1.22-2.82-1.46Z"/>
  <path d="M485.12,111.84c4.32-.36,3.47,7.04-.1,7.75-2.99.02-3.67-7.43.1-7.75Z"/>
  <path d="M273.14,124c-1.54-1.51.22-4.8,3.12-3.44,3.11,1.47-.86,5.65-3.12,3.44Z"/>
  <path d="M147.25,708.36c-2.89,1.6-7.55,1.12-9.42-1.77-5.92-9.17,15.45-12.92,9.42,1.77ZM141.98,700.74c-3.31.44-3.51,5.03-.13,5.78,6.74,1.51,4.74-6.39.13-5.78Z"/>
  <path d="M525.8,577.35c-3.8-5.76,7.55-11.33,10.05-3.73-.42,6.4-5.85,10.1-10.05,3.73ZM528.25,573.28c-3.02,2.94,2.91,7.08,4.78,3.11,1.54-3.26-2.63-5.22-4.78-3.11Z"/>
  <path d="M66.36,518.06c6.76,10.67-10.95,13.02-8.3,2.21,1.07-1.68,6.74-3.59,8.3-2.21ZM62.43,519.98c-4.67.87-2.03,6.56,1.72,5.07,1.71-.68,2.21-5.8-1.72-5.07Z"/>
  <path d="M141.98,700.74c4.61-.61,6.62,7.29-.13,5.78-3.38-.76-3.18-5.35.13-5.78Z" fill="#fff"/>
  <path d="M528.25,573.28c2.16-2.1,6.32-.15,4.78,3.11-1.87,3.97-7.8-.17-4.78-3.11Z" fill="#fff"/>
  <path d="M62.43,519.98c3.93-.73,3.43,4.39,1.72,5.07-3.75,1.49-6.38-4.2-1.72-5.07Z" fill="#fff"/>
</svg>