<?xml version="1.0" encoding="UTF-8"?>
<svg id="Camada_1" xmlns="http://www.w3.org/2000/svg" version="1.1" viewBox="0 0 595.28 841.89">
  <!-- Generator: Adobe Illustrator 29.0.0, SVG Export Plug-In . SVG Version: 2.1.0 Build 186)  -->
  <path d="M.14,841.29V-.06h595v841.34H.14ZM590.54,3.89H4.08v833.46h586.45V3.89Z"/>
  <rect x=".14" y="841.29" width="595" height=".66" fill="#fff"/>
  <path d="M590.54,3.89v833.46H4.08V3.89h586.45ZM276.7,183.56c-36.41-33.65-103.45-41.15-149.18-25.05s-81.43,62.77-85.33,113.2v429.28s2.66,6.86,2.66,6.86c-9.65.75-12.61,15.49-13.14,23.35-1.13,16.71,2.8,28.54,21.33,29.92h487.89c10.29-.32,21.56-6.4,22.69-17.41,1.02-10.01-.09-26.75-7.57-33.91-1.54-1.47-3.24-1.96-4.99-2.96l2.69-7.83v-424.67c-5.48-69.19-58.4-120.92-128.53-123.9-48.1-2.05-92.86,10.95-120.24,52.13-2.11,3.18-3.98,6.66-5.04,10.34-1.53.34-1.05-.21-1.46-.84-3.72-5.73-7-12.04-11.4-17.5-2.65-3.29-7.28-8.14-10.37-11Z" fill="#fff"/>
  <path d="M276.7,183.56c3.09,2.85,7.72,7.71,10.37,11,4.4,5.46,7.69,11.77,11.4,17.5.41.63-.07,1.18,1.46.84,1.06-3.68,2.93-7.16,5.04-10.34,27.37-41.17,72.14-54.17,120.24-52.13,70.13,2.98,123.05,54.71,128.53,123.9v424.67s-2.69,7.83-2.69,7.83c1.76,1,3.46,1.49,4.99,2.96,7.48,7.16,8.59,23.9,7.57,33.91-1.13,11-12.4,17.09-22.69,17.41H53.04c-18.54-1.39-22.46-13.22-21.33-29.93.53-7.86,3.49-22.6,13.14-23.35l-2.66-6.86v-429.28c3.9-50.43,37.4-96.32,85.33-113.2s112.78-8.6,149.18,25.05ZM53.06,705.88h237.67l.03-415.77c-2.15-23.84,2.76-45.74-7.08-68.49-14.52-33.58-47.05-58.49-83.56-64.37-80-12.88-148.96,40.12-153.34,120.38v417.45c.1,4.9.36,9.93,6.27,10.81ZM295.99,705.88h244.9c1.94,0,6.16-2.39,6.47-4.71l.47-425.53c-2.6-64.46-54.26-116.14-118.67-119.96-66.73-3.96-133.29,26.47-133.14,100.9.31,149.76-.3,299.54-.03,449.3ZM282.42,198.22c-5.54-7.02-9.06-11.33-16.36-16.84-5.84-4.41-12.6-8.77-19.36-11.53,21.38,14.32,38.09,36.03,45.36,60.8l4.48-11.33c-4.11-6.63-7.66-13.65-12.4-19.89-.42-.56-1.36-.76-1.71-1.21ZM39.78,750.39c.62.81,4.88,3.65,6.04,4.14,3.17,1.34,6.52,1.4,9.85,1.99h483.29c8.72-1.2,15.68-1.55,18.39-11.19,2.51-8.9,1.4-35.42-12.48-34.87H51.73c-14.05,1.2-15.59,18.09-14.8,29.3.19,2.7,1.26,8.56,2.85,10.63Z"/>
  <path d="M295.99,705.88c-.27-149.75.35-299.53.03-449.3-.16-74.42,66.41-104.86,133.14-100.9,64.41,3.82,116.07,55.49,118.67,119.96l-.47,425.53c-.31,2.32-4.53,4.71-6.47,4.71h-244.9ZM326.24,220.13c1.24-3.41,12.48-4.45,5.72-8.41-11.61.61-15.09,22.2-2.76,22.23s10.36-18.84-2.96-13.82ZM356.48,215.21c-.23,5.79.17,11.63,0,17.42l3.25.64c-.1-.6.69-1.39.69-1.63v-11.5c.94,1.38,3.17,3.34,3.95,4.45,2.21,3.14,4.77,12.25,9.2,7.05v-19.39c-1.59-.3-2.84-1.35-3.94.33v12.82c-2.43-2.05-3.53-6.33-5.25-8.71-.31-.43-3.98-4.31-4.25-4.47-3.63-2.16-3.56.6-3.65,2.99ZM389.35,212.26c-2.97.75-7.55-1.07-9.58,1.26-1.61,1.85-1.39,3.07,1.18,3.16,3.87.14,8.78,1.08,8.4-4.42ZM389.83,219.01c-3.06-2.52-13.14-1.71-12.26,3.7,3.55,1.58,5.79-2.94,9.8-.59-1.31,1.74-4.61,1.35-6.7,2.16-6.34,2.49-3.81,9.64,1.76,9.69,1.65.01,3.05-1.08,4.66-1.31,1.38-.2,2.93,1.48,4.28-.31,1.54-2.03.73-11.47-1.55-13.35ZM409.38,221.82c-6.61-9.14-19.13-1.89-14.61,7.7,4.53,9.63,21.11,1.28,14.61-7.7ZM344.65,228.03c-1.48.06-3.22-.32-4.6.33-4.91,2.32,5.95,9.48,4.6-.33ZM414.34,241.5v19.06c7.75,4.48.19-11.13,8.19-10.86,5.4.53-1.33,15.55,6.27,10.86v-11.17c0-.15-1.52-2.1-1.8-2.32-3.03-2.27-5.51-.66-8.71.01.17-3.4.66-8.97-3.95-5.58ZM374.23,250.7v9.86c1.13,1.47,3.47,1.47,4.6,0v-11.17c0-1.74-3.36-3.42-5.01-3.58-3.52-.33-4,1.65-5.3,1.86-1.04.17-1.68-1.65-3.2-1.91-2.49-.43-5.72,2.04-8.85.67v14.13l1.64,1.01c3.96,0,1.27-8.67,3.05-11.1l4.22.52c1.63,2.3-2.49,13.94,4.26,9.46.21-3.66-1.7-13.11,4.58-9.75ZM395.93,260.56v-10.52c0-2.65-5.27-4.33-7.56-4.32-3.28.01-8.4,2.46-5.23,5.96l7.24-1.75.95,1.75c-4.89-1.13-12.72,2.48-9.13,8.15,1.93,3.05,6.64,1.26,9.39,1.12,1.36-.07,3.11,1.61,4.35-.39ZM398.97,256.52c.6,1.14.59,2.31,1.53,3.41,4.17,4.84,14.78.68,11.93-2.69-2.59-3.07-4.35,2.01-7.52.93-1.97-.67-2.46-5.92-1.1-7.47,3.47-2.93,6.74,3.93,8.6-.67-.33-3.71-4.93-4.75-8.11-4.11s-7.51,5.94-6.8,9.11c.24,1.07,1.31,1.18,1.47,1.5ZM436.69,257.61v-9.53c0-.3-1.2-2.08-1.71-2.2l-3.46,1.64c-.33,5.21-1.27,14.51,6.23,14.68,1.66.04,2.55-1.17,3.84-1.21,1.55-.05,3.59,1.67,4.97-.41v-13.15c0-1.28-3.13-2.22-4.28-.33-1.62,2.67,2.31,12.9-5.58,10.52ZM460.35,260.89c-.25,3.28-.47,9.19,3.85,5.49.38-6.51,1.25-12.87-.19-19.33-2.36-.41-6.06-.76-8.61-.66-3,.12-5.57.99-6.19,4.35-1.53,8.31,2.83,12.81,11.14,10.16ZM482.71,259.91c.47-2.89,0-7.96,0-11.17,0-1.8-3.45-3.37-4.97-1.68-1.05,1.49,1.28,12.04-3.81,11.11-4.22-.77,1.58-15.55-5.68-10.74v11.17c0,.24,1.25,2.01,1.62,2.32,3.21,2.59,7.78-.79,11.73.68.4-.09,1.06-1.36,1.11-1.68ZM489.29,255.63h9.86c2.92-13.63-17.67-11.99-14.15,1.33,1.74,6.58,12.62,6.57,13.88,2s-7.78.84-9.59-1.38v-1.95ZM374.67,268.88c-2.24.77-2.01,4.34,1.19,4.56,4.93.33,3.82-6.29-1.19-4.56ZM443.73,268.85l-4.39,4.2,1.32,1.34c2.3,1.06,8.69-3.5,4.13-5.55h-1.05ZM367.06,290.41l2.57-.26c2.25-1.17,2.24-12.09-1.06-14.05-4.29-2.55-6.38.48-8.46.33-1.22-.09-3.08-2.82-4.28,1.25,1.48,2.66-.2,10.5.95,12.18.65.95,2.7.95,3.35,0,1.5-2.18-1.98-10.82,3.92-11.13s.95,10.38,3.02,11.69ZM395.93,290.47v-11.5c0-1.71-4.01-4-5.69-4.08s-3.61,1.6-4.49,1.53c-.62-.05-1.25-1.3-2.5-1-.43.1-1.78,1.41-1.78,1.58v12.49c6.23,4.09,2.69-5.66,4.81-8.67.24-.35,2.96-2.19,3.41-2.2.68-.08,2.3,1.39,2.3,1.67v10.19h3.94ZM378.83,288.83c.58-3.44-.42-8.21,0-11.83-1.05-1.46-2.4-2.03-4.17-1.56l-1.09.9v12.49c1.04,1.53,2.72,2.06,4.5,1.54.1-.52.7-1.19.76-1.54ZM410.39,291.12c-4.32,3.22-5.1,1.53-9.46.04-2.75,1.91.27,5.19,2.7,5.74,4.42,1.01,9.88-.48,10.67-5.49.33-2.12.33-13.95-.56-15.13-.4-.53-.97-.89-1.65-.87-3.34,1.22-5.9-.99-9.41.44-1.9.77-5.28,5.62-4.74,7.57.12.45.94.5,1.03.71,2.54,6.31,3.82,7.18,11.1,5.67l.33,1.31ZM422.23,276.67c-.88-.35-4.6-2.34-4.6-.33v11.83c0,.38,2.68,2.76,3.63,2.94,3.37.66,5.02-1.34,6.54-1.34.23,0,1.03,3.22,3.63.36v-13.8l-1.64-1.01c-4.34,0-.38,9.76-4.27,12.21-1.29.81-3.29-.74-3.29-1.34v-9.53ZM439.32,285.21h9.53c2.63-2.79.33-8.36-2.99-9.5-12.57-4.3-14.9,14.21-4.92,15.43,2.13.26,7.44.2,8.15-2.41,1.43-5.3-9.75,2.53-9.77-3.51ZM451.81,277c-.54,1.89,0,9.18,0,11.83,0,2.33,3.68,2.6,5.11.84.63-2.4-1.12-10.03,2.46-10.41l2.29,1.02v10.19l3.86-.09c.51-2.43-.88-9.4,1.39-10.76l3.79.64c-.72,2.57-1.49,10.07,1.92,10.73l2.2-.52v-12.16c0-.15-1.62-2.25-1.77-2.34-4.11-2.46-7.4,1.16-8.42,1.17-.39,0-1.81-1.55-3.34-1.77-1.92-.28-3.06.48-4.62.58-1.3.09-4.16-1.44-4.86,1.05ZM482.61,285.97h-4.4c-3.39,5.22,4.76,7.16,5.17,2.84l-.76-2.84ZM392.42,315.52c-2.55.84-1.88,6.12,1.73,5.09,3.25-.92,1.69-6.21-1.73-5.09ZM425.51,326.29c.71,2.19-.52,7.85,0,10.52,7,4.06,2.73-7.83,4.63-11.47l3.92-.03v-3.29s-3.95,0-3.95,0c-.67-4.71,2.23-2.09,3.31-2.9l.64-3.67c-5.12-.61-8.84.78-8.66,6.47l-2.52,1.1c-.65,2.09,2.36,2.47,2.63,3.28ZM439.88,316.21c-1.3-2.04-6.48.38-3.9,3.57s5.46-1.13,3.9-3.57ZM337.09,316.11c-2.93-.83-9.42.61-12.82,0v3.94h9.2c-1.05,3.59-2.49,7.22-4.01,10.64-.5,1.13-3.99,4.45-1.9,6.12,1.51.79,3.01,1.14,4.25-.35.6-.73,6.73-16.63,6.83-17.57.1-1.03-.64-2.53-1.54-2.79ZM366.18,330.07c2.72,3.09-2.3,4.34-5.29,3.64-2.33-.55-3.47-4.09-5.77-1.53l-.32,1.67c4.38,6.34,18.14,5.31,16-4.12-1.1-4.86-10.72-5.93-11.04-7.39,1.76-6.38,9.81,2.56,10.55-1.98.82-5.1-10.83-5.56-13.64-2.1-1.28,1.58-1.19,5.58-.12,7.3,1.82,2.93,8.45,3.16,9.63,4.51ZM460.36,317.09v19.72c5.82,3.8,3.93-4.86,4.01-7.82.08-3.21,2.17-16.25-4.01-11.9ZM388.7,331.22c1.25-15.05-19.74-11.51-14.65,3.14,3.83,4.06,10.22,4.88,14.19.63l-.27-2.38-7.45,1.25-2.34-2.64h10.52ZM413.02,336.15c.46-1.64,0-7.58,0-9.86,0-3.98-11.07-7.21-13.49-2.31-1.25,7.46,5.5-1.02,8.22,2.31-4.5,1.74-9.64,2.24-10.29,7.94,2.72,2.73,3.76,3.9,7.97,3.53,1.01-.09,2.06-1.08,2.65-1.04s4.05,2.6,4.95-.57ZM457.65,331.15c.78-4.32-.14-6.65-3.92-8.74-7.12-3.94-14.83,5.52-10.39,12.36,3.63,5.59,15.53,2.49,14.39-1.23-1-3.26-9.07,3.29-10.51-1.64l10.45-.74ZM395.27,322.02c-1.28.02-3.35-.44-3.85,1.08-.81,2.47.55,16.74-.09,17.33l-2.85.1c-4.87,5.4,6.79,4.52,6.79,1.55v-20.05ZM439.98,337.14v-14.13c-6.41-5.24-4.98,12.11-3.63,14.15.88,1.33,2.44.09,3.63-.01ZM339.15,332.63c-2.02.68-1.43,4.8,1.26,5.18,5.04.72,4.51-7.12-1.26-5.18ZM470.02,332.61c-2.54.63-2.99,6.48,1.71,5.07,3.6-1.08.68-5.66-1.71-5.07ZM326.7,363.57c-3.59.82-4.29,4.2-3.72,7.39.18,1.03,1.28,1.86,1.29,2.67.03,1.8-5.28,4.16-1.33,9.2,4.79,6.12,17.55,2.06,14.84-6.29-.42-1.28-2.15-2.35-2.27-3.01-.16-.87,1.52-2.09,1.79-3.34,1.25-5.71-6.12-7.63-10.6-6.61ZM361.08,382.82c.62-2.95-.45-7.66,0-10.85l9.67,13.04,2.21-.17c.64-.46.56-1.3.64-1.99.33-2.68.94-14.11.58-16.42-.44-2.79-2.41-4.25-4.56-2.01v11.5l-8.75-11.64-3.59-.05c-1.24,1.31-1.26,18.57-.21,19.96,1.44,1.91,3.6.53,4-1.37ZM379.49,368.03c2.49-.45,10.72,1.11,10.5-2.96-.08-1.51-7.41-.47-8.72-.87-1.68.64-1.97,2.16-1.78,3.83ZM387.38,374.6c-2.46,1.09-7.07.82-8.84,2.67-2.06,2.17-2.08,4.92.25,6.91,3.49,2.98,4.79.51,7.68.3,2.57-.19,4.93,2.23,5.54-2.28.43-3.19.23-9.11-2.67-11.2-3.45-2.48-10.17-1.76-11.82,2.61,2.79,3.06,6.86-2.9,9.85.99ZM420.91,370.66v19.06c0,.24,3.73,1.79,4.51.56l.09-5.81c8.21,3.78,14.95-3.81,10.65-11.64-2.58-4.69-6.32-2.6-9.83-2.32-1.69.14-3.46-.98-5.43.15ZM456.81,387.99c3.19,3.98,5.68,4.45,10.67,2.6,5.61-2.08,5.42-12.66,4.75-17.66-.6-4.47-2.91-2.19-4.97-2.39-1.8-.18-3.43-1.28-5.32-.65-11.32,3.21-6.06,18.32,4.99,14.58-1.44,7.34-6.89-.66-11.17,1.98-.51,1.65.71,1.13,1.05,1.54ZM409.35,374.36c-2.13-3.96-3.84-4.81-8.49-4.35-13.32,1.33-5.18,21.73,6.07,13.95,2.81-1.94,4.17-5.63,3.45-8.9-.11-.51-.93-.52-1.03-.71ZM443.26,379.21h9.53c5.55-11.25-13.72-13.19-13.77-1.64-.04,8.46,9.86,10.72,14.75,4.59-2.08-4.28-7.65,2.44-10.51-2.94ZM478.77,370.66l-2.88-.62c-2.53.76-1.15,11.29-.34,13.37,3.35,3.81,5.59,1.75,8.89,1.24,1.3-.2,3.07,1.41,4.19-.52v-13.15l-2.29-1.02c-3.91.41-1.3,9.27-3.06,11.77-.84.94-4.51-.97-4.51-1.22v-9.86ZM506.38,379.21c4.1-10.93-13.96-13.35-14.51-2.32s12.98,10.4,14.24,5.62l-.39-2.65c-3.36.52-7.66,4.25-9.2-.66h9.86ZM341.08,380.88c-.42.37-.87.66-1.35.94-1.81,2.87,5.64,6.01,5.64,1l-.37-1.67-3.25-1.3c-.4.01-.4.81-.67,1.04ZM462.99,397.61c3.6.02,14.29,1.17,8.88-4.44-2.06,2.39-3.38-.7-5.78-.06l-3.1,4.5ZM360.89,399.07c-7.5,1.71-6.91,18.57,5.47,15.32,8.24-2.16,6.91-18.14-5.47-15.32ZM398.11,411.89c-1.09-2.37.85-11.49-.83-12.69-4.37.53-10.62-1.93-13.5,2.38-4.94,7.41,1.83,16.12,10.16,11.81l.1,5.48,2.2,1.13c2.37-.23,1.21-2.39,1.68-3.5.36-.86,2.12-.59,1.26-3.97-.12-.48-1-.46-1.08-.63ZM410.23,409.93c-.78.67-3.19,1.07-4.11.19-2.19-2.1.1-8.39-1.61-10.9-3.98-2.95-5.12,11.06-1.03,14.17,3.8,2.88,7.09-.74,11.44.57.91-2.42,2.17-16.07-2.11-14.97-3.59,1.53-.4,9.06-2.58,10.94ZM432.36,403.27c-5.97-11.21-19.7.06-13.1,8.8,2.25,2.98,11.61,3.79,12.72-.44,1.26-4.8-7.56,1.78-9.09-2.52,3.45-2.84,12.16,1.95,10.49-5.12-.12-.53-.92-.53-1.02-.72ZM453.78,402.87v10.19c1.13,1.47,3.47,1.47,4.6,0v-10.52c0-5.37-11.01-3.11-14.46-2.96v13.8l3.99.38c1.97-1.42-2.05-13.76,5.87-10.9ZM470.88,404.18c-4.18,1.05-10.47.19-9.92,6.26s9.79,2.55,13.91,3.33c1.73-9.1,1.45-17.05-10.22-14.83-2.65.5-5.86,5.04-.67,4.65,2.32-.17,4.88-3.49,6.89.59ZM478.97,411.87c4.27,4.78,14.37,3.32,14.89-4.14.86-12.32-17.99-11.72-16.37.69.12.91.88,2.78,1.48,3.46ZM367.65,421.93c-3.12-.43-5.9,1.03-6.57,4.25,2.57,2.73,7.29-.99,6.57-4.25ZM360.43,437.05h9.53c5.09-10.21-12.58-13.31-13.51-2.99-.87,9.69,6.62,13.33,13.75,7.16l-1-2.8c-2.78-.88-7.08,5.24-8.78-1.37ZM393.29,432.44c.55-7.81-15.32-5.37-11.09,2.23,1.77,3.18,5.62,1.55,7.8,4.02-2.35,3.4-5.57-1.04-8.11-.27l-1.11,1.58c8.84,11.18,22.41-4.65,4.63-7.23,2.19-2.3,5.24.08,7.88-.34ZM401.19,437.05h9.86c2.97-10.69-15.49-13.81-15.17-.99.21,8.67,9.85,9.9,15.11,4.54-.82-6.45-9.31,4.12-9.8-3.55ZM423.64,428.61c-1.1,1.71,1.63,10.41-3.72,11.49l-2.19-1.52c-.72-2.08,1.23-10.76-2.4-10.77s-3.38,13.64.99,15.46c3.48,1.45,5.53-.71,6.89-.72.59,0,2.2,1.79,3.57,1.01,1.34-.84.52-12.72-.06-14.63-.46-1.51-2.67-.96-3.08-.33ZM435.28,438.46h-4.4c-3.39,5.22,4.76,7.16,5.17,2.84l-.76-2.84ZM332.81,481.75c-.71,3.5-4.3,4.31-7.22,4.93-1.86,1.32.17,3.65,2.28,3.66,7.99.05,13.23-12.69,8.58-19.14-5.25-7.28-17.16-1.34-14.02,6.78,1.93,4.99,5.89,3.64,10.37,3.77ZM369.63,469.59c-.75,2.68.55,8.42,0,11.5l-8.83-11.88-3.58-.53c-1.77,1.11.68,16.92.02,19.85l1.54,1.12c.67.05,2.3-1.38,2.3-1.67v-11.5l8.83,12.53c.79.72,2.2.95,3.05.33,1.12-.81.58-12.24.58-14.53,0-1.51.83-2.9.58-4.41-.53-3.17-3.9-2.95-4.49-.82ZM389.35,468.6l-7.41.11c-1.51.57-2.01,1.91-1.78,3.49l8.45.24.75-3.84ZM476.74,469.98c-.63-.39-2.32-.1-2.92.58-1.07,1.07-.65,3.33-1.11,3.86-.13.15-2.99.1-2.47,2.36.26,1.11,2.45.69,2.66,1.44-.39,5.94-.54,13.01,7.5,11.41.95-.19,2.53-1.16,2.31-2.27l-4.97-1.61-.32-6.9c5.76-.75,6.82-4.94.04-4.32.08-.89-.22-4.22-.72-4.54ZM387.38,479.11c-3.7.73-10.45,1.09-10.46,6.26-.02,5.62,7.14,3.82,10.14,3.61,1.46-.1,2.99,1.51,4.33-.27,1-1.33.78-7.25.45-9.1-1.62-8.9-15.57-5.71-14.3-1.49,2.76,3.09,6.86-2.9,9.85,1ZM407.54,476.05c-.4-.43-2.5-1.73-3.04-1.89-12.15-3.53-15.35,16.26-1.66,15.52,4.26-.23,8.15-4.95,7.59-8.95-.04-.27-2.67-4.44-2.89-4.68ZM434.65,479.05c1.23-1.93-1.71-4.13-3.4-4.68-9.7-3.16-15.39,9.32-7.58,14.13,6.09,3.75,13.99-1.3,10.42-3.83-2.07-1.47-3.26,1.2-4.45,1.57-6.16,1.92-6.33-10.17-.16-8.16.94.31,3.87,3.01,5.17.97ZM442.44,474.01c-9.36,1.61-8.01,16.68,1.76,16.23s10.77-18.39-1.76-16.23ZM464.3,479.44c.46,2.8-.33,6.59,0,9.53h4.6v-11.5c0-1.46-3.78-3.3-5.1-3.49-2.7-.4-6.12,1.52-9.27.62l-.09,13.38c.32,2.62,3.84,1.99,4.47-.13.82-2.77-1.33-8.85,1.92-9.92,1.64-.54,3.17-.34,3.47,1.51ZM496.29,476.06c-6.03-6.1-16.16.85-12.42,10.12,1.95,4.85,13.97,5.41,13.31-1.14-3.38-.38-5.86,2.95-9.21.33l.4-1.65,9.19-.6c.71-2.37.54-5.23-1.25-7.04ZM344.56,484.46c-3.43-2.17-8.59,4.54-2.15,5.16,4.28.41,3.01-4.62,2.15-5.16ZM433.23,497.03c-.82-.8-2.7-1.08-3.77-.52-1.21.77-1.83,2.34-1.01,3.65,2.02,2.13,3.87.77,5.53-1.07.12-.47-.38-1.7-.75-2.05ZM422.81,498.9h-4.45s-.18,3.78-.18,3.78c-7.22,2.45-.02,3.87.14,4.45-1,5.46.06,14.72,7.84,11.08,4.65-2.17-2.28-3.46-2.53-3.69-.81-.75-2.05-9.5,2.39-7.93,1.73-2.71-.34-3.99-3.11-3.84l-.1-3.85ZM374.89,517.9c6.78,3.72,5.49-12.11,2.61-14.12-4.44-3.1-7.6,1.06-8.74.87-3.3-.53-1.76-1.95-8.08-1.29-.72.08-4.2-.99-4.2,1.06v11.83c0,1.22,2.45,2.99,3.66,1.72,2.76-2.33-2.21-16.02,6.21-10.26v10.19c8.34,2.9-.54-15.6,8.55-10.19v10.19ZM386.07,511.98h9.53c2.96-4.11-.44-9.06-5.28-9.23-12.81-.43-10.1,20.19,2.3,15.46,1-.38,2.84-1.03,3.2-2.07,1.98-5.6-4.01-1.34-6.13-1.46-.81-.05-4.9-1.68-3.63-2.7ZM409.08,517.24l3.52,1.28,1.39-1.86c-.63-5.99,2.65-14.46-6.57-13.94-1.64.09-3.35,1.13-3.92,1.11-.68-.03-1.9-1.87-3.46-.23-1.27,2.23-2.06,16.82,2.46,14.66,3.16-1.52-1.36-15.43,6.59-10.55v9.53ZM433.4,503.44c-1.91-.52-3.66-1.37-4.94.66l.65,13.82c.42,1.34,4.29-.44,4.29-.68v-13.8ZM436.69,503.44v14.13c6.51,4.16,2.51-6.89,4.92-10.2,1.23-1.38,7.99-.21,4.49-4.62l-9.42.68ZM461.67,517.57c.5-1.71,0-8.71,0-11.17,0-4.58-13.98-5.11-13.79.03.12,3.23,4.79.38,6.86.26,1.38-.08,2.75-.47,2.33,1.34-4.15.35-12.53,2.58-9.24,8.26,3.59,6.19,8.48-.34,12.84,2.27.25-.33.92-.71,1.01-.99ZM469.57,506.73c1.59-.23,6.86,1.75,7.09-.98.35-4.23-13.69-4.64-12.23,2.46.85,4.13,8.03,4.05,8.43,5.42.36,1.21-1.55,1.59-2.21,1.47-1.69-.29-3.59-2.89-6.34-1.81-1.29,8.24,14.07,7.17,12.88-.04-.63-3.83-3.64-3.7-6.31-4.92-1-.45-1.62.08-1.3-1.62ZM478.98,514.81c-.49.56-.82,1.26-.8,2.02l3.05,2.28,3.38-2.34-2.37-3.41c-.89-.21-2.71.81-3.26,1.45ZM319.01,544.85c-4.58-2.3-16.05,6.06-5.56,4.76l.96.83v15.45l4.6-.99v-20.05ZM327.36,544.33c-6.96,1.6-7.95,17.96-.47,21.21,14.49,6.3,16.69-24.93.47-21.21ZM361.08,564.24c.53-3.16-.39-7.53,0-10.85,4.79,2.23,6.81,15.13,12.49,11.5v-20.05c-1.59-.3-2.84-1.35-3.94.33v12.16c-2.24-1.95-7.61-12.92-10.22-13.18-2.08-.01-2.71,1.06-2.96,2.96-.46,3.44-.34,12.89.1,16.41.34,2.72,1.11,2.73,3.76,2.24.13-.5.71-1.17.77-1.53ZM468.25,545.17v19.72c5.74,3.86,3.47-4.62,3.99-7.85.74-4.62,5.22-3.42,5.22-2.01v9.86l2.94,1.01c3.61-.59,2.61-10.32,1.13-12.98-1.83-3.29-6.28-3.31-9.33-1.51.05-3.42.67-9.87-3.95-6.24ZM390.01,544.85c-4.38,1.5-10.42-2.38-9.85,4.59,4.25-1.11,10.02,2.11,9.85-4.59ZM426.86,550.08l-.34-3.94c-3.9-2.39-3.13,2.76-3.95,3.98s-6.66,1.26.35,4.33c-.2,6.48-1.41,12.84,7.43,11.33l1.08-3.19-3.85-.1-.1-8.13,3.21-1.06.12-2.13-3.94-1.1ZM391.25,565.8c1.14-3.02,1.36-11.39-.91-13.72-2.9-2.97-13.52-2.05-12.71,2.2s4.94-.55,6.21-.71c.47-.06,4.91.4,3.54,1.78-1.49,1.5-13.47.34-9.24,8.93,1.98,3.31,9.64.39,13.11,1.52ZM409.37,555.09c-5.43-10.81-19.02-2.34-14.61,7.03,2.43,5.16,9.74,5.1,13.37,1.17,1.77-1.92,2.82-4.87,2.23-7.45-.1-.46-.88-.52-.99-.75ZM446.38,552.24c-.66-.7-4.96-2.15-6.08-2.15-5.01,0-7.98,4.76-8.27,8.9,1.67,1.71,2.17,5.09,4.28,6.26,2.8,1.56,9.77,1.25,10.92-2.34-1.89-4.64-7.11,2.62-9.88-1.98-.28-1.49.65-.91,1.63-.98,3.06-.22,8.85,1.4,8.93-2.93.01-.89-.97-4.2-1.52-4.79ZM464.3,564.89v-11.17c0-1.44-3.58-3.47-4.99-3.6-2.06-.2-3.31,1.09-4.66,1.15-.48.02-4.81-1.89-4.81.48v12.49c0,.24.67,1.07.77,1.54l3.18.11c.24-4.29-1.44-12.52,4.94-11.9,4,.39-1.64,15.84,5.58,10.91ZM498.44,565.83c2.99-10.45-2.25-20.83-13.6-12.96l-.06,2.4c3.47,2.07,5.3-2.33,9.11-1.22v1.97c-5.07-1.23-13.79,4.26-7.94,8.93,4.15,3.31,7.97-.55,12.49.89ZM340.47,561.37c-2.18.74-1.4,5.11,1.88,5.11,4.87,0,3.36-6.88-1.88-5.11ZM358.9,572.56c-2.73.22-3.41,4.37-1.35,5.07,4.91,1.65,4.22-5.31,1.35-5.07ZM414.15,573.23c-2.03.61-2.43,3.19-.46,4.16,4.25,2.11,6.03-5.84.46-4.16ZM378.83,594.14v-10.85c0-.24-1.53-2.37-1.92-2.68-4.12-3.27-7.38.5-11.83-.88-.89.61-.94,10.51-.75,12.15.22,1.91,1.8,3.66,3.67,2.28.95-2.79-.91-9.32,2.28-10.86,6.5-3.13,2.7,8.61,4.24,10.87l4.31-.03ZM409.35,582.7c-1.35-1.76-2.21-3.25-4.72-3.55-12.4-1.48-11.94,16.64-1.2,16.27,1.86-.06,8.24-3.23,6.92-5.17-3.5-2.19-6.68,2.66-9.82-.38-.32-1.59,1.28-.94,2.29-.98,4.75-.18,11.69.54,6.53-6.18ZM433.23,581.16c-2.91-3.05-12.97-1.98-13,1.47s5.13.42,6.89.3c1.36-.1,2.78-.44,2.34,1.35-3.67.01-12.79,3.38-9.24,8.27.62.85,4.02,2.67,5.13,2.78,2.23.22,3.64-1.58,4.46-1.6,1.08-.03,2.18,1.99,3.98.48,1.71-1.42.16-10.69-.55-13.05ZM361.08,592.5c.48-3.62-.35-8.1,0-11.83l-4.02-.6c-.9,1.24-2.36,17.28,3.3,14.66-.11-.82.65-1.71.72-2.23ZM384.01,579.77c-8.52-1.33.9,10.36,1.06,14.38,2.75,1.63,4.6.75,5.93-1.98.81-1.66,3.62-9.93,3.33-11.19-.12-.51-.26-1.18-.82-1.32l-2.77.1-3.34,8.46-3.39-8.45ZM413.02,580.67v16.76c-1.16-.29-4.99.64-4.6,2.29,1.49,1.91,5.53,2.26,7.45,1.05,2.36-1.49.21-15.89,1.59-19.3-.12-2.6-2.99-2.35-4.44-.8ZM439.13,589.63c-3.05.86-1.68,6.03,1.69,5.07,3.12-.89,1.91-6.08-1.69-5.07Z" fill="#fff"/>
  <path d="M53.06,705.88c-5.91-.88-6.17-5.91-6.26-10.81v-417.45c4.37-80.26,73.33-133.26,153.33-120.38,36.52,5.88,69.04,30.8,83.56,64.37,9.84,22.75,4.93,44.65,7.08,68.49l-.03,415.77H53.06ZM143.74,215.94c-1.26-1.9-3.08-5.88-6.04-2.87-.86.88-3.34,9.15-4.15,11.15-.23.57-1.15.61-1.45,1.34-1.09,2.6-3.82,11.16,2.18,8.07,1.53-.79,1-2.78,1.62-3.64.93-1.31,6.67-.47,8.47-.56l3.39,4.55,1.99-.66c.63-1.35.34-2.65-.02-4-.86-3.25-4.21-10.7-5.99-13.39ZM225.83,217.3c3.07,1,4.98-1.33,5.74-4.04-2.83-3.05-4.79,1.44-7.23,2.3-.15.16,1.38,1.71,1.49,1.75ZM104.02,217.51v15.45c0,.28,1.62,1.74,2.3,1.66.68.08,2.3-1.38,2.3-1.66v-18.4c-1.31-3.51-9.87-.2-9.89,1.96.09,3.16,5.08.75,5.29,1ZM152.67,219.81c-.83,2.64.61,9.31,0,12.49,8.84,7.18.47-13.01,9.28-9.8,2.13,2.96-2.21,13.1,3.92,11.16l1.43-10.72c1.09-.86,3.95-1.42,4.39.24l.14,10c6.09,3.54,5-8.86,3.67-11.88-2.94-6.66-8.97-1.03-10.56-1.27-.79-.12-1.79-1.69-3.46-1.87-2.07-.21-2.91,1.08-4,1.18-.87.08-4-2.13-4.82.46ZM184.39,229.86c-.6-.46-1.06-2.16.21-2.41,2.91.17,11.14,1.75,9.87-3.37-1.15-4.65-5.8-6.7-10.29-5.63-2.97.71-3.29,2.19-4.58,4.48-.22.4-1.03.47-1.1.65-1.34,3.16,1.84,9.07,5.04,10.06,3.03.94,11.08.35,9.59-4.32-1.12-1.79-6.59,2.16-8.73.53ZM209.87,222.12l6.17,1.28.95-2.81c-2.33-4.57-13.51-2.62-12.12,2.86,1.43,3.55,4.12,3.63,6.96,4.93,1,.45,1.62-.08,1.3,1.62-1.86.8-9.67-3.66-8.45.88s15.58,4.91,12.76-3.54c-.88-2.63-4.14-2.61-6.29-3.6-.99-.46-1.62.1-1.31-1.61ZM226.82,218.3c-11.12.82-10.33,18.63,3.61,15.5,7.48-1.68,6.52-16.25-3.61-15.5ZM117.65,233.77c1.83-1.84.47-4.38-2.06-4.41-5.13-.07-1.38,7.86,2.06,4.41ZM159.57,242.49l-.99.99v18.4c1.66,2.35,6.8,1.95,9.47,1.59,8.15-1.12,11.55-10.16,6.97-16.71-.56-.8-4.26-4.27-4.94-4.27h-10.52ZM146.09,262.54v-11.17c-3.7-3.98-8.92-4.93-13.39-1.56-2.67,2.01-.32,3.69,2.5,3.18,1.03-.18,5.17-3.1,5.63-.32-4.86,2.04-11.25,1.37-8.86,8.88,3.07,3.29,6.22,1.57,9.78,1.39,1.36-.07,3.11,1.61,4.35-.39ZM184.22,257.61c19.12,3.25,8.02-14.16-1.77-8.68-2.05,1.15-4.72,5.89-4.11,8.21.13.49.99.5,1.23.99,1.22,2.56,1.49,4.76,5.03,5.36s9.66.11,8.84-4.56c-1.4-1.41-9.99,4.05-9.21-1.32ZM224.61,250.11c-5.01-5.26-14.45-.55-11.79,4.2.99,1.77,9.54,3.57,8.22,5.26-1.48,1.87-5.56-1.92-7.46-1.25-1.33.42-1.39,2.25-.79,3.27,11.59,6.56,20.8-5.23,4.97-8.59,2.02-3.06,4.65,1.72,7.88-1.32.58-1.52-.53-1.04-1.03-1.57ZM210.52,262.54c.86-2.93-.63-9.71,0-13.15-5.65-3.74-3.38,3.9-4.09,7.09-.61,2.8-3.86,4.54-5.68,2.02-1.02-3.11,2.26-12.49-3.73-9.45-2.01,1.84-1.1,12.15,1.4,13.75,3.83,2.46,7.59-1.42,11.1.72.25-.33.92-.71,1-.99ZM233.44,262.78c2.31-3.64-5.2-7.22-4.89-1.55.16,2.89,4.2,2.64,4.89,1.55ZM102.7,307.56c-.34-1.29.54-1.27,1.1-1.85,2.07-2.1,7.68-6.32,7.95-9.15.72-7.56-16.09-8.82-15.58-.59,3.84,5.07,6.26-4.77,9.65-1.38,3.79,3.79-9.11,9.89-9.67,13.36-.27,1.7-.32,3.21,1.62,3.57,2.34.43,10.78.67,12.8-.36,1.76-.9,2.06-3.16-.31-3.58-1.42-.26-7.19.31-7.55,0ZM136.89,309.86c.5-3.22-.37-7.49,0-10.85,3.96,2.54,7.61,16.47,13.15,10.85v-17.75l-3.89-1.58-.39,11.78c-4.27-.73-6.95-12.05-11.11-11.84-.75.04-2.32.68-2.7,1.31-.47.79-.63,16.75-.21,17.97s2.29,1.67,3.52,1.81c.87.29,1.56-1.22,1.63-1.7ZM213.35,308.68c3.64,4.66,9.2,1.7,13.84,2.75l.76-.56c1.33-1.38,1.34-14.94,1.01-17.47-.39-2.92-2.52-3.83-5-2.31l-.29,5.95c-7-4.37-15.43,5.08-10.31,11.64ZM165.16,291.13l-9.47.58c-1.89,6.33,2.8,2.66,3.76,2.81.5.08,1.06.95,1.62,1.08,2.25.52,4.79-2.17,4.1-4.47ZM209.87,310.52c.46-1.6,0-7.6,0-9.86,0-.47-1.04-1.99-1.3-2.65-2.62-3.01-10.21-2.82-12.44.8.61,6.76,7.62-3.08,9.14,2.83-11.28-1.92-13.95,11.39-1.67,9.84,1.76-.22,1.97-2.24,4.64.04.57.17,1.53-.64,1.64-1ZM238,295.87c-11.48.92-8.49,19.18,3.59,15.47,8.19-2.51,5.97-16.24-3.59-15.47ZM260.49,297.06c-3.04-2.22-3.89-.45-6.32-.21-1.28.12-3.54-1.29-4.56.16l.02,12.22c-.06,2.04,2.89,3.26,4,1.65s-.79-7.73,1.57-10.26c.78-.84,6.61-1.97,5.3-3.56ZM153.53,303.81c-3.08,3.82.71,8.45,5.3,8.15,1.43-.1,3.13-1.55,4.04-1.53,1.1.03,2.75,2.29,3.93-.25.68-1.44.49-6.95.18-8.71-1.52-8.46-14.78-4.55-14.27-1.55.09.55,1.18,1.36,1.76,1.63,2.24.61,5.2-3.31,8.06-.9-2.16,2.14-7.18.89-9,3.15ZM174.2,296.55c-3.19.81-4.62,5.02-4.46,8.03.52,10.01,16.41,9.5,15.83-1.26-.32-5.98-6.08-8.1-11.37-6.76ZM265.09,305.59l9.25-.29c3.07-7.29-3.62-10.56-9.94-8.62-2.06.63-5.37,5.36-5.29,7.29.02.48,2.1,4.51,2.38,4.89,3.14,4.24,13.22,3.36,12.85-.96-.33-3.82-6.82.93-9.25-.34v-1.97ZM118.31,307.07c-2.19-2.23-6.52,1.4-3.5,3.84,2.66,2.15,5.81-1.48,3.5-3.84ZM150.03,325.31c-12.95-5.56-15.83,16.44-3.65,15.73,1.28-.07,2.37-1.01,3.48-1.14,1.53-.18,3.24,1.32,4.49-.1.56-.83.6-18.45.16-19.94-1.58-5.31-6.39,1.6-4.47,5.45ZM133.6,325.29c-.53.05-1.36.21-1.64.64-.69,1.04-.6,13.59.28,14.2.98.69,3.53.55,3.9-.8-.24-4.89,1.22-10.57-1.16-14.93l2.58-3.37c-.97-4.25-5.34-.37-6.49,1.98l2.52,2.27ZM180.11,319.56c-1.98-.92-3.92-1.15-4.42,1.5-.56,2.99-.32,13.06-.02,16.42.44,4.89,4.63,3.73,5.21-.05.35-2.31.37-16.87-.78-17.86ZM159.47,326.85c-8.14,8.52,6.36,19.94,12.16,10.51,5.79-9.42-6.05-16.91-12.16-10.51ZM188.65,324.8c-9.6,1.96-6.66,17.93,3.62,16.16,9.34-1.61,8.57-18.65-3.62-16.16ZM205.27,329.9c.96-3.06,7.28,1.43,7.26-2.3-.03-4.86-15.72-4.19-11.54,4.28.53,1.35,9.01,2.72,7.56,4.59s-6.01-2.63-7.91-1c-2.92,2,3.86,5.82,6.75,5.49,1.01-.12,3.92-1.32,4.5-2.13,2.58-5.71-1.56-8.25-6.63-8.93ZM217.57,335.26c-2.67.74-2.9,6.43,1.7,5.05,3.17-.95,1.86-6.03-1.7-5.05ZM221.61,366.15c-.53-.84-5.3-1.56-4.5,2.16,1.03,4.78,6.29.67,4.5-2.16ZM110.39,368.88c-3.27-4.08-14.61-4.53-13.61,2.44,3.2,1.01,6.32-3.24,9.2-.3.21,1.05-.31,1.61-.93,2.33-1.29,1.5-4.56,1.37-4.34,2.91.5,3.55,8.24,1.51,5.34,6.63-2.87,2.8-5.04-.49-7.11-.94-4.46-.98-3.82,4.61,2.27,5.65,7.67,1.31,15.55-5.77,7.41-11.35-.19-.75,4.92-3.43,1.77-7.36ZM131.63,367.7v18.4l4.6.99v-8.55c4.67-1.53,4.75,5.42,7.25,7.54,1.27,1.08,3,1.1,4.58,1.01.22-1.58-.13-2.77-.72-4.21-.81-1.97-2.52-3.47-3.88-4.98,6.2-.32,7.38-9.02,1.62-11.16-2.25-.84-12.7-1.56-13.46.97ZM230.94,371.95l-.32-3.96c-3.65-2.2-3.5.97-3.76,3.88l-3.11.84-.11,2.19,3.24,1.11c-.34,6.09-.28,14.17,7.98,10.76,2.98-3.18-3.43-3.03-3.87-3.7l-.09-7.15,3.33-.29c2.05-3.29-.47-3.57-3.3-3.69ZM154.64,381.18h9.53c2.41-2.27.23-7.45-2.58-8.6-8.24-3.35-14.03,4.23-10.38,11.69,2.81,5.73,13.71,3.84,13.33-.13-.41-4.3-9.03,3.05-9.91-2.97ZM179.59,373.34c-4.26-1.67-8.48-2.4-12.26.8-1.89,3.28,0,5.47,3.08,6.72,1.46.59,5,0,4.6,2.29-2.36,1.09-8.26-3.48-8.59.34,1.89,6.77,16.32,5.18,13.52-2.97l-8.2-4.28c2.49-2.44,7.56,3.02,7.84-2.91ZM182.25,372.96v18.4c0,1.96,2.94,2.27,4.32,1.03l.29-5.95c8.23,4.65,14.31-5.06,9.77-12.07-2.55-3.93-6.48-1.98-10.03-1.8-1.36.07-3.11-1.61-4.35.39ZM204.61,381.18h9.53c3.91-8.21-8.47-12.6-13.65-5.76-1.89,6.98.35,13.16,8.4,12.35,2.69-.27,6.25-2.29,5.58-5.27-3.77-.81-8.15,3.95-9.86-1.32ZM241.42,381.18c3.45-.52,11.07,1.98,10.52-3.55-.6-6.09-10.55-7.67-13.84-2.72-.75,1.12-.58,2.73-1.98,3.93-.84,2.29,2.75,7.57,4.82,8.41,3.18,1.29,11.96.22,9.71-4.45-2.69-1.79-9.33,4.03-9.23-1.62ZM217.1,373.62v12.49c0,.21,1.5,1.73,2.18,1.54l2.42-1.54v-12.49c-.77-1.47-4.18-1.37-4.6,0ZM118.31,382.66c-1.63-1.69-4.89-.2-4.45,2.76.72,4.85,8.02.94,4.45-2.76ZM173.05,415.03v-11.17c0-.15-1.55-2.16-1.79-2.33-4.01-2.74-7.69.82-11.96-.58-1.58,2.66,0,5.02,0,7.51,0,2.63-1.49,4.93.03,7.46l3.57-.52c1.29-1.81-1.99-15.82,6.09-9.46l-.26,9.44c.83,1.15,3.94.86,4.31-.34ZM145.24,403.06c-.17-.16-3.89-1.95-4.21-2.03-11.06-2.57-14.58,14.36-3.83,15.65,5.29.63,10.1-1.74,10.09-7.57,0-1.16-1.26-5.35-2.05-6.05ZM190.39,405.92c-2.51-4-4.65-6.26-9.94-4.51-9.11,3.01-4.96,18.3,5.78,14.97,2.36-.73,6.27-6.37,5.62-8.96-.28-1.14-1.25-1.16-1.46-1.49ZM216.44,416.02v-12.16c0-2.76-5.75-3.32-7.92-2.67-.84.25-1.8,1.49-2.27,1.5-.39,0-1.96-1.71-3.96-1.83-2.2-.14-3.44,1.12-3.93,1.12-.8,0-2.75-2.53-4.27-.09v13.15c6.91,5.16,1.61-11.19,6.78-10.74s-.13,11.05,4.33,12.07l1.97-.41c.54-3.88-1.48-9.93,3.13-11.67.54-.33,1.54.74,1.54.9v9.86c1.29,1.41,2.91,1.53,4.6.99ZM223.67,410.1h9.53c2.59-2.88-.02-7.94-3.6-8.89-12.64-3.34-13.27,14.42-4.31,15.47,3.53.41,10.56-.82,7.19-5.25-2.9.75-9.05,3.48-8.82-1.34ZM147.41,443.95c.6-3.69,0-10.36,0-14.46,0-.25-.81-4.75-.95-4.96-2.53-3.85-5.84,4.02-4.32,6.61-12.58-5.85-16.55,15.74-2.33,14.43,1.01-.09,2.02-1.06,2.65-1.03.98.05,4.36,3.01,4.95-.58ZM177.32,423.9l-.99.99v19.06c3.02,3.14,11.27,1.86,14.69-.44,5.18-3.48,5.8-14.1.78-17.66-.47-.33-4.37-1.95-4.62-1.95h-9.86ZM164.5,439.02c2.24-14.67-19.79-9.81-14.14,2.63,2.5,5.51,13.59,6.08,13.46-.64-2.62-.95-4.56,1.14-7.51.63-2.11-.36-2.81-2.62-1.35-2.62h9.53ZM211.68,438.85c1.68-1.65-.32-6.37-2.23-7.63-6.76-4.45-14.31,1.57-11.78,9.8,1.68,5.47,13.94,7.13,13.51-.03-4.04-.08-6.76,2.79-9.86-1.31,2.51-1.3,8.97.53,10.36-.83ZM229.59,443.95c.56-1.97,0-9.72,0-12.49,0-1.66-4.16-1.4-5.15-.22-.54,2.34.81,8.76-1.42,10.08-1.17.58-3.37.73-3.86-.76l-.43-9.43c-.93-1.58-2.08-1.32-3.52-.56.11,4.06-1.83,9.74.65,13.29,2.1,3.01,5.88,1.32,8.72,1.13,1.1-.07,4.25,1.59,5-1.05ZM236.17,433.77c2.16-1.16,6.38,2.84,7.18.25,1.97-6.39-16.16-5.62-11.05,3.3l7.81,3.35c-3.21,3.73-5.04-.66-8.53-.33-1.67,6.81,10.91,6.99,12.36,2.15,1.53-5.09-2.94-5.87-6.32-7.25-.98-.4-1.78.39-1.44-1.48ZM246.79,441.09l-.67,2.72c.52,2.18,4.47,2.52,5.5.47l-.31-3-4.53-.19ZM109.38,482.3c-.99-3.41,2.31-13.02-3.58-12.28-1.9.24-5,5.66-6.41,7.45-1.62,2.05-5.63,4.34-5.19,7.8.67,2.07,8.44.65,10.47,1.07-2.4,3.1,2.43,7.09,4.28,3.95.72-1.22-.03-3.35.42-3.86.73-.85,7.15-1.44,0-4.13ZM150.04,488.65v-9.53l-8.56.31c-2.07,3.12,1.99,4.11,4.62,3.63.66,4.45-2.23,5.35-6.11,4.45-5.76-1.33-5.12-13.62,1.82-13.68,2.65-.02,4.41,2.43,7.15,2.04,2.32-2.28-1.24-5.07-3.5-5.65-7.89-2.04-14.54,2.32-14.54,10.54,0,4.67,1.65,7.93,5.97,9.87,4.08,1.83,10.06,1.49,13.16-1.98ZM215.13,489.96c.9-5.54-.67-13.26,0-19.06l-4.6-.99v6.57c-13.66-5.18-17.13,16.32-2.99,15.09,1.01-.09,2.02-1.06,2.65-1.03.99.05,4.36,3.01,4.95-.58ZM168.45,477.14l-4.31-.03c-1.35,1.99,1.78,14.48-5.46,9.47l-1.36-10.47c-4.86-3.57-5.33,10.51-2.38,13.55,3.88,3.98,8.85-.12,13.5,1.29v-13.8ZM184.88,490.95v-10.85c0-5.58-12.6-5.62-13.71-1.85-1.64,5.59,4.98,1.02,6.12.94.5-.03,4.39.71,2.99,1.89-4.51-.21-12.75,3.09-8.86,8.53,2.77,3.88,6.53,1.05,9.46.98,1.1-.03,2.18,1.51,4,.35ZM188.27,490.85l4.22-.52c.82-5.81-1.55-10.29,5.54-12.21l-.63-1.98c-2.18.07-8.64-.88-9.55,1-.7,1.45-.57,13.08.42,13.7ZM232.15,484.96c1.79-13.43-17.62-12.65-14.25,2.23,1.45,6.4,14.29,5.84,13.69.18-3.05-2-8.75,3.25-9.88-2.34l10.44-.08ZM114.63,491.51c2.9,1.83,7.5-3.71,2.72-5.07-3.71-1.05-4.15,4.17-2.72,5.07ZM173.61,498.93l-3.55-.13-.3,6.6c-8.49-3.26-15.28,5.06-10.16,12.46,2.73,3.95,6.09,2.48,9.91,2.08,1.63-.17,3.38,1.31,4.51-1.41,1.74-4.18-.52-14.78-.41-19.6ZM176.43,502.68c2.97,1.71,6.06.28,4.88-3.24l-4.98-.61.1,3.85ZM225.65,499.49l-4.6-.66v7.23c-7.32-4.33-14.6,3.07-11.03,10.69,2.57,5.49,10.76,3.43,15.63,3.11v-20.38ZM133.85,518.95c11.02,7.3,20.01-9.89,7.45-13.69-8.85-2.68-14.58,8.97-7.45,13.69ZM181.6,518.88v-12.49c-8.32-6.33-4.04,9.17-4.31,13.51,1.52,1.44,3.25.43,4.31-1.02ZM193.43,510c-4.61-.39-12.53,3.2-8.27,8.6,3.23,4.1,8.71.3,12.91.99,1.77-7.6,1.18-16.03-8.85-14.79-4.34.54-6.94,4.88-2.66,5.24,1.19.1,6.84-3.62,6.86-.04ZM234.03,504.9c-8.29,1.3-7.3,13.65-1.84,15.33,14.35,4.4,15.44-17.46,1.84-15.33ZM136.24,532.37c3.42-2.74,8.23,3.2,10.2,0,3.3-5.34-13.06-6.27-14.7-1.55-3.43,9.81,11.43,7.08,10.42,14.69-4.63,2.21-12.21-7.56-10.86,1.33,5.37,5.47,20.92,2.62,15.39-6.85-1.62-2.77-12.48-4.62-10.45-7.62ZM198.69,548.46v-11.17c0-3.01-7.58-4.78-9.86-2.3,1.05-2.59-1.01-10.26-4.01-6.3-1,1.32-.98,18.58,0,19.83,6.32,3.78,2.93-5.37,4.49-8.78.76-1.65,2.67-2.22,4.36-2.18,2.77,2.87-.58,7.88.74,10.57.78,1.58,3.25,1.92,4.27.33ZM153.99,543.53c3.96-.43,11.24,1.92,10.49-4.22-1.31-10.69-20.87-5.23-13.68,7.07,3.17,5.43,13.49,3.97,13.1-.54l-1.1-1.62c-1.49-.43-7.87,4.32-8.8-.68ZM181.6,548.46v-11.17c0-1.73-3.36-3.43-5.01-3.58-2.61-.23-3.35,1.03-4.63,1.14-1.56.13-3.36-2.5-5.48.47v11.83c0,1.75,3.89,3.25,4.97,1.68l1.26-10.56c.99-1.04,3.05-1.05,3.53.44.46,4.2-1.8,13.8,5.36,9.76ZM202.33,545.8c5.64,8.24,16.72,3.86,14.61-6.39-2.29-11.1-21.51-3.69-14.61,6.39ZM230.22,536.93c.47-5.48-3.22-2.41-5.83-2.25-1.34.08-2.47-1.48-3.85-.2-1.69,2.53-.18,5.34-.11,8.05.06,2.15-1.93,7.95,1.99,7.24,2.69-.48,1.03-8.42,2.04-10.72l5.75-2.13ZM234.09,544.95c-4.2-2.62-6.74,4.69-2.21,4.88,3.48.15,3.59-4.02,2.21-4.88ZM110.26,574.42h-12.82l-1.03,12.53c4.08,2.76,8.91-5.75,10.83,1.6-1.83,8.94-11.53-3.01-11.51,4.32,5.73,6.13,18.19,3.14,16.15-6.94-.65-3.2-7.59-5.67-10.5-3.63l1.07-4.51c3-.42,6.52.85,8.78-1.74l-.98-1.64ZM143.73,579.44c-1.39-2.68-1.14-5.79-5.18-5.03-2.52.48-3.65,7.25-4.76,9.71-.34.75-1.2.8-1.44,1.35-1.58,3.69-5.83,11.59,1.83,9.9l1.84-4.54c5.07-.09,8.04-1,10.06,4.33l1.63.33c1.96-.56,2.4-1.23,1.91-3.16-.58-2.28-3.75-9.81-4.88-12.14-.25-.51-.93-.59-1.01-.75ZM170.42,584.61v9.86c4.34,4.18,4.76-4.98,4.61-7.86-.25-4.92-2.6-6.99-7.6-6.31-1.45.2-2.42,1.3-3.26,1.33-1.69.06-4.05-.92-7.96-.69-1.59.09-3.06-1.46-4.2.39v13.15c1.14,1.64,2.96.93,4.51.23.47-2.23-1.08-11.1,2.39-11.11,5.21-.02-1.1,13.93,5.65,11.58,1.65-1.17-1.47-15.16,5.87-10.56ZM191.25,582.52c-5.9-6.38-19.21.9-13.22,9.61,3.41,4.95,13.46,5.64,14.09-1.26-3.12-1.68-7.94,3.2-9.87-.99-.02-.91,7.95.37,9.6-.93,1.78-1.4.66-5.08-.59-6.43ZM207.24,589.54h9.53l.88-1.09c.73-5.33-1.41-8.01-6.8-8.17-10.66-.3-9.29,14.63-1.8,15.7,3.22.46,9.2-.79,8.04-5.13-4.07-.79-7.3,3.84-9.86-1.32ZM118.31,595.29c1.9-1.9-.24-5.42-2.47-4.84-4.47,1.17-.82,8.14,2.47,4.84ZM149.38,603.67v19.72c1.11,1.87,2.81.39,4.18.55s2.71.96,4.04.97c12.22.07,8.28-21.63-4.27-15.01.43-3.29.61-9.85-3.95-6.24ZM199.35,624.38v-20.7c-4.92-3.54-3.99,2.84-3.95,6.24-9.74-6.36-15.94,10.25-7.4,14.31,4.17,1.98,7.09-.93,11.36.15ZM171.73,618.46h10.19c3.24-5.99-4.96-12.36-10.8-8.17s-5.07,8.69-.39,13.44c2.42,2.24,10.44,1.28,11.2-1.92l-.4-1.99c-2.02-1.22-8.52,4.24-9.81-1.37ZM223.78,620.33c-.46-3.68-.92-8.32,4.15-7.79,1.58.17,2.07,2.37,3.82,1.91,3.82-2.31-.61-5.75-3.82-5.89-7.46-.33-11.53,8.55-6.8,14.09,1.32,1.55,4.71,2.83,6.47,4.38.23,2.02-1.69,1.97-3.24,1.98l-.03,3.26c5.28.28,8.35-3,5.26-7.88,3,.06,3.62-1.92,3.29-4.6-3.94-.08-5.12,3.19-9.09.55ZM248.3,612.26c-2.4-3.34-4.05-4.28-8.36-3.49-6.29,1.14-6.81,7-1.63,5.61,1.57-.42,4.52-4.05,5.76-.19-5.25,1.47-11.53,1.88-8.61,9.12,4.61,3.09,8.77.23,13.91.79,1.13-3.92,1.31-8.54-1.06-11.84ZM136.71,609.41c-10.04,2.06-7.67,17.44,3.64,15.47,10.55-1.83,8.52-17.97-3.64-15.47ZM207.24,618.46h9.53c4.76-8.5-9.73-13.33-13.3-5.41-4.14,9.19,6.26,15.82,13.63,9.54v-2.81c-3.58-.89-8.65,4.18-9.87-1.31ZM204.28,631.2c-1.08,0-4.26,1.71-3.57,3.3l4.79,1.64.99-3.43c-.27-.78-1.42-1.51-2.21-1.51ZM130.97,639.17v18.4l1.32,1.32c3.84,1.86,4.29-3.54,3.94-6.25,11.49,6.21,16.41-14.35,3.62-14.53-1.3-.02-2.53.61-3.88.66-1.53.06-3.62-1.71-5,.39ZM163.11,653.22c1.07-3.36,1.66-11.58-1.26-14.03-2.43-2.04-11.53-1.76-12.43,2.52l1.74,1.64c1.8.47,2.94-1.69,4.51-1.89,1.74-.23,5.46,1.03,2.61,2-1.77.61-4.17.5-5.99,1.25-5.2,2.13-3.38,8.92,2.03,9.29,2.88.19,5.43-1.88,8.79-.77ZM166.47,639.17v19.06c4.68,3.95,5.27-1.84,4.6-5.58,11.94,6.45,17.71-14.09,4.27-14.53-1.46-.05-2.67.54-3.94.59-1.59.06-3.58-1.57-4.93.46ZM198.69,652.31c.47-1.72,0-7.53,0-9.86,0-.4-1.18-2.56-1.61-2.99-2.01-2.19-11.41-1.79-12.1,1.15.1,7.48,7.41-3.31,9.11,2.82-3.86.93-10.14.61-9.85,6.2.18,3.5,4.62,4.7,7.52,4.29,1.1-.16,2.07-1.09,2.78-1.15,1.05-.09,3.44,2.19,4.16-.46ZM205.92,638.18l-4.61,1.78c.61,2.55-1.44,9.18,1.31,9.4l-1.29,1.95c1.82.16,1.85,4.47,4.59,1.66v-14.79ZM232.22,647.38c2.65-11.6-15.65-13.66-14.49-.29.76,8.84,12.58,8.22,13.73,3.8,1.33-5.11-9.96,2.92-9.1-3.5h9.86ZM212.5,682.22v-12.16c0-1.9-4.19-2.99-4.6-3.95l2.52-2.74-1.21-1.89c-2.45,1.93-3.24-.29-4.93-.26-1.5.02-5.54,2.41-4.22,4.52,1.14,1.83,5.99-2.29,7.17.71-1.94-.5-9.62,1.88-7.59,4.64,1.89,2.56,7.15-3.08,8.9.62-5.2.68-12.2,2-9.14,8.82,4.01,4.21,8.37.3,13.08,1.71ZM149.38,670.39v10.19c6.1,6.2,5.09-6.55,4.06-9.98-2.39-7.94-7.95-2.21-10.31-2.44-.76-.07-1.79-1.56-3.35-1.72-2.09-.22-2.98,1.13-4,1.21-.91.07-1.61-1.19-2.53-1.21-.72-.02-2.29,1.34-2.29,1.66v12.49c0,1.96,2.94,2.27,4.32,1.03,1.09-3.11-1.05-8.02,1.55-10.28,5.52-4.81,2.15,9.62,4.06,10.83,9.3,1.02,0-12.3,8.48-11.77ZM171.08,681.24v-9.86c0-.17-1.43-2.69-1.67-2.93-3.39-3.4-12.69-2.95-12.13,3.25,2.93.85,6.47-3.37,8.54,0-4.28-.12-12.42,4.14-8.35,9.03,2.77,3.34,5.94,1.2,8.66.94,1.43-.14,3.62,1.67,4.95-.43ZM173.71,668.09c-.89,2.81.66,10.09,0,13.47l3.89.6c1.96-4.69-2.52-11.9,5.32-11.78v9.53c0,1.36,2.44,3.13,3.99,2.02,1.82-1.3-1.05-9.92,2.37-11.44,6.15-2.27,1.65,10.6,4.57,11.64,2.42.87,2.68-.81,2.88-2.88.31-3.27.51-11.28-3.25-12.53-4.13-1.37-5.3,1.69-6.95,1.7-1.23,0-1.76-1.91-3.92-2.05-2.72-.17-4.31,2.22-6.95.35-.43.08-1.83,1.03-1.94,1.36ZM220.39,676.31c3.1-.54,10.44,1.85,10.55-2.93.21-8.6-13.98-9.93-15.12.05-.97,8.54,8.66,11.95,14.11,6.18.67-.58.28-1.28-.32-1.68-2.5-1.62-8.14,3.7-9.22-1.62ZM237.96,677.79c-1.56-1.33-4.71-1.04-5.09,1.51-.92,6.01,9.18,1.97,5.09-1.51Z" fill="#fff"/>
  <path d="M39.78,750.39c-1.6-2.07-2.66-7.92-2.85-10.63-.79-11.21.75-28.1,14.8-29.3h493.14c13.88-.55,14.99,25.97,12.48,34.87-2.72,9.64-9.67,9.99-18.39,11.19H55.67c-3.33-.59-6.68-.64-9.85-1.99-1.16-.49-5.41-3.34-6.04-4.14ZM73.44,728.89h68.38c1.6,0,1.6-4.6,0-4.6h-65.75c-.24,0-.85-.8-1.82-.58-1.96.44-2.61,4-.8,5.18ZM406.78,728.89h109.14c1.56-1.17,1.62-4.38-.66-4.6-31.78-.22-63.58.28-95.36.03-3.51-.03-5.43-.33-9.25-.1-1.04.06-2.02-.6-3.08-.46-3.03.4-3.25,3.56-.8,5.13ZM109.6,738.09c-1.33,1-2.22,2.33-1.37,4l5.32,1.25c29.91-.43,59.94,1.03,89.77-.93,1.12-.79.89-3.6-.37-4.31h-93.36ZM460.53,742.53c.62.53,3.1.77,4.08.85,6.97.54,21.56.78,28.3-.01,4.25-.5,4.93-3.36,1.3-5.27-9.85.96-22.05-1.27-31.59-.03-2.64.34-4.03,2.82-2.1,4.47Z" fill="#fff"/>
  <path d="M282.42,198.22c.36.45,1.29.66,1.71,1.21,4.75,6.24,8.29,13.26,12.4,19.89l-4.48,11.33c-7.27-24.77-23.98-46.49-45.36-60.8,6.76,2.76,13.52,7.12,19.36,11.53,7.3,5.51,10.82,9.82,16.36,16.84Z" fill="#fff"/>
  <path d="M361.08,382.82c-.4,1.89-2.56,3.28-4,1.37-1.04-1.39-1.02-18.65.21-19.96l3.59.05,8.75,11.64v-11.5c2.15-2.24,4.12-.78,4.56,2.01.36,2.31-.25,13.74-.58,16.42-.08.69,0,1.53-.64,1.99l-2.21.17-9.67-13.04c-.45,3.18.62,7.9,0,10.85Z"/>
  <path d="M456.81,387.99c-.34-.42-1.56.1-1.05-1.54,4.28-2.64,9.73,5.36,11.17-1.98-11.04,3.74-16.31-11.37-4.99-14.58,1.89-.63,3.52.47,5.32.65,2.06.21,4.37-2.08,4.97,2.39.67,5,.86,15.58-4.75,17.66-4.99,1.85-7.48,1.38-10.67-2.6ZM466.12,374.11c-4.9-3.48-7.84,4.76-3.79,6.76,3.66,1.81,6.06-3.89,3.79-6.76Z"/>
  <path d="M361.08,564.24c-.06.36-.64,1.03-.77,1.53-2.66.49-3.42.48-3.76-2.24-.44-3.52-.56-12.97-.1-16.41.25-1.9.88-2.97,2.96-2.96,2.61.26,7.98,11.23,10.22,13.18v-12.16c1.1-1.68,2.36-.63,3.94-.33v20.05c-5.68,3.63-7.7-9.27-12.49-11.5-.39,3.32.53,7.69,0,10.85Z"/>
  <path d="M451.81,277c.7-2.48,3.56-.96,4.86-1.05,1.56-.1,2.7-.85,4.62-.58,1.53.22,2.95,1.77,3.34,1.77,1.01,0,4.31-3.63,8.42-1.17.15.09,1.77,2.19,1.77,2.34v12.16l-2.2.52c-3.41-.66-2.64-8.16-1.92-10.73l-3.79-.64c-2.27,1.36-.88,8.33-1.39,10.76l-3.86.09v-10.19l-2.29-1.02c-3.58.38-1.83,8.01-2.46,10.41-1.43,1.76-5.11,1.49-5.11-.84,0-2.65-.54-9.94,0-11.83Z"/>
  <path d="M356.48,215.21c.09-2.39.03-5.15,3.65-2.99.26.16,3.93,4.04,4.25,4.47,1.72,2.38,2.82,6.66,5.25,8.71v-12.82c1.1-1.68,2.36-.63,3.94-.33v19.39c-4.43,5.2-6.99-3.91-9.2-7.05-.78-1.11-3.01-3.07-3.95-4.45v11.5c0,.23-.79,1.02-.69,1.63l-3.25-.64c.17-5.79-.23-11.63,0-17.42Z"/>
  <path d="M326.7,363.57c4.48-1.02,11.85.9,10.6,6.61-.27,1.25-1.95,2.47-1.79,3.34.12.66,1.85,1.73,2.27,3.01,2.71,8.35-10.04,12.42-14.84,6.29-3.94-5.04,1.36-7.4,1.33-9.2-.01-.82-1.11-1.64-1.29-2.67-.57-3.19.13-6.57,3.72-7.39ZM332.75,367.44c-.88-1.01-7.55-.8-5.53,3.23,1.83,3.65,7.66-.77,5.53-3.23ZM326.33,381.09l5.36.62c1.42-.54,2.12-1.84,1.68-3.33-2.7-4.54-8.47-2.86-7.04,2.72Z"/>
  <path d="M410.39,291.12l-.33-1.31c-7.28,1.51-8.56.64-11.1-5.67-.08-.21-.91-.25-1.03-.71-.53-1.96,2.84-6.8,4.74-7.57,3.51-1.43,6.07.78,9.41-.44.68-.02,1.26.34,1.65.87.89,1.19.89,13.02.56,15.13-.79,5.01-6.25,6.5-10.67,5.49-2.43-.56-5.45-3.84-2.7-5.74,4.36,1.49,5.14,3.17,9.46-.04ZM409.37,280.99c-1.64-2.34-2.48-3.2-5.4-1.53-1.04,1.05-1.24,4.85-.2,6.13,2.27,3.21,7.47-.43,6.61-3.85-.13-.52-.84-.52-1-.75Z"/>
  <path d="M369.63,469.59c.59-2.12,3.97-2.35,4.49.82.25,1.52-.58,2.9-.58,4.41,0,2.29.54,13.73-.58,14.53-.86.61-2.26.39-3.05-.33l-8.83-12.53v11.5c0,.29-1.63,1.72-2.3,1.67l-1.54-1.12c.65-2.94-1.79-18.75-.02-19.85l3.58.53,8.83,11.88c.55-3.09-.75-8.82,0-11.5Z"/>
  <path d="M374.89,517.9v-10.19c-9.09-5.41-.21,13.09-8.55,10.19v-10.19c-8.41-5.76-3.45,7.93-6.21,10.26-1.21,1.27-3.66-.5-3.66-1.72v-11.83c0-2.05,3.47-.99,4.2-1.06,6.33-.66,4.79.76,8.08,1.29,1.14.18,4.31-3.97,8.74-.87,2.87,2.01,4.16,17.83-2.61,14.12Z"/>
  <path d="M374.23,250.7c-6.28-3.36-4.36,6.09-4.58,9.75-6.75,4.48-2.63-7.16-4.26-9.46l-4.22-.52c-1.78,2.43.9,11.1-3.05,11.1l-1.64-1.01v-14.13c3.12,1.37,6.36-1.1,8.85-.67,1.52.26,2.16,2.07,3.2,1.91,1.3-.21,1.77-2.19,5.3-1.86,1.65.16,5.01,1.84,5.01,3.58v11.17c-1.13,1.47-3.47,1.47-4.6,0v-9.86Z"/>
  <path d="M420.91,370.66c1.97-1.13,3.73-.01,5.43-.15,3.51-.29,7.25-2.38,9.83,2.32,4.3,7.82-2.44,15.41-10.65,11.64l-.09,5.81c-.79,1.24-4.51-.32-4.51-.56v-19.06ZM431.34,381.08c.94-2.43,1.76-6.39-1.03-7.68-6.09-1.79-6.06,10.02,1.03,7.68Z"/>
  <path d="M327.36,544.33c16.22-3.72,14.03,27.51-.47,21.21-7.48-3.25-6.49-19.62.47-21.21ZM330.64,547.6c-5.71.04-5.54,12.35-2.65,14.21,8.22,4.3,7.18-14.24,2.65-14.21Z"/>
  <path d="M332.81,481.75c-4.48-.12-8.44,1.23-10.37-3.77-3.14-8.12,8.77-14.06,14.02-6.78,4.64,6.44-.6,19.19-8.58,19.14-2.11-.01-4.14-2.34-2.28-3.66,2.92-.63,6.51-1.44,7.22-4.93ZM327.06,477.64c3.03,2.97,8.96-.85,5.82-4.84s-9.07,1.65-5.82,4.84Z"/>
  <path d="M366.18,330.07c-1.18-1.34-7.81-1.57-9.63-4.51-1.07-1.72-1.16-5.72.12-7.3,2.82-3.46,14.47-3,13.64,2.1-.73,4.54-8.79-4.41-10.55,1.98.32,1.45,9.93,2.53,11.04,7.39,2.14,9.43-11.62,10.46-16,4.12l.32-1.67c2.3-2.55,3.44.98,5.77,1.53,2.99.7,8.01-.54,5.29-3.64Z"/>
  <path d="M398.11,411.89c.08.17.96.16,1.08.63.86,3.38-.89,3.12-1.26,3.97-.47,1.11.68,3.27-1.68,3.5l-2.2-1.13-.1-5.48c-8.34,4.31-15.11-4.4-10.16-11.81,2.88-4.31,9.13-1.84,13.5-2.38,1.68,1.2-.26,10.32.83,12.69ZM389.16,403c-2.62.78-2.58,6.88,0,7.64,4.93.92,6.28-4.6,3.06-7.69l-3.06.05Z"/>
  <path d="M326.24,220.13c13.32-5.01,14.81,13.86,2.96,13.82s-8.85-21.62,2.76-22.23c6.77,3.95-4.48,5-5.72,8.41ZM331.99,223.59c-1.78-1.54-6.22-1.1-6.47,2.13-.67,8.67,11.55,2.27,6.47-2.13Z"/>
  <path d="M460.35,260.89c-8.3,2.65-12.67-1.85-11.14-10.16.62-3.36,3.19-4.23,6.19-4.35,2.54-.1,6.25.25,8.61.66,1.44,6.46.57,12.82.19,19.33-4.32,3.7-4.1-2.21-3.85-5.49ZM453.94,250.51c-3.31,3.43,1.53,10.72,5.47,6.47,4.24-4.58-2.92-9.11-5.47-6.47Z"/>
  <path d="M457.65,331.15l-10.45.74c1.45,4.93,9.51-1.61,10.51,1.64,1.15,3.72-10.76,6.82-14.39,1.23-4.44-6.84,3.27-16.3,10.39-12.36,3.79,2.1,4.7,4.42,3.92,8.74ZM453.12,327.93c.11-2.67-3.92-2.61-5.25-.97-.04,2.07,4.12.52,5.25.97Z"/>
  <path d="M413.02,336.15c-.9,3.18-4.33.62-4.95.57s-1.64.95-2.65,1.04c-4.2.37-5.25-.8-7.97-3.53.65-5.7,5.79-6.2,10.29-7.94-2.72-3.33-9.47,5.15-8.22-2.31,2.42-4.9,13.49-1.67,13.49,2.31,0,2.28.46,8.22,0,9.86ZM407.76,330.57c-1.79.84-4.05.36-5.24,2.3,2.13,2.31,5.66.68,5.24-2.3Z"/>
  <path d="M388.7,331.22h-10.52l2.34,2.64,7.45-1.25.27,2.38c-3.97,4.26-10.36,3.43-14.19-.63-5.09-14.65,15.89-18.19,14.65-3.14ZM383.44,325.97c-1.82-.01-4.7-.63-4.6,1.97h4.6s0-1.97,0-1.97Z"/>
  <path d="M389.83,219.01c2.28,1.87,3.09,11.32,1.55,13.35-1.36,1.79-2.9.11-4.28.31-1.6.23-3,1.32-4.66,1.31-5.57-.05-8.11-7.2-1.76-9.69,2.08-.82,5.38-.42,6.7-2.16-4.02-2.34-6.25,2.17-9.8.59-.88-5.41,9.2-6.22,12.26-3.7ZM387.38,226.72l-5.24,1-.67,2.28c2.05.32,3.7-.48,5.5-1.27l.41-2.01Z"/>
  <path d="M401.19,437.05c.49,7.67,8.98-2.9,9.8,3.55-5.27,5.36-14.9,4.13-15.11-4.54-.31-12.82,18.15-9.71,15.17.99h-9.86ZM406.44,433.76c.11-2.67-3.92-2.61-5.25-.97-.04,2.07,4.12.52,5.25.97Z"/>
  <path d="M468.25,545.17c4.62-3.62,4,2.83,3.95,6.24,3.05-1.8,7.5-1.78,9.33,1.51,1.47,2.66,2.48,12.39-1.13,12.98l-2.94-1.01v-9.86c0-1.4-4.48-2.61-5.22,2.01-.52,3.22,1.75,11.7-3.99,7.85v-19.72Z"/>
  <path d="M409.35,582.7c5.16,6.73-1.78,6.01-6.53,6.18-1.01.04-2.6-.61-2.29.98,3.14,3.04,6.32-1.8,9.82.38,1.32,1.94-5.06,5.11-6.92,5.17-10.74.37-11.2-17.75,1.2-16.27,2.51.3,3.38,1.8,4.72,3.55ZM405.79,583.63l-2.93-.68-2.31,1.65c-.04,1.27,5.76,1.91,5.24-.98Z"/>
  <path d="M433.23,581.16c.71,2.36,2.26,11.62.55,13.05-1.81,1.51-2.9-.51-3.98-.48-.83.02-2.24,1.82-4.46,1.6-1.11-.11-4.51-1.92-5.13-2.78-3.55-4.89,5.57-8.26,9.24-8.27.44-1.79-.98-1.45-2.34-1.35-1.76.13-6.93,3.15-6.89-.3s10.09-4.52,13-1.47ZM430.12,588.23c-1.07.09-5.56.46-5.26,2.28.32,1.94,5.5-.24,5.26-2.28Z"/>
  <path d="M498.44,565.83c-4.52-1.43-8.33,2.42-12.49-.89-5.85-4.66,2.87-10.15,7.94-8.93v-1.97c-3.81-1.11-5.65,3.29-9.12,1.22l.06-2.4c11.35-7.87,16.59,2.51,13.6,12.96ZM494.54,559.31l-5.24,1-.67,2.28c2.61.39,5.51-.22,5.91-3.28Z"/>
  <path d="M461.67,517.57c-.08.28-.75.66-1.01.99-4.36-2.61-9.24,3.93-12.84-2.27-3.3-5.68,5.08-7.91,9.24-8.26.43-1.81-.95-1.42-2.33-1.34-2.07.12-6.75,2.96-6.86-.26-.18-5.15,13.79-4.62,13.79-.03,0,2.47.5,9.46,0,11.17ZM451.82,515.26c2.46.34,6.24-.97,5.91-3.94-2.18,1.24-6.45.44-5.91,3.94Z"/>
  <path d="M395.93,260.56c-1.24,2-2.99.32-4.35.39-2.75.14-7.46,1.94-9.39-1.12-3.59-5.67,4.25-9.28,9.13-8.15l-.95-1.75-7.24,1.75c-3.17-3.5,1.95-5.95,5.23-5.96,2.29,0,7.56,1.67,7.56,4.32v10.52ZM391.98,254.98c-1.21.15-6.96.28-6.57,2.29.45,2.28,7.09.75,6.57-2.29Z"/>
  <path d="M387.38,479.11c-2.99-3.9-7.09,2.09-9.85-1-1.27-4.21,12.69-7.41,14.3,1.49.34,1.85.55,7.78-.45,9.1-1.34,1.78-2.87.17-4.33.27-3,.21-10.16,2-10.14-3.61.02-5.16,6.76-5.52,10.46-6.26ZM387.38,483.06l-5.24,1-.67,2.28c2.05.32,3.7-.48,5.5-1.27l.41-2.01Z"/>
  <path d="M409.38,221.82c6.49,8.98-10.08,17.33-14.61,7.7-4.52-9.59,8-16.84,14.61-7.7ZM400.03,222.27c-4.5,13.54,12.21,5.95,2.78-.83l-2.78.83Z"/>
  <path d="M506.38,379.21h-9.86c1.54,4.9,5.83,1.18,9.2.66l.39,2.65c-1.26,4.78-14.77,5.04-14.24-5.62s18.61-8.61,14.51,2.32ZM501.78,375.25c-1.24-2.34-3.65-2.28-5.24-.32l5.24.32Z"/>
  <path d="M439.32,285.21c.03,6.05,11.21-1.78,9.77,3.51-.71,2.61-6.02,2.67-8.15,2.41-9.99-1.22-7.65-19.73,4.92-15.43,3.32,1.14,5.62,6.71,2.99,9.5h-9.53ZM445.89,281.26c-1.1-2.16-4.9-2.87-6.57-.97-.31,1.59,1.28.93,2.29.98,1.42.06,2.86-.03,4.28,0Z"/>
  <path d="M387.38,374.6c-3-3.89-7.06,2.08-9.85-.99,1.66-4.37,8.37-5.09,11.82-2.61,2.9,2.08,3.1,8.01,2.67,11.2-.61,4.51-2.97,2.1-5.54,2.28-2.88.21-4.18,2.68-7.68-.3-2.33-1.99-2.32-4.74-.25-6.91,1.76-1.85,6.37-1.58,8.84-2.67ZM387.38,378.55l-5.24,1-.67,2.28c.84.82,6.18-1.16,5.91-3.28Z"/>
  <path d="M446.38,552.24c.56.59,1.54,3.9,1.52,4.79-.07,4.34-5.87,2.71-8.93,2.93-.98.07-1.9-.51-1.63.98,2.78,4.6,8-2.66,9.88,1.98-1.14,3.59-8.12,3.89-10.92,2.34-2.11-1.17-2.62-4.55-4.28-6.26.29-4.14,3.26-8.91,8.27-8.9,1.11,0,5.42,1.45,6.08,2.15ZM443.26,556.01c-1.23-2.67-4.22-2.7-5.91-.32l5.91.32Z"/>
  <path d="M391.25,565.8c-3.47-1.13-11.13,1.79-13.11-1.52-4.23-8.59,7.75-7.42,9.24-8.93,1.37-1.38-3.07-1.83-3.54-1.78-1.27.15-5.42,4.88-6.21.71s9.81-5.17,12.71-2.2c2.28,2.33,2.06,10.7.91,13.72ZM387.38,559.31c-2.35,0-6.45.05-5.91,3.28,2.05.32,3.7-.48,5.5-1.27l.41-2.01Z"/>
  <path d="M432.36,403.27c.1.19.9.19,1.02.72,1.67,7.07-7.04,2.28-10.49,5.12,1.53,4.3,10.34-2.28,9.09,2.52-1.11,4.23-10.46,3.42-12.72.44-6.6-8.73,7.12-20,13.1-8.8ZM428.14,404.84c-.18-3.17-4.14-2.24-5.25-.32l5.25.32Z"/>
  <path d="M360.43,437.05c1.7,6.61,6.01.49,8.78,1.37l1,2.8c-7.13,6.17-14.62,2.52-13.75-7.16.93-10.32,18.6-7.22,13.51,2.99h-9.53ZM366.34,433.76l-1.09-1.85c-2.19-.21-3.98-.94-4.82,1.53l5.91.32Z"/>
  <path d="M443.26,379.21c2.86,5.38,8.43-1.33,10.51,2.94-4.89,6.13-14.79,3.88-14.75-4.59.05-11.55,19.32-9.61,13.77,1.64h-9.53ZM443.93,375.25c1.91.46,4.34,1.59,5.9-.32,0-1.35-5.48-1.48-5.9.32Z"/>
  <path d="M489.29,255.63v1.95c1.81,2.22,10.87-3.2,9.59,1.38s-12.15,4.59-13.88-2c-3.51-13.33,17.07-14.96,14.15-1.33h-9.86ZM495.2,252.34c-.18-3.37-3.79-1.48-5.91-1.3.98,2.18,4.05,1.09,5.91,1.3Z"/>
  <path d="M470.88,404.18c-2.02-4.08-4.57-.76-6.89-.59-5.2.39-1.98-4.14.67-4.65,11.67-2.22,11.95,5.72,10.22,14.83-4.12-.78-13.35,2.82-13.91-3.33s5.74-5.21,9.92-6.26ZM470.87,407.47l-5.9,2.3,1.77,1.55c1.75.47,4.71-1.78,4.13-3.85Z"/>
  <path d="M478.97,411.87c-.6-.67-1.36-2.55-1.48-3.46-1.62-12.41,17.23-13.01,16.37-.69-.52,7.46-10.62,8.93-14.89,4.14ZM484.5,402.98c-2.53.74-2.32,5.51-.83,7.15,3.56,3.92,7.23-3.61,4.05-6.67-.91-.74-2.13-.8-3.21-.48Z"/>
  <path d="M414.34,241.5c4.61-3.39,4.12,2.18,3.95,5.58,3.2-.67,5.68-2.28,8.71-.01.29.21,1.8,2.17,1.8,2.32v11.17c-7.6,4.69-.87-10.33-6.27-10.86-8.01-.28-.45,15.34-8.19,10.86v-19.06Z"/>
  <path d="M436.69,257.61c7.9,2.39,3.96-7.84,5.58-10.52,1.15-1.89,4.28-.95,4.28.33v13.15c-1.38,2.08-3.42.36-4.97.41-1.29.04-2.17,1.25-3.84,1.21-7.5-.16-6.56-9.46-6.23-14.68l3.46-1.64c.51.12,1.71,1.9,1.71,2.2v9.53Z"/>
  <path d="M386.07,511.98c-1.28,1.03,2.82,2.66,3.63,2.7,2.11.12,8.1-4.14,6.13,1.46-.37,1.04-2.21,1.69-3.2,2.07-12.4,4.73-15.11-15.89-2.3-15.46,4.84.16,8.24,5.12,5.28,9.23h-9.53ZM392.64,507.39c-2.5-.79-5.65-1.66-5.25,1.96,1.94-.09,5.29.85,5.25-1.96Z"/>
  <path d="M409.37,555.09c.11.23.89.29.99.75.59,2.58-.45,5.53-2.23,7.45-3.63,3.93-10.94,3.99-13.37-1.17-4.42-9.37,9.18-17.84,14.61-7.03ZM400.03,561.77c5.78,5.79,8.29-12.57-.49-6.41-.65,1.33-.54,5.38.49,6.41Z"/>
  <path d="M407.54,476.05c.22.24,2.86,4.41,2.89,4.68.56,4-3.33,8.72-7.59,8.95-13.69.74-10.49-19.05,1.66-15.52.54.16,2.64,1.46,3.04,1.89ZM404.32,485.53c1.03-1.04,1.14-5.08.49-6.41-4.87-4.12-6.95,1.73-4.98,6.13l2.35,1c.66,0,1.69-.26,2.14-.73Z"/>
  <path d="M496.29,476.06c1.8,1.82,1.97,4.67,1.25,7.04l-9.19.6-.4,1.65c3.36,2.62,5.83-.71,9.21-.33.67,6.55-11.35,5.99-13.31,1.14-3.73-9.27,6.39-16.22,12.42-10.12ZM493.89,480.43c-.3-3.29-4.26-3.54-5.91-.97-.73,1.86,5.15.65,5.91.97Z"/>
  <path d="M409.35,374.36c.1.19.92.2,1.03.71.72,3.27-.64,6.95-3.45,8.9-11.25,7.77-19.39-12.63-6.07-13.95,4.65-.46,6.37.39,8.49,4.35ZM401.68,373.4c-4.96.86-2.71,12.11,3.13,7.13.52-1.72.86-5.46-.6-6.64-.77-.7-1.57-.65-2.53-.49Z"/>
  <path d="M409.08,517.24v-9.53c-7.95-4.87-3.42,9.04-6.59,10.55-4.51,2.17-3.72-12.43-2.46-14.66,1.57-1.63,2.78.2,3.46.23.57.03,2.28-1.02,3.92-1.11,9.23-.52,5.95,7.94,6.57,13.94l-1.39,1.86-3.52-1.28Z"/>
  <path d="M482.71,259.91c-.05.32-.71,1.59-1.11,1.68-3.94-1.46-8.52,1.91-11.73-.68-.38-.3-1.62-2.07-1.62-2.32v-11.17c7.26-4.81,1.46,9.98,5.68,10.74,5.09.93,2.76-9.62,3.81-11.11,1.52-1.69,4.97-.12,4.97,1.68,0,3.21.47,8.29,0,11.17Z"/>
  <path d="M442.44,474.01c12.53-2.16,12,15.76,1.76,16.23s-11.13-14.62-1.76-16.23ZM442.42,477.93c-2.93.88-3.29,10.18,3.01,8.29,2.93-.88,3.29-10.18-3.01-8.29Z"/>
  <path d="M464.3,479.44c-.3-1.85-1.83-2.04-3.47-1.51-3.25,1.06-1.1,7.14-1.92,9.92-.63,2.12-4.15,2.76-4.47.13l.09-13.38c3.16.9,6.57-1.02,9.27-.62,1.32.19,5.1,2.04,5.1,3.49v11.5h-4.6c-.33-2.94.46-6.73,0-9.53Z"/>
  <path d="M453.78,402.87c-7.93-2.86-3.9,9.48-5.87,10.9l-3.99-.38v-13.8c3.45-.15,14.46-2.41,14.46,2.96v10.52c-1.13,1.47-3.47,1.47-4.6,0v-10.19Z"/>
  <path d="M360.89,399.07c12.38-2.82,13.71,13.16,5.47,15.32-12.38,3.25-12.97-13.61-5.47-15.32ZM366.8,409.91c1.45-1.78,1-4.47-.42-6.09l-5.2-.85c-2.97,4.61,1.32,12.24,5.62,6.94Z"/>
  <path d="M469.57,506.73c-.31,1.7.31,1.16,1.3,1.62,2.66,1.21,5.67,1.09,6.31,4.92,1.2,7.21-14.16,8.28-12.88.04,2.75-1.08,4.66,1.52,6.34,1.81.66.11,2.57-.27,2.21-1.47-.4-1.37-7.59-1.29-8.43-5.42-1.46-7.1,12.58-6.69,12.23-2.46-.23,2.73-5.49.75-7.09.98Z"/>
  <path d="M478.77,370.66v9.86c0,.25,3.67,2.15,4.51,1.22,1.77-2.5-.84-11.36,3.06-11.77l2.29,1.02v13.15c-1.12,1.93-2.89.32-4.19.52-3.31.51-5.54,2.57-8.89-1.24-.81-2.08-2.19-12.62.34-13.37l2.88.62Z"/>
  <path d="M422.23,276.67v9.53c0,.6,2,2.15,3.29,1.34,3.89-2.45-.07-12.21,4.27-12.21l1.64,1.01v13.8c-2.59,2.85-3.4-.36-3.63-.36-1.52,0-3.17,2-6.54,1.34-.95-.19-3.63-2.57-3.63-2.94v-11.83c0-2.01,3.72-.02,4.6.33Z"/>
  <path d="M423.64,428.61c.41-.63,2.62-1.18,3.08.33.58,1.9,1.39,13.79.06,14.63-1.37.77-2.98-1.02-3.57-1.01-1.36,0-3.4,2.18-6.89.72-4.37-1.82-4.7-15.47-.99-15.46s1.67,8.69,2.4,10.77l2.19,1.52c5.35-1.08,2.62-9.77,3.72-11.49Z"/>
  <path d="M378.83,594.14l-4.31.03c-1.54-2.26,2.26-14-4.24-10.87-3.19,1.54-1.33,8.08-2.28,10.86-1.88,1.38-3.45-.37-3.67-2.28-.19-1.64-.14-11.53.75-12.15,4.45,1.39,7.72-2.39,11.83.88.39.31,1.92,2.44,1.92,2.68v10.85Z"/>
  <path d="M410.23,409.93c2.19-1.88-1.01-9.41,2.58-10.94,4.28-1.1,3.02,12.55,2.11,14.97-4.35-1.32-7.64,2.31-11.44-.57-4.1-3.11-2.95-17.12,1.03-14.17,1.7,2.51-.59,8.8,1.61,10.9.92.88,3.34.48,4.11-.19Z"/>
  <path d="M464.3,564.89c-7.22,4.93-1.58-10.52-5.58-10.91-6.37-.62-4.69,7.6-4.94,11.9l-3.18-.11c-.1-.47-.77-1.3-.77-1.54v-12.49c0-2.37,4.33-.46,4.81-.48,1.35-.06,2.59-1.35,4.66-1.15,1.42.14,4.99,2.16,4.99,3.6v11.17Z"/>
  <path d="M367.06,290.41c-2.07-1.31,2.61-11.99-3.02-11.69s-2.42,8.95-3.92,11.13c-.65.95-2.7.95-3.35,0-1.15-1.67.52-9.52-.95-12.18,1.2-4.07,3.06-1.34,4.28-1.25,2.08.15,4.17-2.88,8.46-.33,3.3,1.96,3.31,12.88,1.06,14.05l-2.57.26Z"/>
  <path d="M393.29,432.44c-2.64.42-5.7-1.97-7.88.34,17.78,2.57,4.21,18.4-4.63,7.23l1.11-1.58c2.54-.77,5.76,3.68,8.11.27-2.18-2.47-6.03-.84-7.8-4.02-4.22-7.6,11.64-10.04,11.09-2.23Z"/>
  <path d="M395.93,290.47h-3.94v-10.19c0-.28-1.62-1.75-2.3-1.67-.45,0-3.16,1.85-3.41,2.2-2.12,3.01,1.42,12.77-4.81,8.67v-12.49c0-.17,1.35-1.48,1.78-1.58,1.26-.3,1.88.95,2.5,1,.88.07,2.76-1.61,4.49-1.53s5.69,2.37,5.69,4.08v11.5Z"/>
  <path d="M398.97,256.52c-.17-.32-1.24-.43-1.47-1.5-.71-3.16,3.68-8.48,6.8-9.11s7.78.4,8.11,4.11c-1.86,4.6-5.13-2.26-8.6.67-1.35,1.55-.87,6.8,1.1,7.47,3.17,1.08,4.93-4,7.52-.93,2.85,3.37-7.76,7.53-11.93,2.69-.94-1.1-.93-2.27-1.53-3.41Z"/>
  <path d="M337.09,316.11c.9.26,1.65,1.76,1.54,2.79-.09.94-6.23,16.85-6.83,17.57-1.23,1.49-2.73,1.14-4.25.35-2.09-1.68,1.4-4.99,1.9-6.12,1.52-3.41,2.96-7.05,4.01-10.64h-9.2v-3.94c3.4.61,9.89-.83,12.82,0Z"/>
  <path d="M434.65,479.05c-1.3,2.03-4.23-.67-5.17-.97-6.17-2.01-5.99,10.08.16,8.16,1.19-.37,2.38-3.04,4.45-1.57,3.57,2.53-4.33,7.58-10.42,3.83-7.81-4.81-2.12-17.29,7.58-14.13,1.69.55,4.63,2.76,3.4,4.68Z"/>
  <path d="M422.81,498.9l.1,3.85c2.77-.15,4.84,1.13,3.11,3.84-4.44-1.57-3.2,7.18-2.39,7.93.24.23,7.18,1.52,2.53,3.69-7.78,3.64-8.84-5.63-7.84-11.08-.16-.58-7.36-2-.14-4.45l.18-3.77h4.45Z"/>
  <path d="M425.51,326.29c-.26-.81-3.28-1.2-2.63-3.28l2.52-1.1c-.18-5.68,3.54-7.08,8.66-6.47l-.64,3.67c-1.08.8-3.98-1.82-3.31,2.9h3.95s0,3.29,0,3.29l-3.92.03c-1.9,3.63,2.37,15.53-4.63,11.47-.52-2.67.71-8.33,0-10.52Z"/>
  <path d="M476.74,469.98c.5.31.79,3.64.72,4.54,6.78-.61,5.72,3.58-.04,4.32l.32,6.9,4.97,1.61c.22,1.11-1.36,2.08-2.31,2.27-8.04,1.6-7.89-5.47-7.5-11.41-.21-.74-2.4-.33-2.66-1.44-.52-2.25,2.34-2.21,2.47-2.36.46-.53.03-2.79,1.11-3.86.59-.67,2.29-.97,2.92-.58Z"/>
  <path d="M319.01,544.85v20.05l-4.6.99v-15.45l-.96-.83c-10.49,1.3.98-7.06,5.56-4.76Z"/>
  <path d="M384.01,579.77l3.39,8.45,3.34-8.46,2.77-.1c.57.13.71.81.82,1.32.29,1.27-2.52,9.54-3.33,11.19-1.33,2.73-3.18,3.61-5.93,1.98-.16-4.02-9.58-15.71-1.06-14.38Z"/>
  <path d="M426.86,550.08l3.94,1.1-.12,2.13-3.21,1.06.1,8.13,3.85.1-1.08,3.19c-8.84,1.51-7.63-4.85-7.43-11.33-7.01-3.08-1.21-3.06-.35-4.33s.05-6.38,3.95-3.98l.34,3.94Z"/>
  <path d="M395.27,322.02v20.05c0,2.98-11.67,3.85-6.79-1.55l2.85-.1c.64-.59-.72-14.86.09-17.33.5-1.52,2.57-1.05,3.85-1.08Z"/>
  <path d="M413.02,580.67c1.45-1.55,4.31-1.8,4.44.8-1.38,3.42.77,17.81-1.59,19.3-1.92,1.21-5.96.86-7.45-1.05-.39-1.65,3.44-2.58,4.6-2.29v-16.76Z"/>
  <path d="M460.36,317.09c6.18-4.35,4.09,8.69,4.01,11.9-.08,2.96,1.81,11.62-4.01,7.82v-19.72Z"/>
  <path d="M436.69,503.44l9.42-.68c3.5,4.41-3.27,3.24-4.49,4.62-2.41,3.3,1.58,14.36-4.92,10.2v-14.13Z"/>
  <path d="M378.83,288.83c-.06.36-.66,1.02-.76,1.54-1.78.51-3.46-.02-4.5-1.54v-12.49l1.09-.9c1.77-.47,3.13.1,4.17,1.56-.42,3.62.58,8.39,0,11.83Z"/>
  <path d="M433.4,503.44v13.8c0,.23-3.88,2.01-4.29.68l-.65-13.82c1.29-2.03,3.04-1.18,4.94-.66Z"/>
  <path d="M439.98,337.14c-1.19.11-2.75,1.35-3.63.01-1.35-2.03-2.78-19.38,3.63-14.15v14.13Z"/>
  <path d="M361.08,592.5c-.07.52-.84,1.41-.72,2.23-5.66,2.62-4.19-13.42-3.3-14.66l4.02.6c-.35,3.74.48,8.21,0,11.83Z"/>
  <path d="M389.35,212.26c.38,5.51-4.54,4.56-8.4,4.42-2.57-.09-2.79-1.31-1.18-3.16,2.03-2.33,6.62-.52,9.58-1.26Z"/>
  <path d="M462.99,397.61l3.1-4.5c2.4-.64,3.72,2.45,5.78.06,5.41,5.61-5.28,4.46-8.88,4.44Z"/>
  <path d="M390.01,544.85c.16,6.7-5.6,3.49-9.85,4.59-.56-6.97,5.48-3.09,9.85-4.59Z"/>
  <path d="M379.49,368.03c-.19-1.66.1-3.19,1.78-3.83,1.31.39,8.64-.64,8.72.87.22,4.07-8.01,2.51-10.5,2.96Z"/>
  <path d="M389.35,468.6l-.75,3.84-8.45-.24c-.23-1.58.27-2.92,1.78-3.49l7.41-.11Z"/>
  <path d="M482.61,285.97l.76,2.84c-.41,4.32-8.56,2.38-5.17-2.84h4.4Z"/>
  <path d="M435.28,438.46l.76,2.84c-.41,4.32-8.56,2.38-5.17-2.84h4.4Z"/>
  <path d="M339.15,332.63c5.76-1.94,6.3,5.9,1.26,5.18-2.69-.38-3.27-4.5-1.26-5.18Z"/>
  <path d="M478.98,514.81c.55-.64,2.37-1.66,3.26-1.45l2.37,3.41-3.38,2.34-3.05-2.28c-.02-.76.31-1.46.8-2.02Z"/>
  <path d="M344.56,484.46c.85.54,2.13,5.57-2.15,5.16-6.43-.62-1.28-7.33,2.15-5.16Z"/>
  <path d="M340.47,561.37c5.24-1.77,6.75,5.11,1.88,5.11-3.28,0-4.06-4.37-1.88-5.11Z"/>
  <path d="M344.65,228.03c1.35,9.82-9.51,2.66-4.6.33,1.38-.65,3.12-.27,4.6-.33Z"/>
  <path d="M341.08,380.88c.27-.23.26-1.02.67-1.04l3.25,1.3.37,1.67c0,5.01-7.45,1.87-5.64-1,.49-.28.93-.57,1.35-.94Z"/>
  <path d="M443.73,268.85h1.05c4.56,2.04-1.82,6.6-4.13,5.54l-1.32-1.34,4.39-4.2Z"/>
  <path d="M367.65,421.93c.71,3.26-4.01,6.99-6.57,4.25.68-3.22,3.45-4.68,6.57-4.25Z"/>
  <path d="M374.67,268.88c5.02-1.73,6.13,4.89,1.19,4.56-3.2-.21-3.43-3.79-1.19-4.56Z"/>
  <path d="M433.23,497.03c.37.35.87,1.58.75,2.05-1.66,1.84-3.51,3.21-5.53,1.07-.82-1.31-.2-2.88,1.01-3.65,1.07-.56,2.94-.27,3.77.52Z"/>
  <path d="M470.02,332.61c2.39-.59,5.31,3.99,1.71,5.07-4.69,1.41-4.25-4.44-1.71-5.07Z"/>
  <path d="M439.13,589.63c3.6-1.01,4.81,4.18,1.69,5.07-3.38.96-4.74-4.21-1.69-5.07Z"/>
  <path d="M392.42,315.52c3.42-1.12,4.97,4.17,1.73,5.09-3.61,1.02-4.28-4.26-1.73-5.09Z"/>
  <path d="M439.88,316.21c1.56,2.44-1.4,6.68-3.9,3.57s2.6-5.61,3.9-3.57Z"/>
  <path d="M358.9,572.56c2.88-.24,3.56,6.73-1.35,5.07-2.06-.7-1.38-4.85,1.35-5.07Z"/>
  <path d="M414.15,573.23c5.56-1.67,3.79,6.27-.46,4.16-1.97-.98-1.57-3.55.46-4.16Z"/>
  <path d="M177.32,423.9h9.86c.25,0,4.15,1.62,4.62,1.95,5.02,3.56,4.39,14.18-.78,17.66-3.41,2.3-11.66,3.58-14.69.44v-19.06l.99-.99ZM181.6,441.65c11.35,1.59,11.52-16.24,0-13.8v13.8Z"/>
  <path d="M136.89,309.86c-.08.48-.76,1.99-1.63,1.7-1.22-.13-3.09-.55-3.52-1.81s-.26-17.18.21-17.97c.38-.63,1.95-1.28,2.7-1.31,4.15-.21,6.84,11.12,11.11,11.84l.39-11.78,3.89,1.58v17.75c-5.54,5.62-9.19-8.3-13.15-10.85-.37,3.36.5,7.63,0,10.85Z"/>
  <path d="M131.63,367.7c.76-2.52,11.21-1.8,13.46-.97,5.76,2.14,4.58,10.84-1.62,11.16,1.36,1.52,3.07,3.01,3.88,4.98.59,1.44.94,2.63.72,4.21-1.58.09-3.31.07-4.58-1.01-2.5-2.12-2.58-9.07-7.26-7.54v8.55s-4.6-.99-4.6-.99v-18.4ZM143.4,370.72l-6.09-.62c-1.6.54-1.6,3.88,0,4.41,1.79.19,4.86.63,5.83-1.22l.27-2.57Z"/>
  <path d="M149.38,670.39c-8.49-.53.82,12.79-8.48,11.77-1.91-1.21,1.47-15.64-4.06-10.83-2.6,2.26-.46,7.17-1.55,10.28-1.38,1.24-4.32.93-4.32-1.03v-12.49c0-.32,1.58-1.68,2.29-1.66.91.03,1.62,1.28,2.53,1.21,1.02-.08,1.91-1.43,4-1.21,1.56.16,2.59,1.65,3.35,1.72,2.36.23,7.92-5.5,10.31,2.44,1.03,3.42,2.04,16.18-4.06,9.98v-10.19Z"/>
  <path d="M150.04,488.65c-3.1,3.46-9.08,3.81-13.16,1.98-4.31-1.94-5.97-5.19-5.97-9.87,0-8.21,6.65-12.58,14.54-10.54,2.26.58,5.82,3.37,3.5,5.65-2.74.39-4.5-2.06-7.15-2.04-6.93.06-7.58,12.35-1.82,13.68,3.88.89,6.77,0,6.11-4.45-2.64.47-6.69-.51-4.62-3.63l8.56-.31v9.53Z"/>
  <path d="M159.57,242.49h10.52c.67,0,4.38,3.47,4.94,4.27,4.58,6.55,1.18,15.59-6.97,16.71-2.67.37-7.81.76-9.47-1.59v-18.4l.99-.99ZM163.19,258.92c12.93,2.77,12.05-14.56,0-12.49v12.49Z"/>
  <path d="M152.67,219.81c.81-2.59,3.95-.39,4.82-.46,1.09-.1,1.93-1.39,4-1.18,1.67.17,2.67,1.75,3.46,1.87,1.58.24,7.62-5.39,10.56,1.27,1.33,3.02,2.42,15.42-3.67,11.88l-.14-10c-.44-1.66-3.3-1.11-4.39-.24l-1.43,10.72c-6.13,1.93-1.79-8.2-3.92-11.16-8.81-3.2-.44,16.98-9.28,9.8.61-3.18-.83-9.84,0-12.49Z"/>
  <path d="M173.71,668.09c.1-.33,1.5-1.28,1.94-1.36,2.64,1.87,4.23-.52,6.95-.35,2.16.14,2.69,2.05,3.92,2.05,1.65,0,2.83-3.07,6.95-1.7,3.76,1.25,3.56,9.27,3.25,12.53-.2,2.07-.46,3.74-2.88,2.88-2.92-1.05,1.58-13.91-4.57-11.64-3.41,1.51-.54,10.14-2.37,11.44-1.55,1.11-3.99-.66-3.99-2.02v-9.53c-7.84-.12-3.35,7.09-5.32,11.78l-3.89-.6c.66-3.39-.89-10.66,0-13.47Z"/>
  <path d="M143.74,215.94c1.78,2.68,5.13,10.14,5.99,13.39.36,1.35.64,2.65.02,4l-1.99.66-3.39-4.55c-1.8.08-7.54-.75-8.47.56-.61.86-.09,2.85-1.62,3.64-6,3.09-3.26-5.47-2.18-8.07.31-.73,1.22-.77,1.45-1.34.81-2,3.29-10.27,4.15-11.15,2.96-3.01,4.78.97,6.04,2.87ZM140.82,219.48c-1.11-1.09-1.1.35-1.37.92-.33.71-1.54,4.72-1.25,4.99h3.94c.35-.35-1.03-5.62-1.33-5.91Z"/>
  <path d="M216.44,416.02c-1.7.55-3.31.42-4.6-.99v-9.86c0-.17-1-1.23-1.54-.9-4.61,1.75-2.59,7.79-3.13,11.67l-1.97.41c-4.46-1.02.84-11.62-4.33-12.07s.12,15.91-6.78,10.74v-13.15c1.53-2.44,3.47.08,4.27.09.49,0,1.73-1.26,3.93-1.12,2,.13,3.57,1.84,3.96,1.83.47,0,1.43-1.25,2.27-1.5,2.17-.65,7.92-.09,7.92,2.67v12.16Z"/>
  <path d="M170.42,584.61c-7.34-4.6-4.22,9.39-5.87,10.56-6.75,2.35-.43-11.6-5.65-11.58-3.47.01-1.91,8.88-2.39,11.11-1.54.7-3.37,1.41-4.51-.23v-13.15c1.15-1.85,2.61-.29,4.2-.39,3.91-.23,6.27.76,7.96.69.83-.03,1.81-1.13,3.26-1.33,5-.67,7.35,1.39,7.6,6.31.14,2.88-.27,12.03-4.61,7.86v-9.86Z"/>
  <path d="M143.73,579.44c.08.16.76.24,1.01.75,1.13,2.33,4.3,9.85,4.88,12.14.49,1.93.05,2.6-1.91,3.16l-1.63-.33c-2.02-5.33-4.99-4.42-10.06-4.33l-1.84,4.54c-7.66,1.69-3.4-6.21-1.83-9.9.24-.55,1.1-.6,1.44-1.35,1.11-2.45,2.24-9.23,4.76-9.71,4.04-.76,3.8,2.36,5.18,5.03ZM140.17,581.66c-1.28-1.26-2.7,4.5-2.62,5.25h3.94c.25-.24-1.13-5.06-1.32-5.25Z"/>
  <path d="M213.35,308.68c-5.12-6.56,3.31-16.01,10.31-11.64l.29-5.95c2.49-1.52,4.62-.61,5,2.31.33,2.53.32,16.1-1.01,17.47l-.76.56c-4.64-1.05-10.2,1.91-13.84-2.75ZM219.55,299.77c-3.06,1.44-3.56,5.8-.81,7.81l2.51.43,2.28-2.23c.56-2.32.27-4.43-1.85-5.78l-2.13-.23Z"/>
  <path d="M215.13,489.96c-.59,3.59-3.96.63-4.95.58-.63-.03-1.64.94-2.65,1.03-14.14,1.23-10.67-20.26,2.99-15.09v-6.57s4.61.99,4.61.99c-.67,5.8.9,13.52,0,19.06ZM206.92,479.38c-4.81-.24-5.01,8.51,0,8.92,4.39-.85,4.12-8.71,0-8.92Z"/>
  <path d="M166.47,639.17c1.35-2.03,3.34-.4,4.93-.46,1.28-.05,2.48-.64,3.94-.59,13.44.44,7.67,20.98-4.27,14.53.67,3.74.07,9.53-4.6,5.58v-19.06ZM172.55,649.19c4.17,4.19,7.41-4.85,3.79-7.42l-3.99.79c-.86,1.36-.94,5.48.21,6.63Z"/>
  <path d="M110.26,574.42l.98,1.64c-2.26,2.59-5.78,1.32-8.78,1.74l-1.07,4.51c2.91-2.04,9.85.43,10.5,3.63,2.04,10.08-10.42,13.07-16.15,6.94-.02-7.33,9.68,4.62,11.51-4.32-1.93-7.35-6.75,1.15-10.83-1.6l1.03-12.53h12.82Z"/>
  <path d="M130.97,639.17c1.39-2.1,3.48-.34,5-.39,1.35-.05,2.58-.68,3.88-.66,12.79.18,7.87,20.73-3.62,14.53.34,2.71-.1,8.1-3.94,6.25l-1.32-1.32v-18.4ZM141.33,642.29c-3.65-3.7-7.39,3.82-4,7.11,1.63.82,3.42,1.03,4.49-.71.65-1.34.55-5.36-.49-6.41Z"/>
  <path d="M147.41,443.95c-.58,3.59-3.96.63-4.95.58-.63-.03-1.64.94-2.65,1.03-14.22,1.31-10.25-20.28,2.33-14.43-1.53-2.58,1.79-10.46,4.32-6.61.14.21.95,4.71.95,4.96,0,4.11.6,10.77,0,14.46ZM138.01,433.87c-3.43,1.04-3.28,8.22,1.08,8.29,3.88-.99,3.95-5.31,1.75-8.08-.84-.5-1.93-.48-2.84-.21Z"/>
  <path d="M136.24,532.37c-2.04,3,8.83,4.85,10.45,7.62,5.52,9.47-10.03,12.31-15.39,6.85-1.34-8.88,6.24.88,10.86-1.33,1.01-7.61-13.85-4.87-10.42-14.69,1.65-4.72,18.01-3.79,14.7,1.55-1.98,3.2-6.79-2.74-10.2,0Z"/>
  <path d="M150.03,325.31c-1.92-3.85,2.89-10.76,4.47-5.45.45,1.5.4,19.12-.16,19.94-1.25,1.42-2.96-.08-4.49.1-1.11.13-2.2,1.07-3.48,1.14-12.17.7-9.29-21.29,3.65-15.73ZM143.62,335.67c2.09,2.08,6.64.95,6.75-2.79.18-5.89-7.64-5.94-7.57,0,0,.82.25,2.21.82,2.78Z"/>
  <path d="M225.65,499.49v20.38c-4.87.32-13.06,2.38-15.63-3.11-3.57-7.62,3.7-15.02,11.02-10.69v-7.23s4.61.66,4.61.66ZM214.16,514.91c4.87,6.4,9.29-2.74,5.29-5.61-3.05-2.19-6.98,2.02-6.28,4.83.13.51.79.52.98.78Z"/>
  <path d="M212.5,682.22c-4.71-1.41-9.07,2.5-13.08-1.71-3.06-6.81,3.94-8.14,9.14-8.82-1.75-3.7-7.02,1.93-8.9-.62-2.03-2.76,5.64-5.14,7.59-4.64-1.18-3-6.03,1.12-7.17-.71-1.32-2.11,2.72-4.49,4.22-4.52,1.68-.03,2.47,2.19,4.93.26l1.21,1.89-2.52,2.74c.41.96,4.6,2.05,4.6,3.95v12.16ZM208.55,675.65c-.97-.48-6.47,1.06-5.25,2.62.85,1.09,6.36.28,5.25-2.62Z"/>
  <path d="M173.61,498.93c-.11,4.82,2.15,15.42.41,19.6-1.13,2.72-2.88,1.24-4.51,1.41-3.82.41-7.18,1.87-9.91-2.08-5.12-7.4,1.66-15.72,10.16-12.46l.3-6.6,3.55.13ZM168.94,509.51c-2.18-1.88-6.91-.81-7,2.78-.1,4.05,4.26,5.47,7.01,3.49,1.08-.77,1.07-5.33-.02-6.27Z"/>
  <path d="M182.25,372.96c1.24-2,2.99-.32,4.35-.39,3.55-.19,7.48-2.14,10.03,1.8,4.54,7.01-1.54,16.72-9.77,12.07l-.29,5.95c-1.38,1.24-4.32.93-4.32-1.03v-18.4ZM187.67,382.33c3.52,3.52,8.63-2.62,5.09-6.07-3.83-3.74-8.09,3.07-5.09,6.07Z"/>
  <path d="M102.7,307.56c.36.31,6.13-.25,7.55,0,2.37.42,2.07,2.68.31,3.58-2.01,1.03-10.45.79-12.8.36-1.94-.36-1.89-1.87-1.62-3.57.56-3.47,13.46-9.57,9.67-13.36-3.38-3.38-5.8,6.45-9.65,1.38-.51-8.22,16.3-6.96,15.58.59-.27,2.83-5.88,7.05-7.95,9.15-.57.58-1.44.55-1.1,1.85Z"/>
  <path d="M149.38,603.67c4.56-3.61,4.38,2.95,3.95,6.24,12.55-6.62,16.5,15.08,4.27,15.01-1.33,0-2.67-.81-4.04-.97s-3.06,1.32-4.18-.55v-19.72ZM154.8,613.37c-1.7,1.47-1.93,6.71.95,7.6,8.31,2.56,4.79-12.55-.95-7.6Z"/>
  <path d="M199.35,624.38c-4.26-1.09-7.18,1.83-11.36-.15-8.54-4.06-2.33-20.67,7.4-14.31-.04-3.4-.97-9.78,3.95-6.24v20.7ZM194.59,620.28c3.85-9.76-9.03-10.61-5.71-.22,1.28,1.8,4.04,1.13,5.71.22Z"/>
  <path d="M110.39,368.88c3.15,3.93-1.96,6.61-1.77,7.36,8.15,5.57.27,12.66-7.41,11.35-6.09-1.04-6.73-6.63-2.27-5.65,2.07.45,4.24,3.75,7.11.94,2.9-5.12-4.84-3.08-5.34-6.63-.22-1.54,3.05-1.41,4.34-2.91.62-.72,1.14-1.28.93-2.33-2.88-2.94-6,1.31-9.2.3-1-6.97,10.34-6.52,13.61-2.44Z"/>
  <path d="M109.38,482.3c7.14,2.69.72,3.29,0,4.13-.44.52.3,2.64-.42,3.86-1.85,3.15-6.68-.85-4.28-3.95-2.04-.42-9.8,1-10.47-1.07-.44-3.46,3.57-5.75,5.19-7.8,1.42-1.79,4.52-7.21,6.41-7.45,5.88-.74,2.59,8.87,3.58,12.28ZM104.67,483.06c-1.01-2.21-.25-3.75-.32-5.91l-4.28,5.91h4.6Z"/>
  <path d="M248.3,612.26c2.37,3.3,2.19,7.92,1.06,11.84-5.14-.56-9.3,2.3-13.91-.79-2.92-7.24,3.36-7.65,8.61-9.12-1.23-3.86-4.18-.23-5.76.19-5.18,1.39-4.66-4.47,1.63-5.61,4.31-.78,5.96.15,8.36,3.49ZM244.71,617.81l-4.6.99-.66,2.29c2.33.17,5.7-.16,5.25-3.28Z"/>
  <path d="M198.69,548.46c-1.02,1.6-3.49,1.25-4.27-.33-1.33-2.69,2.02-7.7-.74-10.57-1.69-.04-3.6.53-4.36,2.18-1.56,3.41,1.82,12.56-4.49,8.78-.97-1.25-.99-18.51,0-19.83,3-3.96,5.06,3.71,4.01,6.3,2.27-2.48,9.86-.7,9.86,2.3v11.17Z"/>
  <path d="M146.09,262.54c-1.23,2-2.99.32-4.35.39-3.56.19-6.71,1.91-9.78-1.39-2.4-7.5,4-6.84,8.86-8.88-.46-2.78-4.6.14-5.63.32-2.81.51-5.17-1.17-2.5-3.18,4.48-3.37,9.7-2.42,13.39,1.56v11.17ZM141.49,256.95c-2.32-.17-5.7.16-5.25,3.28.8.78,5.78-1.15,5.25-3.28Z"/>
  <path d="M184.39,229.86c2.14,1.64,7.61-2.31,8.73-.53,1.49,4.67-6.56,5.26-9.59,4.32-3.2-.99-6.37-6.89-5.04-10.06.08-.18.88-.25,1.1-.65,1.29-2.29,1.61-3.78,4.58-4.48,4.5-1.07,9.14.98,10.29,5.63,1.27,5.12-6.96,3.53-9.87,3.37-1.27.25-.81,1.94-.21,2.41ZM188.83,224.08c.1-2.58-3.38-2.6-4.59-.97l4.59.97Z"/>
  <path d="M184.22,257.61c-.79,5.37,7.81-.1,9.21,1.32.82,4.67-5.48,5.12-8.84,4.56-3.53-.6-3.81-2.79-5.03-5.36-.23-.49-1.1-.5-1.23-.99-.61-2.32,2.06-7.06,4.11-8.21,9.8-5.48,20.9,11.93,1.77,8.68ZM189.49,253.66c-1.1-2.21-3.28-2.08-5.26-1.3-1.79,1.85,4.75,1.3,5.26,1.3Z"/>
  <path d="M171.08,681.24c-1.34,2.1-3.52.29-4.95.43-2.71.26-5.88,2.39-8.66-.94-4.07-4.89,4.07-9.15,8.35-9.03-2.07-3.36-5.61.85-8.54,0-.56-6.2,8.74-6.65,12.13-3.25.24.24,1.67,2.76,1.67,2.93v9.86ZM166.47,675.66c-1-.14-5.9.69-5.9,1.64,1.9,2.88,5.13,1,5.9-1.64Z"/>
  <path d="M153.99,543.53c.93,5,7.32.26,8.8.68l1.1,1.62c.39,4.51-9.92,5.97-13.1.54-7.19-12.3,12.37-17.76,13.68-7.07.75,6.14-6.54,3.78-10.49,4.22ZM159.9,538.28c-2.31-.76-4.7-1.45-5.91,1.3.5-.05,7.77.62,5.91-1.3Z"/>
  <path d="M191.25,582.52c1.26,1.36,2.37,5.03.59,6.43-1.65,1.3-9.62.02-9.6.93,1.93,4.19,6.75-.69,9.87.99-.62,6.9-10.68,6.21-14.09,1.26-5.99-8.71,7.33-15.98,13.22-9.61ZM187.51,585.59l-1.66-2c-1.61-.24-2.64.44-3.58,1.68,1.4,1.91,3.51.67,5.24.32Z"/>
  <path d="M265.09,305.59v1.97c2.44,1.27,8.93-3.47,9.25.34.37,4.32-9.71,5.19-12.85.96-.28-.38-2.36-4.41-2.38-4.89-.08-1.93,3.23-6.66,5.29-7.29,6.32-1.94,13.01,1.33,9.94,8.62l-9.25.29ZM269.64,300.39c-.65-1.01-5.84-.96-4.54,1.91h4.59c-.07-.58.18-1.55-.05-1.91Z"/>
  <path d="M193.43,510c-.02-3.57-5.68.14-6.86.04-4.28-.35-1.68-4.7,2.66-5.24,10.04-1.24,10.62,7.19,8.85,14.79-4.2-.69-9.68,3.11-12.91-.99-4.26-5.41,3.65-8.99,8.27-8.6ZM194.08,513.3l-5.26.66v2.62c2.24-.05,5.82-.28,5.26-3.28Z"/>
  <path d="M184.88,490.95c-1.82,1.16-2.9-.38-4-.35-2.93.08-6.69,2.9-9.46-.98-3.89-5.45,4.34-8.74,8.86-8.53,1.39-1.18-2.5-1.92-2.99-1.89-1.13.07-7.75,4.64-6.12-.94,1.11-3.77,13.71-3.74,13.71,1.85v10.85ZM180.12,486.86c.73-.53.92-2.04-.15-2.46l-4.9,1.34-.04,1.92c.29.3,4.45-.33,5.09-.8Z"/>
  <path d="M163.11,653.22c-3.36-1.11-5.91.97-8.79.77-5.41-.36-7.23-7.16-2.03-9.29,1.83-.75,4.22-.64,5.99-1.25,2.85-.98-.87-2.23-2.61-2-1.57.2-2.71,2.36-4.51,1.89l-1.74-1.64c.89-4.28,9.99-4.56,12.43-2.52,2.93,2.45,2.34,10.67,1.26,14.03ZM153.32,650.01c2.48.15,6.31.15,5.91-3.28l-5.53,1.25-.39,2.03Z"/>
  <path d="M181.6,548.46c-7.15,4.04-4.9-5.56-5.36-9.76-.48-1.49-2.55-1.48-3.53-.44l-1.26,10.56c-1.08,1.58-4.97.07-4.97-1.68v-11.83c2.12-2.97,3.92-.33,5.48-.47,1.28-.11,2.02-1.37,4.63-1.14,1.65.15,5.01,1.85,5.01,3.58v11.17Z"/>
  <path d="M241.42,381.18c-.1,5.65,6.54-.16,9.23,1.62,2.25,4.66-6.53,5.74-9.71,4.45-2.07-.84-5.65-6.12-4.82-8.41,1.41-1.2,1.24-2.81,1.98-3.93,3.29-4.94,13.24-3.37,13.84,2.72.55,5.53-7.07,3.03-10.52,3.55ZM241.43,377.89l5.24-.98c-.02-1.31-5.76-1.87-5.24.98Z"/>
  <path d="M204.61,381.18c1.72,5.26,6.09.51,9.86,1.32.67,2.98-2.89,5.01-5.58,5.27-8.05.8-10.3-5.38-8.4-12.35,5.19-6.84,17.56-2.45,13.65,5.76h-9.53ZM210.52,377.89c-1.03-2.39-5.01-3.21-5.91-.32l5.91.32Z"/>
  <path d="M198.69,652.31c-.72,2.66-3.11.37-4.16.46-.71.06-1.68.99-2.78,1.15-2.89.41-7.34-.79-7.52-4.29-.28-5.6,5.99-5.27,9.85-6.2-1.71-6.13-9.02,4.66-9.11-2.82.69-2.93,10.09-3.34,12.1-1.15.43.42,1.61,2.59,1.61,2.99,0,2.33.47,8.14,0,9.86ZM194.08,647.39l-4.87.59-.39,2.03,4.62-.31.64-2.31Z"/>
  <path d="M154.64,381.18c.88,6.02,9.5-1.33,9.91,2.97.38,3.96-10.53,5.86-13.33.13-3.65-7.46,2.14-15.04,10.38-11.69,2.81,1.14,4.99,6.33,2.58,8.6h-9.53ZM160.55,377.89c-.17-3.28-4.49-2.05-5.91-.32l5.91.32Z"/>
  <path d="M153.53,303.81c1.82-2.26,6.84-1.01,9-3.15-2.86-2.41-5.83,1.51-8.06.9-.58-.27-1.66-1.08-1.76-1.63-.51-3,12.75-6.91,14.27,1.55.32,1.76.5,7.26-.18,8.71-1.19,2.53-2.84.27-3.93.25-.91-.02-2.61,1.43-4.04,1.53-4.58.31-8.38-4.33-5.3-8.15ZM162.53,304.93c-1.05.09-5.58.47-5.25,2.29.27,1.55,6.61.72,5.25-2.29Z"/>
  <path d="M171.73,618.46c1.29,5.6,7.78.14,9.81,1.37l.4,1.99c-.77,3.19-8.79,4.15-11.2,1.92-4.68-4.75-5.43-9.26.39-13.44s14.04,2.17,10.8,8.17h-10.19ZM177.65,615.17c.22-1.67-1.66-2.36-2.97-2.61l-2.94,2.29,5.91.32Z"/>
  <path d="M209.87,310.52c-.1.36-1.07,1.17-1.64,1-2.66-2.29-2.88-.27-4.64-.04-12.28,1.55-9.61-11.75,1.67-9.84-1.52-5.91-8.53,3.93-9.14-2.83,2.23-3.61,9.83-3.8,12.44-.8.25.65,1.3,2.18,1.3,2.65,0,2.26.46,8.26,0,9.86ZM205.26,304.93c-1.09.43-5.64.39-5.25,2.29,1.83,2.21,5.85.43,5.25-2.29Z"/>
  <path d="M220.39,676.31c1.08,5.32,6.72,0,9.22,1.62.61.39.99,1.1.32,1.68-5.45,5.76-15.08,2.36-14.11-6.18,1.14-9.97,15.32-8.64,15.12-.05-.12,4.78-7.45,2.39-10.55,2.93ZM226.3,672.36c-.13-3.09-4.59-2.45-5.91-.32l5.91.32Z"/>
  <path d="M207.24,618.46c1.22,5.49,6.28.42,9.86,1.31v2.81c-7.37,6.28-17.77-.35-13.63-9.54,3.57-7.92,18.06-3.09,13.3,5.41h-9.53ZM212.45,613.26c-2.41-1.06-4.5-.84-5.21,1.91h5.26s-.05-1.91-.05-1.91Z"/>
  <path d="M232.15,484.96l-10.44.08c1.13,5.59,6.83.34,9.88,2.34.6,5.66-12.24,6.22-13.69-.18-3.37-14.88,16.04-15.67,14.25-2.23ZM227.62,481.74c-.13-3.09-4.59-2.45-5.91-.32l5.91.32Z"/>
  <path d="M136.71,609.41c12.16-2.49,14.19,13.64,3.64,15.47-11.31,1.97-13.68-13.42-3.64-15.47ZM138.63,612.69c-4.32.4-4.45,8.75.45,8.92,4.58-.78,3.74-9.31-.45-8.92Z"/>
  <path d="M211.68,438.85c-1.39,1.37-7.84-.47-10.36.83,3.1,4.1,5.82,1.23,9.86,1.31.43,7.16-11.83,5.51-13.51.03-2.53-8.24,5.02-14.26,11.78-9.8,1.92,1.26,3.91,5.98,2.23,7.63ZM207.23,435.73c.1-2.58-3.38-2.6-4.59-.97l4.59.97Z"/>
  <path d="M202.33,545.8c-6.9-10.08,12.33-17.49,14.61-6.39,2.11,10.25-8.97,14.62-14.61,6.39ZM211.68,545.34c1.33-2.54,1.46-5.74-1.18-7.4-5.99-2.72-6.64,11.47,1.18,7.4Z"/>
  <path d="M232.22,647.38h-9.86c-.85,6.42,10.43-1.61,9.1,3.5-1.15,4.42-12.97,5.04-13.73-3.8-1.15-13.36,17.14-11.31,14.49.29ZM227.57,642.19c-2.2-1.08-4.94-1.15-5.2,1.91h5.26s-.06-1.91-.06-1.91Z"/>
  <path d="M145.24,403.06c.79.7,2.04,4.89,2.05,6.05.01,5.83-4.8,8.21-10.09,7.57-10.75-1.29-7.24-18.23,3.83-15.65.32.07,4.04,1.87,4.21,2.03ZM141.33,412.57c1.19-1.2,1.09-5.29.11-6.69-4.89-3.45-7.25,1.96-5.26,6.41.85,1.34,4.09,1.35,5.15.28Z"/>
  <path d="M207.24,589.54c2.56,5.16,5.79.53,9.86,1.32,1.16,4.34-4.82,5.59-8.04,5.13-7.49-1.07-8.86-16,1.8-15.7,5.39.15,7.53,2.83,6.8,8.17l-.88,1.09h-9.53ZM213.15,585.59c-.86-3.6-7.6-1.2-4.44.19,1.72.76,2.75.28,4.44-.19Z"/>
  <path d="M223.67,410.1c-.23,4.81,5.92,2.09,8.82,1.34,3.37,4.43-3.66,5.66-7.19,5.25-8.96-1.05-8.33-18.81,4.31-15.47,3.58.94,6.19,6.01,3.6,8.89h-9.53ZM229.59,407.47c.49-3.83-3.99-3.09-5.91-.97-.86,1.81,5.23.68,5.91.97Z"/>
  <path d="M164.5,439.02h-9.53c-1.47,0-.76,2.26,1.35,2.62,2.95.51,4.89-1.58,7.51-.63.12,6.72-10.96,6.15-13.46.64-5.65-12.44,16.38-17.3,14.14-2.63ZM159.9,436.39c1.08-3.17-4.46-3.49-5.25-1.63l.33,1.64h4.92Z"/>
  <path d="M133.85,518.95c-7.13-4.72-1.4-16.38,7.45-13.69,12.56,3.81,3.57,20.99-7.45,13.69ZM141.33,509.51c-1.06-1.07-4.3-1.06-5.15.28-2.56,4.02,1.81,10.33,5.64,5.48.63-1.3.51-4.75-.49-5.76Z"/>
  <path d="M188.65,324.8c12.2-2.49,12.96,14.54,3.62,16.16-10.28,1.78-13.23-14.2-3.62-16.16ZM188.27,336.39c.57.36,3.24.2,4.05-.04,2.78-.81,3.26-8.76-2.46-7.75-3.49.61-2.55,7.2-1.59,7.79Z"/>
  <path d="M229.59,443.95c-.75,2.64-3.91.98-5,1.05-2.84.19-6.62,1.88-8.72-1.13-2.48-3.56-.54-9.24-.65-13.29,1.45-.75,2.59-1.01,3.52.56l.43,9.43c.49,1.49,2.69,1.34,3.86.76,2.23-1.33.88-7.75,1.42-10.08.99-1.18,5.15-1.44,5.15.22,0,2.77.56,10.52,0,12.49Z"/>
  <path d="M223.78,620.33c3.97,2.64,5.15-.63,9.09-.55.34,2.68-.28,4.66-3.29,4.6,3.09,4.88.02,8.16-5.26,7.88l.03-3.26c1.56-.01,3.47.04,3.24-1.98-1.76-1.55-5.15-2.83-6.47-4.38-4.72-5.54-.65-14.42,6.8-14.09,3.21.14,7.64,3.58,3.82,5.89-1.75.46-2.24-1.75-3.82-1.91-5.08-.53-4.61,4.11-4.15,7.79Z"/>
  <path d="M168.45,477.14v13.8c-4.66-1.41-9.63,2.69-13.5-1.29-2.96-3.04-2.48-17.12,2.38-13.55l1.36,10.47c7.24,5.01,4.11-7.48,5.46-9.47l4.31.03Z"/>
  <path d="M190.39,405.92c.21.33,1.18.36,1.46,1.49.65,2.59-3.26,8.23-5.62,8.96-10.73,3.33-14.89-11.96-5.78-14.97,5.28-1.75,7.43.51,9.94,4.51ZM185.99,411.86c1.66-2.29.68-5.47-1.41-7.09-3.97-2.69-6.65,7.57-1.23,8.48.57.03,2.33-.96,2.64-1.4Z"/>
  <path d="M159.47,326.85c6.11-6.39,17.95,1.09,12.16,10.51-5.79,9.43-20.3-1.99-12.16-10.51ZM167.39,330.31c-4.95-4.95-7.2,1.95-4.77,6.08l5.66-.72c1.62-3.11,1.07-3.39-.9-5.36Z"/>
  <path d="M226.82,218.3c10.13-.75,11.1,13.82,3.61,15.5-13.94,3.13-14.73-14.68-3.61-15.5ZM226.14,222.23c-.87.17-2.05.74-2.35,1.63l-.02,5.06,4.04,1.61c4.5-.67,4.39-9.53-1.67-8.3Z"/>
  <path d="M234.03,504.9c13.6-2.14,12.51,19.73-1.84,15.33-5.46-1.68-6.45-14.03,1.84-15.33ZM238.64,509.51c-4.4-4.4-9.24,4.3-5.11,6.75,4.5,2.67,8.17-3.69,5.11-6.75Z"/>
  <path d="M238,295.87c9.56-.77,11.79,12.96,3.59,15.47-12.09,3.7-15.07-14.55-3.59-15.47ZM241.27,300.49c-3.22-1.79-6.77.15-6.41,4.04.33,3.47,5.23,4.51,6.59,2.08,1.16-1.78.81-4.33-.19-6.12Z"/>
  <path d="M174.2,296.55c5.28-1.34,11.05.78,11.37,6.76.58,10.77-15.31,11.27-15.83,1.26-.16-3.01,1.27-7.22,4.46-8.03ZM180.11,307.4c3.65-2.99-.25-9.27-5.13-6.78v6.68c.64,1.16,4.46.65,5.13.1Z"/>
  <path d="M179.59,373.34c-.28,5.94-5.34.47-7.84,2.91l8.2,4.28c2.8,8.15-11.63,9.74-13.52,2.97.34-3.83,6.23.74,8.59-.34.4-2.3-3.14-1.7-4.6-2.29-3.09-1.25-4.97-3.43-3.08-6.72,3.78-3.2,8-2.47,12.26-.8Z"/>
  <path d="M209.87,222.12c-.32,1.71.32,1.16,1.31,1.61,2.15.99,5.41.97,6.29,3.6,2.82,8.45-11.49,8.25-12.76,3.54s6.59-.07,8.45-.88c.31-1.7-.31-1.16-1.3-1.62-2.84-1.29-5.53-1.38-6.96-4.93-1.4-5.48,9.79-7.43,12.12-2.86l-.95,2.81-6.17-1.28Z"/>
  <path d="M224.61,250.11c.5.53,1.6.04,1.03,1.57-3.23,3.04-5.87-1.74-7.88,1.32,15.83,3.36,6.62,15.14-4.97,8.59-.6-1.01-.55-2.84.79-3.27,1.91-.66,5.99,3.13,7.46,1.25,1.33-1.68-7.23-3.49-8.22-5.26-2.66-4.75,6.78-9.46,11.79-4.2Z"/>
  <path d="M173.05,415.03c-.37,1.21-3.48,1.5-4.31.34l.26-9.44c-8.09-6.36-4.8,7.65-6.09,9.46l-3.57.52c-1.52-2.53-.02-4.83-.03-7.46,0-2.49-1.58-4.85,0-7.51,4.27,1.4,7.95-2.16,11.96.58.24.16,1.79,2.18,1.79,2.33v11.17Z"/>
  <path d="M210.52,262.54c-.08.28-.75.66-1,.99-3.51-2.14-7.26,1.74-11.1-.72-2.5-1.6-3.41-11.91-1.4-13.75,5.98-3.05,2.7,6.34,3.73,9.45,1.82,2.52,5.07.78,5.68-2.02.7-3.19-1.56-10.83,4.09-7.09-.63,3.43.86,10.21,0,13.15Z"/>
  <path d="M205.27,329.9c5.07.68,9.2,3.22,6.63,8.93-.58.81-3.49,2.01-4.5,2.13-2.89.33-9.67-3.48-6.75-5.49,1.9-1.63,6.52,2.78,7.91,1,1.45-1.87-7.02-3.24-7.56-4.59-4.18-8.47,11.51-9.14,11.54-4.28.02,3.72-6.3-.77-7.26,2.3Z"/>
  <path d="M236.17,433.77c-.34,1.87.46,1.08,1.44,1.48,3.38,1.38,7.84,2.16,6.32,7.25s-14.03,4.66-12.36-2.15c3.49-.34,5.32,4.06,8.53.33l-7.81-3.35c-5.11-8.92,13.02-9.69,11.05-3.3-.8,2.59-5.01-1.4-7.18-.25Z"/>
  <path d="M104.02,217.51c-.21-.24-5.2,2.16-5.29-1,.02-2.16,8.58-5.47,9.89-1.96v18.4c0,.28-1.62,1.74-2.3,1.66-.68.08-2.3-1.38-2.3-1.66v-15.45Z"/>
  <path d="M230.94,371.95c2.83.11,5.35.39,3.3,3.69l-3.33.29.09,7.15c.44.67,6.85.53,3.87,3.7-8.26,3.42-8.32-4.67-7.98-10.76l-3.24-1.11.11-2.19,3.11-.84c.26-2.9.11-6.08,3.76-3.88l.32,3.96Z"/>
  <path d="M180.11,319.56c1.15.99,1.13,15.56.78,17.86-.58,3.78-4.77,4.94-5.21.05-.3-3.36-.54-13.43.02-16.42.5-2.65,2.43-2.42,4.42-1.5Z"/>
  <path d="M188.27,490.85c-.99-.62-1.13-12.25-.42-13.7.91-1.88,7.38-.93,9.55-1l.63,1.98c-7.1,1.91-4.72,6.4-5.54,12.21l-4.22.52Z"/>
  <path d="M133.6,325.29l-2.52-2.27c1.15-2.36,5.52-6.23,6.49-1.98l-2.58,3.37c2.38,4.36.92,10.04,1.16,14.93-.37,1.34-2.92,1.48-3.9.8-.88-.62-.97-13.16-.28-14.2.28-.43,1.11-.6,1.64-.64Z"/>
  <path d="M260.49,297.06c1.31,1.59-4.52,2.72-5.3,3.56-2.35,2.54-.43,8.61-1.57,10.26s-4.06.39-4-1.65l-.02-12.22c1.02-1.45,3.28-.04,4.56-.16,2.43-.24,3.29-2.01,6.32.21Z"/>
  <path d="M230.22,536.93l-5.75,2.13c-1,2.3.65,10.23-2.04,10.72-3.92.71-1.93-5.09-1.99-7.24-.08-2.71-1.59-5.52.11-8.05,1.38-1.28,2.51.28,3.85.2,2.6-.15,6.3-3.23,5.83,2.25Z"/>
  <path d="M181.6,518.88c-1.06,1.45-2.79,2.46-4.31,1.02.26-4.34-4.01-19.84,4.31-13.51v12.49Z"/>
  <path d="M217.1,373.62c.42-1.37,3.84-1.47,4.6,0v12.49l-2.42,1.54c-.69.19-2.18-1.33-2.18-1.54v-12.49Z"/>
  <path d="M205.92,638.18v14.79c-2.75,2.82-2.77-1.49-4.59-1.66l1.29-1.95c-2.75-.22-.7-6.85-1.31-9.4l4.61-1.78Z"/>
  <path d="M165.16,291.13c.69,2.31-1.85,4.99-4.1,4.47-.56-.13-1.11-1-1.62-1.08-.96-.15-5.66,3.51-3.76-2.81l9.47-.58Z"/>
  <path d="M237.96,677.79c4.09,3.48-6.01,7.52-5.09,1.51.39-2.55,3.53-2.84,5.09-1.51Z"/>
  <path d="M118.31,382.66c3.56,3.69-3.73,7.61-4.45,2.76-.44-2.95,2.82-4.45,4.45-2.76Z"/>
  <path d="M217.57,335.26c3.55-.99,4.86,4.09,1.7,5.05-4.6,1.38-4.37-4.31-1.7-5.05Z"/>
  <path d="M246.79,441.09l4.53.19.31,3c-1.03,2.05-4.98,1.71-5.5-.47l.67-2.72Z"/>
  <path d="M114.63,491.51c-1.42-.9-.99-6.13,2.72-5.07,4.78,1.36.18,6.91-2.72,5.07Z"/>
  <path d="M225.83,217.3c-.11-.04-1.64-1.59-1.49-1.75,2.44-.85,4.4-5.35,7.23-2.3-.76,2.71-2.66,5.04-5.74,4.04Z"/>
  <path d="M118.31,595.29c-3.29,3.3-6.94-3.66-2.47-4.84,2.23-.59,4.37,2.93,2.47,4.84Z"/>
  <path d="M204.28,631.2c.79,0,1.94.73,2.21,1.51l-.99,3.43-4.79-1.64c-.7-1.59,2.49-3.3,3.57-3.3Z"/>
  <path d="M234.09,544.95c1.38.86,1.27,5.03-2.21,4.88-4.53-.2-1.99-7.5,2.21-4.88Z"/>
  <path d="M117.65,233.77c-3.44,3.45-7.2-4.49-2.06-4.41,2.54.04,3.89,2.58,2.06,4.41Z"/>
  <path d="M176.43,502.68l-.1-3.85,4.98.61c1.17,3.52-1.92,4.94-4.88,3.24Z"/>
  <path d="M233.44,262.78c-.69,1.09-4.74,1.34-4.89-1.55-.3-5.68,7.2-2.1,4.89,1.55Z"/>
  <path d="M118.31,307.07c2.31,2.35-.84,5.99-3.5,3.84-3.02-2.44,1.31-6.07,3.5-3.84Z"/>
  <path d="M221.61,366.15c1.79,2.83-3.46,6.94-4.5,2.16-.8-3.72,3.97-3,4.5-2.16Z"/>
  <path d="M406.78,728.89c-2.46-1.58-2.23-4.73.8-5.13,1.05-.14,2.03.53,3.08.46,3.82-.23,5.74.07,9.25.1,31.78.24,63.58-.25,95.36-.03,2.28.22,2.21,3.43.66,4.6h-109.14Z"/>
  <path d="M109.6,738.09h93.36c1.26.71,1.49,3.53.37,4.31-29.83,1.96-59.86.5-89.77.93l-5.32-1.25c-.85-1.67.03-2.99,1.37-4Z"/>
  <path d="M73.44,728.89c-1.8-1.18-1.16-4.74.8-5.18.98-.22,1.58.58,1.82.58h65.75c1.6,0,1.6,4.6,0,4.6h-68.38Z"/>
  <path d="M460.53,742.53c-1.94-1.65-.55-4.12,2.1-4.47,9.55-1.24,21.74.99,31.59.03,3.62,1.91,2.95,4.78-1.3,5.27-6.75.79-21.33.55-28.3.01-.97-.08-3.46-.32-4.08-.85Z"/>
  <path d="M466.12,374.11c2.27,2.87-.13,8.56-3.79,6.76-4.05-2-1.11-10.23,3.79-6.76Z" fill="#fff"/>
  <path d="M326.33,381.09c-1.43-5.58,4.34-7.25,7.04-2.72.44,1.5-.26,2.8-1.68,3.33l-5.36-.62Z" fill="#fff"/>
  <path d="M332.75,367.44c2.13,2.45-3.7,6.87-5.53,3.23-2.02-4.02,4.65-4.24,5.53-3.23Z" fill="#fff"/>
  <path d="M409.37,280.99c.16.23.87.23,1,.75.86,3.42-4.33,7.06-6.61,3.85-1.03-1.28-.84-5.08.2-6.13,2.92-1.67,3.76-.81,5.4,1.53Z" fill="#fff"/>
  <path d="M431.34,381.08c-7.09,2.34-7.12-9.47-1.03-7.68,2.79,1.29,1.97,5.25,1.03,7.68Z" fill="#fff"/>
  <path d="M330.64,547.6c4.53-.03,5.57,18.51-2.65,14.21-2.89-1.87-3.07-14.18,2.65-14.21Z" fill="#fff"/>
  <path d="M327.06,477.64c-3.26-3.19,2.82-8.63,5.82-4.84,3.15,3.99-2.78,7.8-5.82,4.84Z" fill="#fff"/>
  <path d="M389.16,403l3.06-.05c3.22,3.09,1.87,8.6-3.06,7.69-2.59-.77-2.62-6.86,0-7.64Z" fill="#fff"/>
  <path d="M331.99,223.59c5.08,4.4-7.14,10.8-6.47,2.13.25-3.23,4.69-3.66,6.47-2.13Z" fill="#fff"/>
  <path d="M453.94,250.51c2.55-2.64,9.71,1.89,5.47,6.47-3.94,4.25-8.78-3.04-5.47-6.47Z" fill="#fff"/>
  <path d="M453.12,327.93c-1.13-.45-5.29,1.1-5.25-.97,1.33-1.64,5.36-1.69,5.25.97Z" fill="#fff"/>
  <path d="M407.76,330.57c.42,2.98-3.11,4.61-5.24,2.3,1.19-1.94,3.45-1.46,5.24-2.3Z" fill="#fff"/>
  <path d="M383.44,325.97v1.97s-4.6,0-4.6,0c-.1-2.59,2.78-1.98,4.6-1.97Z" fill="#fff"/>
  <path d="M387.38,226.72l-.41,2.01c-1.8.79-3.45,1.58-5.5,1.27l.67-2.28,5.24-1Z" fill="#fff"/>
  <path d="M406.44,433.76c-1.13-.45-5.29,1.1-5.25-.97,1.33-1.64,5.36-1.69,5.25.97Z" fill="#fff"/>
  <path d="M405.79,583.63c.52,2.89-5.28,2.25-5.24.98l2.31-1.65,2.93.68Z" fill="#fff"/>
  <path d="M430.12,588.23c.25,2.04-4.93,4.22-5.26,2.28-.3-1.82,4.19-2.2,5.26-2.28Z" fill="#fff"/>
  <path d="M494.54,559.31c-.4,3.06-3.3,3.67-5.91,3.28l.67-2.28,5.24-1Z" fill="#fff"/>
  <path d="M451.82,515.26c-.54-3.5,3.73-2.7,5.91-3.94.33,2.97-3.45,4.28-5.91,3.94Z" fill="#fff"/>
  <path d="M391.98,254.98c.52,3.03-6.12,4.57-6.57,2.29-.39-2,5.36-2.14,6.57-2.29Z" fill="#fff"/>
  <path d="M387.38,483.06l-.41,2.01c-1.8.79-3.45,1.58-5.5,1.27l.67-2.28,5.24-1Z" fill="#fff"/>
  <path d="M400.03,222.27l2.78-.83c9.43,6.78-7.28,14.36-2.78.83Z" fill="#fff"/>
  <path d="M501.78,375.25l-5.24-.32c1.6-1.96,4.01-2.02,5.24.32Z" fill="#fff"/>
  <path d="M445.89,281.26c-1.42-.03-2.86.07-4.28,0-1.01-.04-2.6.62-2.29-.98,1.67-1.9,5.47-1.19,6.57.97Z" fill="#fff"/>
  <path d="M387.38,378.55c.27,2.12-5.07,4.09-5.91,3.28l.67-2.28,5.24-1Z" fill="#fff"/>
  <path d="M443.26,556.01l-5.91-.32c1.7-2.38,4.69-2.35,5.91.32Z" fill="#fff"/>
  <path d="M387.38,559.31l-.41,2.01c-1.8.79-3.45,1.58-5.5,1.27-.54-3.23,3.56-3.29,5.91-3.28Z" fill="#fff"/>
  <path d="M428.14,404.84l-5.25-.32c1.11-1.92,5.07-2.85,5.25.32Z" fill="#fff"/>
  <path d="M366.34,433.76l-5.91-.32c.83-2.47,2.63-1.74,4.82-1.53l1.09,1.85Z" fill="#fff"/>
  <path d="M443.93,375.25c.41-1.8,5.9-1.67,5.9-.32-1.55,1.91-3.98.78-5.9.32Z" fill="#fff"/>
  <path d="M495.2,252.34c-1.86-.21-4.94.88-5.91-1.3,2.12-.18,5.74-2.06,5.91,1.3Z" fill="#fff"/>
  <path d="M470.87,407.47c.58,2.07-2.38,4.31-4.13,3.85l-1.77-1.55,5.9-2.3Z" fill="#fff"/>
  <path d="M484.5,402.98c1.08-.32,2.3-.26,3.21.48,3.18,3.06-.49,10.59-4.05,6.67-1.49-1.64-1.7-6.41.83-7.15Z" fill="#fff"/>
  <path d="M392.64,507.39c.04,2.81-3.32,1.87-5.25,1.96-.4-3.62,2.75-2.75,5.25-1.96Z" fill="#fff"/>
  <path d="M400.03,561.77c-1.03-1.03-1.14-5.08-.49-6.41,8.78-6.15,6.27,12.21.49,6.41Z" fill="#fff"/>
  <path d="M404.32,485.53c-.46.46-1.48.72-2.14.73l-2.35-1c-1.97-4.4.11-10.25,4.98-6.13.66,1.34.54,5.37-.49,6.41Z" fill="#fff"/>
  <path d="M493.89,480.43c-.76-.33-6.64.89-5.91-.97,1.65-2.56,5.6-2.32,5.91.97Z" fill="#fff"/>
  <path d="M401.68,373.4c.96-.17,1.75-.21,2.53.49,1.46,1.19,1.12,4.92.6,6.64-5.84,4.98-8.09-6.27-3.13-7.13Z" fill="#fff"/>
  <path d="M442.42,477.93c6.3-1.89,5.94,7.41,3.01,8.29-6.3,1.89-5.94-7.41-3.01-8.29Z" fill="#fff"/>
  <path d="M366.8,409.91c-4.3,5.29-8.59-2.33-5.62-6.94l5.2.85c1.42,1.62,1.87,4.31.42,6.09Z" fill="#fff"/>
  <path d="M181.6,441.65v-13.8c11.52-2.44,11.35,15.39,0,13.8Z" fill="#fff"/>
  <path d="M143.4,370.72l-.27,2.57c-.96,1.85-4.03,1.41-5.83,1.22-1.6-.53-1.6-3.87,0-4.41l6.09.62Z" fill="#fff"/>
  <path d="M163.19,258.92v-12.49c12.05-2.07,12.93,15.26,0,12.49Z" fill="#fff"/>
  <path d="M140.82,219.48c.3.29,1.67,5.57,1.33,5.91h-3.94c-.29-.27.92-4.28,1.25-4.99.26-.57.25-2.02,1.37-.92Z" fill="#fff"/>
  <path d="M140.17,581.66c.19.19,1.58,5.01,1.32,5.25h-3.94c-.08-.75,1.34-6.51,2.62-5.25Z" fill="#fff"/>
  <path d="M219.55,299.77l2.13.23c2.11,1.35,2.41,3.45,1.85,5.78l-2.28,2.23-2.51-.43c-2.75-2.01-2.25-6.37.81-7.81Z" fill="#fff"/>
  <path d="M206.92,479.38c4.13.21,4.39,8.06,0,8.92-5.02-.41-4.81-9.16,0-8.92Z" fill="#fff"/>
  <path d="M172.55,649.19c-1.15-1.15-1.07-5.27-.21-6.63l3.99-.79c3.62,2.57.38,11.61-3.79,7.42Z" fill="#fff"/>
  <path d="M141.33,642.29c1.03,1.05,1.14,5.07.49,6.41-1.07,1.73-2.86,1.52-4.49.71-3.38-3.29.36-10.81,4-7.11Z" fill="#fff"/>
  <path d="M138.01,433.87c.91-.28,2-.29,2.84.21,2.19,2.77,2.12,7.09-1.75,8.08-4.36-.07-4.51-7.25-1.08-8.29Z" fill="#fff"/>
  <path d="M143.62,335.67c-.57-.57-.81-1.96-.82-2.78-.06-5.95,7.76-5.9,7.57,0-.12,3.74-4.66,4.87-6.75,2.79Z" fill="#fff"/>
  <path d="M214.16,514.91c-.19-.26-.86-.27-.98-.78-.7-2.8,3.22-7.02,6.28-4.83,4,2.87-.42,12.01-5.29,5.61Z" fill="#fff"/>
  <path d="M208.55,675.65c1.11,2.9-4.4,3.71-5.25,2.62-1.22-1.56,4.28-3.1,5.25-2.62Z" fill="#fff"/>
  <path d="M168.94,509.51c1.09.94,1.09,5.5.02,6.27-2.75,1.97-7.11.56-7.01-3.49.09-3.59,4.82-4.66,7-2.78Z" fill="#fff"/>
  <path d="M187.67,382.33c-3-3,1.26-9.81,5.09-6.07,3.54,3.45-1.57,9.6-5.09,6.07Z" fill="#fff"/>
  <path d="M154.8,613.37c5.74-4.94,9.27,10.16.95,7.6-2.89-.89-2.66-6.14-.95-7.6Z" fill="#fff"/>
  <path d="M194.59,620.28c-1.67.91-4.43,1.58-5.71-.22-3.32-10.39,9.56-9.54,5.71.22Z" fill="#fff"/>
  <path d="M104.67,483.06h-4.6s4.28-5.91,4.28-5.91c.07,2.15-.68,3.69.32,5.91Z" fill="#fff"/>
  <path d="M244.71,617.81c.45,3.12-2.93,3.45-5.25,3.28l.66-2.29,4.6-.99Z" fill="#fff"/>
  <path d="M141.49,256.95c.53,2.13-4.45,4.06-5.25,3.28-.45-3.12,2.93-3.45,5.25-3.28Z" fill="#fff"/>
  <path d="M188.83,224.08l-4.59-.97c1.21-1.63,4.69-1.6,4.59.97Z" fill="#fff"/>
  <path d="M189.49,253.66c-.51,0-7.05.55-5.26-1.3,1.98-.78,4.15-.91,5.26,1.3Z" fill="#fff"/>
  <path d="M166.47,675.66c-.77,2.64-4,4.51-5.9,1.64,0-.95,4.9-1.78,5.9-1.64Z" fill="#fff"/>
  <path d="M159.9,538.28c1.85,1.92-5.41,1.25-5.91,1.3,1.21-2.75,3.6-2.06,5.91-1.3Z" fill="#fff"/>
  <path d="M187.51,585.59c-1.73.35-3.84,1.59-5.24-.32.94-1.24,1.97-1.92,3.58-1.68l1.66,2Z" fill="#fff"/>
  <path d="M269.64,300.39c.23.36-.02,1.33.05,1.91h-4.59c-1.29-2.87,3.9-2.91,4.54-1.91Z" fill="#fff"/>
  <path d="M194.08,513.3c.56,3-3.02,3.24-5.25,3.28v-2.62s5.25-.66,5.25-.66Z" fill="#fff"/>
  <path d="M180.12,486.86c-.64.47-4.8,1.1-5.09.8l.04-1.92,4.9-1.34c1.07.42.88,1.93.15,2.46Z" fill="#fff"/>
  <path d="M153.32,650.01l.39-2.03,5.53-1.25c.4,3.44-3.43,3.43-5.91,3.28Z" fill="#fff"/>
  <path d="M241.43,377.89c-.52-2.85,5.22-2.3,5.24-.98l-5.24.98Z" fill="#fff"/>
  <path d="M210.52,377.89l-5.91-.32c.9-2.89,4.89-2.08,5.91.32Z" fill="#fff"/>
  <polygon points="194.08 647.39 193.45 649.7 188.82 650.01 189.21 647.98 194.08 647.39" fill="#fff"/>
  <path d="M160.55,377.89l-5.91-.32c1.42-1.73,5.74-2.96,5.91.32Z" fill="#fff"/>
  <path d="M162.53,304.93c1.35,3.01-4.98,3.83-5.25,2.29-.32-1.82,4.2-2.2,5.25-2.29Z" fill="#fff"/>
  <path d="M177.65,615.17l-5.91-.32,2.94-2.29c1.31.26,3.19.94,2.97,2.61Z" fill="#fff"/>
  <path d="M205.26,304.93c.59,2.72-3.42,4.5-5.25,2.29-.39-1.9,4.16-1.86,5.25-2.29Z" fill="#fff"/>
  <path d="M226.3,672.36l-5.91-.32c1.32-2.13,5.78-2.77,5.91.32Z" fill="#fff"/>
  <path d="M212.45,613.26l.05,1.91h-5.26c.71-2.75,2.8-2.98,5.21-1.91Z" fill="#fff"/>
  <path d="M227.62,481.74l-5.91-.32c1.32-2.13,5.78-2.77,5.91.32Z" fill="#fff"/>
  <path d="M138.63,612.69c4.19-.39,5.03,8.14.45,8.92-4.91-.17-4.77-8.52-.45-8.92Z" fill="#fff"/>
  <path d="M207.23,435.73l-4.59-.97c1.21-1.63,4.69-1.6,4.59.97Z" fill="#fff"/>
  <path d="M211.68,545.34c-7.81,4.07-7.16-10.12-1.18-7.4,2.63,1.66,2.51,4.86,1.18,7.4Z" fill="#fff"/>
  <path d="M227.57,642.19l.06,1.91h-5.26c.26-3.05,3-2.98,5.2-1.91Z" fill="#fff"/>
  <path d="M141.33,412.57c-1.06,1.07-4.3,1.06-5.15-.28-1.99-4.45.37-9.86,5.26-6.41.98,1.4,1.08,5.49-.11,6.69Z" fill="#fff"/>
  <path d="M213.15,585.59c-1.68.47-2.71.94-4.44.19-3.17-1.39,3.57-3.78,4.44-.19Z" fill="#fff"/>
  <path d="M229.59,407.47c-.68-.29-6.77.84-5.91-.97,1.91-2.12,6.4-2.85,5.91.97Z" fill="#fff"/>
  <path d="M159.9,436.39h-4.92s-.33-1.63-.33-1.63c.8-1.85,6.34-1.53,5.25,1.63Z" fill="#fff"/>
  <path d="M141.33,509.51c1,1,1.12,4.46.49,5.76-3.82,4.85-8.2-1.46-5.64-5.48.85-1.34,4.09-1.35,5.15-.28Z" fill="#fff"/>
  <path d="M188.27,336.39c-.96-.6-1.91-7.18,1.59-7.79,5.73-1,5.24,6.94,2.46,7.75-.8.23-3.48.4-4.05.04Z" fill="#fff"/>
  <path d="M185.99,411.86c-.32.44-2.07,1.43-2.64,1.4-5.42-.91-2.74-11.18,1.23-8.48,2.09,1.62,3.07,4.79,1.41,7.09Z" fill="#fff"/>
  <path d="M167.39,330.31c1.97,1.97,2.51,2.25.9,5.36l-5.66.72c-2.43-4.13-.19-11.03,4.77-6.08Z" fill="#fff"/>
  <path d="M226.14,222.23c6.06-1.22,6.17,7.64,1.67,8.3l-4.04-1.61.02-5.06c.3-.89,1.49-1.45,2.35-1.63Z" fill="#fff"/>
  <path d="M238.64,509.51c3.05,3.06-.61,9.42-5.11,6.75-4.13-2.45.72-11.15,5.11-6.75Z" fill="#fff"/>
  <path d="M241.27,300.49c1,1.79,1.35,4.34.19,6.12-1.36,2.43-6.27,1.39-6.59-2.08-.37-3.89,3.18-5.84,6.41-4.04Z" fill="#fff"/>
  <path d="M180.11,307.4c-.67.55-4.49,1.06-5.14-.1v-6.68c4.89-2.48,8.78,3.8,5.14,6.78Z" fill="#fff"/>
</svg>