<?xml version="1.0" encoding="UTF-8"?>
<svg id="Camada_1" xmlns="http://www.w3.org/2000/svg" version="1.1" viewBox="0 0 595.28 841.89">
  <!-- Generator: Adobe Illustrator 29.0.0, SVG Export Plug-In . SVG Version: 2.1.0 Build 186)  -->
  <path d="M.14,841.29V-.06h595v841.34H.14ZM590.54,3.89H4.74v464.05c2.29-.61,4.05-2.41,6.4-3.14,1.19-.37,3.57.14,4.06-.22.26-.19,1.14-4.5,2.15-6.09,7.13-11.25,28.54-14.45,39.26-7.23,1.92,1.3,5.71,6.32,7.14,6.71,1.6.44,8-.85,11.01-.54,19.51,2.05,18.08,28.71-1.38,30.81-4.82.52-10.29-1.43-13.66-1.04-4.15.48-9.05,3.66-15.16,3.76-6.3.1-15.29-3.92-18.45-3.91-1.42,0-4.04,2.06-6.07,2.42-5.29.93-11.32-.05-15.29-3.78v60.47c12.51-5.49,24.26-14.86,38.44-15.8,14.93-.98,26.91,7.34,40.45,11.84-2.65-5.22-6.81-13.71-5.89-19.24,1.91-11.55,13.67-29.01,20.86-39.07,2.81-3.93,6.45-7.25,9.09-11.34-2.13-5.85-5.22-9.25-4.92-16.02.7-15.54,17.16-15.55,16.37-32.33-.82-17.45-5.93-14.25,5.25-30.4,12.1-17.47,7.84-19.39,13.21-37.73,6.22-21.25,30.39-37.25,52.17-38.02,5.54-.2,15.91,2.86,19.02,2.46,1.9-.24,9.35-4.55,13.54-5.4,29.05-5.91,56.87,11.74,63.47,40.41,2.27,9.86,1.96,20.65,8.85,29.09.91,1.12,10.4,11.05,11.14,11.34.69.27,3.24-.57,4.9-.26,10.46,1.95,20.85,7,26.17,16.58,2.81,5.06,4.52,13.63,7.77,17.86,1.57,2.04,13.86,12.33,16.08,13.5,1.06.56,1.72.86,2.98.63.19-2.19-2.49-1.32-2.45-4.16.04-3.01,3.09-5.19,3.67-8.02-6.56-3.59-10.13-9.87-8.81-17.43s7.9-11.02,4.42-19.48c-.97-2.36-5.58-8.22-6-10.55-3.07-16.82,16.31-26.76,19.49-42.11,2.38-11.47-6.03-21.16-4.38-32.52,7.47-51.23,83.45-63.21,120.88-36.89,32.72,23,20.45,51.46,33.47,80.25,6.75,14.94,22.73,21.49,21.08,41.2-.46,5.51-4.06,11.71-3.9,16.51.17,5.17,5.26,10.63,6.79,16.27,4.04,14.88-5.15,20.18-17.32,25.25,4.06,23.01,3.23,37.35-16.83,50.71-2.61,1.74-6.46,3.43-9.36,4.78l5.89,18.98c10.53-3.25,20.33-9.87,31.39-12.27,18.65-4.06,33.23,3.74,48.79,12.96V3.89ZM496.76,282.35c-34.95-37.54-130.37-21.31-123.11,39.27.78,6.52,5.63,12.65,4.5,18.99-.07.4-2.09,6.1-2.58,7.4-5.23,14.08-21.55,21.42-16.66,38.3,2.12,7.3,7.55,7.47,5.78,16.56-.5,2.55-3.55,5.61-4.59,8.55-2.76,7.81-1.81,14.06,6.23,17.74,5.95-13.26,18.31-26.69,32.24-31.86,4.62-1.71,9.7-2.36,14.45-3.64,1.64-1.3-6.95-3.74-7.48-4.02-15.27-7.91-24.12-22.53-25.42-39.66-.88-11.52,1.76-22.87,1.39-34.13,17.01-4.82,31.72-13.33,40.38-29.16.93-.19,6.02,8.15,7.64,9.94,10.73,11.85,27.76,18.47,43.03,22.05l7.53,15.48c3.43,1.84,4.52-2.14,6.62-3.22,4.66-2.4,12.45-.11,15.35,4.26,1.84,2.77,1.55,5.8,3.63,7.67v2.33c-2.01,2.91-2.33,7.47-4.94,10.94-1.48,1.97-5.89,4.44-6.06,4.79-1,2.02.98,6.16-1.55,9.3-3.99,4.96-10.73.4-12.27,1.2-.69.36-8.92,9.35-10.98,11.04-1.4,1.15-3.24,1.5-4.65,2.63-.19.33.88,5.21,1.02,5.45.65,1.08,20.48,5.2,24.32,6.72,18.07,7.17,29.25,22.71,37.67,39.27,1.75,3.45,3.04,7.95,4.48,11.59,7.31-.84,14.02-7.66,13.67-15.28-.34-7.37-5.16-10.2-7.02-16.02-3.68-11.51,4.58-20.27,1.53-32.42-2.15-8.56-9.42-14.03-14.18-20.85-18.71-26.85-5.26-54.67-29.99-81.24ZM423.43,292.57c-2.75-1.49-5.6,5.61-7.52,7.68-7.79,8.42-20.56,13.27-31.04,17.28-1.51,16.96-4.39,35.36,3.5,51.16,11.94,23.89,42.63,28.19,65.87,19.19,5.45-2.11,22.77-12.69,24.69-18.04,1.62-4.53-1.6-12.66,6.81-13.62,4.39-.5,6.09,3.07,8.75,1.58,8.9-4.97,11.54-22.21-.43-24.44-9.27-1.73-8.67,7.15-14.22,4.35-6.48-3.27-7.17-14.92-9.11-16.85-1.15-1.15-9.51-2.33-11.68-3.11-9.74-3.54-22.05-9.92-29.52-17.16-1.47-1.42-5.66-7.78-6.11-8.01ZM272.56,335.59c-13.1-16.6-34-23.49-54.5-16.88-3.04.98-5.92,3.73-9.19,4-3.69.3-10.14-1.86-14.43-2.03-21.28-.82-46.77,13.64-52.76,34.72-2.58,9.08-3.05,18.14-6.45,27.08-4.44,11.68-16.42,15.63-15.46,30.6.4,6.18,3.07,10.37,1.83,17.56-1.99,11.59-17.45,14.87-16.28,28.42.3,3.43,2.35,8.52,5.55,10.17,14.03-14.48,32.32-20.8,51.65-24.97-.46-3.7-2.78-5.6-3.22-9.6-.51-4.72.22-9.94-.07-14.72-23.44,2.79-28.32-34.97-1.96-31.24,1.06.67,2.91,14.45,3.33,16.92,1.76,10.36.72,18.54,1.99,28.37,1.67,12.97,7.82,13.42,14.29,21.21,4.63,5.58,4.2,13.69,11.69,17.89,8.51,4.77,15.85-.23,22.76.89,3.13.51,6.28,3.98,9.12,5.36,9.56,4.65,23.31,5.54,32.1-1.27,2.15-1.67,5.6-8.65,6.45-8.8,4.91-.86,8.47,2.01,14.79-1.51,9.64-5.37,3.57-16.08,5.23-23.04.51-2.15,2.2-2.1,2.69-3.28,6.18-14.89-.89-26.8-3.5-41.22-1.44,2.7-1.45,9.95-5.07,11.03s-14.21-4.19-19.56-4.48c-9.03-.49-9.62,3.9-16.46,4.62-4.6.48-8.26-1.16-12.47-1.33-14.88-.6-24.75,4.25-36.18,13.13-10.49-4.03-20.45-15.3-21.4-26.56-.64-7.68.52-16.24.03-24.02h-6.25c-.56.08-.4-1.19-.32-1.3.72-.92,19.37-4.84,22.69-5.92,9.76-3.17,22.78-9.41,30.51-16.17,1.9-1.67,4.35-6.95,6.89-6.85,1.59.06,8.89,4.27,11.39,5.12,12.68,4.32,25.99,6.3,39.04,9.11,4.04,13.09,6.09,27.32,9.21,41.13,2.75,12.19,8.62,24.23,6.42,37.57-.86,5.21-4.08,8.69-3.87,13.74,7.98,4.52,15.22,8.71,22.06,14.91,1.3,1.18,9.74,11.28,10.81,10.55l2.7-7.56c-2-2.92-1.9-6.56-3.64-10.22-2.45-5.14-7.68-7.28-7.61-14.06.03-3.14,2.08-7.34,2.03-10.56-.23-14.07-22.94-10.86-18.83-23.38.48-1.45,1.95-1.7,2.14-2.12.66-1.45.3-3.27,1.5-4.76,3.27-4.04,13.68.81,5.63-9.53-3.63-4.66-9.73-7.89-12.37-13.96-7.04-16.21-1.04-25.49-14.7-42.79ZM268.88,358.99c-16.77-3.03-33.4-6.27-49.04-13.21-10.85,14.89-31.22,21.68-48.69,25.61-1.36,19.21-4.15,40.04,17.3,48.58,11.82-9.71,22.2-13.09,37.56-12.53,4.3.16,7.69,2.11,12.15,1.03,12.66-3.08,4.21-11.13-.99-16.13-1.79-1.73-7.43-3.77-4.6-6.56,5.93,4.66,15.88,9.62,14.78,18.41,8.68-1.12,16.41,2.26,24.5,4.6,5.81-7.64,3.47-20.18,1.83-29.26-.2-1.13-1.2-.98-1.29-1.48-1.21-6.32-1.62-12.86-3.5-19.06ZM483.08,367.68c2.99,3.28,7.96,3.3,8.79-1.33,2.23-12.51-16.23-6.84-8.79,1.33ZM462.98,387.09c-14.46,6.76-29.4,8.72-45.3,6.64-3.8,27.4,28.72,27.21,43.65,12.42,1.43-1.41,8.41-10.41,7.3-11.86-5.15-.53-4.56-2.91-5.65-7.19ZM159.25,417.33l-4.28-26.31c-20.32-.96-13.94,28.72,4.28,26.31ZM519.79,428.91c-11.21-18.96-24.69-30.91-47.64-33.6-9.45,25.28-54.38,36.38-57.92,2.08-.28-.82-.65-1-1.49-1.06-1.95-.14-11.97,3.11-14.34,4.09-7.39,3.07-16.53,10.52-21.56,16.76-2.74,3.39-12.07,19.15-11.79,22.86.22,2.94,18.73,11.04,22,12.75,1.6-5.28,1.82-11.23,3.59-16.74.59-1.85,4.23-10.02,5.15-11.28.59-.81.71-1.81,2.09-1.51-.86,9.36-6.6,17.45-7.21,26.63-.57,8.51,1.24,15.17,2.58,22.48.6,3.24.67,11.24,1.96,13.7,1.47,2.79,11.29,5.99,14.14,5.56,1.76-.26,3.58-3.34,5.46-4.44,4.91-2.87,12.03-.63,12.65-7.8.22-2.58-6.45-13.74-7.89-17.67-3.93-10.67-6.14-19.5.33-29.92,2.35-1.49,3.91-.87,5.49,1.09,1.19,1.47,4.53,9.36,5.45,11.67,2.29,5.7,3.82,12.28,5.83,18.14l18.73-28.92,2.48-.54c8,4.58,6.51,16.59,3.08,23.67-.36.75-1.55.99-2.08,2.02-1.64,3.15-12.83,20.33-12.69,21.58.05.43,1.31,2.75,1.62,2.92,3.31-.37,6.72-.62,10.06-.17,4.04.55,8.87,4.26,11.33,4.32,4.88.11,23.02-8.35,23.9-13.52.17-1.02-1.7-9.54-2.18-10.04-1-1.03-2.68-.27-3.97-1.29-1.01-.81-7.53-17.55-7.92-19.7-.16-.87-.67-1.89.03-2.67.71-1.02,1.06-.38,1.66.32,3.01,3.52,6.02,18.55,8.53,19.73,13.86-.13,27.54-6.38,40.77-10.19,1.27-1.56-8.74-18.71-10.26-21.28ZM332.42,411.16c-3.35-4.45-6.83-7.7-12.06-9.97-2.93-1.27-15.02-5.68-14.5-.3,4.38.9,9.67,3.01,13.49,5.25.98.57,8.39,5.23,6.88,6.58-6.19-1.7-11.47-6.65-17.95-8.66-2-.62-15.12-3.62-11.56,2.03.71,1.13,22.56,6.48,23.59,11.56-.46,2.7-7.98-2.73-9.21-3.26-5.79-2.52-11.95-5.58-18.4-4.94-1.02,6.66,7.93,7.73,12.18,10.5,8.56,5.56,6.34,12.29,11.47,17.45,2.18,2.19,5.83,2.4,7.9,3.96,1.37,1.03,5.45,9.7,7.07,11.99,12.01,16.92,34.42,42.81,55.41,20.87,4.82-5.04.75-12.09.7-18.49l-21.44-10.78c-.63-.04-.42,4.07-3.79,3.18-.93-.24-13.67-10.34-15.24-11.76-9.93-8.97-7.44-15.76-14.55-25.21ZM423.5,434.45c-3.39-2.08-5.29,9.31-5.27,11.48.04,6.97,2.86,11.95,5.49,17.59,4.26,9.15,5.45,17.82,11.5,2.23l-11.71-31.3ZM322.12,443.14c-1.05-.99-4.62-1.28-6.38-2.5-1.66-1.15-2.13-3.32-3.96-4.25-3.9,16.82,13.24,18.55,8.08,36.67-.61,2.16-3.02,4.53-2.82,4.72.11.11,1.22.19,1.88,1.07,13.93,18.59,23.65,26.41,18.71,52.07-1.48,7.7-5.14,13.75-8.77,20.48,15.7-5.42,31.04-4.46,45.36,3.95,2.6-13.72,5.39-27.35,9.4-40.89,1.35-4.54,5.9-12.73,6.26-16.8.21-2.37-.89-4.73-.47-7.65.33-2.3,1.88-3.54,1.98-5.95.1-2.6-1.52-6.13-1.39-8.89-27.69,26.43-50.23-4.82-65.29-26.45-1.02-1.46-1.79-4.84-2.59-5.58ZM459.96,442.72c-.64-2.18-1.49-4.2-2.24-6.33-9.5,14.78-18.98,30.07-28.25,45.17-.77,1.25-1.3,4.65-2.31,5.44-2.18,1.73-10.04-.42-14.43,5.29s-2.98,18.84,5.39,20.18,14.33-5.61,14.66-13.31c.11-2.65-1.5-7.28-1.23-8.42.51-2.22,7.41-6.03,8.42-8.69-4.65,2.48-8.46.76-6.78-4.77,2.89-3.11,8.33-1.35,7.78,3.13,7.29-9.14,15.16-19.05,18.8-30.37.14-.43,1.12-.51,1.23-1,.21-.95.25-4.19.08-5.15-.19-1.09-1.04-1-1.1-1.19ZM175.31,458.45c-3.39-4.66-8.2-7.22-11.46-11.9l-4.6,1.37c11.95,15.16,12.29,36.04,6.9,53.55-3.04,9.87-7.98,17.45-17.45,22.14.26,9.63,1.96,19.55,5.31,28.44,6.09-1.5,10.45-2.74,16.59-.48,2.95,1.08,5.03,3.53,8.11,4.38,6.17,1.7,19.48,2.47,26.2,2.73,24.04.93,49.3-2.54,72.32-9.25,2.97-18.83,7.88-37.32,4.23-56.64-.09-.49-1.08-.56-1.18-1.04-1.47-7.05-2.15-14.54-5.98-20.88-4.77.67-8.33,2.67-13.38,1.07-7.57,14.25-25.94,16.96-40.02,10.94-2.74-1.17-8.75-5.96-10.83-6.26-6.37-.92-11.19,3.66-20.82-.22-9.55-3.84-8.86-10.97-13.94-17.95ZM160.84,455.83c-1.24-2.07-3.86-6.88-6.34-6.84-3.5.06-14.39,4.1-18.05,5.69-19.81,8.59-42.5,35.68-51.22,55.25-9.92,22.27,2.67,37.48,19.8,50.67,1.66,1.28,6.03,5.31,7.89,4.03s7.45-10.02,9.91-12.48c5.06-5.04,11.22-8.66,17.31-12.31.45-1.35-7.13-10.26-8.57-11.69-.83-.82-8.85-5.36-7.16-6.96,2.6-.99,4.4,2.18,5.74,2.53s7.73-4.58,9.06-5.81c2.17-2.01,12.13-15.17,13.13-15.19,1.78-.04,2.85.83,1.87,2.52-1.72,1.68-6.7,6.52-7.1,8.63-.18.93.63,6.86,1.93,6.65,10.73-5.99,15.86-20.12,16.76-31.88.81-10.49.48-23.67-4.97-32.8ZM6.95,470.15c-2.54,2.87-3.07,8.58-1.71,12.09,1.87,4.83,10.34,5.28,14.66,4.48,2.34-.43,4.67-2.35,6.2-2.39,1.94-.04,4.14,1.96,6.23,2.38,5.12,1.02,13.58,1.63,18.7.9,2.91-.41,6.39-3.14,8.57-3.25,3.92-.2,8.09,2,13.68,1.18,18.17-2.69,16.06-29.06-4.94-25.97-1.71.25-3.85,2.04-5.27,1.72-1.05-.23-4.22-4.91-5.71-6.17-10.06-8.48-29.06-6.71-36.73,4.06-1.08,1.52-3,7.57-3.35,7.83-1.52,1.13-6.53-1.14-10.33,3.14ZM299.7,462.92c-4.92-4.19-10.19-7.03-15.88-10.08-1.54,3.35-.48,6.63-2.12,10.32-.47,1.05-4.42,4.67-4.63,5.86-.09.51,2.57,7.78,3.04,9.18.29.85,1.18.94,1.34,1.46,3.5,11.59,4.62,24.87,3.65,36.91,1.44.61,8.14,5.73,8.69,5.81,1.87.3,3.25-3.09,5.48-2.51,1.16,1.16-4.09,6.75-4.54,7.75-2.07,4.6-2.84,11.29-4.71,16.15l31.6,14.87c8.32-15.12,17.55-29.27,14.31-47.49-2.15-12.1-26.47-39.92-36.23-48.24ZM528.07,453.48l-34.11,9.94c-.73,3.61,2.76,9.07,1.55,12.37-2.18,5.98-21.55,15.21-27.61,14.56-2.21-.24-2.61-1.81-4.25-2.38-4.48-1.54-9.83-3.75-14.44-2.25l.58,2.96c2.02,1.41,6.57-1.77,5.21,2.83-7.79,1.86-18.38-.39-15.68,11.26l12.2-.7.29,2-11.76,1.38c-.73,8.69,10.25,3.76,15.37,4.53l.33,1.64-11.83,1.65c.82,8.82,19.64,5.22,25.45,2.76,8.42-3.56,8.33-3.06,17.29-5.06,16.65-3.72,40.98-14.85,42.71-34.2.67-7.54-.25-15.86-1.31-23.32ZM438,478.46c-1.36-.9-3.87.61-2.62,1.96.44.48,3.9-1.12,2.62-1.96ZM444.85,485.44c-.44-.81-1.05-3.06-1.25-3.03-2.61,3-4.99,4.53-1.65,8.25l4.61-.37c.61-2.48-1.03-3.59-1.71-4.85ZM408.38,494.27c-5.35-.85-11.13-2.07-15.07-5.95-2.14,9.51,6.54,10.9,13.8,11.83l1.27-5.88ZM438,488.98c-4.84,1-3.25,6.36-2.61,9.85,1.38-.33.3-2.92.76-4.16.56-1.53,4.14-1.5,1.86-5.69ZM408.23,504.28c-1-1.47-13.55-4.15-16.21-5.41-6.38,18.04-10.45,35.75-13.9,54.66-3.1,16.95-5.08,34.85-7.2,52.63-2.22,18.64-6.14,39.82-6.54,59.3-.11,5.19-1.25,7.98,3.79,10.65,7.16,3.8,16.26,1.62,24.07,2.88,13.93,2.24,24.83,9.61,40.21,9.16,10.63-.31,22.08-5.03,32.81-5.31,14.42-.38,24.35,5.09,39.94,1.15,6.12-1.55,19.08-6.04,25.21-8.32,9.25-3.44,6.35-9.81,4.93-18.12-7.01-41-15.55-101.81-30.86-139.55-.84-2.08-1.08-5.21-2.38-7.35-1.74-1.89-8.98,1.82-11.48,2.32-4.48.91-10.61.85-14.54,1.9-3.38.9-6.78,4.48-11.61,5.48s-17.68,1.6-21.49-1.86c-2.27-2.06-1.82-4.9-2.97-6.89-1.48-2.55-5.57-3.02-3.99-8.84-2.25,2.52-2.36,5.25-4.93,7.88-5.66,5.76-16.2,6.66-20.82-.85-1.07-1.75-1.51-4.75-2.04-5.52ZM590.54,598.09v-66.72c-9.85-6.93-25.53-15.38-37.78-15.49-13.61-.13-29.54,8.41-41.13,14.83l14.44,59.19,64.47,8.18ZM144.12,517.24l-10.42,8.75c1.03,1.48,12.53,16.48,13.7,14.9l-3.28-23.66ZM292.6,523.91l-7.78-3.39c-1.32,8.77-1.86,17.74-3.32,26.48-.07.4-2.07.7-1.24,4.59.08.36,1.91.95,1.28,2.45,3.04-2.56,11.9-28.74,11.07-30.14ZM4.74,549.78v45.68c40.95-10.83,83.6-12.27,125.58-16.76-8.21-4.33-16.72-8.35-24.27-13.86-6.97-5.09-13.27-13.69-19.55-17.92s-30.1-13.49-37.35-13.93c-16.6-1-30.47,9.39-44.41,16.79ZM146.52,544.42c-.43-.48-3.44-2.82-3.91-2.77-8.38,4.58-16.02,9.93-22.14,17.35-1.16,1.4-6.03,7.46-5.16,8.76l17.64,8.64c.46-6.15,6.86-13.11,11.14-17.48,1.1-1.12,6-3.38,6.52-5.35.46-1.74-2.79-7.7-4.08-9.15ZM317.29,564.15c.62-.87,3.64-2.1,1.7-3.83s-11.19-6.4-14-7.7c-5.1-2.37-10.37-4.31-15.81-5.78l-7,14.75,29.97,8.87c1.48-.15,4.16-4.94,5.14-6.31ZM370.85,582.21l2.65-23.11c-12.18-8.99-27.99-10.64-42.15-5.52-8.2,2.96-10.24,11.69-15.63,17.91l18.92,11.31,36.21-.59ZM181.6,566.53c-6.14-13.09-16.94-17.2-29.8-9.74-4.13,2.39-15.58,14.16-16.18,18.67-1.68,12.61,13.63,10.64,21.79,12.31,3.63.74,16.48,7.13,15.54.28-.62-4.5-10.57-8.25-14.59-8.36-1.11-.51-.3-2.72.93-2.37,4.79.92,9.78,1.45,13.36,5.08,1.59,1.61,2.81,6.24,5.46,5.36l2.85-3.74c-1.38-5-5.41-6.74-9.63-8.85-2.3-1.15-7.5-1.16-7.47-4.35.41-1.81,7.54,1.16,8.79,1.72,4.09,1.8,7.86,4.31,10.27,8.15,2.45,1.23,3.99-.9,3.98-3.31-.03-7.93-18.57-12.51-19.13-13.85-.18-.42.16-1.58.04-2.24l13.8,5.25ZM183.14,564.34c1.38,2.13,4.1,4.86,5.46,7.35,25.68,2.67,52.95,4.14,77.77-4.2,6.81-2.29,19.28-6.15,10.36-14.61-31.41,8.21-64.2,10.54-96.46,6.43,1.28,1.5,1.82,3.43,2.86,5.03ZM343.33,598.08c1.25-1.41-5.87-8.31-7.22-9.53-10.93-9.9-35.84-21.74-50.48-23.14-8.36-.8-16.93,4.6-25.13,6.72-23.46,6.06-47.77,4.41-71.67,2.3,1.53,7.32-1.55,7.54-5.69,11.41-.51.47-.52,1.98-1.85,3.08-2.38,1.97-7.18,2.39-9.38,5.79-9.02-2.08-17.46-6.49-27.06-5.73-2.88,12.49-2.91,22.44,6.47,31.82,7.03,7.03,17.31,10.34,25.32,16.1,2.23,1.61,12.27,11.54,13.15,11.53,6.42-.06,11.38-12.94,14.91-17.04,6.76-7.84,22.94-15.23,33.19-16.11,20.82-1.8,30.19,12.95,53.73,1.79,16.93-8.03,30.11-24.84,51.7-18.97ZM4.74,598.42v238.93h585.8v-236.3l-64.43-8.87c.97,5.96,2.71,11.62,3.75,17.61,1.72,9.94,3.88,20.98,5.41,30.2,1.69,10.19,2.9,20.48,4.64,30.67-2.74,8.78-13.81,8.17-21.02,10.59-3.67,1.23-7.75,4.02-11.73,5.03.85,5.25-.33,13.14.57,17.93.77,4.09,4.62,4.5,1.17,10.44-5.73,9.86-39,11.87-49.43,10.87-7.45-.71-20.18-3.96-17.85-13.73s25.82-16.19,26.87-18.53c.77-1.7.43-5.08,1.08-7.08-13.28-1.29-25.56,4.76-38.79,4.59-.21,2.67.29,5.64.05,8.26-.11,1.26-1.62.57-1.43,2.58.12,1.29,3.98,3.11,3.22,7.72-1.46,8.85-24.54,12.32-31.85,12.9-9.1.72-41.76,1.86-35.8-14.75,1.61-4.47,12.29-9.59,16.69-11.58,8.59-3.88,13.65-.71,12.87-13.59-8.5-1.58-17.22.13-25.7-2.9-9.23-3.3-8.11-7.12-7.77-15.94.23-5.97,2.24-12.85,2.71-17.68,1.93-20.05,3.12-40.19,5.85-60.17l-32.19-.67c1.3,3.58,7.36,6.7,8.38,10.35,2.37,8.45,5.24,17.88,4.79,26.81-.73,14.43-7.3,29.78-10.48,43.55-2.43,10.54-4.13,21.32-5.99,31.98.37,1.99,18.85,14.79,22.02,17.48,1.07.91,7.67,6.72,7.88,7.21,1.18,2.83,2,10.77.5,13.63-10.43,19.96-63.96,5.8-78.35-4.79-8.05-5.93-2.83-9.05-2.66-16.73-4.89,1.22-14.55-.42-18.64.76-.78.22-1.45.9-.44,1.56,5.61,5.04,19.36,13.35,21.93,20.15.6,1.6.51,3.76.99,5.56.27,1.01,2.21.85,1.41,3.7-9.62,12.89-32.44,15-47.22,11.88-8.7-1.84-35.59-13.48-39.01-21.47-2.64-6.15.92-5.97,1.95-9.46s.12-8.38,2.77-12.01c-14.15.19-35.56,2.28-48.83-2.78-17.37-6.62-34.04-7.12-51.55-13.53-2.49-.91-9.37-5.14-11.09-5.37-3.08-.41-4.72,4.62-7.71,6.04-2.5,1.18-5.65,1.27-8.36,1.17,1.09,6.85-4.92,12.08-11.21,13.56l1.03,16.03c4.42-8.34,14.84-18.57,24.99-18.39,14.83.26,5.89,15.95-.38,21.3-12.25,10.45-32.69,10.62-46.89,4.25-16.54-7.42-19.05-27.37,3.34-19.11,5.74,2.12,11.04,6.73,15,11.29l-.62-15.16c-6.03-1.11-12.24-4.14-12.21-11.13-15.61,6.59-30.74-10.63-13.75-20.78-9.24-15.11,7.57-26.57,20-16.04,8.46-14.31,32.16-6.55,24.65,11.18l7.83,1.93c1.1-.65,8.06-19.11,9.32-21.77,5.98-12.7,15.68-34.71,25.66-44.16,3.68-3.48,9.01-7.18,13.64-9.04l1.98-15.96c-.34-1.16-3.55-1.44-4.85-2.35-1.45-1.01-3.18-4.19-4.05-4.49-2-.69-13.83.37-16.97.56-21.56,1.3-45.6,3.62-66.98,6.65-5.16.73-43.67,7.18-44.47,9.44ZM341.11,653.73c2.51-10.96,12.05-45.97.59-53.03-13.55-8.35-38.88,14.69-50.91,19.81,5.95,19.49-1.53,39.67.64,59.7,14.22,2.94,28.88,4.91,43.28,1.94,1.61-9.22,3.24-18.57,5.39-27.68.11-.48.97-.58,1.01-.74ZM146.49,619.38c-3.25-4.15-4.56-7.06-6.62-12-1-.18-8.62,5.44-9.87,6.5-14.65,12.48-27.73,48.99-35.89,67.19-.2.45-.79.51-1.22.54-.54,1.77,1.01.77,1.62,2.54,2.18,6.27-.51,5.39,6.09,9.06,14.78,8.21,34.99,9.69,51.41,12.68-2.11-14.02-.95-33.06-11.8-43.74-1.77-1.75-10.04-5.31-5.71-6.8,10.87,5.31,14.83,14.14,17.33,25.42.68,3.04,1.69,7.48,2.14,9.81.9,4.75.11,14.5,3.64,17.93,2.82,2.74,12.33,3.53,16.44,3.94,11.19,1.1,22.6.76,33.77-.07,2.28-1.7-.75-24.97-1.28-29.01-.07-.52-1.15-.25-1.3-1.46-1.51-12-2.27-24.06-3.33-36.1-1.68-2.44-6.1,3.19-8.68,4.32-6.82,2.96-11.69-6.23-16.57-9.97-9.91-7.6-22.22-10.62-30.17-20.79ZM258.3,622.62c-6.22-7.71-25.18-4.4-33.31-1.19-5.57,2.2-23.33,14-22.99,20.39.08,1.51,2.62,2.59,3.12,4.72,1.17,4.97.82,12.98,1.47,18.25.39,3.17,2.71,22.92,3.92,23.69,14.24,2.6,28.98,3.55,43.1-.32,1.89-7.59,2.19-15.56,3.62-23.21.09-.49,1.15-.45,1.24-.97,1.7-9.77,6.24-33.42-.17-41.36ZM287.27,622.6c-8.87,2-17.28,2.52-26.11-.19l3.38,15.67,25.57-4.81c1.18-.77-1.44-10.33-2.84-10.67ZM290.73,636.21l-26.67,5.21c-1.87,12.55-3.5,25.17-5.59,37.67-.08.5-1.14.49-1.22.99-1.01,5.91-3.41,17.47-3.35,22.88.03,2.48,4.48,8.72,6.38,9.37,2.31.8,23.62-.06,24.55-1.67.94-4.49,1.87-8.95,2.68-13.48,2.31-12.95.67-27.23,1.23-40.96.26-6.42,1.76-13.49,1.99-20.02ZM78.76,678.03c2.17-3.2,4.25-4.69,3.41-9.12-2.09-11.16-20.3-9.21-21.89,2.14-4.72-5.26-15.6-9.49-19.93-1.56-5.51,10.09,4.48,10.19,5.69,12.19,2.02,3.35-3.64,2.68-5.79,3.51-5.72,2.2-7.91,9.62-2.86,14.02,8.06,7.01,15.58-1.55,16.97-1.21,1.79,4.33.25,7.58,4.61,11.18,8.19,6.77,20.77-1.16,16.77-11.84,7.84,2.57,18.85-2.03,15.74-11.47-2.13-6.46-8.47-5.04-13.76-6.29-.55-1.61.78-1.17,1.04-1.56ZM291.39,682.88v11.17c12.96,3.58,26.74,4.21,40.04,2.56-.46-1.95,2.36-10.88,1.67-11.12-14.15,1.82-27.93.45-41.71-2.62ZM427.44,690.8l-30.19-7.26c-.38,2.22-.7,9.48-1.96,10.86-1.46,1.59-12.9,2.81-15.14,5.56,4.73.59,9.44,2.08,13.45,4.64,3.43,2.19,5.08,6.03,9.14,5.84,3.12-.14,22.59-5.62,24.13-7.53l.58-12.11ZM503.75,687.48c-10.76,2.14-20.48.44-31.12-1.35-1.32.38-.58,7.39-2.39,9.59-.95,1.16-14.36,5.35-12.51,6.88,6.64.23,13.49,3.35,19.02,6.95,1.38.9,3.25,3.82,4.47,4.13,2.99.76,21.99-5.1,23.07-8.23l-.54-17.96ZM253.26,692.09c-14.16,1.36-28.34,2.12-42.39-.67l1.45,11.19c12.51,2.06,26.58,3.76,38.82-.16l2.13-10.36ZM331.49,699.32c-13.33,1.07-27.27,1.52-40.09-2.63-3.84,9.01,3.51,10.76,6.23,17.76,2.07,5.32.59,13.17,6.91,13.79.12-8.52,4.52-15.19,11.23-20,4.55-3.26,10.38-4.36,14.21-6.82.85-.55,1.79-.76,1.51-2.09ZM345.96,711.8l-10.34-9.1c-13.24,2.75-28.84,11.23-28.34,26.74l13.04,3.4c-.2-13.28,14.32-19.74,25.64-21.04ZM428.75,705.93c-1.37-.8-25.03,9.86-30.84,6.84-.4-.21-3.17-4.11-4.65-5.2-6.41-4.73-18.14-7.79-24.2-1.28-5.34,5.73-.59,9.88,5.17,11.76,11.39,3.72,28.55,2.16,40.12-.66,5.31-1.3,16.6-4.03,14.4-11.46ZM507.03,708.52c-8.53,3.27-16.63,7.44-25.98,7.94-5.94-3.76-10.25-8.41-17.38-10.27-1.73-.45-9.5-1.74-10.85-1.59-3.57.39-11.22,8.16-8.23,12.78,6.86,10.59,46.35,4.92,56.56.05,3.87-1.85,6.82-4.02,5.87-8.91ZM251.81,706.03l-39.86-.04c-2.24,4.11,1.77,6.39,3.29,9.98.86,2.02,1.61,4.32,2.08,6.47.43,1.95.84,19.01,4.38,15.66,2.65-16.09,19.61-23.7,34.19-25.65-.49-.98-3.74-6.24-4.08-6.42ZM290.06,707.21c-.68-.52-2.51,2.31-2.56,2.48-2.74,9.42.32,12.29,9.15,14.6.33-6.04-3.93-11.82-6.58-17.08ZM215.13,734.15v-10.19c0-2.89-3.64-6.62-4.27-9.53-3.42,7.44-5.58,16.66,4.27,19.72ZM361.07,725.6c.92-3.86-8.62-10.68-11.55-11.12-4.62-.7-15.18,2.45-19.03,5.2-2.94,2.11-9.08,9.61-8.1,13.35s30.45,7.23,19.3-4.16c-1.29-1.31-5.41-1.75-3.95-4.6,1.91-.53,5.54,2.43,6.59,3.93,2.29,3.26.87,7.69,6.07,5.46l1.38-1.28c2.94-3.21-9.8-9.84-5.48-10.73,1.94-.4,8.38,6.72,8.24,9.17l3.81-2.43c2.18-3.22-11.8-8.95-9.76-10.69,5.02.36,9.45,4.09,12.48,7.88ZM70.49,739.4c9.9-.58,21.52-5.69,26.82-14.26,1.35-2.18,3.78-6.07,2.15-8.46-14.7-6.45-26.93,9.31-28.97,22.72ZM267.72,723.63c.86-.75-8.61-8.26-9.69-8.44-3.07-.52-12.72,2.22-15.92,3.54-9.49,3.9-28.95,22.2-8.63,25.23,5.61-13.04,20.42-20.27,34.24-20.33ZM64.35,732.39c-2.83-4.41-9.93-9.9-14.92-11.7-17.11-6.18-15.14,5.66-4.16,12.7,6.28,4.03,13.98,5.11,21.26,6.02-.22-2.38-.88-4.99-2.18-7.02ZM361.73,729.55c-23.61,19.76-53.86,2.59-77.57-7.88-1.4,5.87,6.57,9.39,11.04,11.63,14.84,7.42,45.92,14.77,61.08,6.91,4.25-2.2,6.2-5.74,5.45-10.65ZM276.3,742.66c3.88-.37,8.64-2.24,6.6-6.93-.37-.86-10.41-9.5-11.26-9.77-9.56-3.02-34.14,7.53-34.87,19.6.26.98,17.82,5.85,17.72,1.53-.05-2.22-7.41-8.19-4.17-8.37,3.55-.2,5.66,6.49,6.86,8.92,11.51,1.52,6.59-5.32,1.87-10.42-.84-.61-.02-1.7.47-1.76,2.57-.33,8.35,7.66,7.57,10.5l6.46-1.38c1.9-2.7-5.88-8.04-5.82-11.09,4.39,0,8.02,5.01,8.58,9.17ZM205.48,736.57c2.94,4.57,21.76,14.22,27.41,16.3,13.44,4.95,28.28,5.38,41.86.45,4.18-1.52,14.49-6.58,9.11-11.28-9.65,6.48-25.22,10.31-36.82,9.18s-26.98-10.07-36.34-16.25c-.88-.58-5.48-5.69-6.08-3.78.01,1.62-.02,4,.87,5.38Z"/>
  <rect x=".14" y="841.29" width="595" height=".66" fill="#fff"/>
  <path d="M590.54,3.89v523.87c-15.56-9.22-30.14-17.01-48.79-12.96-11.07,2.41-20.86,9.03-31.39,12.27l-5.89-18.98c2.9-1.35,6.75-3.04,9.36-4.78,20.06-13.36,20.9-27.7,16.83-50.71,12.17-5.08,21.36-10.37,17.32-25.25-1.53-5.64-6.62-11.1-6.79-16.27-.15-4.8,3.44-11,3.9-16.51,1.65-19.7-14.33-26.26-21.08-41.2-13.01-28.8-.75-57.25-33.47-80.25-37.44-26.32-113.42-14.34-120.88,36.89-1.66,11.37,6.75,21.05,4.38,32.52-3.18,15.35-22.56,25.29-19.49,42.11.42,2.33,5.03,8.19,6,10.55,3.48,8.46-3.17,12.31-4.42,19.48-1.32,7.55,2.25,13.84,8.81,17.43-.59,2.83-3.63,5.01-3.67,8.02-.04,2.84,2.64,1.96,2.45,4.16-1.25.23-1.92-.07-2.98-.63-2.22-1.17-14.51-11.47-16.08-13.5-3.25-4.23-4.96-12.8-7.77-17.86-5.32-9.58-15.7-14.63-26.17-16.58-1.66-.31-4.21.53-4.9.26-.74-.29-10.23-10.23-11.14-11.34-6.89-8.44-6.58-19.23-8.85-29.09-6.6-28.67-34.42-46.32-63.47-40.41-4.19.85-11.64,5.16-13.54,5.4-3.11.4-13.48-2.66-19.02-2.46-21.78.77-45.95,16.78-52.17,38.02-5.37,18.34-1.12,20.26-13.21,37.73-11.18,16.15-6.06,12.94-5.25,30.4.79,16.78-15.68,16.79-16.37,32.33-.3,6.77,2.79,10.17,4.92,16.02-2.64,4.09-6.28,7.4-9.09,11.34-7.2,10.06-18.95,27.52-20.86,39.07-.92,5.53,3.24,14.03,5.89,19.24-13.54-4.51-25.53-12.83-40.45-11.84-14.18.94-25.93,10.3-38.44,15.8v-60.47c3.97,3.74,10,4.71,15.29,3.78,2.04-.36,4.65-2.41,6.07-2.42,3.16-.01,12.15,4.01,18.45,3.91,6.11-.1,11.01-3.27,15.16-3.76,3.37-.39,8.84,1.56,13.66,1.04,19.46-2.1,20.88-28.76,1.38-30.81-3.01-.32-9.41.98-11.01.54-1.43-.39-5.22-5.42-7.14-6.71-10.71-7.22-32.13-4.02-39.26,7.23-1.01,1.6-1.89,5.9-2.15,6.09-.48.36-2.87-.15-4.06.22-2.34.73-4.1,2.53-6.4,3.14V3.89h585.8ZM73.77,81.45h12.82c9,0,18.65-8.12,20.63-16.84,6.4-28.17-25.13-30.39-44.87-27.77-7.7,1.02-11.42.53-12.27,9.42-1.05,10.97-1.09,35.13,0,46.05.33,3.27.76,6.33,4.44,7.4,3.4.98,19.25,1.75,19.25-3.47v-14.79ZM238.8,57.79h12.82c4.95,0,4.15-12.31,3.47-15.31-.86-3.8-4.83-4.14-8.06-4.43-10.06-.91-25.76-.78-36.17-.67-2.25.02-6.77.34-8.72,1.19-7.28,3.19-6.23,19.22,1.47,19.22h12.16c1.57,9.91-2.28,28.49.43,37.36,1.81,5.92,21,6.47,22.42-1.04,1.03-5.42-1.13-35.04.16-36.32ZM294.94,50.97c-3.68-8.85-2.42-12.55-14.41-13.54-18.37-1.52-17.09,7.05-21.91,20.77-2.76,7.87-6.25,17.16-8.57,25.11s-6.7,15.18,4.29,16.46c9.23,1.08,14.96-.21,16.66-10.12,2.85-.22,13.51-1.15,15.16.67s.21,7.09,5.89,8.57c2.48.65,13.5.82,15.2-.61,3.63-3.06-1.85-19.21-3.26-23.79-2.27-7.41-5.99-16.16-9.04-23.51ZM349.25,42.34c-1.14,5.56.84,14.72,0,20.7-4.61-3.75-11.28-21.07-15.72-23.39-3.83-2-18.96-2.6-21.14,1.32-.72.76-.54,1.71-.66,2.63-1.24,9.42-1.09,39.75.01,49.37.81,7.06,8.49,6.8,14.19,6.23,12.63-1.26,7.58-11.5,7.52-20.71,0-.99-.42-1.93,1-1.65,1.08.53,10.21,17.5,12.9,19.97,4.97,4.59,23.41,4.81,24.11-2.73-2.81-15.54,2.85-36.01,0-50.98-1.32-6.93-20.67-8.27-22.2-.78ZM496.81,52.91c-11.59-24.8-54.13-19.55-57.4,9.23-2.69,23.65,9.74,39.89,34.41,37.69,23.34-2.08,31.81-28.05,22.99-46.93ZM430.54,48.82c-8.91-10.89-31.16-12.04-44.17-10.77-4.57.45-7.49,1.37-9.56,5.58,1.81,14.89-2.25,35.13,0,49.36.05.3,2.67,5.13,2.89,5.34,1.11,1.07,3.18,1.41,4.69,1.56,15.61,1.62,41.09-.93,48.83-16.98,4.48-9.3,4.03-25.89-2.68-34.09ZM158.59,94.27c.88-4.66-.65-11.8,0-16.76,4.04,4.48,11.15,19.6,16.12,21.68,4.51,1.88,18.9,2.51,20-3.64,1.54-8.66,1.99-43.28.71-51.89-1.02-6.9-18.06-6.08-21.08-2.65-2.15,2.44-.1,16.51-.62,21.08-.09.75.43,2.12-.98,1.64-1.72-.59-10.42-21.55-18.08-24-5.38-1.72-13.26-1.54-18.05,1.68-.7,1.09-.85,2.34-1.01,3.59-.82,6.11-.9,45.3.45,50.15.26.95.64,1.92,1.2,2.74,5.07,3.06,19.91,3.99,21.35-3.6ZM117.02,40.23c-2.27.24-5.86.78-6.41,3.44-1.6,7.65.85,20.63-.71,28.94,1.14,4.73-.89,22.28,1.69,25.25s17.43,3.83,18.68-2.98c.98-5.38.99-45.2,0-50.53-.87-4.66-9.26-4.55-13.25-4.13ZM540.02,68.85c-3.04-11.97-13.31-13.76-15.96-.62-14.78-1.05-18.64,5.46-6.08,14.18-1.34,5.64-5.68,14.93,4.46,13.46,2.1-.3,7.51-3.82,8.48-3.78,1.33.05,6.99,3.46,9.37,3.78,10.78,1.43,3.9-9.72,4.85-13.28.31-1.16,9.05-5.32,7.27-9.3-.68-3.98-9.23-4.25-12.39-4.43ZM434.72,166.57c.76-3.35-.55-9.15,0-12.82,7.98,9.01,4.73,18.6,20.74,17.11s1.95-16.16-.95-23.29c13.46-7.34,12.79-28.68-.73-35.56-6.58-3.34-29.24-4.39-35.77-1.6-1.66.71-2.28,2.1-3.67,3.05v54.9c3.54,3.82,19.21,3.39,20.38-1.8ZM174.36,153.75h9.53c.56,0,7.44-2.29,8.43-2.74,15.33-6.94,16-32.55-.24-38.98-7.04-2.79-18.4-2.89-25.98-2.35-3.52.25-11.02.53-11.99,4.45v51.62c.16,6.89,15.61,5.39,18.5,3.02,3.33-2.73,1.1-11,1.74-15.02ZM243.01,120.63c-2.13-4.69-2.01-8.3-8.12-9.97-4.86-1.33-15.89-1.51-19.79,1.99-4.63,4.15-14.32,39.75-16.49,47.8-.44,1.65-3.6,4.35-1.04,7.58,8.16,4.73,22.91,5.15,22.19-7.66,4.25.33,9.4-.57,13.52-.09,4.5.53,1.96,7.34,7.48,9.59,4.64,1.89,16.52,1.82,16.47-5.23-.05-5.87-11.36-37.72-14.22-44.01ZM511.91,125.89c-4.55-11.79-3.76-17.25-19.65-16.15-14.3.98-12.87,11.78-16.68,22.73-2.61,7.5-6.35,16.27-8.58,23.79-1.9,6.42-5.53,12.65,3.63,13.85,8.62,1.13,16.45.7,16.76-9.71l15.13.31c.23,11.81,12.57,12.04,21.02,7.89,1.71-2.35-.62-10.86-1.42-13.82-2.39-8.86-6.85-20.22-10.2-28.9ZM110.39,113.21c-3.14-2.98-13.1-3.34-17.22-2.84-11.61,1.42-10.84,10.71-14.04,19.46-2.75,7.54-10.83,26.33-11.27,33.47-.39,6.25,1.22,6.44,6.87,6.91,8.6.72,15.1.55,16.06-9.51l13.92-.09c1.73,8.5,5.35,10.78,13.92,10.04,13.64-1.18,8.75-9.46,5.87-19.28-2.28-7.79-6.36-16.28-8.07-24.68-3.28-2.9-3.24-10.83-6.04-13.49ZM294.35,151.78c-4.2-.64-9.76.47-14.14,0,.28-6.44-.35-12.99-.05-19.43.05-1.16,1.35-.72,1.42-1.89.25-4.42.64-14.53-1.97-17.83-2.23-2.82-15.23-3.17-17.79-.6l-1.05,2.24c.74,15.92-1.96,34.76-.31,50.35.49,4.59,1.57,5.74,6.24,6.25,5.28.58,22.12-.08,27.65-.69,2.92-.32,5.17-.94,5.92-3.95,5.23,7.88,24.23,7.17,23.26-5.53l14.55-.06c2.52,8.65,4.41,11,14.04,10.11,11.51-1.06,8.27-7.24,6.13-15.82-2.37-9.51-7.28-22.49-10.92-31.29s-2.11-12.37-13.51-13.3c-21.58-1.77-16.2,9.06-23.95,23.57l-8.63,30.35c-1.63-3.3.67-8.57-3.02-11.1-.39-.27-3.36-1.3-3.88-1.38ZM408.16,125.9c.7-2.48,2.28-8.37,2.13-10.64-.45-6.4-14.68-5.43-18.93-3.22l-9.88,32.5c-1.74-5.09-6.16-29.49-9.16-31.93s-15.57-2.12-18.72-.21c-4.1,2.49-.36,11.14.83,14.78,2.64,8.15,6.42,17.45,9.39,25.51,2.62,7.11,2.64,16.53,12.12,18.09s17,.41,20.69-8.8c4.49-11.21,8.27-24.4,11.55-36.09ZM549.4,204.75c-4.58-13.15-14.32-19.02-27.79-21.05-134.37.55-268.73-.3-402.78.31-15.69.07-34.04-1.32-49.36-.05-40.07,3.32-38.73,53.32,2.63,56.57,17.83,1.4,39.63.03,57.88-.03,117.98-.38,236.25-.97,354.4-.68,18.48.05,46.39,5.46,59.82-10.46,6.16-7.3,8.17-16.07,5.19-24.61ZM85.89,278.37c-2.08-2.98-3.16-5.5-6.18-7.96-13.1-10.66-38.5-6.86-42.71,11.23-28.36-.91-32.78,38.54-2.42,38.33,3.72-.03,8.84-2.17,12.48-1.86,3.16.27,9.3,4.68,13.52,5.6,6.57,1.43,12.13,1.11,18.59-.56,2.83-.73,10.65-4.94,11.33-5,2.07-.16,8.56,2.86,11.88,3.2,4.55.46,11.87.15,16.1-1.63,17.84-7.51,12.1-27.53-6.54-25.99-1.13-11.16-14.64-14.2-23.93-11.75-.67-1.57-1.2-2.29-2.12-3.61ZM288.52,267.69c-7.74-10.67-11.43,4.38-13.56,5.36-2.02.93-6.49.17-9.58,1.6-8.25,3.82-.64,10.01,4.36,12.31-.58,3.17-4.03,9.61-.31,11.98,4.08,3.09,9.61-2.85,12.42-2.94,1.8-.06,6.4,4.14,9.96,4.32,6.67.33,5.24-7.62,2.84-11.46,2.22-1.24,10.14-7.39,9.24-9.75-2.17-4.53-11.11-3.71-12.55-4.7-.32-.22-1.75-5.23-2.83-6.71ZM198.43,287.59c8.36-17.39-10.15-28.86-20.55-13.49-9.34-6.04-25.35-2.68-22.13,11,2.63,11.21,18.23,16.77,27.62,21.02,2.44-.05,13.78-15.86,15.06-18.53ZM566.71,350.78c1.64-1.64.65-8.26.23-10.59.55-1.86,9.65-3.64,9.02-8.5-.67-5.2-10-4.55-12.07-6.38-1.4-1.23-1.81-7.72-4.54-9.26-7.12-4.02-7.18,6.44-10.92,7.55s-8.1-.93-11.2,1.97c-2.51,3.74,3.08,8.97,5.95,10.91-2.25,1.67-5.15,10.34-3.12,12.32,3.25,3.17,10.72-1.87,13.22-1.67s9.7,7.36,13.42,3.65ZM70.77,384.86c-.34-1.23-1.88-4.25-1.55-5.24,3.46-1.8,7.75-5.95,6.71-10.08-1.49-3.6-9.39-3.18-12.7-3.08-4.59-12.58-13.13-12.02-16.38.63-14.27.23-16.37,8.47-3.4,14.47l-.8,11.31c3.93,5.31,12.06-3.53,14.36-3.56,3.71-.04,9.89,7.48,14.8.61.87-2.99-.8-4.18-1.04-5.05Z" fill="#fff"/>
  <path d="M4.74,598.42c.8-2.26,39.31-8.71,44.47-9.44,21.38-3.03,45.42-5.35,66.98-6.65,3.14-.19,14.97-1.25,16.97-.56.87.3,2.6,3.48,4.05,4.49,1.3.9,4.51,1.19,4.85,2.35l-1.98,15.96c-4.64,1.85-9.96,5.55-13.64,9.04-9.98,9.45-19.69,31.46-25.66,44.16-1.25,2.66-8.22,21.13-9.32,21.77l-7.83-1.93c7.51-17.73-16.19-25.49-24.65-11.18-12.43-10.53-29.24.93-20,16.04-17,10.15-1.86,27.37,13.75,20.78-.02,6.99,6.18,10.02,12.21,11.13l.62,15.16c-3.96-4.56-9.26-9.18-15-11.29-22.39-8.26-19.88,11.7-3.34,19.11,14.2,6.37,34.63,6.2,46.89-4.25,6.27-5.35,15.21-21.04.38-21.3-10.14-.18-20.57,10.05-24.99,18.39l-1.03-16.03c6.29-1.48,12.31-6.7,11.21-13.56,2.71.09,5.86,0,8.36-1.17,2.99-1.42,4.63-6.45,7.71-6.04,1.72.23,8.6,4.46,11.09,5.37,17.51,6.41,34.18,6.91,51.55,13.53,13.27,5.06,34.69,2.97,48.83,2.78-2.65,3.63-1.78,8.64-2.77,12.01s-4.58,3.31-1.95,9.46c3.42,7.99,30.31,19.63,39.01,21.47,14.78,3.12,37.6,1.02,47.22-11.88.8-2.85-1.14-2.69-1.41-3.7-.48-1.8-.38-3.97-.99-5.56-2.57-6.8-16.32-15.11-21.93-20.15-1-.66-.33-1.34.44-1.56,4.1-1.17,13.75.46,18.64-.76-.17,7.69-5.39,10.8,2.66,16.73,14.39,10.59,67.92,24.76,78.35,4.79,1.49-2.86.68-10.8-.5-13.63-.21-.5-6.81-6.31-7.88-7.21-3.16-2.69-21.64-15.49-22.02-17.48,1.87-10.66,3.56-21.44,5.99-31.98,3.18-13.77,9.75-29.11,10.48-43.55.45-8.93-2.42-18.36-4.79-26.81-1.02-3.64-7.08-6.77-8.38-10.35l32.19.67c-2.72,19.97-3.91,40.11-5.85,60.17-.47,4.83-2.48,11.71-2.71,17.68-.34,8.82-1.46,12.65,7.77,15.94,8.49,3.03,17.2,1.32,25.7,2.9.78,12.88-4.28,9.71-12.87,13.59-4.4,1.99-15.08,7.11-16.69,11.58-5.97,16.61,26.69,15.46,35.8,14.75,7.31-.58,30.39-4.05,31.85-12.9.76-4.61-3.1-6.43-3.22-7.72-.19-2.01,1.32-1.32,1.43-2.58.23-2.62-.27-5.59-.05-8.26,13.23.17,25.51-5.89,38.79-4.59-.65,2.01-.31,5.38-1.08,7.08-1.05,2.34-24.62,9.07-26.87,18.53s10.41,13.02,17.85,13.73c10.44,1,43.71-1.01,49.43-10.87,3.45-5.94-.4-6.35-1.17-10.44-.91-4.79.28-12.68-.57-17.93,3.98-1.01,8.06-3.79,11.73-5.03,7.21-2.42,18.27-1.81,21.02-10.59-1.74-10.19-2.95-20.48-4.64-30.67-1.53-9.23-3.69-20.27-5.41-30.2-1.04-5.99-2.78-11.65-3.75-17.61l64.43,8.87v236.3H4.74v-238.93ZM71.8,639.49c2.84,2.99,5.72-10.97,5.83-12.24,1.34-15.39-9.31-12.89-16.02-3.55-3.07-9.27-15.15-11.72-15.45.02-6.15-2.56-18.18-5.55-15.63,5.45.45,1.93,7.58,11.12,9.06,9.66,0-4.95-14.28-14.25-2.96-14.5,8.05-.18,7.56,4.91,13.79,6.61,2.47-.6-2.61-6.38-2.28-7.5,2.28-1.32,1.23-5.1,4.89-5.01,4.98,1.93,6.25,7.25,6.95,12.1,2.91,1.89,2.51-2.44,3.33-3.66,1.23-1.82,5.2-7.15,7.03-7.59,10.91-2.63.34,19.02,1.47,20.21ZM557.45,696.89c-4.42-6.87-18.23-6.63-20.18,2.42-13.48-8.55-29.42,6.03-15.77,17.74-10.97,3.32-6.63,16.95,3.25,18.78,4.79.89,6.86-.57,11.21-1.68-.89,2.84-.17,6.1-.6,8.91-.18,1.17-1.26.9-1.34,1.42-.59,3.81-.1,8.53-1.99,12.01-2.97-9.33-13.73-18.32-23.93-17-13.8,1.79-2.49,18.34,3.59,23.2,12.05,9.65,33.37,9.69,46.29,1.67,5.33-3.31,15.25-13.04,5.4-17.2s-21.65,3.87-27.4,11.29l2.63-21.69c10.37,8.21,26.77,4.69,22.36-11.15,17.55-2.21,13.5-21.6-2.65-21.05-.09-2.24.4-5.72-.86-7.68ZM147.41,782.46c-.15,3.16.11,6.37,0,9.53-5.02-6.03-11.74-13.94-20.11-15.06-13.02-1.74-12.16,7.97-5.56,15.42,11.3,12.74,33.76,15.04,48.25,6.77s18.13-28.89-4.39-18.85c-6.18,2.76-10.36,7.62-14.9,12.39v-13.47c0-.53,7.68-4.35,7.31-7.48,13.06,6.7,28.36-8.31,13.75-18.22,12.58-12.34-1.63-24.2-15.13-17.35-5.23-12.48-25.19-9.05-23.31,5.28-16.26,2.15-17.65,20.28-.66,22.94-.8,10.13,5.17,16.58,15.4,15.82.37.93-.63,1.89-.65,2.3ZM444.84,766.61c-.88,1.29-4.35,5.76.22,3.85,4.98-2.09,9.1-14.06,5.76-18.56-4.93-4.59-10.59-.27-15.12,2.61-1.55-.15-.56-13.2-9.53-11.54-7.23,1.34-7.04,11.36-8.22,11.53-20.1-11.25-19.82,10.11-5.6,16.45,2.07-2.1-10.07-10.09-7.58-15.11,1.46-2.94,9.51-.61,11.76.75,1.67,1.01,5.53,7.5,5.64,2.3.09-4.13-2.31-9.6,2.85-12.49,9.08-5.07,6.31,15.05,7.72,16,2.2-.05,2.25-3,3.68-4.53,9.25-9.94,17.75-4.99,10.01,7.41-.4.65-1.32.91-1.6,1.32Z" fill="#fff"/>
  <path d="M408.23,504.28c.52.77.96,3.78,2.04,5.52,4.62,7.51,15.16,6.61,20.82.85,2.58-2.62,2.68-5.36,4.93-7.88-1.59,5.82,2.51,6.3,3.99,8.84,1.15,1.98.7,4.82,2.97,6.89,3.81,3.46,16.55,2.89,21.49,1.86s8.24-4.58,11.61-5.48c3.93-1.05,10.06-.99,14.54-1.9,2.5-.51,9.74-4.21,11.48-2.32,1.3,2.14,1.53,5.27,2.38,7.35,15.3,37.74,23.84,98.55,30.86,139.55,1.42,8.31,4.32,14.68-4.93,18.12-6.13,2.28-19.09,6.77-25.21,8.32-15.59,3.95-25.52-1.53-39.94-1.15-10.73.28-22.18,5-32.81,5.31-15.39.45-26.28-6.92-40.21-9.16-7.82-1.26-16.92.92-24.07-2.88-5.04-2.67-3.89-5.46-3.79-10.65.39-19.49,4.32-40.67,6.54-59.3,2.12-17.78,4.1-35.68,7.2-52.63,3.46-18.91,7.52-36.62,13.9-54.66,2.66,1.26,15.21,3.94,16.21,5.41ZM482.3,619.55c-.71-2.29-.49-4.89-1.9-7l-1.64-.34c-.57.4-.54.58-.54,1.17.03,2.58,3.02,13.81,3.9,17.03,2.36,8.58,9.8,29.31,17.33,34.72,1.52,1.09,3.81,2.36,3.32-.67-10.18-9.12-14.23-22.61-17.9-35.35-.93-3.23-1.7-6.7-2.58-9.56Z" fill="#fff"/>
  <path d="M272.56,335.59c13.66,17.3,7.66,26.58,14.7,42.79,2.64,6.07,8.74,9.3,12.37,13.96,8.06,10.33-2.35,5.49-5.63,9.53-1.2,1.48-.84,3.3-1.5,4.76-.19.42-1.66.66-2.14,2.12-4.11,12.52,18.6,9.31,18.83,23.38.05,3.22-1.99,7.41-2.03,10.56-.07,6.78,5.16,8.92,7.61,14.06,1.75,3.66,1.65,7.3,3.64,10.22l-2.7,7.56c-1.07.73-9.51-9.37-10.81-10.55-6.84-6.2-14.08-10.39-22.06-14.91-.22-5.05,3.01-8.53,3.87-13.74,2.2-13.34-3.67-25.38-6.42-37.57-3.12-13.8-5.17-28.04-9.21-41.13-13.05-2.81-26.36-4.79-39.04-9.11-2.5-.85-9.8-5.06-11.39-5.12-2.54-.09-4.99,5.19-6.89,6.85-7.72,6.76-20.75,13-30.51,16.17-3.31,1.08-21.97,4.99-22.69,5.92-.08.1-.24,1.38.32,1.3h6.25c.5,7.77-.67,16.33-.03,24.01.94,11.26,10.91,22.53,21.4,26.56,11.43-8.88,21.3-13.72,36.18-13.13,4.21.17,7.87,1.82,12.47,1.33,6.84-.72,7.43-5.11,16.46-4.62,5.35.29,16.07,5.53,19.56,4.48s3.63-8.33,5.07-11.03c2.61,14.42,9.68,26.33,3.5,41.22-.49,1.18-2.18,1.14-2.69,3.28-1.66,6.96,4.41,17.67-5.23,23.04-6.32,3.52-9.88.65-14.79,1.51-.85.15-4.3,7.13-6.45,8.8-8.8,6.82-22.55,5.92-32.1,1.27-2.84-1.38-5.99-4.86-9.12-5.36-6.91-1.12-14.25,3.88-22.76-.89-7.49-4.2-7.07-12.31-11.69-17.89-6.47-7.8-12.62-8.24-14.29-21.21-1.27-9.84-.23-18.01-1.99-28.37-.42-2.47-2.27-16.26-3.33-16.92-26.36-3.73-21.49,34.03,1.96,31.24.29,4.78-.44,10,.07,14.72.43,4,2.76,5.9,3.22,9.6-19.32,4.16-37.62,10.48-51.65,24.97-3.2-1.66-5.26-6.74-5.55-10.17-1.17-13.55,14.29-16.83,16.28-28.42,1.24-7.19-1.44-11.38-1.83-17.56-.96-14.97,11.01-18.93,15.46-30.6,3.4-8.93,3.87-18,6.45-27.08,6-21.08,31.48-35.55,52.76-34.72,4.3.17,10.75,2.34,14.43,2.03,3.27-.27,6.15-3.02,9.19-4,20.5-6.61,41.4.28,54.5,16.88ZM255.01,420.41c.49-.63.79-1.28.88-2.08-.47-.48-.79-1.15-1.63-1-.58.1-6.94,6.02-9.29,7.15-6.28,3.03-13.11,3.98-19.86,2.26-2.58-.66-13.1-6.97-13.92-6.12-.08.08-.13,1.89-.03,2.19.19.53,8.46,5.1,9.71,5.54,10.91,3.82,26.71,1.64,34.15-7.94Z" fill="#fff"/>
  <path d="M496.76,282.35c24.73,26.56,11.29,54.38,29.99,81.24,4.75,6.82,12.03,12.29,14.18,20.85,3.05,12.15-5.21,20.91-1.53,32.42,1.86,5.83,6.68,8.65,7.02,16.02.35,7.62-6.37,14.44-13.67,15.28-1.45-3.64-2.73-8.15-4.48-11.59-8.42-16.56-19.6-32.1-37.67-39.27-3.84-1.52-23.68-5.64-24.32-6.72-.14-.24-1.21-5.12-1.02-5.45,1.41-1.13,3.25-1.48,4.65-2.63,2.06-1.7,10.29-10.68,10.98-11.04,1.55-.81,8.28,3.76,12.27-1.2,2.53-3.15.55-7.29,1.55-9.3.17-.35,4.57-2.81,6.06-4.79,2.61-3.48,2.94-8.03,4.95-10.94v-2.33c-2.08-1.87-1.79-4.9-3.63-7.67-2.9-4.37-10.69-6.65-15.35-4.26-2.1,1.08-3.19,5.07-6.62,3.22l-7.53-15.48c-15.27-3.58-32.3-10.2-43.03-22.05-1.63-1.8-6.72-10.13-7.64-9.94-8.65,15.83-23.37,24.34-40.38,29.16.38,11.26-2.26,22.6-1.39,34.13,1.3,17.13,10.14,31.75,25.42,39.66.53.28,9.12,2.71,7.48,4.02-4.75,1.28-9.82,1.93-14.45,3.64-13.94,5.16-26.29,18.6-32.24,31.86-8.04-3.67-8.98-9.93-6.23-17.74,1.04-2.95,4.09-6.01,4.59-8.55,1.78-9.1-3.66-9.27-5.78-16.56-4.89-16.88,11.43-24.22,16.66-38.3.48-1.3,2.51-7,2.58-7.4,1.14-6.34-3.72-12.47-4.5-18.99-7.27-60.58,88.15-76.81,123.11-39.27Z" fill="#fff"/>
  <path d="M175.31,458.45c5.08,6.98,4.39,14.1,13.94,17.95,9.63,3.88,14.45-.7,20.82.22,2.08.3,8.08,5.09,10.83,6.26,14.08,6.01,32.45,3.31,40.02-10.94,5.05,1.6,8.61-.41,13.38-1.07,3.83,6.34,4.52,13.83,5.98,20.88.1.48,1.09.56,1.18,1.04,3.65,19.32-1.26,37.81-4.23,56.64-23.03,6.71-48.28,10.18-72.32,9.25-6.72-.26-20.03-1.03-26.2-2.73-3.08-.85-5.16-3.3-8.11-4.38-6.15-2.26-10.51-1.03-16.59.48-3.35-8.89-5.05-18.81-5.31-28.44,9.46-4.69,14.41-12.27,17.45-22.14,5.39-17.51,5.05-38.39-6.9-53.55l4.6-1.37c3.27,4.68,8.07,7.24,11.46,11.9Z" fill="#fff"/>
  <path d="M519.79,428.91c1.52,2.58,11.54,19.72,10.26,21.28-13.23,3.81-26.91,10.06-40.77,10.19-2.51-1.18-5.52-16.2-8.53-19.73-.6-.7-.95-1.34-1.66-.32-.71.78-.19,1.8-.03,2.67.39,2.15,6.91,18.88,7.92,19.7,1.28,1.03,2.97.27,3.97,1.29.49.5,2.36,9.02,2.18,10.04-.89,5.17-19.02,13.63-23.9,13.52-2.47-.06-7.3-3.76-11.33-4.32-3.33-.46-6.75-.2-10.06.17-.32-.17-1.58-2.49-1.62-2.92-.14-1.24,11.04-18.43,12.69-21.58.54-1.02,1.72-1.27,2.08-2.02,3.44-7.08,4.92-19.09-3.08-23.67l-2.48.54-18.73,28.92c-2.01-5.86-3.54-12.43-5.83-18.14-.93-2.3-4.27-10.2-5.45-11.67-1.58-1.96-3.15-2.59-5.49-1.09-6.47,10.42-4.26,19.25-.33,29.92,1.45,3.93,8.12,15.09,7.89,17.67-.62,7.17-7.74,4.92-12.65,7.8-1.89,1.1-3.71,4.18-5.46,4.44-2.85.43-12.67-2.77-14.14-5.56-1.3-2.46-1.37-10.45-1.96-13.7-1.34-7.31-3.16-13.96-2.58-22.48.62-9.18,6.35-17.27,7.21-26.63-1.38-.3-1.5.7-2.09,1.51-.92,1.26-4.56,9.44-5.15,11.28-1.77,5.51-1.98,11.46-3.59,16.74-3.27-1.71-21.78-9.81-22-12.75-.28-3.71,9.05-19.47,11.79-22.86,5.03-6.24,14.17-13.68,21.56-16.76,2.37-.98,12.39-4.24,14.34-4.09.83.06,1.21.23,1.49,1.06,3.54,34.3,48.46,23.2,57.92-2.08,22.95,2.7,36.42,14.65,47.64,33.6Z" fill="#fff"/>
  <path d="M343.33,598.08c-21.59-5.87-34.77,10.95-51.7,18.97-23.54,11.16-32.91-3.59-53.73-1.79-10.25.89-26.43,8.27-33.19,16.11-3.53,4.09-8.49,16.98-14.91,17.04-.87,0-10.91-9.93-13.15-11.53-8.01-5.76-18.29-9.07-25.32-16.1-9.38-9.38-9.35-19.33-6.47-31.82,9.59-.76,18.03,3.66,27.06,5.73,2.2-3.39,7-3.82,9.38-5.79,1.33-1.1,1.34-2.61,1.85-3.08,4.14-3.86,7.21-4.09,5.69-11.41,23.89,2.11,48.2,3.77,71.67-2.3,8.2-2.12,16.77-7.52,25.13-6.72,14.64,1.41,39.55,13.24,50.48,23.14,1.35,1.23,8.47,8.12,7.22,9.53ZM222.75,584.98c-.31.08-1.34.87-.73,1.28,20.92,5.63,37.36,18.81,60.3,13.6,5.91-1.34,11.75-3.94,16.3-8.03-1.41-4.04-5.81,1.55-7.95,2.58-11.34,5.46-22.71,5.17-34.63,1.89-7.09-1.95-27.6-12.75-33.28-11.32Z" fill="#fff"/>
  <path d="M146.49,619.38c7.95,10.16,20.26,13.19,30.17,20.79,4.88,3.74,9.75,12.93,16.57,9.97,2.59-1.12,7-6.76,8.68-4.32,1.06,12.04,1.81,24.1,3.33,36.1.15,1.2,1.23.93,1.3,1.46.53,4.04,3.56,27.31,1.28,29.01-11.17.83-22.58,1.17-33.77.07-4.11-.4-13.63-1.2-16.44-3.94-3.53-3.44-2.75-13.18-3.64-17.93-.44-2.33-1.46-6.77-2.14-9.81-2.51-11.28-6.46-20.11-17.33-25.42-4.32,1.49,3.94,5.05,5.71,6.8,10.85,10.67,9.69,29.71,11.8,43.74-16.42-2.99-36.63-4.47-51.41-12.68-6.6-3.66-3.9-2.79-6.09-9.06-.61-1.76-2.16-.77-1.62-2.54.43-.03,1.02-.1,1.22-.54,8.16-18.19,21.24-54.71,35.89-67.19,1.25-1.06,8.86-6.68,9.87-6.5,2.06,4.94,3.37,7.85,6.62,12Z" fill="#fff"/>
  <path d="M423.43,292.57c.44.24,4.64,6.59,6.11,8.01,7.47,7.24,19.78,13.62,29.52,17.16,2.17.79,10.53,1.96,11.68,3.11,1.93,1.93,2.63,13.58,9.11,16.85,5.55,2.8,4.94-6.07,14.22-4.35,11.97,2.23,9.33,19.47.43,24.44-2.65,1.48-4.35-2.08-8.75-1.58-8.41.96-5.19,9.09-6.81,13.62-1.92,5.35-19.24,15.93-24.69,18.04-23.24,9-53.93,4.7-65.87-19.19-7.89-15.79-5.02-34.2-3.5-51.16,10.48-4,23.25-8.86,31.04-17.28,1.92-2.07,4.77-9.17,7.52-7.68ZM391.99,325.3c6.48-2.23,10.27-5.59,17.4-1.31,2.22-1.47-.14-3.25-1.97-3.93-4.31-1.6-14.5-.66-15.43,5.24ZM436.04,325.96c6.03-2.04,11.66-4.26,18.02-1.25,2.38,1.13,3.12,4.62,4.99,2.23-2.71-7.1-15.41-7.54-21.07-3.96-1.36.86-2.31.9-1.94,2.99ZM407.37,342.82c-5.18-11.26-15.62-4.77-14.02-.19,2.01,3.08,2.75-1.76,4.56-2.52,4.3-1.83,6.86.76,7.26,4.9l3.25-.65c.59-1.49-.91-1.24-1.05-1.53ZM452.09,342.79c-3.8-6.88-11.46-5.68-14.09,1.24l2.61.98c2.26-7.19,8.69-3.89,10.27,1.95,3.8-.75,2.29-2.22,1.21-4.17ZM420.91,340.43c-2.98.61-3.26,4.71-5.46,7.01-1.08,1.12-4.97,2.31-5.6,4.64-1.93,7.15,9.19,10.53,11.06,7.07,1.32-2.46-8.27-.3-8.61-4.59-.3-3.73,2.2-2.88,3.68-4.28,2.77-2.64,5.26-5.77,4.93-9.85ZM436.03,365.41c-2.98-.94-2.6,1.51-3.95,2.27-5.87,3.34-10.7,3.53-17.24,2.15-.86-.18-4.85-3.31-5.09-.82-.58,6.14,26.49,5.89,26.28-3.61Z" fill="#fff"/>
  <path d="M160.84,455.83c5.45,9.13,5.77,22.31,4.97,32.8-.91,11.77-6.04,25.89-16.76,31.88-1.3.21-2.11-5.72-1.93-6.65.4-2.11,5.37-6.95,7.1-8.63.98-1.7-.09-2.57-1.87-2.52-1,.02-10.96,13.18-13.13,15.19-1.33,1.23-7.78,6.13-9.06,5.81s-3.14-3.51-5.74-2.53c-1.69,1.6,6.34,6.14,7.16,6.96,1.44,1.43,9.03,10.33,8.57,11.69-6.09,3.65-12.25,7.27-17.31,12.31-2.46,2.45-8.03,11.18-9.91,12.48s-6.23-2.75-7.89-4.03c-17.13-13.19-29.72-28.4-19.8-50.67,8.72-19.57,31.42-46.66,51.22-55.25,3.66-1.59,14.55-5.62,18.05-5.69,2.48-.05,5.1,4.76,6.34,6.84Z" fill="#fff"/>
  <path d="M590.54,598.09l-64.47-8.18-14.44-59.19c11.59-6.42,27.52-14.96,41.13-14.83,12.25.11,27.93,8.56,37.78,15.49v66.72Z" fill="#fff"/>
  <path d="M268.88,358.99c1.88,6.2,2.28,12.73,3.5,19.06.1.5,1.09.34,1.29,1.48,1.64,9.08,3.98,21.62-1.83,29.26-8.09-2.33-15.82-5.72-24.5-4.6,1.11-8.79-8.85-13.75-14.78-18.41-2.82,2.78,2.81,4.83,4.6,6.56,5.2,5,13.65,13.05.99,16.13-4.46,1.09-7.85-.87-12.15-1.03-15.35-.56-25.74,2.82-37.56,12.53-21.44-8.54-18.66-29.37-17.3-48.58,17.47-3.93,37.84-10.72,48.69-25.61,15.64,6.94,32.27,10.18,49.04,13.21ZM262.47,369.35c1.63-10.11-22.39-7.4-22.37-.99,1.38,4.55,7.4-.12,10.88-.35,3.88-.25,7.48,2.03,11.49,1.33ZM201.85,368.23c-3.66.26-12.03,2.85-12.9,6.86-1.65,7.59,8.72-1.41,12.78-1.75,2.71-.23,11.33,2.61,10.81-1.67-.39-3.24-8.25-3.6-10.69-3.43ZM258.37,383.3c-.12-.25-3.96-2.85-4.58-3.03-7.34-2.07-10.41,8.39-6.78,7.48,1.28-.32,1.07-5.61,5.29-4.95,3.04.48,2.71,4.55,6.22,3.63-.07-.99.29-2.24-.15-3.14ZM211.18,392.35c.39-5.61-6.32-8.5-10.46-4.87-1.56,1.37-1.37,3.62-3.35,4.55l3.93,1.63c-.19-6.06,5.75-7.56,7.37-1.42l2.51.11Z" fill="#fff"/>
  <path d="M4.74,549.78c13.94-7.4,27.81-17.79,44.41-16.79,7.25.44,31.17,9.77,37.35,13.93s12.59,12.83,19.55,17.92c7.55,5.52,16.06,9.54,24.27,13.86-41.98,4.49-84.63,5.93-125.58,16.76v-45.68Z" fill="#fff"/>
  <path d="M322.12,443.14c.8.75,1.57,4.12,2.59,5.58,15.07,21.63,37.61,52.88,65.29,26.45-.13,2.77,1.49,6.29,1.39,8.89-.09,2.41-1.65,3.65-1.98,5.95-.42,2.92.68,5.28.47,7.65-.37,4.08-4.91,12.26-6.26,16.8-4.01,13.54-6.8,27.17-9.4,40.89-14.32-8.41-29.66-9.37-45.36-3.95,3.63-6.73,7.29-12.78,8.77-20.48,4.94-25.66-4.78-33.49-18.71-52.07-.67-.89-1.77-.96-1.88-1.07-.19-.2,2.21-2.57,2.82-4.72,5.16-18.12-11.98-19.85-8.08-36.67,1.83.93,2.3,3.1,3.96,4.25,1.76,1.22,5.33,1.51,6.38,2.5Z" fill="#fff"/>
  <path d="M341.11,653.73c-.04.16-.89.26-1.01.74-2.15,9.1-3.78,18.46-5.39,27.68-14.4,2.97-29.06,1-43.28-1.94-2.17-20.03,5.31-40.22-.64-59.7,12.04-5.12,37.36-28.16,50.91-19.81,11.46,7.06,1.92,42.07-.59,53.03Z" fill="#fff"/>
  <path d="M299.7,462.92c9.76,8.32,34.07,36.14,36.23,48.24,3.24,18.21-5.99,32.37-14.31,47.49l-31.6-14.87c1.87-4.86,2.64-11.56,4.71-16.15.45-1.01,5.7-6.59,4.54-7.75-2.23-.58-3.61,2.81-5.48,2.51-.54-.09-7.25-5.2-8.69-5.81.97-12.04-.15-25.32-3.65-36.91-.15-.51-1.05-.6-1.34-1.46-.47-1.4-3.14-8.67-3.04-9.18.22-1.19,4.17-4.81,4.63-5.86,1.64-3.69.58-6.97,2.12-10.32,5.69,3.05,10.95,5.89,15.88,10.08Z" fill="#fff"/>
  <path d="M258.3,622.62c6.41,7.94,1.87,31.59.17,41.36-.09.51-1.15.48-1.24.97-1.43,7.65-1.74,15.62-3.62,23.21-14.12,3.87-28.86,2.92-43.1.32-1.2-.77-3.53-20.52-3.92-23.69-.65-5.27-.3-13.28-1.47-18.25-.5-2.13-3.05-3.21-3.12-4.72-.33-6.39,17.42-18.2,22.99-20.39,8.13-3.21,27.09-6.51,33.31,1.19Z" fill="#fff"/>
  <path d="M332.42,411.16c7.11,9.45,4.63,16.24,14.55,25.21,1.57,1.42,14.31,11.51,15.24,11.76,3.37.89,3.17-3.22,3.79-3.18l21.44,10.78c.05,6.4,4.12,13.45-.7,18.49-21,21.94-43.4-3.94-55.41-20.87-1.62-2.28-5.71-10.96-7.07-11.99-2.07-1.56-5.72-1.77-7.9-3.96-5.13-5.17-2.91-11.89-11.47-17.45-4.26-2.77-13.21-3.84-12.18-10.5,6.46-.63,12.61,2.42,18.4,4.94,1.23.54,8.75,5.97,9.21,3.26-1.04-5.07-22.88-10.43-23.59-11.56-3.57-5.65,9.55-2.65,11.56-2.03,6.48,2.01,11.77,6.96,17.95,8.66,1.51-1.35-5.91-6.01-6.88-6.58-3.82-2.24-9.11-4.35-13.49-5.25-.52-5.37,11.57-.96,14.5.3,5.24,2.26,8.72,5.52,12.06,9.97Z" fill="#fff"/>
  <path d="M528.07,453.48c1.06,7.46,1.98,15.78,1.31,23.32-1.73,19.35-26.06,30.48-42.71,34.2-8.96,2-8.87,1.51-17.29,5.06-5.82,2.46-24.63,6.06-25.45-2.76l11.83-1.65-.33-1.64c-5.12-.77-16.1,4.16-15.37-4.53l11.76-1.38-.29-2-12.2.7c-2.69-11.66,7.89-9.4,15.68-11.26,1.37-4.6-3.18-1.42-5.21-2.83l-.58-2.96c4.6-1.5,9.96.7,14.44,2.25,1.64.57,2.04,2.14,4.25,2.38,6.06.65,25.42-8.58,27.61-14.56,1.21-3.3-2.28-8.76-1.55-12.37l34.11-9.94Z" fill="#fff"/>
  <path d="M6.95,470.15c3.8-4.29,8.81-2.01,10.33-3.14.35-.26,2.27-6.32,3.35-7.83,7.67-10.77,26.67-12.55,36.73-4.06,1.49,1.26,4.67,5.94,5.71,6.17,1.42.32,3.57-1.47,5.27-1.72,21-3.09,23.11,23.28,4.94,25.97-5.59.83-9.76-1.37-13.68-1.18-2.18.11-5.66,2.83-8.57,3.25-5.12.73-13.58.12-18.7-.9-2.1-.42-4.29-2.42-6.23-2.38-1.52.04-3.86,1.95-6.2,2.39-4.32.8-12.79.35-14.66-4.48-1.36-3.51-.83-9.22,1.71-12.09Z" fill="#fff"/>
  <path d="M290.73,636.21c-.24,6.53-1.73,13.59-1.99,20.02-.56,13.73,1.08,28.01-1.23,40.96-.81,4.53-1.73,8.98-2.68,13.48-.94,1.61-22.24,2.48-24.55,1.67-1.89-.66-6.35-6.89-6.38-9.37-.06-5.42,2.34-16.97,3.35-22.88.09-.5,1.14-.49,1.22-.99,2.1-12.51,3.72-25.13,5.59-37.67l26.67-5.21Z" fill="#fff"/>
  <path d="M78.76,678.03c-.26.38-1.59-.05-1.04,1.56,5.29,1.25,11.63-.17,13.76,6.29,3.12,9.44-7.89,14.04-15.74,11.47,4,10.68-8.57,18.6-16.77,11.84-4.36-3.6-2.82-6.85-4.61-11.18-1.39-.33-8.92,8.22-16.97,1.21-5.06-4.4-2.86-11.82,2.86-14.02,2.15-.83,7.81-.16,5.79-3.51-1.21-2.01-11.19-2.11-5.69-12.19,4.33-7.93,15.22-3.7,19.93,1.56,1.59-11.35,19.79-13.3,21.89-2.14.83,4.44-1.24,5.92-3.41,9.12ZM63.12,675.79c-14.65,1.25-12.34,21.31,2.39,18.87,13.02-2.15,10.91-20-2.39-18.87Z" fill="#fff"/>
  <path d="M370.85,582.21l-36.21.59-18.92-11.31c5.4-6.22,7.44-14.96,15.63-17.91,14.16-5.11,29.97-3.46,42.15,5.52l-2.65,23.11Z" fill="#fff"/>
  <path d="M181.6,566.53l-13.8-5.25c.12.66-.22,1.82-.04,2.24.56,1.34,19.11,5.92,19.13,13.85,0,2.4-1.53,4.53-3.98,3.31-2.41-3.84-6.18-6.35-10.27-8.15-1.25-.55-8.38-3.53-8.79-1.72-.02,3.19,5.17,3.19,7.47,4.35,4.21,2.11,8.24,3.85,9.63,8.85l-2.85,3.74c-2.65.88-3.87-3.76-5.46-5.36-3.57-3.62-8.57-4.15-13.36-5.08-1.23-.35-2.04,1.86-.93,2.37,4.02.11,13.97,3.85,14.59,8.36.94,6.86-11.91.46-15.54-.28-8.16-1.66-23.47.3-21.79-12.31.6-4.51,12.06-16.28,16.18-18.67,12.86-7.46,23.66-3.35,29.8,9.74Z" fill="#fff"/>
  <path d="M183.14,564.34c-1.04-1.6-1.58-3.53-2.86-5.03,32.26,4.1,65.05,1.78,96.46-6.43,8.92,8.47-3.55,12.32-10.36,14.61-24.83,8.34-52.09,6.87-77.77,4.2-1.36-2.49-4.08-5.22-5.46-7.35Z" fill="#fff"/>
  <path d="M462.98,387.09c1.09,4.29.51,6.66,5.65,7.19,1.11,1.45-5.87,10.45-7.3,11.86-14.93,14.8-47.45,14.98-43.65-12.42,15.9,2.08,30.84.12,45.3-6.64Z" fill="#fff"/>
  <path d="M503.75,687.48l.54,17.96c-1.09,3.13-20.09,8.99-23.07,8.23-1.21-.31-3.08-3.23-4.47-4.13-5.53-3.6-12.38-6.71-19.02-6.95-1.85-1.52,11.56-5.72,12.51-6.88,1.81-2.21,1.07-9.21,2.39-9.59,10.64,1.79,20.36,3.5,31.12,1.35Z" fill="#fff"/>
  <path d="M459.96,442.72c.06.19.9.1,1.1,1.19.17.95.14,4.2-.08,5.15-.11.49-1.09.57-1.23,1-3.64,11.32-11.51,21.23-18.8,30.37.54-4.48-4.89-6.24-7.78-3.13-1.68,5.53,2.14,7.25,6.78,4.77-1,2.65-7.91,6.47-8.42,8.69-.27,1.15,1.35,5.77,1.23,8.42-.32,7.7-6.57,14.6-14.66,13.31s-9.86-14.36-5.39-20.18,12.25-3.57,14.43-5.29c1-.8,1.54-4.19,2.31-5.44,9.27-15.1,18.75-30.39,28.25-45.17.76,2.13,1.61,4.15,2.24,6.33ZM426.62,494.44c-7.51-6.78-17.23,9.03-8.58,13.51,7.3,3.78,14.7-7.99,8.58-13.51Z" fill="#fff"/>
  <path d="M427.44,690.8l-.58,12.11c-1.54,1.9-21.02,7.39-24.13,7.53-4.05.18-5.71-3.66-9.14-5.84-4.01-2.56-8.72-4.05-13.45-4.64,2.24-2.75,13.67-3.97,15.14-5.56,1.26-1.38,1.58-8.64,1.96-10.86l30.19,7.26Z" fill="#fff"/>
  <path d="M507.03,708.52c.95,4.89-2,7.06-5.87,8.91-10.21,4.87-49.7,10.54-56.56-.05-2.99-4.62,4.66-12.4,8.23-12.78,1.35-.15,9.12,1.14,10.85,1.59,7.13,1.86,11.44,6.52,17.38,10.27,9.35-.5,17.45-4.67,25.98-7.94Z" fill="#fff"/>
  <path d="M276.3,742.66c-.56-4.16-4.18-9.16-8.58-9.17-.06,3.04,7.72,8.39,5.82,11.09l-6.46,1.38c.79-2.84-5-10.83-7.57-10.5-.49.06-1.31,1.15-.47,1.76,4.73,5.1,9.64,11.95-1.87,10.42-1.2-2.43-3.31-9.12-6.86-8.92-3.24.18,4.12,6.15,4.17,8.37.1,4.32-17.46-.55-17.72-1.53.72-12.07,25.31-22.62,34.87-19.6.85.27,10.89,8.91,11.26,9.77,2.04,4.68-2.71,6.56-6.6,6.93Z" fill="#fff"/>
  <path d="M428.75,705.93c2.2,7.43-9.09,10.16-14.4,11.46-11.57,2.82-28.74,4.38-40.12.66-5.76-1.88-10.51-6.03-5.17-11.76,6.06-6.51,17.8-3.45,24.2,1.28,1.49,1.1,4.25,4.99,4.65,5.2,5.81,3.02,29.46-7.65,30.84-6.84Z" fill="#fff"/>
  <path d="M146.52,544.42c1.29,1.44,4.54,7.41,4.08,9.15-.52,1.97-5.42,4.23-6.52,5.35-4.28,4.37-10.68,11.32-11.14,17.48l-17.64-8.64c-.86-1.3,4.01-7.36,5.16-8.76,6.11-7.41,13.76-12.76,22.14-17.35.47-.05,3.48,2.29,3.91,2.77Z" fill="#fff"/>
  <path d="M251.81,706.03c.33.18,3.58,5.44,4.08,6.42-14.58,1.94-31.54,9.56-34.19,25.65-3.54,3.34-3.96-13.71-4.38-15.66-.47-2.15-1.22-4.44-2.08-6.47-1.52-3.59-5.53-5.87-3.29-9.98l39.86.04Z" fill="#fff"/>
  <path d="M345.96,711.8c-11.32,1.31-25.83,7.76-25.64,21.04l-13.04-3.4c-.5-15.51,15.11-23.99,28.34-26.74l10.34,9.1Z" fill="#fff"/>
  <path d="M361.07,725.6c-3.03-3.79-7.46-7.52-12.48-7.88-2.04,1.73,11.94,7.46,9.76,10.69l-3.81,2.43c.14-2.45-6.29-9.57-8.24-9.17-4.31.89,8.42,7.51,5.48,10.73l-1.38,1.28c-5.19,2.23-3.78-2.2-6.07-5.46-1.05-1.5-4.69-4.46-6.59-3.93-1.46,2.85,2.67,3.28,3.95,4.6,11.15,11.39-18.32,7.96-19.3,4.16s5.16-11.25,8.1-13.35c3.85-2.75,14.41-5.9,19.03-5.2,2.93.44,12.46,7.27,11.55,11.12Z" fill="#fff"/>
  <path d="M267.72,723.63c-13.82.06-28.64,7.29-34.24,20.33-20.31-3.03-.86-21.33,8.63-25.23,3.2-1.31,12.85-4.05,15.92-3.54,1.08.18,10.55,7.69,9.69,8.44Z" fill="#fff"/>
  <path d="M331.49,699.32c.28,1.34-.66,1.55-1.51,2.09-3.84,2.46-9.67,3.56-14.21,6.82-6.71,4.81-11.11,11.48-11.23,20-6.31-.62-4.84-8.47-6.91-13.79-2.72-7-10.07-8.75-6.23-17.76,12.82,4.15,26.77,3.7,40.09,2.63Z" fill="#fff"/>
  <path d="M317.29,564.15c-.98,1.38-3.66,6.16-5.14,6.31l-29.97-8.87,7-14.75c5.43,1.47,10.71,3.41,15.81,5.78,2.81,1.31,12.08,6,14,7.7s-1.08,2.96-1.7,3.83Z" fill="#fff"/>
  <path d="M205.48,736.57c-.89-1.38-.86-3.75-.87-5.38.6-1.92,5.2,3.19,6.08,3.78,9.36,6.18,25.23,15.17,36.34,16.25s27.18-2.7,36.82-9.18c5.38,4.7-4.93,9.76-9.11,11.28-13.58,4.93-28.42,4.5-41.86-.45-5.65-2.08-24.47-11.74-27.41-16.3Z" fill="#fff"/>
  <path d="M253.26,692.09l-2.13,10.36c-12.23,3.93-26.31,2.22-38.82.16l-1.45-11.19c14.05,2.79,28.23,2.03,42.39.67Z" fill="#fff"/>
  <path d="M291.39,682.88c13.78,3.07,27.56,4.44,41.71,2.62.69.23-2.13,9.16-1.67,11.12-13.3,1.65-27.08,1.02-40.04-2.56v-11.17Z" fill="#fff"/>
  <path d="M361.73,729.55c.75,4.91-1.19,8.45-5.45,10.65-15.17,7.87-46.24.52-61.08-6.91-4.47-2.24-12.44-5.77-11.04-11.63,23.7,10.48,53.96,27.64,77.57,7.88Z" fill="#fff"/>
  <path d="M70.49,739.4c2.04-13.41,14.27-29.17,28.97-22.72,1.63,2.39-.8,6.28-2.15,8.46-5.3,8.57-16.92,13.68-26.82,14.26Z" fill="#fff"/>
  <path d="M423.5,434.45l11.71,31.3c-6.05,15.59-7.24,6.92-11.5-2.23-2.63-5.65-5.45-10.63-5.49-17.59-.01-2.17,1.88-13.56,5.27-11.48Z" fill="#fff"/>
  <path d="M64.35,732.39c1.3,2.02,1.97,4.63,2.18,7.02-7.28-.91-14.98-1.98-21.26-6.02-10.98-7.04-12.95-18.88,4.16-12.7,4.99,1.8,12.09,7.29,14.92,11.7Z" fill="#fff"/>
  <path d="M287.27,622.6c1.4.34,4.02,9.91,2.84,10.67l-25.57,4.81-3.38-15.67c8.84,2.71,17.24,2.19,26.11.19Z" fill="#fff"/>
  <path d="M159.25,417.33c-18.21,2.41-24.59-27.27-4.28-26.31l4.28,26.31Z" fill="#fff"/>
  <path d="M292.6,523.91c.84,1.4-8.02,27.58-11.07,30.14.63-1.5-1.21-2.1-1.28-2.45-.83-3.89,1.18-4.19,1.24-4.59,1.46-8.74,2.01-17.71,3.32-26.48l7.78,3.39Z" fill="#fff"/>
  <path d="M144.12,517.24l3.28,23.66c-1.18,1.58-12.68-13.42-13.7-14.9l10.42-8.75Z" fill="#fff"/>
  <path d="M290.06,707.21c2.66,5.25,6.92,11.04,6.58,17.08-8.82-2.31-11.89-5.19-9.15-14.6.05-.17,1.88-3,2.56-2.48Z" fill="#fff"/>
  <path d="M215.13,734.15c-9.85-3.05-7.69-12.28-4.27-19.72.63,2.91,4.27,6.63,4.27,9.53v10.19Z" fill="#fff"/>
  <path d="M483.08,367.68c-7.44-8.18,11.02-13.85,8.79-1.33-.83,4.64-5.81,4.61-8.79,1.33Z" fill="#fff"/>
  <path d="M408.38,494.27l-1.27,5.88c-7.26-.93-15.94-2.33-13.8-11.83,3.95,3.88,9.73,5.1,15.07,5.95Z" fill="#fff"/>
  <path d="M444.85,485.44c.68,1.26,2.32,2.36,1.71,4.85l-4.61.37c-3.34-3.73-.96-5.25,1.65-8.25.2-.03.81,2.22,1.25,3.03Z" fill="#fff"/>
  <path d="M438,488.98c2.28,4.18-1.3,4.16-1.86,5.69-.45,1.25.62,3.83-.76,4.16-.64-3.5-2.22-8.86,2.61-9.85Z" fill="#fff"/>
  <path d="M438,478.46c1.28.84-2.18,2.44-2.62,1.96-1.24-1.35,1.26-2.86,2.62-1.96Z" fill="#fff"/>
  <path d="M549.4,204.75c2.98,8.54.97,17.32-5.19,24.61-13.43,15.92-41.34,10.51-59.82,10.46-118.15-.29-236.42.3-354.4.68-18.25.06-40.05,1.43-57.88.03-41.36-3.25-42.7-53.25-2.63-56.57,15.32-1.27,33.67.12,49.36.05,134.05-.61,268.41.24,402.78-.31,13.47,2.03,23.2,7.9,27.79,21.05ZM542.14,226.97c15.04-18.86-1.38-39.24-22.27-41.03-18.11-1.55-40.57.05-59.22-.02-129.11-.48-258.62.46-387.89.01-31.41.27-42.53,38.95-10.52,50,13.02,4.49,27.4,1.94,40.75,1.92,139.18-.2,278.34.21,417.54.05,9.01-1.06,15.94-3.84,21.61-10.94Z"/>
  <path d="M294.35,151.78c.51.08,3.49,1.11,3.88,1.38,3.69,2.53,1.39,7.8,3.02,11.1l8.63-30.35c7.76-14.51,2.38-25.34,23.95-23.57,11.4.93,9.86,4.46,13.51,13.3s8.55,21.78,10.92,31.29c2.14,8.58,5.38,14.76-6.13,15.82-9.64.89-11.52-1.46-14.04-10.11l-14.55.06c.97,12.7-18.03,13.41-23.26,5.53-.75,3.01-3,3.63-5.92,3.95-5.53.61-22.36,1.27-27.65.69-4.66-.51-5.75-1.67-6.24-6.25-1.65-15.59,1.05-34.43.31-50.35l1.05-2.24c2.56-2.56,15.55-2.22,17.79.6,2.61,3.3,2.22,13.4,1.97,17.83-.07,1.17-1.36.73-1.42,1.89-.3,6.44.33,12.99.05,19.43,4.37.47,9.93-.64,14.14,0ZM277.59,154.41v-37.14c0-7.3-13.71-4.3-14.35-2.52l.02,51.68c1.14,3.61,15.14,1.21,18.64,1.11,4.56-.13,11.01,1.81,15.42-.97v-10.52l-.99-.99h-17.09c-.23,0-1.01-.85-1.64-.66ZM347.53,133.14c-5.62-15.7-4.08-24.14-25.88-19.14-5.68,8.95-7.55,19.38-10.61,29.36-.15.49-1.03.6-1.17,1.07-1,3.4-6.39,21.14-5.23,23.03h13.93s4.03-9.81,4.03-9.81c3.26.63,17.38-1.15,18.76,1.2.86,1.46.72,4.96,2.06,6.98,2.81,4.24,10.17,2.11,14.3,1,.93-1.43-7.74-28.8-9.03-32.52-.28-.81-1.09-.98-1.15-1.16Z"/>
  <path d="M158.59,94.27c-1.44,7.6-16.29,6.66-21.35,3.6-.57-.81-.94-1.79-1.2-2.74-1.34-4.85-1.27-44.04-.45-50.15.17-1.25.32-2.5,1.01-3.59,4.79-3.22,12.67-3.41,18.05-1.68,7.67,2.46,16.37,23.42,18.08,24,1.41.48.89-.89.98-1.64.53-4.57-1.53-18.64.62-21.08,3.03-3.43,20.06-4.24,21.08,2.65,1.28,8.61.83,43.24-.71,51.89-1.09,6.15-15.48,5.53-20,3.64-4.97-2.08-12.08-17.2-16.12-21.68-.65,4.96.88,12.1,0,16.76ZM155.3,95.58v-28.59c1.53-.39,1.1.35,1.52.83,3.62,4.21,7.61,14.07,10.97,19.05.84,1.24,6.29,8.64,6.9,9.06,3.97,2.77,18.1,3.36,18.1-2.98v-49.95c-2.75-2.26-14.69-2.72-16.1.33-1.04,2.23,1.11,21.03.36,26-.17,1.14-.12,2.27-1.68,2.3l-19.05-28.31c-2.47-2.29-15.08-2.86-16.47-.66-.01,4.68-.8,9.51-.99,14.13-.36,8.72-1.21,28.77.33,36.54.13.64.81,2.77,1.18,3.09,2.29,1.17,14.12,1.54,14.95-.82Z"/>
  <path d="M349.25,42.34c1.53-7.5,20.88-6.16,22.2.78,2.86,14.97-2.8,35.44,0,50.98-.7,7.54-19.15,7.32-24.11,2.73-2.68-2.48-11.82-19.44-12.9-19.97-1.42-.28-1,.66-1,1.65.06,9.21,5.11,19.46-7.52,20.71-5.7.57-13.38.83-14.19-6.23-1.1-9.62-1.25-39.95-.01-49.37.12-.92-.06-1.87.66-2.63,2.18-3.93,17.31-3.32,21.14-1.32,4.45,2.32,11.12,19.64,15.72,23.39.84-5.98-1.14-15.14,0-20.7ZM351.88,43c-1.62,7.05,1.21,20.2,0,27.94-1.41-.54-3.64-3.12-4.61-4.45-3.35-4.63-10.89-20.99-14.01-23.61-3.75-3.15-13.03-2.41-17.57-1.22-.58,7.35-1.12,14.99-1.32,22.35-.11,4.19-.48,29.29.63,30.97,1.61,2.42,14.17,2.52,15.5-.38,2.49-5.42-1.88-21.83.66-28.25l18.76,29.2c2.17,2.72,16.6,1.95,17.63.26l.61-52.01c-.74-5.74-15.43-4.56-16.29-.8Z"/>
  <path d="M85.89,278.37c.92,1.32,1.45,2.04,2.12,3.61,9.29-2.45,22.8.59,23.93,11.75,18.64-1.53,24.38,18.49,6.54,25.99-4.23,1.78-11.54,2.1-16.1,1.63-3.32-.34-9.81-3.36-11.88-3.2-.68.05-8.5,4.26-11.33,5-6.46,1.67-12.02,1.99-18.59.56-4.22-.92-10.36-5.33-13.52-5.6-3.63-.31-8.76,1.83-12.48,1.86-30.36.21-25.94-39.23,2.42-38.33,4.21-18.09,29.61-21.89,42.71-11.23,3.02,2.46,4.11,4.98,6.18,7.96ZM108.24,290.86c-5.49-9-13.62-6.78-22.64-5.95-1.84-2.86-2.44-6.53-4.6-9.22-10.8-13.5-39.76-10.81-41.37,8.59-13.13.45-24.99,5.83-23,20.93,1.13,8.58,12.93,12.75,20.56,12.13,2.91-.24,8.72-2.61,10.46-2.41s8.21,4.67,11.52,5.59c7.1,1.99,14.51,1.83,21.54-.43,2.25-.72,9.16-5.12,9.93-5.17.59-.04,8.35,3.42,11.15,3.75,9.66,1.12,26.52-1.68,24.53-14.67-1.35-8.84-13.53-6.35-15.76-7.9-.24-.16-1.36-3.67-2.32-5.23Z"/>
  <path d="M408.16,125.9c-3.29,11.69-7.06,24.88-11.55,36.09-3.69,9.21-11.33,10.35-20.69,8.8s-9.5-10.98-12.12-18.09c-2.97-8.06-6.75-17.36-9.39-25.51-1.18-3.65-4.93-12.3-.83-14.78,3.15-1.91,15.79-2.17,18.72.21s7.42,26.84,9.16,31.93l9.88-32.5c4.25-2.21,18.49-3.19,18.93,3.22.16,2.28-1.43,8.16-2.13,10.64ZM406.29,113.82c-1.32-1.32-11.04-1.33-12.39.29l-11.46,38.98-1.69-.38-9.75-37.97c-1.31-1.71-14.03-1.67-16.37.34-1.43,2.57.94,3.83,1.11,4.36,3.87,12.11,8.6,31.75,13.79,42.58,4.16,8.7,18.2,8.68,23.74,1.7,2.44-14.37,11.65-30.66,13.68-44.66.27-1.84.38-3.62-.66-5.26Z"/>
  <path d="M434.72,166.57c-1.17,5.19-16.83,5.62-20.38,1.8v-54.9c1.39-.95,2.01-2.34,3.67-3.05,6.53-2.79,29.2-1.75,35.77,1.6,13.52,6.88,14.19,28.21.73,35.56,2.9,7.12,17.22,21.78.95,23.29s-12.75-8.11-20.74-17.11c-.55,3.67.76,9.47,0,12.82ZM432.09,165.91c.99-3.21-.73-11.29,0-15.12,7.95-4.46,9.03,11.8,12.89,15.37,2.81,2.6,10.75,2.8,14.08,1.08,3.73-4-9.59-19.56-9.21-21.02,14.45-4.01,14.98-26.42,1.82-32.1-6.34-2.73-22.75-3.45-29.61-2.28-3.86.66-5.35,2.28-5.78,6.05-1.66,14.51,1.19,32.35.17,47.21.43,4.94,14.76,3.64,15.64.8Z"/>
  <path d="M238.8,57.79c-1.28,1.28.87,30.9-.16,36.32-1.43,7.51-20.61,6.96-22.42,1.04-2.71-8.87,1.13-27.45-.43-37.36h-12.16c-7.7,0-8.75-16.03-1.47-19.22,1.95-.86,6.47-1.17,8.72-1.19,10.41-.11,26.11-.24,36.17.67,3.23.29,7.2.64,8.06,4.43.68,3,1.47,15.31-3.47,15.31h-12.82ZM236.17,55.16l16.13-1.29c5.35-18.3-9.61-12.87-20.4-13.12-6.67-.16-22.48-2.25-28.09.13-3.84,1.63-2.99,10.59-1.5,13.62h15.78l.99.99v39.44c4.98,2.81,12.14,2.38,17.09-.33v-39.44Z"/>
  <path d="M294.94,50.97c3.05,7.35,6.77,16.1,9.04,23.51,1.4,4.58,6.89,20.73,3.26,23.79-1.7,1.43-12.72,1.26-15.2.61-5.68-1.48-4.24-6.76-5.89-8.57s-12.31-.89-15.16-.67c-1.7,9.91-7.42,11.2-16.66,10.12-10.99-1.28-6.59-8.56-4.29-16.46s5.81-17.24,8.57-25.11c4.81-13.71,3.53-22.29,21.91-20.77,11.99.99,10.73,4.69,14.41,13.54ZM294.95,59.5c-1.11-3.09-4.5-15.67-6.23-17.12-3.61-3.02-17.04-3.39-20.7-.4-3.86,3.16-7.78,20.28-9.58,25.78-2.62,7.99-4.99,15.85-7.23,24.33-.07.28-2.48,1.56-1.14,3.72,3.63,1.98,14.2,2.46,16.61-1.27,1.05-1.61.9-7.06,2.77-7.75l19.64.56,2.94,8.89,13.2.04c.88-.6.65-2.32.63-3.3-.19-6.28-8.46-26.63-10.91-33.48Z"/>
  <path d="M430.54,48.82c6.71,8.2,7.16,24.8,2.68,34.09-7.74,16.05-33.22,18.6-48.83,16.98-1.51-.16-3.57-.5-4.69-1.56-.22-.21-2.84-5.04-2.89-5.34-2.25-14.23,1.81-34.47,0-49.36,2.07-4.21,4.98-5.13,9.56-5.58,13-1.27,35.26-.12,44.17,10.77ZM429.72,54.25c-8.32-14.65-29.25-15.42-44.63-13.55-2.68.33-4.5.67-4.96,3.58-1.36,8.5-.38,29.38,0,38.84.09,2.17.72,12.51,1.5,13.29,23.68,3.41,53.48-.69,51.69-30.98-.3-4.98-1.26-7.07-3.59-11.18Z"/>
  <path d="M511.91,125.89c3.35,8.68,7.81,20.05,10.2,28.9.8,2.96,3.13,11.46,1.42,13.82-8.45,4.15-20.79,3.92-21.02-7.89l-15.13-.31c-.3,10.41-8.14,10.84-16.76,9.71-9.16-1.2-5.53-7.43-3.63-13.85,2.23-7.52,5.97-16.3,8.58-23.79,3.81-10.95,2.38-21.75,16.68-22.73,15.9-1.09,15.1,4.36,19.65,16.15ZM505.51,115.84c-3.51-4.89-17.07-5.01-21.13-.19-2.6,3.08-14.93,41.67-15.83,47.27-.21,1.29-.59,2.58-.21,3.89,8.79,3.14,17.2,1.83,17.04-9.08,4.7.8,17.98-2.23,20.3,2.46,3.22,6.53.18,9.35,11.55,8.01,4.97-.59,5.07-2.34,3.73-6.98-2.46-8.52-6.48-18.34-9.41-26.79-1.5-4.33-3.75-15.41-6.03-18.59Z"/>
  <path d="M243.01,120.63c2.86,6.29,14.17,38.14,14.22,44.01.06,7.05-11.83,7.12-16.47,5.23-5.52-2.25-2.98-9.06-7.48-9.59-4.12-.48-9.27.42-13.52.09.72,12.81-14.03,12.39-22.19,7.66-2.56-3.24.6-5.94,1.04-7.58,2.17-8.05,11.85-43.64,16.49-47.8,3.9-3.5,14.93-3.32,19.79-1.99,6.11,1.67,5.99,5.28,8.12,9.97ZM243.02,129.16c-1.18-3.26-3.84-13.56-6.23-15.14-3.23-2.14-15.46-2.33-18.75-.41-3.7,2.17-9.85,25.78-11.36,30.69-.26.84-1.19.92-1.34,1.45-1.11,3.77-5.03,16.11-5,19.1.04,5.31,11.7,3.21,15.03,2.11,1.14-.84,1.27-6.73,2.44-8.23,1.73-2.23,15.76-.54,19.26-.95,1.94.75,1.27,7.92,4.16,9.65,2.49,1.49,10.29,1.24,12.75-.8,1.65-2.25-1.79-11.93-2.76-14.97-2.24-7.02-5.66-15.55-8.19-22.5Z"/>
  <path d="M110.39,113.21c2.8,2.66,2.76,10.59,6.04,13.49,1.71,8.4,5.79,16.89,8.07,24.68,2.88,9.82,7.77,18.1-5.87,19.28-8.57.74-12.18-1.54-13.92-10.04l-13.92.09c-.96,10.06-7.46,10.23-16.06,9.51-5.65-.47-7.26-.66-6.87-6.91.44-7.13,8.52-25.92,11.27-33.47,3.19-8.75,2.43-18.04,14.04-19.46,4.12-.5,14.08-.14,17.22,2.84ZM108.25,116c-4.84-5.19-19.1-4.65-22.63,2.08-5.3,10.09-10.55,32.61-13.89,44.35-.1.36-2.59,1.94-1.14,4.37,8.59,2.81,17.58,2.43,17.96-8.46l18.13-.35c2.82,8.09,3.57,11.64,13.38,10.16,5.33-.8,5.74-2.58,4.38-7.52-1.88-6.88-12.62-40.79-16.2-44.63Z"/>
  <path d="M73.77,81.45v14.79c0,5.23-15.85,4.46-19.25,3.47-3.68-1.06-4.11-4.13-4.44-7.4-1.09-10.93-1.05-35.08,0-46.05.85-8.89,4.57-8.4,12.27-9.42,19.74-2.62,51.27-.4,44.87,27.77-1.98,8.72-11.63,16.84-20.63,16.84h-12.82ZM70.49,94.92c.95-4.14-.7-11.56,0-16.1h14.14c24.2,0,30.01-34.51,2.56-39.37-5.28-.93-30.8-1.87-33.46,2.56l-.16,53.4c1.8,3.5,15.93,3.85,16.93-.49Z"/>
  <path d="M496.81,52.91c8.82,18.88.35,44.85-22.99,46.93-24.67,2.2-37.1-14.04-34.41-37.69,3.27-28.79,45.82-34.03,57.4-9.23ZM489.53,47.69c-12.82-13.16-39.72-9.5-45.79,8.92-7.23,21.95,4.35,42.28,28.77,40.6,22.72-1.56,30-27.16,21.04-44.66-1.4-2.73-2.15-2.94-4.02-4.86Z"/>
  <path d="M174.36,153.75c-.64,4.03,1.59,12.29-1.74,15.02-2.89,2.37-18.34,3.87-18.49-3.02v-51.62c.95-3.92,8.45-4.2,11.97-4.45,7.58-.53,18.94-.43,25.98,2.35,16.24,6.42,15.57,32.04.24,38.98-1,.45-7.87,2.74-8.43,2.74h-9.53ZM198.47,120.44c-6.64-10.81-30.28-8.85-41.04-6.63l.5,53.42c1.6,1.55,10.61.99,12.49-.01,3.08-1.64-.08-14.41,1.94-15.81,7.95-.25,16.12-.6,22.71-5.56,6.94-5.23,7.76-18.33,3.41-25.41Z"/>
  <path d="M540.02,68.85c3.16.18,11.71.45,12.39,4.43,1.78,3.98-6.96,8.14-7.27,9.3-.95,3.56,5.93,14.71-4.85,13.28-2.37-.31-8.04-3.72-9.37-3.78-.97-.04-6.38,3.48-8.48,3.78-10.15,1.47-5.81-7.82-4.46-13.46-12.56-8.72-8.7-15.23,6.08-14.18,2.65-13.14,12.92-11.35,15.96.62ZM534.28,64.73c-.71-.87-1.97-3.13-3.16-2.96l-5.67,9.54c-2.45.37-10.62-.58-11.54,1.58l8.17,8.36c-.02,4.26-4.61,7.45-2.57,11.75,2.77,1.93,9.08-4.19,10.92-4.35,2.23-.2,10.43,6.32,12.73,4.58,1.71-4.69-1.74-7.19-2.52-11.4,1.61-1.03,9.88-5.86,8.46-8.23-3.89-1.91-7.39-2.25-11.71-2.1-.68-3.08-1.19-4.44-3.09-6.77Z"/>
  <path d="M288.52,267.69c1.08,1.49,2.51,6.5,2.83,6.71,1.44.99,10.38.17,12.55,4.7.9,2.36-7.03,8.51-9.24,9.75,2.39,3.84,3.83,11.79-2.84,11.46-3.56-.18-8.15-4.38-9.96-4.32-2.81.09-8.34,6.04-12.42,2.94-3.72-2.38-.27-8.81.31-11.98-5-2.3-12.61-8.48-4.36-12.31,3.09-1.43,7.56-.67,9.58-1.6,2.13-.98,5.82-16.03,13.56-5.36ZM287.73,275.08c-1.62-2.78-1.59-6.32-4.56-8.22-3.57,1.03-4.76,8.39-6.87,9.44-1.33.66-11.32-.22-11.86,2.03l9.24,7.31c.67,1.8-2.88,5.73-3.2,8.63-.73,6.76,9.36-1.91,11.95-1.65,1.29.13,9.32,6.18,10.28,5.09l-1.23-10.72c.63-1.83,8.81-3.13,8.44-7.3l-10.77-2.31c-.15-1.2-1.12-1.78-1.41-2.29Z"/>
  <path d="M70.77,384.86c.24.86,1.91,2.05,1.04,5.05-4.9,6.88-11.09-.64-14.8-.61-2.3.02-10.43,8.87-14.36,3.56l.8-11.31c-12.97-6-10.86-14.24,3.4-14.47,3.25-12.65,11.78-13.21,16.38-.63,3.3-.1,11.2-.52,12.7,3.08,1.04,4.13-3.26,8.28-6.71,10.08-.33.99,1.21,4.01,1.55,5.24ZM71.56,374.36c.75-.87,2.08-2.51,1.28-3.74-2.73-2.53-9.26-.26-11.56-1.6-2.5-1.45-6.17-20.66-11.26.89l-12.44,2.42c-.35,4,8.65,6.23,9.18,7.96-6.18,21.63,5.03,6.34,9.6,6.07,2.82-.17,7.69,4.54,11.5,3.36.59-4.14-1.07-7.45-2.6-11.11,1.69-.97,5.13-2.89,6.3-4.25Z"/>
  <path d="M198.43,287.59c-1.28,2.67-12.62,18.48-15.06,18.53-9.4-4.25-24.99-9.81-27.62-21.02-3.22-13.69,12.79-17.04,22.13-11,10.39-15.37,28.91-3.9,20.55,13.49ZM190.41,294.01c2.82-3.88,6.48-7.89,6.97-13.08,1.33-13.96-14.38-14.07-19.38-3.09-7.15-6.34-20.97-5.84-19.34,6.32,1.12,8.4,16.55,15.23,23.53,18.48,2.62.17,6.63-6.44,8.23-8.64Z"/>
  <path d="M117.02,40.23c3.99-.42,12.38-.53,13.25,4.13,1,5.33.99,45.15,0,50.53-1.24,6.8-16.09,5.96-18.68,2.98s-.55-20.52-1.69-25.25c1.55-8.31-.89-21.29.71-28.94.56-2.66,4.14-3.2,6.41-3.44ZM126.87,43.48c-1.26-1.26-13.23-1.93-14.17,1.62.98,14.94-1.76,32.6-.16,47.22.1.95.06,1.89.51,2.78,1.32,2.61,13.31,3.49,14.51-.31l-.68-51.31Z"/>
  <path d="M566.71,350.78c-3.72,3.71-10.91-3.45-13.42-3.65s-9.96,4.84-13.22,1.67c-2.03-1.98.87-10.65,3.12-12.32-2.88-1.94-8.47-7.16-5.95-10.91,3.1-2.91,7.4-.85,11.2-1.97s3.8-11.57,10.92-7.55c2.73,1.54,3.14,8.03,4.54,9.26,2.07,1.83,11.4,1.18,12.07,6.38.63,4.86-8.47,6.64-9.02,8.5.42,2.33,1.41,8.95-.23,10.59ZM572.64,331.36c-1.65-2.73-8.69-2.34-10.1-3.36-1.88-1.35-1.98-9.33-5.86-9.94-2.86,0-4.43,8.1-5.02,8.46-2.04,1.26-8.27-2.02-11.35.15l-1.06,1.56c.23,3.13,5.95,5.31,6.49,7.41.73,2.86-3.69,7.81-2.52,11.35.94.97,8.5-2.77,10.14-2.63,2.03.17,7.05,4.78,9.92,4.64,4.34-2.68-.06-6.19.6-10.55l8.77-4.74c.34-.56.34-1.8,0-2.36Z"/>
  <path d="M557.45,696.89c1.26,1.96.77,5.44.86,7.68,16.15-.55,20.2,18.84,2.65,21.05,4.41,15.84-11.99,19.36-22.36,11.15l-2.63,21.69c5.75-7.42,17.76-15.37,27.4-11.29s-.07,13.89-5.4,17.2c-12.92,8.02-34.24,7.97-46.29-1.67-6.08-4.87-17.38-21.42-3.59-23.2,10.19-1.32,20.96,7.67,23.93,17,1.89-3.48,1.4-8.2,1.99-12.01.08-.51,1.16-.25,1.34-1.42.43-2.81-.29-6.07.6-8.91-4.35,1.11-6.42,2.56-11.21,1.68-9.88-1.83-14.22-15.46-3.25-18.78-13.65-11.71,2.29-26.29,15.77-17.74,1.96-9.06,15.77-9.29,20.18-2.42ZM556.59,726.04c-.43-.59-1.27-1.51-.27-2.1,18.66-.79,17.37-18.99-1.64-16.04-1.69-2.74,4.5-13.34-7.22-13.19-8.85.12-6.99,8-9.22,9.18-5.26-2.34-8.09-6.73-14.33-3.16-7.43,4.25-5.33,13.04,2.85,14.37l-.3,1.99c-13.88,3.07-8.68,18.67,3.77,16.25,1.8-.35,6.39-3.53,7.93-3.08,3.25,6.55,9.9,10.63,17.09,7.06,5.6-2.78,4.44-7.04,1.34-11.28ZM527,753.64c-3.75-6.46-9.74-12.7-17.91-11.84-8.63.91-3.75,9.68-.35,13.97,5.06,6.4,14.6,10.81,22.62,11.23-1-3.44-1.13-8.37-2.56-11.58-.56-1.25-1.57-1.4-1.8-1.79ZM535.31,767.01c3.95.23,7.44,0,11.31-.85,5.01-1.1,20.23-7.92,17.28-14.91-9.53-8.15-26.07,5.67-28.58,15.76Z"/>
  <path d="M147.41,782.46c.02-.41,1.03-1.37.65-2.3-10.23.76-16.2-5.69-15.4-15.82-16.99-2.66-15.6-20.79.66-22.94-1.88-14.33,18.08-17.75,23.31-5.28,13.51-6.85,27.72,5,15.13,17.35,14.61,9.92-.7,24.93-13.75,18.22.37,3.14-7.31,6.95-7.31,7.48v13.47c4.54-4.76,8.71-9.63,14.9-12.39,22.52-10.04,18.69,10.68,4.39,18.85s-36.95,5.98-48.25-6.77c-6.6-7.45-7.46-17.16,5.56-15.42,8.37,1.12,15.09,9.03,20.11,15.06.11-3.16-.15-6.37,0-9.53ZM153.78,735.67c-.56-.89-5.15-4.02-6.49-4.36-6.09-1.52-12.9,3.52-10.77,10.12.65,2.02,2.64,1.25,2.34,3.23-8.14-.07-11.65-.86-15.74,7.08-.02,3.32,3.43,8.47,7.02,9.21,1.7.35,7.06-.45,7.41,1.16-8.46,16.34,15.72,20.92,19.4,4.91,12.89,11.05,27.18-7.36,9.52-12.5l.3-1.99c6.68-2.35,10.17-11.37,2.52-14.95-6.02-2.81-9.61-.69-13.66,3.8-1.27-.29-1.03-4.39-1.86-5.71ZM145.69,799c-3.72-11.27-12.19-22-25.3-18.58-6.04,7.68,19.03,23.34,26.36,20.77.71-1.69-.98-1.94-1.06-2.19ZM175.28,790.93c2.15-2.53,5.26-5.12,3.76-9.18-11.34-4.12-26.81,8.7-27.69,20.1,9.23-.4,17.95-3.86,23.93-10.92Z"/>
  <path d="M444.84,766.61c.28-.41,1.19-.67,1.6-1.32,7.74-12.4-.76-17.35-10.01-7.41-1.43,1.53-1.48,4.48-3.68,4.53-1.41-.94,1.36-21.07-7.72-16-5.17,2.88-2.77,8.36-2.85,12.49-.11,5.2-3.98-1.29-5.64-2.3-2.25-1.36-10.3-3.69-11.76-.75-2.49,5.02,9.66,13,7.58,15.11-14.23-6.34-14.5-27.7,5.6-16.45,1.18-.17.99-10.19,8.22-11.53,8.97-1.66,7.98,11.38,9.53,11.54,4.53-2.88,10.19-7.2,15.12-2.61,3.34,4.5-.78,16.47-5.76,18.56-4.56,1.92-1.1-2.55-.22-3.85Z"/>
  <path d="M71.8,639.49c-1.13-1.19,9.44-22.85-1.47-20.21-1.83.44-5.8,5.77-7.03,7.59-.82,1.22-.42,5.55-3.33,3.66-.7-4.85-1.96-10.17-6.95-12.1-3.66-.08-2.61,3.7-4.89,5.01-.33,1.12,4.75,6.9,2.28,7.5-6.23-1.7-5.74-6.79-13.79-6.61-11.32.25,2.97,9.55,2.96,14.5-1.48,1.45-8.61-7.74-9.06-9.66-2.55-11,9.48-8.01,15.63-5.45.31-11.73,12.38-9.29,15.45-.02,6.71-9.34,17.36-11.84,16.02,3.55-.11,1.27-2.98,15.23-5.83,12.24Z"/>
  <path d="M482.3,619.55c.88,2.86,1.65,6.33,2.58,9.56,3.66,12.74,7.72,26.23,17.9,35.35.49,3.03-1.8,1.77-3.32.67-7.53-5.42-14.98-26.14-17.33-34.72-.88-3.22-3.87-14.46-3.9-17.03,0-.59-.04-.77.54-1.17l1.64.34c1.41,2.11,1.19,4.7,1.9,7Z"/>
  <path d="M255.01,420.41c-7.44,9.58-23.23,11.76-34.15,7.94-1.25-.44-9.52-5.01-9.71-5.54-.11-.3-.05-2.11.03-2.19.82-.85,11.34,5.47,13.92,6.12,6.75,1.72,13.58.77,19.86-2.26,2.35-1.13,8.71-7.05,9.29-7.15.84-.15,1.16.52,1.63,1-.09.8-.39,1.45-.88,2.08Z"/>
  <path d="M222.75,584.98c5.69-1.43,26.19,9.37,33.28,11.32,11.93,3.27,23.29,3.56,34.63-1.89,2.14-1.03,6.54-6.62,7.95-2.58-4.55,4.09-10.39,6.69-16.3,8.03-22.93,5.21-39.38-7.97-60.3-13.6-.61-.41.42-1.2.73-1.28Z"/>
  <path d="M420.91,340.43c.33,4.08-2.16,7.21-4.93,9.85-1.47,1.4-3.98.55-3.68,4.28.34,4.29,9.93,2.13,8.61,4.59-1.87,3.47-12.99.08-11.06-7.07.63-2.33,4.52-3.52,5.6-4.64,2.21-2.3,2.49-6.4,5.46-7.01Z"/>
  <path d="M436.03,365.41c.21,9.5-26.86,9.75-26.28,3.61.24-2.5,4.23.63,5.09.82,6.55,1.38,11.37,1.19,17.24-2.15,1.35-.77.97-3.21,3.95-2.27Z"/>
  <path d="M436.04,325.96c-.37-2.08.57-2.13,1.94-2.99,5.66-3.58,18.36-3.14,21.07,3.96-1.88,2.39-2.61-1.1-4.99-2.23-6.35-3.01-11.98-.79-18.02,1.25Z"/>
  <path d="M407.37,342.82c.14.29,1.64.04,1.05,1.53l-3.25.65c-.4-4.13-2.95-6.72-7.26-4.9-1.81.77-2.55,5.6-4.56,2.52-1.61-4.58,8.83-11.07,14.02.19Z"/>
  <path d="M452.09,342.79c1.08,1.95,2.59,3.42-1.21,4.17-1.58-5.84-8.01-9.14-10.27-1.95l-2.61-.98c2.63-6.92,10.29-8.12,14.09-1.24Z"/>
  <path d="M391.99,325.3c.93-5.9,11.12-6.84,15.43-5.24,1.83.68,4.19,2.45,1.97,3.93-7.12-4.28-10.91-.92-17.4,1.31Z"/>
  <path d="M201.85,368.23c2.44-.17,10.3.18,10.69,3.43.52,4.29-8.1,1.44-10.81,1.67-4.06.34-14.42,9.34-12.78,1.75.87-4.01,9.24-6.6,12.9-6.86Z"/>
  <path d="M262.47,369.35c-4.01.7-7.61-1.59-11.49-1.33-3.48.23-9.5,4.9-10.88.35-.01-6.41,24-9.12,22.37.99Z"/>
  <path d="M258.37,383.3c.44.9.08,2.15.15,3.14-3.51.92-3.18-3.15-6.22-3.63-4.22-.67-4,4.62-5.29,4.95-3.63.91-.56-9.55,6.78-7.48.62.18,4.46,2.78,4.58,3.03Z"/>
  <path d="M211.18,392.35l-2.51-.11c-1.62-6.14-7.56-4.63-7.37,1.42l-3.93-1.63c1.98-.92,1.79-3.18,3.35-4.55,4.13-3.63,10.85-.74,10.46,4.87Z"/>
  <path d="M63.12,675.79c13.3-1.14,15.41,16.72,2.39,18.87-14.73,2.44-17.04-17.62-2.39-18.87ZM61.77,679.09c-7.83,1.41-6.09,13.54,2.32,12.83,8.52-.71,9.77-15.01-2.32-12.83Z"/>
  <path d="M426.62,494.44c6.12,5.52-1.28,17.29-8.58,13.51-8.65-4.48,1.06-20.29,8.58-13.51ZM421.4,495.65c-4.23.72-5.67,9.24-.84,10.4,6.82-.49,7.69-11.56.84-10.4Z"/>
  <path d="M542.14,226.97c-5.66,7.1-12.6,9.89-21.61,10.94-139.2.16-278.36-.25-417.54-.05-13.35.02-27.74,2.58-40.75-1.92-32.01-11.05-20.89-49.73,10.52-50,129.27.44,258.78-.5,387.89-.01,18.65.07,41.12-1.53,59.22.02,20.88,1.78,37.3,22.17,22.27,41.03ZM394.61,220.47c-.94-3.08,0-20.23,0-24.98-1.35-1.53-4.57-1.53-5.92,0v26.29c0,3.16,4.58,5.35,7.47,4.18,3.7-3.26-1.21-4.38-1.55-5.49ZM414.53,223.89c.89,1.38,6.91,3.57,7.66,1.1.58-1.9-2.22-3.47-2.58-5.2-1.3-6.28,1.39-17.68-.02-23.64-.55-2.34-5.45-3.53-5.73,1.48-.32,5.67-.71,16.13-.21,21.54.1,1.12.37,3.95.87,4.72ZM243.79,196.85c-4.11,1.46-2.93-1.02-5.51-1.57-3.41-.72-6.98,2.88-6.07,6.45,3.79.52,4.06-.25,5.6-3.28.81-.21,8.72,8.59,9.21-1.35l-.77-1.32c-1.91-.7-2.34,1.02-2.47,1.07ZM407.37,197.55c-.63-.76-1-1.95-2.04-2.28-8.1.13-3.18,11,3.07,3.83v-1.29c-.32-.02-.84-.03-1.03-.26ZM146.57,219.96c-4.17,3.18-8.19-.24-12.49-1.04l-2.38,3.39c1.14,4.74,23.16,7.52,20.93-7.06-1.19-7.76-13.49-6.17-13.83-11.22-.41-6.16,8.25-2.68,11.47-1.7,6.22-8.33-15.08-9.19-17.54-1.16-3.1,10.15,7.06,11.6,13.85,14.53v4.25ZM343.66,195.82c-4.17-.51-9.2.37-13.48,0,.2.64-.66,1.42-.66,1.64v26.95c0,2.45,12.44,1.76,14.62,1.47,19.7-2.64,19.03-27.67-.49-30.06ZM176.99,225.07v-15.78c0-5.98-15.88-7.52-18.44-1.98-.07,5.46,13.98-4.5,12.53,5.6-7.11-.63-15.84,1.47-12.86,10.56,1.93,5.88,11.28.73,13.19.86,1.11.08,3.64,3.55,5.59.75ZM188.83,225.07v-14.46c0-1.62,5.66-3.26,7.63-1.71,2.08,1.63.26,13.31,1.02,16.4,9.09,3,5.77-2.15,5.76-7.45,0-4.15,1.78-9.45-2.53-12.54-5.89-4.22-9.6,1.17-12.19,1.05-.37-.02-3.01-4.62-6.21-.93l.48,19.05c.54,2.04,5.46,2.13,6.04.58ZM224.15,208.81c3.89-3.9-8.07-7.03-13.01-3.51-3.77,2.69-3.37,7.74.47,10.13,1.61,1,11.42,2.86,7.19,6.07-3.66,2.77-9.83-3.72-10.83.41-1.16,4.81,15.85,6.92,17.55-.95,1.89-8.76-11.06-7.25-11.06-11.02,0-5.17,8,.56,9.7-1.14ZM249.31,225.4v-15.45c0-9-17.78-6.64-17.77-2.63.01,4.74,13.03-3.69,12.51,5.59-6.75-1.96-18.44,3.54-12.51,11.33,3.77,4.95,11.02-.57,12.74-.21.54.11,1.34,3.59,5.02,1.37ZM274.07,206.56c-5.71-5.09-17.47-2.92-19.2,4.99-3.8,17.41,19.33,18.64,21.77,7.3.77-3.59.33-9.71-2.57-12.3ZM297.97,216.85h14.14c5.88-16.83-21.04-18.2-20.57-.97.23,8.59,9.04,12.13,16.43,9.98,2.35-.68,5.31-1.32,4.4-4.33-1.1-1.75-14.86,4.47-14.39-4.67ZM382.72,225.33c-1.63-4.83,1.09-16.27-2.27-19.61-2.54-3.09-16.21-2.66-16.1,1.61l1.12,1.58c4.87-.94,10.78-3.4,10.74,4.01-5.48-1.37-16.04,2.24-13.61,9.03.11.3,3.84,3.89,4.76,4.09,4.67,1.02,7.92-1.91,9.08-1.84,1.46.09,3.44,3.35,6.29,1.13ZM444.88,208.67c-1.36-2.86-2.74-4.26-6.05-4.8s-12.25.01-11.35,5.09c1.13,1.09,8.7-3.08,11.66.18,4.17,4.58-4.62,3.54-6.57,3.93-9.1,1.82-9.88,14.82,2.97,12.82,1.4-.22,4.12-1.93,4.72-1.86.33.04,2.03,4.02,5.66,1.71.67-.42.22-14.53,0-15.82-.18-1.09-.93-.98-1.05-1.25ZM401.84,204.36v20.7c1.22,1.49,4,1.52,5.26,0v-19.72l-5.26-.99Z" fill="#fff"/>
  <path d="M347.53,133.14c.07.18.87.35,1.15,1.16,1.3,3.73,9.96,31.1,9.03,32.52-4.12,1.11-11.49,3.25-14.3-1-1.33-2.02-1.19-5.52-2.06-6.98-1.38-2.35-15.51-.57-18.76-1.2l-4.03,9.8h-13.93c-1.16-1.88,4.23-19.62,5.23-23.02.14-.47,1.02-.58,1.17-1.07,3.06-9.97,4.93-20.41,10.61-29.36,21.8-5,20.26,3.44,25.88,19.14ZM324.92,146.52h12.49c-.51-2.69-4.55-18.5-6.9-18.41l-5.6,18.41Z" fill="#fff"/>
  <path d="M277.59,154.41c.64-.2,1.42.66,1.64.66h17.09l.99.99v10.52c-4.41,2.78-10.85.84-15.42.97-3.5.1-17.5,2.5-18.64-1.11l-.02-51.68c.64-1.79,14.35-4.79,14.35,2.52v37.14Z" fill="#fff"/>
  <path d="M155.3,95.58c-.83,2.36-12.66,1.99-14.95.82-.37-.32-1.06-2.45-1.18-3.09-1.54-7.76-.69-27.82-.33-36.54.19-4.61.98-9.45.99-14.13,1.39-2.2,14-1.63,16.47.66l19.05,28.31c1.56-.03,1.5-1.15,1.68-2.3.75-4.96-1.39-23.76-.36-26,1.41-3.04,13.36-2.59,16.1-.33v49.95c0,6.33-14.13,5.75-18.1,2.98-.6-.42-6.06-7.82-6.9-9.06-3.35-4.99-7.34-14.84-10.97-19.05-.41-.48,0-1.22-1.52-.83v28.59Z" fill="#fff"/>
  <path d="M351.88,43c.86-3.76,15.56-4.94,16.29.8l-.61,52.01c-1.02,1.69-15.45,2.46-17.63-.26l-18.76-29.2c-2.54,6.42,1.83,22.83-.66,28.25-1.33,2.89-13.89,2.79-15.5.38-1.11-1.67-.75-26.77-.63-30.97.2-7.36.73-14.99,1.32-22.35,4.54-1.2,13.82-1.93,17.57,1.22,3.12,2.61,10.66,18.98,14.01,23.61.96,1.33,3.19,3.91,4.61,4.45,1.21-7.73-1.62-20.89,0-27.94Z" fill="#fff"/>
  <path d="M108.24,290.86c.95,1.56,2.08,5.07,2.32,5.23,2.24,1.55,14.41-.94,15.76,7.9,1.99,12.99-14.87,15.79-24.53,14.67-2.8-.32-10.56-3.78-11.15-3.75-.77.05-7.68,4.45-9.93,5.17-7.03,2.26-14.44,2.42-21.54.43-3.31-.93-9.85-5.4-11.52-5.59s-7.55,2.17-10.46,2.41c-7.63.62-19.42-3.55-20.56-12.13-2-15.1,9.87-20.48,23-20.93,1.62-19.4,30.57-22.09,41.37-8.59,2.15,2.69,2.76,6.36,4.6,9.22,9.02-.82,17.15-3.05,22.64,5.95Z" fill="#fff"/>
  <path d="M406.29,113.82c1.04,1.65.93,3.43.66,5.26-2.04,14-11.24,30.29-13.68,44.66-5.53,6.97-19.58,6.99-23.74-1.7-5.18-10.83-9.91-30.47-13.79-42.58-.17-.53-2.54-1.79-1.11-4.36,2.34-2.01,15.06-2.06,16.37-.34l9.75,37.97,1.69.38,11.46-38.98c1.35-1.62,11.07-1.61,12.39-.29Z" fill="#fff"/>
  <path d="M432.09,165.91c-.87,2.84-15.2,4.14-15.64-.8,1.01-14.86-1.83-32.7-.17-47.21.43-3.77,1.92-5.4,5.78-6.05,6.87-1.17,23.27-.46,29.61,2.28,13.15,5.67,12.62,28.08-1.82,32.1-.38,1.46,12.94,17.02,9.21,21.02-3.33,1.72-11.27,1.52-14.08-1.08-3.86-3.57-4.95-19.83-12.89-15.37-.73,3.82.99,11.91,0,15.12ZM432.09,123.19v15.45c5.23.7,14.49-3,14.51-8.87.02-5.75-9.83-9.84-14.51-6.57Z" fill="#fff"/>
  <path d="M236.17,55.16v39.44c-4.96,2.71-12.12,3.14-17.09.33v-39.44l-.99-.99h-15.78c-1.49-3.02-2.34-11.99,1.5-13.62,5.61-2.38,21.42-.29,28.09-.13,10.79.25,25.75-5.18,20.4,13.12l-16.13,1.29Z" fill="#fff"/>
  <path d="M294.95,59.5c2.46,6.86,10.73,27.2,10.91,33.48.03.99.26,2.7-.63,3.3l-13.2-.04-2.94-8.89-19.64-.56c-1.87.69-1.72,6.13-2.77,7.75-2.41,3.72-12.99,3.25-16.61,1.27-1.34-2.15,1.07-3.43,1.14-3.72,2.23-8.48,4.61-16.34,7.23-24.33,1.8-5.5,5.72-22.62,9.58-25.78,3.66-2.99,17.09-2.62,20.7.4,1.73,1.45,5.12,14.03,6.23,17.12ZM272.65,75.53h11.18l.87-1.5-6.14-17.57c-2.48-.17-4.09,9.81-4.83,12.23-.42,1.39-3.92,4.54-1.08,6.84Z" fill="#fff"/>
  <path d="M429.72,54.25c2.33,4.11,3.3,6.2,3.59,11.18,1.8,30.28-28,34.38-51.69,30.98-.78-.77-1.41-11.11-1.5-13.29-.38-9.46-1.36-30.35,0-38.84.47-2.91,2.28-3.26,4.96-3.58,15.38-1.87,36.32-1.1,44.63,13.55ZM395.93,53.84v29.25c1.4,1.5,4.86,1.2,6.84.92,16.7-2.29,19.47-27.08,2.61-30.09-2.99-.53-6.44-.35-9.46-.08Z" fill="#fff"/>
  <path d="M505.51,115.84c2.28,3.18,4.53,14.26,6.03,18.59,2.93,8.45,6.95,18.27,9.41,26.79,1.34,4.64,1.25,6.39-3.73,6.98-11.37,1.34-8.33-1.48-11.55-8.01-2.32-4.69-15.6-1.66-20.3-2.46.16,10.91-8.24,12.22-17.04,9.08-.38-1.31,0-2.61.21-3.89.9-5.6,13.23-44.19,15.83-47.27,4.06-4.81,17.63-4.7,21.13.19ZM496.81,132.44c-.8-1.69-1.1-4-2.91-4.98l-5.27,19.06,12.43-.05c1.08-1.42-3.31-12.04-4.25-14.02Z" fill="#fff"/>
  <path d="M243.02,129.16c2.53,6.95,5.95,15.48,8.19,22.5.97,3.04,4.41,12.72,2.76,14.97-2.46,2.04-10.26,2.29-12.75.8-2.89-1.73-2.22-8.9-4.16-9.65-3.5.41-17.53-1.28-19.26.95-1.17,1.5-1.3,7.39-2.44,8.23-3.33,1.09-14.99,3.2-15.03-2.11-.02-2.99,3.89-15.33,5-19.1.15-.53,1.09-.61,1.34-1.45,1.5-4.91,7.65-28.52,11.36-30.69,3.29-1.93,15.52-1.73,18.75.41,2.4,1.59,5.05,11.89,6.23,15.14ZM228.78,129.59c-.67-.68-2.18-.82-3.13-.82.69,3.2-6.25,17-2.86,18.31l10.69-.62c.53-.7-4.08-16.24-4.7-16.87Z" fill="#fff"/>
  <path d="M108.25,116c3.58,3.84,14.32,37.75,16.2,44.63,1.35,4.94.94,6.72-4.38,7.52-9.82,1.48-10.57-2.07-13.38-10.16l-18.13.35c-.39,10.89-9.37,11.27-17.96,8.46-1.45-2.43,1.04-4.01,1.14-4.37,3.34-11.73,8.59-34.26,13.89-44.35,3.53-6.73,17.79-7.27,22.63-2.08ZM100.98,138.39c-.47-1.41-2.43-11.51-4.19-10.27l-5.27,18.4,11.87.36c2.09-1.39-1.98-7.21-2.4-8.49Z" fill="#fff"/>
  <path d="M70.49,94.92c-.99,4.34-15.13,3.99-16.93.49l.16-53.4c2.66-4.43,28.18-3.49,33.46-2.56,27.45,4.85,21.65,39.37-2.56,39.37h-14.14c-.7,4.54.95,11.96,0,16.1ZM80.02,51.21c-3.01-.48-7.04.35-10.19,0v14.13c0,4.55,15.23,1.01,17.13-2.1,3.35-5.48-1.27-11.12-6.94-12.03Z" fill="#fff"/>
  <path d="M489.53,47.69c1.86,1.91,2.62,2.13,4.02,4.86,8.96,17.5,1.68,43.1-21.04,44.66-24.41,1.68-36-18.65-28.77-40.6,6.07-18.42,32.97-22.07,45.79-8.92ZM460.73,79.11c1.29,1.67,2.52,3.46,4.62,4.25,18,6.84,21.84-28.95,6.47-31.44s-17.96,18.31-11.09,27.19Z" fill="#fff"/>
  <path d="M198.47,120.44c4.35,7.09,3.53,20.18-3.41,25.41-6.58,4.96-14.76,5.31-22.71,5.56-2.01,1.4,1.14,14.17-1.94,15.81-1.88,1-10.89,1.56-12.49.01l-.5-53.42c10.76-2.22,34.4-4.19,41.04,6.63ZM184.02,137.12c.75-.71,1.46-2.98,1.54-4.06.64-8.02-7.58-8.59-13.83-8.23l-.37,13.85c1.34,1.87,10.88.12,12.66-1.56Z" fill="#fff"/>
  <path d="M534.28,64.73c1.9,2.33,2.42,3.69,3.09,6.77,4.32-.15,7.81.18,11.71,2.1,1.42,2.37-6.85,7.19-8.46,8.23.78,4.21,4.23,6.71,2.52,11.4-2.3,1.74-10.5-4.77-12.73-4.58-1.83.16-8.15,6.28-10.92,4.35-2.03-4.3,2.55-7.5,2.57-11.75l-8.17-8.36c.92-2.16,9.1-1.21,11.54-1.58l5.67-9.54c1.2-.17,2.45,2.09,3.16,2.96Z" fill="#fff"/>
  <path d="M287.73,275.08c.3.51,1.27,1.09,1.41,2.29l10.77,2.31c.36,4.16-7.81,5.46-8.44,7.3l1.23,10.72c-.95,1.09-8.99-4.96-10.28-5.09-2.58-.26-12.68,8.41-11.95,1.65.32-2.9,3.87-6.83,3.2-8.63l-9.24-7.31c.55-2.25,10.53-1.37,11.86-2.03,2.11-1.05,3.3-8.41,6.87-9.44,2.97,1.9,2.95,5.45,4.56,8.22Z" fill="#fff"/>
  <path d="M71.56,374.36c-1.17,1.35-4.61,3.28-6.3,4.25,1.53,3.66,3.19,6.98,2.6,11.11-3.81,1.18-8.68-3.53-11.5-3.36-4.57.27-15.79,15.56-9.6-6.07-.52-1.73-9.52-3.96-9.18-7.96l12.44-2.42c5.09-21.55,8.76-2.34,11.26-.89,2.3,1.34,8.83-.93,11.56,1.6.8,1.22-.53,2.87-1.28,3.74Z" fill="#fff"/>
  <path d="M190.41,294.01c-1.59,2.19-5.6,8.81-8.23,8.64-6.98-3.25-22.41-10.08-23.53-18.48-1.63-12.16,12.2-12.66,19.34-6.32,5-10.98,20.71-10.87,19.38,3.09-.49,5.18-4.14,9.19-6.97,13.08Z" fill="#fff"/>
  <path d="M126.87,43.48l.68,51.31c-1.2,3.81-13.2,2.92-14.51.31-.45-.89-.4-1.83-.51-2.78-1.59-14.62,1.14-32.28.16-47.22.95-3.55,12.91-2.88,14.17-1.62Z" fill="#fff"/>
  <path d="M572.64,331.36c.34.56.34,1.8,0,2.36l-8.77,4.74c-.65,4.37,3.75,7.88-.6,10.55-2.87.14-7.89-4.47-9.92-4.64-1.64-.14-9.2,3.61-10.14,2.63-1.17-3.54,3.26-8.48,2.52-11.35-.54-2.1-6.26-4.28-6.49-7.41l1.06-1.56c3.08-2.17,9.31,1.1,11.35-.15.59-.36,2.16-8.46,5.02-8.46,3.87.61,3.98,8.59,5.86,9.94,1.41,1.02,8.45.63,10.1,3.36Z" fill="#fff"/>
  <path d="M556.59,726.04c3.09,4.24,4.26,8.49-1.34,11.28-7.19,3.57-13.84-.51-17.09-7.06-1.54-.45-6.13,2.73-7.93,3.08-12.45,2.42-17.65-13.18-3.77-16.25l.3-1.99c-8.18-1.32-10.29-10.11-2.85-14.37,6.24-3.57,9.08.82,14.33,3.16,2.23-1.17.37-9.06,9.22-9.18,11.73-.15,5.54,10.45,7.22,13.19,19.01-2.95,20.3,15.25,1.64,16.04-1.01.59-.16,1.52.27,2.1ZM550.2,722.09c3.88-3.66,2.13-11.2-3.03-12.62-11.72-3.23-18.39,11.61-7.28,14.5,2.98.77,8.05.24,10.31-1.89Z" fill="#fff"/>
  <path d="M527,753.64c.22.39,1.23.54,1.8,1.79,1.44,3.21,1.56,8.13,2.56,11.58-8.02-.42-17.56-4.83-22.62-11.23-3.4-4.3-8.28-13.07.35-13.97,8.17-.86,14.16,5.38,17.91,11.84Z" fill="#fff"/>
  <path d="M535.31,767.01c2.52-10.08,19.05-23.9,28.58-15.76,2.95,6.99-12.27,13.8-17.28,14.91-3.87.85-7.35,1.07-11.31.85Z" fill="#fff"/>
  <path d="M153.78,735.67c.83,1.32.6,5.42,1.86,5.71,4.05-4.49,7.64-6.62,13.66-3.8,7.65,3.58,4.16,12.6-2.52,14.95l-.3,1.99c17.66,5.14,3.36,23.55-9.52,12.5-3.69,16.01-27.86,11.43-19.4-4.91-.35-1.6-5.71-.81-7.41-1.16-3.59-.74-7.04-5.89-7.02-9.21,4.09-7.94,7.6-7.15,15.74-7.08.3-1.98-1.69-1.21-2.34-3.23-2.13-6.6,4.68-11.64,10.77-10.12,1.33.33,5.92,3.46,6.49,4.36ZM148.56,746.13c-9.71,1.54-9.25,14.51.14,15.98,15.89,2.5,15.36-18.45-.14-15.98Z" fill="#fff"/>
  <path d="M175.28,790.93c-5.99,7.06-14.7,10.52-23.93,10.92.89-11.4,16.35-24.22,27.69-20.1,1.5,4.06-1.61,6.65-3.76,9.18Z" fill="#fff"/>
  <path d="M145.69,799c.08.25,1.77.49,1.06,2.19-7.34,2.57-32.4-13.09-26.36-20.77,13.12-3.42,21.58,7.32,25.3,18.58Z" fill="#fff"/>
  <path d="M61.77,679.09c12.09-2.18,10.84,12.12,2.32,12.83-8.41.7-10.15-11.42-2.32-12.83Z" fill="#fff"/>
  <path d="M421.4,495.65c6.85-1.16,5.98,9.91-.84,10.4-4.83-1.16-3.39-9.68.84-10.4Z" fill="#fff"/>
  <path d="M343.66,195.82c19.52,2.39,20.19,27.42.49,30.06-2.18.29-14.62.98-14.62-1.47v-26.95c0-.23.85-1.01.66-1.64,4.28.37,9.31-.51,13.48,0ZM335.44,220.8c21.65,3.76,22.6-23.05.66-20.38l-.66,20.38Z"/>
  <path d="M146.57,219.96v-4.25c-6.78-2.93-16.95-4.38-13.85-14.53,2.45-8.04,23.76-7.17,17.54,1.16-3.21-.97-11.88-4.45-11.47,1.7.34,5.05,12.64,3.46,13.83,11.22,2.24,14.58-19.79,11.79-20.93,7.06l2.38-3.39c4.3.81,8.32,4.22,12.49,1.04Z"/>
  <path d="M297.97,216.85c-.47,9.14,13.29,2.93,14.39,4.67.92,3.01-2.05,3.64-4.4,4.33-7.39,2.15-16.2-1.39-16.43-9.98-.47-17.23,26.45-15.86,20.57.97h-14.14ZM297.97,212.91h9.86c-.02-7.44-9.28-6.94-9.86,0Z"/>
  <path d="M188.83,225.07c-.58,1.55-5.5,1.45-6.04-.58l-.48-19.05c3.19-3.69,5.83.91,6.21.93,2.59.12,6.3-5.27,12.19-1.05,4.31,3.09,2.53,8.39,2.53,12.54,0,5.3,3.33,10.45-5.76,7.45-.76-3.09,1.06-14.77-1.02-16.4-1.97-1.55-7.63.08-7.63,1.71v14.46Z"/>
  <path d="M444.88,208.67c.13.27.87.17,1.05,1.25.21,1.29.66,15.4,0,15.82-3.64,2.31-5.34-1.67-5.66-1.71-.6-.08-3.31,1.64-4.72,1.86-12.84,2-12.07-11-2.97-12.82,1.94-.39,10.73.65,6.57-3.93-2.96-3.26-10.53.92-11.66-.18-.91-5.08,7.96-5.65,11.35-5.09s4.69,1.95,6.05,4.8ZM439.98,216.19l-7.24.98c-4.01,8.81,9.1,6.25,7.24-.98Z"/>
  <path d="M176.99,225.07c-1.95,2.8-4.48-.67-5.59-.75-1.9-.13-11.26,5.03-13.19-.86-2.97-9.08,5.75-11.18,12.86-10.56,1.46-10.1-12.6-.14-12.53-5.6,2.56-5.54,18.44-4,18.44,1.98v15.78ZM171.08,216.19c-2.67.01-7.09-.74-7.31,2.96l.67,2.69c4.13,2.57,7.87-1.16,6.64-5.65Z"/>
  <path d="M382.72,225.33c-2.85,2.22-4.83-1.04-6.29-1.13-1.16-.07-4.42,2.86-9.08,1.84-.91-.2-4.65-3.79-4.76-4.09-2.43-6.8,8.13-10.4,13.61-9.03.04-7.4-5.87-4.95-10.74-4.01l-1.12-1.58c-.11-4.27,13.56-4.7,16.1-1.61,3.37,3.34.64,14.79,2.27,19.61ZM376.21,216.19c-3.86-.1-9.9.47-7.3,5.65,4.35,2.53,8.55-.59,7.3-5.65Z"/>
  <path d="M274.07,206.56c2.9,2.58,3.34,8.71,2.57,12.3-2.43,11.33-25.57,10.1-21.77-7.3,1.73-7.91,13.49-10.08,19.2-4.99ZM262,209.16c-2.62,2.66-2.53,11.57,1.59,12.81,12.44,3.75,7.52-22.05-1.59-12.81Z"/>
  <path d="M249.31,225.4c-3.68,2.22-4.49-1.26-5.02-1.37-1.72-.36-8.97,5.16-12.74.21-5.93-7.79,5.75-13.29,12.51-11.33.52-9.28-12.5-.84-12.51-5.59-.01-4.01,17.77-6.36,17.77,2.63v15.45ZM244.06,216.19c-2.68-.12-7.12-.49-7.7,3.05-.99,6.14,10.41,3.24,7.7-3.05Z"/>
  <path d="M224.15,208.81c-1.7,1.7-9.7-4.03-9.7,1.14,0,3.77,12.95,2.26,11.06,11.02-1.7,7.87-18.71,5.75-17.55.95.99-4.13,7.17,2.36,10.83-.41,4.23-3.21-5.58-5.06-7.19-6.07-3.84-2.39-4.24-7.44-.47-10.13,4.95-3.52,16.91-.39,13.01,3.51Z"/>
  <path d="M394.61,220.47c.34,1.11,5.26,2.23,1.55,5.49-2.89,1.17-7.47-1.01-7.47-4.18v-26.29c1.35-1.53,4.57-1.53,5.92,0,0,4.75-.94,21.9,0,24.98Z"/>
  <path d="M414.53,223.89c-.5-.77-.77-3.6-.87-4.72-.5-5.4-.11-15.87.21-21.54.28-5.02,5.18-3.82,5.73-1.48,1.41,5.97-1.28,17.37.02,23.64.36,1.73,3.15,3.3,2.58,5.2-.75,2.47-6.77.28-7.66-1.1Z"/>
  <path d="M401.84,204.36l5.26.99v19.72c-1.26,1.52-4.04,1.49-5.26,0v-20.7Z"/>
  <path d="M243.79,196.85c.13-.05.56-1.76,2.47-1.07l.77,1.32c-.49,9.93-8.4,1.14-9.21,1.35-1.54,3.03-1.81,3.8-5.6,3.28-.92-3.57,2.66-7.17,6.07-6.45,2.58.54,1.4,3.03,5.51,1.57Z"/>
  <path d="M407.37,197.55c.19.23.71.24,1.03.26v1.29c-6.25,7.17-11.17-3.7-3.07-3.83,1.04.33,1.41,1.52,2.04,2.28Z"/>
  <path d="M324.92,146.52l5.6-18.41c2.35-.09,6.39,15.72,6.9,18.41h-12.49ZM332.43,139.69c-.52-1.17-.66-2.45-.94-3.68-1.05-.71-2.59,6.71-2.62,7.88h5.25c.35-1.87-1.26-3.23-1.7-4.2Z"/>
  <path d="M432.09,123.19c4.68-3.27,14.54.83,14.51,6.57-.02,5.88-9.29,9.57-14.51,8.87v-15.45ZM434.72,124.83v11.17c10.66-1.17,11.55-11.29,0-11.17Z"/>
  <path d="M272.65,75.53c-2.84-2.29.66-5.45,1.08-6.84.74-2.43,2.35-12.4,4.83-12.23l6.14,17.57-.87,1.5h-11.18ZM280.22,72.9c.59-.58-1.47-8.22-2.62-9.2l-1.98,9.19h4.6Z"/>
  <path d="M395.93,53.84c3.02-.27,6.47-.45,9.46.08,16.86,3.01,14.09,27.8-2.61,30.09-1.99.27-5.44.58-6.84-.92v-29.25ZM398.56,81.45c19.99,1.69,20.44-30.36,0-23.99v23.99Z"/>
  <path d="M496.81,132.44c.94,1.98,5.33,12.61,4.25,14.02l-12.43.05,5.27-19.06c1.81.97,2.11,3.29,2.91,4.98ZM496.78,141.02c-.61-1.79-.44-5.06-2.89-5.02l-1.98,7.88h5.92c.84-1.96-.99-2.68-1.06-2.86Z"/>
  <path d="M228.78,129.59c.62.63,5.22,16.17,4.7,16.87l-10.69.62c-3.39-1.31,3.56-15.11,2.86-18.31.94,0,2.46.14,3.13.82ZM227.87,137.71c-.43-.73.18-1.89-.9-1.7l-1.98,8.54h5.26c-.11-2.64-1.2-4.86-2.37-6.84Z"/>
  <path d="M100.98,138.39c.42,1.27,4.49,7.09,2.4,8.49l-11.87-.36,5.27-18.4c1.76-1.24,3.72,8.86,4.19,10.27ZM95.47,143.89c.16.18,4.43,1,4.57-.39l-1.95-6.84c-.96-.61-3.2,6.58-2.62,7.22Z"/>
  <path d="M80.02,51.21c5.67.91,10.29,6.56,6.94,12.03-1.9,3.11-17.13,6.65-17.13,2.1v-14.13c3.15.35,7.18-.48,10.19,0ZM73.77,64.36c13.99.63,14.74-11.51,0-10.52v10.52Z"/>
  <path d="M460.73,79.11c-6.87-8.88-3.81-29.61,11.09-27.19s11.53,38.28-6.47,31.44c-2.1-.8-3.33-2.58-4.62-4.25ZM475.27,79.27c4.82-4.2,5.19-20.11-1.41-23.48-15.85-8.08-15.34,21.53-8.08,24.51,2.52,1.03,7.41.78,9.49-1.03Z"/>
  <path d="M184.02,137.12c-1.78,1.68-11.32,3.43-12.66,1.56l.37-13.85c6.25-.36,14.47.21,13.83,8.23-.09,1.08-.79,3.35-1.54,4.06ZM181.44,128.93c-.83-.88-5.84-2.21-6.78-.85l-.29,8.59,7.57-1.97c.7-1.2.45-4.77-.49-5.77Z"/>
  <path d="M550.2,722.09c-2.26,2.13-7.33,2.66-10.31,1.89-11.11-2.89-4.44-17.73,7.28-14.5,5.16,1.42,6.92,8.96,3.03,12.62ZM538.83,713.35c-6.92,6.89,7.13,12.26,9.78,5.51,2.5-6.38-5.73-9.54-9.78-5.51Z"/>
  <path d="M148.56,746.13c15.5-2.46,16.03,18.49.14,15.98-9.39-1.48-9.85-14.44-.14-15.98ZM148.54,748.76c-1.77.49-5.12,3.82-4.41,6.02,1.12,6.47,13.94,6.04,13.76-.52-.13-4.74-5.31-6.62-9.35-5.5Z"/>
  <path d="M335.44,220.8l.66-20.38c21.94-2.67,20.99,24.14-.66,20.38Z" fill="#fff"/>
  <path d="M297.97,212.91c.58-6.94,9.84-7.44,9.86,0h-9.86Z" fill="#fff"/>
  <path d="M439.98,216.19c1.86,7.23-11.25,9.8-7.24.98l7.24-.98Z" fill="#fff"/>
  <path d="M171.08,216.19c1.23,4.5-2.51,8.23-6.64,5.65l-.67-2.69c.21-3.69,4.64-2.94,7.31-2.96Z" fill="#fff"/>
  <path d="M376.21,216.19c1.25,5.06-2.95,8.18-7.3,5.65-2.6-5.18,3.44-5.75,7.3-5.65Z" fill="#fff"/>
  <path d="M262,209.16c9.11-9.24,14.03,16.56,1.59,12.81-4.12-1.24-4.21-10.15-1.59-12.81Z" fill="#fff"/>
  <path d="M244.06,216.19c2.71,6.29-8.69,9.19-7.7,3.05.57-3.54,5.01-3.17,7.7-3.05Z" fill="#fff"/>
  <path d="M332.43,139.69c.43.97,2.05,2.33,1.7,4.2h-5.25c.03-1.17,1.57-8.59,2.62-7.88.28,1.23.42,2.52.94,3.68Z" fill="#fff"/>
  <path d="M434.72,124.83c11.55-.11,10.66,10,0,11.17v-11.17Z" fill="#fff"/>
  <path d="M280.22,72.9h-4.6s1.98-9.2,1.98-9.2c1.15.98,3.21,8.62,2.62,9.2Z" fill="#fff"/>
  <path d="M398.56,81.45v-23.99c20.44-6.37,19.99,25.68,0,23.99Z" fill="#fff"/>
  <path d="M496.78,141.02c.06.18,1.9.91,1.06,2.87h-5.92s1.98-7.88,1.98-7.88c2.44-.04,2.27,3.23,2.89,5.02Z" fill="#fff"/>
  <path d="M227.87,137.71c1.17,1.98,2.27,4.2,2.37,6.84h-5.26s1.98-8.54,1.98-8.54c1.08-.2.47.97.9,1.7Z" fill="#fff"/>
  <path d="M95.47,143.89c-.58-.64,1.65-7.83,2.62-7.22l1.95,6.84c-.14,1.39-4.4.57-4.57.39Z" fill="#fff"/>
  <path d="M73.77,64.36v-10.52c14.74-.99,13.99,11.15,0,10.52Z" fill="#fff"/>
  <path d="M475.27,79.27c-2.08,1.81-6.97,2.07-9.49,1.03-7.26-2.98-7.77-32.6,8.08-24.51,6.6,3.37,6.23,19.28,1.41,23.48Z" fill="#fff"/>
  <path d="M181.44,128.93c.94,1,1.19,4.57.49,5.77l-7.57,1.97.29-8.59c.94-1.36,5.95-.03,6.78.85Z" fill="#fff"/>
  <path d="M538.83,713.35c4.05-4.03,12.29-.88,9.78,5.51-2.65,6.75-16.71,1.39-9.78-5.51Z" fill="#fff"/>
  <path d="M148.54,748.76c4.04-1.12,9.22.76,9.35,5.5.18,6.57-12.64,7-13.76.52-.71-2.21,2.64-5.53,4.41-6.02Z" fill="#fff"/>
</svg>