<?xml version="1.0" encoding="UTF-8"?>
<svg id="Camada_1" xmlns="http://www.w3.org/2000/svg" version="1.1" viewBox="0 0 595.28 841.89">
  <!-- Generator: Adobe Illustrator 29.0.0, SVG Export Plug-In . SVG Version: 2.1.0 Build 186)  -->
  <path d="M.14,841.29V-.06h595v841.34H.14ZM590.54,3.89H4.08v206.39c9.98-5.96,21.1-3.35,29.58,3.94,4.82-27.11,49.1-27.89,51.95.66,15-8.09,41.42,4.7,31.85,23.62-2.09,4.14-10.77,8.58-15.09,8.58H4.08v195.22c8.93-12.62,24.3-8.06,31.24,3.94.82.28,2.66-3.61,5.53-4.31,4.09-1,7.62.76,11.45-.22,6.74-17.15,17.94-33.6,35.27-41.48-3.18-5.17-7.61-2.34-12.61-4.14-6-2.16-8.41-10.07-6.41-15.76-5.44-3.42-8.9-6.57-9.83-13.35-.27-1.98.49-6.04.21-6.87-.43-1.26-6.86-7.96-7.49-10.96-1.53-7.26,3.49-8.96,3.9-13.03.52-5.12-4.34-9.06-1.49-18.55,2.11-7.01,6.38-7.32,8.37-10.7.91-1.55.46-4.57,1.09-6.01,3.59-8.28,8.02-13.07,16.98-15.36,1.95-.5,5.48.09,6.85-.88.34-.24,2.51-5.55,4.03-7.3,4.95-5.68,11.93-6.19,19.01-5.86,1.49.07,3.09,1.48,4.52,1.16,1.94-.44,5.53-6.32,12.64-7.11,9.83-1.09,10.78,3.71,15.21,4.4,4.66.72,10.27-6.1,19.25-.09,2.2,1.47,4.08,5.55,4.64,5.87,1.1.63,2.85.1,3.97.63,6.48,3.08,10.57,9.06,9.76,16.39-.27,2.47-2.08,3.29-1.95,4.66.05.51,2.8,3.53,3.2,6.08.34,2.21.41,6.17.16,8.39-.43,3.7-3.89,7.08-3.66,8.93.1.86,2.76,5.7,3.34,7.83,1.58,5.83,2.3,13.94,3.91,19.1,2.64,8.46,7.93,10.13,7.86,21.99-.03,5.73-2.95,8.76-3.28,10.78-.39,2.38.68,5.85.09,9.3-.72,4.21-3.77,6.39-4.01,9.82,6.29,3.66,11.15,8.95,15.94,14.35,5.29-.37,10.31-2.16,15.66-2.5,24.31-1.57,49.89,10.02,52.83,36.55.85,7.69-.95,6.09,2.24,13.57,4.04,9.49,8.29,19.07,9.68,29.4,8.33-2.33,14.73.46,18.74,7.88,3.36-6.6,10.74-10.11,18.09-8.23,3.14.8,4.27,4.19,7.21,4.95.93-.79,1.55-14.53,1.92-16.8,3.64-21.86,7.17-46.36,13.13-67.87.55-2,2.47-7.11,2.56-8.49.16-2.43-1.41-5.14-1.2-8.41.18-2.77,2.05-4.97,2.01-6.5-.1-3.27-4.51-11.59-3.29-16.17-1.34-1.51-7.19,6.41-8.54,7.56-19.62,16.82-51,14.9-73.6,5.22-7.76-3.33-8.06-5.78-9.96-13.57-.12-.5-1.12-.35-1.3-1.48-.3-1.97.48-12.38.04-12.84-11.29-.17-43.2-10.47-42.06-24.59.11-1.32,1.38-2.36,1.3-3.95s-1.72-2.48-1.2-5.15c.65-3.33,4.76-4.08,5.03-4.54.61-1.04-.51-3.5,1.4-5.51,4.73-4.98,19.77-1.03,25.67,1.01-7.48-10.84-.05-19.87,11.51-11.17,4.97,3.74,12.31,14.39,16.54,16.99,4.72,2.89,15.16,4.34,20.61,6.67-1.79-4.94-1.4-9.97-.94-15.1-14.69-9.7-21.79-28.69-12.97-45-.17-.72-1.5-.86-1.88-1.53-10.95-19.03-27.72-70.98.02-82.64,22.4-9.42,40.67,13.08,53.57,27.91,3.48-.2.41-18.73.41-21.28-.19-82.2,136.23-90.88,155.02-13.02,2.92,12.09-1.24,27.69,5.22,38.04,1.48,2.38,2.65,5.62,5.83,3.29,1.79-1.31,7.97-10.78,10.46-13.52,13.49-14.79,43.63-41.23,64.34-25.03,19.75,15.45,6.9,57.62-4.08,75.43-.59.95-1.43,1.16-2.17,1.84v1.2c15.52,16.45,4.31,42.57-12.13,53.59.43,3.15,2.27,5.49,2.31,8.95.05,4.87-3.85,14.64-6.71,18.91-4.55,6.78-12.93,11.36-20.31,14.64-.38,2.71,2.63,4.15,3.34,5.36,7.63,13.04,14.93,25.96,24.72,37.62,1.05,2.44-4.33,3.54-4.33,4.28,4.02,2.63,24.41,10.15,25.85,13.63,3.42,8.25-7.05,9.52-12.72,9.37,5.58,4.48,15.69,17.13,12.72,24.49-.83,2.06-5.22,2.69-5.82,3.44-.51.64-.36,2.45-1.06,3.54-3.42,5.35-10.18,1.87-11.03,2.43-.44.29-.49,3.65-3.82,4.41-10.02,2.31-25.04-16.47-30.76-23.5-3.88,5.25-7.46,6.17-12.82,2.29-6.41-4.64-13.82-16.65-17.91-23.48-4.29-7.16-7.49-15.01-11.68-22.2-1.44-1.43-1.91,5.15-1.86,5.62.33,3.42,3.88,9.67,4.6,12.38,4.57,17.19,8.03,37.2,11.03,54.13,1.23,6.93,1.31,14.26,2.68,21.2,5.34-1.63,8.23-.35,12.48,2.62,6.02-18.48,32.54-18.09,34.86,1.97,3.02-2.9,7.21-5.34,11.42-3.2,1.95.99,2.48,4.3,4.65,3.9,6.78-10.52,21.11-17.94,33.23-11.87V106.43h-115.38c-8.02,0-17.13-5.88-16.72-14.7.77-16.4,27.14-27.22,40.71-18.82.38-14.98,16.07-28.89,30.59-30.22,14.1-1.29,25.8,5.1,32.87,17.07,7.06-8.37,16.6-14,27.93-11.83V3.89ZM503.75,68.63c-.43,2.86.31,6.56,0,9.53-4.13.55-7.14-3.13-11.01-3.78-10.76-1.83-28.13,3.14-30.25,15.45-1.32,7.7,5.43,13.32,12.66,13.32h115.38v-51.93h-10.19c-4.01,0-12.75,7.19-14.93,10.71-1.33,2.14-.63,5.62-3.8,5.06-6-21.67-32.71-27.5-49.34-12.83-3.39,2.99-7.87,10.09-8.53,14.48ZM341.36,174.79h12.16c6.25,0,17.92-5.48,23.03-9.19,5.82-4.22,9.35-9.75,14.46-14.51,1.11.03,5.69,8.01,7.13,9.65,7.37,8.4,21.58,16.15,32.49,18.45,3.02.64,15.85,1.42,16.58,1.83.65.37.77.93.65,1.64l-5.82,1.74c-.95,10.07,4.43,24.38,12.45,30.75,1.94,1.55,10.43,4.89,9.78,7.24-.18.66-1.63.85-1.97,1.49-1.65,3.18-1.28,5.02-4.56,7.76-1.91,1.6-7.46,3.42-8.23,4.92-1.79,3.5-1.42,13.08-4.34,17.21l-9.14,14.99c10.76,1.69,22.56,4.24,32.13,9.63,6.66,3.75,9.87,11.02,16.54,3.22,9.93-11.63-1.17-17.91-.65-25.57.42-6.13,8.93-11.11,8.44-21.68-.4-8.79-10.6-18.7-13.67-27.24,4.69-53.19-33.2-85.12-84.53-82.28-37.48,2.08-68.63,31.82-64.8,68.82,2.29,22.16-9.18,21.73-11.07,38.05-1.36,11.73,3.02,15.35,11.11,22.42-.73,3.11-3.12,5.63-3.25,9.15-.35,9.18,11.88,17.72,20.52,15.88,1.19-.25,10.36-5.1,10.38-6.1-13.69-14.56-15.72-34.66-15.85-53.94-.08-12.25,2.57-26.96,2.03-38.77-.15-3.42-1.77-2.85-2-5.56ZM391.31,156.39c-.71-.42-10.18,10.16-11.88,11.44-9.1,6.87-21.45,10.4-32.82,10.24-.98,31.81-11,79.8,22.01,99.27,31.69,18.7,67.69-2.25,76.54-35.38.98-3.67.3-7.68,1.73-11.28,2.02-2.39,2.84,1.28,3.31,1.34.99.12,6.21-3.55,6.88-4.48,5.12-7.12-2.69-7.23-6.95-11.31-8.53-8.16-12.28-21.24-11.47-32.9-18.35-1.15-37.86-11-47.35-26.94ZM571.05,194.95c-10.02-41.88-53.88-4.87-69.04,12.94-1.53,1.8-9.66,11.51-9.98,12.74-.78,3,2.23,5.76,2.99,8.56,1.45,5.38.91,11.19-1.02,16.37-1.46,3.9-6.72,8.02-6.72,11.06,0,3.33,3.88,6.49,4.35,8.8,1.92,9.47-1.37,18.39-10.23,22.43v.97c16.81,17.4,27.55,39.81,38.85,60.76,15.95-4.52,29.25-20.01,24.92-37.42-4.66,1.61-8.58,3.78-13.64,4.43-.7.09-6.23.92-5.41-.81.55-1.15,10.33-3.32,12.73-4.37,18.36-7.97,33.91-34.78,18.82-52.19-5.71,4.74-11.16,10.98-19.37,10.88-1.82-4.02,3.51-3.51,5.82-4.68,20.79-10.53,31.68-50.63,26.94-70.48ZM318.09,222.52c.83-1.78,4.98-9.12,4.56-10.25-8.81-8.56-16.36-19.98-27.42-25.88-25.49-13.59-39.76,10.12-36.01,33.25,2.18,13.44,10.09,41.08,21.33,50.44,3.95,3.29,10.25,5.44,14.78,7.91l-.37,1.34c-4.45,3.03-16.21-6.24-19.66-9.24-6.63,15.66,1.02,32,15.24,39.96,3.59,2.01,7.5,2.45,10.7,5.06.03,2.86-10.99-1.51-12.47-1.64-.89.98.99,12.21,2.15,13.62.63.77,13,4.3,14.11,3.96,11.14-14.45,21.09-32.89,34.34-45.53.94-.9,1.99-1.5,3.3-1.64.28-1.79-.22-1-.96-1.32-9.55-4.09-17.99-5.35-18.15-18.71-.03-2.78,1.81-7.28,1.27-9.07-.27-.89-7.32-7.06-8.34-8.76-4.67-7.82-1.79-16.23,1.61-23.5ZM4.08,214.55v29.91c28.61-.94,57.14.34,85.76-.67,3.96-.14,7.76.81,12.45-.06,18.24-3.41,18.6-21.19,2.36-26.52-9.15-3-13.16-.03-21.67,2.28,1.2-20.78-25.03-28.81-39.47-16.78-5.99,4.99-6.18,10.63-8.85,17.39-7.56-9.43-20.13-12.62-30.58-5.54ZM141.05,273.81c-6.09-3.91-5.87-5.65-15.03-4.39-6.93.96-8.8,6.79-9.96,7.18s-6.22-1.83-8.47-1.91c-8.52-.32-16.76,4.76-17.48,13.72-8.16-.74-17.74,1.69-21.42,9.8-1.56,3.43-.92,7.38-1.82,9.35-.63,1.36-3.79,1.89-5.3,3.25-5.39,4.86-6.33,13.06-4.54,19.73.47,1.76,2.61,4.61,2.69,5.61.05.58-4.46,5.5-4.38,10.48.13,7.87,6.41,9.07,7.17,11.33.41,1.24-.7,5-.61,7.12.27,6.1,5.22,11.4,10.61,13.89-3.15,8.53-.83,13.78,8.33,15.17,1.38.21,3-.83,4.28-.51.42.1,2.61,3.62,5.47,3.96,2.24.27,5.02-.94,6.83-2.29l-7.88-18.74c-23.2,8.42-30.26-35.48-5.37-29.13,1.12.29,3.03,1.27,3.53,2.45,2.1,4.92,2.69,16.8,4.13,22.77,2.71,11.21,9.6,27.58,21.14,32.1,2.75,1.08,6.78,1.17,8.39,2.12,2.34,1.38,3.63,6.83,8.92,8.17,6.16,1.56,8.94-1.65,11.53-1.64,1.66,0,6.66,5.23,11.79,5.25,7.41.03,7.32-4.44,11.6-6.86,2.34-1.33,4.77-1.04,7.5-3.02,4.32-3.13,3.56-6.5,5.57-9.38.75-1.08,4.08-2.51,5.63-4.4,4.74-5.81,2-9.35,2.99-15.42.33-2.02,2.04-3.89,2.43-6.12,1.17-6.72-1.64-12.88-3.14-19.23l-1.46.83-2.21,5.03c-4.17-1.23-10.73-5.07-15.06-4.6-2.01.22-5.69,3.98-8.98,4.87-12.73,3.47-14.95.63-26.49,10.33-1.58,1.33-4.89,5.83-5.61,6.22-3,1.65-2.6-1.27-3.96-1.95-9.4-4.67-12.99-3.31-19.87-13.01-.94-1.32-8.3-13.21-8.38-14.03-.47-4.69,4.11-7.3.8-14.57-.59-1.3-2.17-1.13-2.2-2.45-.08-3,7.12-9.8,5.97-17.62-.07-.47-1.09-.2-1.34-1.42-1.4-6.87,5.67-2.81,10.27-2.96,9.17-.3,12.23-8.25,14.54-8.44,2.62-.22,5.39,4.21,13.51,1.65,5.34-1.69,5.63-5.71,9.54-8.25,4.79,1.29,6.45,4.17,12.36,3.87,3.89-.2,11.11-4.99,12.44-4.63.35.1,1.22.97.93,1.52-.38.67-1.17,1.3-1.22,2.12-.05.88,5.02,15.32,5.75,16.55.42.7-.04,1.14,1.46.84,2.07-4.57,1.23-7.54-.13-12.02-.44-1.47-2.25-3.06-2.35-4.18-.11-1.29,1.56-2.87,1.79-4.55.75-5.48-1.08-11.59-6.81-13.47-1.65-.54-5.07-.46-5.68-.89-1.12-.8.21-5.38-6.39-7.41-5.62-1.73-9.53.16-14.38,2.93-.88.12-1.32-.3-1.98-.73ZM432.35,279.55c1.76-2.11,3.76-3.93,4.98-6.5-4.88-4.43-9.53,3.35-14.24,6.13-11.54,6.83-28.42,10.05-41.42,6.79-3.07-.17,1.8,4.25,2.47,4.77,15.74,12.41,36.99,2.25,48.2-11.19ZM491.02,304.5c-11.73-16.95-29.48-29.15-50.39-30.82-8.72,19.19-36.98,33.65-56.35,21.53-5.07-3.17-6.03-8.53-8.26-10.48-2.56-2.24-12.66-4.67-15.42-8.64l-1.65.03c-3.52,2.5-7.14,3.92-10.67,6.48-10.58,7.66-24.06,25.9-31.48,36.97-2.89,4.31-8.15,10.55-7.67,15.59l-42.07-11.82c3.47,14.82,2.36,39.11-4.73,52.78-1.05,2.03-2.82,2.52-3.16,4.39,25.44,9.85,57.03,14.27,76.24-9.54,6.1-7.56,3.53-6.72,4.58-15.13,1.18-9.51,1.56-20.16,2.69-30.18.57-5.11,1.25-12.63,3.92-16.77.44,12.38-2.16,24.72-2.65,37.11-.32,8.15-1.65,36.83,5.31,41.41,2.89,1.9,16.67,4.4,20.7,4.94,25.11,3.33,68.25,2.98,92.64-3.32,2.11-.54,10.17-2.19,10.12-4.76-7.58-17.05-13.83-34.93-18.97-52.72.21-2.29,2.77-1.77,3.52-.16,10.5,32.91,23.42,70.36,44.29,98.26.64.85,7.47,8.93,8.08,8.06,2.36-12.97,12.82-25.73,23.47-33.4,2.06-1.48,13.35-7.27,13.28-8.88-7.94-9.53-13.75-19.73-20.3-30.18-12.03-19.19-22.54-42.61-35.09-60.74ZM167.38,302.72c-.63-.95-.71-3.33-1.96-3.65-4.24,4.91-17.73-.93-18.93-.61-.6.16-6.16,5.8-10.11,6.95-6.28,1.83-10.35-.89-13.46-.33-1.47.26-4.86,3.98-6.85,5-4.66,2.37-8.91,2.29-14.02,2.09.14,3.78.05,7.52-.96,11.2-.57,2.07-3.66,5.81-3.7,6.23-.2,2.04,1.34,1.42,1.73,2.9,1.05,3.97,1.85,11.36-1.62,13.89l-.03,1.26c3.36,2.39,4.78,8.26,7.35,12.04,4.94,7.27,11.72,10.09,19.84,12.78,7.53-7.81,14.69-12.09,25.24-14.78,5.09-1.29,13.26-.03,14.99-7.36,2.82-11.9-12.34-10.88-15.15-17.15-1.1-2.45-.38-4.52,2.27-2.93.74.44,1.17,2.19,2.31,2.95,7.46,5.03,17.78,7.46,14.15,19.71l13.14,2.64c.28-1.86,1.25-3.59,1.24-5.51,0-7.31-11.25-41.03-15.45-47.32ZM231.56,337.14c-7.6-.04-14.06-4.42-20.84-7.13l-1.44,1c-2.61,7.97,18.03,17.05,23.74,18.81,6.22,1.91,29.53,5.76,32.44-2.12,2.16-5.84.27-20.17-2.52-25.82-1.89-3.82-15.75-18.52-19.39-19.41-6.55-1.6-4.74,4.5-2.91,8.18,1.24,2.49,6.22,7.05,6.59,8.58s-1.34,5.55-1.24,8.41c.1,3.05,1.54,5.21,1.35,8.19-7.82-.14-2.93-14.18-4.25-16.43-5.55-3.3-19.25-8.31-25.37-6.28-2.29.76-3.72,3.48-1.09,5.12,3.01,1.87,16.38,3.97,17.25,6.42l-.68,1.32c-3.9.06-22.63-8.36-23.91-2.83-1.15,4.95,17.33,9.38,20.25,11.1.95.56,2.2,1.64,2.03,2.89ZM86.49,365.86c-.43-2.14-2-14.05-2.82-14.63-20.43-3.33-11.77,27.78,4.54,22.7-.32-2.25-.25-5.28-.67-7.39-.09-.46-1.02-.52-1.05-.68ZM265.09,352.92l-13.72,3.36c-.24,5.96-.43,12.26,2.06,17.84.63,1.4,1.69,5.13,3.84,3.37,5.15-7.24,7.11-15.72,7.83-24.56ZM473.5,389.07c-36.94,10.06-80.23,11.39-117.82,3.75-2.53-.51-8.11-3.76-9.39-1.12-2.51,10.61,5.89,12.24,13.98,14.28,24.83,6.29,84.26,5.65,107.96-4.12,7.75-3.19,5.46-5.44,5.27-12.79ZM120.7,411.81c-4.2-3.03-8.25-3.23-12.7-6.03-5.9-3.71-5.11-8.33-13-5.68-25.43,8.55-43.83,43.87-47.87,68.48-.3,1.85-1.64,7.3-.69,8.61,14.8,2.9,30.07,2,44.98.51.8-4.82,7.75-35.37,10.3-36.7,1.73-.9.84,4.29.79,4.74-.65,6.33-3.62,12.55-5.01,18.13-1.13,4.52-1.34,9.43-2.7,13.93,3.74-.45,7.79-.3,11.49-.66,4.24-.42,16.47-1.87,19.97-3.04,1.66-.55,4.29-4.02,6.46-5.38,6.49-4.06,12.89-6.13,20.28-7.99,6.83-18.95,18.43-32.05,36.21-41.36,1.17-.61,8.49-2.88,8.81-3.37-.12-3.65-13.51-15.09-16.04-14.49-1.19,3-4.21,7.72-6.74,9.8-3.02,2.48-6.54,2.48-8.95,4.02-4.26,2.72-4.59,6.15-12.08,6.54-6.58.34-9.53-4.1-12.52-4.37-1.02-.09-4,1.57-5.87,1.74-7.8.7-9.85-3.61-15.12-7.42ZM543.85,425.22c5.58,2.53,10.01-6.85,10.94-7.18.8-.29,17.41,4.25,13.73-3.33-.96-1.97-23.27-12.28-26.16-11.72-4.81.93-22.57,17.15-23.39,22.06-.63,3.76,3.08,9.86,5.26,12.89,3.39,4.71,17.72,19.82,23.25,20.19,12.5.85-7.53-15-4.94-19.76,2.57-.54,3.21,3.07,4.7,4.82s8.22,9.74,9.39,10.32c3,1.5,7.6.24,6.68-3.34-.89-3.47-12.28-11.42-11.57-17.07,2.1-2.2,16.69,23.44,17.53,10.75.4-6-8.45-16.76-13.58-19.71-1.37-.32-11.09,8.61-11.85,1.07ZM479.03,423.65c-.69-2.73-4.18-19.67-5.9-20.1-17.48,6.39-36.53,9.11-55.15,9.87-23.96.97-49.52,0-71.99-8.55-2.14,6.23-3.19,12.77-4.7,19.17-3.15,13.39-5.62,28.14-7.73,42.35-5.59,37.7-10.79,79.15-11.95,117.54-.1,3.3-.53,16.74.88,18.57,22.58,10.98,51.31,14.49,76.37,15.34,33.32,1.13,68.84-1.67,99.98-13.82.27-1.61.75-3.33.82-4.95.55-11.81-1.08-28.52-1.83-40.74-2.67-43.36-8.36-93.11-18.79-134.68ZM260.26,430.71c-27.35-33.15-94.31-10.38-102.33,30,3.5-.32,12.68.93,14.12,4.62.8,2.05-.04,4.11.49,6.08.34,1.28,2.24,2.16,2.26,4.86s-2.07,3.52-2.3,4.62c-.25,1.21.79,2.49.41,4.28-.4,1.88-3.01,3.08-3.16,3.63-.33,1.21.26,3.01-.04,4.41-.91,4.24-11.93,10.56-16.3,11.64.32,8.38-.27,15.84-3.71,23.57-6.7,15.01-29.01,26.84-23.7,46.05.81,2.94,4.71,7.16,4.81,8.95.07,1.15-3.01,6.59-3.6,8.63-3.4,11.79.39,23.37,11.96,28.4,1.67-.4.81-5.87,1.01-7.55,3.1-25.62,12.04-55.21,38.13-66.39,3.41-1.46,13.57-3.09,15.33-4.22,3.01-1.93,4.05-14.55,1.43-17.81-9.06-.68-17.05-5.05-15.41-15.39.8-5.06,9.3-8.64,12.45-12.53,1.93-2.39,6.66-13.37,3.29-15.18-1.66.11-6.11,3.66-7.24.72,20.8-11.98,36.87-29.55,41.75-53.58,2.34.07,2.39,2.13,4.66,3.22,5.62,2.71,13.36,3.79,18.88,7.42l13.6,11.71c.15-6.69-2.52-14.95-6.8-20.14ZM515.39,438.16c2.51-1.77,3.93-5.9,1.18-8.32-1.62,3.03-4.6,5.51-4.27,9.18,1.18.12,2.13-.19,3.09-.86ZM242.74,543.53h-10.19c-2.2,0-19.29-4.72-17.1-7.89,1.35-1.96,5.66,1.54,7.71,2.16,25.69,7.7,53.42-1.54,56.31-30.83,1.97-19.96-6.66-37.33-15.66-54.32-6.3-4.29-10.27-1.76-16.47.17-.38-5.28,6.87-5.54,10.84-5.25l.32-1.3c-3.17-1.7-5.79-4.15-9.05-5.75-1.75-.86-16.05-6.16-16.95-6.1-.59.04-.99.08-1.28.66-1.17,5.42-2.75,10.71-5.41,15.59-.87,1.6-5.75,7-6.09,8.41s.59.9,1.46.81c2.07-.2,6.21-1.9,6.42,1.47-7.24.38-11.6,4.24-14.48,10.5l-2.27-2.6-11.86,9.21c.88,7.59-.31,15.5-5.55,21.37-4.72,5.29-15.55,7.39-9.23,16.41s17.42,1.31,18.41,2.3c.81,3.04-2.2,3.76-4.58,4.65,2.33,7.37,1.79,15.02-1.88,21.87,8.09,8.15,19.78,15.61,31.8,14.9,2.47-.14,11.81-2.2,13.64-3.45,2.82-1.93-.52-9.29,1.13-13ZM4.08,452.5v113.38l61.84-4.23,7.78-42.06c-5.57-2.31-10.57-2.29-15.67-6.01-7.19-5.25-10.25-12.29-11.21-21-.33-2.98.65-8.76,0-11.01-.18-.62-2.44-1.34-3.21-2.86-2.96-5.82,6.92-31.46,5.91-32.81-6.96-4.24-12.92.52-12.23,8.26l-2.31.64c-1.53-9.67-11.22-18.42-21.34-16.4-4.5.9-9.14,9.89-9.57,14.09ZM169.76,468.6c-.36-5.55-11.29-4.94-15.43-4.58-14.4,1.25-18.02,9.39-27.76,13-11.03,4.09-38.04,5.13-50.47,5.41-8.92.21-17.76-.48-26.65-.68v10.85c0,6.06,6.72,16.51,12.02,19.53,12.12,6.88,35.95,3.46,49.25.32,9.21-2.18,16.31-4.02,25.65-5.9,10.42-2.1,23.45-5.94,30.08-14.61-.45-3.53-16.99,2.9-18.39,1.64-.26-1.72.15-1.98,1.49-2.77,3.13-1.84,18.68-3.68,19.77-5.91.39-.8.5-1.84.38-2.73-1.13-3.07-17.4,1.48-20.76,1.49-.75,0-2.8.15-2.84-.92-.12-3.45,21.55-4.86,24.69-5.54,1.68-6.11-7.27-5.53-11.22-5.28-5.04.32-9.68,2.87-14.81,2.61-2.74-2.22,12.98-5.91,14.13-5.91h10.85ZM590.54,569.17v-83.81c-7.39-5.87-19.18-2.51-25.63,3.3-1.85,1.66-8.21,11.26-8.9,11.49-2.59.85-.16-8.55-5.93-8.57-6.38-.02-8.85,7.9-9.84,7.9-2.71-2.89-1.23-7.08-3.01-11.29-1.27-3.01-6.09-7.15-9.54-7.7-11.49-1.81-17.59,6.5-20.69,16.34-2.23,1.36-7.92-12.31-12.47-4.25l6.6,68.68c29.97.2,59.82,3.6,89.41,7.9ZM319.67,569.17c.99-12.57,1.57-25.22,2.64-37.79.61-7.21,4.58-25.74,2.44-31.39-3.12-8.23-13.94-8.01-19.48-2.07-1.97,2.12-2.09,4.83-4.34,6.21-2.62.09-4.36-11.01-13.14-10.6-7.2.34-3.57,8.89-4.24,14.22-.93,7.42-6.26,18.41-11.42,24.42-.6.7-2.25.43-2.49,1.29-.41,1.46,1.3,6.21,1.39,8.42.1,2.58-1.31,12.24-1.04,12.83.4.86,2.51,1.62,3.35,2.62,3.34,3.94,5.96,8.47,9.3,12.41l37.03-.55ZM150.03,506.73c-6.73,3.07-14.69,1.64-21.2,2.79-4.69.82-12.48,4.76-18.24,6.08-7.14,1.63-14.23,1.81-21.38,2.96-.89.14-2.12.45-.97,1.31,19.61,4.58,40.14,4.55,59.98,1.31,2.02-1.09,1.88-12.05,1.81-14.45ZM147.4,523.81c-23.08,4.54-47.53,3.47-69.68-4.6-3.09,10.09-5.88,20.43-7.23,31.23-.93,7.48-3.69,57.52-1.34,60.46,18.46,7.99,39.93,8.46,59.84,6.89-4.93-6.99-6.77-13.88-5.73-22.48.38-3.13,3.89-10.86,3.78-11.99s-3.73-5.39-4.33-8.86c-4.1-23.75,18.03-31.42,24.69-50.65ZM267.72,552.07c.47-5.26,1.56-10.98-1.64-15.76-5.54,4.8-13.05,6.17-20.05,7.23l21.69,8.53ZM245.37,548.79c5.31,13.71-15.52,15.45-24.58,14.38-11.65-1.37-20.03-10.86-29.04-16.98-25,4.31-39.47,25.24-44.71,48.58-2.63,11.72-4.36,22.9-2.31,34.04.71,3.83.46,8.51,3.66,11.33,9.73-15.27,28.52-19.37,45.43-21.64l-1.04-38.82c3.51,3.17,1.65,10.23,1.94,14.81.48,7.55,1.43,15.12,2,22.65l28.74-16.61c3.55-15.66,7.52-39.13,28.11-39.29,2.03-.02,7.87.43,9.82.7,6.13.84,4.13,6.78,5.34,9.84.39,1,3.66,3.13,4.94,4.92,3.41,4.81,4.28,10.68,3.91,16.44-.34,5.21-4.7,11.34.99,14.21,2.26,1.14,13.34-2.54,16.78-1.38-7.01-18.78-19.14-50.63-40.75-56.21-3.02-.78-6.09-1.19-9.22-.98ZM266.41,584.61c.39-3.16-.28-6.94,0-10.19-5.65,3.25-9.07,11.12-11.19,17.09l-1.65-.64c-1.35-2.29,2.6-9.61,3.95-11.85,1.46-2.42,11.24-11.46,7.13-13.05-8.32-3.22-14.17,18.87-18.96,22.9-2.45,0,1.34-9.19,2.12-10.32l9.38-13.01c.74-1.8-3.76-.83-4.44-.54-.5.21-6.37,7.19-7,8.17-1.77,2.74-4.61,11.14-5.99,12.42-.82.76-1.17.81-2.29.67,1.11-7.26,5.23-13.42,9.2-19.39-6.21.41-11.36,10.26-13.33,15.59-2.42,6.54-2.64,17.26-7.38,21.54-3.79,3.43-37.76,24.16-42.44,25.93-2.29.87-3.76.11-2.45-2.13.4-.68,5.89-3.04,6.42-4.74-12.19,1.29-23.71,5.78-32.76,14.19,7.38,19.45,21.81,34.97,44.07,25.71,20.77-8.65,33.81-27.46,48.16-43.21,1.88-2.06,5.13-3.3,7.57-6.24,5.42-6.54,10.82-20.54,11.85-28.9ZM590.54,572.45c-29.61-4.27-59.45-7.41-89.41-7.88l1.88,41.32-22.83,8.07c-.64,1.05.39,11.79.65,13.95,1.62,13.46,7.76,18.39-5.4,28.3-11.66,8.77-25.89,11.88-40.37,10.89-11.79-.81-28-3.45-19.02-18.99,3.33-5.76,21.5-18.25,22.3-20.46.45-1.24-.79-4.48-.42-6.14l-.9-.9c-.23-.05-.49.49-.66.49h-41.42l-.72,1.35c.12,6.36,3.35,21.32-.91,25.95-9.91,10.78-57.26,17.86-68.89,7.71-16.12-14.06,25.74-27.86,27.31-34.16.4-1.6.71-5.86-.97-6.64-2.75-1.28-11.37-2.45-15.32-3.75-5.9-1.94-12.14-3.84-16.77-8.21l.33-30.9h-34.19c7.48,17.67,18.17,35.18,19.71,54.9,2.41,30.76-22.71,38.96-42.4,18.07l-3.54,6.13c14.27,13.36,33.69,19.26,48.9,31.34,32.55,25.83,36.35,62.7-7.86,77.58-37.28,12.55-89.3,9.75-127.13.19-8.56-2.16-19.8-4.16-24.17-12.59-11.37,3.64-57.94-2.96-34.11-21.13,8.79-6.71,21.3-9.64,31.17-14.52,1.06-2.66-1.74-3.74-2.12-4.73-2.96-7.74-3.9-16.6-2.45-24.8-17.79,12.33-50.11,8.05-66.35-4.98-9.16-7.35-3.79-10.7-2.68-19.01,1.83-13.64.53-27.75,2.02-41.43-.41-2.34-7.7-2.41-8.58-6.57l.64-45.67-61.8,3.95v268.18h586.45v-264.89ZM271,578.38l-1.3.31c-1.34,16.23-5.95,31.04-17.62,42.59,3.72,14.26,19.89,36.26,36.85,31.84,17.58-4.58,12.88-32.42,7.29-44.45l-14.69,1.24,11.17,11.52c.12.86-.77,1.76-1.62,1.62-1.24-.21-17.92-15.81-18.38-17.12-2.14-5.99,6.04-20.57-1.69-27.56ZM476.8,615.17l-35.42,5.34c-.93,2.42,1.09,6.44.26,8.44-1.39,3.34-17.68,14.41-21.37,18.77-4.25,5.01-6.57,12.02,1.96,13.46-1.54-3.63,3.01-14.21,6.9-14.47,2.83-.19-2.6,6.27-3.07,7.45-2.42,6.05-1.49,8.46,5.07,9.64-.89-7.59,3.31-15.74,11.49-15.44-6.24,4.42-13.03,16.42,0,15.45-.17-2.68-1.27-4.67.37-7.19.74-1.14,10.97-9.7,10.15-4.97-.3,1.72-8.91,3.88-7.23,10.52.82,3.24,8.68.73,11.16-.02,5.81-1.75,22.72-10.98,23.63-17.1.79-5.32-2.38-9.83-3.14-15.17-.64-4.46-.43-10.13-.74-14.71ZM353.85,645.4c-4.15-.25-14.17,11.54-7.56,13.15,6.64,1.62,41.5-7.35,45.35-13.16,2.46-3.71-1.18-18.48-.61-23.68l-35.2-5.23c-1.06,3,.16,7.2-1.95,9.56-2.28,2.55-15.64,8.96-19.7,11.86-1.68,1.2-6.52,4.84-7.64,6.17-1.37,1.63-2.4,6.17-.82,3.8,2-2.99,3.64-4.81,7.07-6.4-1.39,5.93-13.05,12.44-.65,14.46-.62-5.57,3.71-13.81,9.86-13.8-1.02,2.51-3.44,3.26-5.02,5.82-2.97,4.77-4.31,10.47,3.36,9.98l1.4-.66c-.54-3.82.53-7.13,3.2-9.91,1.66-1.72,8.44-6.46,8.9-1.95ZM130.31,667.76c1.68-1.91-16.44-9.86-16.96-12.28l1.23-33.41c-12.42-.31-24.84-.96-36.85-4.25l-1.93,39.8c-1.89,3.28-4.29,11.9-1.65,15.37,7.63,10.05,37.76,16.67,49.63,12.77.48-10.67-10.34-11.57-16.8-4.86-1.05-.73-1.3-1.66-.89-2.85.76-2.22,20.62-10.38,24.23-10.29ZM140.06,624.5c-.21-.35-6.64-3.31-7.41-3.43-3.94-.6-10.39.95-14.54,1.3-.85,1.24-2.7,27.5-2.29,29.98.31,1.91.66,2.07,2.05,3.21,4.1,3.38,12.62,6.33,17.38,10.24,2.89,2.37,4.26,5.56,6.18,7.47.53.53.48.58,1.37.41l9.24-27.26c-.41-2.27-7.41-3.88-9.16-6.67-2.23-3.55-1.62-13.24-2.83-15.25ZM249.93,624.42c-2.69-2.05-10.19,11.18-12.69,12.87l-24.74,21.93c8.45.5,16.83-.95,25-2.93,5.79-1.4,23.08-5.7,21.68-13.79-.56-3.21-9.54-12.9-9.25-18.07ZM156.4,648.92c-.25-.23-1.67-.97-1.75-.88-2.06,5.71,2.29,8.32,7.22,9.19-1.69-2.02-3.79-6.74-5.48-8.31ZM257.07,653.42c-7.99,1.83-15.29,5.32-23.41,6.91-8.67,1.7-20.24.74-27.28,2.31-1.62.36-5.54,2.99-8.02,3.81-17.98,6-22.93-.78-38.65-6.73-2.46-.93-4.64-2.51-7.06-3.48-4.66,9.02-6.34,18.87-7.93,28.77-3.68,22.92,11.14,38.81,32.47,47.28,13.58,5.4,24.39,4.8,37.58,7.78,5.56,1.26-1.78,2.69-4.57,2.6-17.96-.59-37.2-7.62-52.27-17.07-3.03,5.3-8.3,20.25-3.67,25.02,4.77,4.91,45.48,12.08,54.04,13.01,27.47,3.01,102.59,3.72,117.18-25.3.98-1.95,4.11-12.32,4.11-13.72,0-.37-1.36-6.3-1.56-7.07-7.94-31.75-45.27-44.14-69.22-61.6-.89-.65-1.27-1.6-1.75-2.52ZM134.92,681.56c9.5-1.89,1.45-15.56-5.93-11.17.63,4.37,6.13,6.01,5.93,11.17ZM124.25,672.47c-.68.02-5.1,1.66-5.09,2.2,6.1,2.09,6.31,5.4,8.19,10.81,8.97-.61.79-13.15-3.1-13.01ZM149.29,744.57c0-7.23,1.77-14.54,5.79-20.62l-7.32-9.44c-6.95,4.43-35.45,12.69-36.39,21.44-.85,10.54,36.82,10.47,37.92,8.62Z"/>
  <rect x=".14" y="841.29" width="595" height=".66" fill="#fff"/>
  <path d="M590.54,3.89v44.04c-11.34-2.17-20.87,3.46-27.93,11.83-7.07-11.97-18.76-18.36-32.87-17.07-14.52,1.33-30.21,15.24-30.59,30.22-13.57-8.39-39.94,2.42-40.71,18.82-.41,8.81,8.7,14.7,16.72,14.7h115.38v374.66c-12.13-6.07-26.45,1.35-33.23,11.87-2.17.4-2.7-2.9-4.65-3.9-4.2-2.14-8.39.3-11.42,3.2-2.32-20.06-28.85-20.45-34.86-1.97-4.25-2.98-7.14-4.26-12.48-2.62-1.37-6.94-1.45-14.27-2.68-21.2-3-16.93-6.46-36.94-11.03-54.13-.72-2.71-4.27-8.96-4.6-12.38-.05-.47.42-7.05,1.86-5.62,4.19,7.19,7.39,15.04,11.68,22.2,4.09,6.83,11.5,18.84,17.91,23.48,5.36,3.88,8.94,2.96,12.82-2.29,5.72,7.04,20.73,25.82,30.76,23.5,3.33-.77,3.39-4.13,3.82-4.41.86-.56,7.61,2.92,11.03-2.43.7-1.09.55-2.9,1.06-3.54.6-.75,4.99-1.37,5.82-3.44,2.97-7.36-7.14-20.01-12.72-24.49,5.67.14,16.14-1.13,12.72-9.37-1.44-3.48-21.82-11-25.85-13.63,0-.73,5.38-1.83,4.33-4.28-9.79-11.66-17.09-24.58-24.72-37.62-.71-1.21-3.72-2.66-3.34-5.36,7.38-3.28,15.76-7.87,20.31-14.64,2.86-4.26,6.76-14.04,6.71-18.91-.03-3.45-1.88-5.8-2.31-8.95,16.44-11.03,27.65-37.14,12.13-53.59v-1.2c.73-.68,1.58-.89,2.17-1.84,10.99-17.81,23.83-59.98,4.08-75.43-20.71-16.2-50.85,10.24-64.34,25.03-2.5,2.74-8.67,12.2-10.46,13.52-3.18,2.33-4.34-.92-5.83-3.29-6.46-10.34-2.3-25.95-5.22-38.04-18.79-77.86-155.21-69.18-155.02,13.02,0,2.54,3.08,21.08-.41,21.28-12.9-14.83-31.17-37.33-53.57-27.91-27.74,11.67-10.97,63.61-.02,82.64.38.66,1.7.81,1.88,1.53-8.82,16.3-1.73,35.29,12.97,45-.45,5.13-.84,10.16.94,15.1-5.44-2.33-15.89-3.77-20.61-6.67-4.23-2.6-11.57-13.25-16.54-16.99-11.56-8.7-18.99.33-11.51,11.17-5.9-2.05-20.94-5.99-25.67-1.01-1.9,2.01-.78,4.47-1.4,5.51-.28.47-4.38,1.21-5.03,4.54-.52,2.67,1.11,3.5,1.2,5.15s-1.19,2.64-1.3,3.95c-1.15,14.13,30.76,24.42,42.06,24.59.44.47-.34,10.87-.04,12.84.17,1.13,1.17.97,1.3,1.48,1.91,7.79,2.2,10.25,9.96,13.57,22.61,9.68,53.98,11.6,73.6-5.22,1.35-1.15,7.19-9.07,8.54-7.56-1.22,4.58,3.19,12.9,3.29,16.17.05,1.53-1.83,3.72-2.01,6.5-.21,3.27,1.35,5.97,1.2,8.41-.09,1.38-2,6.48-2.56,8.49-5.95,21.51-9.48,46-13.13,67.87-.38,2.27-.99,16.01-1.92,16.8-2.93-.75-4.07-4.14-7.21-4.95-7.36-1.88-14.74,1.63-18.09,8.23-4.01-7.43-10.41-10.21-18.74-7.88-1.39-10.33-5.64-19.91-9.68-29.4-3.19-7.48-1.39-5.89-2.24-13.57-2.94-26.53-28.52-38.12-52.83-36.55-5.35.35-10.36,2.13-15.66,2.5-4.79-5.4-9.64-10.68-15.94-14.35.24-3.43,3.28-5.61,4.01-9.82.59-3.45-.48-6.93-.09-9.3.33-2.02,3.25-5.05,3.28-10.78.07-11.87-5.22-13.53-7.86-21.99-1.61-5.16-2.33-13.26-3.91-19.1-.58-2.13-3.23-6.97-3.34-7.83-.23-1.85,3.24-5.23,3.66-8.93.25-2.21.19-6.18-.16-8.39-.4-2.55-3.15-5.57-3.2-6.08-.13-1.37,1.68-2.19,1.95-4.66.82-7.33-3.27-13.31-9.76-16.39-1.12-.53-2.87,0-3.97-.63-.56-.32-2.44-4.4-4.64-5.87-8.98-6.01-14.59.81-19.25.09s-5.37-5.49-15.21-4.4c-7.12.79-10.7,6.67-12.64,7.11-1.43.33-3.03-1.09-4.52-1.16-7.08-.33-14.06.18-19.01,5.86-1.52,1.75-3.7,7.05-4.03,7.3-1.37.98-4.9.39-6.85.88-8.97,2.28-13.4,7.08-16.98,15.36-.63,1.44-.18,4.46-1.09,6.01-1.98,3.38-6.26,3.69-8.37,10.7-2.85,9.49,2.01,13.43,1.49,18.55-.41,4.06-5.43,5.77-3.9,13.03.63,3,7.06,9.7,7.49,10.96.28.83-.48,4.89-.21,6.87.93,6.78,4.38,9.93,9.83,13.35-2,5.7.41,13.61,6.41,15.76,4.99,1.8,9.43-1.03,12.61,4.14-17.33,7.88-28.53,24.32-35.27,41.48-3.84.98-7.37-.78-11.45.22-2.87.71-4.71,4.6-5.53,4.31-6.94-12-22.31-16.56-31.24-3.94v-195.22h98.29c4.31,0,12.99-4.44,15.09-8.58,9.57-18.93-16.84-31.71-31.85-23.62-2.85-28.55-47.13-27.77-51.95-.66-8.48-7.3-19.6-9.9-29.58-3.94V3.89h586.45ZM143.72,61.48c-18.25-27.83-63.6-14.46-66.67,17.34-17.87-12.49-41.92,2.67-38.39,23.7-16.9,2.91-21.87,20.43-2.06,23.66,50.22-2.71,104.1,3.52,153.9,0,12.24-.86,25.06-4.62,22.36-19.77-2.49-13.95-17.11-17.5-29.32-15.36-.23-19.44-20.78-23.32-34.81-14.19-.55-6.12-1.69-10.31-5.01-15.37ZM360.43,111.68c4.7-.09,7.09-5.46,11.37-8.01,17.94-10.68,47.98-7.34,65.35,3.29,3.25,1.99,8.82,9.71,12.02,5.72-18.22-18.23-53.22-24.99-76.52-13.41-1.97.98-14.94,9.75-12.22,12.42Z" fill="#fff"/>
  <path d="M590.54,572.45v264.89H4.08v-268.18l61.8-3.95-.64,45.67c.88,4.16,8.17,4.23,8.58,6.57-1.49,13.69-.19,27.79-2.02,41.43-1.12,8.32-6.49,11.66,2.68,19.01,16.24,13.03,48.56,17.31,66.35,4.98-1.45,8.2-.51,17.06,2.45,24.8.38,1,3.17,2.08,2.12,4.73-9.87,4.88-22.38,7.81-31.17,14.52-23.82,18.18,22.74,24.77,34.11,21.13,4.37,8.43,15.61,10.42,24.17,12.59,37.83,9.57,89.85,12.36,127.13-.19,44.21-14.88,40.41-51.75,7.86-77.58-15.22-12.07-34.64-17.98-48.9-31.34l3.54-6.13c19.69,20.9,44.81,12.7,42.4-18.07-1.54-19.72-12.23-37.23-19.71-54.9h34.19l-.33,30.9c4.64,4.36,10.87,6.26,16.77,8.21,3.94,1.3,12.56,2.47,15.32,3.75,1.68.78,1.37,5.04.97,6.64-1.57,6.3-43.43,20.1-27.31,34.16,11.63,10.15,58.98,3.07,68.89-7.71,4.25-4.63,1.02-19.59.91-25.95l.72-1.35h41.42c.17,0,.42-.55.66-.49l.9.9c-.37,1.67.88,4.91.42,6.14-.8,2.2-18.97,14.69-22.3,20.46-8.99,15.54,7.23,18.18,19.02,18.99,14.47.99,28.7-2.12,40.37-10.89,13.17-9.9,7.02-14.83,5.4-28.3-.26-2.15-1.29-12.9-.65-13.95l22.83-8.07-1.88-41.32c29.97.47,59.81,3.61,89.41,7.88ZM37.61,598.75c-5.14-.47-8.12,13.86-7.26,16.64l1.67,1.09,5.58-17.73ZM545.83,607.62c-.38,3.02,0,7.3,0,10.52,0,.2.59.91,1.32.66,3.06-1.04,2.74-14.38,3.95-17.75-3.26-1.76-4.99,4.39-5.27,6.57ZM28.64,614.98c-1.19-4.22-2.03-10.98-7.46-11.63l5.28,14.45c.33.21,3.1-.51,3.25-.68,1.05-1.28-1.03-2.02-1.06-2.13ZM564.24,603.35c-6.53-3.29-14.36,17.02-10.19,17.07,2.68-6.62,5.77-11.54,10.19-17.07ZM539.93,620.43c.26.17,1.61.09,2-.28,2.48-2.18-3.13-17.06-8.58-16.14-1.11,1.14,3.53,6.94,3.89,7.75.6,1.32,2.31,8.43,2.69,8.68ZM44.84,606.64c-5.06.14-8.77,5.67-7.89,10.51l2.03-.4,5.85-10.12ZM541.88,723.96c-.04-3.72,0-7.45,0-11.17,0-3.46,4.57-4.14,7.02-6.45.66-.62.77-2.38,1.48-2.78,1-.55,7.13,1.87,11.14-2.03,6.15-5.99-.16-11.1.18-12.97.22-1.23,4.29-3.39,4.54-7.34.45-7.21-6.64-8.99-12.54-8.86,1.75-13.96-13.96-15.37-18.46-4-11.85-4.88-23,4.99-11.83,14.93-9.13,8.77-2.87,20.13,9.26,18.63-2.39,5.98,5.95,7.14,6.48,7.98.83,1.33-1.89,13.07-1.23,15.68-6.18-9.33-16.06-18.67-28.18-16.36,1.22,18.77,20.38,34.07,39.36,28.51,8.62-2.52,21.76-14.39,19.12-24.35-9.5-1.36-18.19,4.04-25.05,9.91-.7.6-.24,2.09-1.61,1.64-.93-.11.32-.84.32-.99ZM56.68,752.55v-15.12c0-.12,1.66.02,2.43-.5,2.94-2.02,4.22-4.3,4.25-7.93,6.31.28,14.43-3.56,13.67-10.9-.34-3.31-3.66-4.42-3.78-6.08-.14-1.85,2.64-2.98,3.23-4.41,3.62-8.93-9.78-14.7-16.49-9.62-2.27-13.03-16.04-12.45-17.06,1.03-11.84-.31-17.11,12.9-5.32,18.36-3.72,3.2-3.73,11.41.73,13.75,3.34,1.75,9.22.33,9.81.67.66.38,1.19,2.48,1.95,3.35s2.72,1.81,2.97,2.29c1.51,2.95.02,10.38.33,13.79-1.14,1.26-5.36-4.61-6.56-5.59-4.69-3.8-12.24-7.53-18.32-5.48-.66,11.7,8.35,23.87,20.25,25.9,13.38,2.27,34-9.16,34.11-24.2-1.72-5.75-17.79,1.67-20.96,4.42-2.12,1.83-2.82,4.75-5.23,6.28ZM393.95,719.03c-.09-4.55,2.85-11,3.16-14.94.09-1.13.21-1.38-.85-2.13-2.48-.03-8.21,16.4-2.31,17.07ZM386.32,710.89c-.95-1.83-4.66-8.98-7.15-8.3s3.23,8.04,4.08,9.71c.61,1.19,1.86,6.36,2.24,6.62h2.44c1.98-3.48-.41-5.69-1.62-8.04ZM409.07,705.23c-4.46,1.04-8.89,7.16-9.17,11.57-.19,2.98,1.41,3.81,2.64,1.24l6.53-12.81ZM478.11,755.84c-5.09.15-6.07,17.78-4.59,19.06,1.64.24,1.73-1.02,2.09-2.18,1.4-4.47.94-11.99,2.5-16.88ZM468.03,767.22c-.5-.89-5.79-6.9-6.68-7.44-1.59-.96-2.44-1.25-4.27-.65,1.52,2.44,4.22,3.97,5.81,6.35,1.7,2.53,3.9,11.99,6.3,11.36,2.8-.73-.28-8.08-1.15-9.63ZM495.86,759.13c-2.03-1.95-17.23,12.47-10.84,16.41,2.72-6.56,7.52-10.51,10.84-16.41ZM106.65,793.3c3.66,3.18,1.09-14.82.47-16.57-.34-.95-.56-1.86-1.46-2.47-2.64,0,.57,17.23.99,19.04ZM121.76,776.88c-3.42-3.28-9.77,13.45-7.88,16.43l2.03-.4c-.5-2.63,6.47-15.44,5.85-16.04ZM93.92,780.4c-1.07-.86-2.22-1.72-3.7-1.55-1.05,1.04,4.02,6.57,4.87,7.94,1.81,2.9,2.26,7.83,6.3,7.17,2.17-2.17-5.61-12.07-7.47-13.56ZM318.17,787.58c-.39-.48-1.43-.71-2.07-.82-1.86.68-1.68,17.28,1.27,17.72,3.61.54,2.18-15.23.8-16.9ZM336.1,788.71c-1.82-1.79-14.99,10.55-11.82,15.11l2.02-.4,9.8-14.71ZM305.46,795.68c-1.1-1.49-5.54-8.21-6.82-4.69,4.05,4.13,5.38,10.13,8.38,14.6,1.33,1.99,2.7.74,2.65-1.24-.1-4.16-2.1-5.82-4.21-8.67Z" fill="#fff"/>
  <path d="M479.03,423.65c10.42,41.57,16.12,91.32,18.79,134.68.75,12.21,2.38,28.93,1.83,40.74-.07,1.62-.55,3.34-.82,4.95-31.14,12.15-66.66,14.95-99.98,13.82-25.05-.85-53.79-4.36-76.37-15.34-1.41-1.83-.98-15.27-.88-18.57,1.16-38.38,6.36-79.84,11.95-117.54,2.11-14.22,4.58-28.97,7.73-42.35,1.51-6.4,2.56-12.94,4.7-19.17,22.47,8.55,48.04,9.52,71.99,8.55,18.62-.76,37.67-3.47,55.15-9.87,1.72.43,5.21,17.37,5.9,20.1ZM374.23,426.54c-1.51-2.59-2.61,7.5-2.65,8.19-1.7,28.81,15.51,91.03,37.55,111.07.86.79,5.72,4.37,6.52,3.64-2-4.99-6.96-8.24-10.14-12.53-18.21-24.59-27.02-62.48-30.6-91.78-.33-2.72-.03-17.47-.69-18.59Z" fill="#fff"/>
  <path d="M491.02,304.5c12.56,18.14,23.06,41.55,35.09,60.74,6.55,10.45,12.37,20.65,20.3,30.18.06,1.61-11.22,7.4-13.28,8.88-10.65,7.66-21.11,20.43-23.47,33.4-.61.86-7.44-7.21-8.08-8.06-20.87-27.9-33.79-65.35-44.29-98.26-.76-1.61-3.31-2.14-3.52.16,5.14,17.79,11.39,35.67,18.97,52.72.04,2.57-8.02,4.21-10.12,4.76-24.39,6.3-67.53,6.65-92.64,3.32-4.03-.53-17.81-3.04-20.7-4.94-6.96-4.58-5.63-33.26-5.31-41.41.49-12.39,3.09-24.74,2.65-37.11-2.67,4.14-3.35,11.67-3.92,16.77-1.13,10.03-1.51,20.67-2.69,30.18-1.04,8.42,1.52,7.57-4.58,15.13-19.21,23.81-50.79,19.39-76.24,9.54.35-1.87,2.11-2.36,3.16-4.39,7.09-13.67,8.19-37.97,4.73-52.78l42.07,11.82c-.49-5.04,4.78-11.28,7.67-15.59,7.42-11.07,20.9-29.3,31.48-36.97,3.53-2.56,7.16-3.98,10.67-6.48l1.65-.03c2.76,3.97,12.86,6.4,15.42,8.64,2.23,1.94,3.19,7.3,8.26,10.48,19.37,12.12,47.64-2.34,56.35-21.53,20.9,1.67,38.65,13.87,50.39,30.82Z" fill="#fff"/>
  <path d="M257.07,653.42c.48.92.86,1.88,1.75,2.52,23.96,17.46,61.28,29.84,69.22,61.6.19.78,1.56,6.7,1.56,7.07,0,1.4-3.13,11.77-4.11,13.72-14.59,29.02-89.71,28.3-117.18,25.3-8.56-.94-49.27-8.1-54.04-13.01-4.63-4.76.64-19.71,3.67-25.02,15.06,9.46,34.31,16.48,52.27,17.07,2.79.09,10.14-1.34,4.57-2.6-13.19-2.99-23.99-2.39-37.58-7.78-21.33-8.47-36.15-24.36-32.47-47.28,1.59-9.91,3.27-19.76,7.93-28.77,2.41.98,4.6,2.55,7.06,3.48,15.72,5.95,20.67,12.74,38.65,6.73,2.48-.83,6.4-3.45,8.02-3.81,7.04-1.57,18.61-.61,27.28-2.31,8.12-1.59,15.41-5.08,23.41-6.91ZM278.24,714.43c.34-3.75-3.25-5.74-5.6-7.87-15.9-14.39-40.55-22.3-61.45-25.65l.39,2.03c24.43,5.74,47.49,15.07,66.67,31.48Z" fill="#fff"/>
  <path d="M341.36,174.79c.22,2.71,1.84,2.14,2,5.56.53,11.81-2.12,26.52-2.03,38.77.13,19.28,2.15,39.38,15.85,53.94-.01,1-9.19,5.85-10.38,6.1-8.64,1.84-20.87-6.7-20.52-15.88.13-3.52,2.52-6.03,3.25-9.15-8.09-7.07-12.47-10.69-11.11-22.42,1.89-16.33,13.36-15.9,11.07-38.05-3.82-37,27.33-66.74,64.8-68.82,51.32-2.85,89.21,29.09,84.53,82.28,3.08,8.54,13.27,18.45,13.67,27.24.48,10.56-8.03,15.55-8.44,21.68-.52,7.66,10.58,13.95.65,25.57-6.67,7.81-9.88.53-16.54-3.22-9.57-5.39-21.36-7.93-32.13-9.63l9.14-14.99c2.92-4.13,2.55-13.7,4.34-17.21.77-1.5,6.31-3.32,8.23-4.92,3.28-2.75,2.91-4.59,4.56-7.76.33-.64,1.78-.83,1.97-1.49.65-2.35-7.84-5.7-9.78-7.24-8.02-6.38-13.4-20.69-12.45-30.75l5.82-1.74c.12-.71,0-1.26-.65-1.64-.72-.42-13.56-1.19-16.58-1.83-10.92-2.31-25.12-10.05-32.49-18.45-1.44-1.64-6.02-9.63-7.13-9.65-5.11,4.76-8.64,10.29-14.46,14.51-5.11,3.7-16.78,9.19-23.03,9.19h-12.16Z" fill="#fff"/>
  <path d="M571.05,194.95c4.75,19.85-6.15,59.96-26.94,70.48-2.31,1.17-7.64.66-5.82,4.68,8.21.1,13.66-6.14,19.37-10.88,15.08,17.42-.47,44.23-18.82,52.19-2.4,1.04-12.19,3.22-12.73,4.37-.82,1.72,4.71.9,5.41.81,5.06-.65,8.98-2.82,13.64-4.43,4.33,17.41-8.97,32.9-24.92,37.42-11.29-20.95-22.04-43.36-38.84-60.76v-.97c8.85-4.04,12.14-12.96,10.22-22.43-.47-2.32-4.36-5.48-4.35-8.8,0-3.04,5.27-7.16,6.72-11.06,1.94-5.18,2.47-10.99,1.02-16.37-.76-2.8-3.76-5.56-2.99-8.56.32-1.23,8.45-10.95,9.98-12.74,15.16-17.81,59.02-54.82,69.04-12.94Z" fill="#fff"/>
  <path d="M141.05,273.81c.66.42,1.09.85,1.98.73,4.84-2.77,8.75-4.66,14.38-2.93,6.6,2.03,5.27,6.61,6.39,7.41.61.43,4.03.35,5.68.89,5.73,1.89,7.56,7.99,6.81,13.47-.23,1.67-1.9,3.25-1.79,4.55.1,1.12,1.91,2.71,2.35,4.18,1.36,4.48,2.2,7.45.13,12.02-1.5.3-1.05-.13-1.46-.84-.74-1.24-5.81-15.68-5.75-16.55.05-.81.84-1.44,1.22-2.12.29-.55-.58-1.42-.93-1.52-1.33-.36-8.55,4.43-12.44,4.63-5.91.3-7.58-2.59-12.36-3.87-3.91,2.54-4.2,6.56-9.54,8.25-8.12,2.56-10.89-1.87-13.51-1.65-2.32.19-5.38,8.14-14.54,8.44-4.59.15-11.66-3.91-10.27,2.96.25,1.22,1.27.95,1.34,1.42,1.15,7.82-6.05,14.61-5.97,17.62.03,1.32,1.61,1.15,2.2,2.45,3.31,7.27-1.27,9.87-.8,14.57.08.81,7.44,12.7,8.38,14.03,6.88,9.71,10.47,8.34,19.87,13.01,1.36.68.96,3.6,3.96,1.95.72-.39,4.03-4.9,5.61-6.22,11.54-9.69,13.76-6.86,26.49-10.33,3.3-.9,6.98-4.66,8.98-4.87,4.33-.47,10.89,3.37,15.06,4.6l2.21-5.03,1.46-.83c1.5,6.35,4.31,12.5,3.14,19.23-.39,2.23-2.1,4.09-2.43,6.12-.99,6.07,1.75,9.61-2.99,15.42-1.55,1.9-4.88,3.32-5.63,4.4-2.01,2.88-1.24,6.25-5.57,9.38-2.74,1.98-5.16,1.69-7.5,3.02-4.28,2.42-4.19,6.89-11.6,6.86-5.13-.02-10.13-5.25-11.79-5.25-2.59,0-5.37,3.2-11.53,1.64-5.3-1.34-6.59-6.78-8.92-8.17-1.61-.95-5.65-1.05-8.39-2.12-11.55-4.52-18.43-20.89-21.14-32.1-1.44-5.97-2.03-17.85-4.13-22.77-.5-1.18-2.4-2.16-3.53-2.45-24.89-6.35-17.84,37.55,5.37,29.13l7.88,18.74c-1.81,1.34-4.59,2.56-6.83,2.29-2.86-.35-5.05-3.86-5.47-3.96-1.28-.32-2.89.72-4.28.51-9.16-1.4-11.48-6.64-8.33-15.17-5.38-2.49-10.34-7.78-10.61-13.89-.09-2.12,1.02-5.88.61-7.12-.75-2.26-7.03-3.46-7.17-11.33-.08-4.99,4.43-9.91,4.38-10.48-.08-1-2.22-3.85-2.69-5.61-1.79-6.67-.84-14.87,4.54-19.73,1.51-1.36,4.67-1.89,5.3-3.25.91-1.97.27-5.92,1.82-9.35,3.68-8.11,13.26-10.55,21.42-9.8.72-8.95,8.96-14.03,17.48-13.72,2.25.08,7.3,2.3,8.47,1.91s3.03-6.22,9.96-7.18c9.16-1.27,8.93.47,15.03,4.39ZM170.42,371.33c-3.49-1.1-5.86,2.31-9.21,3.6-5.38,2.07-8.72,1.95-14.08-.29-3.76,5.18,8.53,4.77,11.5,4.28,1.99-.33,13.63-4.54,11.79-7.59Z" fill="#fff"/>
  <path d="M391.31,156.39c9.49,15.94,29,25.79,47.35,26.94-.81,11.66,2.94,24.74,11.47,32.9,4.26,4.08,12.08,4.19,6.95,11.31-.67.93-5.89,4.6-6.88,4.48-.47-.06-1.29-3.73-3.31-1.34-1.44,3.61-.75,7.61-1.73,11.28-8.85,33.13-44.85,54.09-76.54,35.38-33-19.48-22.99-67.46-22.01-99.27,11.37.15,23.72-3.37,32.82-10.24,1.7-1.28,11.17-11.86,11.88-11.44ZM362.88,183.49c-2.59.45-9.09,4.21-6.06,7.07,4.61-2.16,4.57-4.24,10.44-3.89,1.22.07,5.21,2.44,5.65.27.7-3.48-7.93-3.8-10.03-3.44ZM422.35,191.06c4.4,1.53,2.86-5.64-3.9-6.91-2.94-.55-16.34-.95-11.59,4.39,4.93-1.18,7.29-2.84,12.3-.51,1.39.65,2.98,2.95,3.19,3.02ZM364.88,199.22c-7.56.8-6.78,15.17.5,14.93s7.82-15.81-.5-14.93ZM409.28,212.05c4.78,6.22,10.99.38,9.61-7.32-1.82-10.19-15.72-.63-9.61,7.32ZM387.22,202.54c-.17-.33-2.99-2.16-3.46-.81-.66,8.74-7.7,14.77-7.18,23.71-5.08.81-11.08,2.06-15.47,4.91-3.02,1.96-14.64,13.81-6.58,14.49,1.69-9.01,15.4-16.99,23.9-15.96,3.24.39,5.85,5.15,10.95,3.44,6.61-2.21-3.44-3.2-4.85-3.75-1.88-.74-4.04-2.79-4.35-4.88-.8-5.49,8.6-18.21,7.04-21.16ZM404.8,224.74c-3.23-.33-6.9.24-10.19,0l1.08,3.19c9.62-.28,19.63,1.38,27.2,7.64,2.1,1.74,7.27,9.11,8.3,9.4,5.27,1.46-1.37-6.89-2.43-8.07-5.62-6.28-15.56-11.3-23.97-12.16ZM404.47,239.86c-6.94.89-12.78,3.3-19.98,2.56-2.15-.22-9.88-3.8-10.25-.28-.12,1.16,5.06,7.33,6.34,8.15,8.07,5.16,24.59.85,23.9-10.42Z" fill="#fff"/>
  <path d="M260.26,430.71c4.28,5.19,6.95,13.45,6.8,20.14l-13.6-11.71c-5.52-3.63-13.25-4.71-18.88-7.42-2.27-1.09-2.32-3.14-4.66-3.22-4.88,24.03-20.95,41.6-41.75,53.58,1.13,2.94,5.58-.61,7.24-.72,3.36,1.81-1.36,12.79-3.29,15.18-3.15,3.88-11.65,7.47-12.45,12.53-1.64,10.35,6.35,14.71,15.41,15.39,2.61,3.26,1.57,15.88-1.43,17.81-1.76,1.13-11.92,2.76-15.33,4.22-26.09,11.18-35.02,40.77-38.13,66.39-.2,1.68.66,7.15-1.01,7.55-11.57-5.04-15.36-16.61-11.96-28.4.59-2.03,3.67-7.48,3.6-8.63-.11-1.78-4-6.01-4.81-8.95-5.31-19.21,17.01-31.04,23.7-46.05,3.45-7.72,4.03-15.18,3.71-23.57,4.38-1.07,15.39-7.39,16.3-11.64.3-1.4-.29-3.2.04-4.41.15-.54,2.76-1.74,3.16-3.63s-.66-3.07-.41-4.28c.23-1.1,2.32-1.95,2.3-4.62s-1.92-3.58-2.26-4.86c-.53-1.97.31-4.03-.49-6.08-1.44-3.69-10.62-4.95-14.12-4.62,8.02-40.39,74.99-63.15,102.33-30Z" fill="#fff"/>
  <path d="M590.54,569.17c-29.58-4.29-59.44-7.7-89.41-7.9l-6.6-68.68c4.55-8.06,10.23,5.61,12.47,4.25,3.1-9.85,9.2-18.15,20.69-16.34,3.45.54,8.27,4.69,9.54,7.7,1.78,4.21.3,8.4,3.01,11.29.99,0,3.46-7.92,9.84-7.9,5.77.02,3.34,9.42,5.93,8.57.69-.23,7.05-9.82,8.9-11.49,6.45-5.81,18.24-9.17,25.63-3.3v83.81Z" fill="#fff"/>
  <path d="M318.09,222.52c-3.4,7.27-6.27,15.68-1.61,23.5,1.02,1.7,8.07,7.87,8.34,8.76.54,1.79-1.3,6.29-1.27,9.07.17,13.36,8.61,14.62,18.15,18.71.74.32,1.24-.47.96,1.32-1.31.14-2.36.74-3.3,1.64-13.25,12.64-23.2,31.08-34.34,45.53-1.11.34-13.49-3.19-14.11-3.96-1.15-1.41-3.03-12.64-2.15-13.62,1.49.13,12.5,4.5,12.47,1.64-3.2-2.61-7.11-3.05-10.7-5.06-14.22-7.96-21.87-24.3-15.24-39.96,3.45,3,15.21,12.27,19.66,9.24l.37-1.34c-4.53-2.46-10.84-4.61-14.78-7.91-11.23-9.37-19.15-37-21.33-50.44-3.75-23.13,10.52-46.84,36.01-33.25,11.06,5.9,18.62,17.31,27.42,25.88.42,1.13-3.73,8.47-4.56,10.25Z" fill="#fff"/>
  <path d="M242.74,543.53c-1.65,3.72,1.68,11.07-1.13,13-1.83,1.25-11.17,3.3-13.64,3.45-12.01.7-23.71-6.76-31.8-14.9,3.67-6.86,4.21-14.51,1.88-21.87,2.38-.89,5.39-1.61,4.58-4.65-.99-.99-12.36,6.33-18.41-2.3s4.51-11.12,9.23-16.41c5.24-5.87,6.42-13.78,5.55-21.37l11.86-9.21,2.27,2.6c2.89-6.26,7.25-10.12,14.48-10.5-.21-3.37-4.34-1.67-6.42-1.47-.87.09-1.82.67-1.46-.81s5.22-6.81,6.09-8.41c2.66-4.88,4.24-10.17,5.41-15.59.29-.58.69-.63,1.28-.66.9-.06,15.2,5.25,16.95,6.1,3.26,1.6,5.88,4.05,9.05,5.75l-.32,1.3c-3.97-.29-11.23-.03-10.84,5.25,6.2-1.93,10.16-4.46,16.47-.17,9,16.99,17.63,34.36,15.66,54.32-2.9,29.3-30.62,38.53-56.31,30.83-2.05-.61-6.36-4.11-7.71-2.16-2.19,3.17,14.9,7.89,17.1,7.89h10.19ZM258.05,471.7c.98,1.08,5.41,3.14,6.76,1.55,4.65-3.81.83-13.09-5.16-11.74-4.15.93-3.86,7.72-1.6,10.19ZM254.57,492.26c6.14.06,11.11-2.43,9.71-9.37-1.23-6.08-6.12-4.82-9.65-6.78-.96-.53-8.67-9.97-6.6-2.08,1.5,5.74,25.7,9.44,6.94,16.2l-.39,2.03ZM224.14,473.33c-4.07,2.85-3.26,9.56,1.05,11.83,10.45,5.5,9.78-14.53-1.05-11.83ZM261.66,503.6c-2.61.27-5.74,1.91-8.81,2.38-2.75.41-9.94-.93-11.11,1.41-3.33,6.62,15.22,13.89,22.17,2.42,1.13-1.86,3.42-5.75.18-6.39-.83-.14-1.62.1-2.43.19Z" fill="#fff"/>
  <path d="M120.7,411.81c5.27,3.81,7.32,8.12,15.12,7.42,1.87-.17,4.85-1.83,5.87-1.74,2.99.27,5.94,4.71,12.52,4.37,7.5-.38,7.82-3.81,12.08-6.54,2.41-1.54,5.94-1.54,8.95-4.02,2.53-2.08,5.55-6.8,6.74-9.8,2.53-.6,15.92,10.84,16.04,14.49-.32.49-7.63,2.75-8.81,3.37-17.78,9.31-29.38,22.41-36.21,41.36-7.39,1.86-13.79,3.93-20.28,7.99-2.17,1.36-4.8,4.82-6.46,5.38-3.51,1.17-15.73,2.62-19.97,3.04-3.7.36-7.75.21-11.49.66,1.35-4.5,1.57-9.41,2.7-13.93,1.39-5.58,4.36-11.79,5.01-18.13.05-.45.93-5.64-.79-4.74-2.55,1.34-9.5,31.88-10.3,36.7-14.91,1.49-30.18,2.39-44.98-.51-.95-1.31.38-6.75.69-8.61,4.04-24.61,22.45-59.94,47.87-68.48,7.89-2.65,7.09,1.97,13,5.68,4.45,2.8,8.5,3,12.7,6.03Z" fill="#fff"/>
  <path d="M4.08,452.5c.43-4.21,5.07-13.2,9.57-14.09,10.12-2.02,19.8,6.72,21.34,16.4l2.31-.64c-.69-7.74,5.27-12.5,12.23-8.26,1.01,1.35-8.87,26.99-5.91,32.81.77,1.51,3.03,2.23,3.21,2.86.66,2.26-.32,8.03,0,11.01.96,8.71,4.02,15.75,11.21,21,5.09,3.72,10.09,3.7,15.67,6.01l-7.78,42.06-61.84,4.23v-113.38Z" fill="#fff"/>
  <path d="M245.37,548.79c3.13-.22,6.2.2,9.22.98,21.62,5.58,33.74,37.43,40.75,56.21-3.44-1.16-14.52,2.52-16.78,1.38-5.69-2.88-1.33-9-.99-14.21.37-5.76-.5-11.62-3.91-16.44-1.27-1.8-4.54-3.93-4.94-4.92-1.21-3.06.79-8.99-5.34-9.84-1.95-.27-7.79-.72-9.82-.7-20.58.16-24.56,23.63-28.11,39.29l-28.74,16.61c-.57-7.54-1.52-15.11-2-22.65-.29-4.58,1.57-11.64-1.94-14.81l1.04,38.82c-16.91,2.27-35.7,6.37-45.43,21.64-3.19-2.82-2.95-7.5-3.66-11.33-2.05-11.15-.32-22.33,2.31-34.04,5.23-23.34,19.71-44.27,44.71-48.58,9,6.12,17.39,15.62,29.04,16.98,9.05,1.06,29.89-.68,24.58-14.38Z" fill="#fff"/>
  <path d="M503.75,68.63c.66-4.39,5.14-11.49,8.53-14.48,16.62-14.67,43.34-8.84,49.34,12.83,3.17.56,2.47-2.93,3.8-5.06,2.18-3.52,10.92-10.71,14.93-10.71h10.19v51.93h-115.38c-7.23,0-13.98-5.62-12.66-13.32,2.12-12.3,19.49-17.28,30.25-15.45,3.87.66,6.88,4.34,11.01,3.78.31-2.97-.43-6.67,0-9.53Z" fill="#fff"/>
  <path d="M147.4,523.81c-6.66,19.23-28.78,26.9-24.69,50.65.6,3.47,4.21,7.7,4.33,8.86s-3.4,8.86-3.78,11.99c-1.03,8.61.8,15.5,5.73,22.48-19.91,1.57-41.37,1.1-59.84-6.89-2.35-2.94.4-52.99,1.34-60.46,1.35-10.8,4.13-21.15,7.23-31.23,22.14,8.07,46.6,9.14,69.68,4.6Z" fill="#fff"/>
  <path d="M266.41,584.61c-1.03,8.36-6.43,22.37-11.85,28.9-2.44,2.94-5.69,4.17-7.57,6.24-14.35,15.75-27.39,34.56-48.16,43.21-22.26,9.27-36.69-6.25-44.07-25.71,9.04-8.4,20.57-12.89,32.76-14.19-.53,1.69-6.03,4.06-6.42,4.74-1.31,2.24.16,2.99,2.45,2.13,4.67-1.77,38.64-22.5,42.44-25.93,4.74-4.28,4.96-15,7.38-21.54,1.97-5.34,7.12-15.18,13.33-15.59-3.96,5.97-8.09,12.13-9.2,19.39,1.12.14,1.47.1,2.29-.67,1.38-1.28,4.21-9.68,5.99-12.42.63-.98,6.51-7.96,7-8.17.68-.28,5.18-1.25,4.44.54l-9.38,13.01c-.78,1.13-4.57,10.32-2.12,10.32,4.79-4.04,10.64-26.13,18.96-22.9,4.11,1.59-5.67,10.63-7.13,13.05-1.35,2.24-5.3,9.56-3.95,11.85l1.65.64c2.11-5.97,5.54-13.84,11.19-17.09-.28,3.24.39,7.03,0,10.19Z" fill="#fff"/>
  <path d="M167.38,302.72c4.19,6.29,15.44,40.01,15.45,47.32,0,1.93-.97,3.65-1.24,5.51l-13.14-2.64c3.64-12.25-6.68-14.68-14.15-19.71-1.14-.77-1.57-2.51-2.31-2.95-2.65-1.59-3.37.48-2.27,2.93,2.81,6.27,17.97,5.25,15.15,17.15-1.74,7.33-9.91,6.06-14.99,7.36-10.56,2.68-17.71,6.97-25.24,14.78-8.12-2.69-14.9-5.51-19.84-12.78-2.57-3.78-3.99-9.65-7.35-12.04l.03-1.26c3.47-2.53,2.67-9.92,1.62-13.89-.39-1.48-1.93-.86-1.73-2.9.04-.42,3.13-4.16,3.7-6.23,1.02-3.67,1.11-7.42.96-11.2,5.11.2,9.37.29,14.02-2.09,1.99-1.01,5.38-4.73,6.85-5,3.12-.56,7.18,2.16,13.46.33,3.95-1.15,9.51-6.8,10.11-6.95,1.2-.31,14.69,5.52,18.93.61,1.25.32,1.33,2.7,1.96,3.65ZM166.47,310.19c.37-7.62-16.5-2.31-15.77.98.62,2.81,7.27-1.39,8.93-1.59,2.51-.31,4.44.54,6.84.61ZM109.3,324.62l3.26.41c2.99-8.23,8.56-5.08,14.13-6.3,3.45-.76,1.12-2.97-1.92-3.32-6.46-.73-14.15,2.28-15.47,9.21ZM168.94,333.03c4.27-3.66-1.32-14.5-7.33-10.94-5.53,4.74,1.66,15.79,7.33,10.94ZM128.81,332.08c-1.69-1.29-4.51-1.1-6.23-.04-1.94,4.52-1.08,10.72,4.16,12.33,6.37.02,5.52-9.64,2.07-12.29Z" fill="#fff"/>
  <path d="M4.08,214.55c10.45-7.08,23.03-3.88,30.58,5.54,2.67-6.76,2.86-12.4,8.85-17.39,14.44-12.03,40.67-4,39.47,16.78,8.51-2.31,12.52-5.28,21.67-2.28,16.24,5.33,15.88,23.11-2.36,26.52-4.68.88-8.49-.08-12.45.06-28.63,1.01-57.15-.26-85.76.67v-29.91Z" fill="#fff"/>
  <path d="M169.76,468.6h-10.85c-1.15,0-16.87,3.69-14.13,5.91,5.13.26,9.76-2.29,14.81-2.61,3.95-.25,12.9-.82,11.22,5.28-3.14.69-24.81,2.09-24.69,5.54.04,1.08,2.09.93,2.84.92,3.36,0,19.63-4.55,20.76-1.49.13.89.01,1.93-.38,2.73-1.09,2.23-16.64,4.07-19.77,5.91-1.35.79-1.75,1.05-1.49,2.77,1.39,1.26,17.94-5.17,18.39-1.64-6.63,8.67-19.66,12.51-30.08,14.61-9.34,1.88-16.44,3.73-25.65,5.9-13.3,3.14-37.13,6.56-49.25-.32-5.31-3.01-12.02-13.47-12.02-19.53v-10.85c8.89.2,17.73.89,26.65.68,12.43-.29,39.44-1.33,50.47-5.41,9.74-3.61,13.36-11.75,27.76-13,4.15-.36,15.07-.96,15.43,4.58Z" fill="#fff"/>
  <path d="M319.67,569.17l-37.03.55c-3.34-3.95-5.96-8.47-9.3-12.41-.84-.99-2.95-1.75-3.35-2.62-.27-.58,1.15-10.24,1.04-12.83-.09-2.2-1.79-6.96-1.39-8.42.24-.85,1.89-.58,2.49-1.29,5.17-6,10.49-17,11.42-24.42.67-5.32-2.96-13.88,4.24-14.22,8.78-.41,10.52,10.69,13.14,10.6,2.26-1.38,2.37-4.09,4.34-6.21,5.53-5.94,16.36-6.16,19.48,2.07,2.14,5.65-1.83,24.18-2.44,31.39-1.07,12.57-1.65,25.22-2.64,37.79Z" fill="#fff"/>
  <path d="M130.31,667.76c-3.61-.09-23.47,8.07-24.23,10.29-.41,1.19-.16,2.12.89,2.85,6.46-6.71,17.28-5.81,16.8,4.86-11.88,3.89-42.01-2.72-49.63-12.77-2.63-3.47-.24-12.09,1.65-15.37l1.93-39.8c12.01,3.29,24.43,3.94,36.85,4.25l-1.23,33.41c.52,2.43,18.65,10.37,16.96,12.28Z" fill="#fff"/>
  <path d="M476.8,615.17c.31,4.58.1,10.25.74,14.71.76,5.34,3.93,9.85,3.14,15.17-.91,6.12-17.82,15.35-23.63,17.1-2.48.75-10.34,3.25-11.16.02-1.68-6.65,6.93-8.8,7.23-10.52.82-4.72-9.41,3.84-10.15,4.97-1.64,2.53-.54,4.51-.37,7.19-13.03.98-6.24-11.03,0-15.45-8.17-.31-12.38,7.85-11.49,15.44-6.55-1.18-7.48-3.59-5.07-9.64.47-1.18,5.91-7.64,3.07-7.45-3.89.26-8.44,10.84-6.9,14.47-8.53-1.45-6.21-8.45-1.96-13.46,3.69-4.36,19.98-15.42,21.37-18.77.83-2-1.19-6.01-.26-8.44l35.42-5.34Z" fill="#fff"/>
  <path d="M271,578.38c7.73,6.99-.44,21.57,1.69,27.56.47,1.31,17.14,16.9,18.38,17.12.86.15,1.74-.75,1.62-1.62l-11.17-11.52,14.69-1.24c5.59,12.02,10.29,39.87-7.29,44.45-16.96,4.42-33.14-17.58-36.85-31.84,11.67-11.55,16.28-26.37,17.62-42.59l1.3-.31Z" fill="#fff"/>
  <path d="M353.85,645.4c-.47-4.5-7.25.23-8.9,1.95-2.67,2.78-3.75,6.08-3.2,9.91l-1.4.66c-7.67.49-6.33-5.2-3.36-9.98,1.59-2.55,4-3.3,5.02-5.82-6.15-.01-10.48,8.23-9.86,13.8-12.4-2.02-.73-8.53.65-14.46-3.44,1.6-5.07,3.41-7.07,6.4-1.59,2.37-.56-2.17.82-3.8,1.12-1.33,5.96-4.97,7.64-6.17,4.06-2.9,17.42-9.31,19.7-11.86,2.11-2.36.89-6.56,1.95-9.56l35.2,5.23c-.57,5.2,3.07,19.98.61,23.68-3.85,5.81-38.71,14.78-45.35,13.16-6.61-1.61,3.41-13.41,7.56-13.15Z" fill="#fff"/>
  <path d="M231.56,337.14c.17-1.26-1.08-2.34-2.03-2.89-2.92-1.72-21.4-6.15-20.25-11.1,1.28-5.54,20.02,2.89,23.91,2.83l.68-1.32c-.87-2.45-14.24-4.55-17.25-6.42-2.63-1.64-1.2-4.36,1.09-5.12,6.12-2.02,19.82,2.98,25.37,6.28,1.33,2.25-3.57,16.29,4.25,16.43.19-2.99-1.25-5.15-1.35-8.19-.09-2.86,1.6-6.91,1.24-8.41s-5.35-6.09-6.59-8.58c-1.83-3.68-3.64-9.78,2.91-8.18,3.64.89,17.5,15.59,19.39,19.41,2.79,5.65,4.68,19.98,2.52,25.82-2.91,7.87-26.22,4.03-32.44,2.12-5.71-1.76-26.35-10.84-23.74-18.81l1.44-1c6.77,2.7,13.24,7.09,20.84,7.13Z" fill="#fff"/>
  <path d="M543.85,425.22c.77,7.53,10.48-1.39,11.85-1.07,5.13,2.96,13.98,13.71,13.58,19.71-.84,12.68-15.44-12.95-17.53-10.75-.71,5.65,10.68,13.6,11.57,17.07.91,3.58-3.68,4.84-6.68,3.34-1.17-.58-7.92-8.6-9.39-10.32s-2.13-5.36-4.7-4.82c-2.59,4.76,17.43,20.6,4.94,19.76-5.53-.37-19.86-15.48-23.25-20.19-2.18-3.03-5.88-9.13-5.26-12.89.82-4.92,18.59-21.13,23.39-22.06,2.88-.56,25.2,9.75,26.16,11.72,3.68,7.59-12.93,3.05-13.73,3.33-.94.34-5.37,9.72-10.94,7.18Z" fill="#fff"/>
  <path d="M473.5,389.07c.18,7.36,2.47,9.6-5.27,12.79-23.7,9.77-83.13,10.4-107.96,4.12-8.08-2.05-16.49-3.67-13.98-14.28,1.28-2.64,6.86.61,9.39,1.12,37.59,7.63,80.88,6.31,117.82-3.75Z" fill="#fff"/>
  <path d="M140.06,624.5c1.2,2.01.59,11.7,2.83,15.25,1.75,2.79,8.75,4.4,9.16,6.67l-9.24,27.26c-.9.17-.84.12-1.37-.41-1.92-1.91-3.3-5.11-6.18-7.47-4.75-3.9-13.28-6.86-17.38-10.24-1.39-1.14-1.74-1.3-2.05-3.21-.41-2.49,1.44-28.74,2.29-29.98,4.15-.35,10.6-1.9,14.54-1.3.77.12,7.2,3.08,7.41,3.43Z" fill="#fff"/>
  <path d="M149.29,744.57c-1.1,1.85-38.77,1.93-37.92-8.62.93-8.75,29.44-17.01,36.39-21.44l7.32,9.44c-4.02,6.08-5.78,13.38-5.79,20.62Z" fill="#fff"/>
  <path d="M249.93,624.42c-.29,5.18,8.7,14.86,9.25,18.07,1.4,8.09-15.89,12.38-21.68,13.79-8.17,1.98-16.55,3.43-25,2.93l24.74-21.93c2.5-1.69,10-14.92,12.69-12.87Z" fill="#fff"/>
  <path d="M150.03,506.73c.06,2.39.2,13.36-1.81,14.45-19.84,3.24-40.38,3.27-59.98-1.31-1.15-.86.09-1.16.97-1.31,7.15-1.15,14.24-1.33,21.38-2.96,5.77-1.32,13.55-5.26,18.24-6.08,6.51-1.14,14.47.28,21.2-2.79Z" fill="#fff"/>
  <path d="M432.35,279.55c-11.21,13.44-32.46,23.6-48.2,11.19-.67-.53-5.54-4.94-2.47-4.77,13,3.26,29.88.04,41.42-6.79,4.71-2.79,9.35-10.56,14.24-6.13-1.23,2.57-3.22,4.39-4.98,6.5Z" fill="#fff"/>
  <path d="M86.49,365.86c.03.16.96.21,1.05.68.42,2.11.35,5.14.67,7.39-16.31,5.08-24.97-26.03-4.54-22.7.81.59,2.39,12.49,2.82,14.63Z" fill="#fff"/>
  <path d="M265.09,352.92c-.71,8.85-2.68,17.33-7.83,24.56-2.15,1.77-3.22-1.96-3.84-3.37-2.48-5.58-2.29-11.88-2.06-17.84l13.72-3.36Z" fill="#fff"/>
  <path d="M267.72,552.07l-21.69-8.53c7-1.05,14.51-2.43,20.05-7.23,3.2,4.77,2.11,10.5,1.64,15.76Z" fill="#fff"/>
  <path d="M124.25,672.47c3.89-.14,12.07,12.4,3.1,13.01-1.88-5.41-2.1-8.72-8.19-10.81,0-.54,4.42-2.17,5.09-2.2Z" fill="#fff"/>
  <path d="M134.92,681.56c.21-5.16-5.3-6.8-5.93-11.17,7.38-4.39,15.43,9.28,5.93,11.17Z" fill="#fff"/>
  <path d="M156.4,648.92c1.69,1.57,3.78,6.3,5.48,8.31-4.93-.88-9.29-3.48-7.22-9.19.08-.09,1.5.65,1.75.88Z" fill="#fff"/>
  <path d="M515.39,438.16c-.96.67-1.91.98-3.09.86-.33-3.67,2.65-6.15,4.27-9.18,2.75,2.42,1.33,6.55-1.18,8.32Z" fill="#fff"/>
  <path d="M143.72,61.48c3.31,5.06,4.45,9.24,5.01,15.37,14.03-9.13,34.58-5.24,34.81,14.19,12.21-2.14,26.83,1.41,29.32,15.36,2.7,15.15-10.12,18.91-22.36,19.77-49.8,3.52-103.67-2.71-153.9,0-19.81-3.23-14.84-20.75,2.06-23.66-3.53-21.03,20.52-36.19,38.39-23.7,3.06-31.8,48.42-45.17,66.67-17.34ZM143.75,71.98c-9.99-32.55-54.09-26.14-62.11,1.24-.8,2.74-1.23,10.53-2.61,11.23-1.55.78-6.08-3.26-8.31-4.22-13.57-5.83-27.85,2.37-28.56,17.34-.13,2.72,1.55,5.47.4,8.26-6.02-1.39-20.69,7.66-13.68,13.78,3.79,3.31,15.59,3.1,20.87,3.28,41.59,1.45,87.92,1.18,129.58,0,6.64-.19,17.47.16,23.3-2.34,7.65-3.28,8.38-9.61,5.59-16.74-4.66-11.93-18.2-10.7-28.59-8.56,4.33-16.62-13.46-24.48-26.98-16.78-2.49,1.42-3.57,3.97-6.2,4.29-1.34-.4-1.18-7.84-1.73-9.99-.14-.53-.91-.64-.96-.8Z"/>
  <path d="M360.43,111.68c-2.72-2.67,10.25-11.44,12.22-12.42,23.3-11.58,58.29-4.82,76.52,13.41-3.21,4-8.77-3.72-12.02-5.72-17.36-10.63-47.4-13.97-65.35-3.29-4.28,2.55-6.67,7.92-11.37,8.01Z"/>
  <path d="M541.88,723.96c0,.15-1.25.88-.32.99,1.37.45.91-1.04,1.61-1.64,6.86-5.87,15.55-11.27,25.05-9.91,2.65,9.96-10.5,21.83-19.12,24.35-18.98,5.56-38.13-9.74-39.36-28.51,12.12-2.32,22,7.03,28.18,16.36-.66-2.61,2.06-14.36,1.23-15.68-.53-.84-8.87-2.01-6.48-7.98-12.13,1.5-18.39-9.86-9.26-18.63-11.16-9.94-.01-19.81,11.83-14.93,4.5-11.37,20.2-9.97,18.46,4,5.89-.13,12.99,1.65,12.54,8.86-.25,3.95-4.32,6.12-4.54,7.34-.34,1.87,5.98,6.98-.18,12.97-4.01,3.9-10.14,1.48-11.14,2.03-.72.39-.82,2.15-1.48,2.78-2.45,2.31-7.02,2.98-7.02,6.45,0,3.72-.04,7.45,0,11.17ZM550.43,676.31c-.03-5.03,1.58-12.14-5.64-12.48-5.77-.26-5.89,8.57-7.27,9.12-3.05.8-4.25-2.22-7.12-2.6-3.27-.43-7.73.48-8.22,4.37-.94,7.47,8.98,5.81,8.53,8.47-.21,1.26-6.05,3.25-7.16,5.34-3.81,7.22,5.4,12.48,11.39,8.82l.99,7.41c6.67,5.47,12.31.3,9.9-7.42,1.44-1.57,6.8,6.38,12.67,2.01.16-.12,2.38-2.96,2.43-3.15,1.37-4.77-8.5-6.87-7.21-8.72,14.64-3,10.39-14.62-3.29-11.18ZM514.02,713.99c2.99,5.77,4.45,10.94,9.75,15.59,1.15,1.01,10.2,6.99,11.21,5.23-.08-12.43-9.73-22.18-22.03-22.35-.61,1.61.89,1.2,1.06,1.53ZM566.2,715.75c-11.07,1.75-23.92,7.66-24.97,20.37,11-1.18,22.21-9.35,24.97-20.37Z"/>
  <path d="M56.68,752.55c2.41-1.52,3.11-4.45,5.23-6.28,3.17-2.75,19.24-10.17,20.96-4.42-.11,15.04-20.73,26.47-34.11,24.2-11.9-2.02-20.92-14.2-20.25-25.9,6.08-2.05,13.63,1.68,18.32,5.48,1.21.98,5.43,6.85,6.56,5.59-.31-3.41,1.18-10.84-.33-13.79-.25-.48-2.17-1.38-2.97-2.29s-1.3-2.97-1.95-3.35c-.58-.34-6.47,1.08-9.81-.67-4.46-2.34-4.45-10.54-.73-13.75-11.79-5.46-6.52-18.66,5.32-18.36,1.01-13.48,14.79-14.06,17.06-1.03,6.71-5.08,20.11.69,16.49,9.62-.58,1.43-3.36,2.56-3.23,4.41.12,1.67,3.44,2.77,3.78,6.08.76,7.33-7.36,11.18-13.67,10.9-.04,3.62-1.32,5.91-4.25,7.93-.76.52-2.43.38-2.43.5v15.12ZM57.36,702.58c-.34-15.07-13.77-13.83-10.55,1.33-.38.46-6.75-3.71-11.18.98-5.88,6.22,3.08,9.19,7.9,10.55.91,2.88-9.69,6.09-4.61,11.83,3.63,4.1,7.71,1.3,11.49-.34,1.4.4.25,7.18,4.73,7.71,5.56.66,5.11-7.45,4.85-11.01,12.02,5.08,19.41-6.04,5.92-10.85-.38-1.66,11.44-5.15,5.54-11.45-5.11-5.46-12.51,2.25-14.06,1.25ZM51.42,763.07c-.11-11.36-8.47-18.65-19.07-20.71-1.41,10.61,9.24,19.51,19.07,20.71ZM79.69,742.7c-10.96,1.01-21.26,8.12-22.34,19.71,9.93-2.2,20.87-8.98,22.34-19.71Z"/>
  <path d="M318.17,787.58c1.38,1.67,2.81,17.44-.8,16.9-2.95-.44-3.14-17.04-1.27-17.72.64.11,1.68.34,2.07.82Z"/>
  <path d="M468.03,767.22c.87,1.55,3.95,8.9,1.15,9.63-2.41.63-4.61-8.83-6.3-11.36-1.59-2.37-4.28-3.91-5.81-6.35,1.83-.61,2.68-.31,4.27.65.89.54,6.18,6.55,6.68,7.44Z"/>
  <path d="M386.32,710.89c1.21,2.34,3.6,4.56,1.62,8.04h-2.44c-.38-.26-1.64-5.43-2.24-6.62-.85-1.67-6.51-9.04-4.08-9.71s6.2,6.46,7.15,8.3Z"/>
  <path d="M545.83,607.62c.28-2.18,2.01-8.32,5.27-6.57-1.21,3.37-.89,16.7-3.95,17.75-.73.25-1.32-.47-1.32-.66,0-3.21-.38-7.5,0-10.52Z"/>
  <path d="M539.93,620.43c-.38-.25-2.1-7.36-2.69-8.68-.37-.8-5-6.61-3.89-7.75,5.45-.92,11.06,13.96,8.58,16.14-.38.38-1.74.45-2,.28Z"/>
  <path d="M495.86,759.13c-3.33,5.91-8.12,9.85-10.84,16.41-6.39-3.94,8.82-18.37,10.84-16.41Z"/>
  <path d="M305.46,795.68c2.11,2.85,4.11,4.51,4.21,8.67.05,1.98-1.32,3.23-2.65,1.24-3-4.47-4.33-10.47-8.38-14.6,1.29-3.52,5.72,3.2,6.82,4.69Z"/>
  <path d="M564.24,603.35c-4.42,5.53-7.51,10.44-10.19,17.07-4.17-.05,3.66-20.36,10.19-17.07Z"/>
  <path d="M336.1,788.71l-9.8,14.71-2.02.4c-3.17-4.56,10-16.9,11.82-15.11Z"/>
  <path d="M93.92,780.4c1.86,1.5,9.64,11.39,7.47,13.56-4.04.65-4.49-4.27-6.3-7.17-.85-1.37-5.92-6.9-4.87-7.94,1.49-.17,2.63.69,3.7,1.55Z"/>
  <path d="M37.61,598.75l-5.58,17.73-1.67-1.09c-.87-2.78,2.12-17.11,7.26-16.64Z"/>
  <path d="M478.11,755.84c-1.56,4.89-1.1,12.41-2.5,16.88-.36,1.16-.44,2.42-2.09,2.18-1.47-1.27-.5-18.91,4.59-19.06Z"/>
  <path d="M121.76,776.88c.62.59-6.35,13.4-5.85,16.04l-2.03.4c-1.89-2.98,4.47-19.72,7.88-16.43Z"/>
  <path d="M106.65,793.3c-.42-1.81-3.64-19.04-.99-19.04.9.61,1.12,1.52,1.46,2.47.62,1.75,3.19,19.75-.47,16.57Z"/>
  <path d="M393.95,719.03c-5.9-.67-.18-17.1,2.31-17.07,1.06.74.93.99.85,2.13-.31,3.95-3.25,10.4-3.16,14.94Z"/>
  <path d="M28.64,614.98c.03.11,2.12.86,1.06,2.13-.14.17-2.92.89-3.25.68l-5.28-14.45c5.43.66,6.28,7.42,7.46,11.63Z"/>
  <path d="M409.07,705.23l-6.53,12.81c-1.24,2.57-2.84,1.74-2.64-1.24.28-4.42,4.71-10.53,9.17-11.57Z"/>
  <path d="M44.84,606.64l-5.85,10.12-2.03.4c-.89-4.84,2.83-10.38,7.89-10.51Z"/>
  <path d="M374.23,426.54c.65,1.12.35,15.87.69,18.59,3.57,29.31,12.38,67.19,30.6,91.78,3.18,4.29,8.14,7.54,10.14,12.53-.8.73-5.66-2.86-6.52-3.64-22.04-20.05-39.25-82.26-37.55-111.07.04-.69,1.14-10.77,2.65-8.19Z"/>
  <path d="M278.24,714.43c-19.18-16.41-42.24-25.74-66.67-31.48l-.39-2.03c20.91,3.36,45.56,11.26,61.45,25.65,2.35,2.13,5.94,4.12,5.6,7.87Z"/>
  <path d="M170.42,371.33c1.83,3.05-9.8,7.27-11.79,7.59-2.97.49-15.26.89-11.5-4.28,5.35,2.24,8.7,2.35,14.08.29,3.36-1.29,5.72-4.7,9.21-3.6Z"/>
  <path d="M404.47,239.86c.7,11.27-15.83,15.58-23.9,10.42-1.28-.82-6.46-6.99-6.34-8.15.37-3.51,8.1.06,10.25.28,7.2.75,13.04-1.66,19.98-2.56Z"/>
  <path d="M387.22,202.54c1.56,2.95-7.85,15.66-7.04,21.16.31,2.1,2.47,4.15,4.35,4.88,1.41.55,11.46,1.54,4.85,3.75-5.1,1.71-7.72-3.05-10.95-3.44-8.49-1.04-22.2,6.95-23.9,15.96-8.06-.68,3.56-12.53,6.58-14.49,4.38-2.85,10.39-4.1,15.47-4.91-.52-8.94,6.52-14.97,7.18-23.71.47-1.35,3.29.48,3.46.81Z"/>
  <path d="M404.8,224.74c8.4.85,18.35,5.88,23.97,12.16,1.06,1.18,7.7,9.53,2.43,8.07-1.03-.29-6.2-7.66-8.3-9.4-7.58-6.26-17.59-7.92-27.2-7.64l-1.08-3.19c3.29.24,6.96-.33,10.19,0Z"/>
  <path d="M364.88,199.22c8.32-.89,7.76,14.68.5,14.93s-8.05-14.12-.5-14.93Z"/>
  <path d="M409.28,212.05c-6.11-7.95,7.79-17.52,9.61-7.32,1.38,7.7-4.83,13.54-9.61,7.32Z"/>
  <path d="M422.35,191.06c-.21-.07-1.8-2.38-3.19-3.02-5.02-2.33-7.37-.67-12.3.51-4.75-5.34,8.65-4.94,11.59-4.39,6.77,1.27,8.3,8.44,3.9,6.91Z"/>
  <path d="M362.88,183.49c2.1-.36,10.73-.04,10.03,3.44-.44,2.17-4.43-.19-5.65-.27-5.87-.35-5.83,1.73-10.44,3.89-3.03-2.86,3.47-6.62,6.06-7.07Z"/>
  <path d="M261.66,503.6c.81-.08,1.6-.32,2.43-.19,3.24.64.95,4.53-.18,6.39-6.96,11.47-25.5,4.2-22.17-2.42,1.17-2.34,8.36-.99,11.11-1.41,3.08-.46,6.2-2.11,8.81-2.38Z"/>
  <path d="M224.14,473.33c10.83-2.71,11.5,17.33,1.05,11.83-4.31-2.27-5.12-8.98-1.05-11.83Z"/>
  <path d="M258.05,471.7c-2.25-2.47-2.54-9.26,1.6-10.19,5.99-1.35,9.81,7.94,5.16,11.74-1.36,1.59-5.78-.47-6.76-1.55Z"/>
  <path d="M254.57,492.26l.39-2.03c18.76-6.76-5.44-10.46-6.94-16.2-2.07-7.89,5.64,1.55,6.6,2.08,3.54,1.96,8.42.7,9.65,6.78,1.41,6.94-3.56,9.43-9.71,9.37Z"/>
  <path d="M168.94,333.03c-5.67,4.85-12.86-6.2-7.33-10.94,6-3.57,11.6,7.28,7.33,10.94Z"/>
  <path d="M128.81,332.08c3.46,2.64,4.3,12.31-2.07,12.29-5.24-1.6-6.1-7.81-4.16-12.33,1.72-1.06,4.54-1.25,6.23.04Z"/>
  <path d="M109.3,324.62c1.32-6.93,9.01-9.94,15.47-9.21,3.04.34,5.37,2.56,1.92,3.32-5.56,1.22-11.14-1.93-14.13,6.3l-3.26-.41Z"/>
  <path d="M166.47,310.19c-2.4-.08-4.34-.92-6.84-.61-1.66.21-8.31,4.4-8.93,1.59-.72-3.29,16.14-8.6,15.77-.98Z"/>
  <path d="M143.75,71.98c.05.15.82.27.96.8.56,2.14.4,9.59,1.73,9.99,2.63-.32,3.71-2.87,6.2-4.29,13.52-7.7,31.31.16,26.98,16.78,10.39-2.15,23.92-3.37,28.59,8.56,2.79,7.13,2.06,13.46-5.59,16.74-5.83,2.5-16.66,2.15-23.3,2.34-41.66,1.18-87.99,1.45-129.58,0-5.27-.18-17.08.03-20.87-3.28-7.01-6.13,7.66-15.17,13.68-13.78,1.15-2.79-.53-5.54-.4-8.26.71-14.96,14.99-23.17,28.56-17.34,2.23.96,6.76,5,8.31,4.22,1.38-.7,1.81-8.49,2.61-11.23,8.02-27.37,52.12-33.79,62.11-1.24Z" fill="#fff"/>
  <path d="M550.43,676.31c13.68-3.44,17.93,8.18,3.29,11.18-1.28,1.85,8.58,3.95,7.21,8.72-.05.19-2.27,3.03-2.43,3.15-5.87,4.38-11.23-3.58-12.67-2.01,2.41,7.73-3.23,12.89-9.9,7.42l-.99-7.41c-5.99,3.65-15.21-1.6-11.39-8.82,1.1-2.09,6.95-4.08,7.16-5.34.45-2.66-9.47-1-8.53-8.47.49-3.89,4.95-4.81,8.22-4.37,2.88.38,4.08,3.4,7.12,2.6,1.38-.56,1.5-9.39,7.27-9.12,7.22.33,5.61,7.44,5.64,12.48ZM548.02,684.02c-1.26-3.44-2.15-6.93-7.01-6.84-10.44.2-9.97,14,.55,13.65,5.35-.18,4.86-3.78,7.55-5.99.31-1.01-.95-.45-1.09-.82Z" fill="#fff"/>
  <path d="M566.2,715.75c-2.76,11.02-13.97,19.19-24.97,20.37,1.05-12.71,13.91-18.62,24.97-20.37Z" fill="#fff"/>
  <path d="M514.02,713.99c-.17-.33-1.67.08-1.06-1.53,12.3.17,21.95,9.92,22.03,22.35-1.02,1.75-10.06-4.23-11.21-5.23-5.31-4.64-6.76-9.82-9.75-15.59Z" fill="#fff"/>
  <path d="M57.36,702.58c1.56.99,8.96-6.71,14.06-1.25,5.9,6.3-5.92,9.79-5.54,11.45,13.5,4.81,6.1,15.94-5.92,10.85.26,3.55.72,11.67-4.85,11.01-4.47-.53-3.32-7.31-4.73-7.71-3.78,1.64-7.86,4.44-11.49.34-5.07-5.74,5.52-8.95,4.61-11.83-4.82-1.36-13.78-4.33-7.9-10.55,4.43-4.69,10.8-.52,11.18-.98-3.21-15.16,10.21-16.4,10.55-1.33ZM51.89,706.02c-5.9,1.33-7.34,11-.96,13.16,13.16,4.44,13.48-15.99.96-13.16Z" fill="#fff"/>
  <path d="M51.42,763.07c-9.83-1.2-20.48-10.1-19.07-20.71,10.6,2.06,18.95,9.35,19.07,20.71Z" fill="#fff"/>
  <path d="M79.69,742.7c-1.47,10.73-12.41,17.51-22.34,19.71,1.09-11.59,11.38-18.71,22.34-19.71Z" fill="#fff"/>
  <path d="M548.02,684.02c.14.37,1.39-.19,1.09.82-2.69,2.21-2.2,5.81-7.55,5.99-10.52.35-10.99-13.45-.55-13.65,4.86-.09,5.75,3.4,7.01,6.84ZM538.1,686.66c2.33,2.3,8.43.21,6.74-3.76-2.13-5.02-10.62-.06-6.74,3.76Z"/>
  <path d="M51.89,706.02c12.53-2.83,12.2,17.6-.96,13.16-6.39-2.15-4.94-11.83.96-13.16ZM53.89,709.3c-6.46.49-5.17,8.94,1.51,6.81,4.45-1.42,2.88-7.14-1.51-6.81Z"/>
  <path d="M538.1,686.66c-3.88-3.82,4.61-8.78,6.74-3.76,1.68,3.98-4.41,6.06-6.74,3.76Z" fill="#fff"/>
  <path d="M53.89,709.3c4.39-.34,5.96,5.39,1.51,6.81-6.68,2.13-7.97-6.31-1.51-6.81Z" fill="#fff"/>
</svg>