<?xml version="1.0" encoding="UTF-8"?>
<svg id="Camada_1" xmlns="http://www.w3.org/2000/svg" version="1.1" viewBox="0 0 595.28 841.89">
  <!-- Generator: Adobe Illustrator 29.0.0, SVG Export Plug-In . SVG Version: 2.1.0 Build 186)  -->
  <path d="M.14,841.29V-.06h595v841.34H.14ZM590.54,3.89H4.08v335.88l17.09-.66c.95-.79-6.62-8.77-4.4-10.99,3.64-3.99,6.77-4.11,11.63-2.15-3-11.27,3.98-17.86,13.8-9.86.07-23.57,17.07-17.7,17.11,1.97,7.6-5.51,12.96-4.47,12.5,5.92l5.16-1.73,2.72-36.4c-8.09,1.33-14.79-3.63-18.13-10.49-14.73,8.66-36.34-2.14-29.32-20.75-14.28-3.3-22.98-12.27-21.61-27.61,1.01-11.3,11.89-21.58,23.03-22.66-5.85-11.43-7.95-22.07.98-32.87,7.08-8.55,20.46-13.19,31.19-9.21,12.72-27.49,65.38-17.3,59.22,15.79,14.18-4.98,29.09,3.82,23.67,19.72,29.23-3.28,36.37,34.06,10.52,45.73,3.11,4.99,5.47,10.28,2.62,16.06,16.56-9.19,31.27-24.92,51.04-26.85,20.95-2.05,43.01,7.68,60.68,18.02,4.41,2.58,17.28,12.74,20.46,13.76.81.26,1.16.49,2.11.25,2.38-.61,16.08-14.95,19.2-17.65,23.96-20.69,61.76-53.69,94.05-56.52,21.3-1.86,43.13,10.65,60.76,21.39,9.2,5.6,17.98,12.77,27.19,17.96,25.8-24.13,57.07-45.83,93.17-49.88V3.89ZM79.69,282.58v-10.19c0-6.04-10.27-23.12-12.61-30.11-.78-2.34-2.2-4.85.53-6.33l1.26.58,18.71,23.7,3.73-42.79,3.36,1.2,4.76,23.83,6.24-23,1.96-.66c2.13.69-.19,9.73-.65,11.83-1.31,5.94-5.73,14.74-6.2,20.11s1.98,12.26,1.27,18.01c2.42-2.56,6.06-5.6,8.3-8.13,1.86-2.1,6.47-9.43,7.79-10.35.96-.67,1.28-.13,2.24.16,1.55,2.92-7.78,24.33-9.6,28.66-.84,2.01-5.07,2.93.68,5.55,8.99,4.11,19.03-.82,19.4-10.99.05-1.4-1.97-3.72-.57-4.6,3.33-.96,6.19,1.03,9.56,1.07,10.29.1,21.48-8.09,19.24-19.29-.95-4.74-4.76-5.12-6.96-8.71,1.44-2.52,4.75-1.78,6.92-2.8,13.94-6.58,18.09-25.83,4.34-34.87-7.82-5.14-11.56-2.65-19.86-2.82-1.12-3.12,1.87-3.48,2.39-6.33,1.58-8.82-4.13-15.94-13.29-15.31-5.13.36-14.56,10.12-12.11-.11,7.13-29.72-35.47-39.56-49.67-19.55-1.53,2.15-1.88,4.9-3.64,6.9-17.95-8.62-37.12,5.79-33.91,25.96.92,5.77,4.84,8.58,5.56,13.7-30.28,2.05-34.41,41.6-2.18,44.72,1.12,1.46-1.85,4.73-2.2,6.44-2.6,12.8,11.38,19.88,21.89,15.98,2.16-.8,6.08-4.59,7.79-3.92,2.55,7.94,6.14,13.48,15.53,12.45ZM590.54,183.33c-34.6,4.54-64.34,24.67-89.46,47.61l-.64,2,24.81,18.68c2.33.55,2.91-3.35,4.46-4.54,6.08-4.63,10.9,5.65,11.51,5.27,2.72-17.36,27.27-37.61,21.71-3.95,9.15-7.5,14.38-3.01,12.49,7.89,9.52-2.57,12.23,1.43,9.86,10.52l5.26-.65v-82.82ZM430.44,264.84c3.5-.04,7.01,0,10.52,0,7.86,0,32.79,10.8,34.87,19.04,1.81,7.19-6.88,6.69-11.52,8.23l12.15,10.65,38.47-13.61c-5.55-7.88-7.41-25.65,7.22-19.06l2.33-14.44c-13.7-11.73-28.98-22.97-44.1-32.86-45.85-29.98-69.64-41.56-119.14-8.07-22.57,15.27-41.77,35.02-62.61,52.42l36.15,27.79,1.3,3.43c-.66.69-7.27-3.94-8.21-4.6-33.24-23.48-85.31-71.99-129.18-53.55-16.44,6.91-40.72,31.94-56.9,33.16-2.67.2-4.96-.14-7.54-.63.28,14.45-14.82,21.1-26.95,13.8-4.69,12.99-5.27,26.06-3.87,39.68.46,4.48,3.01,21.66,4.64,24.94.84,1.7,6.13,2.4,7.76,3.74-.38-6.49,1.19-14.65,6.57-18.73-12.15-7.16-2.36-18.73,6-24.25,4.87-3.22,11.27-4.95,15.92-8.4,16.88-12.55,15.42-42.79,44.89-47.8,11.14-1.9,47.25,5.46,56.63,11.62,26.25,17.25,5.87,38.8,4.76,60.27-.87,16.7,3.08,26.85-2.54,43.61-.61,1.83-2.9,6.88-2.7,8.2l21.91,18.77c8.19-3.95,15.98-8.88,24.33-12.5,4.55-1.97,18.09-5.61,20.79-7.48,1.66-1.15,1.73-3.45,3.33-4.56,1.5-1.05,5.46-1.19,5.82-1.75.32-.5.03-3.01.54-4.39,3.49-9.5,8.25-5.14,11.06,1.84.91-1.95,5.68-5.57,6.11-7.03.64-2.18-.24-19.98-1.18-20.56-3.64,1.71-2.28,12.72-7.49,12.49-7.4-.32-3.9-13.32-11.48-10.44-.41,2.17-4.64,9.15-7.3,8.16-4-1.2-4.54-9.76-5.4-10.75-1.6-1.82-7.1.38-8.36-8.4-1.2-8.32,1.14-12.5,3.07-19.81.86-3.28-1.1-5.87,2.44-8.73s16.15-2.18,21.04-1.95c4.21.2,12.93,2.89,15.96.88,1.51-1.01,4.31-6.09,6.09-7.78,4.49-4.29,9.53-5.56,15.1-7.9-11.3-15.34,2.42-34.84,20.68-31.84,1.79.29,6.28,3.14,7.29,3.05.39-.04,4.53-3.89,6.21-4.76,8.63-4.47,23.38-6.88,32.37-2.74,8.25,3.8,6.36,8.21.53,13.29-.11,2.15,1.3.32,1.64.32ZM97.66,267.93c-.76-5.1-.26-11.37-.89-16.56-1-8.22-2.97-16.35-3.28-24.66l-3.22,39.17c-.45.58-.97.81-1.69.88-3.65.39-10.12-16.48-14.79-17.38,5.36,8.25,9.57,20.17,9.84,30.2.55,20.87-3.64,43.54-6.57,64.13l26.95,6.57c-2.34-14.14-5.48-27.87-4.59-42.38.99-16.08,7.54-31.36,14.43-45.38-1.32.67-3.3,2.2-4.35,3.2-1.51,1.45-8.54,11.16-10.45,8.32-.8-1.71.03-3.77-.33-5.47-.1-.44-1.05-.52-1.07-.65ZM590.54,278.64v-9.2c-2-.34-11.38,3.08-11.84.97,2.66-4.62,7.62-14.78-2.64-10.51-1.57.66-4.77,4.48-6.26,2.32-1.31-1.9,6.13-10.64,1.88-13.86-5.44-.1-9.06,5.16-10.85,9.79l-3.84.11c.85-7.4,3.64-14.33,2.56-21.96-.56-3.94-2.86-2.5-5.2-.73-6.92,5.26-10.08,17.4-12.12,25.39-2.71,2.39-3.78-6.6-5.18-8.41-5.45-7.04-8.38,1.89-9.45,6.89-.71,3.32-.73,16.02-1.44,16.83-.67.77-2.32.48-3.26.27-9.11-14.19-10.7,5.67-3.65,11.14,23.28-5.68,47.2-9.44,71.26-9.05ZM417.62,415.69c.43,1.33,0,7.78,0,9.86,0,5.03,4.8,14.22,11.07,12.39,8.3-2.42,17.56-19.78,19.5-27.83.52-2.15.9-10.57,2.62-10.51,3.42,7.01,4.54,17.04,13.17,19.76,8.09-.27,7.89-21.11,7.53-26.66-.16-2.35-2.88-14.08-1.95-14.8,5.6,1.08,8.19,10.78,15.18,7.47,5.82-18.82-1.7-37.79-11.13-53.71l2.09-1.68c9.03,6.92,16.04,10.44,10.79-4.84-2.71-7.89-11.18-19.03-17.26-24.81-3.25-3.09-7.3-5.48-10.77-8.31l.99-3.41c22.56.26,11.11-8.59-.39-14.25-7.74-3.81-17.33-6.69-26.02-6.24-3.25.17-13.04,3.52-14.79,2.34-4.32-2.91,12.02-7.28,11.22-13.12-.48-1.95-2.45-3.14-4.25-3.7-10.42-3.28-28.56,1.15-35.5,9.95-1.15,1.45-4.25,9.01-4.73,9.19s-1.54-.15-2.21-.02l2.7-11.53c-17.15-8.16-33.02,13.33-18.68,26.51,10.22.06,20.61,1.12,29.99,5.23,3.04-1.36,3.75-4.48,6.36-6.74,10.82-9.39,32.8-4.94,34.21,10.5,1.28,14.02-7.17,19.16-17.68,25.74,4.03,28.11-13.99,47.76-36.47,60.82-7.19,4.18-11.01,6.42-17.87,11.05-13.27,8.95-27.7,7.67-42.38,2.95-5.99,6.03-10.05,12.56-11.94,20.96-2.11,9.37-2.63,21.29,8.33,9.64,1.65-1.76,5.85-9.83,7.86-9.22,2.16.65-.79,8.72-.96,10.86-.43,5.3.87,18.11,8.2,18.09,5.77-.01,21-17.48,22.74-23.63,1.41-.29,3.07-.25,3.2,1.52.18,2.36-2.16,6.92-1.93,11.21.25,4.74,2.65,12.43,7.85,13.85,13.83,3.76,36.13-16.35,44.09-26.5,1.14-1.45,4.8-8.74,5.22-9.05.83-.61,1.79.06,2,.68ZM253.25,305.58c2.28-8.67,4.09-21.68-1.96-29.24-9.57-11.96-52.28-20.29-66.38-15.76-21.99,7.07-22.59,32.08-37.15,44.37-7.77,6.55-19.53,8.23-25.23,17.51-1.24,2.02-2.66,4.69-2.04,6.98.06.21,2.4,3.34,2.59,3.44,1.52.87,5.24-.65,5.3,1.95.04,1.72-3.25,2.99-4.26,4.32-6.68,8.81-6.67,19.34,2.5,26.2,3.6-3.31,8.33-6.25,12.78-8.3,6.51-3,13.32-3.4,18.24-8.72,3.65-3.95,5.74-9.82,7.38-14.84-2.83-1.79-7.97-4.36-9.68-7.39-7.98-14.16,10.6-29.62,18.4-19.56,4.39,5.66-2.06,24.46-2.63,32.24-.82,11.11-.91,31.52,11.82,35.81l.11-6.79c3.94-3.89,2.78,3.3,3.35,5.64,2.8,11.56,15.5,21.82,25.79,11.68,1.44,5.35,4.2,6.96,9.86,6.56,8.26-.59,12.32-7.56,13.55-15.04,3.25-.65,4.12,1.74,3.55,4.53,8.22-10.82,9.37-26.33,8.22-39.42l-5,7.19c-.87.14-9.87-9.45-11.88-9.68-1.03-.12-2.07,1.09-3.21,1.14-9.31.37-13.42-6.25-25.43-1.76-7.58,2.83-9.91,11.84-16.62-.82-6.67-12.58-.64-30.82.41-44.39-.19-1.86-4.55-1.33-3.35-4.92,4.53.25,8.11,2.32,12.8,2.65,10.94.77,22.51-2.74,30.52-10.29,1.21-1.14,3.47-6,5.33-4.85-.68,10.04,11.39,16.6,20.39,16.43l1.96,13.14ZM590.54,281.93c-38.46.03-76.76,8.16-111.77,23.67l5.51,7.3c3.97,8.52,18.31,31.18-2.88,24.9,2.1,6.43,5.47,12.34,6.92,19.04,2.32,10.75,5.5,44.27-14.15,29.6.6,6.53,1.35,14.82.58,21.29-.54,4.52-4.8,11.15-5.02,13.31-.56,5.51,7.87,29.79,10.3,35.61,5.82,13.96,12.52,24.93,24.43,34.64l52.56-7.56c.48-10.22-1.76-20.41-5.25-29.92-6.97-18.98-24.7-40.44-25.05-61.11-.07-4.08,2.53-12.27,2.04-15.09-.3-1.75-3.39-4.33-3.95-5.45-11.65-23.31,18.99-52.36,42.31-43.47,2.9,1.1,8.92,4.76,7.56,8.67-.49,1.42-6.88,2.38-9.05,8.08-4.04,10.64-1.45,24.98-14.07,32.6-5.76,3.48-9.51.3-10.32,8.75-1.74,18.04,12.1,31.88,19.89,46.51,7.62,14.31,15.3,31.39,15.6,47.8l13.81-.66v-198.5ZM228.92,283.24c-11.58,9.6-25.08,13.14-40.09,10.51-.07,11.9-5.9,28.35-1.83,39.63s6.72,4.56,13.02,2.14c4.69-1.81,11.67-2.48,16.59-1.5,4.21.83,11.31,6.86,13.32-.8,1.06-4.04-.71-7.45-1.99-11.18-.46-1.35-3.97-5.43-.66-5.76,4.15-.42,7.87,17.25,5.71,20.74l9.74,6.7c3.53-9.13,4.13-18.82,5.29-28.46.82-6.81,1.9-6.38,0-14.07-.34-1.39.47-3.68-.31-4.83-7.07-2.31-16.03-5.67-18.78-13.11ZM429.87,289.4c-7.57-7.27-20.73-5.74-26.99,2.43-1.42,1.85-2.11,6.14-4.67,6.56-17.59-10.25-46.71-12.17-56.63,9.73l-23.22-2.53,6.6,5.55c3.59,7.13-7.87,9.6-12.43,10.97-3.06,23.82,12.19,14.06,25.77,14.63,19.92.83,29.54,20.46,22.15,38.2-9.41,22.58-26.96-2-37-.24-1.63.28-6.85,4.26-7.03,6.2-.57,6.1,5.81,12.33,11.27,14.28,21.52,7.69,27.58-.89,43.49-10.17,5.43-3.17,11.92-5.11,17.48-8.82,18.53-12.36,32.22-33.08,27.31-56.15,11.75-3.78,25.53-19.5,13.92-30.65ZM52.5,305.82c-6.86-6.74-6.49,8.44-6.36,11.95.07,1.81,2.24,7.64.34,8.19-2.36.68-7.27-11.69-13.02-9.77-4.52,2.15,1.12,12.72-.08,14.39-4.19,1.92-7.89-4.91-12.8-1.92,1.81,13.27,11.07,9.64,20.63,10.46,10.46.9,20.89,2.34,31.28,3.66l3.9-16.16-8.57,1.67c-1.4-.95,1.04-4.8.73-7.28-.86-6.89-8.69,1.13-9.22,4.67-.69.54-2.28-.23-2.66-.71-1.74-2.17.54-14.53-4.17-19.16ZM169.03,329.83c.39-5.44,7.64-24.16-3.4-22.78s-10.49,25.07,3.4,22.78ZM302.72,336.33c1.42,1.41,6.69,1.24,7.11-1.51l-.79-12.35-6.14-4.4c-1.41.06-2.63,15.83-.19,18.26ZM560.71,350.09c1.17-2.83,1.29-5.86,2.98-8.57,1.12-1.81,6.59-5.62,6.44-6.61-1.36-1.62-3.63-3.14-5.71-3.53-20.66-3.86-41.6,13.96-37.36,35.38.67,3.4,5.41,9.23,5.65,10.85s-2.7,10.25-2.71,13.77c-.03,19.53,17.34,41.3,24.22,59.32,7.49,19.64,11.59,41.21-.07,60.07-5.02,8.12-13.15,12.44-22.01,15.34l3.19,13.5c25.74-5.8,39.12-29.09,38.82-54.27-.16-13.35-6.98-32.83-13-44.81-8.55-17.02-25.72-34.31-23.12-54.99,1.39-11.06,10.89-6.59,16.92-15.96,4.23-6.58,3.18-10.35,4.7-16.88.16-.68,2-.03,1.32-1.74-2.95-.09-.28-.74-.24-.86ZM167.36,357.97c-1.43-6.29-.44-12.55-.55-18.87l-8.86,14.14c1.29.27,10.85,10.17,11.15,7.9.16-1.38-1.69-3-1.73-3.17ZM310.46,339.11c-1.02,3.42-.7,6.26,2.3,8.53,3.54-3.85,2.87-7.08-2.3-8.53ZM331.83,340.44c-6.65,1.61-6.41,5.58-1.32,9.17,1.28-.07,3.74-8.1,1.32-9.17ZM4.08,343.05v281.98l52.59-3.62c2.62-4.17,3.96-9.03,6.4-13.29,3.41-5.96,10.08-14.24,12.62-20.42.41-1,1.71-6.05,1.31-6.65l-9.86-4.31c.63-9.16,1.45-18.47,2.77-27.54,2.15-14.79,6.08-31.18,10.47-45.4,3.2-10.35,14.15-28.96,13.68-38.85-.08-1.61-1.62-2.88-1.84-4.62-1.85-14.69,14.65-67.78,22.63-81.14,2.59-4.34,5.29-7.93,8.85-11.49-3.93-2.13-5.06-7.2-8.35-9.36-6.05-3.98-26.57-8.77-34.33-10.38-24.68-5.13-51.84-7.56-76.94-4.91ZM237.38,387.86c-.16-.27-1.97-.92-2.51-.48-5.1,8.16-12.96,9.09-21.41,6.31-6.48-2.13-3.02-.78-9.18-.64-4.06.09-11.38-3.31-14.44-5.98-2.65-2.31-4.32-7.17-5.64-8.17-1.46-1.1-4.72-1.01-6.87-2.33-3.2-1.96-5.22-7.34-8.2-10.21-1.14-1.1-12.57-10.08-13.37-10.34-3.28-1.07-13.97,3.59-17.32,5.31-14.86,7.64-23.72,22.39-29.1,37.43-3.26,9.13-14.86,52.56-13.87,60.3.64,5.01,8.22,7.73,12.71,9.64,24.96,10.61,67.46,16.41,94.07,11.63,6.74-1.21,8.37-3.14,12.23-8.46-20.72-3.91-42.08-12.82-60.02-23.8-9.17-5.61-28.61-21.06-34.02-29.91-1.89-3.1.33-3.78,3.04-2.21,1.15.67,3.49,4.9,4.87,6.31,9.83,10.09,21.03,18.79,33.22,25.92,6.45-16.4,16.84-31.36,31.22-41.72-7.6-6.81-15.22-13.73-22.98-20.39-.42-.36-9.68-5.65-4.93-6.87,3.01-.78,41.55,34.74,47.98,39.42,5.71,4.15,10.77,7.48,17.79,9.19,1.4.33.73-.4,1-.9,3.22-6.02,3.75-18.04,4.56-24.9.05-.44,1.22-.48,1.27-.93.16-1.6.26-12.65-.08-13.22ZM359.72,361.5c-10.23-2.11-21.25,3.69-26.24,12.73l3.93,2.35c2.3-15.9,12.85-8.03,11.18,3.95,9.01.98,11.25-12.25,11.13-19.02ZM328.51,369.06c-.74-1.18-.49-2.74-2.59-2.33-2.76,3.96-.55,5.71,3.61,5.25.63-2.09-.48-2.07-1.01-2.91ZM343.88,372.11c-.54-.33-1.25-.1-1.83-.12-2.61,5.35-2.99,7.04,3.91,7.87.62-.62-1.14-7.17-2.08-7.75ZM313.74,381.83c-2.01-2.1-39.83,15.45-44.03,19.39l18.72,16.75c3.75-3.5,8.59-6.14,13.04-8.64,3.02-1.7,8.68-3.13,10.94-4.83,2.03-1.53,5.2-7.34,7.86-9.19-4.44-3.24-7.02-7.87-6.54-13.48ZM234.87,429.78l10.48,3.03c9.43-7.14,18.54-14.91,25.6-24.46.26-1.89-25.8-25.84-27.89-25.69-1.09.61-2.01,1.53-2.28,2.8-1.15,5.54-.02,16.41-.77,22.89-.85,7.39-3.87,14.16-5.15,21.42ZM317.31,448.61c-9.27-17.42-27.66-1.64-41.86-1.86-19.93-8.49-45.89-11.99-63.57-24.53-2.31-1.64-15.1-13.17-16.14-13.27-14.34,9.28-25.12,24.77-30.49,40.85,24.27,14.54,51.62,20.9,79.72,22.58,7.23-6.98,16.47-9.26,26.36-8.36,2.82.25,16.44,3.33,18.57,4.44,2.49,1.31,7.29,12.78,11.71,8.7,3.89-3.59-2.49-12.96-1.66-13.81,4.96-.18,6.73,6.74,6.57,10.51,11.41-.55-1.15-17.83,0-19.05,5.54.75,6.46,8.03,8.52,12.19l3.09-1.86c.38-2.39-2.18-7.26-3.6-9.48-1.34-2.09-8.82-8.86-5.63-10.01,3.76-1.35,7.33,8.35,10.44,9.8.77-2.63-1.03-4.96-2.03-6.84ZM310.8,408.8l-19.39,10.83c-.1,1.45,13.1,5.47,15.15,4l4.24-14.83ZM279.27,414.98c-1.57-1.2-3.02-2.45-4.33-3.94l-1.28.02-23.69,24.01,27.83,8.38c9.6-2.5,21.46-7.98,31.51-6.24,2.04.35,5.98,3.07,6.61,3.01,1.99-.18,9.26-7.42,6.7-10.4-6.34,7.68-16.14,11.8-15.45-2.64-12.1,1.79-19.28-5.62-27.9-12.2ZM466.24,423.28c-.37-.3-2.96.2-4.1-.18-4.65-1.54-8.66-8.35-10.98-12.35-1.26,13.96-26.22,47.92-35.54,20.73l-1.6-6.92c-9.48,10.74-21.1,23.21-35.01,28.11-9.22,3.25-13.68,2.41-21.2-3.79-5.85,8.07-17.81,15.33-27.27,18.42-3.21,1.05-13.68,2.36-15.48,3.59-.51.35-1.3,2.89-2.96,4.27-2.08,1.72-4.57,1.93-6.85,3.01-2.85,1.35-1.75,3.83-7.57,2.86-6.04-1.01-6.48-7.72-9.1-9.36-5.62-3.51-23.07-5.1-29.57-3.57-4.64,1.1-17.36,8.51-10.08,13.6,1.97-2.64,15.64-12.65,14.22-4.89-10.88,1.97-18.22,13.28-8.25,21.34,1.24-4.09,7.27-11.44,11.48-12.19,7.27-1.28-3.23,5.92-3.58,6.29-5.8,6-7.75,15.05,1.15,19.2,3.68,1.72,9.41.21,13.14-.97,3.99-1.26,12.92-7.35,14.77-7.58,2.81-.35,14.03,2.72,18.28,3.13,31.75,3.06,62.62.74,90.34-16.15,2.45-1.49,14.94-11.51,15.84-11.15,3.12,1.23-.98,4.39-2.29,5.63-12.13,11.52-31.99,18.45-47.67,23.31,16.37,28.25,48.15,47.13,79.54,54.24.15-11.36,3.03-21.35,8.01-31.44l3.17-.12c.57.55-5,12.16-5.6,14.45-6.86,25.95,3.21,51.74,26.43,64.97,3.1,1.77,15.52,6.32,17.01,7.97,4.3,4.75-1.43,19.93-3.55,25.4-.4,1.02-1.33,1.1-1.8,2.16-1.82,4.14-3,8.59-5.2,12.57-1.65,1.31-8.28.45-11.01.82-13.61,1.85-27.06,19.44-9.05,25.46-1.13-3.18-1.01-6.98.07-10.12.71-2.07,7.33-9.62,9.4-7.68s-2.91,4.58-4.21,6.29c-7.34,9.61.29,15.03,10.53,14.14.78-1.81-1.21-1.93-1.3-2.42-.76-4.19,2.14-11.02,5.48-13.76,1.32-1.08,1.97-1.57,3.69-.89.39,3.7-3.78,4.98-4.81,8.65-3.88,13.85,15.57,9.74,22.61,6.18,12.29-6.21,25.27-46.91,30.11-60.58.48-1.35,2.36-3.27,2.94-5.64,3.43-14.01-5.92-13.17-10.85-23.1-1.66-3.34-1.3-6.1-3.22-8.62.83-9.96,6.29-21.82,7.26-32.27,4.25-45.69-35.9-54.94-53.21-89.55-5.72-11.42-7.68-24.56-11.79-36.17-.33-.94-.55-5.18-.76-5.35ZM355.58,447.32c2.53-3.5-.88-9.03.23-13.56-6.22,6.02-19.11,23.84-28.62,14.49l-4.56-9.23-3.61,4.25c4.39,7.6,4.57,14.3,2.61,22.69,7.17-1.71,14.41-3.93,20.71-7.88,2.47-1.55,11.77-8.74,13.24-10.76ZM207.89,482.41c-36.78,6.69-77.2,1.07-110.71-15.16l-2.6,13.26c33.36,18,74.75,22.81,111.96,16.33l1.34-14.42ZM243.96,475.93l-26.2-3.08c-.79,3.64-5.37,5.93-6.38,8.77-1.56,4.36-.18,9.2-1.51,13.6,6.14,7.58,13.4,14.34,19.35,22.08,5.27,6.86,24.82,36.12,25.9,43.18.41,2.7-1.27,3.32-1.1,4.92.1.94,3.17,7.72,3.81,10.07.91,3.38,1.23,6.79,1.75,10.22.78.31,1.54.52,2.4.44,4.51-.42,16.8-4.41,21.51-6.12,2.89-1.05,16.81-6.81,17.15-9.19-2.62-6.87-14.2-9.87-6.56-19.66,5.58-7.15,36.35-17.78,46.01-21.05,9.93-3.36,20.19-5.85,30.21-8.91.45-.67-6.98-12.94-8.86-13.16-12.64,2.74-26.56,3.4-39.49,2.68-7.53-.42-24.42-4.69-30.16-3.97-1.73.22-4.62,3.23-6.51,4.06-7.78,3.44-20.26,7.81-27.42.88-3.15-3.05-2.21-7.95-3.62-10.18-.48-.76-5.29-3.12-6.41-5.45-2.1-4.39-.65-6.72-1.13-9.96-.36-2.42-4.25-5.98-2.73-10.14ZM224.6,517.64c-5.07-6.37-9.87-12.86-16.35-17.89-38.09,7.56-80.64,1.99-115.09-15.95-10.47,17.22-13.72,37.51-17.47,57.25-.09.5-1.11.52-1.2,1.01-.95,5.17-4.46,29.74-3.36,33.23,37.45,14.37,81.85,15.47,121.12,8.14,20.3-3.79,42.35-10.24,59.11-22.46-6.56-15.73-16.14-29.98-26.76-43.32ZM590.54,484.37l-13.11.7c.85,20.91-7.52,41.12-25.87,52.03-5,2.97-10.87,4.59-16.2,6.84,2.53,14.29-7.88,31.72-5.9,45.22,1.56,10.61,14.87,12.66,13.58,25.52-.67,6.65-5.15,13.95-7.25,19.74-4.98,13.79-14.93,45.45-27.64,52.53-11.65,6.49-36.55,4.1-48.71-.85-8.49-3.45-9.36-14.61-4.01-20.96,7.15-8.48,16.4-9.88,26.97-10.5,1.72-7.94,11.78-24.57,10.88-31.91-.51-4.22-11.39-6.81-14.96-8.74-17.44-9.47-29.35-23.72-31.12-44.16-5.46,3.61-12.7,11.52-13.62,18.25-1.49,10.83,8.59,16.72,5.71,28.72-1.69,7.04-29.57,43.82-35.78,49.02-14.42,12.09-34.86,9.11-51.15,3.78-7.43-2.43-8.16-11.32-5.41-17.6,2.17-4.95,7.72-8.55,12.65-10.36s13.92-1.73,16.97-3.41,18.18-22.7,18.67-26.72c.73-5.98-6.67-10.3-9.83-14.4-12.67-16.48-15.45-34.5-6.69-53.35.83-1.78,5.46-7.87,5.26-8.99l-10.86-10.86c-11.64,3.21-23.34,6.47-34.76,10.4-8.26,2.84-36.68,12.66-41.06,18.76-7.18,10.02,13.26,12.44,4.38,21.8-6.75,7.12-31.33,12.29-41.16,14.72l-4.53,76.43c.94,2.64,34.38,12.7,40,18.51,2.32,2.41,4.43,13.72,3.89,17.05-1.12,6.91-14.14,9.1-20.02,9.56-10.96.86-52.95-4.56-62.57-9.06-3.62-1.69-5.59-2.82-6.12-7.03-1.11-8.93,1.53-18,1.3-26.93-.57-21.63-8.2-44.05-6.57-66.07-29.29,8.07-59.54,11.91-89.38,17.44-8.08,15.19-18.78,28.87-28.4,43.26-.62.93-1.81,1.25-2.42,2.18-.99,1.5-6.56,10.25-6.49,11.08,5.67,4.82,11.5,10.85,17.24,15.43,2.61,2.08,7.35,3.3,9.53,6.25s3.02,10.55,1.95,13.79c-3.11,9.41-28.02,11.59-36.45,10.85-14.5-1.28-42.71-15.34-41.05-32.47.92-9.49,7.36-19.17,10.64-27.51,4.87-12.4,9.28-24.97,14.28-37.28l-51.28,3.28v209.02l111.42-.02c41.28-9.24,86.43-11.97,126.54-25.32,20.89-6.95,26.98-14.81,44.14-25.55,14.13-8.84,30.49-14.11,46.48-18.6,50.36-14.16,103.4-20.66,155.27-27.17,1.47-14.68,13.08-22.24,27.23-16.32,4.96,2.08,7.84,6.37,12.24,9.12-4.18-22.51,23.04-57.13,42.02-29.99l1.36.39c4.93-8.57,10.63-14.59,19.74-18.72v-200.8ZM557,487l-49.29,8.22c8.6,7.87,17.16,16.31,22.68,26.64l1.17.53c16.25-3.63,26.01-19.17,25.44-35.39ZM445.9,565.23c-17.33-2.85-33.33-10.67-47.94-20.11-9.17-5.92-10.49-13-16.6.6-6.74,14.99-4.77,32.84,4.48,46.27,2.25,3.27,12.71,13.15,13.36,15.77.34,1.38-.08,3.46,0,4.97-4.57,6.57-14.28,24.6-21.04,28.38-7.82,4.37-19.71.49-26.94,9.87-3.83,4.98-3.54,16.11,4.61,16.11-2.01-4.42.85-15.98,6.31-16.46.56-.05,2.85,1.93,2.24,2.65-10.43,5.14-6.74,18.93,5.92,16.44-2.8-3.73,1.33-17.03,6.25-16.4,3.58.45-2.27,5.7-2.45,6.06-1.75,3.38-2.57,10.14,2.07,11.38,6.3,1.68,18.92-2.98,24.04-6.95,4.24-3.3,33.02-40.67,34.84-45.36,5.33-13.66-7.21-17.54-5.41-30.38.96-6.8,8-14.69,12.95-19.26,1.37-1.26,3.93-.87,3.32-3.58ZM251.22,566.59c-8.44,3.59-16.25,8.31-24.95,11.42-6.61,2.36-13.51,4.1-20.35,5.63,5.75,10.36,2.58,23.59,3.3,35.15.4,6.48,2.3,24.4,3.99,30.07.08.26,2.05,2.09,1.87,3.51,6.27,1.81,35.25,2.8,38.03-2.82.96-12.78,2.45-25.8,2.8-38.61.4-14.6,1.59-31.01-4.69-44.34ZM127.03,590.86c-15.77-1.69-31.55-3.54-46.68-8.55-3.17,13.31-12.6,24.12-18.4,36.49-3.67,7.83-6.16,16.06-9.28,24.1-.39,1.02-3.23,2-1.58,5.13.7,1.34,9.17,7.08,11.06,8.02,6.61,3.29,14.7,4.78,22.01,5.67,8.74-11.9,16.96-23.62,24.57-36.28,4.36-7.25,9.47-15.27,13.22-22.93,1.84-3.74,3.36-7.84,5.08-11.65ZM203.19,585.04c-23.6,4.16-47.7,7.54-71.74,5.8l-12.31,24.33,85.67-15.9c3.03-1.87.07-11.45-1.62-14.23ZM76.26,674.19l4.76-9.4c-12.15-1.32-22.64-6.01-32.22-13.46l-3.82,10.32c2.26,6.96,26.71,14.8,31.28,12.54ZM252.6,665.46v-9.86c0-.38,1.73-1-.33-1-3.92,0-10.36,2.35-15.1,2.66-7.07.46-14.75-.16-21.71-1.35l.64,12.51c10.86,6.23,25.98,2.21,36.5-2.96ZM79.03,680.9c-2.9-4.84-11.05-3.44-16.58-4.78-7.26-1.76-13.72-5.86-19.57-10.33-1,5.69-8.59,15.83-7.89,21.31.4,3.16,7.62,8.01,9.53,10.89,8.22-11.25,20.69-16.81,34.52-17.08ZM258.51,672.35c-2.79-5.95-11.39-.2-16.53.9-8.71,1.86-16.94,2.51-25.53-.23l-1.34,14.67c.67,2.06,23,6.8,26.54,6.96,3.45-8.77,8.27-17.65,16.86-22.3ZM260.23,689.85c3.8-6.29,6.91-9.4,14.05-11.9l-10.94-4.78c-8.96,3.52-15.2,13.44-17.97,22.19l10.8,2.58c1.05-3.47,2.31-5.18,4.06-8.08ZM295.11,689.01c-1.68-3.1-13.56-9.67-17.05-9.29-.44.05-7.32,3.32-8.06,3.8-5.16,3.31-8.06,8.23-9.47,14.1.21.85,12.19,2.33,14.07,2.38,3.05.07,5.95-.42,8.92-.99,1.79-.91-3.08-4.69-3.99-5.25-1.83-1.15-3.94-.91-5.59-2.3-1.38-5.51,7.57-.54,9.51,1.01,3.65,2.91,2.72,7.19,7.94,4.21-1.9-5.67-7.36-6.61-11.17-10.16,5.55-3.45,11.19,4.23,14.14,8.2,2.16.67,1.33-4.64.75-5.7ZM83.89,685.25c-.58-.37-.8-2.19-2.5-1.75-13.24,1.16-26.58,4.68-33.82,16.72l9.75,6.33c6.13-11.2,20.78-15.61,32.89-15.78-1.49-2.22-4.1-4.11-6.32-5.51ZM590.54,689.45c-6.76,2.5-11.3,6.97-14.8,13.14-1,1.75-3.51,9.11-3.99,9.25-3.3.97-3.34-4.03-4.52-5.98-6.59-10.94-16.69-11.8-25.75-3.02-5.99,5.81-9.73,14.16-10.74,22.45-.28,2.24.66,16.09-1.66,16.07-.77,0-8.43-9.6-10.54-11.14-16.79-12.28-29.56.26-25.66,19.08.57,2.73,6.19,13.85,5.32,15.1-1.44,2.09-5.22-1.82-6.78-2.47-7.53-3.13-15.04-5-21.89.79-10.71,9.05.22,25.66,7.97,32.86.84.78,4.18,1.09,2.49,3.54-.78,1.13-11.71-.86-14.71-.58-14.67,1.38-22.98,14.59-13.45,27.3,1.97,2.63,14.74,11.51,17.42,11.51h121.3v-147.89ZM33.02,691.42c.72,8.72,10.52,15.97,17.55,20.24,12.39,7.54,25.71,8.52,39.8,5.88,5.26-.99,13.18-3,14.95-8.71-27.27,13.77-53.37,4.69-72.3-17.41ZM297.3,697.34c-12.35,7-24.65,6.36-38.27,4.42-14.5-2.07-30.55-6.13-44.56-10.33-.06,5.99,3.12,7.74,8.25,9.16,11.86,3.3,45.39,8.31,57.14,7.25,5.62-.5,18.54-2.87,17.43-10.5ZM100.08,707.2c3.51-.9,5.28-3.67,3.6-7.23-.47-1-10.95-6.57-12.49-6.63-10.22-.4-25.19,5.71-31.2,14.2,5.17,3.51,12.17,4.62,18.38,4.27,2.21-3.8-7.64-10.45-2.34-10.47,3.68-.02,5.8,7.36,5.63,10.47l6.5-1.7c.63-2.46-6.85-7.19-3.55-10.12,3.8,2.52,5.35,5.36,6.88,9.58,12.06.62-4.3-12.01.36-12.88,1.35-.25,8.93,8.1,8.22,10.51ZM136.23,837.34h325.44c-12.73-6.73-23.36-18.86-14.09-32.82,3.39-5.1,9.28-8.04,15.25-9.08,1.73-.3,8.63.36,8.69-1.16-19.33-18.86-7.74-48.29,21.05-35.83l-4.99-14.5c-55.12,8.06-113.34,13.59-166.47,30.75-32.92,10.63-50.05,31.79-81.31,41.62-12.31,3.87-25.14,6.08-37.7,8.97l-65.87,12.04Z"/>
  <rect x=".14" y="841.29" width="595" height=".66" fill="#fff"/>
  <path d="M590.54,3.89v176.16c-36.1,4.05-67.36,25.75-93.17,49.88-9.2-5.19-17.99-12.36-27.19-17.96-17.63-10.74-39.46-23.25-60.76-21.39-32.29,2.83-70.09,35.83-94.05,56.52-3.12,2.69-16.82,17.04-19.2,17.65-.95.24-1.3.01-2.11-.25-3.18-1.02-16.04-11.17-20.46-13.76-17.68-10.34-39.74-20.07-60.68-18.02-19.77,1.93-34.48,17.66-51.04,26.85,2.85-5.77.48-11.07-2.62-16.06,25.85-11.66,18.71-49.01-10.52-45.73,5.42-15.89-9.49-24.7-23.67-19.72,6.16-33.09-46.5-43.28-59.22-15.79-10.74-3.98-24.12.66-31.19,9.21-8.94,10.8-6.83,21.44-.98,32.87-11.15,1.08-22.02,11.36-23.03,22.66-1.37,15.34,7.33,24.31,21.61,27.61-7.02,18.6,14.59,29.41,29.32,20.75,3.33,6.86,10.04,11.82,18.13,10.49l-2.72,36.4-5.16,1.73c.46-10.39-4.9-11.43-12.5-5.92-.03-19.67-17.04-25.54-17.11-1.97-9.82-8-16.81-1.41-13.8,9.86-4.86-1.96-7.99-1.84-11.63,2.15-2.22,2.23,5.35,10.2,4.4,10.99l-17.09.66V3.89h586.45ZM572.46,75.53c-2.83-.45-6.57.32-9.53,0,2.7-19.63-21.57-25.8-35.5-15.78-.06-5.37-5.08-12.15-9.2-15.45-18.2-14.55-47.33,2.56-48,24.65-12.15-6.8-29.48-2.5-31.56,12.5-10.08-5.51-33.93,7.57-27.22,19.66,3.64,6.55,23.74,6.4,30.81,6.66,22.99.85,47.97.38,71.06,0,12.83-.22,50.86.64,60.36-4.72,10.7-6.04,12.07-25.42-1.22-27.51ZM150.7,76.19c-.35-36.88-58.89-35.35-62.47-.66-7.11-3.76-11.93-4.8-19.7-2.28-8.28,2.68-15.98,10.2-17.12,18.72-9.37-2.51-19.56,1.33-20.76,11.81-1.33,11.69,9.41,13.7,18.44,14.5,37.01,3.27,89.37,2.31,126.89.66,7.45-.33,26.61-.13,28.97-9.21,3.3-12.72-10.03-18.85-20.72-15.8,2.8-18.6-19.6-27.67-33.53-17.74ZM260.26,151.36c-10.74-12.31-39.14-7.78-42.51,9.63-11.26-8.66-35.34,1.59-31.1,16.98,1.53,5.57,11.28,6.91,16.34,7.33,11.75.98,66.96,1.67,75.81-1.08,10.16-3.16,9.84-15.51.81-19.65-5.63-2.58-9.58-1.51-15.16.37-.03-4.48-1.18-10.13-4.18-13.57Z" fill="#fff"/>
  <path d="M590.54,484.37v200.8c-9.11,4.13-14.81,10.14-19.74,18.72l-1.36-.39c-18.98-27.14-46.2,7.47-42.02,29.99-4.4-2.75-7.28-7.04-12.24-9.12-14.15-5.92-25.76,1.63-27.23,16.32-51.87,6.51-104.91,13.01-155.27,27.17-15.99,4.5-32.35,9.76-46.48,18.6-17.16,10.74-23.25,18.59-44.14,25.55-40.12,13.35-85.26,16.09-126.54,25.32l-111.42.02v-209.02l51.28-3.28c-5,12.32-9.42,24.89-14.28,37.28-3.27,8.34-9.72,18.02-10.64,27.51-1.66,17.13,26.55,31.19,41.05,32.47,8.43.74,33.34-1.44,36.45-10.85,1.07-3.24.15-10.95-1.95-13.79s-6.92-4.17-9.53-6.25c-5.74-4.58-11.57-10.61-17.24-15.43-.08-.83,5.5-9.58,6.49-11.08.61-.93,1.8-1.25,2.42-2.18,9.62-14.39,20.32-28.07,28.4-43.26,29.84-5.53,60.09-9.37,89.38-17.44-1.63,22.02,6,44.44,6.57,66.07.24,8.94-2.41,18-1.3,26.93.52,4.21,2.5,5.34,6.12,7.03,9.62,4.5,51.61,9.92,62.57,9.06,5.88-.46,18.9-2.65,20.02-9.56.54-3.33-1.57-14.64-3.89-17.05-5.61-5.82-39.06-15.87-40-18.51l4.53-76.43c9.83-2.43,34.4-7.6,41.16-14.72,8.88-9.36-11.55-11.78-4.38-21.8,4.37-6.1,32.8-15.92,41.06-18.76,11.41-3.93,23.12-7.19,34.76-10.4l10.86,10.86c.2,1.13-4.44,7.22-5.26,8.99-8.76,18.85-5.98,36.86,6.69,53.35,3.15,4.1,10.56,8.42,9.83,14.4-.49,4.01-15.55,25-18.67,26.72s-11.95,1.57-16.97,3.41-10.48,5.41-12.65,10.36c-2.75,6.28-2.02,15.17,5.41,17.6,16.28,5.33,36.72,8.31,51.15-3.78,6.21-5.2,34.09-41.98,35.78-49.02,2.89-11.99-7.2-17.88-5.71-28.72.93-6.73,8.16-14.64,13.62-18.25,1.77,20.44,13.68,34.69,31.12,44.16,3.57,1.94,14.45,4.53,14.96,8.74.89,7.34-9.16,23.97-10.88,31.91-10.57.62-19.82,2.02-26.97,10.5-5.36,6.35-4.48,17.51,4.01,20.96,12.16,4.95,37.06,7.34,48.71.85,12.71-7.08,22.66-38.75,27.64-52.53,2.09-5.8,6.58-13.09,7.25-19.74,1.29-12.86-12.02-14.9-13.58-25.52-1.98-13.5,8.43-30.92,5.9-45.22,5.33-2.25,11.2-3.87,16.2-6.84,18.35-10.9,26.72-31.12,25.87-52.03l13.11-.7ZM567.41,543.03c-3.12.2-12.66,3.56-8.46,7.44,2.69,2.48,17.25,2.93,17.79-2.73.14-3.74-6.49-4.89-9.33-4.71ZM342.55,563.14c4-6.95-15.22-7.62-14.99-1.47.19,5.08,13.65,3.79,14.99,1.47ZM564.89,581l-2.51.12c-.13.46-.78,1.27-.78,1.53v9.86c0,1.14,3.29,1.71,3.29-.66v-10.85ZM576.07,582.97c-5.1.54-7.62,5.06-7.88,9.85,2.23,2.16,8.96-8.68,7.88-9.85ZM552.75,583.62c-1.55.25-.39,2.1-.14,2.75.58,1.5,3.88,8.75,5.37,8.42,2.89-.64-1.88-11.7-5.23-11.17ZM288.59,614.68c-10.99,1.6-11.82,9.62.61,10.09,19.08.72,13.91-12.2-.61-10.09ZM150.57,646.23c-2.72.21-6.44,1.5-8.47,3.4-4.82,7.56,20.63,8.43,19.15.07-.54-3.03-8.15-3.68-10.68-3.47ZM571.13,650.35c-3.37-4.8-17.68-5.66-20.98-.28-4.92,8.02,12.98,8.24,17.53,7.01,4.11-1.11,6.15-2.88,3.44-6.73ZM422.77,702.76c-3.97.17-12.38,2.55-11.6,7.92,1.53,8.06,22.89,5.43,25.18,1.12,3.28-6.18-9.31-9.21-13.57-9.03ZM178.18,724.41c-4.77.17-21.32,6.74-14.04,13.06,3.86,3.35,27.49,4.67,30.91-.05,5.43-7.49-12.04-13.18-16.88-13.01ZM329.98,732.36c-.41-.43-5.39-2.28-6.36-2.5-19.46-4.52-23.29,12.12-1.73,9.47,2.56-.31,8.85-1.9,8.85-4.86-.03-.79-.19-1.52-.75-2.11ZM31.91,744.88c-.79.72-1.91,2.56-1.24,3.73,2.33,4.01,17.92,3.59,18.68-.41,1.17-6.2-13.06-7.33-17.44-3.31ZM110.42,746.8c-6.05-5.47-18.92,13.89-18.25,19.55-1.71.34-1.02-.32-1.37-.93-1.04-1.8-1.39-4.54-2.67-6.55-1.15-1.81-7.43-9.08-9.59-6.83-3.07,3.21-1.86,22.62-.17,27.45-2.53-2.27-16.48-9.05-18.89-6.43-1.58,2.6-.69,5.47.59,7.98.4.79,10.63,13.12,11.36,13.62s2.61,1,3,.61c2.41-2.39-13.96-17.81-12.48-19.71,3.36.71,5.92,1.63,8.98,3.18,4.22,2.12,6.46,5.31,10.38,7.34,2.52-.77-1.42-15.26-1.6-18.09-.25-3.91.21-7.64.65-11.48,1.1-1.3,6.86,8.32,7.15,9.08.83,2.17,1.78,12.54,4.34,11.95,3.21-8.07,4.39-17.12,10.22-23.97.77-.91,5-5.23,5.27-2.64.15,1.41-.54,7.31-.77,9.11-.45,3.6-5.23,19.33-4.2,20.81,2.1,3.01,4.6-4.84,5.96-6.56s12.26-11.79,14.11-9.88c.73,4-11.46,21.76-10.88,22.99.38.8,1.57,1.55,2.52,1.25,1.32-3.03,17.93-9.28,18.21-5.51l-13.51,13.46,2.58,3.25c10.28-10,28.89-26.18-1.54-19.01-.66-.85,9.83-16.54,4.6-20.05-6.62-1.74-10.31,5.56-15.78,7.56-.37-.5.38-5.08.68-6.08.23-.76,2.85-.46-.04-1.48-.04-.6,1.2-.04,1.34-.76.41-2.19,1.26-11.91-.18-13.21ZM213.43,768.58c-1.12,2.29-2.53,11.79-1.3,13.58.75,1.1,3,.98,3.55-.46.23-.61,1.25-12.43,1.13-13.07-.41-2.21-2.54-1.76-3.38-.04ZM202.38,777.12c1.22,1.81,3.27,7.57,5.18,6.97,3.58-1.11-4.9-15.62-9.52-13.79-.49,3.12,3.09,4.97,4.34,6.82ZM226.76,773.07c-3.03-.37-10.65,10.11-7.35,11.04,2.11.59,6.59-8.43,9.51-9.53l-2.16-1.51Z" fill="#fff"/>
  <path d="M466.24,423.28c.21.17.43,4.41.76,5.35,4.11,11.61,6.07,24.75,11.79,36.17,17.32,34.61,57.47,43.87,53.21,89.55-.97,10.45-6.43,22.3-7.26,32.27,1.92,2.52,1.55,5.27,3.22,8.62,4.93,9.93,14.28,9.09,10.85,23.1-.58,2.37-2.46,4.29-2.94,5.64-4.84,13.67-17.82,54.37-30.11,60.58-7.04,3.56-26.49,7.68-22.61-6.18,1.02-3.66,5.2-4.94,4.81-8.65-1.72-.68-2.37-.2-3.69.89-3.34,2.75-6.24,9.58-5.48,13.76.09.5,2.07.61,1.3,2.42-10.24.89-17.87-4.52-10.53-14.14,1.3-1.71,6.37-4.27,4.21-6.29s-8.69,5.61-9.4,7.68c-1.07,3.14-1.2,6.93-.07,10.12-18.01-6.02-4.57-23.6,9.05-25.46,2.74-.37,9.36.49,11.01-.82,2.2-3.98,3.38-8.44,5.2-12.57.47-1.06,1.4-1.14,1.8-2.16,2.13-5.47,7.86-20.65,3.55-25.4-1.5-1.65-13.91-6.2-17.01-7.97-23.21-13.22-33.29-39.02-26.43-64.97.61-2.29,6.17-13.9,5.6-14.45l-3.17.12c-4.97,10.09-7.85,20.07-8.01,31.44-31.39-7.11-63.17-25.99-79.54-54.24,15.68-4.86,35.55-11.79,47.67-23.31,1.31-1.24,5.42-4.41,2.29-5.63-.9-.35-13.39,9.66-15.84,11.15-27.72,16.89-58.59,19.2-90.34,16.15-4.25-.41-15.46-3.49-18.28-3.13-1.85.23-10.78,6.32-14.77,7.58-3.73,1.18-9.46,2.69-13.14.97-8.9-4.16-6.95-13.21-1.15-19.2.36-.37,10.85-7.58,3.58-6.29-4.21.74-10.24,8.09-11.48,12.19-9.97-8.07-2.63-19.37,8.25-21.34,1.41-7.76-12.25,2.26-14.22,4.89-7.27-5.09,5.45-12.51,10.08-13.6,6.5-1.54,23.95.06,29.57,3.57,2.62,1.64,3.06,8.35,9.1,9.36,5.82.97,4.71-1.5,7.57-2.86,2.28-1.08,4.77-1.3,6.85-3.01,1.66-1.37,2.46-3.92,2.96-4.27,1.8-1.23,12.27-2.54,15.48-3.59,9.46-3.1,21.42-10.35,27.27-18.42,7.52,6.2,11.98,7.03,21.2,3.79,13.91-4.89,25.53-17.36,35.01-28.11l1.6,6.92c9.32,27.18,34.28-6.78,35.54-20.73,2.32,4,6.33,10.81,10.98,12.35,1.14.38,3.74-.12,4.1.18Z" fill="#fff"/>
  <path d="M430.44,264.84c-.33,0-1.75,1.83-1.64-.32,5.83-5.08,7.72-9.49-.53-13.29-8.99-4.15-23.75-1.73-32.37,2.74-1.68.87-5.82,4.72-6.21,4.76-1.01.09-5.49-2.75-7.29-3.05-18.26-3-31.98,16.49-20.68,31.84-5.57,2.33-10.61,3.61-15.1,7.9-1.78,1.7-4.58,6.78-6.09,7.78-3.03,2.01-11.75-.68-15.96-.88-4.89-.23-17.45-.95-21.04,1.95s-1.58,5.45-2.44,8.73c-1.93,7.32-4.27,11.49-3.07,19.81,1.26,8.78,6.76,6.58,8.36,8.4.87.98,1.41,9.55,5.4,10.75,2.66.99,6.89-5.99,7.3-8.16,7.58-2.88,4.08,10.11,11.48,10.44,5.21.23,3.85-10.79,7.49-12.49.95.58,1.82,18.38,1.18,20.56-.43,1.46-5.19,5.08-6.11,7.03-2.81-6.98-7.57-11.34-11.06-1.84-.51,1.38-.22,3.89-.54,4.39-.35.55-4.31.7-5.82,1.75-1.6,1.11-1.67,3.42-3.33,4.56-2.7,1.86-16.24,5.5-20.79,7.48-8.35,3.62-16.14,8.55-24.33,12.5l-21.91-18.77c-.2-1.32,2.09-6.37,2.7-8.2,5.62-16.76,1.67-26.9,2.54-43.61,1.12-21.47,21.49-43.02-4.76-60.27-9.38-6.16-45.49-13.52-56.63-11.62-29.47,5.01-28.01,35.26-44.89,47.8-4.65,3.46-11.05,5.18-15.92,8.4-8.36,5.53-18.14,17.1-6,24.25-5.37,4.08-6.95,12.24-6.57,18.73-1.62-1.34-6.91-2.04-7.76-3.74-1.63-3.28-4.18-20.46-4.64-24.94-1.4-13.62-.82-26.69,3.87-39.68,12.13,7.3,27.23.65,26.95-13.8,2.58.5,4.87.84,7.54.63,16.18-1.22,40.46-26.25,56.9-33.16,43.87-18.44,95.94,30.07,129.18,53.55.94.66,7.55,5.29,8.21,4.6l-1.3-3.43-36.15-27.79c20.84-17.4,40.04-37.15,62.61-52.42,49.49-33.49,73.28-21.91,119.14,8.07,15.12,9.89,30.4,21.13,44.1,32.86l-2.33,14.44c-14.64-6.59-12.77,11.18-7.22,19.06l-38.47,13.61-12.15-10.65c4.64-1.54,13.33-1.05,11.52-8.23-2.08-8.25-27-19.04-34.87-19.04-3.51,0-7.01-.04-10.52,0ZM280.86,377.23c.62-.39,2.16-13.13.33-14.45-2.23-.49-4.87,17.28-.33,14.45ZM272.09,368.27c-1.56-1.51-3.55-2.33-4.09.45.61,1.36,5.22,9.41,6.61,9.17,2.28-.39-1.21-8.34-2.53-9.62ZM287.41,377.86c.52-.33,6.03-10.68,3.64-11.14-2.38.7-7.38,9.4-5.6,10.86.38.41,1.65.48,1.96.28Z" fill="#fff"/>
  <path d="M4.08,343.05c25.1-2.65,52.26-.21,76.94,4.91,7.76,1.61,28.28,6.4,34.33,10.38,3.28,2.16,4.42,7.23,8.35,9.36-3.56,3.56-6.26,7.15-8.85,11.49-7.98,13.37-24.48,66.46-22.63,81.14.22,1.74,1.76,3.01,1.84,4.62.48,9.89-10.48,28.5-13.68,38.85-4.4,14.22-8.33,30.61-10.47,45.4-1.32,9.07-2.13,18.39-2.77,27.54l9.86,4.31c.4.6-.9,5.66-1.31,6.65-2.54,6.18-9.22,14.46-12.62,20.42-2.44,4.26-3.77,9.12-6.4,13.29l-52.59,3.62v-281.98ZM63.25,394.98c5.14,4.13,4.33-8.13,3.93-11.49-1.97-16.35-15.36,9.62-9.51,11.48,3.97,1.27.76-10.56,5.58-11.82v11.83ZM51.68,386.18c-.44-.48-5-6.08-4.78-1.49.04.74,7.38,12.39,8.14,12.24,3.68-.73-2.16-9.43-3.36-10.75ZM75.71,386.48c-4.16-3.75-10.07,9.82-6.87,10.45l6.87-10.45ZM61.29,437.05c-2.22-17.81-16.23-9.38-18.74,3.27-14.9-14.37-21.03,3.92-12.82,15.78l-6.55.35c-5.17,4.94-.51,14.23,4.56,17.76,8.07,5.61,33.21,4.56,42.09.62,10.94-4.86,23.79-31.75,1.99-27.27,2.28-9.36-.51-15.66-10.51-10.51ZM38.27,503.76c-.43,2.98.31,6.77,0,9.86.44.83,1.99,1.4,2.62.98.9-.6,1.82-13.03,1.98-15.12l-3.2.09c-.16,1.3-1.25,3.12-1.4,4.18ZM29.52,502.33c-.81-.59-1.64-.95-2.67-.82-3.63,1.26,2.37,5.5,2.88,6.37,1.66,2.85,1.94,6.33,4.27,8.68,3.73-.17-2.76-12.99-4.47-14.23ZM54.04,504.11c-2.65-4.15-11.35,10.39-7.54,11.15,1.59-1.04,8.18-10.16,7.54-11.15ZM39.82,561.51c-.74,1.63-2.78,13.27-.57,13.56,2.59-.56,5.02-13.06,4.91-14.84-.21-3.37-3.88.26-4.34,1.28ZM31.55,561.43c-.5-.27-2.31-.32-2.79-.15-1.9.66.94,2.33,1.14,2.81.9,2.19,3.11,13.33,4.74,12.97,2.92-.65-1.71-14.87-3.09-15.62ZM50.76,565.23c-1.47-1.67-8.4,7.87-4.92,9.85,1.53.33,5.72-8.94,4.92-9.85Z" fill="#fff"/>
  <path d="M590.54,281.93v198.5l-13.81.66c-.29-16.41-7.98-33.49-15.6-47.8-7.79-14.64-21.63-28.47-19.89-46.51.81-8.44,4.55-5.26,10.32-8.75,12.62-7.62,10.03-21.96,14.07-32.6,2.16-5.69,8.55-6.66,9.05-8.08,1.35-3.91-4.66-7.57-7.56-8.67-23.32-8.89-53.96,20.17-42.31,43.47.56,1.12,3.64,3.7,3.95,5.45.49,2.82-2.11,11-2.04,15.09.35,20.66,18.08,42.13,25.05,61.11,3.49,9.51,5.73,19.71,5.25,29.92l-52.56,7.56c-11.91-9.71-18.61-20.67-24.43-34.64-2.43-5.83-10.85-30.11-10.3-35.61.22-2.16,4.48-8.79,5.02-13.31.78-6.46.03-14.75-.58-21.29,19.65,14.67,16.47-18.85,14.15-29.6-1.45-6.7-4.82-12.6-6.92-19.04,21.19,6.28,6.85-16.38,2.88-24.9l-5.51-7.3c35.01-15.52,73.3-23.64,111.77-23.67ZM512.3,435.41v9.86c0,1.33-1.98,3.37,1.07,4.89,1.47.2,2.88-3.35,2.88-4.23v-10.52c-1.07-1.46-2.92-1.42-3.94,0ZM502.02,441.42c.23.4,1.39.72,1.89,1.7.77,1.52,2.16,8.15,4.11,7.73,3.54-.76-2.86-15.47-6.55-14.46-1.99,1.39-.34,3.5.55,5.03ZM519.38,450.04c.49-.28,7.26-8.28,4.41-9.04-2.11-.56-8.1,8-6.89,9.2.79-.06,1.74.25,2.48-.15Z" fill="#fff"/>
  <path d="M417.62,415.69c-.2-.62-1.17-1.29-2-.68-.42.31-4.09,7.6-5.22,9.05-7.95,10.14-30.26,30.26-44.09,26.5-5.2-1.42-7.6-9.11-7.85-13.85-.23-4.3,2.1-8.86,1.93-11.21-.13-1.77-1.79-1.81-3.2-1.52-1.74,6.15-16.97,23.62-22.74,23.63-7.33.01-8.63-12.79-8.2-18.09.17-2.14,3.12-10.2.96-10.86-2.01-.61-6.21,7.46-7.86,9.22-10.96,11.65-10.43-.27-8.33-9.64,1.89-8.41,5.95-14.94,11.94-20.96,14.68,4.72,29.11,6,42.38-2.95,6.86-4.63,10.68-6.88,17.87-11.05,22.48-13.06,40.5-32.71,36.47-60.82,10.51-6.58,18.96-11.73,17.68-25.74-1.41-15.44-23.39-19.89-34.21-10.5-2.61,2.26-3.32,5.38-6.36,6.74-9.38-4.1-19.77-5.17-29.99-5.23-14.34-13.18,1.53-34.67,18.68-26.51l-2.7,11.53c.67-.12,1.71.21,2.21.02s3.59-7.73,4.73-9.19c6.94-8.79,25.08-13.22,35.5-9.95,1.8.57,3.77,1.75,4.25,3.7.81,5.84-15.54,10.21-11.22,13.12,1.75,1.18,11.54-2.17,14.79-2.34,8.69-.45,18.28,2.43,26.02,6.24,11.51,5.66,22.96,14.52.39,14.25l-.99,3.41c3.47,2.83,7.53,5.22,10.77,8.31,6.07,5.78,14.55,16.92,17.26,24.81,5.24,15.27-1.76,11.76-10.79,4.84l-2.09,1.68c9.43,15.92,16.95,34.89,11.13,53.71-6.99,3.31-9.58-6.39-15.18-7.47-.93.73,1.8,12.45,1.95,14.8.37,5.55.56,26.39-7.53,26.66-8.63-2.72-9.75-12.75-13.17-19.76-1.72-.06-2.11,8.36-2.62,10.51-1.94,8.05-11.2,25.41-19.5,27.83-6.28,1.83-11.07-7.36-11.07-12.39,0-2.08.43-8.53,0-9.86Z" fill="#fff"/>
  <path d="M136.23,837.34l65.87-12.04c12.56-2.89,25.39-5.1,37.7-8.97,31.27-9.83,48.39-30.99,81.31-41.62,53.12-17.16,111.35-22.69,166.47-30.75l4.99,14.5c-28.79-12.46-40.39,16.97-21.05,35.83-.06,1.52-6.96.86-8.69,1.16-5.96,1.03-11.86,3.98-15.25,9.08-9.27,13.96,1.36,26.09,14.09,32.82H136.23ZM394.95,779.51c-1.76.58-3.65,14.58-1.31,15.11,1.11.25,1.38-.84,1.6-1.67.37-1.42,2.08-12.27,1.7-12.8-.53-.75-1.15-.73-1.99-.63ZM383.24,783.65c-1.64-1.38-3.31,0-2.99,1.93.15.92,8.34,16.05,8.5,8.07.02-1.14-4.77-9.37-5.51-10ZM399.22,795.93c.45.56,8.77-8.79,9.21-9.52.52-.86,1.25-.97,0-1.99-3.12-2.07-10.66,8.07-9.21,11.51ZM319.49,800.69c-3.49.59-11,4.71-7.36,9.01s25.18,4.93,27.01-1.27c-.61-8.34-13.17-8.84-19.65-7.75Z" fill="#fff"/>
  <path d="M590.54,689.45v147.89h-121.3c-2.68,0-15.45-8.87-17.42-11.51-9.52-12.71-1.22-25.92,13.45-27.3,3-.28,13.94,1.71,14.71.58,1.68-2.45-1.65-2.76-2.49-3.54-7.75-7.21-18.68-23.81-7.97-32.86,6.85-5.79,14.36-3.92,21.89-.79,1.56.65,5.34,4.56,6.78,2.47.86-1.25-4.76-12.37-5.32-15.1-3.9-18.82,8.86-31.35,25.66-19.08,2.11,1.54,9.77,11.14,10.54,11.14,2.32.02,1.38-13.83,1.66-16.07,1.02-8.29,4.75-16.65,10.74-22.45,9.06-8.78,19.16-7.92,25.75,3.02,1.18,1.95,1.22,6.95,4.52,5.98.48-.14,3-7.5,3.99-9.25,3.51-6.17,8.04-10.63,14.8-13.14ZM547.8,809.08c.34-13.84-9.33-16.06-13.82-3.29-.86.57-14.98-11.88-18.12-5.31-1.55,5.2,5.78,11.43,8.05,15.86,8.07-.84-5.34-9.19-4.39-13.83,4.77.49,8.48,3.08,11.46,6.61,1.08,1.29,1.65,5.28,3.98,4.55,1.06-.33,3.02-13.53,7.56-13.14,2,4.63,2.21,9.48,1.99,14.46,1.95,2.01,10.51-8.83,14.18-5.28,1.71,2.32-6.81,8.69-3.26,9.84,4.45,1.44,12.87-14.68.61-13.77-3.39.25-5.12,2.72-8.23,3.3Z" fill="#fff"/>
  <path d="M224.6,517.64c10.62,13.34,20.2,27.59,26.76,43.32-16.76,12.22-38.81,18.68-59.11,22.46-39.28,7.33-83.67,6.23-121.12-8.14-1.1-3.48,2.41-28.05,3.36-33.23.09-.5,1.11-.52,1.2-1.01,3.75-19.74,7-40.03,17.47-57.25,34.44,17.94,77,23.52,115.09,15.95,6.48,5.03,11.28,11.52,16.35,17.89ZM200,515.27c-.09-.09-2.09-.13-2.51.12-11.29,21.47-32.94,35.79-55.27,43.99l.22,2.6c.8,1.05,1.99.58,3.01.32,8.35-2.14,29-14.89,35.82-20.74,3.02-2.59,21.93-23.2,18.73-26.29Z" fill="#fff"/>
  <path d="M79.69,282.58c-9.39,1.03-12.98-4.51-15.53-12.45-1.71-.66-5.64,3.12-7.79,3.92-10.51,3.91-24.5-3.17-21.89-15.98.35-1.71,3.32-4.98,2.2-6.44-32.23-3.13-28.09-42.68,2.18-44.72-.72-5.12-4.64-7.93-5.56-13.7-3.2-20.17,15.97-34.58,33.91-25.96,1.76-2,2.11-4.75,3.64-6.9,14.2-20.01,56.8-10.17,49.67,19.55-2.45,10.22,6.98.46,12.11.11,9.16-.63,14.88,6.49,13.29,15.31-.51,2.85-3.51,3.21-2.39,6.33,8.3.17,12.04-2.33,19.86,2.82,13.74,9.04,9.6,28.29-4.34,34.87-2.17,1.02-5.49.28-6.92,2.8,2.2,3.58,6.01,3.97,6.96,8.71,2.24,11.2-8.95,19.39-19.24,19.29-3.37-.03-6.23-2.02-9.56-1.07-1.4.88.62,3.2.57,4.6-.37,10.17-10.41,15.1-19.4,10.99-5.75-2.63-1.52-3.55-.68-5.55,1.82-4.33,11.15-25.74,9.6-28.66-.95-.29-1.27-.83-2.24-.16-1.31.91-5.92,8.24-7.79,10.35-2.24,2.52-5.88,5.57-8.3,8.13.71-5.75-1.76-12.46-1.27-18.01s4.89-14.17,6.2-20.11c.46-2.1,2.78-11.14.65-11.83l-1.96.66-6.24,23-4.76-23.83-3.36-1.2-3.73,42.79-18.71-23.7-1.26-.58c-2.72,1.48-1.31,3.99-.53,6.33,2.34,7,12.61,24.07,12.61,30.11v10.19Z" fill="#fff"/>
  <path d="M237.38,387.86c.33.57.24,11.63.08,13.22-.05.45-1.22.49-1.27.93-.81,6.86-1.34,18.88-4.56,24.9-.27.51.4,1.23-1,.9-7.02-1.71-12.07-5.04-17.79-9.19-6.44-4.68-44.97-40.2-47.98-39.42-4.75,1.22,4.51,6.51,4.93,6.87,7.76,6.66,15.38,13.58,22.98,20.39-14.38,10.36-24.77,25.33-31.22,41.72-12.2-7.13-23.39-15.83-33.22-25.92-1.37-1.41-3.72-5.64-4.87-6.31-2.71-1.57-4.93-.88-3.04,2.21,5.41,8.85,24.86,24.3,34.02,29.91,17.94,10.98,39.31,19.89,60.02,23.8-3.87,5.32-5.5,7.25-12.23,8.46-26.6,4.78-69.11-1.02-94.07-11.63-4.49-1.91-12.07-4.64-12.71-9.64-.99-7.74,10.6-51.17,13.87-60.3,5.38-15.04,14.24-29.8,29.1-37.43,3.36-1.72,14.05-6.39,17.32-5.31.8.26,12.23,9.24,13.37,10.34,2.98,2.87,5,8.25,8.2,10.21,2.15,1.32,5.41,1.23,6.87,2.33,1.32,1,2.99,5.86,5.64,8.17,3.07,2.67,10.38,6.07,14.44,5.98,6.17-.14,2.71-1.49,9.18.64,8.45,2.78,16.32,1.85,21.41-6.31.54-.45,2.36.21,2.51.48Z" fill="#fff"/>
  <path d="M429.87,289.4c11.61,11.15-2.17,26.87-13.92,30.65,4.92,23.06-8.78,43.79-27.31,56.15-5.56,3.71-12.05,5.65-17.48,8.82-15.91,9.28-21.97,17.87-43.49,10.17-5.46-1.95-11.84-8.18-11.27-14.28.18-1.95,5.4-5.92,7.03-6.2,10.04-1.76,27.59,22.82,37,.24,7.39-17.74-2.23-37.37-22.15-38.2-13.58-.57-28.83,9.19-25.77-14.63,4.56-1.37,16.02-3.84,12.43-10.97l-6.6-5.55,23.22,2.53c9.92-21.9,39.04-19.98,56.63-9.73,2.56-.42,3.25-4.71,4.67-6.56,6.26-8.17,19.42-9.7,26.99-2.43ZM421.99,296.62c-4.67-4.15-16.91.85-16.09,5.25,1.11,5.97,7.66-7,12.78-2.92,3.34,2.66-.32,9.01-4.28,9.66-.06,5.2,8.08.01,8.86-2.33s.71-7.91-1.27-9.66ZM378.12,304.88c.45-.69.11-2.81-.98-3.16-3.7.47-16,5.48-18.9,4.45-.63-.22-1.25-.82-1.09-1.56l1.97-2.63c-5.65-3.4-8.74,7.44-.32,7.61,2.08.04,18.79-3.88,19.33-4.72ZM360.91,310.33c-6.99.79-8.08,14.67-.83,14.91,8.84.29,9.42-15.88.83-14.91Z" fill="#fff"/>
  <path d="M243.96,475.93c-1.52,4.16,2.37,7.73,2.73,10.14.48,3.23-.97,5.57,1.13,9.96,1.12,2.33,5.94,4.69,6.41,5.45,1.41,2.24.47,7.14,3.62,10.18,7.16,6.93,19.64,2.57,27.42-.88,1.89-.84,4.78-3.85,6.51-4.06,5.74-.72,22.63,3.55,30.16,3.97,12.93.72,26.85.06,39.49-2.68,1.88.22,9.3,12.49,8.86,13.16-10.02,3.07-20.28,5.56-30.21,8.91-9.65,3.26-40.43,13.9-46.01,21.05-7.64,9.8,3.94,12.8,6.56,19.66-.34,2.38-14.26,8.14-17.15,9.19-4.71,1.71-17,5.7-21.51,6.12-.86.08-1.62-.13-2.4-.44-.52-3.43-.84-6.84-1.75-10.22-.63-2.35-3.71-9.13-3.81-10.07-.16-1.6,1.52-2.22,1.1-4.92-1.08-7.06-20.63-36.32-25.9-43.18-5.95-7.74-13.2-14.5-19.35-22.08,1.32-4.4-.05-9.24,1.51-13.6,1.01-2.84,5.59-5.12,6.38-8.77l26.2,3.08ZM275.61,548.46v-11.17c0-.08-.95-1.31-1.32-.67-2.44,3.44-1.94,7.87-2.01,11.86.4,2.2,2.6,1.37,3.33-.02ZM263.13,540.25c-1.15,1.25,2.4,10.28,4.92,10.51,2.92-.59-2.93-12.66-4.92-10.51ZM283.24,544.59c.66-1.04,1.74-1.88,1.57-3.32-3.65-3.74-6.37,4.48-7.86,7.2.46,3.85,5.89-3.25,6.29-3.88Z" fill="#fff"/>
  <path d="M445.9,565.23c.61,2.71-1.95,2.32-3.32,3.58-4.95,4.57-11.99,12.46-12.95,19.26-1.81,12.84,10.73,16.72,5.41,30.38-1.83,4.68-30.6,42.06-34.84,45.36-5.12,3.98-17.74,8.63-24.04,6.95-4.64-1.24-3.82-8-2.07-11.38.19-.36,6.04-5.61,2.45-6.06-4.92-.62-9.06,12.67-6.25,16.4-12.66,2.49-16.36-11.29-5.92-16.44.61-.72-1.68-2.69-2.24-2.65-5.46.48-8.32,12.04-6.31,16.46-8.15,0-8.45-11.14-4.61-16.11,7.23-9.39,19.13-5.5,26.94-9.87,6.76-3.78,16.48-21.81,21.04-28.38-.08-1.51.34-3.59,0-4.97-.65-2.62-11.1-12.5-13.36-15.77-9.26-13.44-11.22-31.28-4.48-46.27,6.11-13.6,7.43-6.53,16.6-.6,14.61,9.43,30.61,17.26,47.94,20.11Z" fill="#fff"/>
  <path d="M317.31,448.61c1,1.87,2.79,4.21,2.03,6.84-3.1-1.46-6.68-11.15-10.44-9.8-3.2,1.15,4.28,7.92,5.63,10.01,1.42,2.22,3.98,7.09,3.6,9.48l-3.09,1.86c-2.06-4.16-2.99-11.45-8.52-12.19-1.15,1.22,11.41,18.51,0,19.05.15-3.77-1.62-10.69-6.57-10.51-.83.85,5.54,10.22,1.66,13.81-4.42,4.08-9.22-7.39-11.71-8.7-2.13-1.12-15.75-4.19-18.57-4.44-9.89-.89-19.13,1.38-26.36,8.36-28.1-1.68-55.45-8.04-79.72-22.58,5.37-16.08,16.15-31.57,30.49-40.85,1.04.09,13.83,11.63,16.14,13.27,17.68,12.55,43.64,16.05,63.57,24.53,14.21.22,32.59-15.56,41.86,1.86Z" fill="#fff"/>
  <path d="M590.54,183.33v82.82l-5.26.65c2.37-9.09-.34-13.08-9.86-10.52,1.89-10.9-3.34-15.39-12.49-7.89,5.56-33.66-18.99-13.42-21.71,3.95-.61.38-5.43-9.9-11.51-5.27-1.56,1.19-2.13,5.09-4.46,4.54l-24.81-18.68.64-2c25.11-22.95,54.85-43.08,89.46-47.61Z" fill="#fff"/>
  <path d="M251.22,566.59c6.28,13.33,5.09,29.74,4.69,44.34-.35,12.81-1.85,25.82-2.8,38.61-2.78,5.62-31.76,4.63-38.03,2.82.18-1.42-1.8-3.25-1.87-3.51-1.69-5.67-3.58-23.59-3.99-30.07-.72-11.55,2.45-24.79-3.3-35.15,6.84-1.53,13.74-3.27,20.35-5.63,8.7-3.1,16.51-7.83,24.95-11.42Z" fill="#fff"/>
  <path d="M127.03,590.86c-1.72,3.81-3.24,7.91-5.08,11.65-3.76,7.66-8.86,15.68-13.22,22.93-7.62,12.66-15.83,24.38-24.57,36.28-7.31-.9-15.4-2.38-22.01-5.67-1.89-.94-10.35-6.68-11.06-8.02-1.64-3.13,1.19-4.11,1.58-5.13,3.12-8.04,5.61-16.27,9.28-24.1,5.8-12.38,15.23-23.18,18.4-36.49,15.12,5.01,30.91,6.87,46.68,8.55Z" fill="#fff"/>
  <path d="M560.71,350.09c-.05.12-2.72.77.24.86.68,1.71-1.16,1.06-1.32,1.74-1.52,6.53-.47,10.3-4.7,16.88-6.02,9.37-15.53,4.9-16.92,15.96-2.6,20.68,14.56,37.97,23.12,54.99,6.02,11.97,12.84,31.46,13,44.81.31,25.17-13.08,48.47-38.82,54.27l-3.19-13.5c8.86-2.89,16.99-7.21,22.01-15.34,11.66-18.85,7.56-40.43.07-60.07-6.87-18.02-24.24-39.79-24.22-59.32,0-3.52,2.94-12.15,2.71-13.77s-4.97-7.45-5.65-10.85c-4.24-21.41,16.7-39.24,37.36-35.38,2.08.39,4.35,1.91,5.71,3.53.15,1-5.31,4.81-6.44,6.61-1.69,2.71-1.81,5.74-2.98,8.57Z" fill="#fff"/>
  <path d="M228.92,283.24c2.75,7.43,11.71,10.8,18.78,13.11.78,1.16-.03,3.45.31,4.83,1.9,7.7.82,7.26,0,14.07-1.16,9.64-1.76,19.33-5.29,28.46l-9.74-6.7c2.16-3.5-1.56-21.16-5.71-20.74-3.31.33.19,4.41.66,5.76,1.28,3.74,3.05,7.14,1.99,11.18-2.01,7.66-9.11,1.63-13.32.8-4.92-.97-11.9-.3-16.59,1.5-6.3,2.43-9.13,8.65-13.02-2.14s1.76-27.73,1.83-39.63c15.02,2.63,28.51-.92,40.09-10.51ZM212.83,300.99c-3.66-.45-8.07.33-11.83,0-4.79,6.46,10.57,7.95,14.46,7.93,9.94-.05,5.46-6.94-2.62-7.93ZM230.37,308.76c1,1.77,19.59,5.01,17.52-2.71-.86-3.22-14.49-3.07-17.35-1.15-.45.67-.56,3.17-.17,3.86ZM209.03,311.62c-3.88,1.11-6.66,10.69-.76,11.04,5.82.34,7.33-12.91.76-11.04ZM238.66,313.61c-7.17.51-6.24,10.3-2.13,11.04,6.32,1.14,10.48-11.64,2.13-11.04Z" fill="#fff"/>
  <path d="M97.66,267.93c.02.14.98.21,1.07.65.36,1.7-.46,3.75.33,5.47,1.9,2.84,8.94-6.87,10.45-8.32,1.05-1.01,3.03-2.54,4.35-3.2-6.89,14.02-13.44,29.29-14.43,45.38-.9,14.51,2.25,28.24,4.59,42.38l-26.95-6.57c2.93-20.59,7.12-43.26,6.57-64.13-.26-10.03-4.48-21.95-9.84-30.2,4.67.9,11.14,17.77,14.79,17.38.72-.08,1.24-.31,1.69-.88l3.22-39.17c.31,8.31,2.28,16.44,3.28,24.66.63,5.19.13,11.46.89,16.56Z" fill="#fff"/>
  <path d="M590.54,278.64c-24.06-.38-47.98,3.37-71.26,9.05-7.05-5.47-5.46-25.34,3.65-11.14.94.21,2.59.5,3.26-.27.7-.81.73-13.51,1.44-16.83,1.06-5,3.99-13.94,9.45-6.89,1.4,1.8,2.46,10.8,5.18,8.41,2.04-7.99,5.2-20.13,12.12-25.39,2.33-1.77,4.64-3.21,5.2.73,1.08,7.63-1.71,14.57-2.56,21.96l3.84-.11c1.78-4.63,5.41-9.89,10.85-9.79,4.24,3.22-3.2,11.97-1.88,13.86,1.5,2.16,4.69-1.67,6.26-2.32,10.26-4.27,5.3,5.89,2.64,10.51.46,2.11,9.84-1.31,11.84-.97v9.2Z" fill="#fff"/>
  <path d="M207.89,482.41l-1.34,14.42c-37.21,6.48-78.6,1.67-111.96-16.33l2.6-13.26c33.51,16.24,73.93,21.85,110.71,15.16Z" fill="#fff"/>
  <path d="M203.19,585.04c1.69,2.78,4.65,12.36,1.62,14.23l-85.67,15.9,12.31-24.33c24.04,1.74,48.14-1.64,71.74-5.8Z" fill="#fff"/>
  <path d="M279.27,414.98c8.63,6.58,15.8,13.99,27.9,12.2-.69,14.44,9.11,10.31,15.45,2.64,2.56,2.98-4.71,10.22-6.7,10.4-.63.06-4.58-2.66-6.61-3.01-10.05-1.74-21.91,3.74-31.51,6.24l-27.83-8.38,23.69-24.01,1.28-.02c1.3,1.49,2.76,2.74,4.33,3.94Z" fill="#fff"/>
  <path d="M52.5,305.82c4.71,4.63,2.43,16.98,4.17,19.16.38.47,1.98,1.25,2.66.71.53-3.54,8.36-11.56,9.22-4.67.31,2.48-2.12,6.33-.73,7.28l8.57-1.67-3.9,16.16c-10.4-1.33-20.82-2.76-31.28-3.66-9.56-.82-18.82,2.81-20.63-10.46,4.91-2.99,8.62,3.84,12.8,1.92,1.19-1.67-4.44-12.25.08-14.39,5.75-1.92,10.66,10.45,13.02,9.77,1.9-.55-.27-6.38-.34-8.19-.13-3.51-.5-18.69,6.36-11.95Z" fill="#fff"/>
  <path d="M557,487c.56,16.22-9.19,31.76-25.44,35.39l-1.17-.53c-5.52-10.33-14.08-18.77-22.68-26.64l49.29-8.22Z" fill="#fff"/>
  <path d="M234.87,429.78c1.28-7.25,4.3-14.03,5.15-21.42.74-6.49-.38-17.35.77-22.89.26-1.27,1.19-2.19,2.28-2.8,2.08-.15,28.15,23.8,27.89,25.69-7.06,9.55-16.17,17.31-25.6,24.46l-10.48-3.03Z" fill="#fff"/>
  <path d="M313.74,381.83c-.49,5.61,2.1,10.24,6.54,13.48-2.66,1.85-5.83,7.66-7.86,9.19-2.27,1.71-7.93,3.14-10.94,4.83-4.45,2.5-9.29,5.14-13.04,8.64l-18.72-16.75c4.2-3.95,42.02-21.49,44.03-19.39Z" fill="#fff"/>
  <path d="M258.51,672.35c-8.59,4.65-13.41,13.53-16.86,22.3-3.54-.16-25.88-4.9-26.54-6.96l1.34-14.67c8.59,2.74,16.83,2.09,25.53.23,5.14-1.1,13.75-6.85,16.53-.9Z" fill="#fff"/>
  <path d="M79.03,680.9c-13.83.27-26.3,5.83-34.52,17.08-1.91-2.88-9.13-7.73-9.53-10.89-.7-5.47,6.89-15.61,7.89-21.31,5.85,4.47,12.31,8.57,19.57,10.33,5.53,1.34,13.68-.06,16.58,4.78Z" fill="#fff"/>
  <path d="M252.6,665.46c-10.52,5.17-25.63,9.19-36.5,2.96l-.64-12.51c6.96,1.19,14.65,1.81,21.71,1.35,4.74-.31,11.18-2.66,15.1-2.66,2.06,0,.33.62.33,1v9.86Z" fill="#fff"/>
  <path d="M355.58,447.32c-1.46,2.02-10.77,9.21-13.24,10.76-6.3,3.95-13.53,6.17-20.71,7.88,1.96-8.39,1.78-15.1-2.61-22.69l3.61-4.25,4.56,9.23c9.51,9.35,22.4-8.47,28.62-14.49-1.12,4.53,2.3,10.06-.23,13.56Z" fill="#fff"/>
  <path d="M100.08,707.2c.71-2.41-6.87-10.76-8.22-10.51-4.66.87,11.7,13.49-.36,12.88-1.53-4.21-3.08-7.06-6.88-9.58-3.3,2.93,4.18,7.66,3.55,10.12l-6.5,1.7c.17-3.11-1.95-10.49-5.63-10.47-5.3.03,4.55,6.68,2.34,10.47-6.21.35-13.21-.75-18.38-4.27,6.01-8.49,20.98-14.61,31.2-14.2,1.55.06,12.02,5.63,12.49,6.63,1.67,3.57-.1,6.33-3.6,7.23Z" fill="#fff"/>
  <path d="M297.3,697.34c1.11,7.63-11.81,10-17.43,10.5-11.76,1.05-45.28-3.95-57.14-7.25-5.13-1.43-8.31-3.17-8.25-9.16,14.01,4.2,30.06,8.26,44.56,10.33,13.62,1.94,25.92,2.58,38.27-4.42Z" fill="#fff"/>
  <path d="M76.26,674.19c-4.58,2.26-29.03-5.58-31.28-12.54l3.82-10.32c9.58,7.45,20.07,12.14,32.22,13.46l-4.76,9.4Z" fill="#fff"/>
  <path d="M295.11,689.01c.57,1.06,1.41,6.37-.75,5.7-2.95-3.97-8.59-11.65-14.14-8.2,3.81,3.56,9.28,4.49,11.17,10.16-5.22,2.98-4.3-1.3-7.94-4.21-1.94-1.55-10.89-6.52-9.51-1.01,1.65,1.39,3.76,1.15,5.59,2.3.9.57,5.78,4.35,3.99,5.25-2.96.57-5.87,1.06-8.92.99-1.88-.04-13.87-1.52-14.07-2.38,1.42-5.87,4.32-10.79,9.47-14.1.74-.48,7.62-3.75,8.06-3.8,3.49-.39,15.37,6.19,17.05,9.29Z" fill="#fff"/>
  <path d="M83.89,685.25c2.23,1.4,4.83,3.29,6.32,5.51-12.11.17-26.76,4.58-32.89,15.78l-9.75-6.33c7.23-12.03,20.58-15.56,33.82-16.72,1.7-.43,1.92,1.39,2.5,1.75Z" fill="#fff"/>
  <path d="M260.23,689.85c-1.75,2.9-3.01,4.61-4.06,8.08l-10.8-2.58c2.76-8.75,9.01-18.67,17.97-22.19l10.94,4.78c-7.14,2.51-10.25,5.62-14.05,11.9Z" fill="#fff"/>
  <path d="M33.02,691.42c18.93,22.1,45.02,31.18,72.3,17.41-1.76,5.71-9.69,7.73-14.95,8.71-14.1,2.64-27.42,1.67-39.8-5.88-7.03-4.28-16.82-11.53-17.55-20.24Z" fill="#fff"/>
  <path d="M169.03,329.83c-13.89,2.28-14.48-21.41-3.4-22.78s3.79,17.35,3.4,22.78Z" fill="#fff"/>
  <path d="M359.72,361.5c.12,6.77-2.12,20-11.13,19.02,1.66-11.98-8.88-19.84-11.18-3.95l-3.93-2.35c4.99-9.04,16.01-14.84,26.24-12.73Z" fill="#fff"/>
  <path d="M310.8,408.8l-4.24,14.83c-2.06,1.47-15.25-2.55-15.15-4l19.39-10.83Z" fill="#fff"/>
  <path d="M302.72,336.33c-2.45-2.43-1.22-18.2.19-18.26l6.14,4.4.79,12.35c-.42,2.75-5.69,2.92-7.11,1.51Z" fill="#fff"/>
  <path d="M167.36,357.97c.04.18,1.9,1.8,1.73,3.17-.3,2.27-9.86-7.63-11.15-7.9l8.86-14.14c.12,6.32-.88,12.58.55,18.87Z" fill="#fff"/>
  <path d="M331.83,340.44c2.43,1.08-.03,9.1-1.32,9.17-5.1-3.59-5.33-7.56,1.32-9.17Z" fill="#fff"/>
  <path d="M343.88,372.11c.94.58,2.7,7.13,2.08,7.75-6.9-.83-6.52-2.51-3.91-7.87.59.02,1.29-.21,1.83.12Z" fill="#fff"/>
  <path d="M310.46,339.11c5.16,1.45,5.84,4.68,2.3,8.53-3-2.27-3.32-5.11-2.3-8.53Z" fill="#fff"/>
  <path d="M328.51,369.06c.53.84,1.65.82,1.01,2.91-4.16.46-6.37-1.29-3.61-5.25,2.11-.41,1.85,1.16,2.59,2.33Z" fill="#fff"/>
  <path d="M253.25,305.58l-1.96-13.14c-9,.17-21.07-6.39-20.39-16.43-1.85-1.15-4.12,3.71-5.33,4.85-8.01,7.55-19.58,11.06-30.52,10.29-4.68-.33-8.27-2.4-12.8-2.65-1.2,3.59,3.16,3.06,3.35,4.92-1.05,13.57-7.08,31.8-.41,44.39,6.71,12.65,9.04,3.65,16.62.82,12.01-4.49,16.12,2.13,25.43,1.76,1.14-.05,2.18-1.26,3.21-1.14,2,.24,11.01,9.82,11.88,9.68l5-7.19c1.15,13.09,0,28.6-8.22,39.42.57-2.78-.3-5.18-3.55-4.53-1.23,7.49-5.28,14.46-13.55,15.04-5.66.4-8.42-1.21-9.86-6.56-10.29,10.14-22.99-.12-25.79-11.68-.57-2.33.6-9.53-3.35-5.64l-.11,6.79c-12.73-4.29-12.64-24.7-11.82-35.81.58-7.78,7.02-26.58,2.63-32.24-7.8-10.06-26.38,5.4-18.4,19.56,1.71,3.03,6.85,5.59,9.68,7.39-1.64,5.02-3.73,10.89-7.38,14.84-4.92,5.32-11.73,5.72-18.24,8.72-4.45,2.05-9.18,4.99-12.78,8.3-9.16-6.86-9.18-17.38-2.5-26.2,1.01-1.33,4.3-2.6,4.26-4.32-.07-2.6-3.78-1.08-5.3-1.95-.19-.11-2.53-3.24-2.59-3.44-.62-2.29.8-4.96,2.04-6.98,5.7-9.28,17.47-10.96,25.23-17.51,14.56-12.29,15.16-37.3,37.15-44.37,14.1-4.53,56.82,3.8,66.38,15.76,6.06,7.57,4.24,20.57,1.96,29.24ZM204.83,346.79c4.05,5.17,18.75,9.6,24.09,5.12,1.43-1.2,2.07-2.29.33-3.6-6.13,3.03-11.72,2.09-17.62-.77-1.7-.82-4.18-3.72-5.41-3.84-2.41-.25-2.71,1.42-1.4,3.1Z" fill="#fff"/>
  <path d="M150.7,76.19c13.93-9.93,36.33-.86,33.53,17.74,10.69-3.06,24.02,3.08,20.72,15.8-2.35,9.08-21.51,8.88-28.97,9.21-37.52,1.65-89.88,2.61-126.89-.66-9.03-.8-19.77-2.81-18.44-14.5,1.2-10.49,11.39-14.32,20.76-11.81,1.14-8.51,8.84-16.03,17.12-18.72,7.77-2.52,12.59-1.47,19.7,2.28,3.58-34.69,62.12-36.22,62.47.66ZM143.74,64.74c-10.53-16.88-36.88-15.26-47.91.31-3.86,5.45-3.58,11.22-5.31,17.06-8.78-5.65-11.69-8.85-22.46-4.72-8.99,3.45-11.96,9.9-13.99,18.9-6.77-2.84-17.37-2.29-19.34,6.27-2.38,10.37,7.6,11.77,15.67,12.43,43.85,3.57,92.46-2.75,136.81,0,9.51,1.76,19.94-8.97,10.83-16.15-6.25-4.93-16.4.61-17.15.05-1.59-5.09,1.39-8.52-1.1-13.99-3.95-8.67-16.98-11.86-25.11-7.03-1.44.86-8.4,9.99-8.63,3.27-.25-7.56,2.47-8.73-2.33-16.42Z"/>
  <path d="M572.46,75.53c13.28,2.09,11.92,21.47,1.22,27.51-9.5,5.36-47.53,4.5-60.36,4.72-23.1.39-48.07.85-71.06,0-7.07-.26-27.17-.11-30.81-6.66-6.71-12.08,17.14-25.17,27.22-19.66,2.09-14.99,19.41-19.3,31.56-12.5.67-22.09,29.8-39.21,48-24.65,4.12,3.3,9.14,10.09,9.2,15.45,13.93-10.02,38.2-3.85,35.5,15.78,2.96.32,6.7-.45,9.53,0ZM524.22,65.59c-.41-.52-1.69-9.94-3.24-12.86-10.02-18.82-40.03-8.35-45.83,10.32-.8,2.57-1.74,12.45-2.25,12.87-2.01,1.64-5.33-3.57-7.73-4.86-10.78-5.79-23.78,2.44-23.23,14.35-7.69-2.6-20.13-1.49-25.26,5.3-8.09,10.71,4.37,12.55,12.42,13.12,34.2,2.44,80.38,1.25,115.1,0,8.13-.29,22.27-.12,28.79-4.74,5.36-3.79,8.43-13.01,3.02-17.91-5.76-5.22-14.69-.03-16.77-1.63-1.49-2.99.39-6.98-.41-10.77-2.25-10.56-17.11-12.39-25.43-7.96-2.25,1.2-7.07,7.5-9.19,4.77Z"/>
  <path d="M260.26,151.36c3,3.44,4.15,9.09,4.18,13.57,5.58-1.88,9.53-2.95,15.16-.37,9.03,4.14,9.35,16.49-.81,19.65-8.85,2.75-64.06,2.06-75.81,1.08-5.05-.42-14.8-1.75-16.34-7.33-4.23-15.39,19.84-25.64,31.1-16.98,3.37-17.4,31.77-21.93,42.51-9.63ZM259.45,158.76c-5.99-17.25-34.31-12.43-38.25,2.71-.54,2.07.65,4.63-1.15,6.08-1.88.58-3.16-3.09-4.98-4.21-3.88-2.4-10.83-2.12-15.05-.7-6.68,2.25-15.49,13.93-5.74,17.53,6.83,2.52,47.09,1.88,57.31,1.78,5.35-.05,25.5-.13,28.58-2.28,5.78-4.04.22-13.61-7.49-13.45-3.95.08-11.22,5.71-13.11,4.02-.09-3.16,1.66-6.17.97-10.29-.18-1.07-1.01-.99-1.09-1.21Z"/>
  <path d="M110.42,746.8c1.44,1.3.59,11.01.18,13.21-.13.72-1.38.16-1.34.76,2.89,1.01.28.72.04,1.48-.31,1-1.05,5.58-.68,6.08,5.47-2.01,9.16-9.3,15.78-7.56,5.23,3.52-5.25,19.2-4.6,20.05,30.43-7.17,11.82,9.01,1.54,19.01l-2.58-3.25,13.51-13.46c-.28-3.77-16.89,2.48-18.21,5.51-.96.31-2.15-.45-2.52-1.25-.58-1.23,11.61-18.99,10.88-22.99-1.84-1.91-12.7,8.1-14.11,9.88s-3.85,9.57-5.96,6.56c-1.03-1.48,3.74-17.21,4.2-20.81.23-1.8.91-7.69.77-9.11-.27-2.6-4.49,1.72-5.27,2.64-5.82,6.85-7.01,15.91-10.22,23.97-2.56.6-3.51-9.78-4.34-11.95-.29-.77-6.06-10.38-7.15-9.08-.44,3.84-.89,7.58-.65,11.48.18,2.82,4.12,17.32,1.6,18.09-3.92-2.02-6.16-5.21-10.38-7.34-3.06-1.54-5.62-2.46-8.98-3.18-1.48,1.9,14.89,17.32,12.48,19.71-.39.39-2.3-.13-3-.61s-10.96-12.83-11.36-13.62c-1.28-2.51-2.17-5.38-.59-7.98,2.41-2.62,16.37,4.16,18.89,6.43-1.69-4.83-2.9-24.25.17-27.45,2.16-2.25,8.43,5.02,9.59,6.83,1.28,2,1.63,4.74,2.67,6.55.35.61-.33,1.28,1.37.93-.67-5.66,12.2-25.02,18.25-19.55Z"/>
  <path d="M178.18,724.41c4.84-.17,22.31,5.52,16.88,13.01-3.42,4.72-27.05,3.4-30.91.05-7.28-6.31,9.26-12.89,14.04-13.06ZM175.52,728.41c-2.6.38-12.5,3.84-7.95,6.95,3.53,1.96,24.04,3.1,25.16-.3,1.67-5.12-13.63-7.17-17.21-6.64Z"/>
  <path d="M422.77,702.76c4.26-.18,16.85,2.85,13.57,9.03-2.28,4.31-23.65,6.95-25.18-1.12-.78-5.36,7.63-7.74,11.6-7.92ZM433.4,709.18c-5.52-3.58-14.71-5.28-19.04.98,4.27,3.37,13.63,2.96,18.12.39.61-.35,1.28.33.92-1.37Z"/>
  <path d="M571.13,650.35c2.7,3.85.67,5.62-3.44,6.73-4.55,1.23-22.45,1.01-17.53-7.01,3.3-5.37,17.6-4.52,20.98.28ZM568.18,653.29c-2.29-5.07-11.37-3.47-15.77-1.95-1.73,1.73,7.54,3.19,8.33,3.22,2.59.08,4.97-.74,7.44-1.26Z"/>
  <path d="M329.98,732.36c.57.59.72,1.32.75,2.11,0,2.95-6.29,4.54-8.85,4.86-21.56,2.65-17.73-13.99,1.73-9.47.97.22,5.95,2.07,6.36,2.5ZM326.24,734.8c-1.58-3.53-15.81-2.88-15.76-.32,4.45,3.05,10.96,1.63,15.76.32Z"/>
  <path d="M288.59,614.68c14.52-2.11,19.69,10.82.61,10.09-12.43-.47-11.6-8.5-.61-10.09ZM297.96,619.13c-1.72-1.88-13.3-2.4-13.8,1.96,1.01.98,11.24.08,12.89-.57.87-.35,1.13.21.9-1.38Z"/>
  <path d="M150.57,646.23c2.54-.2,10.14.45,10.68,3.47,1.48,8.35-23.97,7.48-19.15-.07,2.03-1.91,5.76-3.19,8.47-3.4ZM157.93,651.32c-3.31-3.08-8.1-1.36-11.83-.64,2.93,3.5,8.11,1.61,11.83.64Z"/>
  <path d="M567.41,543.03c2.84-.18,9.47.97,9.33,4.71-.54,5.65-15.1,5.21-17.79,2.73-4.2-3.88,5.34-7.24,8.46-7.44ZM572.78,546.82c-2.59.09-9.19-1.51-9.86,1.96,2.25,0,4.47.13,6.71-.19,1.05-.15,3.67-.01,3.14-1.77Z"/>
  <path d="M31.91,744.88c4.37-4.01,18.61-2.89,17.44,3.31-.75,4-16.35,4.43-18.68.41-.67-1.16.45-3,1.24-3.73ZM34.99,747.95c1.47-.21,9.84.71,9.84-.98-1.14-3.39-12.2-.39-9.84.98Z"/>
  <path d="M342.55,563.14c-1.34,2.32-14.8,3.61-14.99-1.47-.23-6.16,18.99-5.48,14.99,1.47ZM338.07,560.63c-1.9.15-5.47-.68-6.57,1.3,2.03-.27,5.44.98,6.57-1.3Z"/>
  <path d="M213.43,768.58c.84-1.71,2.97-2.17,3.38.04.12.65-.9,12.46-1.13,13.07-.55,1.44-2.79,1.56-3.55.46-1.23-1.79.17-11.29,1.3-13.58Z"/>
  <path d="M202.38,777.12c-1.26-1.85-4.83-3.7-4.34-6.82,4.62-1.82,13.1,12.68,9.52,13.79-1.91.59-3.96-5.17-5.18-6.97Z"/>
  <path d="M226.76,773.07l2.16,1.51c-2.91,1.1-7.4,10.12-9.51,9.53-3.3-.93,4.31-11.41,7.35-11.04Z"/>
  <path d="M564.89,581v10.85c0,2.37-3.29,1.8-3.29.66v-9.86c0-.26.65-1.07.78-1.53l2.51-.12Z"/>
  <path d="M576.07,582.97c1.08,1.17-5.65,12.02-7.88,9.85.26-4.79,2.78-9.31,7.88-9.85Z"/>
  <path d="M552.75,583.62c3.35-.53,8.13,10.53,5.23,11.17-1.5.33-4.79-6.92-5.37-8.42-.25-.65-1.41-2.51.14-2.75Z"/>
  <path d="M280.86,377.23c-4.54,2.83-1.9-14.94.33-14.45,1.83,1.33.3,14.06-.33,14.45Z"/>
  <path d="M272.09,368.27c1.32,1.28,4.8,9.23,2.53,9.62-1.39.24-6-7.81-6.61-9.17.53-2.78,2.53-1.96,4.09-.45Z"/>
  <path d="M287.41,377.86c-.31.2-1.58.13-1.96-.28-1.78-1.46,3.21-10.16,5.6-10.86,2.39.46-3.12,10.81-3.64,11.14Z"/>
  <path d="M61.29,437.05c10-5.16,12.79,1.15,10.51,10.51,21.8-4.48,8.96,22.42-1.99,27.27-8.88,3.94-34.02,4.99-42.09-.62-5.07-3.52-9.73-12.82-4.56-17.76l6.55-.35c-8.2-11.86-2.08-30.15,12.82-15.78,2.51-12.65,16.53-21.08,18.74-3.27ZM55.82,430.67c-7.36-6.04-10.57,17.92-11.97,18.21-3.42-2.68-5.42-10.15-10.52-10.43-9.83,2.25,3.36,21.11,2.97,22.58-.68,2.56-4.31-1.08-5.23-1.33-1.36-.37-5.64-.7-6.64,0-3.28,19.18,34.84,16.79,44.53,11.66,5.96-3.16,12.23-12.98,11.06-19.84-2.6-4.35-10.85,2.28-12.21.36-1.26-1.78,4.4-11.45.25-12.78-5.35-1.72-6.53,8.35-9.44,6.2-1.29-.95,1.37-11.2-2.8-14.62Z"/>
  <path d="M63.25,394.98v-11.83c-4.82,1.26-1.61,13.09-5.58,11.82-5.85-1.86,7.54-27.83,9.51-11.48.4,3.35,1.21,15.62-3.93,11.49Z"/>
  <path d="M39.82,561.51c.46-1.02,4.13-4.65,4.34-1.28.11,1.77-2.32,14.28-4.91,14.84-2.21-.29-.17-11.92.57-13.56Z"/>
  <path d="M38.27,503.76c.15-1.06,1.24-2.88,1.4-4.18l3.2-.09c-.16,2.09-1.08,14.52-1.98,15.12-.63.41-2.18-.15-2.62-.98.31-3.09-.43-6.88,0-9.86Z"/>
  <path d="M51.68,386.18c1.2,1.32,7.05,10.02,3.36,10.75-.77.15-8.11-11.5-8.14-12.24-.22-4.59,4.34,1.01,4.78,1.49Z"/>
  <path d="M29.52,502.33c1.72,1.24,8.2,14.06,4.47,14.23-2.33-2.35-2.61-5.83-4.27-8.68-.51-.87-6.5-5.12-2.88-6.37,1.04-.13,1.86.23,2.67.82Z"/>
  <path d="M31.55,561.43c1.38.75,6.01,14.97,3.09,15.62-1.62.36-3.83-10.78-4.74-12.97-.19-.47-3.04-2.14-1.14-2.81.48-.17,2.28-.12,2.79.15Z"/>
  <path d="M54.04,504.11c.63.99-5.95,10.12-7.54,11.15-3.81-.77,4.9-15.31,7.54-11.15Z"/>
  <path d="M75.71,386.48l-6.87,10.45c-3.2-.64,2.71-14.2,6.87-10.45Z"/>
  <path d="M50.76,565.23c.81.92-3.38,10.18-4.92,9.85-3.48-1.98,3.45-11.52,4.92-9.85Z"/>
  <path d="M512.3,435.41c1.02-1.42,2.88-1.46,3.94,0v10.52c0,.88-1.41,4.44-2.88,4.23-3.04-1.52-1.07-3.56-1.07-4.89v-9.86Z"/>
  <path d="M502.02,441.42c-.9-1.54-2.54-3.64-.55-5.03,3.68-1.02,10.09,13.69,6.55,14.46-1.95.42-3.33-6.21-4.11-7.73-.49-.97-1.66-1.3-1.89-1.7Z"/>
  <path d="M519.38,450.04c-.73.41-1.68.1-2.48.15-1.22-1.19,4.78-9.76,6.89-9.2,2.86.76-3.92,8.77-4.41,9.04Z"/>
  <path d="M319.49,800.69c6.48-1.1,19.04-.59,19.65,7.75-1.82,6.2-23.26,5.7-27.01,1.27s3.87-8.42,7.36-9.01ZM335.44,808.42c-2.16-7.56-14.61-4.91-20.38-2.61-1.84,2.78,6.79,3.74,8.31,3.84,4.53.31,7.76-.46,12.08-1.23Z"/>
  <path d="M383.24,783.65c.74.63,5.53,8.86,5.51,10-.16,7.98-8.34-7.15-8.5-8.07-.32-1.94,1.35-3.31,2.99-1.93Z"/>
  <path d="M394.95,779.51c.84-.1,1.46-.12,1.99.63.38.53-1.33,11.38-1.7,12.8-.22.83-.49,1.92-1.6,1.67-2.33-.53-.44-14.52,1.31-15.11Z"/>
  <path d="M399.22,795.93c-1.45-3.43,6.09-13.58,9.21-11.51,1.25,1.02.53,1.14,0,1.99-.45.73-8.77,10.07-9.21,9.52Z"/>
  <path d="M547.8,809.08c3.11-.57,4.84-3.05,8.23-3.3,12.26-.9,3.84,15.21-.61,13.77-3.54-1.14,4.98-7.51,3.26-9.84-3.67-3.56-12.23,7.29-14.18,5.28.22-4.98.01-9.83-1.99-14.46-4.54-.39-6.5,12.81-7.56,13.14-2.33.73-2.89-3.27-3.98-4.55-2.97-3.53-6.68-6.12-11.46-6.61-.95,4.64,12.45,12.99,4.39,13.83-2.27-4.43-9.6-10.66-8.05-15.86,3.13-6.56,17.26,5.88,18.12,5.31,4.49-12.77,14.17-10.56,13.82,3.29Z"/>
  <path d="M200,515.27c3.2,3.09-15.72,23.69-18.73,26.29-6.81,5.85-27.47,18.6-35.82,20.74-1.02.26-2.21.72-3.01-.32l-.22-2.6c22.32-8.2,43.98-22.52,55.27-43.99.42-.25,2.42-.2,2.51-.12Z"/>
  <path d="M204.83,346.79c-1.31-1.68-1.02-3.35,1.4-3.1,1.23.13,3.71,3.02,5.41,3.84,5.9,2.86,11.49,3.8,17.62.77,1.74,1.31,1.1,2.4-.33,3.6-5.34,4.48-20.03.05-24.09-5.12Z"/>
  <path d="M360.91,310.33c8.59-.97,8.01,15.2-.83,14.91-7.25-.24-6.16-14.12.83-14.91Z"/>
  <path d="M421.99,296.62c1.97,1.75,2.05,7.3,1.27,9.66s-8.91,7.53-8.86,2.33c3.97-.65,7.62-7,4.28-9.66-5.12-4.07-11.67,8.9-12.78,2.92-.82-4.41,11.42-9.4,16.09-5.25Z"/>
  <path d="M378.12,304.88c-.54.84-17.26,4.76-19.33,4.72-8.41-.17-5.33-11.01.32-7.61l-1.97,2.63c-.15.73.46,1.33,1.09,1.56,2.9,1.03,15.2-3.99,18.9-4.45,1.09.35,1.42,2.47.98,3.16Z"/>
  <path d="M275.61,548.46c-.73,1.39-2.93,2.21-3.33.02.07-4-.43-8.42,2.01-11.86.37-.64,1.32.59,1.32.67v11.17Z"/>
  <path d="M283.24,544.59c-.4.63-5.83,7.73-6.29,3.88,1.49-2.72,4.21-10.94,7.86-7.2.17,1.44-.9,2.28-1.57,3.32Z"/>
  <path d="M263.13,540.25c1.99-2.15,7.84,9.92,4.92,10.51-2.52-.23-6.07-9.26-4.92-10.51Z"/>
  <path d="M212.83,300.99c8.08,1,12.56,7.89,2.62,7.93-3.88.02-19.25-1.48-14.46-7.93,3.76.33,8.17-.45,11.83,0Z"/>
  <path d="M230.37,308.76c-.39-.69-.28-3.2.17-3.86,2.86-1.92,16.49-2.07,17.35,1.15,2.06,7.72-16.52,4.48-17.52,2.71Z"/>
  <path d="M238.66,313.61c8.34-.59,4.19,12.18-2.13,11.04-4.11-.74-5.03-10.54,2.13-11.04Z"/>
  <path d="M209.03,311.62c6.57-1.87,5.06,11.38-.76,11.04-5.9-.35-3.13-9.93.76-11.04Z"/>
  <path d="M143.74,64.74c4.8,7.69,2.07,8.86,2.33,16.42.23,6.72,7.19-2.41,8.63-3.27,8.13-4.83,21.16-1.65,25.11,7.03,2.49,5.47-.49,8.9,1.1,13.99.74.56,10.89-4.99,17.15-.05,9.11,7.18-1.32,17.92-10.83,16.15-44.34-2.76-92.96,3.56-136.81,0-8.07-.66-18.05-2.06-15.67-12.43,1.96-8.56,12.57-9.12,19.34-6.27,2.03-9,5-15.45,13.99-18.9,10.77-4.13,13.67-.93,22.46,4.72,1.73-5.84,1.45-11.61,5.31-17.06,11.03-15.57,37.38-17.19,47.91-.31Z" fill="#fff"/>
  <path d="M524.22,65.59c2.12,2.73,6.93-3.58,9.19-4.77,8.33-4.43,23.19-2.6,25.43,7.96.81,3.78-1.08,7.78.41,10.77,2.08,1.61,11.01-3.58,16.77,1.63,5.41,4.9,2.34,14.12-3.02,17.91-6.53,4.62-20.66,4.44-28.79,4.74-34.72,1.25-80.9,2.44-115.1,0-8.05-.57-20.52-2.41-12.42-13.12,5.13-6.79,17.57-7.91,25.26-5.3-.55-11.91,12.45-20.14,23.23-14.35,2.4,1.29,5.71,6.49,7.73,4.86.51-.41,1.45-10.29,2.25-12.87,5.8-18.66,35.81-29.13,45.83-10.32,1.55,2.92,2.83,12.34,3.24,12.86Z" fill="#fff"/>
  <path d="M259.45,158.76c.08.22.91.13,1.09,1.21.69,4.12-1.06,7.13-.97,10.29,1.89,1.69,9.16-3.94,13.11-4.02,7.71-.16,13.27,9.41,7.49,13.45-3.09,2.16-23.23,2.24-28.58,2.28-10.22.09-50.47.74-57.31-1.78-9.76-3.6-.94-15.29,5.74-17.53,4.22-1.42,11.16-1.71,15.05.7,1.82,1.12,3.1,4.79,4.98,4.21,1.8-1.45.61-4.01,1.15-6.08,3.94-15.14,32.26-19.96,38.25-2.71Z" fill="#fff"/>
  <path d="M175.52,728.41c3.58-.52,18.88,1.53,17.21,6.64-1.11,3.41-21.62,2.27-25.16.3-4.55-3.11,5.35-6.57,7.95-6.95Z" fill="#fff"/>
  <path d="M433.4,709.18c.35,1.69-.31,1.02-.92,1.37-4.48,2.57-13.85,2.98-18.12-.39,4.33-6.26,13.52-4.56,19.04-.98Z" fill="#fff"/>
  <path d="M568.18,653.29c-2.48.52-4.85,1.34-7.44,1.26-.79-.02-10.06-1.48-8.33-3.22,4.41-1.52,13.48-3.11,15.77,1.95Z" fill="#fff"/>
  <path d="M326.24,734.8c-4.8,1.31-11.31,2.73-15.76-.32-.05-2.56,14.19-3.21,15.76.32Z" fill="#fff"/>
  <path d="M297.96,619.13c.23,1.59-.03,1.04-.9,1.38-1.66.66-11.88,1.56-12.89.57.5-4.36,12.07-3.83,13.8-1.96Z" fill="#fff"/>
  <path d="M157.93,651.32c-3.73.97-8.9,2.86-11.83-.64,3.73-.72,8.52-2.44,11.83.64Z" fill="#fff"/>
  <path d="M572.78,546.82c.52,1.76-2.1,1.62-3.14,1.77-2.24.32-4.47.2-6.71.19.67-3.48,7.27-1.88,9.86-1.96Z" fill="#fff"/>
  <path d="M34.99,747.95c-2.36-1.37,8.7-4.37,9.84-.98,0,1.69-8.37.77-9.84.98Z" fill="#fff"/>
  <path d="M338.07,560.63c-1.13,2.28-4.54,1.03-6.57,1.3,1.1-1.98,4.67-1.15,6.57-1.3Z" fill="#fff"/>
  <path d="M55.82,430.67c4.17,3.42,1.51,13.67,2.8,14.62,2.91,2.15,4.09-7.92,9.44-6.2,4.15,1.33-1.52,11-.25,12.78,1.36,1.92,9.61-4.72,12.21-.36,1.17,6.87-5.1,16.68-11.06,19.84-9.69,5.13-47.81,7.53-44.53-11.66,1-.69,5.27-.36,6.64,0,.93.25,4.55,3.88,5.23,1.33.39-1.47-12.8-20.33-2.97-22.58,5.1.28,7.1,7.75,10.52,10.43,1.41-.29,4.62-24.25,11.97-18.21Z" fill="#fff"/>
  <path d="M335.44,808.42c-4.32.77-7.54,1.54-12.08,1.23-1.51-.1-10.15-1.06-8.31-3.84,5.77-2.29,18.22-4.95,20.38,2.61Z" fill="#fff"/>
</svg>