<?xml version="1.0" encoding="UTF-8"?>
<svg id="Camada_1" xmlns="http://www.w3.org/2000/svg" version="1.1" viewBox="0 0 595.28 841.89">
  <!-- Generator: Adobe Illustrator 29.0.0, SVG Export Plug-In . SVG Version: 2.1.0 Build 186)  -->
  <path d="M.14,841.29V-.06h595v841.34H.14ZM590.54,3.89H4.08v293.16c3.25.52,17.46,1.16,18.27,3.75.48,1.52-.66,11.54,3.45,9.09,2.87-1.71-1.47-11.7,8.11-8.29.84-.27.89-.87,1.06-1.6.26-1.13.92-20.63.67-21.69-.38-1.61-1.93-1.71-2.79-3.12-1.87-3.06-1.91-23.15.35-25.93,1.4-1.71,10.65-4.5,12.5-4.02,3.47.91.02,11.58,7.05,6.01l.07-6.68c5.84-1.76,12.21-2.06,18.03-.14l.57,7.31,2.99.62c-.95-3.72,1.34-8.31,5.5-8.49,6.97-.3,14.6,1.88,12.26,10.45,2.96.13,1.66-4.46,2.79-5.74,14.99-2.47,14.85,11.35,12.9,22.42-.91,5.2-4.01,7.7-4.53,11.24-.81,5.53,1.37,11.79.67,17.44,11.97-1.36,22.11,4.65,32.86,8.53.83-.56,3.72-17.14,5.23-19.26.99-1.4,3.34-.54,4.03-1.54,7.41-26.61,13.91-52.68,20.96-79.45,1.01-3.83,4.19-10.02,4.54-14.62.22-2.86-1.99-2.63-1.82-6.29.09-1.97,5.85-24.56,6.63-25.63,1.47-2.02,3.5-.29,5.2-2.03,1.22-1.25,6.15-13.9,7.96-17.05,21.54-37.57,61.95-67.86,103.25-80.79,19.31-6.04,51.83-12.46,71.85-12.36,3.27.02,3.74.7,5.32,3.4,3.7-1.86,3.71-1.85,7.62-1.17,66.93,11.74,127.58,72.3,130.07,141.42.17,4.73-1.24,12.08-.71,15.83.35,2.47,2.01,3.05,2.06,6.55.03,2.05-4.07,23.3-4.82,24.81-1.22,2.48-3.7,1.65-4.45,2.94l-12.16,52.76c.49,1.01,3.22-.92,3.96-1.31,10.65-5.68,20.97-13.39,32.09-18.53,22.32-10.32,45.01-13.84,66.86.12V3.89ZM352.92,96.31c3.4-14.1,6.32-28.34,9.89-42.41l-.73-1.33c-34.44,3.18-68.39,8.78-99.2,25.03-28.95,15.28-59.66,43.66-74.16,73.08-1.47,2.97-2.5,6.25-3.84,9.29l31.48,4.21c10.3-23.91,32.09-47.14,54.73-59.98,16.29-9.24,34.38-15.53,52.82-18.85l1.64,2.24-22.41,90.38-123.06-15.03c-.63.73-1.49,1.34-1.82,2.29-2.33,6.65-3.03,15.79-5.22,22.68l122.99,16.07c1.09.74-.35,8.17-.75,9.73-.13.51-1.07.55-1.19,1.03-2.73,10.53-4.8,21.26-7.96,31.67l2.97-.64c1.3-11.38,19.53-14.42,20.76-1.65.35,3.6-2.12,6.12,3.88,8.21,1.51-10.09,5.18-18.99,7.7-28.79,10.86-42.18,21.33-85.11,31.48-127.25ZM364.1,82.51c1.3-5.39,5.53-18.53,5.55-23.12.01-2.05-.86-4.76-3.31-4.89l-50.63,203.1c2.64-.3,5.18-3.01,6.13-5.37,2.88-7.19,4.34-19.6,6.42-27.63,12.16-46.84,24.47-95.06,35.83-142.09ZM467.17,106.84c-9.41-11.76-20.47-22.8-33.44-30.66-17.9-10.85-38.91-17.92-59.47-21.66l-48.68,196.5c6.94-.2,4.24-1.34,6.44-5.06,4.07-6.87,16.37-7.53,17.83.84.68,3.87-1.94,7.82,3.99,8.17l10.9-42.12,126.44,16.41,4.63-26.18-123.47-16.9,23.87-96.69c43.68,15.52,71.03,60.69,70.34,106.33l28.64,3.93c1.22-20.78-2-39.98-8.85-59.19-4.86-13.63-10.21-22.52-19.18-33.73ZM321.63,89.34c-13.77,1.95-26.54,7.51-39.28,12.64-3.66,13.56-6.56,27.33-9.97,40.95-.25,1-1.18.98-1.3,1.48-2.11,8.42-3.95,17.13-5.26,25.71l35.14,3.37,20.68-84.16ZM422,143.69c2.34-9.93,4.51-19.99,6.46-30-1.78-4.91-28.98-21.46-31.19-19.72l-22.38,90.02,36.2,4.34c3.7-14.38,6.37-29.02,9.76-43.47.23-.97,1.11-1.03,1.14-1.16ZM278.24,104.46c-22.04,10.66-39.83,28.82-52.58,49.45-.38.62-1.45.85-1.87,1.56-.65,1.1-4.71,8.87-4.05,9.45l42.66,4.53,15.85-64.99ZM444.18,131.82c-.97-1.44-11.33-16.93-13.4-14.87l-15.8,71.99,35.49,4.91c2.25-8.26,3.59-16.74,5.35-25.11.11-.5,1.11-.51,1.21-1.01,2.4-11.93-6.34-26.24-12.85-35.9ZM491.26,141.27c-.06-.08-1.6-.44-1.95-.34M502.01,177.87c-2.19-11.93-4.22-24.15-10.74-34.63,2.44,9.99,5.38,20.4,6.48,30.65.73,6.84-.45,22.89.89,27.37.23.76,4.85,6.17,5.77,5.07.13-9.3.19-18.58-1.36-27.77-.08-.47-1.01-.55-1.04-.7ZM462.99,195.16v-14.13c0-2.47-1.85-9.75-3.28-12.15l-5.9,24.04c.19,2.38,7.28,2.09,9.18,2.24ZM205.92,195.17l-30.8-3.2-25.72,96.5,31.21,3.99,25.31-97.29ZM249.07,221.89c.67-2.55,5-19.04,4.23-19.82l-44.13-5.98-24.94,97.67c3.18.84,3.44-2.4,5.27-4.26,13.7-13.89,28.18-20.49,47.83-22.19,4-14.62,6.82-29.57,10.62-44.25.25-.95,1.09-1.04,1.12-1.18ZM292.71,207.01l-35.85-3.96-16.09,65.08c12.29-.29,23.21,3.57,32.21,11.83-1.38-2.54-2.79-3.02-3.22-6.31-1.24-9.45.57-13.54,6.49-20.33,2.54-2.91,5.61-3.43,7.18-7.42l9.28-38.89ZM502.82,231.06c.63-2.11,3.55-15.17,3.37-16.4-.34-2.37-5.52-5.33-6.71-7.65-1.18.05-5.07,21.74-4.83,23.16.16.92,4.77,6.76,5.49,7.05l2.68-6.16ZM403.81,220.8l-36.8-4.61-10.48,41.2c4.21,9.63,5.85,19.99-1.38,28.8-1.91,2.33-6.53,4.56-7.74,6.73-1.09,1.96-5.02,19.41-4.1,20.23l36.75,4.86,23.75-97.2ZM442.61,226.05l-35.83-3.95-23.35,96.63,35.85,3.96,23.33-96.63ZM455.73,228.06l-9.17-1.35-23.68,97.28c3.65-.31,8.16,3.39,10.44-.55l22.41-95.38ZM489.29,231.97l-29.66-2.89-22.97,97.24,29.61,4.25,23.02-98.6ZM491.01,269.21c1.27-5.53,6.67-25.6,6.22-29.69-.26-2.39-2.86-4.14-4.65-5.58-7.9,31.38-14.97,63.89-22.22,95.84-1.11,2.29,4.13,7.54,5.19,5.15,1.58-3.54,2.1-11.6,3.15-15.9,3.94-16.02,8.61-33.73,12.3-49.82ZM305.49,241.53c-2.09-2.24-3.12-2.86-6.5-2.29-8.31,1.39-11.9,20.44-3.32,21.04,7.16.5,3.87-9.42,5.91-13.18,1.13-2.08,8.78-.35,3.9-5.57ZM347.28,250.37c.55-7.4-7.76-8.89-11.87-3.64-2.73,3.48-5.56,19.85,2.19,18.64,7.18-1.11,1.06-16.42,9.68-15ZM69.33,254.82l-1.77-8.21-11.57.09c-1.23,6.69.26,9.94-8.22,9.62-3.32-.13-2.73-4.79-2.92-7.26-14.65-2.64-10.58,16.2-9.45,25.03l17.68-3.33c16.98,0,34.5-1.22,50.28,5.9,1.19-7.77,6.84-25.21-5.5-25.05l-1.79,6.59-6.85-1.91-1.24-7.96-9.23-1.28-1.79,8.48-7.64-.72ZM288.1,249.72c-8.62,2.25-15.29,10.24-15.17,19.39.26,19.52,26.65,22.61,37.81,10.22-3.17-5.69,3.15-16.04,2.99-19.37s-5.55-8.67-8.94-9.52c-1.29-.66-1.3,4.16-1.21,4.62.44,2.37,3.19,3.34,3.88,4.54,2.65,4.55,2.33,10.15-.71,14.36-8.79,12.18-31.67,6.23-26.37-10.58,1.78-5.64,9.03-5.78,7.71-13.65ZM329.42,260.14c.46-.7-.13-4.13.68-5.44-.71-2.69-5.49.9-6.7,1.72-18.43,12.49-9.99,37.99,12.95,35.95,20.6-1.83,29.53-28.97,8.95-37.39-1.86,5.33,1.15,5.04,3.18,8.33,8.57,13.94-7.2,27.58-21.19,21.18-7.2-3.29-8.27-13.61-4.24-19.87,1.91-2.95,6.14-4.15,6.36-4.48ZM289.31,259.68c-4.3-2.26-10.17,13.1-.53,16.65,10.53,3.87,20.58-5.51,14.78-16.09-1.22-1.36-2.14,2.32-4.24,2.99-3.4,1.09-8.66.16-10.01-3.55ZM330.06,264.31c-4.32-2.3-11.14,12.38-1.55,16.99,11.25,5.4,24.47-5.18,16.82-16.81-1.53-.93-2.18,1.88-3.78,2.84-3.48,2.09-6.42,1.44-9.64-.6-1.15-.73-1.67-2.32-1.85-2.41ZM590.54,392.35v-112.07c-28.62-22.46-63.84-4.26-90.51,12.05-2.22,1.36-11.63,7.02-12.74,8.29-2.4,2.73-5.94,24.94-7.14,30.3-.25,1.11-1.88,2.32-1.97,5.34-.14,4.77,1.72,3.65,2.25,4.82,1.16,2.59-1.35,3.6-1.7,4.9-1.19,4.4-4.23,22.86-6.81,24.72-.96.69-2.56.24-3.03,1.04-.57.96-.27,4.42-.68,5.63-.18.54-1.04.52-1.19,1.03-1.53,5.08-2.13,10.42-3.37,15.57l126.9-1.63ZM271.27,283.64c-14.06-17.62-43.46-14.92-61.84-5.77-12.24,6.1-25.86,18.6-23.89,33.63,27.44-13.31,57.5-25.88,88.75-23.01.14-2.4-1.98-3.54-3.02-4.85ZM99.92,278.79c-18.58-6.79-40.72-6.98-59.9-2.68l-.99.99-1.47,24.81,8.96,2.34c1.55,2.26-2.15,9.77,3.52,8.51,1.24-2.13-.15-6.89,2.66-7.56,2.08-.49,12.56,1.52,13.65,3.55l1.48,74.63c.14.48,7.62,3.16,8.91,4.38,1.57,1.46,2.28,5.24,2.91,5.64.79.5,8.27-2.02,13.51,2.92,4.19,3.95,3.81,8.63,2.96,13.8l6.27.05-2.48-131.35ZM310.67,296.93c.48-2.22,3.22-12.69,1.75-13.69-3.03-2.05-5.59,12.02-5.98,13.27-2.57,8.16-6.16,18.57-7.5,27.47-.57,3.81-1.17,5.38,1.98,8.55M304.54,287.85c-9.81,3.68-20.38,2.35-28.91-3.63-.2,3.51,7.56,8.72,7.85,10.02.46,2.05-.43,4.74.17,6.93.26.97,3.79,5.27,4.7,7.14l7,14.37,9.19-34.83ZM343.32,293.76c-9.9,4.69-18.94.51-27.62-4.3l-12.21,46.37c10.04,6.23,21.63,12.44,22.75,25.63,1.82-3.14,3.01-14.17,4.69-16.66,1.51-2.24,9.89-.66,12.62-.33,38.29,4.57,76.38,11.82,114.6,16.96l1.88-.61,6.21-26.93-127.14-18.35c-1.51-7.55,4.78-13.89,4.21-21.77ZM184.88,296.39l-39.09-5.18c-2.75.81-6.57,22.29-8.14,25.91l44.59,6.87c-3.36-4.98,1-7.43,1.3-10.21.22-2.05-.92-6.07-.63-9.17.27-2.85,1.72-5.38,1.96-8.22ZM279.54,299.68c1.3-4.19.53-6.4-3.79-7.71-17.85-5.38-58.41,7.61-75.33,15.68-3.46,1.65-15.4,7.44-16.09,10.91-.6,3.03.65,5.31,3.97,4.61,4-.85,17.97-8.86,23.75-11.13,20.88-8.18,44.92-14.47,67.49-12.37ZM4.08,299.67v62.44c7.37-4.3,15.55-3.57,22.03,1.97,4.66,3.98,4.75,7.59,6.57,13.13,9.27-7.43,21.23-3.65,24.31,7.82l7.58-1.22c-.88-19.12,1.15-39.24.05-58.25-.12-2.07-1.31-1.31-1.42-2.51-.27-2.99,1.1-11.95-1.04-13.41l-7.08-1.33-1.79,7.7c-9.17,1.15-9.14-2-9.93-9.6l-11.95-2.04c-2.29.72.88,8.98-5.11,8.98-1.45,0-5.47-1.1-6.11-2.5l-.96-8.24-15.15-2.93ZM136.75,320.85c-.16-.35-2.05-.59-2.36-2.58-.29-1.83,1.44-4.17,1.2-5.78-.16-1.08-8.23-5.23-9.88-5.91-6.53-2.68-14.6-4.56-21.7-4.28l3.63,107.14,3.45-3.73,9.36-18.29c-13.28-11.44-7.74-29.44,7.89-34.99.2-5.05,9.78-28.58,8.4-31.57ZM282.42,315.91c-.62-2.61-1.36-11.72-3.13-13.01-20.45-2.32-41.9,3.2-61.14,9.98l-.96,1.07c2.14,15.5-12.11,24.13-4.22,39.45,1.86,3.61,11.89,13.44,16.27,12.71,5.29-6.66,10.47-12.49,18.77-15.48,4.6-1.66,21.03-2.71,20.26-9.71-.64-5.78-13.15-9.88-7.44-15.62,2.06.33,1.55,3.05,2.65,4.59,2.1,2.94,5.04,4.02,7.18,7.95.69,1.27-.4,3.4,1.61,3.3l-2.55,4.88c6.49,1.49,11.46,4.31,16.74,8.21,5.73-9.71.13-19.95-1.98-29.56-.66-2.99-1.5-6.43-2.05-8.77ZM294.28,329.66c-3.07-5.49-4.57-14.06-8.81-18.48,1.85,9.29,3.19,20.78,6.54,29.61.99,2.62,2.89,3.75,3.51,5.07,4.22,8.95,7.76,17.14,6.03,27.42l20.02,5.2c3.86-11.17,2.53-23.07-6.49-31.18-7.53-6.77-15.11-7.47-20.8-17.65ZM214.47,314.79c-.49-.54-12.15,4.48-13.59,5.14-1.75.79-11.98,5.74-12.68,6.38-1.65,1.51-3.19,8.74-4.5,11.27-5.16,9.96-21.31,15.59-23.07,27.55-.89,6.06.99,14.37-.22,20.16-.47,2.27-4.26,6.75-5.05,8.9-1.56,4.24-1.85,9.49-2.68,13.93,6.8-2.44,7.97-11.17,11.4-16.53,7.42-11.57,17.31-12.06,28.37-16.99,11.75-5.23,6.68-5.19,8.94-15.92,2.44-11.6,10.8-27.55,13.05-38.47.34-1.65-.14-3.71.03-5.43ZM168.19,338.21c.63-2.34,3.8-11.53,1.56-12.55-1.89-.87-27.66-4.75-28.92-4.01l-12.42,45.65,28.85,5.34c-2.34-9.15,4.39-14.34,7.03-20.9,1.52-3.78,2.9-9.84,3.89-13.52ZM179.41,338.9c.98-1.29,4.52-9.39,4.11-10.56-2.28-2.04-6.24-1.62-9.16-2.38l-5.26,22.35c2.4-2.89,8.29-6.78,10.3-9.41ZM467.18,343.93c-.78,2.58-4.43,16.9-4.2,18.47.36,2.43,4.89,4.59,6.9,5.63,1.31-.29,7.18-24.63,6.95-25.95-.26-1.49-5.78-5.22-7.26-6.26-.28,2.31-.7,5.16-1.39,7.36-.14.46-.95.57-1,.75ZM371.61,351.61l-37.52-4.97-8.88,33.23c5.75,2.99,12.15,5.14,17.56,8.79,2.72,1.84,14.65,13.33,15.99,12.91l12.85-49.95ZM292.7,347.66l-1.12.62c-2.89,17.21-6.72,7.56-14.07,3.73-11.97-6.24-32.67,1.74-41.6,10.83-2.3,2.35-2.23,6.39-6.66,6.55s-13.89-6.87-16.65-10.34c-2.25-2.83-2.66-6.71-5.35-8.77-2,7.78-3.72,17.11-2.48,25.14.9,5.82,11.59,29.74,15.63,34.32s11.65,8.48,17.73,8.89c-2.69-4.61-4.31-8.2-3.27-13.8h2.6c.25,20.61,19.26,20.79,32.68,29.43,8.02-2.56,9.94-11.96,13.41-18.57l-4.63-17.11c1.89-3.3,5.31,3.35,5.93,5.24,1.45,4.45,1.4,8.87,1.29,13.5,6.13-2.15,12.19-8.3,12.98-14.94.55-4.61-1.09-8.12-1.17-12.31-.22-10.62,1.94-22.6-.83-32.7-1.07-3.88-3.71-5.86-4.42-9.72ZM411.71,357.52l-36.86-4.99-12.45,49.67,36.73,5.17,12.59-49.86ZM127.02,356.86c-13.75,5.46-15.88,23.8-.77,29.03,1.03,3.79-1.2,1.76-2.85,3.16-.22.19-2.63,4-3.13,4.8-15.88,25.29-38.13,85.21,14.3,79.99,5.22-.52,27.52-7.79,28.6-12.82,2.2-10.23-3.2-27.76-11.5-34.49l-5.67,15.35c-.4-.04-5.83,7.01-5.8,4.04,1.86-5.47,5.33-9.35,6.77-14.91,3.22-12.5,1.24-30.39,6.68-41.96,1.21-2.57,3.97-2.86,4.27-6.31.85-9.9-8.05-8.16-15.1-8.8-.54,1.99,2.58,2.94,2.54,4.36-.16,5.18-6.56-4.96-7.56-5.59-3.22-2.03-13.74-1.42-13.85-4.34l3.09-11.52ZM424.2,359.5c-1.87-.26-8.84-2.28-9.95-.94l-11.13,49.94,9.17.87,11.91-49.87ZM457.07,364.09l-30.21-3.91-11.2,50.57c4.73-.61,27.76,5.84,30.11,3.16l11.31-49.82ZM4.08,367.05v35.82l86.5,7.26,2.22-1.07c3.87-10.11-6.42-16.54-14.75-10.81-2.02-5.14-2.01-8.29-7.76-10.63-6.73-2.74-9.94.11-16.23,1.44-.28-9.17-7.27-14.85-16.44-11.5-3.63,1.32-5.1,5.7-9.21,4.93,1.89-9.99-4.79-21.45-15.92-20.25-1.95.21-7.93,2.76-8.4,4.8ZM459.69,398.92l5.92-28.57c.07-1.34-4.93-5.05-5.57-4.95l-8.23,34.51,7.89-.99ZM200.65,373.95c-11.66,6.36-26.16,7.6-34.07,19.47-2.68,4.02-3.39,8.96-6.71,13.04-1.5,1.85-7.51,5.95-7.72,6.4-.17.37-.93,7.41-.87,8.08.3,3.14,4.63,5,6.54,7.32,7.65,9.33,9.47,25.45,8.31,37.03l10.75-5.69c-.16-13.38-4.33-35.64,1.24-48.03.3-.68,3.6-5.38,4.12-3.1.17.74-2.29,12.62-2.65,14.94-3.06,19.79,2.05,48.97,10.46,68.56.57,1.32,4.28,8.19,4.98,8.86,1.52,1.46,4.31,2.08,6.32,2.88,28.1,11.23,73.88,9.65,102.03-1.12,2.95-1.13,13.2-5.72,14.75-7.92.71-1.01,7.36-19.55,7.29-20.64-3.27-3.67-24.3-26.94-21.54-30.42.85.46,1.93.45,2.66,1.13,2.42,2.23,7.29,11.62,10.23,15.23,1.78,2.19,16.44,17.18,17.68,17.15,1.42-3.22,1.19-6.61,2.28-10.2,2.61-8.6,14.78-20.39,22.58-24.75,5.84-3.26,13.43-6.02,20.18-5.8-.97-1.54-1.73-3.33-2.75-4.83-6.6-9.73-22.31-30.29-31.13-37.21-13.1-10.28-27.73-13.06-43.38-17.15-1.49-.18-1.6,3.24-1.66,4.29-.66,12.01,6.55,23.1-4.55,33.57-2.45,2.31-9.34,4.75-10.38,5.73-.74.7-.76,2.94-1.58,4.04-2.38,3.19-10.87,14.57-15.23,13.45-1.79-1.68-2.56-3.09-4.85-4.39-9.59-5.42-12.16-1.41-21.55-.75-21.16,1.48-39.19-8.72-37.86-31.93.22-3.84,2.31-9.09,1.99-12.39-.42-4.19-5.28-10.36-5.91-14.86ZM213.41,405.25c-1.97-3.35-2.55-7.17-4.85-10.26-6.78,27.6,17.99,40.37,42.07,34.17-1.64-1.73-4.2-2.59-6.24-3.94-1.18-.78-2.63-3.2-3.64-3.59-2.17-.86-4.54.07-6.73-.5-8.54-2.24-16.17-8.32-20.61-15.87ZM590.54,394.98c-35.43-.47-70.82.24-106.15,2-3.17.16-21.3-.81-22.05,1.64.75,4.07,5.91,4.73,8.02,8.39,3.51,6.09,2.2,17.24-2.32,22.6-.82.98-11.17,8.02-10.3,8.75,45.57,6.27,138.76,32.98,80.55,92.7-12.99,13.33-37.52,25.63-34.36,47.47,1.87,12.89,18.06,24.59,27.25,32.64,19.09-9.96,26.09,5.84,19.26,22.42,9.19-8.12,23.63-4.14,16.9,10.01-.87,1.83-4.27,4.76-4.43,6.11-.18,1.6,2.61,8.11,3.09,10.7,6.73,36.2-26.84,72.58-51.08,95.11-2.74,2.55-18.65,13.31-15.78,17.41,13.36-5.68,21.48,4.77,8.54,13.48-.09.66,7.94.73,4.17,3.55-26.42-5.64-54.09-7.51-80.57-1.06-20.99,5.11-36.55,22.28-54.12,33.97-1.12.75-5.38,3.93-6.23,2.64.03-1.55,1.87-3.02,2.96-3.93,9.3-7.76,32.33-25.25,42.47-30.5,3.62-1.87,8.45-2.35,12.11-4.32l-.11-1.38c-16.47-11.26-5.74-27.13,10.93-15.08-3.68-17.8,15.83-25.74,21.37-6.57,4.48-12.24,19.58-14.33,20.71.66,5.39-3.7,13.99-7.23,18.07-.01,5.5-4.9,12.08-9.81,17.43-14.77,22.52-20.89,50.13-53.92,46.7-86.8-.4-3.84-1.92-7.68-4.03-10.78-6.69,1.45-14.79.39-22,.59-10.71.3-32.85,4.66-40.72-2.62-7.81-7.21-1.86-14.89,7.54-11.82-2.16-5.67-4.61-10.12.99-15.11,3.65-3.26,8.83-2.09,12.15,1l3.95,5.57c-.47-7,4.15-10.75,7.26-16.14-10.22-10.01-29.4-23.62-28.99-39.42.82-31.85,74.83-54.51,49.35-94.46-13.33-20.9-72.51-38.1-96.34-39.27-5.33-.26-10.2,2.01-15.46,2.26l-10.49,18.09c17.92,3.04,70.01,17.33,31.58,37.82-6.34,3.38-14.98,6.09-21.87,8.37-31.91,10.54-65.39,16.22-97.77,25.13,5.88,10.41,8.08,22.45,12.53,33.49.61,1.52,1.76,1.72,2.09,2.51,1.26,3.05,6.72,14.19,7.03,15.98,1.03,6-6.8,13.07-10.98,16.46l2.49,12.71c18.55-.12,34.73,10.46,47.07,23.28,5.28,5.48,9.6,13.32,16.07,17.78,8.81,6.07,23.19,1.86,27.21,14.2,3.81,11.7-.5,50.27-8.85,59.95-9.48,11-50.76,12.54-59.09,2.06-2.05-2.58-1.5-11.13-.27-13.89,1.14-2.55,7.07-4,9.09-6.03,2.81-2.84,6.95-16.1,6.93-20.08-.02-3.04-.45-4.54-2.76-6.5-11.14-9.47-34.72-14.02-48.36-19.35-8.04-3.15-21.91-9.32-29.35-13.39-11.25-6.15-17.64-17.44-25.24-27.35-23.37.19-46.52-3.36-68.2-11.96l-21.39,16.08c4.26,9.82,8.57,21.65,8.57,32.23,0,12.23-6.75,25.9-6.69,38.12.06,11.42,7.48,25.19,8.55,37.52,1.58,18.34-27.89,17.21-40.86,19.51-18.71,3.31-36.22,9.98-55.24,2.3-4.01-1.62-12.51-7.34-11.71-12,.13-.75,1.99-2.47,2.48-4.13.59-1.99-.07-4.07.8-6.43,3.12-8.47,37.19-13.97,44.11-25.1,2.68-4.32,1.08-10.79.02-15.61-2.87-13.07-7.32-26.38-9.13-40.19-1.43-10.94-1.33-20.62-3.34-30.97-1.6-8.25.04-12.56,2.92-19.86,1.4-3.56,3.66-6.88,4.92-10.52-46.8,13.51-93.02,30.15-136.09,52.91v191.6h586.45v-442.36ZM466.93,409.11c.08,3.28,0,6.58,0,9.86,0,3.1-4.79,12.42-9.2,10.84.89-2.63,3.41-4.29,4.52-6.97,1.97-4.75,3.36-18.78-2.89-20.62,1.74,6.88,1.89,22.54-6.71,24.83-.85.23-2.48.72-2.16-.84,6.18-5.11,10.14-17.68,3.54-23.32-4.84,1.64-3.08,8.79-4.98,12.01-2.06,3.49-18.06,2.96-21.91,7.66l-.67-1.97,4.95-4.58c-6.41-.88-11.77-3.06-17.42,1.31-.67.52-4.64,5.08-4.74,5.43-.56,1.91.5,4.79-.85,6.07-.9.86-8.96,3.83-10.88,4.9-10.42,5.83-21.37,12.39-29.57,21.05-2.86-.55,2.24-6.07,2.99-6.87,3.25-3.48,7.99-4.77,9.84-8.89-13.93.45-27.63,8.8-35.65,19.9-8.99,12.43-10.22,18.1,2.47,28.06,32,25.1,53.2,4.36,72.34-22.31.62-.87,1.76-1.08,2.27-1.83,4.78-7.03,8.16-15.36,12.82-22.5,16.56-2.19,42.93-11.71,31.87-32.87-1.5-.1,0,1.25,0,1.64ZM363.32,409.84c1.06,1.35,3.14,3.45,4.83,4.03,3.51,1.22,33.36,5.52,37.36,5.46,3.2-.05,5.92-3.51,8.15-5.62l-52.58-8.21c-.22,1.81,1.23,3.06,2.24,4.34ZM4.08,406.16v235.97c33.78-17.32,69.29-30.78,105.22-43.02,5.06-1.72,31.43-8.88,33.36-10.37.42-.32.39-1.49.78-2.01.45-.6,1.28-.42,1.33-.48.23-.26-3.21-1.6-1.51-6.42.96-2.72,9.57-14.92,11.84-18.38,6.72-10.22,15.02-21.7,22.66-31.29,2.14-2.69,11.23-11.24,12.08-13.61.71-1.98-1.51-8.89.33-14.61.21-.66,1.3-.24,1.3-.8s-.95-.09-1.29-.82c-5.38-11.62-7.73-24.36-11.38-36.54-1.95-.91-9.47,4.42-12.84,4.69-2.58.21-3.94-1.15-4.94-1.03-.71.08-10.24,5.41-12.77,6.27-38.87,13.25-57.55-8.91-46.81-46.8.93-3.3,4.51-9.75,4.93-12.18.13-.75.6-1.03-.36-1.68l-101.92-6.88ZM405.7,422.67l-35.41-5.34c3.76,7.46,10.7,12.69,13.16,21.03,3.53-1.95,21.32-10.48,22.2-12.97.23-.66.39-2.18.05-2.72ZM467.22,480.14c-7.85-11.02-29.14-12.67-41.39-16.54-13.47,15.27-28.99,39.48-52.6,37.89-16.75-1.13-23.98-11.38-35.47-19.76-1.97-1.44-7.38-3.85-9.81-5.29-.88.21-6.14,16.07-6.19,16.98-.1,1.89,1.73,4.6,1.86,7.09s-1.06,5-.67,7.16c.48,2.63,5.27,6.2,6.59,8.1,1.56,2.24,7.1,13.04,8.71,13.14,24.31-5.89,48.84-11.08,72.94-17.78,14.16-3.93,44.3-11.43,54.47-21.16,4.11-3.93,4.86-5.2,1.56-9.83ZM192.78,504.09c-1.05,10.2-.93,12.99,8.58,16.72,27.04,10.62,81.09,10.66,106.71-3.66,6.55-3.66,15.32-10.52,11.27-18.95-26.28,14.93-62.16,18.67-91.96,15-11.96-1.47-23.12-5.81-34.61-9.1ZM329.29,520.75c-.86-1.23-7.66-9.51-8.54-9.38-9.95,9.38-22.68,14.06-35.91,16.72-30.31,6.11-64.78,3.71-93.39-7.97-17.08,17.97-30.63,38.46-44.02,59.23,24.12,1.18,42.65,18.26,63.96,27.39,35.6,15.26,83.24,20.04,119.03,3.07,6.39-3.03,25.89-16.3,26.7-23.31.56-4.81-4.17-9.32-5.81-13.12-7.23-16.76-11.68-37.73-22.02-52.64ZM211.84,609.93c-21.33-7.87-39.05-25.22-62.35-27.5-6.27,13.39-17.38,25.62-12.81,41.83.94,3.32,8.57,14.66.22,7.35.17,15.16,2.62,30.41,6.56,45.03,16.52,8.17,37.51,5.58,53.75-1.81,5.35-16.54.46-33.2-5.66-48.67,1.41-2.54,21.79-13.99,20.29-16.23ZM349.91,618.46l-3.62-15.1c-16.64,13.47-37.5,17.25-58.18,20.03,7.09,10.93,16.61,24.02,29.44,28.41,2.41.83,14.57,2.49,14.59,3.8l-1.95,2.29c3.52.73,6.64,3.06,9.86,4.28,4.86,1.83,28.08,9.1,31.86,8.88,12.99-.78,26.71-22.54,21.66-34.77-2.41-5.84-19.81-15.47-25.93-17.46-4.41-1.43-11.39-3.28-15.75-2.31l1.3,1.3-3.28.67ZM548.91,614.71c-.15-.22-3.96-3.06-4.36-3.19-13.3-4.14-22.24,16.07-21.08,26.65-3.98.3-3.72-4.95-5.14-7.67-4.44-8.45-13.49-9-12.53,2.01.48,5.57,4.62,9.61,5.84,14.86-5.64-1.4-7.32-9.61-14.8-5.92-4.06,3.26,6.75,10.51,9.86,10.54l50.04-1.93c12.78-6.52,13.32-25.68-4.55-14.41-2.4,1.51-6.11,6.12-7.99,7.13-.79.42-1.5.87-1.64-.34,2.19-6.74,10.95-20.93,6.37-27.73ZM398.98,662.27c4.63-6.54,8.05-16.44-1.07-20.8-1.14,8.69-3.67,18.06-10.21,24.31-3.56,3.41-7.93,4.85-11.88,7.17-.59.35-1.29-.34-.93,1.37,7.73,4.55,19.81-6.02,24.08-12.05ZM410.16,671.48c1.39-2.02,5.2-11.06,4.72-13.12l-8.43-7.03c-1.58,12.24-12.54,22.48-23.67,26.62,8.88,9.35,21.26,2.43,27.37-6.47ZM418.94,659.87c-2.77.47-2.53,5.31-3.62,7.88-2.31,5.39-6.77,11.34-11.95,14.35-3.47,2.02-6.89,2.4-10.42,4.04l-.96,12.51c10.79-1.1,26.95-18.57,26.95-29.25v-9.53ZM432.31,673.49c-1.28-6.5-2.1-11.65-10.08-12.96,1.4,7.06-1.19,14.49-4.5,20.81-1.98,3.78-4.63,7.13-7.33,10.41,6.7,2.87,14.14,3.73,19.7,8.87.82-3.79,1.43-7.67,1.97-11.52.82-5.87,1.24-10.5.23-15.62ZM433.14,722.72c5.57-9.99,11.36-47.86,4.49-56.89-1.36-1.79-3.6-3.12-5.87-3.33.59,1.4,1.75,1.67,2.54,3.35,5.29,11.17-.83,39.03-5.21,50.53-3.74,9.83-6.49,13.44-17.7,14.51s-25.66-.28-34.87-5.93c-1.39,8.28,16.54,9.55,22.37,9.84,12.23.62,27.73-.39,34.24-12.08ZM144.78,680.91c.82,5.55.74,6.81,5.95,8.84,9.75,3.79,33.87,3.2,42.81-2.48,3.05-1.94,3.15-5.67,3.17-8.99-15.84,7.17-35.38,7.92-51.93,2.63ZM194.74,690.11c-15.21,6.25-32.45,7.02-47.99,1.32,1.53,3.4,1.74,11.41,4.37,13.7,6.4,5.59,35.47,3.89,41.71-2.16,2.63-2.55.39-9.2,1.92-12.86ZM390.34,705.88c4.59.13,9.21,0,13.81,0,6.81,0,16.14,4.46,22.36,7.21l2.79-8.77c-.78-4.12-18.05-9.85-21.9-9.64-1.95.11-6.43,3.91-8.69,5.1-3.19,1.68-8.43,1.54-9.34,5.79-.42,1.93.89.31.97.31ZM194.74,705.89c-14.33,6.27-30.25,8.41-45.05,2.08l-3.6,6.45c10.59,5.17,25.17,5.63,36.33,1.82,2.44-.83,15.41-6.66,12.32-10.35ZM422,724.06c1.47-1.42,4.43-6.78,2.87-8.65-3.14-3.75-24.07-7.07-29.29-6.93-8.45.22-10.16,4.82-17.22,8.09-2.32,4.06.17,8.79,5.08,8.38-.96-5.8,2.54-11.01,8.55-11.17.88.74-14.86,13.2.66,13.8-.79-5.95,2.33-12.39,8.87-12.5,2.59.79-3.82,4.36-4.28,4.93-1.39,1.73-2.07,4.37-1.98,6.56-.16,2.47,6.31,2.04,6.97,1.05-.43-3.52,3.2-12.78,7.84-11.22,1.19,2.33-2.39,2.81-3.74,5.46-1.01,2-1.36,4.15-1.19,6.38l5.97-.29c.88-.63.61-8.12,4.24-9.57,3.1-1.24-2.76,8.88-.02,9.17.37.05,6.27-3.1,6.68-3.49ZM196.71,711.8c-12.32,9.72-28.28,11.82-43.39,8.55,5.93,6.54,10.49,14.06,11.88,22.95l22.02-3.85c2.99-9.23,13.25-17.47,9.48-27.65ZM156.38,728.46c-1.94-2.96-9.57-11.09-13.06-11.63-2.52-.39-6.3,3.64-9.05,4.19l.41,1.36c7.38,5.92,14.47,14.26,16.73,23.55l11.13-1.93c.72-1.09-4.96-13.71-6.16-15.54ZM199.8,735.27c1.73-2.56.95-9.8-1.1-12.29l-6.58,15.77c.59.63,6.9-2.33,7.68-3.48ZM132.09,723.85c-1.3-.37-7.87.37-7.03,2.07,8.03,5.82,14.09,12.49,16.4,22.42l6.61-1.38c1.01-.72.3-.83.19-1.47-.62-3.61-7.73-13.67-10.39-16.6-.83-.92-5.04-4.82-5.79-5.03ZM128.34,732.82c-1.57-2.6-4.96-6.27-8.05-5.78-3.58.57-19.67,7.3-17.59,13.02l4.79-4.74c.78-.96,10.24-4.13,8.05-.5-4.52,1.79-15.67,7.48-6.27,11.16,1.51-8.04,12-10.87,19.07-13.16ZM133.34,737.69c-.53-.62-2.72-2.88-3.32-2.9-4.1,2.1-19.25,6.38-17.48,12.69,7.21,5.63,17.26,2.27,25.67,2.44,1.09-1.03-3.55-10.7-4.86-12.23ZM101.39,744.67c.21,13.59,24.13,13.69,33.84,13.13,10.9-.63,49.05-6.88,58.72-10.31,4.41-1.56,8.13-4.03,7.36-9.4l-6.44,3.09c-24.63.9-64.4,20.41-86.71,8.21-.98-.54-6.3-5.29-6.77-4.73ZM456.05,761.48c-1.14-2.63-2.28-5.18-5.26-6.31-5.16.01-8.2,4.87-8.76,9.61-.29,2.46,1.21,12.37-.41,12.74-1.1.25-8.79-10.02-14.41-9.21-8.82,2.96.85,16.13,5.68,17.35,1.94.49,16.17-2.58,19.93-2.86,8.79-.66,20.08-.58,28.9,0,5.35.35,16.09,3.07,20.39,2.68,5.4-.5,14.46-10.93,4.6-11.29-5.06-.18-8.17,2.89-12.48,4.66-1.36-.99-.7-.87-.46-1.75.98-3.66,5.73-9.28,1.78-12.73-2.55-2.23-6.81-1.14-9.49.4-3.89,2.24-5.02,8.23-9.26,8.82-.17-4.6,3.38-16.41-3.68-17.08-5.01-.48-9.61,7.07-11.1,11.18-1.02,2.83.07,8.44-3.62,7.87-.53-3.86-.33-9.72-1.37-13.29-.16-.54-.89-.59-.97-.78Z"/>
  <rect x=".14" y="841.29" width="595" height=".66" fill="#fff"/>
  <path d="M590.54,394.98v442.36H4.08v-191.6c43.07-22.75,89.29-39.39,136.09-52.91-1.26,3.64-3.51,6.96-4.92,10.52-2.88,7.3-4.52,11.61-2.92,19.86,2.01,10.34,1.91,20.03,3.34,30.97,1.8,13.81,6.26,27.12,9.13,40.19,1.06,4.82,2.66,11.3-.02,15.61-6.92,11.13-40.98,16.63-44.11,25.1-.87,2.37-.21,4.44-.8,6.43-.49,1.65-2.36,3.38-2.48,4.13-.79,4.66,7.7,10.38,11.71,12,19.02,7.68,36.53,1.02,55.24-2.3,12.97-2.3,42.44-1.17,40.86-19.51-1.06-12.33-8.49-26.1-8.55-37.52-.06-12.22,6.69-25.89,6.69-38.12,0-10.57-4.31-22.4-8.57-32.23l21.39-16.08c21.68,8.6,44.84,12.15,68.2,11.96,7.59,9.91,13.99,21.2,25.24,27.35,7.44,4.07,21.3,10.24,29.35,13.39,13.64,5.34,37.22,9.89,48.36,19.35,2.31,1.96,2.74,3.46,2.76,6.5.02,3.98-4.11,17.24-6.93,20.08-2.02,2.04-7.95,3.48-9.09,6.03-1.23,2.76-1.78,11.31.27,13.89,8.33,10.48,49.61,8.94,59.09-2.06,8.35-9.68,12.66-48.25,8.85-59.95-4.02-12.34-18.4-8.13-27.21-14.2-6.47-4.46-10.8-12.3-16.07-17.78-12.34-12.82-28.52-23.4-47.07-23.28l-2.49-12.71c4.18-3.39,12.01-10.47,10.98-16.46-.31-1.79-5.77-12.93-7.03-15.98-.33-.79-1.47-.99-2.09-2.51-4.45-11.04-6.65-23.08-12.53-33.49,32.38-8.91,65.86-14.58,97.77-25.13,6.9-2.28,15.53-4.99,21.87-8.37,38.43-20.49-13.65-34.79-31.58-37.82l10.49-18.09c5.26-.25,10.13-2.52,15.46-2.26,23.83,1.17,83.01,18.37,96.34,39.27,25.48,39.94-48.54,62.61-49.35,94.46-.4,15.8,18.77,29.4,28.99,39.42-3.11,5.39-7.73,9.14-7.26,16.14l-3.95-5.57c-3.32-3.09-8.51-4.26-12.15-1-5.6,5-3.15,9.44-.99,15.11-9.4-3.06-15.35,4.61-7.54,11.82,7.88,7.28,30.01,2.92,40.72,2.62,7.2-.2,15.31.86,22-.59,2.11,3.09,3.63,6.93,4.03,10.78,3.43,32.87-24.18,65.91-46.7,86.8-5.35,4.96-11.93,9.87-17.43,14.77-4.09-7.22-12.68-3.69-18.07.01-1.14-14.99-16.23-12.9-20.71-.66-5.55-19.17-25.05-11.22-21.37,6.57-16.67-12.05-27.4,3.82-10.93,15.08l.11,1.38c-3.66,1.98-8.49,2.45-12.11,4.32-10.15,5.25-33.17,22.74-42.47,30.5-1.09.91-2.93,2.38-2.96,3.93.84,1.29,5.1-1.89,6.23-2.64,17.58-11.69,33.13-28.86,54.12-33.97,26.49-6.45,54.15-4.58,80.57,1.06,3.77-2.82-4.26-2.89-4.17-3.55,12.94-8.71,4.82-19.15-8.54-13.48-2.88-4.1,13.04-14.87,15.78-17.41,24.23-22.53,57.81-58.91,51.08-95.11-.48-2.59-3.28-9.1-3.09-10.7.15-1.35,3.56-4.29,4.43-6.11,6.72-14.15-7.72-18.13-16.9-10.01,6.83-16.58-.17-32.39-19.26-22.42-9.19-8.04-25.38-19.75-27.25-32.64-3.16-21.84,21.37-34.14,34.36-47.47,58.21-59.72-34.98-86.43-80.55-92.7-.87-.73,9.48-7.77,10.3-8.75,4.52-5.36,5.83-16.51,2.32-22.6-2.11-3.66-7.26-4.32-8.02-8.39.75-2.45,18.88-1.48,22.05-1.64,35.33-1.76,70.73-2.46,106.15-2ZM503.1,417.33l6.23,11.82c3.07-.67-1.5-13.66-6.23-11.82ZM512.96,429.16c3.59.45,2.91-2.95,4.01-4.86.63-1.1,4.62-5.85,2.22-6.31-2.98-.44-8.08,10.02-6.22,11.17ZM571.82,434.07c-2.64-1.82-4.88-5.12-8.23-5.91-14.95-3.54-30.77,13.44-13.2,16.49,4.33.75,8.47-.61,11.6-.31,1.44.14,2.24,2,4.03,2.43,4.34,1.04,15.73.83,14.55-5.95-.6-3.43-6.08-4.92-8.75-6.75ZM470.71,460.84c-6.75,1.47,2.54,5.86,5.41,1.51-1.39-1.6-3.4-1.95-5.41-1.51ZM498.49,469.25c1.82-2.73-10.62-3.65-8.15.68l8.15-.68ZM530.68,494.27c-.8-1.08-10.26-1.17-9.17.94,2.7,2.43,6.07,1.64,9.2.98-.08-.55.16-1.66-.03-1.92ZM500.28,499.64c-.97.22-1.8.72-2.43,1.49.08,1.59,9.81,2.6,11.15,0-1.82-2.08-6.24-2.07-8.71-1.49ZM462.66,521.18h11.18c.38,0,2.93-1.29,2.94-1.64-.31-.23-.8-.99-.97-.99h-11.83c-.39,0-1.47.95-2.3.66l.98,1.97ZM484.36,542.22c-2.75-.45-7.47,0-10.52,0-.15,0-1.88,1.62-1.65,2.29.01.27,1.56,1,1.65,1h9.86c.36,0,2.76-1.24,2.95-1.65v-.97c-.89.25-1.71-.57-2.29-.66ZM387.38,550.78c-.51-.66-8.93-1.47-9.84.97,2.81,3.16,6.42.63,9.85.98-.09-.54.15-1.76,0-1.95ZM561.6,556.02c-4.11-4.17-10.04,17.83-6.23,19.71,1.34.33,1.09-1.03,1.31-1.94.81-3.41.6-7.12,1.83-10.68.59-1.72,4.27-5.89,3.09-7.08ZM548.06,564.97c-1.1-1.41-4.69-6.04-6.49-5.66-3.03.63,2.61,5.12,3.49,6.36,1.32,1.87,2.83,4.07,4.01,5.99.92,1.49.08,4.73,3.33,4.08.47-4.61-1.83-7.55-4.34-10.77ZM568.18,566.54c-2.14-1.97-12.9,10.86-6.33,11.04l6.33-11.04ZM460.16,583.16c-2.81-3.53-21.91-2.93-22.13,2.1-.36,7.91,22.51,7.6,23.03.69-.06-1.01-.25-1.97-.89-2.79ZM407.11,602.68c3.24-3.64-13.14-3.22-13.82-1.64-.23,1.84-.12,1.24.94,1.72,3.29,1.51,9.29.26,12.88-.08ZM462.99,626.34c3.28.8,7.85,1.67,10.5-.98-.01-1.88-10.63-3.11-10.5.98ZM63.25,648.69c.37.47,11.86,1.9,11.17-.96-3.35-2.55-7.48-1.49-11.18-.99.09.54-.15,1.76,0,1.95ZM276.23,663.86c-.48-.65-13.53-2.37-11.8,1.92h11.84s-.04-1.92-.04-1.92ZM96.61,668.57c-7.55,1.56-8.07,9.25,1.89,10.29,21.05,2.18,15.95-13.96-1.89-10.29ZM512.29,688.8c-3.59-3.36-16.42,18.72-6.88,16.44.61-2.73.39-5.75,1.48-8.38.63-1.52,6.55-6.99,5.4-8.06ZM237.49,690.11c-.56-.5-14.14-1.74-13.81,1.96.5.59,15.45,2.31,13.81-1.96ZM491.02,693.63c1.65,2.1,7.02,13.73,7.79,13.56,3.71-.82-4.52-19.63-10.18-17.08-.64,2.41,1.6,2.51,2.39,3.52ZM519.53,698c-3.57-.6-8.65,5-8.57,8.24.17,6.81,7.79-6.38,8.57-8.24ZM39.77,705.41c-1.87,2.08-3.06,6.83-.15,8.66,3.57,2.24,24.58,2.75,27.82.28,6.21-4.74-5.95-13.42-10.59-14.22-5.32-.91-13.48,1.27-17.08,5.28ZM334.12,703.26c-2.61-2.68-7.11,11.78-7.16,13.55-.03,1.03.41,1.9.6,2.87,1.59.23,2.05-.15,2.78-1.48.37-.68,4.32-14.39,3.78-14.94ZM315.06,708.52c-.36,3.03,3,3.65,4.59,5.59,1.24,1.5,2.98,7.17,4.27,6.89,4.46-.95-3.82-15.05-8.86-12.48ZM344.64,710.49c-4.44-2.39-13,10.3-8.86,11.17,1.14.24,5.49-8.11,7.76-8.65l1.1-2.51ZM452.8,724.29c1.34.46,8.95,0,11.18,0,.69,0,4.65-1.4,4.93-2.62-2.59-.73-16.49-1.46-17.09.99-.15.59.57,1.49.98,1.63ZM280.74,746.83c-7.52.72-17.34,5.76-4.93,9.8,4.35,1.42,19.93,1.9,21.38-3.25,1.92-6.78-12.53-6.92-16.45-6.55ZM39.91,768.98c1.51.52,10.61,0,13.15,0,.59,0,3.82-1.64,2.96-2.62-2.52-.78-16.49-1.54-17.09.99-.14.6.57,1.49.98,1.63ZM339.87,773.74c-6.48,1.11-22.09,9.87-18.55,18.23,2.36,5.57,26.05,5.74,31.56,5.29,2.98-.24,13.27-1.85,14.43-4.63,1.5-14.22-15.19-20.98-27.44-18.89ZM96.63,789.53c-5.79.87-15.01,6.38-14.3,13.24,1.01,9.8,27.69,6.18,33.71,3.54,4.31-1.89,4.58-4.41,3.13-8.77-2.8-8.39-15.31-9.1-22.54-8.01ZM245.37,792.65c-3.1-.6-6.35-.99-9.52-.65-.83.09-3.9.17-3.62,1.62,1.35,2.75,15.6,1.93,13.14-.97Z" fill="#fff"/>
  <path d="M590.54,3.89v272.12c-21.84-13.97-44.53-10.45-66.86-.12-11.12,5.14-21.44,12.86-32.09,18.53-.74.39-3.46,2.32-3.96,1.31l12.16-52.76c.76-1.29,3.23-.47,4.45-2.94.75-1.51,4.85-22.76,4.82-24.81-.05-3.5-1.71-4.07-2.06-6.55-.53-3.75.88-11.1.71-15.83-2.5-69.12-63.14-129.68-130.07-141.42-3.91-.69-3.92-.69-7.62,1.17-1.59-2.69-2.05-3.38-5.32-3.4-20.02-.1-52.55,6.31-71.85,12.36-41.3,12.93-81.71,43.21-103.25,80.79-1.81,3.15-6.74,15.8-7.96,17.05-1.7,1.74-3.72.02-5.2,2.03-.78,1.07-6.54,23.66-6.63,25.63-.17,3.66,2.03,3.43,1.82,6.29-.35,4.6-3.54,10.79-4.54,14.62-7.05,26.77-13.55,52.83-20.96,79.45-.69,1.01-3.04.15-4.03,1.54-1.5,2.13-4.4,18.71-5.23,19.26-10.75-3.88-20.88-9.89-32.86-8.53.7-5.65-1.48-11.91-.67-17.44.52-3.54,3.62-6.04,4.53-11.24,1.95-11.08,2.09-24.89-12.9-22.42-1.12,1.29.18,5.87-2.79,5.74,2.33-8.57-5.29-10.75-12.26-10.45-4.16.18-6.45,4.77-5.5,8.49l-2.99-.62-.57-7.31c-5.82-1.92-12.19-1.62-18.03.14l-.07,6.68c-7.03,5.57-3.58-5.1-7.05-6.01-1.85-.48-11.1,2.31-12.5,4.02-2.27,2.78-2.22,22.87-.35,25.93.86,1.41,2.41,1.51,2.79,3.12.25,1.06-.41,20.56-.67,21.69-.17.73-.22,1.33-1.06,1.6-9.58-3.41-5.24,6.58-8.11,8.29-4.11,2.45-2.97-7.57-3.45-9.09-.81-2.6-15.02-3.23-18.27-3.75V3.89h586.45ZM182.91,66.99v-10.19c0-14.1-23.9-22.22-35.6-20.99-12.71,1.34-21.93,8.57-25.88,20.66-10.7-9.87-30.54-7.09-40.77,1.96-6.04,5.34-8.5,11.4-10.5,19.06-11.57-7.86-31.83.41-36.82,12.51-2.72,6.58-2.53,12.64,4.78,15.6,45.12,1.79,91.25,2.72,136.61,1.52,9.65-.25,27.95.63,35.15-4.95,7.44-5.76,11.52-17.94,6.04-26.44-6.92-10.72-21.79-14.44-33.01-8.74ZM497.17,66.34c-19.84-9.16-39.18,18.23-10.86,21.71,20.76-2.02,44.81,2.47,65.09.62,4.9-.45,12.84-2.03,13.99-7.7,3.02-14.79-19.54-20.16-29.08-12.01-1.75-3.86-1.59-7.85-4.3-11.5-8.62-11.63-33.75-6.62-34.84,8.87ZM117.83,157.69c-1.42-25.41-35.74-25.48-41.74-2.68-16.28-9.66-38.25,17.09-13.15,21.08,11.42,1.81,28.83.89,40.78.7,8.79-.14,22.73.3,30.79-.77,3.92-.52,7.81-2.26,8.66-6.46,2.69-13.32-16.18-17.77-25.34-11.87ZM556.35,147.84c-7-.71-11.97,2.7-16.21,7.83-3.72-2.86-7.71-4.92-12.51-5.15-2.01-.1-4.86-.16-4.16,2.57,6.94-.53,11.58,3.28,16.68,7.18,4.3-5.85,8.35-9.26,15.82-10.4l.39-2.03Z" fill="#fff"/>
  <path d="M4.08,406.16l101.92,6.88c.96.65.49.93.36,1.68-.42,2.43-4,8.88-4.93,12.18-10.74,37.89,7.94,60.04,46.81,46.8,2.53-.86,12.06-6.19,12.77-6.27,1.01-.12,2.36,1.24,4.94,1.03,3.37-.27,10.9-5.6,12.84-4.69,3.65,12.19,6.01,24.92,11.38,36.54.34.73,1.29.26,1.29.82s-1.09.14-1.3.8c-1.84,5.72.38,12.63-.33,14.61-.85,2.38-9.93,10.92-12.08,13.61-7.64,9.59-15.94,21.07-22.66,31.29-2.27,3.46-10.88,15.65-11.84,18.38-1.7,4.82,1.75,6.15,1.51,6.42-.05.05-.87-.13-1.33.48-.39.52-.37,1.69-.78,2.01-1.92,1.5-28.3,8.65-33.36,10.37-35.93,12.25-71.44,25.71-105.22,43.02v-235.97ZM48.13,445.6c-5.96.84-5.35,9.79-5.25,14.45,1.2.09,2,.22,2.51-1.1,1.14-2.93.8-9.84,2.74-13.36ZM37.62,460.71c5.52-.91-2.58-14.3-5.27-11.83l5.27,11.83ZM56.68,451.51c-3.05-.94-9.91,8.5-6.87,9.19,3.08.7,7.37-8.69,6.87-9.19ZM119.79,498.18c-5.08-1.07-6.77,11.91-4.26,12.48,2.36.53,1.39-4.78,1.78-6.09.65-2.19,2.61-3.91,2.48-6.39ZM112.56,510.66c.78-4.57-2.72-8.91-7.22-9.85-.74.82,5.18,12.06,7.22,9.85ZM120.7,507.6c-.47.7-1.25,1.51-.6,2.42,2.66,3.7,6.3-5.93,8.23-6.91.1-3.75-7.21,3.86-7.63,4.5ZM72.97,564.09c-11.11,1.4-20.68,13.97-2.73,15.5,5.51.47,23.12,0,18.37-9.17-2.9-5.6-9.9-7.06-15.64-6.33Z" fill="#fff"/>
  <path d="M200.65,373.95c.63,4.5,5.49,10.67,5.91,14.86.33,3.29-1.76,8.55-1.99,12.39-1.34,23.21,16.69,33.41,37.86,31.93,9.39-.66,11.96-4.67,21.55.75,2.29,1.29,3.05,2.71,4.85,4.39,4.36,1.12,12.84-10.26,15.23-13.45.83-1.1.84-3.34,1.58-4.04,1.03-.98,7.92-3.41,10.38-5.73,11.1-10.47,3.89-21.56,4.55-33.57.06-1.05.17-4.47,1.66-4.29,15.65,4.09,30.28,6.87,43.38,17.15,8.82,6.92,24.53,27.48,31.13,37.21,1.02,1.5,1.78,3.29,2.75,4.83-6.75-.22-14.33,2.53-20.18,5.8-7.8,4.36-19.97,16.15-22.58,24.75-1.09,3.59-.86,6.98-2.28,10.2-1.23.03-15.9-14.96-17.68-17.15-2.94-3.61-7.81-13-10.23-15.23-.73-.67-1.81-.67-2.66-1.13-2.76,3.48,18.26,26.76,21.54,30.42.07,1.09-6.58,19.63-7.29,20.64-1.55,2.21-11.8,6.79-14.75,7.92-28.15,10.77-73.94,12.35-102.03,1.12-2.01-.8-4.8-1.42-6.32-2.88-.7-.67-4.41-7.54-4.98-8.86-8.41-19.59-13.52-48.77-10.46-68.56.36-2.32,2.82-14.2,2.65-14.94-.52-2.28-3.82,2.42-4.12,3.1-5.57,12.4-1.4,34.65-1.24,48.03l-10.75,5.69c1.16-11.58-.65-27.7-8.31-37.03-1.91-2.32-6.24-4.18-6.54-7.32-.06-.67.7-7.71.87-8.08.21-.45,6.22-4.55,7.72-6.4,3.31-4.09,4.03-9.02,6.71-13.04,7.9-11.87,22.41-13.11,34.07-19.47Z" fill="#fff"/>
  <path d="M590.54,392.35l-126.9,1.63c1.24-5.15,1.84-10.49,3.37-15.57.15-.51,1.01-.49,1.19-1.03.41-1.21.12-4.67.68-5.63.47-.8,2.07-.35,3.03-1.04,2.58-1.86,5.62-20.33,6.81-24.72.35-1.3,2.86-2.32,1.7-4.9-.52-1.17-2.39-.05-2.25-4.82.09-3.02,1.72-4.23,1.97-5.34,1.2-5.36,4.74-27.57,7.14-30.3,1.11-1.27,10.52-6.93,12.74-8.29,26.68-16.31,61.89-34.51,90.51-12.05v112.07Z" fill="#fff"/>
  <path d="M467.17,106.84c8.97,11.21,14.32,20.1,19.18,33.73,6.85,19.21,10.06,38.41,8.85,59.19l-28.64-3.93c.69-45.64-26.66-90.82-70.34-106.33l-23.87,96.69,123.47,16.9-4.63,26.18-126.44-16.41-10.9,42.12c-5.92-.34-3.31-4.3-3.99-8.17-1.47-8.37-13.76-7.71-17.83-.84-2.2,3.71.5,4.86-6.44,5.06l48.68-196.5c20.56,3.74,41.57,10.82,59.47,21.66,12.97,7.85,24.03,18.9,33.44,30.66ZM387.87,69.12c-8.7,1.6-6.77,14.46,2.3,13.52s8.9-15.58-2.3-13.52ZM431.19,86.92c-9.09.52-9.33,14.45.53,14.27s9.37-14.85-.53-14.27ZM463.47,122.31c-8.11,1.03-6.14,19.49,6.05,13.32,7.44-3.76.25-14.12-6.05-13.32ZM372.73,148.96c7.31-7.24-6.87-17.02-11.95-8.99s6.65,14.24,11.95,8.99ZM474.36,168.41c-6.25,5.33,1.18,17.11,9.35,10.99,7.65-5.72-2.38-16.93-9.35-10.99ZM352.35,191.36c-8.25,1.92-7.19,17.05,4.83,13.36,6.54-2.01,5.38-15.73-4.83-13.36ZM398.2,198.8c-6.89-7.95-17.35,2-12.16,8.37,5.54,6.81,18.95-.54,12.16-8.37ZM431.92,201.25c-6.9,1.72-7.4,13.93,2.46,13.69,11.28-.28,8.63-16.46-2.46-13.69ZM475.96,206.49c-8.42.67-8.13,13.92-.14,14.35,9.63.51,10.8-15.2.14-14.35Z" fill="#fff"/>
  <path d="M352.92,96.31c-10.15,42.14-20.62,85.07-31.48,127.25-2.52,9.79-6.18,18.69-7.7,28.79-6-2.08-3.53-4.61-3.88-8.21-1.23-12.77-19.46-9.73-20.76,1.65l-2.97.64c3.15-10.41,5.23-21.14,7.96-31.67.12-.48,1.07-.52,1.19-1.03.39-1.56,1.84-8.99.75-9.73l-122.99-16.07c2.18-6.89,2.89-16.03,5.22-22.68.33-.94,1.19-1.56,1.82-2.29l123.06,15.03,22.41-90.38-1.64-2.24c-18.44,3.32-36.53,9.61-52.82,18.85-22.64,12.84-44.43,36.07-54.73,59.98l-31.48-4.21c1.34-3.04,2.37-6.31,3.84-9.29,14.5-29.43,45.21-57.81,74.16-73.08,30.8-16.26,64.76-21.85,99.2-25.03l.73,1.33c-3.56,14.07-6.49,28.31-9.89,42.41ZM338.57,63.87c-8.05,2.04-5.91,16.07,4.78,13.32,7.96-2.05,6.01-16.05-4.78-13.32ZM298.44,71.07c-9.49,2.17-6.93,16.66,4.82,13.36,8.87-2.49,3.99-15.38-4.82-13.36ZM247.17,96.07c-8.1,1.63-6.75,15.5,3.63,13.5,8.96-1.73,6.87-15.6-3.63-13.5ZM220.16,143.01c7.27-7.27-5.35-16.76-10.96-9.32s4.67,15.61,10.96,9.32ZM324.76,132.23c-6.79,1.72-6.51,13.28,1.84,13.66,10.78.49,9.68-16.57-1.84-13.66ZM193.28,171.01c-9.28,1.23-7.62,14.04,1.7,13.61,9.05-.41,9.01-15.03-1.7-13.61ZM234,176.25c-6.01,1.43-5.98,11.44,0,12.86,12.8,3.03,12.79-15.89,0-12.86ZM272.02,190.19c7.33,13.98,21.66-5.02,10.2-8.54-6.63-2.03-7.57,2.15-11.21,6.08l.02,1.69c.12.45.86.53.99.77ZM312.28,186.08c-8.54,1.36-7.1,14.63,1.09,14.29,10.39-.44,9.25-15.94-1.09-14.29Z" fill="#fff"/>
  <path d="M292.7,347.66c.71,3.86,3.35,5.84,4.42,9.72,2.77,10.1.6,22.08.83,32.7.09,4.18,1.73,7.69,1.17,12.31-.8,6.65-6.85,12.8-12.98,14.94.11-4.63.16-9.05-1.29-13.5-.62-1.89-4.03-8.54-5.93-5.24l4.63,17.11c-3.47,6.6-5.39,16.01-13.41,18.57-13.42-8.64-32.44-8.82-32.68-29.42h-2.6c-1.04,5.58.58,9.17,3.27,13.78-6.08-.4-13.77-4.4-17.73-8.89s-14.73-28.5-15.63-34.32c-1.24-8.03.48-17.37,2.48-25.14,2.69,2.06,3.1,5.94,5.35,8.77,2.75,3.46,12.11,10.5,16.65,10.34s4.36-4.21,6.66-6.55c8.92-9.1,29.63-17.07,41.6-10.83,7.36,3.83,11.19,13.48,14.07-3.73l1.12-.62ZM276.27,366.71c.41-4.81-8.23-6.72-12.14-6.56s-20,5.61-18.75,10.14c2.17,2.05,6.44-2.82,9.05-4.04,8.41-3.93,13.62-3.38,21.83.46ZM267.72,368.69l-13.79,2.95c-.43,2.48,7.03,1.78,8.7,1.48,2.18-.39,5.54-1.69,5.09-4.44Z" fill="#fff"/>
  <path d="M211.84,609.93c1.5,2.25-18.88,13.69-20.29,16.23,6.12,15.46,11.01,32.12,5.66,48.67-16.24,7.39-37.23,9.98-53.75,1.81-3.95-14.62-6.39-29.87-6.56-45.03,8.35,7.31.72-4.04-.22-7.35-4.57-16.21,6.54-28.44,12.81-41.83,23.29,2.29,41.02,19.64,62.35,27.5Z" fill="#fff"/>
  <path d="M466.93,409.11c0-.39-1.51-1.74,0-1.64,11.06,21.16-15.3,30.67-31.87,32.87-4.66,7.14-8.04,15.47-12.82,22.5-.51.75-1.65.97-2.27,1.83-19.14,26.67-40.34,47.4-72.34,22.31-12.7-9.96-11.46-15.62-2.47-28.06,8.02-11.09,21.71-19.44,35.65-19.9-1.85,4.13-6.59,5.41-9.84,8.89-.75.8-5.85,6.32-2.99,6.87,8.2-8.67,19.15-15.22,29.57-21.05,1.91-1.07,9.98-4.04,10.88-4.9,1.34-1.28.29-4.16.85-6.07.1-.35,4.07-4.91,4.74-5.43,5.65-4.37,11.01-2.19,17.42-1.31l-4.95,4.58.67,1.97c3.85-4.7,19.84-4.17,21.91-7.66,1.9-3.22.15-10.38,4.98-12.01,6.6,5.63,2.64,18.21-3.54,23.32-.33,1.56,1.3,1.07,2.16.84,8.6-2.3,8.44-17.96,6.71-24.83,6.25,1.85,4.86,15.88,2.89,20.62-1.11,2.68-3.64,4.34-4.52,6.97,4.41,1.58,9.2-7.74,9.2-10.84,0-3.28.08-6.58,0-9.86Z" fill="#fff"/>
  <path d="M99.92,278.79l2.48,131.35-6.27-.05c.84-5.17,1.23-9.84-2.96-13.8-5.24-4.95-12.72-2.42-13.51-2.92-.63-.4-1.34-4.18-2.91-5.64-1.3-1.21-8.77-3.89-8.91-4.38l-1.48-74.63c-1.09-2.03-11.57-4.04-13.65-3.55-2.81.67-1.42,5.43-2.66,7.56-5.67,1.26-1.96-6.25-3.52-8.51l-8.96-2.34,1.47-24.81.99-.99c19.18-4.3,41.32-4.11,59.9,2.68ZM87.36,292c-.1-.16-2.71-2.05-2.88-2.1l-1.83.57c-1.54,2.15-3.6,9.61-1.65,11.5l7.23.32c-.25-2.86.72-7.82-.86-10.3Z" fill="#fff"/>
  <path d="M343.32,293.76c.57,7.88-5.72,14.23-4.21,21.77l127.14,18.35-6.21,26.93-1.88.61c-38.22-5.14-76.31-12.38-114.6-16.96-2.73-.33-11.11-1.9-12.62.33-1.68,2.48-2.88,13.51-4.69,16.66-1.11-13.19-12.7-19.4-22.75-25.63l12.21-46.37c8.68,4.81,17.72,8.99,27.62,4.3ZM328.51,326.33c-7.41-13.99-21.65,3.45-9.78,8.11,6.17,2.42,7.69-1.59,10.77-5.67v-1.67c-.12-.45-.86-.53-.99-.77ZM359.58,326.77c-8.3,1.97-4.36,17.55,5.92,12.48,7.38-3.64,4.29-14.91-5.92-12.48ZM398.08,343.54c3.09,3.75,12.64,3.14,13.58-2.18,1.31-7.34-5.53-11.13-11.61-7.7-3.01,1.69-4.11,7.29-1.97,9.88ZM443.08,338.6c-5.92,1.41-6.01,11.66-.5,13.36,12.19,3.75,14.17-16.61.5-13.36Z" fill="#fff"/>
  <path d="M127.02,356.86l-3.09,11.52c.11,2.92,10.63,2.31,13.85,4.34,1,.63,7.4,10.78,7.56,5.59.04-1.42-3.08-2.37-2.54-4.36,7.05.63,15.95-1.1,15.1,8.8-.3,3.45-3.06,3.74-4.27,6.31-5.44,11.56-3.46,29.46-6.68,41.96-1.43,5.56-4.91,9.44-6.77,14.91-.03,2.97,5.41-4.07,5.8-4.04l5.67-15.35c8.3,6.73,13.7,24.26,11.5,34.49-1.08,5.02-23.38,12.3-28.6,12.82-52.43,5.22-30.18-54.71-14.3-79.99.5-.8,2.92-4.61,3.13-4.8,1.65-1.4,3.88.63,2.85-3.16-15.1-5.23-12.98-23.57.77-29.03Z" fill="#fff"/>
  <path d="M467.22,480.14c3.3,4.63,2.55,5.9-1.56,9.83-10.17,9.72-40.31,17.22-54.47,21.16-24.1,6.69-48.63,11.89-72.94,17.78-1.62-.1-7.15-10.9-8.71-13.14-1.32-1.9-6.1-5.47-6.59-8.1-.4-2.16.8-4.66.67-7.16s-1.96-5.21-1.86-7.09c.05-.91,5.31-16.77,6.19-16.98,2.43,1.44,7.84,3.85,9.81,5.29,11.49,8.38,18.72,18.63,35.47,19.76,23.61,1.6,39.13-22.61,52.6-37.89,12.26,3.87,33.55,5.53,41.39,16.54Z" fill="#fff"/>
  <path d="M349.91,618.46l3.28-.67-1.3-1.3c4.36-.97,11.35.88,15.75,2.31,6.12,1.99,23.52,11.62,25.93,17.46,5.05,12.23-8.67,33.99-21.66,34.77-3.78.23-27-7.05-31.86-8.88-3.22-1.21-6.34-3.55-9.86-4.28l1.95-2.29c-.02-1.31-12.18-2.98-14.59-3.8-12.83-4.39-22.35-17.48-29.44-28.41,20.68-2.77,41.54-6.56,58.18-20.03l3.62,15.1Z" fill="#fff"/>
  <path d="M4.08,299.67l15.15,2.93.96,8.24c.65,1.4,4.66,2.5,6.11,2.5,5.99,0,2.82-8.25,5.11-8.98l11.95,2.04c.78,7.6.76,10.75,9.93,9.6l1.79-7.7,7.08,1.33c2.14,1.46.77,10.42,1.04,13.41.11,1.2,1.3.44,1.42,2.51,1.1,19.01-.93,39.13-.05,58.25l-7.58,1.22c-3.09-11.47-15.04-15.25-24.31-7.82-1.82-5.54-1.91-9.15-6.57-13.13-6.48-5.54-14.65-6.27-22.03-1.97v-62.44Z" fill="#fff"/>
  <polygon points="442.61 226.05 419.28 322.69 383.43 318.73 406.78 222.1 442.61 226.05" fill="#fff"/>
  <path d="M249.07,221.89c-.04.14-.88.23-1.12,1.18-3.8,14.67-6.61,29.63-10.62,44.25-19.65,1.7-34.12,8.29-47.83,22.19-1.83,1.86-2.09,5.1-5.27,4.26l24.94-97.67,44.13,5.98c.76.78-3.57,17.26-4.23,19.82Z" fill="#fff"/>
  <path d="M403.81,220.8l-23.75,97.2-36.75-4.86c-.92-.81,3.01-18.27,4.1-20.23,1.2-2.16,5.82-4.39,7.74-6.73,7.23-8.81,5.59-19.17,1.38-28.8l10.48-41.2,36.8,4.61Z" fill="#fff"/>
  <path d="M422,143.69c-.03.13-.91.19-1.14,1.16-3.4,14.45-6.07,29.09-9.76,43.47l-36.2-4.34,22.38-90.02c2.21-1.74,29.41,14.81,31.19,19.72-1.95,10.01-4.13,20.07-6.46,30Z" fill="#fff"/>
  <path d="M282.42,315.91c.55,2.33,1.39,5.77,2.05,8.77,2.11,9.61,7.71,19.85,1.98,29.56-5.28-3.91-10.25-6.72-16.74-8.21l2.55-4.88c-2,.1-.92-2.03-1.61-3.3-2.14-3.93-5.08-5.01-7.18-7.95-1.1-1.54-.59-4.26-2.65-4.59-5.71,5.74,6.8,9.84,7.44,15.62.78,7-15.65,8.05-20.26,9.71-8.31,3-13.49,8.83-18.77,15.48-4.38.73-14.41-9.1-16.27-12.71-7.89-15.33,6.35-23.96,4.22-39.45l.96-1.07c19.25-6.77,40.7-12.29,61.14-9.98,1.77,1.28,2.51,10.4,3.13,13.01ZM271.5,309.7c-4.46.61-10.68,2.83-9.42,8.42,2.55,1.95,4.92-.84,7.32-1.32,3-.6,11.23-.07,10.72-4.15-.46-3.72-5.91-3.32-8.63-2.95ZM245.93,321.27c1.2-1.95-.59-5.73-3.41-5.79-1.58-.03-12.27,1.45-13.95,1.89-2.66.71-7.21,4.1-3.79,6.51,3.01,2.12,5.64-1.34,8.48-1.81,2.24-.37,11.81.61,12.68-.8ZM273.49,321.47c-3.42,1.28-4.03,4.62-3.68,7.97,8.42,8.32,12.52-5.16,3.68-7.97ZM241.25,328.12c-6.22-5.38-11.61,12.26-2.28,10.2,4.54-1,4.63-7.02,2.28-10.2Z" fill="#fff"/>
  <path d="M321.63,89.34l-20.68,84.16-35.14-3.37c1.31-8.59,3.16-17.29,5.26-25.71.13-.5,1.05-.47,1.3-1.48,3.41-13.62,6.3-27.4,9.97-40.95,12.75-5.13,25.52-10.69,39.28-12.64Z" fill="#fff"/>
  <path d="M205.92,195.17l-25.31,97.29-31.21-3.99,25.72-96.5,30.8,3.2ZM180.77,217.02c-7.8,1.99-5.93,14.55,2.95,13.51,8.35-.97,9.11-16.59-2.95-13.51ZM168.94,264.33c-8.45,1.47-7.16,14.71,2.4,13.63s7.88-15.42-2.4-13.63Z" fill="#fff"/>
  <path d="M489.29,231.97l-23.02,98.6-29.61-4.25,22.97-97.24,29.66,2.89ZM472,265.95c7.63-6.19-4.24-19.26-10.62-9.63-5.12,7.73,4.57,14.54,10.62,9.63ZM454.28,301.79c-7.88,1.23-8.22,14.17.49,14.18,11.08.02,9.29-15.72-.49-14.18Z" fill="#fff"/>
  <path d="M292.71,207.01l-9.28,38.89c-1.57,3.99-4.64,4.51-7.18,7.42-5.92,6.79-7.74,10.88-6.49,20.33.43,3.29,1.84,3.77,3.22,6.31-9-8.26-19.92-12.12-32.21-11.83l16.09-65.08,35.85,3.96Z" fill="#fff"/>
  <path d="M4.08,367.05c.47-2.04,6.46-4.59,8.4-4.8,11.14-1.2,17.81,10.26,15.92,20.25,4.1.76,5.57-3.61,9.21-4.93,9.17-3.34,16.16,2.33,16.44,11.5,6.29-1.33,9.5-4.18,16.23-1.44,5.75,2.34,5.74,5.49,7.76,10.63,8.34-5.73,18.63.7,14.75,10.81l-2.22,1.07-86.5-7.26v-35.82Z" fill="#fff"/>
  <path d="M444.18,131.82c6.5,9.66,15.24,23.97,12.85,35.9-.1.5-1.1.51-1.21,1.01-1.76,8.37-3.09,16.85-5.35,25.11l-35.49-4.91,15.8-71.99c2.07-2.06,12.43,13.43,13.4,14.87Z" fill="#fff"/>
  <path d="M214.47,314.79c-.17,1.73.31,3.78-.03,5.43-2.25,10.92-10.62,26.87-13.05,38.47-2.25,10.73,2.82,10.69-8.94,15.92-11.07,4.92-20.96,5.42-28.37,16.99-3.43,5.35-4.6,14.08-11.4,16.53.84-4.44,1.12-9.7,2.68-13.93.79-2.14,4.57-6.63,5.05-8.9,1.21-5.79-.67-14.1.22-20.16,1.76-11.96,17.91-17.59,23.07-27.55,1.31-2.53,2.85-9.77,4.5-11.27.7-.64,10.94-5.59,12.68-6.38,1.44-.65,13.11-5.68,13.59-5.14Z" fill="#fff"/>
  <path d="M136.75,320.85c1.37,2.99-8.21,26.53-8.4,31.57-15.63,5.55-21.17,23.55-7.89,34.99l-9.36,18.29-3.45,3.73-3.63-107.14c7.09-.28,15.17,1.6,21.7,4.28,1.65.68,9.72,4.83,9.88,5.91.24,1.61-1.49,3.96-1.2,5.78.31,1.99,2.21,2.23,2.36,2.58Z" fill="#fff"/>
  <polygon points="411.71 357.52 399.12 407.38 362.4 402.21 374.84 352.53 411.71 357.52" fill="#fff"/>
  <path d="M278.24,104.46l-15.85,64.99-42.66-4.53c-.66-.58,3.41-8.35,4.05-9.45.42-.71,1.49-.95,1.87-1.56,12.75-20.64,30.55-38.79,52.58-49.45Z" fill="#fff"/>
  <path d="M192.78,504.09c11.49,3.29,22.64,7.63,34.61,9.1,29.79,3.67,65.67-.07,91.96-15,4.05,8.44-4.72,15.29-11.27,18.95-25.63,14.32-79.68,14.28-106.71,3.66-9.5-3.73-9.62-6.52-8.58-16.72Z" fill="#fff"/>
  <path d="M371.61,351.61l-12.85,49.95c-1.34.42-13.27-11.07-15.99-12.91-5.4-3.65-11.81-5.8-17.56-8.79l8.88-33.23,37.52,4.97Z" fill="#fff"/>
  <path d="M271.27,283.64c1.05,1.31,3.17,2.46,3.02,4.85-31.25-2.88-61.31,9.7-88.75,23.01-1.98-15.03,11.64-27.53,23.89-33.63,18.38-9.15,47.78-11.85,61.84,5.77Z" fill="#fff"/>
  <path d="M548.91,614.71c4.58,6.8-4.18,20.99-6.37,27.73.14,1.22.85.77,1.64.34,1.88-1.01,5.59-5.62,7.99-7.13,17.87-11.26,17.34,7.89,4.55,14.41l-50.04,1.93c-3.11-.04-13.92-7.28-9.86-10.54,7.48-3.69,9.17,4.52,14.8,5.92-1.22-5.25-5.35-9.29-5.84-14.86-.96-11.01,8.09-10.47,12.53-2.01,1.43,2.72,1.16,7.97,5.14,7.67-1.16-10.58,7.78-30.79,21.08-26.65.4.13,4.21,2.96,4.36,3.19Z" fill="#fff"/>
  <path d="M456.05,761.48c.08.18.82.24.97.78,1.05,3.57.85,9.44,1.37,13.29,3.7.56,2.6-5.04,3.62-7.87,1.49-4.11,6.09-11.66,11.1-11.18,7.06.68,3.51,12.49,3.68,17.08,4.23-.59,5.36-6.58,9.26-8.82,2.68-1.54,6.95-2.62,9.49-.4,3.95,3.45-.79,9.08-1.78,12.73-.24.88-.9.76.46,1.75,4.31-1.77,7.42-4.84,12.48-4.66,9.86.36.8,10.79-4.6,11.29-4.3.4-15.04-2.33-20.39-2.68-8.82-.58-20.11-.66-28.9,0-3.76.28-17.99,3.35-19.93,2.86-4.83-1.22-14.5-14.39-5.68-17.35,5.62-.81,13.31,9.47,14.41,9.21,1.62-.37.12-10.28.41-12.74.56-4.74,3.6-9.6,8.76-9.61,2.98,1.12,4.11,3.68,5.26,6.31Z" fill="#fff"/>
  <path d="M69.33,254.82l7.64.72,1.79-8.48,9.23,1.28,1.24,7.96,6.85,1.91,1.79-6.59c12.33-.17,6.69,17.28,5.5,25.05-15.78-7.12-33.3-5.9-50.28-5.9l-17.68,3.33c-1.13-8.84-5.2-27.67,9.45-25.03.19,2.47-.4,7.14,2.92,7.26,8.49.32,6.99-2.93,8.22-9.62l11.57-.09,1.77,8.21Z" fill="#fff"/>
  <path d="M457.07,364.09l-11.31,49.82c-2.35,2.68-25.38-3.77-30.11-3.16l11.2-50.57,30.21,3.91ZM430.35,383.38c-7.57,6.92,4.24,16.52,10.57,9.58s-4.08-15.52-10.57-9.58Z" fill="#fff"/>
  <path d="M168.19,338.21c-.99,3.67-2.36,9.74-3.89,13.52-2.65,6.57-9.38,11.76-7.03,20.9l-28.85-5.34,12.42-45.65c1.26-.74,27.03,3.14,28.92,4.01,2.23,1.03-.93,10.21-1.56,12.55ZM149.22,339.89c-1.39.17-5.33,2.84-6.05,3.86-4.58,6.49,7.34,14.48,13.38,6.81,4.2-5.33-1.73-11.36-7.33-10.66Z" fill="#fff"/>
  <path d="M184.88,296.39c-.24,2.84-1.69,5.37-1.96,8.22-.29,3.1.84,7.12.63,9.17-.29,2.78-4.66,5.23-1.3,10.21l-44.59-6.87c1.57-3.61,5.39-25.09,8.14-25.91l39.09,5.18ZM158.43,299.82c-9.01,1.42-7.4,14.51,1.74,13.64s7.76-15.13-1.74-13.64Z" fill="#fff"/>
  <path d="M455.73,228.06l-22.41,95.38c-2.28,3.94-6.79.24-10.44.55l23.68-97.28,9.17,1.35Z" fill="#fff"/>
  <path d="M364.1,82.51c-11.36,47.03-23.67,95.25-35.83,142.09-2.09,8.04-3.54,20.44-6.42,27.63-.95,2.36-3.49,5.07-6.13,5.37l50.63-203.1c2.45.13,3.32,2.84,3.31,4.89-.02,4.59-4.25,17.73-5.55,23.12Z" fill="#fff"/>
  <path d="M294.28,329.66c5.69,10.18,13.27,10.88,20.8,17.65,9.01,8.1,10.34,20,6.49,31.18l-20.02-5.2c1.73-10.28-1.8-18.47-6.03-27.42-.63-1.33-2.52-2.45-3.51-5.07-3.35-8.84-4.69-20.32-6.54-29.61,4.24,4.41,5.74,12.99,8.81,18.48Z" fill="#fff"/>
  <path d="M279.54,299.68c-22.57-2.09-46.61,4.19-67.49,12.37-5.78,2.26-19.74,10.27-23.75,11.13-3.31.71-4.57-1.58-3.97-4.61.69-3.48,12.62-9.26,16.09-10.91,16.92-8.08,57.47-21.06,75.33-15.68,4.32,1.3,5.09,3.52,3.79,7.71Z" fill="#fff"/>
  <path d="M196.71,711.8c3.77,10.18-6.5,18.42-9.48,27.65l-22.02,3.85c-1.39-8.89-5.95-16.4-11.88-22.95,15.11,3.27,31.07,1.17,43.39-8.55Z" fill="#fff"/>
  <path d="M491.01,269.21c-3.7,16.09-8.36,33.8-12.3,49.82-1.06,4.3-1.58,12.36-3.15,15.9-1.06,2.39-6.3-2.86-5.19-5.15,7.25-31.95,14.32-64.46,22.22-95.84,1.79,1.44,4.4,3.19,4.65,5.58.44,4.09-4.95,24.16-6.22,29.69Z" fill="#fff"/>
  <path d="M329.42,260.14c-.22.33-4.45,1.53-6.36,4.48-4.04,6.26-2.96,16.58,4.24,19.87,13.99,6.4,29.76-7.24,21.19-21.18-2.02-3.29-5.04-2.99-3.18-8.33,20.58,8.42,11.65,35.56-8.95,37.39-22.94,2.04-31.38-23.46-12.95-35.95,1.2-.82,5.99-4.41,6.7-1.72-.81,1.31-.22,4.73-.68,5.44Z" fill="#fff"/>
  <path d="M194.74,690.11c-1.53,3.66.71,10.31-1.92,12.86-6.23,6.05-35.31,7.75-41.71,2.16-2.62-2.29-2.83-10.3-4.37-13.7,15.54,5.71,32.78,4.93,47.99-1.32Z" fill="#fff"/>
  <path d="M422,724.06c-.41.39-6.31,3.54-6.68,3.49-2.74-.29,3.12-10.41.02-9.17-3.63,1.45-3.36,8.94-4.24,9.57l-5.97.29c-.17-2.23.18-4.37,1.19-6.38,1.34-2.65,4.92-3.13,3.74-5.46-4.64-1.56-8.27,7.7-7.84,11.22-.67.99-7.13,1.42-6.97-1.05-.08-2.2.59-4.84,1.98-6.56.46-.57,6.87-4.13,4.28-4.93-6.54.11-9.65,6.55-8.87,12.5-15.52-.6.22-13.07-.66-13.8-6.01.16-9.51,5.37-8.55,11.17-4.91.41-7.41-4.32-5.08-8.38,7.06-3.27,8.77-7.87,17.22-8.09,5.22-.14,26.15,3.18,29.29,6.93,1.56,1.87-1.4,7.23-2.87,8.65Z" fill="#fff"/>
  <path d="M433.14,722.72c-6.51,11.68-22.01,12.7-34.24,12.08-5.83-.3-23.76-1.56-22.37-9.84,9.21,5.66,24.07,6.97,34.87,5.93s13.95-4.68,17.7-14.51c4.38-11.5,10.49-39.36,5.21-50.53-.79-1.68-1.95-1.95-2.54-3.35,2.27.21,4.51,1.54,5.87,3.33,6.87,9.03,1.08,46.9-4.49,56.89Z" fill="#fff"/>
  <path d="M101.39,744.67c.47-.57,5.79,4.19,6.77,4.73,22.31,12.2,62.08-7.32,86.71-8.21l6.44-3.09c.77,5.37-2.95,7.83-7.36,9.4-9.67,3.43-47.83,9.68-58.72,10.31-9.71.56-33.63.46-33.84-13.13Z" fill="#fff"/>
  <path d="M288.1,249.72c1.32,7.86-5.93,8.01-7.71,13.65-5.3,16.81,17.57,22.77,26.37,10.58,3.04-4.21,3.36-9.81.71-14.36-.69-1.19-3.44-2.16-3.88-4.54-.08-.46-.07-5.28,1.21-4.62,3.38.85,8.77,6.08,8.94,9.52s-6.16,13.68-2.99,19.37c-11.16,12.39-37.55,9.3-37.81-10.22-.12-9.16,6.55-17.14,15.17-19.39Z" fill="#fff"/>
  <path d="M424.2,359.5l-11.91,49.87-9.17-.87,11.13-49.94c1.11-1.34,8.08.68,9.95.94Z" fill="#fff"/>
  <path d="M432.31,673.49c1.01,5.12.59,9.75-.23,15.62-.54,3.85-1.15,7.72-1.97,11.52-5.56-5.14-13-6-19.7-8.87,2.7-3.28,5.35-6.63,7.33-10.41,3.31-6.32,5.9-13.75,4.5-20.81,7.98,1.31,8.79,6.45,10.08,12.96Z" fill="#fff"/>
  <path d="M304.54,287.85l-9.19,34.83-7-14.37c-.91-1.86-4.43-6.17-4.7-7.14-.6-2.19.29-4.88-.17-6.93-.29-1.3-8.05-6.51-7.85-10.02,8.53,5.97,19.1,7.3,28.91,3.63Z" fill="#fff"/>
  <path d="M213.41,405.25c4.45,7.54,12.08,13.63,20.61,15.87,2.19.58,4.55-.36,6.73.5,1,.4,2.46,2.81,3.64,3.59,2.04,1.35,4.6,2.21,6.24,3.94-24.08,6.2-48.85-6.57-42.07-34.17,2.3,3.09,2.88,6.91,4.85,10.26Z" fill="#fff"/>
  <path d="M144.78,680.91c16.54,5.29,36.08,4.54,51.93-2.63-.02,3.31-.12,7.05-3.17,8.99-8.94,5.68-33.07,6.28-42.81,2.48-5.21-2.03-5.13-3.29-5.95-8.84Z" fill="#fff"/>
  <path d="M410.16,671.48c-6.12,8.89-18.49,15.81-27.37,6.47,11.14-4.14,22.09-14.38,23.67-26.62l8.43,7.03c.48,2.06-3.34,11.1-4.72,13.12Z" fill="#fff"/>
  <path d="M405.7,422.67c.34.53.18,2.06-.05,2.72-.88,2.49-18.67,11.02-22.2,12.97-2.46-8.34-9.39-13.57-13.16-21.03l35.41,5.34Z" fill="#fff"/>
  <path d="M390.34,705.88c-.08,0-1.39,1.62-.97-.31.91-4.24,6.15-4.1,9.34-5.79,2.27-1.19,6.74-4.99,8.69-5.1,3.86-.21,21.12,5.52,21.9,9.64l-2.79,8.77c-6.22-2.75-15.55-7.21-22.36-7.21-4.59,0-9.22.13-13.81,0Z" fill="#fff"/>
  <path d="M156.38,728.46c1.2,1.83,6.88,14.45,6.16,15.54l-11.13,1.93c-2.25-9.29-9.34-17.62-16.73-23.55l-.41-1.36c2.76-.55,6.54-4.57,9.05-4.19,3.49.53,11.11,8.67,13.06,11.63Z" fill="#fff"/>
  <path d="M363.32,409.84c-1-1.28-2.46-2.52-2.24-4.34l52.58,8.21c-2.24,2.1-4.95,5.57-8.15,5.62-3.99.06-33.85-4.24-37.36-5.46-1.7-.59-3.77-2.68-4.83-4.03Z" fill="#fff"/>
  <path d="M330.06,264.31c.18.09.7,1.68,1.85,2.41,3.21,2.04,6.16,2.69,9.64.6,1.59-.96,2.25-3.76,3.78-2.84,7.65,11.63-5.56,22.22-16.82,16.81-9.59-4.61-2.77-19.29,1.55-16.99Z" fill="#fff"/>
  <path d="M418.94,659.87v9.53c0,10.68-16.16,28.15-26.95,29.25l.96-12.51c3.53-1.65,6.95-2.03,10.42-4.04,5.18-3.01,9.64-8.96,11.95-14.35,1.1-2.57.86-7.41,3.62-7.88Z" fill="#fff"/>
  <path d="M194.74,705.89c3.1,3.7-9.88,9.52-12.32,10.35-11.16,3.81-25.74,3.35-36.33-1.82l3.6-6.45c14.8,6.33,30.72,4.2,45.05-2.08Z" fill="#fff"/>
  <path d="M289.31,259.68c1.36,3.71,6.61,4.64,10.01,3.55,2.11-.68,3.02-4.35,4.24-2.99,5.8,10.58-4.25,19.96-14.78,16.09-9.64-3.54-3.78-18.9.53-16.65Z" fill="#fff"/>
  <path d="M133.34,737.69c1.32,1.53,5.95,11.2,4.86,12.23-8.41-.17-18.46,3.19-25.67-2.44-1.77-6.31,13.38-10.59,17.48-12.69.6.02,2.79,2.28,3.32,2.9Z" fill="#fff"/>
  <path d="M398.98,662.27c-4.27,6.03-16.35,16.6-24.08,12.05-.36-1.7.34-1.02.93-1.37,3.95-2.33,8.32-3.77,11.88-7.17,6.53-6.25,9.07-15.62,10.21-24.31,9.12,4.36,5.7,14.27,1.07,20.8Z" fill="#fff"/>
  <path d="M467.18,343.93c.05-.18.86-.3,1-.75.69-2.2,1.11-5.04,1.39-7.36,1.48,1.04,7,4.77,7.26,6.26.23,1.32-5.64,25.67-6.95,25.95-2.01-1.04-6.54-3.2-6.9-5.63-.23-1.57,3.42-15.89,4.2-18.47Z" fill="#fff"/>
  <path d="M502.01,177.87c.03.15.96.23,1.04.7,1.55,9.19,1.48,18.46,1.36,27.77-.92,1.1-5.55-4.31-5.77-5.07-1.34-4.49-.16-20.53-.89-27.37-1.1-10.25-4.04-20.67-6.48-30.65,6.53,10.47,8.56,22.7,10.74,34.63Z" fill="#fff"/>
  <path d="M459.69,398.92l-7.89.99,8.23-34.51c.64-.1,5.64,3.61,5.57,4.95l-5.92,28.57Z" fill="#fff"/>
  <path d="M305.49,241.53c4.87,5.22-2.77,3.49-3.9,5.57-2.04,3.76,1.25,13.68-5.91,13.18-8.58-.6-4.99-19.64,3.32-21.04,3.37-.57,4.41.05,6.5,2.29Z" fill="#fff"/>
  <path d="M502.82,231.06l-2.68,6.16c-.73-.29-5.33-6.13-5.49-7.05-.25-1.42,3.64-23.11,4.83-23.16,1.2,2.32,6.37,5.27,6.71,7.65.18,1.23-2.74,14.29-3.37,16.4Z" fill="#fff"/>
  <path d="M347.28,250.37c-8.62-1.42-2.49,13.89-9.68,15-7.75,1.2-4.92-15.16-2.19-18.64,4.11-5.24,12.42-3.76,11.87,3.64Z" fill="#fff"/>
  <path d="M132.09,723.85c.76.22,4.96,4.11,5.79,5.03,2.65,2.93,9.77,13,10.39,16.6.11.64.82.75-.19,1.47l-6.61,1.38c-2.32-9.93-8.38-16.6-16.4-22.42-.84-1.7,5.73-2.45,7.03-2.07Z" fill="#fff"/>
  <path d="M128.34,732.82c-7.06,2.29-17.55,5.12-19.07,13.16-9.4-3.68,1.75-9.37,6.27-11.16,2.19-3.63-7.27-.47-8.05.5l-4.79,4.74c-2.09-5.71,14.01-12.45,17.59-13.02,3.08-.49,6.48,3.18,8.05,5.78Z" fill="#fff"/>
  <path d="M179.41,338.9c-2.01,2.63-7.9,6.52-10.3,9.41l5.26-22.35c2.92.76,6.87.34,9.16,2.38.4,1.17-3.13,9.27-4.11,10.56Z" fill="#fff"/>
  <path d="M462.99,195.16c-1.89-.15-8.99.14-9.18-2.24l5.9-24.04c1.42,2.4,3.28,9.68,3.28,12.15v14.13Z" fill="#fff"/>
  <path d="M199.8,735.27c-.78,1.15-7.09,4.1-7.68,3.48l6.58-15.77c2.05,2.49,2.83,9.73,1.1,12.29Z" fill="#fff"/>
  <path d="M329.29,520.75c10.34,14.91,14.79,35.88,22.02,52.64,1.64,3.81,6.37,8.31,5.81,13.12-.81,7.01-20.31,20.28-26.7,23.31-35.79,16.97-83.43,12.2-119.03-3.07-21.31-9.14-39.85-26.21-63.96-27.39,13.39-20.77,26.93-41.26,44.02-59.23,28.61,11.68,63.08,14.08,93.39,7.97,13.23-2.67,25.96-7.34,35.91-16.72.88-.13,7.69,8.14,8.54,9.38ZM241.41,531.7c-2.4,0-1.96,1.63-1.69,3.31,1.21,7.62,13.07,23.29,19.13,28.23,1.75,1.43,13.56,8.64,15.12,8.53l.28-1.58c-15.32-8.1-27.08-22.22-32.85-38.49ZM213.45,540.61c-.66-.99-.54-2.62-2.26-2.33-.82,8.25,3.8,17.55,8.02,24.52,7.93,13.09,24.38,28.21,39.97,30.69.23-1.19-.57-1.66-1.37-2.24-3.43-2.49-9.99-4.36-14.36-7.34-7.93-5.4-19.07-17.41-23.42-25.89-2.71-5.28-3.91-13.45-6.58-17.41Z" fill="#fff"/>
  <path d="M339.87,773.74c12.24-2.09,28.93,4.67,27.44,18.89-1.16,2.79-11.44,4.39-14.43,4.63-5.52.45-29.21.28-31.56-5.29-3.54-8.36,12.07-17.13,18.55-18.23ZM363.36,786.43c-6.35-10.69-17.43-12.64-28.57-7.91-3.32,1.41-15.83,9.94-9.39,13.33,4.96,2.61,35.2,3.24,38.98-.18,1.92-1.73-.26-3.97-1.02-5.24Z"/>
  <path d="M571.82,434.07c2.66,1.83,8.15,3.32,8.75,6.75,1.18,6.77-10.21,6.98-14.55,5.95-1.79-.43-2.59-2.29-4.03-2.43-3.12-.31-7.27,1.06-11.6.31-17.57-3.05-1.75-20.02,13.2-16.49,3.34.79,5.59,4.09,8.23,5.91ZM567.32,433.3c-8.07-9.88-34.89,7.95-13.16,8.96,7.71.36,8.18-2.89,13.97-5.93.39-.64-.28-2.39-.81-3.03ZM564.9,443.61c2.62.87,12.91,1.87,12.52-2.26-.46-4.84-13.03-3.3-12.52,2.26Z"/>
  <path d="M96.63,789.53c7.23-1.09,19.74-.38,22.54,8.01,1.45,4.36,1.18,6.88-3.13,8.77-6.03,2.64-32.7,6.26-33.71-3.54-.71-6.86,8.51-12.37,14.3-13.24ZM113.66,794.84c-7.98-6.33-31.36-.55-27.98,8.56,1.69,4.56,29.87,3.55,31.16-2.12.32-1.42-2.1-5.58-3.18-6.43Z"/>
  <path d="M39.77,705.41c3.6-4.02,11.76-6.19,17.08-5.28,4.65.8,16.81,9.48,10.59,14.22-3.24,2.47-24.25,1.96-27.82-.28-2.91-1.82-1.72-6.58.15-8.66ZM65.87,711.77c-2.94-10.82-21-12.81-24.33-.96l.99,1c7.68,1.55,15.71,2.06,23.34-.05Z"/>
  <path d="M280.74,746.83c3.92-.37,18.37-.23,16.45,6.55-1.46,5.15-17.03,4.67-21.38,3.25-12.41-4.04-2.58-9.08,4.93-9.8ZM293.36,751.25c-1.14-1.76-18.35-3.7-19.06,1.95,2.07.39,4.14,1.11,6.26,1.31,1.72.16,15.3.62,12.8-3.26Z"/>
  <path d="M460.16,583.16c.65.82.83,1.77.89,2.79-.52,6.91-23.38,7.22-23.03-.69.23-5.03,19.33-5.63,22.13-2.1ZM457.73,584.95c-1-1.13-16.49-2.37-16.43,1.96.83,1.19,16.34,2.87,16.43-1.96Z"/>
  <path d="M96.61,668.57c17.84-3.68,22.94,12.47,1.89,10.29-9.96-1.03-9.43-8.73-1.89-10.29ZM94.16,674.98c.46.72,13.81,1.73,15.1-.98.1-2.75-15.92-5.66-15.1.98Z"/>
  <path d="M512.29,688.8c1.14,1.07-4.77,6.54-5.4,8.06-1.09,2.63-.86,5.65-1.48,8.38-9.54,2.28,3.3-19.8,6.88-16.44Z"/>
  <path d="M491.02,693.63c-.79-1-3.03-1.11-2.39-3.52,5.66-2.54,13.89,16.26,10.18,17.08-.76.17-6.13-11.46-7.79-13.56Z"/>
  <path d="M561.6,556.02c1.17,1.19-2.5,5.36-3.09,7.08-1.23,3.56-1.02,7.27-1.83,10.68-.22.91.03,2.28-1.31,1.94-3.81-1.87,2.12-23.88,6.23-19.71Z"/>
  <path d="M548.06,564.97c2.51,3.22,4.81,6.15,4.34,10.77-3.25.65-2.41-2.59-3.33-4.08-1.18-1.92-2.69-4.12-4.01-5.99-.88-1.24-6.52-5.73-3.49-6.36,1.8-.38,5.39,4.25,6.49,5.66Z"/>
  <path d="M334.12,703.26c.54.55-3.41,14.27-3.78,14.94-.73,1.34-1.18,1.71-2.78,1.48-.19-.97-.63-1.84-.6-2.87.05-1.77,4.55-16.23,7.16-13.55Z"/>
  <path d="M39.91,768.98c-.41-.14-1.12-1.04-.98-1.63.59-2.53,14.57-1.77,17.09-.99.86.99-2.36,2.62-2.96,2.62-2.54,0-11.64.52-13.15,0Z"/>
  <path d="M315.06,708.52c5.04-2.57,13.32,11.53,8.86,12.48-1.28.27-3.03-5.39-4.27-6.89-1.59-1.94-4.95-2.55-4.59-5.59Z"/>
  <path d="M452.8,724.29c-.41-.14-1.13-1.04-.98-1.63.6-2.45,14.5-1.72,17.09-.99-.28,1.22-4.24,2.62-4.93,2.62-2.23,0-9.84.46-11.18,0Z"/>
  <path d="M344.64,710.49l-1.1,2.51c-2.28.54-6.63,8.89-7.76,8.65-4.14-.87,4.42-13.56,8.86-11.17Z"/>
  <path d="M484.36,542.22c.58.09,1.41.91,2.3.66v.97c-.2.41-2.6,1.65-2.96,1.65h-9.86c-.1,0-1.64-.72-1.65-1-.23-.67,1.5-2.29,1.65-2.29,3.05,0,7.77-.45,10.52,0Z"/>
  <path d="M407.11,602.68c-3.59.34-9.6,1.59-12.88.08-1.05-.48-1.16.12-.94-1.72.68-1.58,17.05-2,13.82,1.64Z"/>
  <path d="M568.18,566.54l-6.33,11.04c-6.57-.18,4.19-13.01,6.33-11.04Z"/>
  <path d="M519.53,698c-.79,1.86-8.4,15.05-8.57,8.24-.08-3.24,5-8.84,8.57-8.24Z"/>
  <path d="M237.49,690.11c1.65,4.27-13.31,2.56-13.81,1.96-.33-3.7,13.25-2.46,13.81-1.96Z"/>
  <path d="M512.96,429.16c-1.85-1.15,3.25-11.61,6.22-11.17,2.4.47-1.58,5.21-2.22,6.31-1.1,1.91-.41,5.31-4.01,4.86Z"/>
  <path d="M503.1,417.33c4.74-1.84,9.3,11.15,6.23,11.82l-6.23-11.82Z"/>
  <path d="M245.37,792.65c2.46,2.9-11.79,3.72-13.14.97-.28-1.45,2.79-1.53,3.62-1.62,3.17-.34,6.42.05,9.52.65Z"/>
  <path d="M462.66,521.18l-.98-1.97c.83.28,1.91-.66,2.3-.66h11.83c.17,0,.66.75.97.99-.01.36-2.57,1.64-2.94,1.64h-11.18Z"/>
  <path d="M276.23,663.86l.04,1.92h-11.84c-1.73-4.29,11.32-2.57,11.8-1.92Z"/>
  <path d="M63.25,648.69c-.15-.19.08-1.41,0-1.95,3.69-.5,7.83-1.56,11.18.99.69,2.86-10.8,1.44-11.17.96Z"/>
  <path d="M500.28,499.64c2.48-.57,6.89-.58,8.71,1.49-1.33,2.6-11.07,1.59-11.15,0,.63-.78,1.47-1.27,2.43-1.49Z"/>
  <path d="M462.99,626.34c-.13-4.09,10.49-2.85,10.5-.98-2.65,2.65-7.22,1.78-10.5.98Z"/>
  <path d="M387.38,550.78c.15.2-.09,1.41,0,1.95-3.43-.35-7.05,2.18-9.85-.98.91-2.44,9.33-1.63,9.84-.97Z"/>
  <path d="M530.68,494.27c.19.26-.05,1.37.03,1.92-3.13.65-6.49,1.45-9.2-.98-1.09-2.11,8.37-2.02,9.17-.94Z"/>
  <path d="M498.49,469.25l-8.15.68c-2.47-4.32,9.97-3.41,8.15-.68Z"/>
  <path d="M470.71,460.84c2.02-.44,4.03-.09,5.41,1.51-2.88,4.35-12.17-.04-5.41-1.51Z"/>
  <path d="M182.91,66.99c11.22-5.7,26.09-1.98,33.01,8.74,5.48,8.5,1.41,20.68-6.04,26.44-7.2,5.57-25.51,4.69-35.15,4.95-45.35,1.19-91.49.26-136.61-1.52-7.31-2.95-7.49-9.01-4.78-15.6,4.99-12.1,25.24-20.37,36.82-12.51,2-7.66,4.46-13.72,10.5-19.06,10.23-9.04,30.06-11.83,40.77-1.96,3.95-12.09,13.17-19.33,25.88-20.66,11.7-1.23,35.6,6.9,35.6,20.99v10.19ZM178.6,56.19c-2.38-6.7-5.71-11.25-12.35-14.29-16.37-7.5-40.44-1.36-41.86,19.17-4.46.2-7.12-4.69-11.19-6.24-9.77-3.71-25.42-.14-32.19,7.9-1.03,1.23-6.38,9.77-6.56,10.65-.39,1.91.69,7.45-.65,8.44-5.08-.52-8.02-3.99-13.53-4.31-8.95-.52-23.01,7.32-24.97,16.41s7.35,10.14,14.44,10.55c33.1,1.89,70.45-.13,103.88-.71,12.06-.21,40.33,1.91,50.34-1.6,7.03-2.47,13.68-16.36,10.29-23.14-4.78-9.58-17.87-13.94-27.65-9.99-1.65.67-6.79,5.45-8.19,3.11-.5-.83,1.9-7.49,1.89-9.46-.01-2.84-1-4.53-1.7-6.49Z"/>
  <path d="M117.83,157.69c9.15-5.9,28.03-1.45,25.34,11.87-.85,4.2-4.74,5.94-8.66,6.46-8.07,1.07-22,.63-30.79.77-11.95.19-29.36,1.11-40.78-.7-25.1-3.99-3.12-30.73,13.15-21.08,6-22.8,40.32-22.73,41.74,2.68ZM94.64,141.43c-9.87,1.53-14.42,9.35-16.63,18.23-6.35-3.4-8.72-5.28-15.88-2.09-10.85,4.84-9.81,14.69,2.74,15.92,15.86,1.55,51.23,1.54,67.1,0,6.07-.59,10.21-2.65,7.59-9.6-2.74-7.25-17.83-6.93-22.74-1.72-2.06-.19-2.29-8.07-2.91-10.1-2.49-8.09-11.22-11.89-19.27-10.64Z"/>
  <path d="M497.17,66.34c1.09-15.49,26.22-20.5,34.84-8.87,2.7,3.64,2.55,7.64,4.3,11.5,9.54-8.16,32.1-2.79,29.08,12.01-1.16,5.66-9.1,7.25-13.99,7.7-20.29,1.84-44.33-2.64-65.09-.62-28.32-3.48-8.98-30.86,10.86-21.71ZM537.08,73.35c-1.52,1.05-2.96,1.29-4.08-.45,1.66-17.21-16.09-25.12-28.64-14.15-4.42,3.86-4.27,6.84-5.58,12.17-6.8-3.78-14.78-5.22-20.95.72-8.74,8.43,2.16,12.96,9.82,13.74,14.35,1.45,52.35,1.73,66.39,0,19.05-2.34,3.72-23.43-12.19-16.13-2.64,1.21-3.43,3.17-4.77,4.09Z"/>
  <path d="M556.35,147.84l-.39,2.03c-7.47,1.15-11.52,4.56-15.82,10.4-5.1-3.9-9.73-7.71-16.68-7.18-.69-2.73,2.15-2.67,4.16-2.57,4.8.23,8.79,2.29,12.51,5.15,4.23-5.14,9.21-8.55,16.21-7.83Z"/>
  <path d="M72.97,564.09c5.74-.72,12.74.73,15.64,6.33,4.75,9.17-12.86,9.64-18.37,9.17-17.94-1.53-8.38-14.1,2.73-15.5ZM86.26,574.41c-1.84-7.69-8.65-9.31-15.76-6.88-1.91.65-8.81,5.14-6.84,6.95,6.99,3.18,15.54,2.51,22.6-.07Z"/>
  <path d="M48.13,445.6c-1.94,3.51-1.6,10.42-2.74,13.36-.51,1.32-1.31,1.19-2.51,1.1-.09-4.66-.71-13.62,5.25-14.45Z"/>
  <path d="M37.62,460.71l-5.27-11.83c2.69-2.48,10.79,10.92,5.27,11.83Z"/>
  <path d="M112.56,510.66c-2.04,2.21-7.96-9.03-7.22-9.85,4.51.94,8,5.29,7.22,9.85Z"/>
  <path d="M119.79,498.18c.13,2.48-1.82,4.2-2.48,6.39-.39,1.31.58,6.62-1.78,6.09-2.51-.57-.82-13.55,4.26-12.48Z"/>
  <path d="M56.68,451.51c.49.51-3.8,9.89-6.87,9.19-3.04-.69,3.83-10.13,6.87-9.19Z"/>
  <path d="M120.7,507.6c.43-.63,7.73-8.24,7.63-4.5-1.92.98-5.57,10.62-8.23,6.91-.65-.91.13-1.72.6-2.42Z"/>
  <path d="M213.45,540.61c2.66,3.96,3.87,12.13,6.58,17.41,4.35,8.47,15.48,20.48,23.42,25.89,4.37,2.97,10.93,4.84,14.36,7.34.8.58,1.6,1.05,1.37,2.24-15.59-2.48-32.04-17.6-39.97-30.69-4.22-6.97-8.84-16.27-8.02-24.52,1.72-.29,1.6,1.35,2.26,2.33Z"/>
  <path d="M241.41,531.7c5.77,16.26,17.53,30.39,32.85,38.49l-.28,1.58c-1.56.11-13.37-7.1-15.12-8.53-6.06-4.94-17.92-20.61-19.13-28.23-.27-1.68-.71-3.31,1.69-3.31Z"/>
  <path d="M398.2,198.8c6.79,7.84-6.62,15.19-12.16,8.37-5.18-6.38,5.28-16.32,12.16-8.37ZM392.98,198.72c-4.37-.25-6.27,7.32-1.09,7.95,5.83.71,5.76-7.68,1.09-7.95Z"/>
  <path d="M431.92,201.25c11.09-2.77,13.74,13.41,2.46,13.69-9.86.24-9.36-11.96-2.46-13.69ZM430.93,210.78c3.29,3.44,10.88-1.33,6.45-5.47-3.91-3.66-9.84,1.92-6.45,5.47Z"/>
  <path d="M431.19,86.92c9.91-.57,10.09,14.11.53,14.27s-9.62-13.75-.53-14.27ZM435.21,91.47c-1.68-1.65-7.59-1.47-7.7,2.21-.26,8.14,12.7,2.7,7.7-2.21Z"/>
  <path d="M372.73,148.96c-5.3,5.25-17.13-.81-11.95-8.99s19.26,1.75,11.95,8.99ZM370.11,147c2.95-2.49.13-7.47-3.42-7.07-7.56.87-1.97,11.62,3.42,7.07Z"/>
  <path d="M463.47,122.31c6.3-.8,13.49,9.56,6.05,13.32-12.19,6.16-14.16-12.3-6.05-13.32ZM468.08,126.98c-2.82-2.37-6.77-.7-6.46,3.44.48,6.47,12.04,1.25,6.46-3.44Z"/>
  <path d="M352.35,191.36c10.21-2.37,11.37,11.36,4.83,13.36-12.02,3.68-13.08-11.44-4.83-13.36ZM353.7,194.64c-5.98.8-4.27,8.37,1.12,7.75,4.06-.46,5.41-8.62-1.12-7.75Z"/>
  <path d="M475.96,206.49c10.66-.85,9.49,14.86-.14,14.35-7.99-.42-8.28-13.67.14-14.35ZM475.96,209.73c-4.57.56-3.97,7.89.44,7.78,6.36-.16,5.4-8.5-.44-7.78Z"/>
  <path d="M387.87,69.12c11.2-2.06,11.52,12.56,2.3,13.52s-11-11.92-2.3-13.52ZM386.25,73.08c-4.13,4.88,5.23,8.96,7.38,4.43,2.01-4.22-4.38-7.97-7.38-4.43Z"/>
  <path d="M474.36,168.41c6.97-5.94,17,5.27,9.35,10.99-8.17,6.12-15.61-5.66-9.35-10.99ZM476.31,171.02c-4.14,3.45,2.18,9.26,5.7,6.07,4.27-3.86-1.66-9.45-5.7-6.07Z"/>
  <path d="M298.44,71.07c8.8-2.02,13.68,10.87,4.82,13.36-11.74,3.29-14.31-11.19-4.82-13.36ZM299.12,74.34c-5.23,1.13-2.52,9.05,2.32,7.65,4.28-1.24,3.79-8.97-2.32-7.65Z"/>
  <path d="M193.28,171.01c10.72-1.42,10.75,13.2,1.7,13.61-9.32.43-10.99-12.38-1.7-13.61ZM191.14,179.03c4.17,4.91,8.52.19,6.56-3.59-3.14-3.24-5.21-.55-7.57,1.7-.46,1.59.56,1.36,1.01,1.88Z"/>
  <path d="M312.28,186.08c10.33-1.65,11.48,13.85,1.09,14.29-8.19.34-9.63-12.93-1.09-14.29ZM310.65,196.27c3.59,2.82,8.22-1.85,5.77-5.43-3.2-4.68-10.09,2.03-5.77,5.43Z"/>
  <path d="M247.17,96.07c10.5-2.11,12.6,11.77,3.63,13.5-10.39,2-11.73-11.87-3.63-13.5ZM247.15,99.33c-2.62.84-2.78,6.37.55,7.08,7.78,1.66,7.02-9.52-.55-7.08Z"/>
  <path d="M338.57,63.87c10.79-2.73,12.74,11.27,4.78,13.32-10.69,2.75-12.83-11.28-4.78-13.32ZM339.2,67.14c-3.56,1.07-3.13,6.45.55,7.09,7.46,1.3,6.96-9.34-.55-7.09Z"/>
  <path d="M272.02,190.19c-.13-.24-.87-.32-.99-.77l-.02-1.69c3.63-3.93,4.57-8.11,11.21-6.08,11.46,3.52-2.87,22.52-10.2,8.54ZM281.95,185.58c-1.82-.94-3.47-1.61-5.4-.32l-1.28,5.31c3.2,2.81,6.51.84,8.3-2.32.34-.86-1.09-2.39-1.63-2.67Z"/>
  <path d="M220.16,143.01c-6.29,6.29-16.32-2.2-10.96-9.32s18.23,2.05,10.96,9.32ZM214.96,134.16c-6.22.47-4.65,10.37,1.98,7.27,3.6-1.68,2.3-7.59-1.98-7.27Z"/>
  <path d="M324.76,132.23c11.51-2.91,12.62,14.15,1.84,13.66-8.34-.38-8.62-11.94-1.84-13.66ZM326.07,135.46c-4.53.77-3.99,6.79.53,7.1,7.01.48,5.97-8.2-.53-7.1Z"/>
  <path d="M234,176.25c12.79-3.04,12.8,15.89,0,12.86-5.98-1.42-6.01-11.43,0-12.86ZM235.35,178.85c-4.52.94-3.38,9.42,2.81,7.5,4.38-1.35,2.98-8.71-2.81-7.5Z"/>
  <path d="M276.27,366.71c-8.21-3.84-13.43-4.4-21.83-.46-2.61,1.22-6.88,6.1-9.05,4.04-1.25-4.53,15.03-9.99,18.75-10.14,3.9-.16,12.55,1.75,12.14,6.56Z"/>
  <path d="M267.72,368.69c.45,2.75-2.9,4.05-5.09,4.44-1.67.3-9.13.99-8.7-1.48l13.79-2.95Z"/>
  <path d="M87.36,292c1.59,2.47.61,7.44.86,10.3l-7.23-.32c-1.95-1.9.11-9.35,1.65-11.5l1.83-.57c.17.04,2.78,1.94,2.88,2.1Z"/>
  <path d="M328.51,326.33c.13.24.87.32.99.77v1.67c-3.07,4.09-4.6,8.1-10.77,5.67-11.87-4.67,2.36-22.11,9.78-8.11ZM321.41,324.14c-5.73.43-3.05,11.77,2.83,6.73,3.02-2.58.04-6.95-2.83-6.73Z"/>
  <path d="M398.08,343.54c-2.14-2.59-1.04-8.18,1.97-9.88,6.08-3.43,12.92.36,11.61,7.7-.95,5.32-10.49,5.93-13.58,2.18ZM403.64,335.27c-2.8.74-4.17,5.7-1,7.31,6.86,3.48,7.6-9.05,1-7.31Z"/>
  <path d="M443.08,338.6c13.66-3.25,11.68,17.11-.5,13.36-5.51-1.7-5.42-11.95.5-13.36ZM444.4,341.19c-4.59,1.17-3.8,8.72,1.58,8.11,5.83-.66,4.28-9.6-1.58-8.11Z"/>
  <path d="M359.58,326.77c10.21-2.43,13.3,8.83,5.92,12.48-10.28,5.07-14.21-10.5-5.92-12.48ZM360.9,329.39c-3.36,1-4.34,6.85.01,7.65,7.33,1.35,6.99-9.73-.01-7.65Z"/>
  <path d="M245.93,321.27c-.87,1.41-10.44.43-12.68.8-2.83.47-5.46,3.93-8.48,1.81-3.43-2.41,1.12-5.8,3.79-6.51,1.68-.45,12.38-1.93,13.95-1.89,2.82.06,4.61,3.83,3.41,5.79Z"/>
  <path d="M271.5,309.7c2.71-.37,8.16-.77,8.63,2.95.51,4.08-7.73,3.55-10.72,4.15-2.4.48-4.77,3.26-7.32,1.32-1.26-5.59,4.96-7.81,9.42-8.42Z"/>
  <path d="M241.25,328.12c2.35,3.18,2.26,9.2-2.28,10.2-9.33,2.06-3.94-15.58,2.28-10.2Z"/>
  <path d="M273.49,321.47c8.84,2.81,4.75,16.29-3.68,7.97-.36-3.35.26-6.69,3.68-7.97Z"/>
  <path d="M180.77,217.02c12.05-3.07,11.3,12.54,2.95,13.51-8.88,1.04-10.75-11.53-2.95-13.51ZM182.73,219.59c-4.64.59-3.9,7.95.44,7.78,4.98-.2,4.88-8.46-.44-7.78Z"/>
  <path d="M168.94,264.33c10.28-1.79,11.84,12.57,2.4,13.63s-10.85-12.16-2.4-13.63ZM167.29,273.88c2,1.99,7.1,1.38,7.1-2.8,0-7.65-11.71-1.8-7.1,2.8Z"/>
  <path d="M472,265.95c-6.06,4.91-15.74-1.9-10.62-9.63,6.38-9.63,18.25,3.44,10.62,9.63ZM466.75,256.4c-4.29.56-5.58,7.99.48,7.83,6.58-.17,4.32-8.46-.48-7.83Z"/>
  <path d="M454.28,301.79c9.78-1.53,11.57,14.2.49,14.18-8.72-.01-8.37-12.95-.49-14.18ZM454.28,305.05c-3.58.76-4.28,6.56-.67,7.63,6.79,2.01,8.41-9.27.67-7.63Z"/>
  <path d="M430.35,383.38c6.5-5.94,16.88,2.69,10.57,9.58s-18.14-2.67-10.57-9.58ZM432.31,386c-4.58,4.13,4.54,8.97,6.68,4.39,2.4-5.13-2.97-7.73-6.68-4.39Z"/>
  <path d="M149.22,339.89c5.6-.69,11.53,5.33,7.33,10.66-6.04,7.67-17.96-.32-13.38-6.81.72-1.02,4.65-3.68,6.05-3.86ZM153.17,349.47c2.8-2.78-1.06-8.19-4.81-5.81-5.27,3.34,1.15,9.45,4.81,5.81Z"/>
  <path d="M158.43,299.82c9.5-1.5,11.01,12.75,1.74,13.64s-10.74-12.22-1.74-13.64ZM158.41,303.07c-3.04.93-2.76,8.43,2.33,7,4.1-1.15,3.18-8.68-2.33-7Z"/>
  <path d="M363.36,786.43c.76,1.28,2.93,3.51,1.02,5.24-3.78,3.42-34.02,2.79-38.98.18-6.44-3.39,6.07-11.92,9.39-13.33,11.14-4.74,22.22-2.78,28.57,7.91Z" fill="#fff"/>
  <path d="M567.32,433.3c.53.64,1.2,2.39.81,3.03-5.79,3.04-6.26,6.29-13.97,5.93-21.73-1.01,5.09-18.84,13.16-8.96Z" fill="#fff"/>
  <path d="M564.9,443.61c-.51-5.56,12.06-7.1,12.52-2.26.39,4.13-9.9,3.13-12.52,2.26Z" fill="#fff"/>
  <path d="M113.66,794.84c1.08.85,3.5,5.02,3.18,6.43-1.29,5.68-29.46,6.69-31.16,2.12-3.38-9.1,20-14.88,27.98-8.56Z" fill="#fff"/>
  <path d="M65.87,711.77c-7.63,2.11-15.65,1.6-23.34.05l-.99-1c3.33-11.86,21.39-9.87,24.33.96Z" fill="#fff"/>
  <path d="M293.36,751.25c2.5,3.88-11.08,3.42-12.8,3.26-2.12-.2-4.19-.91-6.26-1.31.71-5.65,17.92-3.71,19.06-1.95Z" fill="#fff"/>
  <path d="M457.73,584.95c-.09,4.83-15.6,3.15-16.43,1.96-.06-4.33,15.43-3.09,16.43-1.96Z" fill="#fff"/>
  <path d="M94.16,674.98c-.82-6.63,15.2-3.73,15.1-.98-1.3,2.71-14.65,1.7-15.1.98Z" fill="#fff"/>
  <path d="M178.6,56.19c.7,1.96,1.69,3.65,1.7,6.49,0,1.97-2.39,8.64-1.89,9.46,1.4,2.34,6.54-2.44,8.19-3.11,9.78-3.95,22.87.41,27.65,9.99,3.39,6.78-3.26,20.67-10.29,23.14-10,3.51-38.28,1.4-50.34,1.6-33.43.58-70.77,2.59-103.88.71-7.1-.4-16.49-1.04-14.44-10.55s16.02-16.93,24.97-16.41c5.51.32,8.46,3.79,13.53,4.31,1.34-1,.26-6.53.65-8.44.18-.88,5.53-9.43,6.56-10.65,6.77-8.04,22.42-11.61,32.19-7.9,4.07,1.55,6.73,6.43,11.19,6.24,1.42-20.53,25.49-26.67,41.86-19.17,6.63,3.04,9.97,7.59,12.35,14.29Z" fill="#fff"/>
  <path d="M94.64,141.43c8.06-1.25,16.79,2.56,19.27,10.64.62,2.03.85,9.91,2.91,10.1,4.91-5.2,20-5.53,22.74,1.72,2.62,6.95-1.52,9.02-7.59,9.6-15.88,1.54-51.24,1.55-67.1,0-12.54-1.23-13.59-11.09-2.74-15.92,7.15-3.19,9.52-1.31,15.88,2.09,2.21-8.88,6.76-16.7,16.63-18.23Z" fill="#fff"/>
  <path d="M537.08,73.35c1.34-.92,2.12-2.88,4.77-4.09,15.91-7.29,31.25,13.8,12.19,16.13-14.04,1.72-52.04,1.44-66.39,0-7.66-.77-18.56-5.31-9.82-13.74,6.17-5.95,14.15-4.5,20.95-.72,1.31-5.32,1.16-8.3,5.58-12.17,12.55-10.97,30.3-3.06,28.64,14.15,1.12,1.73,2.56,1.5,4.08.45Z" fill="#fff"/>
  <path d="M86.26,574.41c-7.07,2.59-15.61,3.25-22.6.07-1.97-1.82,4.93-6.3,6.84-6.95,7.11-2.43,13.92-.81,15.76,6.88Z" fill="#fff"/>
  <path d="M392.98,198.72c4.67.26,4.74,8.65-1.09,7.95-5.17-.63-3.28-8.19,1.09-7.95Z" fill="#fff"/>
  <path d="M430.93,210.78c-3.39-3.55,2.54-9.12,6.45-5.47,4.43,4.14-3.16,8.91-6.45,5.47Z" fill="#fff"/>
  <path d="M435.21,91.47c5,4.9-7.97,10.35-7.7,2.21.12-3.68,6.02-3.86,7.7-2.21Z" fill="#fff"/>
  <path d="M370.11,147c-5.39,4.55-10.98-6.2-3.42-7.07,3.54-.41,6.37,4.58,3.42,7.07Z" fill="#fff"/>
  <path d="M468.08,126.98c5.58,4.69-5.98,9.91-6.46,3.44-.31-4.14,3.64-5.81,6.46-3.44Z" fill="#fff"/>
  <path d="M353.7,194.64c6.53-.87,5.18,7.29,1.12,7.75-5.39.61-7.1-6.95-1.12-7.75Z" fill="#fff"/>
  <path d="M475.96,209.73c5.84-.72,6.8,7.63.44,7.78-4.41.11-5.01-7.22-.44-7.78Z" fill="#fff"/>
  <path d="M386.25,73.08c3-3.54,9.39.21,7.38,4.43-2.16,4.53-11.52.45-7.38-4.43Z" fill="#fff"/>
  <path d="M476.31,171.02c4.05-3.38,9.97,2.21,5.7,6.07-3.52,3.18-9.84-2.62-5.7-6.07Z" fill="#fff"/>
  <path d="M299.12,74.34c6.11-1.32,6.59,6.42,2.32,7.65-4.83,1.4-7.55-6.52-2.32-7.65Z" fill="#fff"/>
  <path d="M191.14,179.03c-.45-.53-1.46-.29-1.01-1.88,2.35-2.26,4.43-4.95,7.57-1.7,1.96,3.78-2.4,8.5-6.56,3.59Z" fill="#fff"/>
  <path d="M310.65,196.27c-4.32-3.4,2.56-10.11,5.77-5.43,2.45,3.58-2.18,8.25-5.77,5.43Z" fill="#fff"/>
  <path d="M247.15,99.33c7.58-2.44,8.34,8.74.55,7.08-3.34-.71-3.17-6.24-.55-7.08Z" fill="#fff"/>
  <path d="M339.2,67.14c7.51-2.26,8.02,8.39.55,7.09-3.68-.64-4.11-6.02-.55-7.09Z" fill="#fff"/>
  <path d="M281.95,185.58c.54.28,1.96,1.81,1.63,2.67-1.79,3.16-5.1,5.13-8.3,2.32l1.28-5.31c1.93-1.3,3.58-.62,5.4.32Z" fill="#fff"/>
  <path d="M214.96,134.16c4.29-.32,5.59,5.59,1.98,7.27-6.63,3.1-8.2-6.8-1.98-7.27Z" fill="#fff"/>
  <path d="M326.07,135.46c6.51-1.11,7.54,7.58.53,7.1-4.53-.31-5.07-6.32-.53-7.1Z" fill="#fff"/>
  <path d="M235.35,178.85c5.79-1.2,7.19,6.15,2.81,7.5-6.2,1.92-7.33-6.56-2.81-7.5Z" fill="#fff"/>
  <path d="M321.41,324.14c2.87-.22,5.85,4.15,2.83,6.73-5.88,5.04-8.56-6.3-2.83-6.73Z" fill="#fff"/>
  <path d="M403.64,335.27c6.6-1.74,5.87,10.79-1,7.31-3.18-1.61-1.8-6.57,1-7.31Z" fill="#fff"/>
  <path d="M444.4,341.19c5.86-1.49,7.42,7.45,1.58,8.11-5.39.61-6.17-6.94-1.58-8.11Z" fill="#fff"/>
  <path d="M360.9,329.39c7.01-2.09,7.34,8.99.01,7.65-4.35-.8-3.37-6.64-.01-7.65Z" fill="#fff"/>
  <path d="M182.73,219.59c5.32-.67,5.42,7.59.44,7.78-4.34.17-5.08-7.2-.44-7.78Z" fill="#fff"/>
  <path d="M167.29,273.88c-4.61-4.6,7.1-10.45,7.1-2.8,0,4.18-5.1,4.79-7.1,2.8Z" fill="#fff"/>
  <path d="M466.75,256.4c4.8-.63,7.06,7.65.48,7.83-6.06.16-4.77-7.27-.48-7.83Z" fill="#fff"/>
  <path d="M454.28,305.05c7.75-1.63,6.12,9.64-.67,7.63-3.61-1.07-2.91-6.88.67-7.63Z" fill="#fff"/>
  <path d="M432.31,386c3.71-3.34,9.08-.74,6.68,4.39-2.14,4.59-11.26-.26-6.68-4.39Z" fill="#fff"/>
  <path d="M153.17,349.47c-3.66,3.64-10.09-2.47-4.81-5.81,3.76-2.38,7.61,3.03,4.81,5.81Z" fill="#fff"/>
  <path d="M158.41,303.07c5.51-1.68,6.42,5.85,2.33,7-5.09,1.43-5.37-6.07-2.33-7Z" fill="#fff"/>
</svg>