<?xml version="1.0" encoding="UTF-8"?>
<svg id="Camada_1" xmlns="http://www.w3.org/2000/svg" version="1.1" viewBox="0 0 595.28 841.89">
  <!-- Generator: Adobe Illustrator 29.0.0, SVG Export Plug-In . SVG Version: 2.1.0 Build 186)  -->
  <path d="M.14,841.29V-.06h595v841.34H.14ZM590.54,3.89H4.08v278.69h44.38c3.02-3.66,5.65-7.99,9.19-11.19,7.3-6.62,17.8-9.58,19.98-20.78,1.73-8.86.62-18.83,3.02-27.88,6.15-23.18,36.4-27.94,53.62-42.36,20.65-17.31,31.75-30.49,62.59-22.5,2.32.6,10.02,4.26,10.59,4.27,1.82.02,7.8-2.17,10.65-2.47,15.19-1.62,32.44,3.41,43.07,14.75,4.61,4.92,6.5,11.13,10.05,15.92,9.57,12.91,25.07,18.12,24.82,38.66-.1,7.92-5.6,15.29-6.85,23.43-1.66,10.78,2,20.62,7.79,29.48-.48-3.53-1.1-7.14-1.69-10.68-1.2-7.16-2.31-12.7.55-20.04,5.04-12.91,17.72-13.67,29.73-11.35-.33-10.54,6.07-23.03,14.52-29.2,9.03-6.6,21.97-9.71,32.81-6.29.46-7.1,4.2-15.66,8.67-21.25,8.64-10.83,26-14.81,38.67-8.99,4.56-13.19,16.33-21.78,30.11-24.14,23.11-3.95,45.39,11.27,46.17,35.31,9.76-5.32,19.39-6.44,29.57-1.31,9.1-24.37,43.01-35.3,64.44-20.38v-59.81h-104.21c-4.16,0-10.67-2.89-11.46-7.6-2.35-14.14,17.21-21.53,28.22-16.06,1.29-20.45,26.98-29.39,42.07-17.09.6-6.61,4.36-13.66,8.58-18.71,8.16-9.75,24.41-15.48,36.79-11.53V3.89ZM590.54,35.44c-13.33-4.04-30.96,2.95-37.83,15.1-1.63,2.88-4,8.92-4.88,11.67-.51,1.6.86,4.22-1.04,5.44-3.8-1.39-5.02-4.4-9.21-5.88-15.68-5.53-33.61,4.63-31.86,22.31-9.12-6.67-29.6-2.24-28.29,10.84.36,3.65,5.75,6.25,8.9,6.25h104.21V35.44ZM299.94,282.58h30.9c-3.92-16.95,10.99-19.28,23.67-14.47-7.03-19.56,12.75-23.22,26.29-15.11-6.83-23.49,17.03-27.61,32.22-15.78-1.11-24.19,3.1-48.47,27.39-59.06,28.6-12.48,54.54,5.17,62.64,32.62.71,2.41.3,6.13,1.38,8.69,14.8-34.3,66.2-41.13,86.12-7.88v-44.37c-19.78-16.34-55.78-4.45-62.53,19.97-3.74.51-6.5-2.13-10.32-3.01-9.92-2.29-14.68.86-22.79,5.71-1.72-.41-.75-5.82-1.07-7.5-2.31-12.28-10.33-23.13-22.3-27.66-18.3-6.91-44.57,1.41-48.6,22.38-4.53.68-8.1-2.32-12.99-2.94-18.94-2.38-34.79,15-33.74,33.46-3.85.21-6.94-1.76-10.83-1.99-14.29-.86-28.63,7.47-33.72,20.88-.86,2.27-3.14,9.03-3.42,10.5s.28,7.04-.03,7.41c-30.16-12.32-36.56,14.56-28.27,38.13ZM212.62,171.36c-9.68-14.04-32.43-14.35-47.31-9.9-18.05,5.39-25.05,19.87-40.04,28.98-20.9,12.69-39.9,12.42-43.59,41.87-.81,6.44-.01,13.29-1.41,19.62-4.25,19.25-32.5,16.95-30.14,45.42.29,3.45,2.42,7.02,2.66,8.53,2.59,16.54-17.99,27.48-9.82,47.27,2.81,6.82,8.28,10.04,14.65,12.89,17.18-24.17,45.37-33.59,72.68-41.72-4.29-9.51-4.12-20.07-1.3-29.91-39.09-.99-28.65-67.51,8.87-39.44,4.25-8.75,4.81-18.71,4.93-28.26-5.04,1.97-9.84,2.29-15.12,1.31v-1.97c9.62-.11,20.71-2.42,28.96-7.54s12.69-14.01,20.53-18.92c10.24-6.41,25.7-8.52,33.69,2.12,5.42-5.67,11.67-8.87,19.74-8.55,22.42.87,26.25,29.51,48.26,30.96,1.74,5.8-7.44.51-8.5,1.27,1.04,6.28,2.51,12.07,2.65,18.7.15,6.99-1.35,14.08-.61,20.98,1.63,15.24,10.32,30.65,7.52,46.45-1.09,6.19-7.92,17.01-6.92,21.96.62,3.09,8.84,6.37,11.47,8.26,2.97,2.13,6.18,5.67,8.88,7.55.63.43,1.01,1.59,2,.67,4.72-10.61-3.34-18.06-2.64-28.94.38-5.91,3.74-9.49,4.92-14.8,4.49-20.12-9.88-26.88-11.49-44.38s11.38-27.35,3.39-46.77c-4.14-10.06-12.52-13.13-18.54-20.44s-8.15-15.67-17.08-22.83c-11.91-9.55-29.55-11.85-44.05-7.54-.78,1.23,11.21,7.41,2.75,7.08ZM498.49,207.64c-10.41-39.49-66.34-39.97-79.56-2.3,26.19,4.16,53.15,5.88,79.56,2.3ZM590.54,274.04v-55.54c0-8.65-18.64-21.4-26.3-23.66-35.02-10.37-57.44,15.03-62.44,46.15-1.47,9.18-1.35,18.87-2.04,28.15.31,1.76,4.54,1.72,6.59,3.29,3.76,2.89,4.83,10.33,5.3,14.76l4.6-2.97c-13.72-15.15-11.99-36.98-7.77-55.73l.99-.99c12.12-1.52,22.6-6.95,30.11-16.55,6.63,10.77,19.16,14.77,30.96,17.04.33,5.44.12,10.07,2.24,14.87,22.56-7.96,18.13,24.1.31,24.57l-.94,5.29c6.17-1.56,12.78-2.45,18.41,1.32ZM249.08,205.26c-11.4-11.49-28.37-14.02-37.57,1.09l-1.7-.42c-3.33-9.85-16.09-10.06-24.45-7.33-11.5,3.75-16.42,14.57-25.52,21.15-3.98,2.88-8.57,4.38-12.93,6.47-1.23,11.66-2.23,23.21-8.39,33.36-22.45-24.82-44.82,9-23.01,27.62,3.59,3.06,7.19,4.11,11.89,4.61,1.62.17,4.08-1.68,4.82.42-2.73,10.67-3.95,19.35.13,29.93.5,1.3,3.03,3.64,3.71,6.29,1.66,6.47-1.31,13.05,1.56,20.13,3.54,8.73,13.87,10.62,19.32,16.18,6.2,6.31,2.86,12.46,14.34,17.21s15.61,0,25.64.81c11.77.96,16.96,8.13,31.24,3.87,12.85-3.83,11.81-12.82,18.58-18.89,8.29-7.43,20.18-6.75,22.25-22.46,1.66-12.65.23-12.26,4.97-24.62s5.49-22.23.02-34.15c-1.28,6.6-4.87,13.15-9.95,17.69-7.55-7.53-7.83-13.2-19.46-16.55-12.93-3.72-9.66,1.19-19.4,2.64-12.3,1.83-15.88-4.92-22.19-5.15-7.62-.29-20.95,5.89-26.65,10.89-3.53,3.1-5.39,7.56-8.84,10.19-8.18-3.57-15.26-8.72-19.52-16.63-1.23-2.27-5.5-9.16-1.22-9.64,2.86,10.48,9.8,17.95,19.4,22.74,4.37-3.54,7.08-8.16,11.85-11.56,6.17-4.4,19.47-9.76,26.98-8.58,2.88.45,5.68,3.65,9.26,4.55,5.47,1.37,19.1.94,19.93-6.22.99-8.53-6.48-11.79-9.76-17.9-.89-1.66-5.5-14.66-5.25-15.44.28-.85.99-1.28,1.88-1.1.7.41,5.19,12.95,6.34,15.03,3.52,6.36,11.58,13.1,10.12,20.68-.13.67-1.96,0-1.32,1.74,11.84-.51,22.8,5.91,27.94,16.42,6.34-6.58,7.56-17.22,6.89-25.93-.27-3.5-1.74-7.11-1.98-10.51-.86-12.29,2.01-26.07-1.34-38.76-.95-2.97-6.72-5.57-9.15-7.94-3.37-3.29-6.09-8.52-9.45-11.91ZM479,236.37c-1.85-8.11-1.06-17.24-7.46-23.79l-53.2-4.22c-2.04,1.36-2.75,27.94-1.99,31.79.55,2.79,4.95,7.93,6.07,10.4.94,2.07,1.42,4.8,1.79,7.06,11.33-6.87,27.98-7.42,36.48,3.93,5.41-6.41,16.62-9.5,23.33-3.27-1.71-6.96-2.48-14.21-3.98-21.2-.1-.48-1-.54-1.04-.7ZM499.14,210.28l-24.32,1.98c7.25,8.83,6.41,20.42,8.74,31.02,2.03,9.22,5.22,18.1,6.38,27.48,2.16-.59,6.7.22,7.23-2.3.59-7.83.52-15.85,1.32-23.65.58-5.63,3.07-13.57,3.2-18.48s-2.38-11.08-2.56-16.04ZM567.52,230.01c-10.56-1.29-20.71-6.09-28.03-13.76-8.37,7.5-17.17,11.89-28.35,13.9-3.02,11.09-4.23,25.1-1.43,36.29,1.73,6.92,6.05,10.49,8.52,16.8,9.7-4.43,18.21,1.91,22.01,10.5,4.82-5.75,11.34-5.99,18.08-3.93,1.34-10.47,12.37-14.06,12.59-25.55,10.23,3.44,20.97-16.43,10.11-19.85-4.65-1.46-6.35,2.57-10.8,1.95l-2.7-16.36ZM590.54,436.39v-159.4c-7.83-7.27-24.17-1.31-27.73,7.78-1.46,3.74-.54,6.44-2.21,9.64-4.8-2.78-11.19-4.05-16.32-1.21-1.84,1.02-4.95,6.33-6.34,5.16-1.93-10.42-9.37-17.03-20.33-12.1-3.66,1.65-5.09,5.66-8.61,6.18,1.63-15.27-6.22-25.7-21.38-16.45-2.02-1.54-.09-3.88-.3-6.19-1.41-15.54-19.1-15.47-26.7-4.34-7.06-8.79-13.31-11.61-24.63-9.54-5.77,1.06-8.12,3.78-13.11,5.62-3.61-11.18-8.84-23.48-21.18-27.14-9.49-2.82-19.55.25-19.51,11.63.01,3.69,2.14,6.99,2.72,10.43.72,4.25-6.4-1.74-8.59-2.61-5.06-2.01-13.99-3.93-18.25.44-5.91,6.07,1.43,17.31.36,18.43-14.52-7.47-33.47-5.71-22.48,14.92,1.05,1.97,3.4,2.73,2.76,5.45-7.23-.27-13.24-1.33-19.56,3.09-12.38,8.67,7.68,18.63,6.4,20.57-6.9-.16-16.36.98-15.74,10.12.56,8.2,12.2,10.79,11.8,12.56-3.55,2.3-7.04,1.55-10.14,4.98-2.37,2.63-4.93,11.5-1.91,13.65,1.6,1.14,14.28,3.69,17.31,4.38,14.03,3.2,28.48,5.52,42.77,7.28.52-.39,3.29-11.75,3.23-12.51-.22-2.7-4.86-8.62-5.17-13.94-1.39-23.73,20.09-40.58,40.7-46.56,42.22-12.25,99.97,1.54,113.55,48.17,5.83,20.02,3.07,35.08,5.54,54.94,1.16,9.32,4.5,23.49,13.73,27.68,14.26,6.47,33.77,7.94,49.29,8.89ZM47.47,285.21H4.08v318.79l14.15-7.87c2.04-19.17,12.07-33.06,29.66-40.68,1.8-.78,10.44-3.1,10.71-3.8-2.81-13.55-.6-27.23,4.54-39.91-7.76-7.98-14.47-13.7-17.98-24.73-5.46-17.16-2.82-35.97-.42-53.46-.64-2.63-9.99-3.48-10.32-8.63-.16-2.47,4.17-19.47,5.22-22.85.19-.6,1.22-.66,1.45-1.34,3.89-11.77,7.16-22.42,14.95-32.36-9.25-4.29-17.93-12.29-18.41-23.04-.62-14.08,10.24-20.31,11.76-31.59,1.3-9.64-4.23-18.7-1.91-28.53ZM330.51,285.21c-8.52-1.72-22.74,1.29-31.89,0,1.27,4.47,3.35,9.36,3.27,14.13-.12,7.29-5.47,14.99-5.89,22.37s3.86,13.8,3.94,20.39c.1,8.02-7.61,12.73,5.24,14.75-.89-7.11,3.13-15.56,10.52-17.76-11.3-6.66-11.58-23.34,3.29-24.31-.07-1.88-2.06-2.19-3.19-3.71-10.16-13.71,5.8-22.95,18.3-20.61.56-.61-2.18-4.97-3.61-5.26ZM513.24,332.26c-20.09-35.29-70.3-44.06-106.64-32.1-21.14,6.95-44.91,29.01-32.37,52.76l6.62-16.06c10.2-3.43,22.27-6.73,31.22-12.83,1.98-1.35,7.04-7.39,8.18-6.6,6.27,20.57,25.6,33.62,45.87,37.95,1.53.33,5.73-.34,6.08,1.17-4.04,10.56-2.52,22.62,2.66,32.49,7.09-3.3,13.06-8.78,21.47-4.05,13.11,7.38,6.75,27.64-4.31,34.09-7.3,4.25-15.3,4.5-23.1,1.55-2.71,5.82-4.1,12.11-3.24,18.67,1.47,11.22,19.75,14.4,28.45,18.89,33.3,17.18,33.27,53.65,30.65,85.67-.49,6.03-.94,12.12-1.96,18.08,8.65,1.12,15.18-4.07,16.89-12.36,1.14-5.51.16-11.34,1.98-16.42,2.01-5.59,8.17-9.38,10.61-15.02,8.94-20.64-11.53-28.02-10.91-45.09.17-4.81,2.77-10.86,3.13-15.92,1.5-20.6-8.18-23.78-15.05-39.55-12.04-27.64-.09-56.92-16.25-85.31ZM421.19,327.65c-1.11-1.64-1.86-3.14-2.57-4.97-10.56,8.57-23.68,12.64-36.44,16.81-11.78,32.34-28.08,81.97,14.43,99.18,17,6.88,32.63,6.29,49.07-1.51,2.3-1.09,5.47-4.11,7.68-4.83s2.17,1.08.68,2.66c-5.93,6.26-24.46,11.68-33.12,11.25.55,5.43,3.32,10.94,2.63,17.1l-2.99-.62-1.59-8.96c-6.23-.14-7.26,2.15-7.31,7.94-.07,8.84,3.17,16.38,12.05,18.91,21.54,6.12,40.67-14.03,57.03-24.82-19.46-5.31-21.8-21.46-13.81-38.14,4.62-.42,8.18,2.58,13.39,2.26,7.2-.44,15.48-5.99,18.29-12.65,7.99-18.94-10.11-28.57-22.8-13.61-7.67-7.72-11.66-22.53-8.84-33.03.17-.64,1.97-.52,1.28-2.45-20.42-2.58-35.82-13.9-47.06-30.52ZM133.6,345.36c-.73-4.76.54-11.15,0-16.1-2.52-1.87-3.5-1.39-6.48-.88-47.81,8.14-75.77,40.1-87.47,84.88-1.05,4.02-3.35,10.83-.02,13.57,11.8,9.7,42.33,15.58,57.46,16.17,3.73.15,23.78.22,25.21-2.45l6.05-37.91c.71-1.19,2.71-.17,2.58,1.16-2.13,5.12-4.83,38.53-7.19,40.17-1.14.79-4.55.21-5.27,1.45-.48.82-2.92,17.89-2.67,18.81,6.41,3.47,12.92,6.82,19.21,10.54,2.76,1.63,10.65,8.19,12.86,8.83,5.33,1.55,25.16,1.44,32.05,1.48,20.2.13,52.17-.11,70.69-7.61,8.53-3.45,5.97-4.89,8.64-12.26,3.87-10.7,6.54-22.29,8.3-33.91,2.25-14.9,2.82-29.81,3.47-44.85l3.19,1.09c.2,11.7-.22,23.67-1.9,35.26-.07.49-1.14.22-1.34,1.41-.25,1.45.25,3.42.05,4.98,6.91,2.43,44.92-8.71,47.2-13.29.32-.64.32-4.62.2-5.53-2.54-18-10.53-41.96-23.14-55.71-6.09-6.64-13.84-11.3-21.3-16.17-1.46-.21-.77.22-.96.98-2.14,8.88-2.46,16.14-10.84,22.7-3.93,3.08-10.74,4.88-14.1,8.25-7.27,7.3-6.12,15.19-20.08,19.36-13.51,4.04-17.89-2.53-28.37-3.92-12.03-1.6-19.84,4.76-32.41-2.44-9.14-5.23-7.6-13.58-15.54-19.3-7.17-5.17-16.37-7.74-18.07-18.74ZM368.98,372.64l-67.06-13.8c8.98,10.15,11.86,22.83,15.19,35.61.12.46,1.06.51,1.3,1.49.84,3.47,3.72,17.7,3.23,20.37-.61,3.31-5.57,3.7-7.89,5.29-.84.71-.72,1.61-.65,2.57.22,3.04,3.15,11.74,4.01,15.64,6.61,29.92,7.76,63.75,20.63,91.91,3.5,7.67.41,12.04,11.8,9.15,4.71-1.2,9.02-7.07,9.48-11.63.21-2.12-1.84-1.93-1.63-4.11.44-4.72,6.1-14.98,7.61-20.09.51-1.55-1.25-.45-1.98-1.36-8-10.06-.34-19.71-1.29-30.13-.81-8.92-6.14-12.29-5.27-23.69.98-12.79,11.04-23.05,11.79-33.58.34-4.77-1.6-9.65-1.9-14.39-.62-9.85.63-19.63,2.62-29.23ZM418.27,446.26c-19.87-.69-37.85-9.67-47.98-26.96-3.33,13.99-13.22,22.73-10.89,38.16,1.76,11.68,7.74,11.53,4.91,27.07-.09.5-1.13.48-1.32,1.46-1.41,7.35-1.25,9.75,2.7,16.13,7.63-19.33,16.4-37.76,36.56-46.58,5.21-2.28,11.04-3.91,16.69-4.69l-.67-4.59ZM310.45,423.25c-4.73,1.63-9.48,3.77-14.33,5.06-8.63,2.3-17.37,3.27-26.12,4.78-1.34,7.53-2.81,15.03-4.46,22.49-.96,4.38-4.06,11.51-4.37,15.39-.59,7.36,7.44,19.37,9.43,26.63l13.88,25.49c-1.22,3.16-4.15,4.45-6.28,7.6-2.9,4.29-5.41,11.21-5.26,16.41.05,1.84,2.37,13.19,5.27,10.89-.6-3.6,7.45-17.77,10.84-17.09.46.09,1.52,1.39.69,1.98-5.39,5.28-16.18,22.29-2.36,23.63,1.74-7.7,7.84-13.64,14.5-17.06-3.05,7.65-15.28,12.42-10.86,22.36l4.18.52c.12-2.25,2.69-3.77,3.36-4.97.28-.51-.17-2.24.37-3.45,1.56-3.54,17.17-8.29,21.36-9.22-5.85-3.29-14.74-2.26-19.05-8.22-3-4.14-2.47-8.75,2.65-10.48,8.74-2.95,27.45,8.05,35.46,12.13.66-.86-2.76-11.55-3.44-13.32-1.88-4.88-6.25-10.9-7.67-15.47-5.01-16.23-7.98-44.54-11.21-61.73-2.16-11.46-2.95-23.18-6.61-34.36ZM590.54,439.02c-17.11.03-33.72-3.55-49.97-8.54,5.64,8.07,7.3,17.54,6.56,27.25-.42,5.58-3.46,12.34-3.11,17.56.84,12.56,14.95,18.64,12.91,36.94-1.26,11.27-10.62,15.13-12.93,22.57-1.41,4.53-.42,8.33-.99,12.81-1.41,11.09-8.98,17.83-20.2,17.6-1.5,10.13-.95,16.72,2.05,26.41,5.13,16.57,15.32,31.55,17.57,49.61,1.58,12.66.29,23-5.06,34.59,4.75,6.8,35.71,25.01,37.23,30.53,3.1,11.23-10.32,11.65-17.95,11.38-5.12-.18-38.15-5.4-39.75-3.97.87,5.25,6.67,11.21-1.28,13.51-12.48,3.61-43.32,5.23-57.57,6.2-22.66,1.54-45.92,1.72-68.17-2.81-3.92-.8-7.91-2.74-12.21-3.56-15.77-3.01-32.67-2.6-46.16-13.33,4.44,19.91-29.65,22.91-43.1,22.38-12.71-.5-54.1-9.01-57.2-23.66-1.32-6.24,1.22-8.11,2.17-13.03,1.22-6.31,2.56-11.08,4.21-16.85.44-1.52,2.45-7.49.24-7.64-13.56,2.89-27.03,7.49-41.1,6.58-1.01,4.02,4.16,5.23,6.92,7.87,2.25,2.15,5.57,7.38,7.2,8.58,4.63,3.4,10.35,3.77,15.04,10.02,4.11,5.48,7.23,19.97,2.41,25.6-7.49,8.74-34.21,9.64-45.03,9.05-14.68-.81-51.93-10.24-52.31-28.57-.11-5.47,2.01-6.75,2.68-9.87.51-2.36,3.3-17.95,2.6-18.73l-22.35,1.31c-.24.23.81,5.81-1.63,5.26-2.26-.51-.57-12.25.94-14.17.43-2.44-3.69,1.18-4.19,1.74-1.05,1.19-5.08,11.05-6.3,9.8-.85-8.26-2.46-16.78,0-24.97-1.69-.4-1.16.5-1.71,1.23-1.75,2.35-4.37,7.92-5.05,10.74l-1.47,16.28-3.36-6.48-19.68-1.17c-9.26,14.56-31.62,14.86-43.34,3.05-2.35-2.37-4-7.22-6.01-8.46-3.53-2.17-13.61-2.68-18-4.02v161.7h586.45v-398.32ZM113.22,463.34c-.22-4.18,2.85-13.45,2.51-16.92-.08-.78-.18-1.09-.93-1.44-22.81,2.2-46.41-1.33-67.31-10.56-3.05,21.61-6.94,47.27,7.9,65.38,11.59,14.14,35.94,23.88,53.23,28.94,7.69,2.25,21.16,3.69,27.63,6.56,4.45,1.98,9.58,8.27,15.59,10.71,7.83,3.17,12.12,1.75,19.48,2.36,9.29.77,20.65,14.79,28.85,12.73,5.84-1.46,2.31-6.67.2-9.7-5.11-7.34-14.36-11.68-22.71-14.13l-.02-1.97c12,1.32,24.67,10.32,29.08,21.6,17.55,1.82,5.02-14.87-1.45-20.28-5.29-4.43-11.96-6.7-17.75-9.86-.5-3.01,6.67-.19,8.13.42,5.71,2.38,15.29,9.84,18.83,14.88,2.93,4.16,3.86,14.61,11.12,8.32s-9.96-23.68-15.53-27.1c-2.79-1.72-10.39-4.29-11.35-5.08s-.98-1.13-.05-1.97c3.19-1.96,14.64,5.35,17.44,7.58,4.95,3.95,11.82,12.05,12.83,18.4,10.22-1.32,3.14-14.63-.39-19.66-8.3-11.84-23.24-20.03-37.6-21.57-6.59-.71-19.19,1.12-24.44-.54-2.3-.73-14.87-11.08-18.22-13.33-10.25-6.88-22.86-15.92-34.24-20.33-1.3-.5-12.64-2.31-10.03-4.76l9.2,1.31ZM409.31,469.7c-.44-1.59-.78-4.3-.91-6.01s.98-7.49-.3-7.57c-30.24,10.21-37.06,42.48-47.65,68.72.31,3.29,26.8,13.88,31.54,13.42-5.48-15.34-3.99-31.77,2.32-46.65.62-1.46,3.19-8.93,5.57-6.58.99.98-3.17,8.02-3.77,9.69-7.92,22.1-5.92,31.34,3.21,51.7,1.24,2.76,2.26,5.86,2.56,8.9,13.73-.85,23.51-4.82,32.46-15.12,10.82-12.45,19.51-28.45,29.01-42.01l2.27-.68c.07.72.05,1.42-.16,2.13-1.73,5.87-26.66,40.5-31.8,45.77-17.1,17.56-50.77,12.83-73.23,15.86,9.12,12.57,7.16,30.05,4.87,44.72,22.72,3.71,50.37,2.07,72.55-4.46,29.87-8.8,51.74-36.09,66.66-62.18,1.19-2.08,4.64-11.26,5.17-11.61,1.1-.72,2.59.2,2.36,1.99-.33,2.66-7.18,14.83-8.98,17.87-2.87,4.84-7.8,11.96-11.26,16.5-6.46,8.49-14.3,15.69-21.58,23.44,16.74.9,33.82-1.76,48.49-10.01,1-1.41,3.27-30.25,3.47-34.32,1.21-24.9,2.53-56.31-17.35-74.4-3.44-3.13-17.19-12.2-21.64-11.3-3.15.64-20.65,15.3-25.79,18.3-14.27,8.3-41.9,16.44-48.09-6.13ZM255.89,478.46c-32.61,12.44-68.32,8.77-102.56,8.87,3.89,1.35,11.34,9.9,14.28,10.7,4.48,1.23,16.93-.4,22.78.23,10.18,1.11,18.86,6.96,29,6.48,5.53-.26,30.39-4.88,33.84-8.24,2.3-2.24,1.58-14.24,2.66-18.03ZM260.29,479.32c-.17-.21-1.7-.94-1.76-.86l-1.91,18.61,15.71,9.64c-1.72-2.04-2.97-4.97-4.05-7.44-1.68-3.84-6.31-17.85-7.98-19.95ZM313.75,579.03h-12.16c-1.72,0-4.71-3.36-6.06-3.8-1.76-.57-3.7.34-5.71-.87s-2-4.62-2.51-5.06c-.65-.57-4.48-.39-6.14-1.42-2.74-1.69-2.35-6.3-3.06-7.13-.33-.39-3.27-.64-4.28-1.63-7.16-7.01-3.42-19.91.59-27.63s8.97-7.44,2.13-16.84c-2.51-3.45-18.42-14.95-22.36-15.15-1.38-.07-18.06,5.45-21.97,6.24-4.79.96-9.57,1.67-14.47,1.64l7.65,6.81c5.44,6.59,17.38,21.43,9.13,28.7-1.15,1.01-4.13,1.73-4.62,2.61-1.25,2.2.52,4.46-3.29,7.23-3.49,2.54-7.39,1.23-8.25,1.64-1.82.88-.86,4.7-7.53,5.6-1.61.22-4.02-.58-4.64-.44-1.01.23-1.63,3.95-6.54,4.38-7.62.67-12.55-5.17-18.52-8.43-12.9-7.04-23.45-1.92-37.59-11.06-2.97-1.92-5.94-5.86-8.82-6.96-10.36-3.94-25.62-5.4-37.27-9.41-10.39-3.57-21.45-8.64-30.61-14.74-14.92,25.36-4.98,54.96,17.88,71.51,3.09,2.23,8.44,5.53,11.83,7.23,2.73,1.37,18.46,7.92,20.4,7.91,2.3-.01,1.76-8.9,2.16-11.08h3.29s-3.31,44.39-3.31,44.39c30.66,14.15,68.74,14.87,102.14,13.2,31.18-1.56,65.47-6.81,93.79-19.8l.71-1.92-2.01-45.72ZM395.1,555.85c3.2-2.74.28-13.28-1.79-14.63-.88-.58-6.88-.98-8.92-1.6-7.76-2.34-14.93-6.13-22.38-9.22l-.89.02c-2.85,10.59-7.88,14.49-19.11,13.78.64,1.98.26,4.2,1.58,5.97.49.65,13.21,8.16,14.01,8.34,3.1.73,15.59-.26,19.57-.53,2.58-.17,16.9-1.26,17.92-2.13ZM363.28,582.78c-.81-6.78-.25-11.67-4.14-17.91-4.33-6.95-41.53-26.2-49.71-26.54-1.46-.06-6.59,1.29-7.23,2.58-4.04,8.19,24.73,10.06,24.04,13.46-.37,1.82-23.11,7.14-24.98,11.19,7.17-.3,14.64-2.29,21.7-.01,1.13.63-.13,1.75-.68,1.97-1.31.52-30.47-2.22-22.99,7.25,4.15,2.87,9.41,1.2,14.12,1.65,11.69,1.13,14.14,8.56,23.57,12.59,7.57,3.23,19.59,4.48,27.3,1.76.24-.39.26-5.89.15-6.84-.13-1.1-1.13-1-1.14-1.14ZM48.13,682.88v-17.75c-8.74,2.42-13.45-3.38-11.18-11.83-14.63-.2-17.15-16.67-1.31-17.76-5.37-16.67,11.53-19.04,19.38-6.64,12.85-7.51,21.69,6.13,10.88,15.52,6.27,3.27,7.49,13.2.57,16.36-5.24,2.4-7.58-.13-12.39-1.55.37,2.21-3.31,3.63-3.31,4.91v16.76c2.62.52,2.75-2.65,4.58-4.29,5.39-4.84,11.82-6.94,19.09-6.23l-1.35,12.18,19.09,1.62c-1.89-5.46,8.31-27.69,13.48-27.63,3.61.04-.35,5.53-.7,7.21-1.12,5.37-1.36,11.73-.28,17.13,1.63-2.02,9.97-10.32,12.14-9.86,3.07.65-3.71,10.57-2.28,13.15l22.34-1.32-1.31-39.1c-.52-2.39-7.89-3.52-10.5-4.62-1.96-.82-7.92-3.31-8.74-5.07-2.38-5.13,3.02-27.56,1.17-30.75-24.97-8.3-50.18-21.49-58.16-48.36-21.74,3.62-37.34,21.06-38.51,43.1-6.55,1.86-11.77,5.72-16.62,10.33l-.13,64.62,17.75,3.28-.58-7.8c10.52-2.21,21.86,5.3,26.87,14.38ZM382.12,610.58c-12.89.04-25.43-.21-28.23-15.49-10.29-.27-17.5-2.73-25.99-8.19-3.89-2.5-6.88-7.8-12.18-7.21,1.6,4.74.47,11.36,1.3,15.99.12.65,1.27.39,1.32.44.76.82-1.7.12-1.31,1.62.17.65,1.26-.13,1.38,1.27.3,3.4,1.36,27.57.74,29.03l-16.44,6.98-3.99,21.83c4.65,2.84,11.76,3.3,13.05,9.89-2.01,2.18-3.71-2.15-5.71-3.49-1.1-.74-6.52-3.31-7.41-2.72l-1.89,18.28c7.54,4.45,13.64,11.2,22.23,13.91-5.32-41.39,33.92-62.71,63.12-82.15ZM519.53,580.99c-12.24,4.92-25.01,9.48-38.43,9.88-4.51.14-11.82-1.65-15.67-.54-1.24.36-4.58,4.08-6.17,5.01-3.55,2.08-8.48,4.49-12.26,6.15-1.65.73-5.39.51-5.05,2.5,22.28,2.15,46.74,3.94,68.37-2.96,4.41-1.41,8.95-2.67,12.18-6.25l-2.98-13.79ZM363.05,594.15l-5.91.66c-.09,3.9,2.23,7.3,4.94,9.85l.98-10.51ZM524.12,598.09c-18.7,10.21-42.43,11.65-63.46,10.54-7.87-.41-19.5-3.75-26.3-3.34-7.94.47-19.5,3.6-28.25,4.62-15.86,1.85-16.73-.46-31.15,8.3-25.02,15.2-57.15,39.16-53.32,72.22.77,6.65,4.5,8.51,7.85,13.34,1.5,2.16,2.09,5.4,3.3,7.07,5.22,7.22,30.15,12.55,39.14,12.8l-7.58-8.21.99-.99c21.12,18.97,55.19,18.38,82.18,17.07,18.06-.88,41.26-2.9,59.17-5.26,1.7-.22,10.48-1.67,10.76-2.92-.99-3.62-11.49-22.88-13.66-23.64-20.17,4.34-40.71,8.79-61.51,6.87l-.33-1.64c.96-1.79,12.09-.19,14.82-.31,48.38-2.13,97.58-18.26,79.09-76.52-3.27-10.29-6.86-20.39-11.74-29.98ZM51.72,630.01c-7.95-12.95-19.5-4.35-12.14,8.17-17.57-1.29-14.37,14.26,1.32,12.5.51,2.29-1.44,1.71-1.82,3.73-.73,3.89-.1,7.76,4.27,8.63,7.85,1.56,7.03-8.03,10.5-8.31,1.81-.14,6.3,7.66,12.37,3.19,6.37-4.7-.2-11.32-5.6-12.84-.4-1.93,7.5-2.76,7.29-9.85-.16-5.37-4.2-6.41-8.89-5.54-3.77.7-3.01,4.01-6.28,3.9.68-2.45-.42-2.6-1.02-3.58ZM299.94,636.21l-56.25,11.13c-1.41,9.33-.33,19.32-1.67,28.56-.92,6.33-5.15,14.85-5.9,19.75-1.44,9.52,4.45,15.02,13.2,17.46,2.1-21.21,23.78-35.6,44.06-35.49.5-.52.35-10.66.6-12.2.19-1.16,1.23-.9,1.32-1.44,1.62-9.24,2.68-18.6,4.64-27.77ZM198.04,650.02c-20.27-.91-40.66-1.93-60.49-6.57l2.61,38.45c-.21,11.16-9.85,27.31,2.63,34.51,1.66-11.41,7.23-21.42,17.85-27.18,9.86-5.35,22.34-7.68,33.43-5.68l3.95-33.52ZM240.76,647.39l-39.94,2.79-3.45,28.76c14.43,1,27.96-4.9,42.07-6.58l1.32-24.97ZM48.13,694.05c-.75-12.42-11.15-23.08-23.69-23.39-1.78,12.19,11.99,23.29,23.69,23.39ZM71.8,673.02c-11.94-.68-20,9.72-21.4,20.39,11.49.99,21.25-8.64,21.4-20.39ZM571.12,706.9c-1.58-2.72-28.71-23.99-32.87-26.63-1.22-.77-2.59-1.4-3.9-2.02-6.24,10.18-17.34,15.62-27.96,20.08,2.65,2.1,6.68,12.26,9.5,12.83,2.35.47,5.91-.26,8.55,0,10.5,1.05,34.94,6.02,43.76,2.97,4.09-1.41,4.87-3.85,2.91-7.23ZM306.51,688.8c-5.83-2.26-7.08-7.65-14.2-8.47-16.68-1.92-41.1,16.75-40.31,34.71l14.09,4.62c2.7-13.25,12.3-21.98,24.65-26.58,5.09-1.9,10.64-2.54,15.76-4.27ZM207.23,698.65c-4.58-9.37-11.71-13.3-22.05-13.17-14.52.19-32.53,7.58-37.43,22.39-3.68,11.12-.48,12.68,10.17,15.1,2.36-23.35,30.52-27.44,49.3-24.32ZM328.51,708.88c-8.51-18.06-21.72-19.93-39.33-12.1-10.34,4.59-18.07,12.21-20.15,23.56,7.87.75,30.77,10.2,27.29-5.28-.84-3.74-8.21-7.61-8.21-8.19l1.62-1.4c7.7,1.81,11.11,8.98,8.95,16.43,7.66,3.56,13.17-4.88,9.65-12.25-1.27-2.66-5.45-2.96-5.11-6.39,8.45.26,9.93,10.38,7.89,17.08,7.49,1.34,12.21-5.81,7.79-12.06-1.14-1.61-6.31-3.51-3.49-5.67,6.05,1.14,8.26,7.51,7.53,13.13.59.72,7.3-3.26,6.55-6.09-.12-.46-.88-.55-.99-.77ZM224.61,712.18c-6.12-10.86-15.22-11.88-26.9-11.83-16.17.07-35.95,4.91-37.18,24.16,7.51,3.53,16.03,6.02,24.4,4.76,1.28-.89.56-5.98.17-7.48-.57-2.17-7.65-8.79-3.19-7.99,5.42.97,7.07,11.93,6.36,16.32,8.37,2.92,16.3-1.93,11.36-11.03-.58-1.08-6.82-6.55-3.25-6.62,4.84-.1,9.27,11.05,7.66,15.35,1.03,2.78,10.41-.69,10.95-3.98.75-4.59-3.03-7.92-5.69-11.15l.88-2.17c6.31,3.1,7.52,8.51,6.91,15.1,8.81-2.56,12.51-4.54,7.5-13.42ZM234.84,705.89c-3.18.34-.63,7.32.53,9.01,11.84,17.26,71.27,23.88,88.2,11.64,2.47-1.78,7.92-7.87,4.34-10.13-1.72,1.78-4.66,1.62-6.46,2.58-1.44.77-1.36,3.09-5.55,3.82-2.43.42-4.9-.41-6.43-.18-.98.15-2.8,1.76-4.76,2.14-17.75,3.38-35.36-.24-52.08-6.74-5.93-2.3-15.2-6.3-17.77-12.14ZM228.27,723.63c-1.94,1.21-4.08,2.51-6.24,3.29-8.43,3.06-12.42,2.71-20.33,3.94-1.77.28-3.54,2.31-6.63,2.63-6.36.66-21.45-1.84-27.94-3.61-10.83-2.97-26.88-8.96-32.87-18.73-.61,7.72,2.59,12.52,8.85,16.45,15.82,9.94,37.43,13.71,55.89,12.45,9.46-.65,30.88-3.51,29.26-16.42Z"/>
  <rect x=".14" y="841.29" width="595" height=".66" fill="#fff"/>
  <path d="M590.54,3.89v28.92c-12.39-3.95-28.64,1.77-36.79,11.53-4.22,5.05-7.98,12.1-8.58,18.71-15.1-12.3-40.78-3.35-42.07,17.09-11.01-5.47-30.56,1.92-28.22,16.06.78,4.71,7.29,7.6,11.46,7.6h104.21v59.81c-21.43-14.92-55.34-4-64.44,20.38-10.18-5.13-19.81-4-29.57,1.31-.77-24.03-23.06-39.26-46.17-35.31-13.78,2.35-25.55,10.94-30.11,24.14-12.66-5.82-30.03-1.84-38.67,8.99-4.47,5.59-8.21,14.15-8.67,21.25-10.85-3.42-23.78-.31-32.81,6.29-8.44,6.17-14.85,18.66-14.52,29.2-12.01-2.32-24.69-1.56-29.73,11.35-2.86,7.33-1.75,12.87-.55,20.04.59,3.54,1.22,7.15,1.69,10.68-5.79-8.85-9.45-18.7-7.79-29.48,1.25-8.14,6.76-15.51,6.85-23.43.25-20.54-15.25-25.75-24.82-38.66-3.55-4.79-5.45-11-10.05-15.92-10.63-11.35-27.88-16.37-43.07-14.75-2.85.3-8.84,2.49-10.65,2.47-.57,0-8.27-3.67-10.59-4.27-30.85-7.99-41.94,5.19-62.59,22.5-17.21,14.43-47.47,19.18-53.62,42.36-2.4,9.05-1.29,19.01-3.02,27.88-2.18,11.19-12.68,14.16-19.98,20.78-3.53,3.2-6.17,7.53-9.19,11.19H4.08V3.89h586.45ZM155.57,68.05c-3.11-9.06-5.57-14.65-14.28-19.59-20.81-11.81-46.2-.09-48.45,23.79-14.42-11.1-37.39-6.66-39.41,13.54-4.13-.2-6.25-2.04-10.81-1.63-18.63,1.66-24.03,26.74-1.41,28.87,52.07-3.36,109.7,4.4,161.13,0,6.65-.57,16.18-3.68,15.29-12.01-1.01-9.45-11.92-11.12-19.63-10.03-4.69-18.23-24.95-26-40.71-15.46-.08-2.02-.15-4.8-.73-6.7-.16-.5-.91-.6-.97-.78ZM352.95,83c-9.22-15.38-32.73-10.07-34.61,7.66-9.96-3.83-20.21-4.72-30.23-.33-14.78,6.47-19.73,24.43-1.36,29.62,31.96-.55,69.43,3.93,100.98.96,22.88-2.15,8.76-22.2-6.92-17.77,2.05-16.05-13.9-23.77-26.3-14.46-.02-1.77-.67-4.19-1.56-5.68Z" fill="#fff"/>
  <path d="M590.54,439.02v398.32H4.08v-161.7c4.39,1.35,14.47,1.85,18,4.02,2.01,1.24,3.66,6.09,6.01,8.46,11.71,11.81,34.08,11.51,43.34-3.05l19.68,1.17,3.36,6.48,1.47-16.28c.68-2.82,3.3-8.39,5.05-10.74.55-.73.01-1.63,1.71-1.23-2.46,8.18-.84,16.71,0,24.97,1.22,1.25,5.25-8.61,6.3-9.8.49-.56,4.62-4.18,4.19-1.74-1.51,1.91-3.2,13.66-.94,14.17,2.44.55,1.39-5.03,1.63-5.26l22.35-1.31c.7.79-2.09,16.37-2.6,18.73-.67,3.12-2.8,4.4-2.68,9.87.38,18.33,37.63,27.76,52.31,28.57,10.82.6,37.54-.31,45.03-9.05,4.83-5.64,1.71-20.13-2.41-25.6-4.69-6.25-10.42-6.62-15.04-10.02-1.63-1.19-4.94-6.42-7.2-8.58-2.77-2.64-7.94-3.85-6.92-7.87,14.07.91,27.55-3.68,41.1-6.58,2.22.14.2,6.12-.24,7.64-1.65,5.77-2.99,10.54-4.21,16.85-.95,4.91-3.49,6.78-2.17,13.03,3.1,14.65,44.49,23.15,57.2,23.66,13.46.53,47.54-2.48,43.1-22.38,13.5,10.73,30.39,10.32,46.16,13.33,4.31.82,8.3,2.76,12.21,3.56,22.25,4.53,45.5,4.36,68.17,2.81,14.25-.97,45.09-2.59,57.57-6.2,7.96-2.3,2.15-8.26,1.28-13.51,1.6-1.43,34.63,3.78,39.75,3.97,7.63.27,21.05-.15,17.95-11.38-1.52-5.52-32.48-23.73-37.23-30.53,5.35-11.59,6.64-21.93,5.06-34.59-2.26-18.06-12.44-33.04-17.57-49.61-3-9.69-3.55-16.28-2.05-26.41,11.22.23,18.79-6.51,20.2-17.6.57-4.48-.42-8.28.99-12.81,2.31-7.44,11.67-11.3,12.93-22.57,2.04-18.3-12.07-24.37-12.91-36.94-.35-5.22,2.68-11.98,3.11-17.56.74-9.72-.92-19.19-6.56-27.25,16.24,4.99,32.86,8.56,49.97,8.54ZM567.52,485.68c1.99-2.17-1.95-13.55-4.25-13.14-.86.15-.99,1.29-.85,2.14.08.51,3.07,9.4,3.3,9.86.45.89.68,1.36,1.8,1.14ZM576.72,472.55c-1.65-1.69-7.44,8.03-5.84,11.08l1.59.57,4.25-11.65ZM559.38,575.36c-7.45-4.85-10.41,4.86-8.3,10.89-12.87-5.6-9.08,10.24-.99,11.86,3.65-.36-3.36-5.18-3.9-6.64-.48-1.32-.45-2.54-.36-3.91,3.62-1.45,10.45,9.35,11.83,7.88.39-6.3-8.18-12.22-2.87-18.35,5.84-1.62,6.65,16.97,7.8,17.02,1.9-3.96,5.13-13.58,11.73-11.06,5.07,1.94-6.5,10.58-4.18,12.07,3.47,2.23,7.89-7.75,7.95-10.53.18-7.86-11.54-3.83-14.5.33-.79-2.93-1.53-7.83-4.21-9.58ZM570.81,632.27c-3.3-3.14-6.05,11.92-3.6,13.13,1.31.32,1.17-.96,1.43-1.83.98-3.3,1.46-7.84,2.18-11.31ZM560.75,634.43c-.88-1.05-3.46-2.3-4.38-.53,1.59.99,4.76,12.5,6.22,12.16,2.41-.56-.69-10.28-1.83-11.63ZM57.34,772.27v-14.46c9.74,4.19,17.64-1,14.46-11.83,14.48.82,12.59-18.96-1.31-15.78,2.66-15.71-13.65-15.66-17.51-2.66-11.54-5.29-21.24,4.88-10.17,13.6-11.4,9.97.98,20.03,11.88,13.38l-.66,13.8c-5.12-5.05-25.59-15.16-20.68-.02,6.36,19.61,37,19.59,47.26,3.25,1.82-2.91,5.48-8.29.08-9.18-8.42-1.39-18.53,3.09-23.37,9.89ZM131.63,767.67c.69-.61-3.03-16.62-7.54-15.77-1.22.23-.69,1.04-.46,1.74.58,1.79,2.97,4.92,3.91,7.28.76,1.89,1.26,9.25,4.09,6.75ZM139.93,752.63c-2.31.9-6.88,14.19-4.03,14.37,1.16.07,4.23-12.03,6.23-13.46l-2.2-.91ZM342.02,797.91v16.43c-4.82-6.87-11.6-12.33-20.21-13.64-14-2.14-4.93,11.67.13,16.3,9.38,8.58,27.35,8.48,37.39,1.17,3.95-2.87,9.96-9.82,7.56-14.9-9.26-1.96-17.24,1.99-22.24,9.76v-18.4c13.01,7.14,23.58-2.11,13.86-14.71,14.29-10.43,3.71-23.2-11.18-15.58-4.34-13.81-25.99-12.1-21.1,4.64-15.08.37-14.76,15.95,0,17.1-5.15,12.34,5.88,16.46,15.78,11.83ZM557.66,776.21c1.75-4.7,3.04-13.72-2.45-16.27-7.51-3.48-11.39,7.08-12.99,7.11-9.68-8.26-21.35-10.54-33.56-6.63-9.18,2.93-15.25,9.28-18.74,18.1,2.41,5.24,7.45,7.2,12.92,8.14,7.73,1.34,40.08,2.61,44.18-4.32,3.84-6.48-5.86-10.21.12-16.97,8.22-9.31,10.63,1.19,8.75,8.75-.48,1.93-4.9,9.3-1.84,9.32,6.51-9.56,22.8-9.16,9.64,3.75l.88,2.17c12.8-8.3,8.35-19.68-6.9-13.14ZM430.11,767.67c-3.43-.35-6.75,12.26-5.91,13.14,1.05.06,1.54.24,2.28-.67.41-.5,4.05-11.98,3.63-12.47ZM415.99,769.65c-1.04.28-.85,1.1-.66,1.94.22.95,2.3,6.29,2.84,7.69.36.92.24,2.27,1.74,2.19,1.71-.27-.65-12.71-3.92-11.82ZM213.43,789.08c-9.18-15.63-33.88-18.87-47.64-7.31-4.43,3.72-10.07,13.93-3.49,18,8.82,5.45,34.83,4.46,44.78,1.58,8.11-2.35,11.15-4.12,6.36-12.28ZM260.24,784.34c.79,1.71,2.22,8.64,3.86,8.3,2.75-.57-2.18-15.54-6.56-14.47-2.25.67,2.55,5.84,2.7,6.17ZM274.95,779.51c-1.52-1.8-10.71,10.38-6.24,13.13.28-2.21,7.43-11.73,6.24-13.13ZM474.01,787.56c-11.88,1.62-20.68,13.28-2.79,14.93,4.86.45,28.36,1.27,22.93-8.47-3.53-6.33-13.79-7.32-20.15-6.46ZM39.84,806.87c-1.01-1.61-.38-3.84-3.2-3.72-2.46.1,1.11,4.64,1.66,6.24.65,1.92.97,7.81,2.95,7.4,4.05-.83-.49-8.45-1.41-9.92ZM49.44,805.14c-2.26-2.47-6.11,9.98-3.6,10.51,1.74.36,4.12-9.94,3.6-10.51Z" fill="#fff"/>
  <path d="M133.6,345.36c1.7,11,10.9,13.57,18.07,18.74,7.94,5.72,6.4,14.07,15.54,19.3,12.57,7.19,20.37.83,32.41,2.44,10.48,1.4,14.86,7.96,28.37,3.92,13.96-4.17,12.81-12.07,20.08-19.36,3.36-3.37,10.17-5.18,14.1-8.25,8.37-6.56,8.7-13.82,10.84-22.7.18-.77-.5-1.2.96-.98,7.47,4.87,15.22,9.53,21.3,16.17,12.61,13.75,20.6,37.71,23.14,55.71.13.92.12,4.9-.2,5.53-2.27,4.58-40.29,15.72-47.2,13.29.21-1.56-.29-3.53-.05-4.98.2-1.19,1.27-.92,1.34-1.41,1.68-11.59,2.1-23.56,1.9-35.26l-3.19-1.09c-.65,15.04-1.22,29.95-3.47,44.85-1.76,11.62-4.42,23.21-8.3,33.91-2.67,7.37-.11,8.81-8.64,12.26-18.52,7.5-50.49,7.74-70.69,7.61-6.89-.04-26.72.07-32.05-1.48-2.21-.64-10.1-7.2-12.86-8.83-6.29-3.72-12.79-7.07-19.21-10.54-.25-.92,2.19-17.99,2.67-18.81.73-1.24,4.13-.66,5.27-1.45,2.36-1.64,5.07-35.04,7.19-40.17.13-1.32-1.88-2.35-2.58-1.16l-6.05,37.91c-1.43,2.67-21.48,2.59-25.21,2.45-15.13-.59-45.66-6.47-57.46-16.17-3.33-2.74-1.03-9.54.02-13.57,11.7-44.78,39.66-76.74,87.47-84.88,2.98-.51,3.96-.98,6.48.88.54,4.96-.73,11.35,0,16.1Z" fill="#fff"/>
  <path d="M524.12,598.09c4.88,9.6,8.48,19.69,11.74,29.98,18.49,58.26-30.71,74.39-79.09,76.52-2.73.12-13.85-1.48-14.82.31l.33,1.64c20.8,1.93,41.34-2.53,61.51-6.87,2.17.77,12.67,20.02,13.66,23.64-.27,1.25-9.06,2.7-10.76,2.92-17.9,2.37-41.1,4.38-59.17,5.26-26.99,1.31-61.07,1.9-82.18-17.07l-.99.99,7.58,8.21c-8.99-.25-33.91-5.58-39.14-12.8-1.21-1.67-1.8-4.9-3.3-7.07-3.35-4.83-7.07-6.69-7.85-13.34-3.84-33.06,28.3-57.01,53.32-72.22,14.41-8.76,15.29-6.46,31.15-8.3,8.75-1.02,20.32-4.15,28.25-4.62,6.8-.41,18.43,2.93,26.3,3.34,21.03,1.11,44.76-.33,63.46-10.54ZM427.48,636.21c-18.32,2.12-40.83,12.87-53.94,25.93-1.5,1.5-9.88,11.4-8.51,12.85,3.89-.49,5.82-6.14,8.51-8.9,8.3-8.53,22.33-17.41,33.38-21.84,5.29-2.12,14.83-3.7,19.06-5.92.9-.47,1.74-.86,1.5-2.11Z" fill="#fff"/>
  <path d="M313.75,579.03l2.01,45.72-.71,1.92c-28.32,12.99-62.61,18.23-93.79,19.8-33.41,1.67-71.48.95-102.14-13.2l3.31-44.39h-3.29c-.4,2.17.14,11.06-2.16,11.07-1.94.01-17.67-6.54-20.4-7.91-3.39-1.7-8.75-5-11.83-7.23-22.85-16.55-32.79-46.15-17.88-71.51,9.16,6.1,20.21,11.17,30.61,14.74,11.65,4.01,26.91,5.47,37.27,9.41,2.89,1.1,5.85,5.04,8.82,6.96,14.13,9.15,24.68,4.02,37.59,11.06,5.97,3.26,10.89,9.1,18.52,8.43,4.92-.43,5.53-4.15,6.54-4.38.62-.14,3.03.66,4.64.44,6.67-.9,5.71-4.72,7.53-5.6.87-.42,4.77.9,8.25-1.64,3.81-2.78,2.03-5.03,3.29-7.23.5-.87,3.48-1.6,4.62-2.61,8.25-7.27-3.69-22.12-9.13-28.7l-7.65-6.81c4.9.03,9.67-.68,14.47-1.64,3.91-.79,20.58-6.31,21.97-6.24,3.94.2,19.85,11.7,22.36,15.15,6.84,9.4,1.85,9.18-2.13,16.84s-7.75,20.62-.59,27.63c1.01.99,3.95,1.25,4.28,1.63.71.83.32,5.44,3.06,7.13,1.66,1.03,5.49.85,6.14,1.42.5.44.6,3.9,2.51,5.06s3.94.3,5.71.87c1.36.44,4.34,3.8,6.06,3.8h12.16ZM237.48,569.83c-1.73-1.97-8.25,9.98-9.33,11.37-6.84,8.87-14.94,16.64-23.59,23.74l.39,3.01c1.66.28,18.38-16.21,20.45-18.65,1.92-2.27,11.16-14.48,11.88-16.37.25-.65.38-2.88.19-3.11ZM261.8,579.69c-1.23-.13-1.92-.12-2.94.66-.91.69-7.16,12.2-8.99,14.68-2.61,3.54-7.56,9.03-10.71,12.29-1.93,1.99-8.61,4.87-5.95,7.84,10.91-6.58,18.89-18.37,25.43-29.15.98-1.61,3.77-2.98,3.17-6.33Z" fill="#fff"/>
  <path d="M249.08,205.26c3.37,3.39,6.08,8.62,9.45,11.91,2.42,2.37,8.2,4.97,9.15,7.94,3.34,12.69.47,26.47,1.34,38.76.24,3.41,1.71,7.02,1.98,10.51.67,8.71-.55,19.35-6.89,25.93-5.14-10.51-16.1-16.93-27.94-16.42-.64-1.74,1.19-1.08,1.32-1.74,1.46-7.58-6.6-14.32-10.12-20.68-1.15-2.08-5.63-14.62-6.34-15.03-.89-.18-1.6.25-1.88,1.1-.26.78,4.36,13.78,5.25,15.44,3.27,6.11,10.74,9.37,9.76,17.9-.83,7.16-14.46,7.59-19.93,6.22-3.58-.9-6.38-4.09-9.26-4.55-7.51-1.18-20.81,4.18-26.98,8.58-4.77,3.4-7.48,8.02-11.85,11.56-9.6-4.79-16.54-12.26-19.4-22.74-4.29.48,0,7.36,1.22,9.64,4.26,7.91,11.35,13.06,19.52,16.63,3.45-2.62,5.31-7.09,8.84-10.19,5.7-5,19.04-11.17,26.65-10.89,6.31.24,9.89,6.99,22.19,5.15,9.74-1.45,6.47-6.36,19.4-2.64,11.63,3.34,11.9,9.01,19.46,16.55,5.08-4.54,8.67-11.09,9.95-17.69,5.47,11.91,4.51,22.32-.02,34.15s-3.3,11.97-4.97,24.62c-2.06,15.7-13.95,15.03-22.25,22.46-6.77,6.07-5.73,15.06-18.58,18.89-14.28,4.26-19.46-2.91-31.24-3.87-10.03-.81-14.17,3.94-25.64-.81s-8.15-10.9-14.34-17.21c-5.46-5.56-15.79-7.44-19.32-16.18-2.87-7.09.09-13.67-1.56-20.13-.68-2.65-3.21-4.99-3.71-6.29-4.08-10.58-2.86-19.25-.13-29.93-.74-2.1-3.2-.25-4.82-.42-4.69-.49-8.3-1.54-11.89-4.61-21.81-18.62.56-52.43,23.01-27.62,6.16-10.15,7.17-21.7,8.39-33.36,4.36-2.08,8.95-3.59,12.93-6.47,9.1-6.58,14.02-17.4,25.52-21.15,8.37-2.73,21.12-2.52,24.45,7.33l1.7.42c9.2-15.11,26.16-12.58,37.57-1.09ZM192.66,223.59c-5.68.03-25.05,4.26-21.76,12.79,2.65,6.86,13.99-.41,19.21-1.48,4.5-.93,13.43,1.04,13.81-5.31.32-5.41-7.19-6.01-11.26-5.99ZM232.03,223.57c-4.56,1.11-3.42,8.15-.46,9.38,2,.83,7.04.55,9.87,1.31,4.2,1.12,18.42,8.74,16.96-1.12-1.25-8.44-19.92-11.13-26.37-9.56ZM249.11,249.25c-.39-.58-3.89-2.75-4.78-2.81-7.81-.51-7.75,20.26,1.22,17.61,5.07-1.5,6.13-11,3.56-14.8ZM189.96,247.23c-5.42,1.63-5.67,18.4,2.42,17.6,8.12-.8,7.52-20.59-2.42-17.6ZM132.57,269.83c-1.38-3.13-3.33-8.03-7.51-7.62.97,3.6,3.73,5.17,5.11,9.02,1,2.81,1.7,5.7,1.47,8.73l2.66-.3c1.41-3.22-.49-7.02-1.73-9.83ZM235.3,304.74c.89-1.12,1.37-2.79-.12-3.73-9.31,8.73-27.76,8.77-36.9.05l-2.23.93c4.33,10.78,33.34,10.13,39.25,2.75Z" fill="#fff"/>
  <path d="M590.54,436.39c-15.52-.95-35.04-2.42-49.29-8.89-9.23-4.19-12.58-18.37-13.73-27.68-2.47-19.86.29-34.92-5.54-54.94-13.58-46.63-71.33-60.42-113.55-48.17-20.61,5.98-42.09,22.83-40.7,46.56.31,5.32,4.94,11.24,5.17,13.94.06.76-2.71,12.12-3.23,12.51-14.29-1.76-28.74-4.08-42.77-7.28-3.03-.69-15.71-3.24-17.31-4.38-3.03-2.15-.46-11.02,1.91-13.65,3.1-3.43,6.59-2.68,10.14-4.98.4-1.76-11.24-4.36-11.8-12.56-.62-9.13,8.84-10.27,15.74-10.12,1.28-1.94-18.78-11.9-6.4-20.57,6.31-4.42,12.33-3.36,19.56-3.09.63-2.72-1.71-3.49-2.76-5.45-10.99-20.64,7.96-22.4,22.48-14.92,1.07-1.12-6.27-12.37-.36-18.43,4.26-4.37,13.19-2.45,18.25-.44,2.18.87,9.31,6.86,8.59,2.61-.58-3.44-2.71-6.74-2.72-10.43-.04-11.38,10.02-14.44,19.51-11.63,12.34,3.66,17.57,15.97,21.18,27.14,4.99-1.83,7.34-4.56,13.11-5.62,11.32-2.07,17.58.75,24.63,9.54,7.6-11.13,25.29-11.2,26.7,4.34.21,2.31-1.71,4.65.3,6.19,15.15-9.25,23.01,1.18,21.38,16.45,3.52-.52,4.95-4.53,8.61-6.18,10.96-4.93,18.4,1.68,20.33,12.1,1.39,1.17,4.5-4.14,6.34-5.16,5.13-2.83,11.51-1.57,16.32,1.21,1.67-3.2.75-5.9,2.21-9.64,3.55-9.09,19.9-15.04,27.73-7.78v159.4ZM565.56,336.48c-.33-5.73-2.29-9.94-7.46-12.59-17.15-8.8-16.61,15.71-2.74,17.86,2.12-.67-3.22-4.33-3.95-5.25-2.41-3.06-4.54-6.43-3.48-10.41,7.49-4.58,13.72,2.99,15.24,9.83.38,1.72.12,8.43,1.41,8.44,7.87-19.51,23.49-11.02,8.75,4.83l.47,1.76c15.57-8.04,7.32-31.8-8.22-14.46ZM559.63,408.78c-.29-5.8-4.97-13.27-10.05-15.91-1.5-.78-4.57-2.41-4.74.13,6.12,3.76,10.96,8.23,12.25,15.69l2.55.08ZM565.55,408.12c-.77-2.02.42-15.68-.98-15.76-4.44.98-1.22,18.53.98,15.76ZM571.98,407.96c.28-.39.94-3.61,1.77-5.11.7-1.26,5.21-5.82,2.63-6.55-1.97-.56-9.09,9.25-7.24,11.85.58,1.01,2.44.35,2.83-.19Z" fill="#fff"/>
  <path d="M409.31,469.7c6.2,22.56,33.83,14.43,48.09,6.13,5.14-2.99,22.64-17.66,25.79-18.3,4.45-.9,18.19,8.16,21.64,11.3,19.88,18.09,18.56,49.5,17.35,74.4-.2,4.07-2.47,32.91-3.47,34.32-14.67,8.26-31.75,10.91-48.49,10.01,7.28-7.75,15.12-14.94,21.58-23.44,3.46-4.55,8.39-11.66,11.26-16.5,1.8-3.04,8.65-15.21,8.98-17.87.22-1.79-1.26-2.72-2.36-1.99-.53.35-3.98,9.53-5.17,11.61-14.92,26.08-36.79,53.38-66.66,62.18-22.18,6.53-49.83,8.17-72.55,4.46,2.29-14.67,4.25-32.14-4.87-44.72,22.46-3.03,56.13,1.7,73.23-15.86,5.13-5.27,30.07-39.91,31.8-45.77.21-.71.23-1.41.16-2.13l-2.27.68c-9.49,13.56-18.18,29.56-29.01,42.01-8.96,10.3-18.73,14.27-32.46,15.12-.3-3.04-1.33-6.14-2.56-8.9-9.13-20.36-11.13-29.6-3.21-51.7.6-1.68,4.77-8.71,3.77-9.69-2.38-2.35-4.95,5.12-5.57,6.58-6.3,14.89-7.79,31.31-2.32,46.65-4.74.46-31.23-10.13-31.54-13.42,10.6-26.23,17.41-58.5,47.65-68.72,1.28.08.18,5.95.3,7.57.13,1.7.48,4.42.91,6.01Z" fill="#fff"/>
  <path d="M212.62,171.36c8.47.33-3.52-5.86-2.75-7.08,14.5-4.31,32.15-2.01,44.05,7.54,8.93,7.16,10.77,15.17,17.08,22.83s14.4,10.38,18.54,20.44c7.99,19.41-5.01,29.16-3.39,46.77s15.98,24.26,11.49,44.38c-1.18,5.31-4.54,8.89-4.92,14.8-.69,10.88,7.36,18.32,2.64,28.94-.99.91-1.38-.24-2-.67-2.71-1.88-5.91-5.42-8.88-7.55-2.63-1.89-10.85-5.17-11.47-8.26-1-4.94,5.83-15.77,6.92-21.96,2.79-15.8-5.9-31.21-7.52-46.45-.74-6.9.76-14,.61-20.98s-1.62-12.42-2.65-18.7c1.06-.76,10.24,4.53,8.5-1.27-22-1.45-25.84-30.09-48.26-30.96-8.07-.31-14.32,2.89-19.74,8.55-7.99-10.64-23.45-8.53-33.69-2.12-7.84,4.9-12.57,13.97-20.53,18.92s-19.33,7.43-28.95,7.54v1.97c5.27.98,10.08.66,15.12-1.31-.12,9.55-.69,19.51-4.93,28.26-37.51-28.07-47.96,38.45-8.87,39.44-2.82,9.83-3,20.4,1.3,29.91-27.31,8.13-55.51,17.55-72.68,41.72-6.37-2.85-11.84-6.07-14.65-12.89-8.17-19.79,12.41-30.73,9.82-47.27-.24-1.51-2.38-5.08-2.66-8.53-2.35-28.47,25.89-26.17,30.14-45.42,1.4-6.34.61-13.19,1.41-19.62,3.69-29.46,22.69-29.18,43.59-41.87,14.99-9.11,21.99-23.6,40.04-28.98,14.88-4.44,37.63-4.14,47.31,9.9Z" fill="#fff"/>
  <path d="M513.24,332.26c16.16,28.38,4.21,57.67,16.25,85.31,6.87,15.77,16.55,18.95,15.05,39.55-.37,5.06-2.96,11.11-3.13,15.92-.62,17.07,19.84,24.46,10.91,45.09-2.44,5.64-8.61,9.43-10.61,15.02-1.82,5.08-.85,10.91-1.98,16.42-1.71,8.28-8.24,13.47-16.89,12.36,1.01-5.96,1.46-12.05,1.96-18.08,2.61-32.02,2.64-68.49-30.65-85.67-8.7-4.49-26.98-7.67-28.45-18.89-.86-6.56.53-12.85,3.24-18.67,7.8,2.95,15.8,2.7,23.1-1.55,11.06-6.44,17.42-26.71,4.31-34.09-8.41-4.74-14.38.75-21.47,4.05-5.19-9.87-6.71-21.93-2.66-32.49-.35-1.51-4.55-.84-6.08-1.17-20.27-4.34-39.6-17.38-45.87-37.95-1.14-.79-6.2,5.25-8.18,6.6-8.94,6.1-21.01,9.39-31.22,12.83l-6.62,16.06c-12.54-23.75,11.23-45.81,32.37-52.76,36.34-11.95,86.55-3.18,106.64,32.1Z" fill="#fff"/>
  <path d="M47.47,285.21c-2.31,9.84,3.21,18.89,1.91,28.53-1.52,11.28-12.38,17.52-11.76,31.59.48,10.75,9.16,18.75,18.41,23.04-7.78,9.95-11.06,20.59-14.95,32.36-.23.68-1.26.74-1.45,1.34-1.05,3.38-5.38,20.37-5.22,22.85.33,5.15,9.68,6,10.32,8.63-2.41,17.49-5.05,36.31.42,53.46,3.51,11.03,10.22,16.75,17.98,24.73-5.14,12.68-7.35,26.36-4.54,39.91-.27.7-8.91,3.02-10.71,3.8-17.59,7.62-27.62,21.51-29.66,40.68l-14.15,7.87v-318.79h43.39ZM29.44,327.02c.37-1.2,1.86-4.29,1.54-5.24-4.01-4.77-6.12,9.77-5.21,10.76,3.95.56,2-3.1,2.66-4.78.2-.51.96-.57,1.01-.74ZM21.18,333.85l1.97-1.64-2.97-10.21-3.6.66c2.88,0,4.09,10.83,4.6,11.18ZM29.71,402.89c-3.65-4.71-7.27,12.05-6.56,14.43,3.45.59,2.77-4.86,3.76-7.74.36-1.05,3.08-6.33,2.8-6.7ZM17.67,405.71c-.7-.77-3.8-2.73-3.74-.54.08,2.9,5.16,8.82,4.62,12.4,5.31,2.36.31-10.54-.88-11.86ZM35.32,515.27c-2.72,1.26-6.12,13.81-3.29,14.45,1.72.39,2.31-6.09,2.77-7.74.65-2.33,3.96-5.96.52-6.72ZM27.75,530.38c.4-5.49-2.86-10.39-6.9-13.78l-.99,2.84c3.05.37,5.63,13.36,7.89,10.94Z" fill="#fff"/>
  <path d="M421.19,327.65c11.24,16.62,26.64,27.94,47.06,30.52.69,1.92-1.11,1.8-1.28,2.45-2.82,10.5,1.16,25.31,8.84,33.03,12.68-14.97,30.79-5.34,22.8,13.61-2.81,6.66-11.09,12.21-18.29,12.65-5.21.32-8.77-2.69-13.39-2.26-7.99,16.67-5.65,32.83,13.81,38.14-16.37,10.79-35.5,30.94-57.03,24.82-8.88-2.52-12.12-10.06-12.05-18.91.05-5.79,1.08-8.07,7.31-7.94l1.59,8.96,2.99.62c.69-6.16-2.08-11.67-2.63-17.1,8.66.43,27.19-4.99,33.12-11.25,1.5-1.58,1.61-3.41-.68-2.66s-5.38,3.74-7.68,4.83c-16.44,7.8-32.07,8.39-49.07,1.51-42.51-17.2-26.21-66.83-14.43-99.18,12.76-4.16,25.88-8.24,36.44-16.81.71,1.83,1.46,3.33,2.57,4.97ZM390.5,343.88c-3.68.57-13.43,7.09-7.78,8.08,1.74.31,4.8-3.64,7.1-4.16,4.81-1.08,8.93,1.79,12.68.17,1.19-4.21-9.44-4.5-12-4.1ZM430.77,354.88c8.44-.91,15.26,1.61,19.47,9.14,4.57,1.36.16-6.18-1.06-7.5-3.39-3.68-13.53-7.43-18.1-4.28l-.31,2.64ZM384.64,362.23c-5.38-1-.93,3.34-.58,5.51.54,3.41-1.41,9.18,2.83,10.97,8.91,3.77,12.81-15.61,4.78-15.86l-5.26,2.56-1.77-3.18ZM406.46,370.01c-.42.28-2.51,6.85-4.34,9.14-3.68,4.6-10.5,6.03-11.37,12.23.16,5.25,11.41,10.73,15.26,9.44,4.68-1.57-7.73-4.64-8.87-5.4-8.32-5.57,2.95-9.38,6.7-13.9,1.47-1.77,6.64-9.54,4.61-11.21-.44-.36-1.69-.5-1.98-.31ZM431.33,370.11l-2.52-.1c2.81,4.66-3.05,18.53,5.95,17.46,6.45-.77,8.27-11.57,4.79-16.2-3.92-2.63-7.14,4.94-8.21-1.16ZM489.95,394.99c-2.47-2.21-15.48,6.97-13.14,11.17,1.47,1.06,6.43-5.66,7.92-6.85,1.94-1.56,5.85-1.5,5.22-4.31ZM394.3,408.78c-1.32.99-.75.81-.45,1.74,3.2,10.03,8.68,13.57,19.44,12,4.16-.61,13.85-7.17,10.62-11.81-.71-1.02-14.42,1.62-17.82,1.37-4.19-.3-7.83-2.27-11.8-3.31Z" fill="#fff"/>
  <path d="M113.22,463.34l-9.2-1.31c-2.61,2.45,8.73,4.26,10.03,4.76,11.38,4.41,23.99,13.45,34.24,20.33,3.36,2.25,15.92,12.6,18.22,13.33,5.25,1.66,17.85-.16,24.44.54,14.36,1.54,29.3,9.73,37.6,21.57,3.53,5.03,10.61,18.34.39,19.66-1.01-6.35-7.88-14.45-12.83-18.4-2.8-2.24-14.25-9.54-17.44-7.58-.93.83-.92,1.17.05,1.97s8.56,3.36,11.35,5.08c5.57,3.43,23.05,20.6,15.53,27.1s-8.19-4.16-11.12-8.32c-3.55-5.04-13.12-12.5-18.83-14.88-1.46-.61-8.63-3.43-8.13-.42,5.79,3.16,12.46,5.43,17.75,9.86,6.46,5.41,18.99,22.09,1.45,20.28-4.41-11.28-17.08-20.28-29.08-21.6l.02,1.97c8.34,2.45,17.59,6.78,22.71,14.13,2.11,3.03,5.63,8.24-.2,9.7-8.2,2.06-19.56-11.97-28.85-12.73-7.37-.61-11.65.81-19.48-2.36-6.01-2.43-11.14-8.73-15.59-10.71-6.47-2.87-19.94-4.31-27.63-6.56-17.29-5.06-41.64-14.8-53.23-28.94-14.84-18.11-10.95-43.77-7.9-65.38,20.89,9.23,44.5,12.76,67.31,10.56.75.35.85.67.93,1.44.34,3.47-2.73,12.74-2.51,16.92Z" fill="#fff"/>
  <path d="M299.94,282.58c-8.29-23.56-1.89-50.45,28.27-38.13.31-.38-.25-5.96.03-7.41s2.56-8.23,3.42-10.5c5.1-13.41,19.44-21.74,33.72-20.88,3.89.24,6.98,2.2,10.83,1.99-1.05-18.46,14.8-35.84,33.74-33.46,4.88.61,8.45,3.62,12.99,2.94,4.03-20.97,30.3-29.3,48.6-22.38,11.97,4.52,20,15.38,22.3,27.66.31,1.67-.65,7.09,1.07,7.5,8.11-4.85,12.87-8,22.79-5.71,3.82.88,6.58,3.52,10.32,3.01,6.75-24.42,42.75-36.32,62.53-19.97v44.37c-19.92-33.25-71.32-26.42-86.12,7.88-1.08-2.56-.67-6.28-1.38-8.69-8.1-27.45-34.04-45.1-62.64-32.62-24.29,10.6-28.5,34.87-27.39,59.06-15.19-11.83-39.05-7.72-32.22,15.78-13.54-8.11-33.32-4.45-26.29,15.11-12.67-4.81-27.58-2.48-23.67,14.47h-30.9Z" fill="#fff"/>
  <path d="M48.13,682.88c-5.02-9.08-16.36-16.59-26.87-14.38l.58,7.8-17.75-3.28.13-64.62c4.85-4.61,10.08-8.47,16.62-10.33,1.17-22.03,16.76-39.48,38.51-43.1,7.98,26.87,33.19,40.06,58.16,48.36,1.85,3.19-3.55,25.62-1.17,30.75.81,1.76,6.78,4.25,8.74,5.07,2.61,1.1,9.99,2.23,10.5,4.62l1.31,39.1-22.34,1.32c-1.43-2.58,5.35-12.5,2.28-13.15-2.17-.46-10.51,7.84-12.14,9.86-1.08-5.4-.84-11.76.28-17.13.35-1.68,4.31-7.17.7-7.21-5.17-.06-15.37,22.16-13.48,27.63l-19.09-1.62,1.35-12.18c-7.27-.71-13.7,1.39-19.09,6.23-1.83,1.64-1.96,4.81-4.58,4.29v-16.76c0-1.28,3.68-2.7,3.31-4.91,4.82,1.42,7.15,3.95,12.39,1.55,6.92-3.16,5.7-13.08-.57-16.36,10.81-9.39,1.97-23.03-10.88-15.52-7.84-12.41-24.74-10.03-19.38,6.64-15.83,1.09-13.32,17.55,1.31,17.76-2.28,8.45,2.43,14.25,11.18,11.83v17.75ZM83.63,607.28c.38-.58-.01-2.31-1.09-2.51-11.1-.2-22.17-2.15-32.98-4.5-3.6-.78-9.62-4.55-11.94-1.86-.03,2.05,16.03,5.46,18.38,5.93,3.45.68,26.7,4.35,27.62,2.93Z" fill="#fff"/>
  <path d="M368.98,372.64c-1.99,9.6-3.24,19.38-2.62,29.23.3,4.74,2.24,9.63,1.9,14.39-.75,10.54-10.81,20.79-11.79,33.58-.87,11.41,4.46,14.77,5.27,23.69.94,10.42-6.72,20.07,1.29,30.13.73.91,2.48-.2,1.98,1.36-1.51,5.11-7.17,15.37-7.61,20.09-.2,2.18,1.85,1.99,1.63,4.11-.46,4.57-4.77,10.44-9.48,11.63-11.39,2.89-8.3-1.48-11.8-9.15-12.87-28.15-14.01-61.99-20.63-91.91-.86-3.9-3.78-12.6-4.01-15.64-.07-.96-.19-1.86.65-2.57,2.32-1.59,7.28-1.98,7.89-5.29.49-2.67-2.39-16.9-3.23-20.37-.24-.98-1.18-1.03-1.3-1.49-3.34-12.78-6.21-25.46-15.19-35.61l67.06,13.8ZM349.24,390.38l-2.7.38c-.43,1.72-3.61,10.85-.9,11.44,1.88.41,2.51-9.91,3.6-11.82ZM340.34,397.99c-.44-1.12-2.99-8.22-4.89-6.29.68,2.32,3.41,14.31,5.57,13.8,2.6-2.43.11-5.49-.68-7.51ZM346.61,479.12c-1.81-2.11-7.72,11.03-4.26,11.82,1.14.26,1.36-.87,1.59-1.68.96-3.3,1.79-6.82,2.66-10.15ZM336.06,481.78c-.73-.45-2.71.13-2.5,1.49l2.47,6.63,2.03.4c.64-1.26-1.48-8.2-2-8.52Z" fill="#fff"/>
  <path d="M310.45,423.25c3.66,11.18,4.45,22.9,6.61,34.36,3.24,17.19,6.2,45.5,11.21,61.73,1.41,4.57,5.79,10.59,7.67,15.47.68,1.77,4.09,12.46,3.44,13.32-8.02-4.08-26.73-15.08-35.46-12.13-5.13,1.73-5.66,6.34-2.65,10.48,4.31,5.95,13.2,4.92,19.05,8.22-4.19.93-19.8,5.68-21.36,9.22-.53,1.21-.09,2.94-.37,3.45-.67,1.2-3.24,2.72-3.36,4.97l-4.18-.52c-4.42-9.95,7.81-14.71,10.86-22.36-6.65,3.42-12.76,9.37-14.5,17.06-13.82-1.34-3.04-18.35,2.36-23.63.83-.6-.22-1.89-.69-1.98-3.39-.68-11.44,13.49-10.84,17.09-2.9,2.3-5.22-9.05-5.27-10.89-.15-5.2,2.36-12.12,5.26-16.41,2.13-3.15,5.06-4.44,6.28-7.6l-13.88-25.49c-1.99-7.26-10.02-19.26-9.43-26.63.31-3.88,3.4-11.01,4.37-15.39,1.64-7.47,3.12-14.96,4.46-22.49,8.74-1.52,17.49-2.48,26.12-4.78,4.84-1.29,9.59-3.43,14.33-5.06Z" fill="#fff"/>
  <path d="M590.54,35.44v65.73h-104.21c-3.15,0-8.54-2.6-8.9-6.25-1.3-13.08,19.17-17.51,28.29-10.84-1.75-17.68,16.18-27.84,31.86-22.31,4.2,1.48,5.41,4.49,9.21,5.88,1.9-1.22.53-3.84,1.04-5.44.88-2.76,3.25-8.8,4.88-11.67,6.87-12.15,24.5-19.14,37.83-15.1Z" fill="#fff"/>
  <path d="M567.52,230.01l2.7,16.36c4.45.63,6.16-3.41,10.8-1.95,10.86,3.41.12,23.28-10.11,19.85-.22,11.49-11.24,15.08-12.59,25.55-6.73-2.06-13.25-1.82-18.08,3.93-3.8-8.59-12.31-14.93-22.01-10.5-2.48-6.31-6.79-9.88-8.52-16.8-2.8-11.19-1.59-25.21,1.43-36.29,11.18-2.02,19.99-6.4,28.35-13.9,7.32,7.67,17.47,12.47,28.03,13.76ZM516.07,231.43c-7.31,2.21,7.15,7.53,11.35,5.47,1.28-.63,1.89-2.15.65-3.27-.45-.41-11.38-2.38-12-2.19ZM560.81,234.05c-2.12-3.47-12.19.74-15.64-.11l-.02,2.84c.87,2.81,13.35-.56,15.77-.9.02-.58.22-1.28-.11-1.82ZM520.65,238.03c-4.78-.1-6.14,9.2-1.42,11.07,5.44.97,6.85-9.57,1.42-11.07ZM549.36,249.45c1.4.7,1.77,1.29,3.53.46,3.58-2.62,3.77-7.73.39-10.6-5.63-1.78-8.55,7.82-3.92,10.14ZM535.96,263.52c.53-4.31-4.42-1.91-6.79-2.74-5.34-1.87,4.3-14.22,4.68-17.48.17-1.46.58-3.24-1.49-3.44-3.04,10.33-18.21,25.38,3.6,23.66ZM524.79,272.71c3.87.37,7.44-.61,11.54-.68,1.37-.02,8.19,1.92,7.52-.95-.48-2.06-11.45-1.92-13.49-1.67-.84.11-6.78,1.93-5.57,3.29Z" fill="#fff"/>
  <path d="M382.12,610.58c-29.2,19.45-68.44,40.76-63.12,82.15-8.59-2.71-14.69-9.46-22.23-13.91l1.89-18.28c.9-.59,6.31,1.98,7.41,2.72,1.99,1.34,3.69,5.66,5.71,3.49-1.3-6.59-8.4-7.05-13.05-9.89l3.99-21.83,16.44-6.98c.62-1.46-.44-25.63-.74-29.03-.12-1.4-1.21-.62-1.38-1.27-.39-1.5,2.07-.8,1.31-1.62-.05-.05-1.2.2-1.32-.44-.83-4.63.3-11.26-1.3-15.99,5.3-.6,8.29,4.7,12.18,7.21,8.49,5.46,15.7,7.93,25.99,8.19,2.8,15.28,15.34,15.53,28.23,15.49ZM331.84,615.84c-1.14.82-.88.87-.69,1.98,3.42,20.58,8.75,4.91.69-1.98ZM343.98,615.83c-2.21-2.42-7.08,9.91-3.61,11.83,1.09.6,1.36.05,1.81-.81s2.17-10.6,1.8-11.02Z" fill="#fff"/>
  <path d="M590.54,274.04c-5.63-3.77-12.23-2.88-18.41-1.32l.94-5.29c17.82-.46,22.26-32.53-.31-24.57-2.12-4.8-1.91-9.44-2.24-14.87-11.8-2.27-24.33-6.27-30.96-17.04-7.51,9.6-17.99,15.03-30.11,16.55l-.99.99c-4.22,18.75-5.95,40.58,7.77,55.73l-4.6,2.97c-.47-4.43-1.53-11.87-5.3-14.76-2.06-1.57-6.28-1.53-6.59-3.29.69-9.28.57-18.97,2.04-28.15,5-31.11,27.41-56.52,62.44-46.15,7.65,2.27,26.3,15.01,26.3,23.66v55.54Z" fill="#fff"/>
  <path d="M299.94,636.21c-1.96,9.17-3.03,18.53-4.64,27.77-.09.54-1.13.28-1.32,1.44-.26,1.55-.11,11.68-.6,12.2-20.28-.11-41.95,14.28-44.06,35.49-8.75-2.44-14.64-7.94-13.2-17.46.74-4.9,4.98-13.42,5.9-19.75,1.34-9.24.26-19.24,1.67-28.56l56.25-11.13Z" fill="#fff"/>
  <path d="M198.04,650.02l-3.95,33.52c-11.09-1.99-23.57.33-33.43,5.68-10.62,5.76-16.19,15.77-17.85,27.18-12.49-7.2-2.84-23.35-2.63-34.51l-2.61-38.45c19.82,4.64,40.21,5.67,60.49,6.57Z" fill="#fff"/>
  <path d="M479,236.37c.04.16.93.21,1.04.7,1.5,6.98,2.28,14.24,3.98,21.2-6.71-6.22-17.92-3.13-23.33,3.27-8.51-11.36-25.15-10.81-36.48-3.93-.37-2.26-.85-4.98-1.79-7.06-1.12-2.47-5.52-7.6-6.07-10.4-.76-3.85-.05-30.43,1.99-31.79l53.2,4.22c6.4,6.55,5.61,15.67,7.46,23.79ZM438.66,216.85c-3.1,1.73-14.17-5.41-15.12-2.28-1.14,3.78,17.41,10.42,15.12,2.28ZM470.12,214.98c-5.55-.73-9.57,4.6-15.68,3.19-1.74,8.09,15.65,1.29,16.16-.62.23-.86-.08-1.81-.48-2.58ZM429.27,221.56c-10.45,12.04,10.19,16.16,4.12.9l-4.12-.9ZM464.15,223.58l-3.98-.71c-9.19,12.72,9.55,16.13,3.98.71ZM441.95,223.43c-3.72-.53-2.21,3.31-3.07,5.8-1.31,3.77-5.37,9.28-5.41,13-.11,8.8,14.67,5.54,15.06,3.86.75-3.31-10.21.85-11.85-2.08-.74-7.51,6.82-12.76,5.28-20.59Z" fill="#fff"/>
  <path d="M363.28,582.78c.02.14,1.01.04,1.14,1.14.11.95.09,6.45-.15,6.84-7.71,2.72-19.73,1.47-27.3-1.76-9.43-4.03-11.88-11.45-23.57-12.59-4.71-.46-9.97,1.21-14.12-1.65-7.47-9.47,21.68-6.73,22.99-7.25.55-.22,1.81-1.33.68-1.97-7.07-2.27-14.54-.29-21.7.01,1.87-4.05,24.61-9.37,24.98-11.19.69-3.4-28.07-5.27-24.04-13.46.64-1.3,5.76-2.64,7.23-2.58,8.19.34,45.39,19.6,49.71,26.54,3.89,6.24,3.33,11.13,4.14,17.91Z" fill="#fff"/>
  <path d="M498.49,207.64c-26.41,3.57-53.37,1.85-79.56-2.3,13.22-37.66,69.16-37.18,79.56,2.3Z" fill="#fff"/>
  <path d="M418.27,446.26l.67,4.59c-5.64.78-11.48,2.41-16.69,4.69-20.16,8.82-28.92,27.25-36.56,46.58-3.95-6.39-4.11-8.78-2.7-16.13.19-.98,1.23-.96,1.32-1.46,2.83-15.54-3.15-15.38-4.91-27.07-2.33-15.43,7.56-24.17,10.89-38.16,10.13,17.29,28.11,26.27,47.98,26.96Z" fill="#fff"/>
  <path d="M224.61,712.18c5.01,8.88,1.3,10.86-7.5,13.42.6-6.59-.61-12-6.91-15.1l-.88,2.17c2.66,3.23,6.44,6.56,5.69,11.15-.54,3.29-9.93,6.76-10.95,3.98,1.61-4.3-2.82-15.45-7.66-15.35-3.57.08,2.66,5.55,3.25,6.62,4.94,9.1-2.99,13.95-11.36,11.03.71-4.39-.94-15.35-6.36-16.32-4.46-.8,2.62,5.82,3.19,7.99.39,1.51,1.11,6.59-.17,7.48-8.37,1.27-16.89-1.22-24.4-4.76,1.23-19.25,21.01-24.09,37.18-24.16,11.68-.05,20.78.98,26.9,11.83Z" fill="#fff"/>
  <path d="M255.89,478.46c-1.08,3.79-.36,15.79-2.66,18.03-3.45,3.36-28.3,7.98-33.84,8.24-10.14.48-18.82-5.37-29-6.48-5.84-.64-18.3,1-22.78-.23-2.94-.81-10.39-9.36-14.28-10.7,34.23-.1,69.95,3.57,102.56-8.87Z" fill="#fff"/>
  <path d="M571.12,706.9c1.96,3.37,1.18,5.82-2.91,7.23-8.82,3.04-33.26-1.92-43.76-2.97-2.64-.26-6.2.46-8.55,0-2.83-.57-6.85-10.72-9.5-12.83,10.62-4.45,21.72-9.9,27.96-20.08,1.31.62,2.67,1.25,3.9,2.02,4.17,2.64,31.29,23.91,32.87,26.63Z" fill="#fff"/>
  <path d="M328.51,708.88c.11.22.87.31.99.77.75,2.82-5.96,6.8-6.55,6.09.73-5.62-1.47-11.99-7.53-13.13-2.82,2.17,2.35,4.06,3.49,5.67,4.41,6.25-.3,13.4-7.79,12.06,2.05-6.7.56-16.82-7.89-17.08-.34,3.43,3.84,3.73,5.11,6.39,3.51,7.37-2,15.81-9.65,12.25,2.17-7.45-1.25-14.62-8.95-16.43l-1.62,1.4c0,.59,7.37,4.46,8.21,8.19,3.47,15.47-19.42,6.03-27.29,5.28,2.08-11.36,9.81-18.97,20.15-23.56,17.6-7.82,30.81-5.96,39.33,12.1Z" fill="#fff"/>
  <path d="M240.76,647.39l-1.32,24.97c-14.12,1.68-27.64,7.58-42.07,6.58l3.45-28.76,39.94-2.79Z" fill="#fff"/>
  <path d="M519.53,580.99l2.98,13.79c-3.23,3.58-7.77,4.85-12.18,6.25-21.63,6.9-46.09,5.11-68.37,2.96-.34-2,3.39-1.78,5.05-2.5,3.78-1.66,8.71-4.07,12.26-6.15,1.59-.93,4.93-4.65,6.17-5.01,3.85-1.11,11.16.68,15.67.54,13.41-.4,26.19-4.97,38.43-9.88Z" fill="#fff"/>
  <path d="M330.51,285.21c1.43.29,4.16,4.65,3.61,5.26-12.5-2.34-28.46,6.9-18.3,20.61,1.13,1.52,3.11,1.83,3.19,3.71-14.86.97-14.59,17.66-3.29,24.31-7.39,2.2-11.41,10.64-10.52,17.76-12.85-2.03-5.14-6.73-5.24-14.75-.08-6.59-4.35-13.09-3.94-20.39s5.77-15.08,5.89-22.37c.08-4.77-2-9.66-3.27-14.13,9.15,1.29,23.37-1.72,31.89,0Z" fill="#fff"/>
  <path d="M395.1,555.85c-1.02.88-15.34,1.96-17.92,2.13-3.98.27-16.47,1.26-19.57.53-.79-.19-13.52-7.69-14.01-8.34-1.32-1.77-.94-4-1.58-5.97,11.22.71,16.26-3.2,19.11-13.78l.89-.02c7.45,3.08,14.63,6.87,22.38,9.22,2.04.62,8.03,1.02,8.92,1.6,2.07,1.35,4.99,11.89,1.79,14.63Z" fill="#fff"/>
  <path d="M499.14,210.28c.18,4.96,2.68,11.22,2.56,16.04s-2.62,12.85-3.2,18.48c-.81,7.8-.73,15.82-1.32,23.65-.53,2.52-5.08,1.72-7.23,2.3-1.15-9.38-4.34-18.26-6.38-27.48-2.34-10.59-1.5-22.19-8.74-31.02l24.32-1.98Z" fill="#fff"/>
  <path d="M207.23,698.65c-18.78-3.11-46.95.97-49.3,24.32-10.65-2.42-13.85-3.98-10.17-15.1,4.9-14.81,22.91-22.2,37.43-22.39,10.34-.14,17.46,3.8,22.05,13.17Z" fill="#fff"/>
  <path d="M306.51,688.8c-5.12,1.73-10.67,2.38-15.76,4.27-12.35,4.6-21.95,13.33-24.65,26.58l-14.09-4.62c-.8-17.96,23.63-36.63,40.31-34.71,7.13.82,8.37,6.21,14.2,8.47Z" fill="#fff"/>
  <path d="M51.72,630.01c.6.97,1.69,1.12,1.02,3.58,3.27.11,2.52-3.2,6.28-3.9,4.69-.87,8.73.17,8.89,5.54.21,7.09-7.68,7.92-7.29,9.85,5.4,1.52,11.96,8.14,5.6,12.84s-10.55-3.33-12.37-3.19c-3.47.27-2.65,9.86-10.5,8.31-4.38-.87-5.01-4.74-4.27-8.63.38-2.02,2.33-1.44,1.82-3.73-15.69,1.76-18.89-13.79-1.32-12.5-7.36-12.53,4.19-21.12,12.14-8.17ZM47.3,635.71c-7.99,1.66-7.76,14.3.98,15.85,12.51,2.22,13.95-18.96-.98-15.85Z" fill="#fff"/>
  <path d="M228.27,723.63c1.61,12.91-19.8,15.77-29.26,16.42-18.46,1.26-40.07-2.52-55.89-12.45-6.26-3.93-9.46-8.73-8.85-16.45,5.99,9.77,22.03,15.76,32.87,18.73,6.49,1.78,21.58,4.27,27.94,3.61,3.09-.32,4.86-2.35,6.63-2.63,7.91-1.23,11.9-.88,20.33-3.94,2.16-.78,4.29-2.07,6.24-3.29Z" fill="#fff"/>
  <path d="M234.84,705.89c2.58,5.84,11.84,9.84,17.77,12.14,16.72,6.5,34.34,10.11,52.08,6.74,1.96-.37,3.78-1.99,4.76-2.14,1.53-.23,4,.6,6.43.18,4.18-.73,4.11-3.05,5.55-3.82,1.8-.96,4.74-.8,6.46-2.58,3.58,2.26-1.87,8.35-4.34,10.13-16.93,12.23-76.36,5.61-88.2-11.64-1.16-1.69-3.71-8.68-.53-9.01Z" fill="#fff"/>
  <path d="M48.13,694.05c-11.71-.1-25.47-11.19-23.69-23.39,12.54.31,22.94,10.97,23.69,23.39Z" fill="#fff"/>
  <path d="M71.8,673.02c-.16,11.74-9.92,21.37-21.4,20.39,1.4-10.67,9.46-21.07,21.4-20.39Z" fill="#fff"/>
  <path d="M260.29,479.32c1.67,2.1,6.3,16.12,7.98,19.95,1.08,2.47,2.33,5.4,4.05,7.44l-15.71-9.64,1.91-18.61c.07-.07,1.6.65,1.76.86Z" fill="#fff"/>
  <path d="M363.05,594.15l-.98,10.51c-2.71-2.55-5.02-5.96-4.94-9.85l5.91-.66Z" fill="#fff"/>
  <path d="M155.57,68.05c.06.18.82.28.97.78.59,1.9.65,4.68.73,6.7,15.77-10.54,36.02-2.77,40.71,15.46,7.72-1.1,18.62.58,19.63,10.03.89,8.32-8.64,11.44-15.29,12.01-51.43,4.39-109.06-3.37-161.13,0-22.62-2.13-17.21-27.21,1.41-28.87,4.56-.41,6.68,1.43,10.81,1.63,2.01-20.2,24.99-24.63,39.41-13.54,2.25-23.88,27.65-35.59,48.45-23.79,8.71,4.94,11.17,10.53,14.28,19.59ZM153.99,80.79c1.6-20.47-13.52-36.59-34.44-34.11-8.84,1.05-18.39,9.02-22.05,16.88-2.03,4.37-2.01,9.49-3.68,13.93-7.81-7.73-17.43-11.08-27.92-6.23-10.81,5-8.31,17.19-10.52,18.45-3.45-.29-6.82-2.79-10.29-2.97-16.14-.84-22.84,20.92-4.51,23.62,51.86-2.83,107.74,3.76,159.14.03,5.2-.38,17-2.59,15.15-9.96-.05-.21-2.2-3.39-2.35-3.54-4.81-4.66-11.07-2.82-17.13-2.58-2.06-17.65-21.43-26.65-36.37-16.72-1.95,1.3-1.92,3.93-5.02,3.19Z"/>
  <path d="M352.95,83c.89,1.49,1.54,3.91,1.56,5.68,12.4-9.31,28.35-1.59,26.3,14.46,15.68-4.43,29.8,15.62,6.92,17.77-31.56,2.97-69.03-1.52-100.98-.96-18.37-5.19-13.41-23.14,1.36-29.62,10.02-4.39,20.27-3.51,30.23.33,1.88-17.73,25.39-23.04,34.61-7.66ZM351.22,93.28c.52-23.57-30.53-20.68-30.92,1.29-4.89-.14-8.25-3.35-13.47-3.91-9.66-1.04-24.78,2.05-28.25,12.48-4.37,13.12,9.87,14.5,19.07,15.1,24.35,1.58,63.3,1.92,87.46.04,3.71-.29,11.73-.94,11.29-6.18-.59-7.07-13.3-6.86-18.25-5.95-1.35-3.75.65-7.6-.92-11.6-1.08-2.75-6.8-7.03-9.93-7.22-7.65-.46-9.82,5.14-16.08,5.95Z"/>
  <path d="M342.02,797.91c-9.9,4.63-20.93.52-15.78-11.83-14.76-1.15-15.08-16.72,0-17.1-4.9-16.75,16.75-18.46,21.1-4.64,14.88-7.63,25.47,5.15,11.18,15.58,9.72,12.6-.85,21.84-13.86,14.71v18.4c5-7.76,12.98-11.71,22.24-9.76,2.4,5.08-3.62,12.03-7.56,14.9-10.04,7.31-28.01,7.41-37.39-1.17-5.06-4.63-14.13-18.43-.13-16.3,8.61,1.31,15.39,6.78,20.21,13.64v-16.43ZM359.54,775.98c2.71-2.71,3.77-8.94-.06-10.97-5.69-3.02-11.66,3.79-13.16,3.31-1.64-2.95-1.59-5.02-4.29-7.57-8.68-8.2-19.51,1.43-10.55,9.87-.12,2.21-13.06-1.51-13.17,6.57-.11,8.05,11.21,5.48,12.24,6.87,1.15,2.44-2.09,3.46-2.58,5.36-2.81,10.88,14.63,9.54,14.79.7,1.06-1.89,6.19,3.82,8.94,4.34,3.38.64,7.44-.29,8.04-4.17,1.02-6.55-6.85-9.83-6.54-11.11,1.92-1.46,4.5-1.36,6.34-3.2ZM340.31,820.04c-2.56-10.23-11.6-16.57-21.96-16.87.4,12.05,12.36,17.6,23.01,17.74l-1.05-.87ZM364.37,805.13c-9.65-.27-17.09,5.7-19.07,15.11,4.55-.04,9.32-1.72,12.8-4.61,1.57-1.31,7.82-8.9,6.27-10.5Z"/>
  <path d="M57.34,772.27c4.83-6.8,14.95-11.27,23.37-9.89,5.39.89,1.74,6.27-.08,9.18-10.26,16.34-40.91,16.36-47.26-3.25-4.91-15.14,15.57-5.03,20.68.02l.66-13.8c-10.9,6.65-23.28-3.41-11.88-13.38-11.07-8.73-1.38-18.89,10.17-13.6,3.86-13,20.17-13.06,17.51,2.66,13.9-3.18,15.78,16.6,1.31,15.78,3.18,10.82-4.72,16.02-14.46,11.83v14.46ZM56.55,749.41c-.93,8.2,12.14,9.82,13.25,2.75.62-3.96-2.45-5.31-1.64-8.84.44-.68,13.46,1.95,10.73-7.39-1.9-6.5-12.04-.16-12.33-2.77,2.41-5.26,2.93-14.02-5.47-12.02-5.97,1.42-3.5,10.46-5.42,11.02-3.61-1.74-12.47-7.2-13.99-.17-1.21,5.61,3.76,7.11,7.75,9.06-.55,1.82-3.58,1.37-5.24,2.63-9.03,6.88,5.98,16.73,10.83,4.94l1.52.78ZM51.7,771.33c-3.55-5.09-10.72-9.86-16.64-7.22,1.55,9.34,9.81,15.81,18.98,16.7.4-4.33.04-6.08-2.34-9.49ZM80.35,765.04c-10.67-1.07-20.85,4.96-23.01,15.76,9.31-.28,20.82-6.18,23.01-15.76Z"/>
  <path d="M557.66,776.21c15.25-6.55,19.7,4.83,6.9,13.14l-.88-2.17c13.16-12.9-3.13-13.3-9.64-3.75-3.07-.03,1.36-7.4,1.84-9.32,1.88-7.56-.53-18.05-8.75-8.75-5.98,6.77,3.72,10.49-.12,16.97-4.1,6.93-36.45,5.66-44.18,4.32-5.47-.95-10.51-2.9-12.92-8.14,3.49-8.82,9.57-15.17,18.74-18.1,12.22-3.9,23.88-1.63,33.56,6.63,1.6-.03,5.48-10.59,12.99-7.11,5.5,2.54,4.2,11.57,2.45,16.27ZM544.33,781.3c3.13-3.56-3.75-12.08-6.73-14.29-10.08-7.48-25.02-7.37-35.38-.54-3.59,2.37-11.7,10.28-7.36,14.35,5.57,5.23,44.67,5.93,49.47.48Z"/>
  <path d="M213.43,789.08c4.79,8.16,1.76,9.93-6.36,12.28-9.95,2.88-35.95,3.87-44.78-1.58-6.58-4.07-.94-14.28,3.49-18,13.76-11.56,38.46-8.33,47.64,7.31ZM182.12,777.73c-5.17.59-12.41,3.92-16,7.67-2.27,2.37-6.19,9.09-3.2,11.79,5.69,5.14,44.92,5.29,48.87-1.01,2.51-4.01-4.98-11.87-8.28-13.93-6-3.75-14.42-5.31-21.39-4.51Z"/>
  <path d="M559.38,575.36c2.68,1.75,3.42,6.65,4.21,9.58,2.96-4.16,14.68-8.19,14.5-.33-.06,2.78-4.48,12.76-7.95,10.53-2.32-1.49,9.25-10.13,4.18-12.07-6.6-2.52-9.84,7.1-11.73,11.06-1.15-.05-1.96-18.65-7.8-17.02-5.32,6.13,3.26,12.05,2.87,18.35-1.37,1.47-8.2-9.33-11.83-7.88-.09,1.36-.12,2.59.36,3.91.53,1.45,7.55,6.28,3.9,6.64-8.08-1.62-11.87-17.46.99-11.86-2.11-6.03.85-15.74,8.3-10.89Z"/>
  <path d="M474.01,787.56c6.35-.86,16.62.13,20.15,6.46,5.43,9.74-18.07,8.92-22.93,8.47-17.9-1.65-9.09-13.31,2.79-14.93ZM473.34,790.18c-3.4.58-8.22,3.43-9.55,6.75.41,4.45,26.91,3.5,28.08.58.81-2.01-4.49-6.01-6.34-6.7-2.96-1.1-9.04-1.17-12.2-.63Z"/>
  <path d="M131.63,767.67c-2.83,2.5-3.33-4.86-4.09-6.75-.95-2.36-3.33-5.48-3.91-7.28-.23-.7-.77-1.51.46-1.74,4.51-.85,8.23,15.16,7.54,15.77Z"/>
  <path d="M260.24,784.34c-.15-.32-4.95-5.5-2.7-6.17,4.38-1.07,9.3,13.89,6.56,14.47-1.64.34-3.07-6.59-3.86-8.3Z"/>
  <path d="M39.84,806.87c.92,1.48,5.46,9.1,1.41,9.92-1.98.41-2.3-5.48-2.95-7.4-.54-1.61-4.11-6.14-1.66-6.24,2.82-.12,2.19,2.11,3.2,3.72Z"/>
  <path d="M560.75,634.43c1.14,1.35,4.24,11.07,1.83,11.63-1.46.34-4.62-11.17-6.22-12.16.92-1.78,3.5-.52,4.38.53Z"/>
  <path d="M139.93,752.63l2.2.91c-1.99,1.44-5.07,13.54-6.23,13.46-2.85-.18,1.71-13.47,4.03-14.37Z"/>
  <path d="M274.95,779.51c1.19,1.4-5.96,10.92-6.24,13.13-4.47-2.75,4.72-14.92,6.24-13.13Z"/>
  <path d="M570.81,632.27c-.72,3.47-1.2,8-2.18,11.31-.26.87-.12,2.15-1.43,1.83-2.45-1.21.3-16.28,3.6-13.13Z"/>
  <path d="M567.52,485.68c-1.12.22-1.36-.25-1.8-1.14-.23-.46-3.22-9.35-3.3-9.86-.14-.84,0-1.98.85-2.14,2.3-.41,6.25,10.97,4.25,13.14Z"/>
  <path d="M576.72,472.55l-4.25,11.65-1.59-.57c-1.6-3.06,4.19-12.77,5.84-11.08Z"/>
  <path d="M430.11,767.67c.42.49-3.22,11.96-3.63,12.47-.74.91-1.23.73-2.28.67-.84-.88,2.48-13.48,5.91-13.14Z"/>
  <path d="M415.99,769.65c3.27-.89,5.63,11.56,3.92,11.82-1.51.08-1.39-1.27-1.74-2.19-.54-1.4-2.63-6.75-2.84-7.69-.19-.84-.38-1.66.66-1.94Z"/>
  <path d="M49.44,805.14c.52.57-1.87,10.87-3.6,10.51-2.51-.52,1.34-12.98,3.6-10.51Z"/>
  <path d="M427.48,636.21c.24,1.25-.6,1.64-1.5,2.11-4.23,2.22-13.77,3.8-19.06,5.92-11.05,4.44-25.08,13.31-33.38,21.84-2.69,2.76-4.62,8.41-8.51,8.9-1.37-1.45,7.01-11.35,8.51-12.85,13.11-13.06,35.62-23.81,53.94-25.93Z"/>
  <path d="M237.48,569.83c.2.22.06,2.45-.19,3.11-.72,1.89-9.96,14.1-11.88,16.37-2.07,2.44-18.79,18.92-20.45,18.65l-.39-3.01c8.65-7.1,16.74-14.87,23.59-23.74,1.08-1.4,7.59-13.34,9.33-11.37Z"/>
  <path d="M261.8,579.69c.6,3.34-2.19,4.72-3.17,6.33-6.54,10.78-14.52,22.57-25.43,29.15-2.65-2.98,4.03-5.85,5.95-7.84,3.15-3.26,8.1-8.75,10.71-12.29,1.83-2.48,8.08-13.99,8.99-14.68,1.03-.78,1.71-.79,2.94-.66Z"/>
  <path d="M192.66,223.59c4.07-.02,11.58.58,11.26,5.99-.38,6.35-9.31,4.39-13.81,5.31-5.22,1.08-16.56,8.35-19.21,1.48-3.29-8.53,16.08-12.76,21.76-12.79Z"/>
  <path d="M232.03,223.57c6.45-1.57,25.12,1.12,26.37,9.56,1.46,9.86-12.76,2.24-16.96,1.12-2.83-.75-7.87-.48-9.87-1.31-2.96-1.23-4.1-8.27.46-9.38Z"/>
  <path d="M189.96,247.23c9.94-2.99,10.54,16.8,2.42,17.6-8.09.8-7.85-15.97-2.42-17.6Z"/>
  <path d="M249.11,249.25c2.58,3.8,1.51,13.3-3.56,14.8-8.97,2.66-9.03-18.12-1.22-17.61.89.06,4.38,2.23,4.78,2.81Z"/>
  <path d="M235.3,304.74c-5.91,7.38-34.91,8.03-39.25-2.75l2.23-.93c9.13,8.72,27.59,8.68,36.9-.05,1.49.94,1.01,2.61.12,3.73Z"/>
  <path d="M132.57,269.83c1.24,2.81,3.14,6.61,1.73,9.83l-2.66.3c.23-3.03-.46-5.92-1.47-8.73-1.37-3.85-4.14-5.41-5.11-9.02,4.17-.42,6.12,4.49,7.51,7.62Z"/>
  <path d="M565.56,336.48c15.54-17.34,23.79,6.42,8.22,14.46l-.47-1.76c14.74-15.85-.88-24.34-8.75-4.83-1.29,0-1.02-6.72-1.41-8.44-1.52-6.84-7.75-14.41-15.24-9.83-1.05,3.98,1.07,7.36,3.48,10.41.73.93,6.07,4.58,3.95,5.25-13.87-2.15-14.41-26.66,2.74-17.86,5.17,2.65,7.13,6.86,7.46,12.59Z"/>
  <path d="M559.63,408.78l-2.55-.08c-1.29-7.47-6.13-11.94-12.25-15.69.17-2.54,3.24-.92,4.74-.13,5.08,2.64,9.76,10.11,10.05,15.91Z"/>
  <path d="M571.98,407.96c-.39.54-2.25,1.19-2.83.19-1.85-2.6,5.27-12.41,7.24-11.85,2.58.73-1.93,5.3-2.63,6.55-.84,1.5-1.49,4.72-1.77,5.11Z"/>
  <path d="M565.55,408.12c-2.2,2.77-5.43-14.78-.98-15.76,1.4.08.22,13.74.98,15.76Z"/>
  <path d="M17.67,405.71c1.19,1.31,6.19,14.22.88,11.86.54-3.57-4.54-9.5-4.62-12.4-.06-2.19,3.04-.23,3.74.54Z"/>
  <path d="M29.71,402.89c.29.37-2.44,5.65-2.8,6.7-.99,2.88-.31,8.32-3.76,7.74-.72-2.38,2.91-19.14,6.56-14.43Z"/>
  <path d="M35.32,515.27c3.44.75.13,4.38-.52,6.72-.46,1.65-1.05,8.13-2.77,7.74-2.84-.64.57-13.19,3.29-14.45Z"/>
  <path d="M27.75,530.38c-2.25,2.42-4.83-10.57-7.89-10.94l.99-2.84c4.04,3.39,7.3,8.29,6.9,13.78Z"/>
  <path d="M29.44,327.02c-.05.16-.81.22-1.01.74-.65,1.68,1.29,5.34-2.66,4.78-.92-.99,1.2-15.53,5.21-10.76.31.95-1.18,4.04-1.54,5.24Z"/>
  <path d="M21.18,333.85c-.51-.36-1.72-11.18-4.6-11.18l3.6-.66,2.97,10.21-1.97,1.64Z"/>
  <path d="M394.3,408.78c3.97,1.04,7.61,3.01,11.8,3.31,3.39.24,17.1-2.4,17.82-1.37,3.23,4.64-6.46,11.2-10.62,11.81-10.76,1.57-16.25-1.98-19.44-12-.3-.93-.86-.75.45-1.74ZM420.91,413.39c-6.88,1.21-14.01,2.36-20.84.11-2.07-.35-.11,2.82.45,3.5,4.4,5.35,18.1,3.82,20.39-3.62Z"/>
  <path d="M431.33,370.11c1.08,6.1,4.29-1.47,8.21,1.16,3.48,4.63,1.66,15.43-4.79,16.2-8.99,1.07-3.14-12.8-5.95-17.46l2.52.1Z"/>
  <path d="M384.64,362.23l1.77,3.18,5.26-2.56c8.02.25,4.13,19.63-4.78,15.86-4.24-1.8-2.29-7.57-2.83-10.97-.34-2.17-4.8-6.51.58-5.51Z"/>
  <path d="M406.46,370.01c.3-.19,1.54-.06,1.98.31,2.03,1.67-3.14,9.44-4.61,11.21-3.75,4.51-15.01,8.32-6.7,13.9,1.14.76,13.55,3.83,8.87,5.4-3.85,1.29-15.1-4.19-15.26-9.44.87-6.2,7.68-7.63,11.37-12.23,1.83-2.29,3.92-8.86,4.34-9.14Z"/>
  <path d="M430.77,354.88l.31-2.64c4.58-3.14,14.71.61,18.1,4.28,1.22,1.32,5.63,8.86,1.06,7.5-4.22-7.53-11.03-10.04-19.47-9.14Z"/>
  <path d="M390.5,343.88c2.56-.4,13.19-.12,12,4.1-3.75,1.61-7.86-1.26-12.68-.17-2.3.52-5.36,4.47-7.1,4.16-5.65-.99,4.1-7.51,7.78-8.08Z"/>
  <path d="M489.95,394.99c.64,2.81-3.27,2.76-5.22,4.31-1.49,1.2-6.46,7.91-7.92,6.85-2.34-4.2,10.67-13.37,13.14-11.17Z"/>
  <path d="M83.63,607.28c-.92,1.41-24.17-2.25-27.62-2.93-2.36-.47-18.41-3.88-18.38-5.93,2.32-2.69,8.33,1.07,11.94,1.86,10.81,2.35,21.88,4.3,32.98,4.5,1.08.2,1.47,1.93,1.09,2.51Z"/>
  <path d="M340.34,397.99c.79,2.02,3.28,5.07.68,7.51-2.17.52-4.9-11.47-5.57-13.8,1.9-1.93,4.45,5.17,4.89,6.29Z"/>
  <path d="M349.24,390.38c-1.09,1.91-1.72,12.24-3.6,11.82-2.71-.59.47-9.72.9-11.44l2.7-.38Z"/>
  <path d="M346.61,479.12c-.87,3.33-1.7,6.85-2.66,10.15-.24.81-.46,1.94-1.59,1.68-3.46-.8,2.45-13.93,4.26-11.82Z"/>
  <path d="M336.06,481.78c.52.32,2.65,7.26,2,8.52l-2.03-.4-2.47-6.63c-.22-1.36,1.76-1.94,2.5-1.49Z"/>
  <path d="M535.96,263.52c-21.81,1.72-6.64-13.32-3.6-23.66,2.07.2,1.66,1.98,1.49,3.44-.38,3.26-10.01,15.61-4.68,17.48,2.37.83,7.31-1.58,6.79,2.74Z"/>
  <path d="M549.36,249.45c-4.63-2.31-1.71-11.92,3.92-10.14,3.38,2.87,3.19,7.98-.39,10.6-1.76.83-2.13.24-3.53-.46Z"/>
  <path d="M520.65,238.03c5.42,1.5,4.02,12.04-1.42,11.07-4.72-1.87-3.36-11.18,1.42-11.07Z"/>
  <path d="M560.81,234.05c.33.54.13,1.24.11,1.82-2.42.34-14.91,3.71-15.77.9l.02-2.84c3.46.85,13.52-3.36,15.64.11Z"/>
  <path d="M516.07,231.43c.62-.19,11.55,1.78,12,2.19,1.23,1.12.63,2.64-.65,3.27-4.19,2.06-18.65-3.26-11.35-5.47Z"/>
  <path d="M524.79,272.71c-1.21-1.36,4.73-3.18,5.57-3.29,2.04-.26,13.01-.39,13.49,1.67.67,2.86-6.15.92-7.52.95-4.1.07-7.67,1.04-11.54.68Z"/>
  <path d="M343.98,615.83c.38.41-1.34,10.15-1.8,11.02s-.72,1.41-1.81.81c-3.48-1.92,1.39-14.25,3.61-11.83Z"/>
  <path d="M331.84,615.84c8.06,6.88,2.72,22.56-.69,1.98-.18-1.1-.44-1.15.69-1.98Z"/>
  <path d="M441.95,223.43c1.54,7.83-6.02,13.08-5.28,20.59,1.65,2.93,12.61-1.23,11.85,2.08-.38,1.68-15.16,4.94-15.06-3.86.04-3.72,4.1-9.23,5.41-13,.86-2.49-.65-6.33,3.07-5.8Z"/>
  <path d="M429.27,221.56l4.12.9c6.07,15.26-14.57,11.14-4.12-.9Z"/>
  <path d="M464.15,223.58c5.57,15.42-13.17,12.01-3.98-.71l3.98.71Z"/>
  <path d="M470.12,214.98c.4.77.71,1.71.48,2.58-.51,1.91-17.9,8.71-16.16.62,6.11,1.41,10.14-3.92,15.68-3.19Z"/>
  <path d="M438.66,216.85c2.29,8.15-16.25,1.51-15.12-2.28.94-3.14,12.01,4.01,15.12,2.28Z"/>
  <path d="M47.3,635.71c14.93-3.11,13.5,18.07.98,15.85-8.75-1.55-8.97-14.18-.98-15.85ZM45.72,647.17c4.5,4.84,13.65-1.85,8.36-7.37-4.84-5.06-13.72,1.61-8.36,7.37Z"/>
  <path d="M153.99,80.79c3.1.74,3.07-1.9,5.02-3.19,14.94-9.93,34.31-.93,36.37,16.72,6.06-.23,12.32-2.07,17.13,2.58.15.15,2.3,3.33,2.35,3.54,1.85,7.37-9.96,9.58-15.15,9.96-51.4,3.73-107.28-2.86-159.14-.03-18.33-2.7-11.63-24.47,4.51-23.62,3.47.18,6.84,2.68,10.29,2.97,2.22-1.25-.29-13.44,10.52-18.45,10.48-4.85,20.1-1.5,27.92,6.23,1.67-4.44,1.65-9.56,3.68-13.93,3.65-7.86,13.21-15.83,22.05-16.88,20.93-2.48,36.04,13.64,34.44,34.11Z" fill="#fff"/>
  <path d="M351.22,93.28c6.26-.81,8.43-6.41,16.08-5.95,3.13.19,8.84,4.47,9.93,7.22,1.57,4-.43,7.85.92,11.6,4.95-.91,17.66-1.12,18.25,5.95.44,5.24-7.58,5.89-11.29,6.18-24.16,1.88-63.11,1.54-87.46-.04-9.19-.6-23.44-1.98-19.07-15.1,3.47-10.44,18.59-13.52,28.25-12.48,5.22.56,8.58,3.77,13.47,3.91.39-21.98,31.44-24.86,30.92-1.29Z" fill="#fff"/>
  <path d="M359.54,775.98c-1.84,1.84-4.42,1.74-6.34,3.2-.31,1.28,7.56,4.56,6.54,11.11-.6,3.88-4.66,4.81-8.04,4.17-2.75-.52-7.88-6.23-8.94-4.34-.16,8.84-17.6,10.19-14.79-.7.49-1.9,3.73-2.91,2.58-5.36-1.03-1.39-12.35,1.18-12.24-6.87.11-8.08,13.05-4.36,13.17-6.57-8.97-8.44,1.86-18.07,10.55-9.87,2.69,2.54,2.65,4.62,4.29,7.57,1.49.48,7.47-6.33,13.16-3.31,3.84,2.04,2.78,8.26.06,10.97ZM348.37,783.89c8.25-10.36-9.39-19.6-14.16-9.23-4.38,9.54,8.57,16.25,14.16,9.23Z" fill="#fff"/>
  <path d="M340.31,820.04l1.05.87c-10.65-.14-22.61-5.69-23.01-17.74,10.36.31,19.4,6.64,21.96,16.87Z" fill="#fff"/>
  <path d="M364.37,805.13c1.56,1.6-4.69,9.19-6.27,10.5-3.48,2.9-8.25,4.57-12.8,4.61,1.98-9.41,9.42-15.39,19.07-15.11Z" fill="#fff"/>
  <path d="M56.55,749.41l-1.52-.78c-4.85,11.8-19.86,1.95-10.83-4.94,1.66-1.26,4.69-.81,5.24-2.63-3.99-1.95-8.96-3.45-7.75-9.06,1.51-7.03,10.38-1.57,13.99.17,1.92-.56-.55-9.6,5.42-11.02,8.39-2,7.87,6.76,5.47,12.02.3,2.61,10.43-3.73,12.33,2.77,2.73,9.34-10.3,6.7-10.73,7.39-.81,3.53,2.26,4.88,1.64,8.84-1.11,7.07-14.18,5.45-13.25-2.75ZM66.33,745.11c7.42-8.21-6.77-17.87-12.28-9.32s6.67,15.54,12.28,9.32Z" fill="#fff"/>
  <path d="M51.7,771.33c2.38,3.41,2.74,5.16,2.34,9.49-9.17-.89-17.43-7.36-18.98-16.7,5.92-2.64,13.09,2.13,16.64,7.22Z" fill="#fff"/>
  <path d="M80.35,765.04c-2.19,9.58-13.7,15.49-23.01,15.76,2.16-10.81,12.34-16.83,23.01-15.76Z" fill="#fff"/>
  <path d="M544.33,781.3c-4.8,5.46-43.89,4.75-49.47-.48-4.35-4.08,3.77-11.99,7.36-14.35,10.36-6.83,25.3-6.94,35.38.54,2.98,2.21,9.86,10.73,6.73,14.29Z" fill="#fff"/>
  <path d="M182.12,777.73c6.96-.79,15.38.76,21.39,4.51,3.3,2.06,10.79,9.92,8.28,13.93-3.94,6.3-43.17,6.15-48.87,1.01-2.99-2.7.93-9.42,3.2-11.79,3.59-3.75,10.83-7.08,16-7.67Z" fill="#fff"/>
  <path d="M473.34,790.18c3.16-.54,9.24-.47,12.2.63,1.85.69,7.14,4.69,6.34,6.7-1.17,2.92-27.67,3.87-28.08-.58,1.33-3.32,6.15-6.17,9.55-6.75Z" fill="#fff"/>
  <path d="M420.91,413.39c-2.29,7.44-15.99,8.97-20.39,3.62-.57-.69-2.52-3.86-.45-3.5,6.83,2.24,13.96,1.09,20.84-.11Z" fill="#fff"/>
  <path d="M45.72,647.17c-5.36-5.76,3.51-12.43,8.36-7.37,5.29,5.52-3.85,12.21-8.36,7.37Z" fill="#fff"/>
  <path d="M348.37,783.89c-5.59,7.02-18.54.31-14.16-9.23,4.77-10.37,22.41-1.13,14.16,9.23ZM339.89,773.09c-4.9,1.22-5.11,8.91-.69,10.21,11.13,3.26,10.5-12.66.69-10.21Z"/>
  <path d="M66.33,745.11c-5.61,6.22-17.76-.83-12.28-9.32s19.7,1.11,12.28,9.32ZM64.3,742.46c3.45-6.8-7.16-9.65-8.68-3.72-1.31,5.09,6.35,8.31,8.68,3.72Z"/>
  <path d="M339.89,773.09c9.81-2.45,10.44,13.47-.69,10.21-4.42-1.3-4.21-8.98.69-10.21Z" fill="#fff"/>
  <path d="M64.3,742.46c-2.33,4.59-9.99,1.38-8.68-3.72,1.52-5.93,12.13-3.08,8.68,3.72Z" fill="#fff"/>
</svg>