<?xml version="1.0" encoding="UTF-8"?>
<svg id="Camada_1" xmlns="http://www.w3.org/2000/svg" version="1.1" viewBox="0 0 595.28 841.89">
  <!-- Generator: Adobe Illustrator 29.0.0, SVG Export Plug-In . SVG Version: 2.1.0 Build 186)  -->
  <path d="M.14,841.29V-.06h595v841.34H.14ZM92.84,3.89H4.08v199.82c6.18-4.33,12.88-9.63,18.09-15.11,34.55-36.34,54.89-92.58,64.56-141.19,2.42-12.18,5.29-25.71,6.1-37.94.12-1.85-.05-3.73,0-5.58ZM188.17,3.89h-91.39c-1.25,8.99-1.47,18.22-2.71,27.2-8.03,58.37-37.52,136.39-85.08,173.92-2.98,2.35-6.03,1.92-4.88,6.56,12.66,3.44,26.55,2.67,38.74-2.29,6.8-2.77,5.88-6.23,9.58-11.48,5.52-7.83,13.13-14.6,17.06-23.68,5.57-12.89,3.8-26.83,8.29-39.56,10.07-28.6,34.93-48.48,64.88-54.24,2.99-.57,20.19-1.99,20.86-2.8,3.94-9.06,6.85-18.5,10.23-27.76,4.51-12.38,9.43-25.89,13.05-38.48.62-2.17.53-5.11,1.37-7.38ZM257.86,3.89h-66.4c-1.52,6.86-2.71,14.46-4.66,21.17-3.34,11.5-8.66,24.06-13.04,35.21-2.32,5.9-4.17,12.04-6.61,17.89,15.62-.39,31.57,2.71,45.82,9.08,2.52,1.13,10.53,6.37,12.26,6.09,8.92-13.55,14.53-27.72,20.21-42.91.17-.44,1.01-.5,1.35-1.43,5.24-14.29,8.64-30.08,11.08-45.09ZM299.94,356.53c-.42-3.58.31-7.83,0-11.5-8.37,4.93-18.21,7.18-27.62,9.52-1.73,1.27,1.46,7.97,2.28,9.57,6.51,12.62,26.88,23.51,40.33,26.73,1.69.4,7.7,1.82,8.89,1.43,2.18-2.41,2.98-5.52,5.05-8.13,7.64-9.62,19.05-17.28,26.85-27.71,11.02-14.74,11.13-33.78,21.52-48.81,21.07-30.47,64.81-43.03,98.16-24.63,5.47,3.02,10.64,9.96,14.34,11.95,2.27,1.22,7.1,1.64,9.9,2.59,2.24.76,9.62,4.49,10.91,4.06l.97-1.05c3.39-9.47,6.21-19.33,10.25-28.55,2.89-6.6,6.95-14.49,10.44-21.09,1.54-2.91,7.65-10.84,7.65-13.34,0-1.27-1.68-3.72-1.92-5.92-.34-3.03-.09-7.36-.03-10.54.04-2.11,1.62-4.76.03-6.55-.83-.94-8.59-3.63-10.54-4.57-74.6-36.03-124.26-103.17-149.98-180.05-2.84-8.5-4.65-17.37-7.22-25.95l-108.33-.02c-1.27,4.83-1.45,9.91-2.64,14.76-5.81,23.63-14.5,46.44-26.25,67.74-1.64,2.97-3.32,6.05-4.69,9.15.06,1.57,6.09,5.36,7.57,6.85,12.44,12.54,18.53,31.35,18.71,48.94.25,23.93-6.56,30.39,5.27,53.9,5.97,11.86,10.22,19.89,5.93,33.61-1.89,6.04-8.47,15.2-9.07,20.51-.95,8.38,3.59,11.88,4.35,19.63.38,3.87-.04,12.12-1.91,15.5-.41.74-1.39.87-1.84,1.59-1.11,1.77-4.34,6.08-3.94,7.63l6.79,12.99c6.74-10.39,16.34-20.47,29.13-22.8,9.99-1.82,12.96.15,6.6,9.25l-20.92,30.64c4.64-.97,35.85-13.21,37.72-11.8,2.03,1.53.63,5.02,1.22,7.37.28,1.1,1.92,3.01,2.5,4.73,2.75,8.1-.61,15.79,4.94,23.33,1.21,1.65,4.91,3.21,4.91,4.97,0,2.01-9.39,8.25-11.67,8.72-8.48,1.75-13.79-7.42-14.65-14.64ZM449.84,3.89h-75.61c.7,4.44,1.83,9.89,3.18,14.22,22.22,70.96,62.76,136.16,127.71,176.02,17.93,11,37.61,22.26,59.48,20.14l8.84-1.34c-1.42-.29-2.88-.72-4.15-1.44-61.93-34.89-99.68-129.59-116.38-195.21-.75-2.94-.9-7.2-1.8-9.9-.19-.58-1.92-.89-1.26-2.48ZM547.14,3.89h-92.7c1.99,10.63,4.28,21.3,7.3,31.68,16.66,57.3,51.56,137.45,104.53,170.38,1.87,1.16,12.89,7.28,14.15,7.42,2.82.3,7.07-1.89,10.08-1.8v-41.67c-21.49-43.02-35.77-91.45-41.31-139.47-1.01-8.77-1.26-17.74-2.06-26.54ZM590.54,3.89h-40.76c2.14,20.23,3.72,40.68,7.94,60.63,6.59,31.17,16.52,62.57,30.08,91.65.68,1.45,1.55,3.85,2.75,4.81V3.89ZM245.63,124.59c-28.75-63.27-146.27-55.58-164.32,13.37-2.19,8.38-2.73,16.3-4.42,24.5-4.06,19.7-13.22,25.07-23.51,39.77-1.84,2.63-5.5,9.51-6.38,12.51-4.43,15.16,7.2,20.15,6.41,32.71-.7,11.09-12.55,18.88-13.77,28.29s-.16,14.83,5.88,21.62c1.23,1.38,7.61,7.96,9.16,6.89,9.2-24.25,32.25-40.4,57.07-45.82,3.96-.86,8.63-.93,12.66-1.81,1.78-.87.91-2.78,1.36-3.77.28-.61,1.06-.61,1.21-1.02.43-1.17,1.82-5.17,1.29-5.98-3.45-1.27-6.62-4.88-9.14-7.62-8.69-9.42-13.98-21.65-14.44-34.53-15.65.78-21.51-4.33-25.7-18.55-.15-.52-1.12-.52-1.23-.98-.92-3.94,1.57-11.16,3.34-14.9,4.1-8.65,15.9-13.51,24.47-8.19,1.61,1,5.95,6.59,6.62,6.43,6.97-4.78,11.22-12.95,12.25-21.3-3.1.55-5.7-4.28-2.94-4.92.58-.14,9.4,3.16,11.43,3.6,23.77,5.17,55.28.14,71.67-19.1,1.74-2.05,5.3-9.06,7.61-8.84s3.19,6.75,4.13,8.98c3.15,7.46,10.36,16.77,17.73,20.4,2.84,1.4,5.96,1.83,8.75,3.25,1.67,2.67,1.46,14.68,1.28,18.33-1.46,29.88-8.1,68.62-35.97,84.98-6.4,3.76-11.23,4.66-17.96,7.03-.63.22-1.51.07-1.32.96,17.09,1.69,34.34,7.92,47.02,19.71,5.89,5.48,10.54,13.22,16.08,19.08,4.3-7.64,6.89-13.56,5.07-22.48-1.57-7.73-4.41-11.02-2.92-19.75,1.39-8.15,5.74-11.67,8.03-18.26,7.59-21.85-8.56-30.15-11.97-49.79-2.53-14.57,2.33-28.84,1.12-43.85-.6-7.53-2.69-14.47-5.64-20.96ZM211.83,123.52c-2.41-.56-2.68,2.21-4.26,3.95-9.4,10.36-22.54,18.02-36.35,20.84-13.92,2.84-28.93,1.6-42.87-.46-.14,1.84-.44,4.05-1.14,5.74-1.58,3.85-6.34,12.11-9.63,15.04-9.56,8.53-7.41-.74-13.47-4.14-6.55-3.68-15.17-1.51-19.05,4.82-6.07,9.92-3,26.52,9.09,30.11,4.51,1.34,7.98.88,12.53.6,1.54,4.85,1.56,9.94,2.91,14.85,10.37,37.81,65.84,54.54,97.84,34.71,24.26-15.04,30.67-48.65,32.67-75.14.58-7.7.91-14.97,0-22.67-13.63-2-24.88-15.26-28.28-28.26ZM44.84,212.26l-7.88,2.62c.79.27,9.88-.83,7.88-2.62ZM4.08,214.88v21.69c14.03,3.46,29.34,4.78,43.41.97-2.41-6.68-5.67-12.58-4.61-20.03-12.93,1.01-26.34,1.5-38.79-2.63ZM590.54,236.57v-21.69c-15.69,3.48-32.29,3.41-48.21,1.26-.42.11-1.1,1.57-1.1,1.7v15.12c0,.24,1.26,2,1.63,2.32,2.29,1.95,16.19,3.8,19.75,3.92,9.18.32,18.84-1.68,27.94-2.62ZM590.54,377.89v-138.03l-8.58.95c-5.91,25.63-8.37,52.04-10.47,78.26-.19,2.35.32,5.08.04,7.27-.16,1.25-1.26.64-1.42,1.89-.42,3.35.39,26.32-.61,27.32-1.58.19-2.33-.02-2.63-1.64-.06-10.95.07-21.93.66-32.86,1-18.25,3.31-36.07,5.99-53.83,1.12-7.43,4.17-18.18,4.5-25.09.1-2.06-1.19-.29-1.62-.29h-11.83c-2.69,4.07-3.88,9.41-5.65,13.94-.18.46-1.01.51-1.35,1.44-3.36,9.18-5.64,19.32-7.93,28.85-.82,2.07-4.59.91-3.81-1.15l14.47-43.08c-3.29-.58-6.67-.62-9.96-1.07-1.99-.27-6.73-2.22-8.12-.92-7.2,12.51-12.99,25.33-18.55,38.63-.29.68-1.23.8-1.46,1.34-1.31,3.18-8.36,22.17-7.85,24,12.75,9.36,22.37,18.91,28.96,33.54,2.31,5.14,4.86,11.76,5.72,17.28.21,1.34-.08,7.38.69,7.83,14.72,1.68,28.37,7.71,40.81,15.43ZM4.08,239.86v250.43l1.33-10.72c7.32-59.3,19.91-118.64,17.77-179.6-.53-15.11-1.73-33.7-5.92-47.44-.76-2.48-.17-9.47-3.14-10.55-2.54-.92-7.23-.84-10.04-2.12ZM45.51,256.94c2.4,1.65,5.24-9.83,5.24-11.5,0-6.66-2.12-4.4-5.76-3.79-2.65.44-5.33.98-8.04.84-1.5,1.4,8.2,12.06,8.56,14.45ZM41.83,257.33c-2.93-4.61-5.43-9.55-8.82-13.86l-13.15-.98c2.72,15.14,4.98,30.3,5.91,45.69,2.42,40.42-.2,82.96-8.53,121.71l-9.87,88.28c13.06-9.59,27.83-19.64,44.7-19.72-2.1-10.03-1.58-20.73,1.26-30.59,3.06-10.61,8.97-20.14,13.16-29.72.29-.67,2.64-9.82,2.67-10.42.12-2.74-3.21-3.59-4.59-5.19-7.68-8.88-11.9-22.9-13.73-34.25-.23-1.42.22-3.3-.16-4.44-.53-1.57-3.29.12-4.33-6.18-2.73-16.37,1.15-34.1,5.76-49.77-.2-1.7-3.07-2.52-4.29-3.63-3.25-2.96-7.44-6.5-9.22-10.5-4.72-10.67-2.42-24.62,5.33-33.2.07-1.63-1.63-2.49-2.1-3.23ZM185.35,264.02c.43-1.01.44-3.39-.76-3.61-17.92,3.32-37.01-2.69-52.63-11.35-1.48-.18-.75.23-.99.98-1.76,5.52-2.81,8.04-.35,13.52,6.86,15.3,34.05,29.75,48.66,17.7,2.86-2.36,6.58-9.12,6.34-12.81-.1-1.6-2.04-.96-1.98-2.52.04-1.3,1.67-1.78,1.72-1.9ZM125.97,262.61c-.43-.53-.36-1.7-.87-2.07l-1.03-.35c-11.34,1.3-22.62,4.1-32.77,9.34-26.1,13.46-41.14,41.8-42.53,70.54-.29,6.06.36,12.08.69,18.1.69.68,11.6-3.82,13.66-4.41,12.95-3.7,28.31-5.33,41.71-3.29,2.89.44,5.73,1.29,8.4,2.44.36-12.57-3.39-26.67-2-39.14.08-.73.21-2.09,1.03-2.27,2.78-.58,1.24,8.33,1.65,10.06,1.53,6.5,1.46,12.68,1.96,19.84.34,4.89,2.18,9.88,1.02,14.84-.72.98-4.03.15-3.66,2.58l51.95-8.86c20.05-10.98,35.36-21.29,58.01-8.72,1.47.82,2.08,2.46,3.78,2.46.14-10.1-.5-22.34-3.84-31.95-.32-.92-1.18-.96-1.36-1.43-.52-1.33-3.21-7.39-3.25-7.82-.18-2.06,2.62-1.57,3.7-1.09,1.87.84,5.71,14.65,6.29,17.41,1.71,8.09,2.47,16.62,2.41,24.88,3.22-.8,14.68-2.29,16.36-4.35,1.56-5.5,8.43-12.96,9.65-18,.65-2.69-2.61-9.17-3.98-11.85-5.91-11.61-17.71-25.96-28.66-33.13-10.28-6.73-22.49-10.79-34.8-11.56.05,3.4-.73,10.55-2.6,13.34-.48.72-6.1,6.42-6.94,7.04-13.68,10.08-37.72.15-47.28-11.89-2.68-3.37-4.09-7.47-6.7-10.71ZM295.33,297.05c-8.2-.45-14.98,3.14-21.04,8.2-9.77,8.16-25.24,34.31-28.85,46.22-.51,1.69-1.92,14.71-1.38,15.25h8.55c-.24-4.94,2.35-9.77,4.82-13.93,7.56-12.72,17.85-24.21,25.98-36.45,4.15-6.23,7.28-13.56,11.92-19.29ZM453.78,319.39c-12.1,3.73-30.26,2.63-39.66-6.68-1.63-1.62-3.19-5.65-4.71-5.83-.59-.07-7.79,1.94-8.86,2.34-11.75,4.45-15.5,13.06-21.71,22.81-7.99,12.57-14.54,25.15-21.59,38.41-2.1,3.94-7.09,8-3.45,12.91,1.57,2.12,13.01-.63,16.16-.85,4.1-.29,8.29.29,12.4-.09l.78-.54c1.35-12.4,15.97-11.43,24.63-16.12,2.57-1.39,10.15-8.8,10.85-8.74,4.69.42-2.04,7.47-3.67,8.69-6.44,4.82-14.07,5.54-21.16,8.43-10.52,4.28-9.8,13.83-.58,19.3,9.74,5.78,17.98,1.33,28.18,7.32s14.23,17.79,21.88,26.1c10.47,11.38,25.71,4.03,34.84-5.22,5.25-5.32,12.8-17.2,14.27-24.52,1.23-6.15-.21-12.91.91-19.47,1.38-8.09,5.65-12.64,10.45-18.79-22.99.34-48.43-14.74-49.97-39.45ZM310.45,325.31l-38.96,13.15-10.34,15.1c18.11-4.19,43.85-7,49.31-28.25ZM215.84,381.13c11.86-2.44.93-18.35-4.35-22.94-2.06-1.79-5.5-3.28-7.12-4.71-.74-.65-1.44-.94-1.07-2.2.72-2.5,5.97,1.13,7.52,1.67,4.61,1.62,7.67,2.39,12.13,4.97,2.2,1.27,10.4,8.84,9.15.1-1.75-12.13-21.53-19.75-32.33-18.82-14.83,1.28-23.03,11.34-35.37,14.6-13.66,3.61-29.35,4.85-43.41,7.22-9.48,1.6-18.99,3.55-28.35,5.6l-1.76-1.53c-.02-2.37,16.78-4.68,19.42-5.54.4-.58.54-3.37.2-3.9-2.01-3.12-28.99-1.99-33.68-1.31-2.93.42-23.09,5.54-23.47,6.88-.9,3.22,1.28,3.71,1.34,3.99,3.34,14.66,2.3,25.69,14.81,37.01,24.49,22.15,69.75-.53,94.74-12.46,4.31,1.29,6.21,3.22,11.13,2.62,4.08-.5,7.19-4.71,11.14-3.95,2.91.56,12.22,12.37,15.8,4.58,1.9-4.12-4.64-10.46-7.6-12.76-1.63-1.27-4.66-1.84-5.24-3.97-.05-4.18,8.47,2.59,9.89,3.92,4.25,3.98,5.03,10.82,12.03,8.74,5.93-1.76-1.89-12.81-4.13-15.33-1.75-1.97-3.79-3.84-5.96-5.34l1.01-2.85c2.55-.1,13.51,12.07,13.54,15.71ZM244.71,344.38c-.52-.39-11.35,2.15-12.86,2.6-.74.22-1.16-.43-.94.99,2.16,2.43,1.78,5.54,5.59,5.63,7.06.16,5.93-4.17,8.21-9.22ZM267.69,355.56l-9.34,1.95c-1.01.53-2.89,6.45-2.96,7.73-.26,4.21,3.39,4.4,5.75,7.08,10.59,12.05,2.16,30.82-11.15,36.79.01,1.05,16.31,8.69,18.6,9.66,3.32,1.41,13.89,5.94,16.72,6.32,6.14.81,5.8-6.36,8.71-9.88,2.21-2.68,7.53-6.37,10.74-7.85,7.07-3.24,16.34-3.55,18.85-12.37-10.39-.55-21.11-4.68-30.16-9.62-10.01-5.46-19.04-13.13-23.94-23.42-.9-1.89-1.15-4.38-1.82-6.39ZM241.42,356.2l-5.19.73-.07,3.87c3.4-.39,6.05-.38,5.26-4.6ZM223.02,361.47c-1.79.77-5.77-4-6.57-3.29l3.95,6.56c.47-.58,3.32-2.56,2.62-3.28ZM241.42,364.1c-3.53-.29-6.99.56-10.37,1.46l-1.47,7.07,10.5-5.6,1.33-2.94ZM226.96,366.06c-6.44,2.7,1.17,9.74-3.91,15.29-1.39,1.52-5.01,1.91-5.79,2.6-1.07.96-.42,4.72-3.47,6.73-2.54,1.67-6.85,1.21-7.76,1.77-.45.28-.86,3.38-4.05,4.82-7.45,3.37-11.08-2.82-16.94-5.49-3.84,1.25-7.49,3.8-11.69,3.86-3.55.05-6.3-2.22-9.68-2.51l-23.04,11.16-22.14,7.76c4.22.77,8.56,1.51,12.82,1.97,21.62,2.35,47.02,1.72,68.17-3.47,8.48-2.08,18.8-5.27,21.25-14.91,1.27-4.98.03-6.28,2.38-12.12s4.27-10.92,3.85-17.48ZM590.54,539.26v-45.02c-3.12,3.44-4.71,8.68-7.22,12.65-10.41,16.49-30.81,39.03-47.27,49.54-2.23,1.42-10.97,6.39-13.06,6.71-2.22.35-2.41-1.38-2.08-3.12,2.1-.7,4.49-1.39,6.44-2.43,28.07-15.06,50.88-44.73,63.13-73.6l-.08-101.03c-2.73-5.99-38.26-19.3-40.63-16.9.01,3.08.74,5.76.69,8.91-.21,13.15-6.55,25.03-9.71,37.62-1.04,4.14-2.15,8.3-2.16,12.63.32.37,6.34-4.29,7.3-4.85,3.74-2.19,19.22-10.07,22.61-9.61.98.87-.01,2.47-1.05,2.9-5.64,2.59-27.09,11.56-28.76,17.3-.98,3.36,6.26,16.78,6.96,21.7,2.61,18.07-3.79,20.84-12.12,33.58-10.86,16.62,1.58,22.16-.38,37.74-1.79,14.17-13.15,24.2-26.69,26.88l-3.4,30.48c.26,2.38,4.94,1.78,6.95,1.66,20.15-1.19,46.51-14.19,62.43-26.32,2.91-2.22,17.44-14.9,18.08-17.42ZM258.97,398.07c3.97-5.3,5.35-17.32.87-22.49-15.5-17.89-43.22,5.32-33.18,24.62,4.49,8.63,17.54,8.76,25.11,4.14,1.4-.86,6.32-5.11,7.2-6.27ZM223.61,400.31c-1.85-1.24-3.73,3.48-4.53,4.92l.97,19.35,30.59,14.83,29.57-12.22-15.35-6c-5.48-1.1-15.16-9.87-19.47-10.79-1.42-.3-4.16.52-6.26.36-6.25-.49-13.46-4.19-15.52-10.44ZM381.38,406.89c-2.27-.17-4.61.07-3.84,2.74.13.47.99.48,1.23.99,3.74,7.79,8.64,11.64,17.57,12.54,2.59.26,13.96.19,15.27-1.98.49-.81.18-2.75-.99-3.14-1.81-.59-6.03,1.28-8.42,1.27-7.96-.05-18.25-4.2-20.82-12.43ZM216.44,408.13c-30.24,12.16-64.17,12.19-96.15,7.72-3.27-.46-8.31-2.41-11.34-2.46-2.21-.03-5.56,1.2-7.9,1.3-9.95.43-19.64-.58-28.27-5.89l-2.32,6.84c16.1,8.18,33.81,13.44,51.72,16.06,15.62,2.29,32.84,3.32,48.56,2.05,15.64-1.27,31.02-4.4,45.7-9.85v-15.78ZM487.08,440.76c-.87,1.03-3.63,1.87-2.78,4.19,12.12,7.58,31.66-2.91,33.26-16.77,1.01-8.76-1.9-16.19-11.19-17.8-5.26,10.65-11.59,21.26-19.28,30.38ZM245.37,442.3c-8.2-6.09-18.31-9.62-27.34-14.45-37.42,12.06-78.58,12.9-116.78,3.09-11.05-2.84-21.65-7.07-32.07-11.64-2.43,6.38-6,11.67-8.41,18.22-15.52,42.31.81,67.54,39.97,83.98,2,.84,13.56,3.83,13.13,5.92-.27,1.36-2.36.89-3.31.71-15.16-2.88-30.69-13.19-42.4-22.73-1.03-.84-.47-2.4-2.56-1.98-3.58.72-8.98,9.66-10.89,12.66-.44.69-1.51.9-2.13,1.97-2.06,3.55-4.77,11.65-3.43,15.59.88,2.57,9.39,8.05,12.12,9.57,8.83,4.92,19.64,9.25,29.24,12.18,34.45-12.83,69.78-24.93,106.86-26.98-1.31-3.79-4.08-6.7-5.57-10.53-9.71-24.77,10.32-47.1,28.63-60.74,7.54-5.62,16.48-10.73,24.94-14.84ZM332.15,425.22c-8.6-.49-17.36-1.16-25.99-.69-24.36,1.32-66.4,21.44-85.73,36.55-41.12,32.14-38.12,66.7,13.12,83.42,7.88,2.57,22.39,4.39,28.72,7.43,2.65,1.27,8.12,7,11.82,9.22,4.67,2.8,8.52,3.64,13.14,5.93,7.09,3.51,12.21,8.98,18.68,12.87,2.75,1.65,7.7,5.16,10.26,2.15,1.71-2.01-1.22-5.93-2.54-7.9-4.09-6.08-10.64-10.23-16.76-14.14-1.98-1.26-5.58-1.09-2.48-4.71,1.21-.34,13.77,8.05,15.42,9.52,3.9,3.48,9.66,14.65,14.14,14.84,6.17.26,5.23-5.39,3.49-9.46-2.77-6.48-8.8-12.36-14.13-16.76-1.28-1.05-7.1-4.46-7.31-4.85-1.37-2.48.3-2.83,2.5-2.18,2.74.8,11.58,8.74,13.81,11.18,4.27,4.68,7.21,10.96,10.78,16.17,4.53,2.03,8.25-1.47,7.58-6.24-1.42-10.18-11.75-19.65-19.29-25.43-2.01-1.54-1.87-4.2,1.54-2.85,1.1.43,7.89,5.93,8.86,6.91,5.54,5.59,8.64,13.45,12.26,20.27,6.25.05,5.53-6.06,4.35-10.59-4.21-16.2-23.24-30.38-38.72-34.91-5.1-1.49-11-1.33-15.7-4.03-3.12-1.79-6.28-4.97-9.48-6.96-11.28-7.02-23.19-13.22-35.4-18.5-1.66-.72-12.17-4.18-12.32-4.87-.39-1.72.29-3.02,2.18-2.79,3.01.35,10.94,4.99,14.29,6.19h1.98c4.67-6.95,8.77-14.35,13.91-20.97,10.07-12.97,22.86-23.63,36.79-32.23l26.21-11.58ZM332.81,429.82c-1.38-1.34-19.76,7.18-22.59,8.64-16.86,8.69-29.73,21.56-41.47,36.08l-10.89,17.72c9.08,3.33,18.37,8.62,26.65,13.79,4.06,2.54,9.32,7.83,13.51,9.5,3.05,1.21,7.55,1.21,10.98,2.17,18.59,5.21,37.14,18.47,42.39,37.81,1.06,3.9,1.85,6.14-.14,10.06s-4.67,2.96-6.58,4.59c-1.01.87-.76,2.41-1.52,3.42-.9,1.17-5.22,3.8-6.8,3.91-1.15.08-2.74-.77-3.8-.5-.62.16-.39,1.66-1,2.37-1.15,1.33-5.27,3.47-7.02,3.57-1.53.09-5.83-1.9-5.31,1.03.16.89,10.79,11.49,12.29,13.13,7.32,10.16,15.69,19.78,19.48,31.92,23.52-6.06,44.29-16.88,62.38-32.91.95-.84,2.38-1.13,3.29-1.97,1.32-1.23,7.06-7.59,7.63-8.85.99-2.2-4.37-4.21-6.13-7.12-11.68-19.25,7.21-55.75,19.3-71.68,1.94-2.56,6.96-6.68,8.37-9.38,1.49-2.86,1.55-7.96,3.46-11.03,5.59-9,16.16-12.79,22.9-20.45,3.53-4.01,5.9-8.91,7.25-14.11l-8.18,8.57c-4.71,4.35-22.14,14.81-28.18,17.18-4.48,1.76-9.29,1.41-13.27,4.48-8.55,6.59-14.84,11.84-25.96,14.8-25.12,6.68-64.19-2.04-66.44-32.85-.24-3.26.95-11.12.55-13.02-.33-1.6-3.42-6.17-4.16-9.01-1.03-3.98-1.13-7.75-.97-11.85ZM341.35,455.46c-.09-.07-1.38-.25-1.3.32.13,1.96-.17,3.98-.02,5.94.74,9.71,6.21,18.96,14.26,24.52,20.58,14.2,53.13,11.49,71.23-5.48-4.67-.12-8.94-1.35-13.18-3.24-1.14-.51-2.34-2.07-3.01-2.21-.75-.15-4.95,1.55-6.55,1.77-24.45,3.31-42.72-4.59-60.71-20.04-.59-.51-.62-1.5-.71-1.57ZM53.65,484.12c-.52-.66-.26-1.93-1.31-2.3-14.51-.19-28.46,8.23-39.91,16.47-2.76,1.99-5.06,4.7-8.23,5.9l-.1,18.95c14.23,2.58,28.43,3.94,42.75,1.01l5.73-12.04,10.52-11.64c-1.2-2.56-3.22-4.65-4.56-7.12-1.73-3.21-2.75-6.51-4.89-9.24ZM498.1,515.02c-1.12-3.04-6.37-18.08-9.67-18.03-1.16.02-9.32,4.09-10.78,5.01-10.74,6.74-12.25,23.75-28.33,25.57-14.78,1.67-5.92-6.62-4.28-12.82,1.1-4.15,1.59-9.06,1.18-13.28-8.12,8.62-13.39,17.97-18.76,28.43-1.92,3.73-3.91,6.66-5.43,11.15-3.92,11.55-8.38,30.71,2.81,39.3l1.33-14.67c.11-.5,1.17-.4,1.29-.9.57-2.48.24-14.11,2.98-14.66l1.53,1.09-4.49,54.13c2.9-1.32,10.2.09,4.76,2.45-3.59,1.56-9.33,2.67-13.48,4.27-14.88,5.73-29.2,13.51-43.01,21.42-4.34,2.48-9.65,7.09-14,9.01-5.45,2.4-16.96,3.14-23.66,5.27-14.99,4.74-38.02,19.55-39.41,36.88-.26,3.22,2.65,9.2,5.56,6.89.19-.15,2.63-3.47,2.87-3.88,5.18-8.91,6.02-13.52,15.23-20.12,1.19-.85,7.99-5.26,7.17-1.38-.12.57-7.87,5.91-9.25,7.21-5.52,5.23-19.11,23.83-7.42,28.48,3.58-.15,3.59-4.46,4.89-6.56,4.15-6.7,9.31-13.9,15.78-18.55,1.73-1.24,7.92-6.22,7.53-1.68-7.61,5.88-16.21,12.41-19.73,21.68-1.14,3.01-3.3,7.41.37,9.46,7.88,4.39,10.26-7.11,13.47-11.4,2.49-3.33,11.74-10.73,15.58-12.03,1.52-.52,2.84-.66,4.43-.5l-.09,2.54c-8.13,2.67-19.06,9.82-21.16,18.61-1.73,7.23,6.23,5.32,10.3,3.06,3.27-1.82,5.52-5.27,8.37-7.41,10.05-7.57,25.62-9.82,33.84-18.1,1.47-1.47,2.59-4.45,4.42-5.44,3.46-1.87,21.36-3.36,27.03-4.53,15.98-3.31,39.6-9.95,52.36-19.96s18.78-26.67,22.82-41.6c7.85-29.05,15.71-65.35,5.05-94.38ZM4.08,526.44v122.91c5.13-4.27,8.27-10.36,12.52-15.45,12.03-14.42,25.64-27.52,39.03-40.48,3.47-3.35,6.37-7.94,10.9-9.81.58-1.6-1.02-1.05-1.28-1.78-1.88-5.2.21-10.68,3.58-14.65,4.17-4.91,10.43-8.27,16.77-9.2-.08-.95-.97-1.03-1.62-1.33-3.71-1.72-8.44-2.86-12.43-4.66-6.13-2.77-22.46-11.01-25.24-16.83-1.58-3.3-.09-4.25-.18-6.5-.11-2.67-6.58-.32-8.82-.23-11.2.48-22.18-.44-33.23-2ZM306.94,609.49c-14.69-17.59-40.53-39.82-59.28-53.46-11.77-8.57-21.68-9.69-33.86-16.1-5.11-2.69-8.79-6.03-13.52-8.86-38.42,3.25-76.42,14.13-112.01,28.6-9.83,4-22.05,7.94-19.43,21.33,5.16-4.96,15.3-11.39,22.53-11.65,10.43-.38,28.25,9.45,36.65,15.6,10.69,7.83,18.55,18.46,28.59,26.63,5.99,4.87,13.1,8.61,19.08,13.79,18.62,16.12,26.34,33.7,33.04,57.02.85,2.98,3.02,10.08,2.44,12.53-.06.24-2.39,1.31-1.3,3.74,2.69,2.84,45.01-16.45,50.65-19.36,22.21-11.45,43.11-25.49,63.8-39.43.82-.75.52-1.44.35-2.35-.36-1.89-3.71-8.42-4.86-10.34-2.95-4.93-9.05-13.11-12.87-17.68ZM590.54,588.88v-44.04c-14.87,15.06-33.51,27.47-53.57,34.85-10.88,4-22.91,7.2-34.56,6.17l-5.89,22.4c14.13.95,29.72-2.98,43.09-7.54,8.91-3.04,17.21-7.58,26.49-9.67,8.02-1.81,16.24-2.47,24.45-2.18ZM329.76,601.14c-2.88-3.53-9.45-12.98-13.4-14.53-1.71-.67-3.53-.15-5.28-.64-7.83-2.19-14.53-9.98-21.43-14.07-6.49-3.84-14.03-5.53-20.27-9.97-2.13-1.52-5.85-5.93-7.61-6.85-3.06-1.58-10.14-2.03-13.76-3,7.77,7.49,16.88,13.39,25.12,20.38,15.68,13.29,35,31.39,46.43,48.39,3.54,5.27,5.77,11.42,8.64,17.05,2.7-.7,19.31-6.51,19.67-8-3.41-9.62-9.38-18.79-15.7-26.89-.74-.95-1.9-1.26-2.39-1.87ZM93.27,655.7c9.68-8.76,19.01-18.03,29.51-26.04,8.98-6.86,18.4-13.1,28.57-18.1-7.03-6.07-12.53-13.7-19.7-19.73-12.36-10.38-33.69-23.8-49.78-16.23-17.04,8.02-53.94,49.18-66.58,64.9-3.82,4.74-7.03,9.99-11.02,14.6l-.2,22.73c2.46,1.28,4.75,2.64,6.91,4.41,2.81,2.3,7.78,6.86,10.23,9.5s7.42,11.57,8.57,12.47c1.01.78,8.43,4.48,9.35,4.22,2.4-.67,11.11-12.1,13.63-14.7,12.82-13.27,26.87-25.67,40.53-38.03ZM4.08,755.18v82.16h586.45v-245.83c-4.66.44-10.25.14-14.78.67-16.21,1.89-31.78,11.19-47.67,15.44-10.56,2.82-21.27,4.44-32.23,4.58-3.94,10.56-6.83,20.95-13.25,30.13-14.75,21.09-51.68,29.36-76,33.78-3.45.63-10.52.48-13.27,1.85-.99.49-5.69,5.93-7.25,7.21-7.94,6.46-15.09,7.15-23.47,11.38-7.64,3.85-18.02,16.84-26.68,15.09-2.2-.45-4.11-3.03-5.44-3.16-2.4-.24-4.19,2.35-9.32.83-3.13-.93-4-3.38-4.94-3.93-2.84-1.66-7.19-.1-10.93-5.18-1.45-1.97-1.22-5.27-1.42-5.48-.25-.25-3.57.44-6.25-2.62-5.28-6.03.04-16.79,3.75-22.58,10.75-16.76,31.8-24.31,50.37-28.51,2.64-.6,6.41-.44,8.66-1.21,2.58-.88,11.3-7.68,14.69-9.63,15.44-8.89,31.46-17.25,48.35-22.97l.42-16.34c-15.84,15.89-35.13,28.55-56.24,36.45-12.66,4.74-30.32,8.98-41.97,15.22-5.44,2.91-11.65,8.4-17.09,11.84-25.13,15.88-56.8,35.5-85.02,44.49-11.73,3.73-18.41,6.29-29.65-.33-3.05-1.8-5.44-4.68-8.85-5.66l-12.88,4.59c-23.07,17.44-45.09,35.95-67.82,53.8-4.47,3.51-15.16,9.67-18.41,13.15-1.96,2.09-3.9,6.59-5.96,9.18-5.13,6.46-11.86,15.69-21,15.79-15.49.16-37.32-22.03-49.71-31.15-.76-.56-4.58-3.72-5.19-3.03ZM197.64,660.94c-7.87-18.37-17.17-29.05-33.49-40.49-1.64-1.15-7.87-5.64-9.05-6.12-1.8-.73-8.05,2.86-10.12,4-31.28,17.23-76.4,62.65-100.76,89.88-1.16,1.3-3.01,1.25-2.66,2.91.97.08,1.8.46,2.58,1.04,14.42,10.64,26.89,23.34,35.09,39.24,1.8,3.5,2.6,7.63,4.74,11,1.6-1.51,3.5-3.32,5.27-4.59,27.48-19.57,53.21-41.33,79.91-62.08l35.18-14.15.17-1.5c-2.4-5.7-3.41-12.31-5.72-17.99-.38-.93-1.1-1.06-1.15-1.16ZM4.08,682.22v13.8l20.38,5.25c.92-.7-14.39-15.7-15.76-16.77-.68-.53-4.11-2.86-4.62-2.28ZM189.49,690.77c-.29,1.21.42,1.27,1.09,1.86,1.96,1.7,13.88,8.41,15.69,6.03,1.56-2.05,1.13-14.34-.67-14.45l-16.11,6.56ZM30.81,712.02c-3.06-4.58-6.6-7.09-11.75-8.95-2.73-.99-6.79-1.95-9.71-2.12,4.13,6.41,8.04,15.24,7.94,23.02-.03,2.38-2.03,8.2-1.07,9.55l12.53,9.83,9.52,6.57c3.69-11.44-.89-28.08-7.45-37.91ZM4.08,701.28v23.33l8.23,5.58c1.36.22.78-.18,1.05-.89,1.8-4.73-.19-13.19-2.03-17.85-1.3-3.29-4.04-8.63-7.25-10.17ZM66.29,737.02c-8.88-11.5-21.01-20.32-33.27-27.85,3.88,7.7,6.42,14.13,8.6,22.5.13.5,1.14.51,1.24.97.74,3.34,1.12,13.04-.03,16.12-.17.46-3.22,3.02-3.22,3.47,3.92,1.23,9.83,10.2,13.29,10.05,2.97-.13,19.83-8.14,21.24-10.38s-6.15-12.69-7.84-14.87ZM4.08,728.89v21.36l37.02,29.38c5.89,2.95,14.08,7.79,20.89,6.16,5.57-1.34,1.98-4.75-.16-7.82-10.09-14.48-31.39-29.76-45.57-40.54-1.23-.93-11.12-9.74-12.17-8.54ZM76.39,754.53c-6.73,4.01-13.43,8.2-21.03,10.52l13.48,17.08,12.52-16.37c-.68-4.34-3.65-7.33-4.97-11.23Z"/>
  <rect x=".14" y="841.29" width="595" height=".66" fill="#fff"/>
  <path d="M4.08,755.18c.61-.69,4.43,2.47,5.19,3.03,12.39,9.12,34.22,31.31,49.71,31.15,9.14-.1,15.86-9.33,21-15.79,2.06-2.59,4-7.09,5.96-9.18,3.25-3.48,13.94-9.64,18.41-13.15,22.73-17.85,44.76-36.35,67.82-53.8l12.88-4.59c3.41.98,5.79,3.87,8.85,5.66,11.24,6.62,17.93,4.06,29.65.33,28.23-8.98,59.9-28.61,85.02-44.49,5.44-3.43,11.65-8.92,17.09-11.84,11.66-6.24,29.31-10.48,41.97-15.22,21.11-7.9,40.4-20.55,56.24-36.45l-.42,16.34c-16.9,5.72-32.91,14.09-48.35,22.97-3.39,1.95-12.11,8.75-14.69,9.63-2.24.76-6.01.61-8.66,1.21-18.58,4.21-39.63,11.75-50.37,28.51-3.71,5.79-9.03,16.55-3.75,22.58,2.68,3.06,6,2.37,6.25,2.62.2.2-.03,3.51,1.42,5.48,3.74,5.08,8.09,3.52,10.93,5.18.94.55,1.81,3,4.94,3.93,5.14,1.52,6.92-1.07,9.32-.83,1.33.13,3.24,2.72,5.44,3.16,8.66,1.75,19.04-11.23,26.68-15.09,8.38-4.22,15.53-4.92,23.47-11.38,1.57-1.28,6.27-6.72,7.25-7.21,2.75-1.37,9.82-1.23,13.27-1.85,24.33-4.42,61.25-12.7,76-33.78,6.42-9.18,9.31-19.57,13.25-30.13,10.96-.15,21.68-1.76,32.23-4.58,15.89-4.25,31.46-13.55,47.67-15.44,4.53-.53,10.13-.23,14.78-.67v245.83H4.08v-82.16ZM552.41,654.61c-1.31-3.21,3.94-15.79,3-17.12-2.95-4.18-12.78,9.73-13.2,12.52-1.75-3.1-3.38-7.31-6.22-9.55-1.65-1.31-7.54-4.38-7.14-.16.43,4.5,3.4,10,2.5,14.97-2.48-1.73-4.28-4.57-7.34-5.47-11.03-3.24-2.27,6.63-1.8,11.52.69.91,4.3,7.77,4.42,2.99.03-1.4-2.22-8.71-2.95-10.2-.52-1.07-1.65-.41-1.52-1.46,3.94-1.45,9.09,10.27,11.78,7.8,1.02-2.44,2.09-4.9,1.35-8.01-.12-.5-1.17-.41-1.29-.91-.58-2.54-.19-6.54-1.32-9.41,3.46,1.67,5.5,5.75,6.88,9.22.58,1.46,1.31,8.35,3.29,7.87,2.33-2.71,1.75-7.56,3.02-10.66.16-.39,3.64-5.27,4.16-5.85.55-.63,0-1.66,1.71-1.23-1.39,2.77-3.31,18.1-.31,19.05,2.08.66,6.17-7.32,9.51-7.23l-1.96,10.52,1.92-.04,4.03-13.39c-2.74-3.53-11.77,5.09-12.53,4.22ZM522.41,709.58c-3.28-4.3-4.3-7.28-9.14-10.91-22.56-16.91-59.48-11.1-75.27,12.31-7.96,11.8-.71,18.05,11.04,20.36,13.85,2.73,27.64,2.14,41.39.99,2.35-.2,4.75.1,7.01-.8,2.75,3.52,3.65,5.49,8.27,6.91,10.43,3.19,32.56,4.27,41.01-3.72,7.84-7.42-5.01-17.24-11.43-19.94-3.97-1.67-10.43-1.99-12.87-5.2ZM162.15,742.41c-.92-.89-3.62-3.39-3.58-.05,0,.42,2.83,6.26,3.37,7.7.18.48,1.03.46,1.21,1.02.47,1.49-.18,8.41,2.99,7.39s-1.76-13.91-3.99-16.06ZM176.99,744.01c-5.32-3.01-7.2,13.2-6.57,13.8l2.69-.39c.9-1.57.26-3.61.61-5.06.13-.51,1.09-.53,1.24-.98.37-1.13,2.55-6.86,2.02-7.38ZM185.54,748.61c-4.45-1.9-7.6,9.29-4.92,9.85,1.39.1,1.44-1.21,1.83-2.1s3.39-7.46,3.09-7.75ZM430.11,756.5c-7.55-1.3-12.77,14.21-11.85,19.37.27,1.5,1.82,2.46,2.69,1.27,1.07-1.47.65-9.39,3.77-13.88,1.84-2.64,5.44-3.39,5.39-6.76ZM303.79,760.54c-10.65.18-17.58,11.48-19.64,20.93l-7.62-10.44c-3.39-2.86-7.33-6.67-12.14-5.7-1.8,1.28,2.44,11.63,3,14.17.47,2.16,1.06,4.33.98,6.57-1.68-2.84-15.91-11-17.03-6.17.56,1.54,1.11,3.16,1.8,4.65,1.59,3.42,4.16,6.81,5.96,9.96.32.55-.02,1.85.7,2.45.99.81,2.65.17,2.57-1.21-.05-.74-2.66-7.67-3.16-8.54-.16-.28-4.57-4.6-3.97-5.07,3.88.23,7.44,2.72,10.12,5.32,2.07,2,5.2,8.83,8.23,5.43-1.14-4.54-1.41-9.76-2.62-14.2-.15-.54-1.05-.46-1.21-1-.81-2.73-.78-6.09-2.68-8.7,8.77,1.96,11.46,10.73,14.52,17.88.19.44.98.51,1.19,1.04.47,1.2.5,2.97.73,4.29.47,1.02,2.79.59,3.19-.64.66-2.06.28-7.55,1.06-10.77,1.73-7.16,6.17-13.24,12.83-16.41-1.25,9.73-4.67,19.78-2.61,29.58,2.04,1.37,6.4-7.34,8.31-9.1,1.07-.99,7.69-5.54,8.78-4.69-2.73,5.09-5.42,10.48-5.26,16.43l2.53-.1c.96-3.73,1.62-7.33,3.26-10.87s4.79-5.07,4.73-8.75c-7.59-2.13-14.06,3.66-19.06,8.54.06-2.26-.16-4.56.07-6.82.31-2.96,4.39-16.83,2.45-18.06ZM406.17,765.3c1.03,1.81,2.51,3.77,3.23,5.67,1.24,3.31.21,6.41,2.64,8.52,3.64-3.03-1.91-15.85-4.71-16.97-2.11-.85-2.89.36-2,2.35.08.19.73.23.84.42ZM433.4,768.33c-.98-1.3-3.02-.13-3.94.98s-4.42,7.28-3.31,8.54c1.11.71,1.85,1.32,2.67.04.06-1.82,5.25-8.68,4.59-9.55ZM531.37,803.16c4.88,3.14,1.14-12.39.14-14.28-.61-1.14-.99-1.72-2.44-1.49-1.02.76-.93.87-.73,1.99.42,2.32,1.67,5.19,2.19,7.71.24,1.13.21,5.67.84,6.07ZM543.2,791.99c-.09-.09-2.11-.13-2.52.11-1.39.82-3.53,10.11-1.09,11.7,1-.95,4.07-11.39,3.61-11.81Z" fill="#fff"/>
  <path d="M299.94,356.53c.86,7.22,6.17,16.39,14.65,14.64,2.28-.47,11.67-6.71,11.67-8.72,0-1.76-3.7-3.32-4.91-4.97-5.55-7.54-2.18-15.23-4.94-23.33-.58-1.72-2.22-3.63-2.5-4.73-.59-2.35.81-5.84-1.22-7.37-1.87-1.41-33.08,10.83-37.72,11.8l20.92-30.64c6.37-9.1,3.4-11.07-6.6-9.25-12.79,2.33-22.38,12.41-29.13,22.8l-6.79-12.99c-.4-1.56,2.83-5.86,3.94-7.63.45-.72,1.43-.85,1.84-1.59,1.88-3.39,2.29-11.63,1.91-15.5-.76-7.75-5.3-11.25-4.35-19.63.6-5.31,7.18-14.47,9.07-20.51,4.29-13.72.04-21.75-5.93-33.61-11.83-23.51-5.03-29.97-5.27-53.9-.18-17.59-6.28-36.4-18.71-48.94-1.49-1.5-7.51-5.28-7.57-6.85,1.37-3.1,3.05-6.18,4.69-9.15,11.75-21.3,20.44-44.11,26.25-67.74,1.19-4.84,1.37-9.93,2.64-14.76l108.33.02c2.58,8.57,4.38,17.44,7.22,25.95,25.72,76.89,75.38,144.02,149.98,180.05,1.95.94,9.71,3.63,10.54,4.57,1.59,1.79.01,4.45-.03,6.55-.06,3.18-.31,7.51.03,10.54.24,2.19,1.92,4.64,1.92,5.92,0,2.5-6.11,10.42-7.65,13.34-3.48,6.6-7.54,14.49-10.44,21.09-4.04,9.22-6.85,19.08-10.25,28.55l-.97,1.05c-1.29.43-8.67-3.3-10.91-4.06-2.8-.95-7.63-1.37-9.9-2.59-3.7-2-8.87-8.93-14.34-11.95-33.35-18.4-77.09-5.84-98.16,24.63-10.39,15.03-10.5,34.07-21.52,48.81-7.8,10.43-19.21,18.1-26.85,27.71-2.08,2.61-2.87,5.72-5.05,8.13-1.2.39-7.2-1.03-8.89-1.43-13.45-3.22-33.82-14.11-40.33-26.73-.82-1.6-4.02-8.3-2.28-9.57,9.41-2.34,19.25-4.59,27.62-9.52.31,3.67-.42,7.92,0,11.5ZM329.77,325.06c-1.56-1.65-3.95-5.28-5.5-1.42,3.95,4.78,9.1,12.66,6.54,18.93-.26.65-1.84.16-1.28,1.79l2.88.72c4.14-6.49,2.37-14.73-2.63-20.02Z" fill="#fff"/>
  <path d="M306.94,609.49c3.82,4.57,9.92,12.75,12.87,17.68,1.15,1.92,4.5,8.44,4.86,10.34.17.9.47,1.6-.35,2.35-20.69,13.94-41.59,27.99-63.8,39.43-5.65,2.91-47.96,22.2-50.65,19.36-1.09-2.43,1.24-3.5,1.3-3.74.58-2.46-1.59-9.56-2.44-12.53-6.69-23.32-14.42-40.91-33.04-57.02-5.98-5.18-13.09-8.92-19.08-13.79-10.04-8.17-17.9-18.79-28.59-26.63-8.4-6.15-26.21-15.98-36.65-15.6-7.23.26-17.37,6.7-22.53,11.65-2.63-13.39,9.59-17.33,19.43-21.33,35.6-14.47,73.6-25.35,112.01-28.6,4.73,2.83,8.41,6.17,13.52,8.86,12.18,6.41,22.09,7.53,33.86,16.1,18.75,13.65,44.59,35.87,59.28,53.46ZM175.68,586.91c1.14,1.08,15.83-5.91,18.43-6.88,4-1.49,8.58-3.25,12.61-4.48,6.79-2.07,17.14-3.12,22.88-5.39,2.76-1.09,2.6-2.86-.33-3.02-6.67-.36-25.88,6.03-32.9,8.58-4.66,1.69-16.05,5.94-19.61,8.66-1.1.84-1.28,1.06-1.07,2.54Z" fill="#fff"/>
  <path d="M245.63,124.59c2.95,6.49,5.04,13.43,5.64,20.96,1.2,15.01-3.65,29.28-1.12,43.85,3.41,19.64,19.56,27.94,11.97,49.79-2.29,6.59-6.64,10.11-8.03,18.26-1.49,8.73,1.35,12.02,2.92,19.75,1.81,8.92-.78,14.84-5.07,22.48-5.54-5.86-10.19-13.6-16.08-19.08-12.68-11.79-29.93-18.02-47.02-19.71-.19-.89.68-.74,1.32-.96,6.73-2.38,11.56-3.28,17.96-7.03,27.87-16.36,34.51-55.1,35.97-84.98.18-3.65.38-15.66-1.28-18.33-2.78-1.42-5.91-1.85-8.75-3.25-7.37-3.63-14.58-12.94-17.73-20.4-.94-2.23-1.76-8.75-4.13-8.98s-5.86,6.79-7.61,8.84c-16.39,19.24-47.9,24.27-71.67,19.1-2.03-.44-10.85-3.74-11.43-3.6-2.76.64-.16,5.47,2.94,4.92-1.03,8.36-5.28,16.53-12.25,21.3-.67.16-5.01-5.43-6.62-6.43-8.57-5.32-20.36-.46-24.47,8.19-1.77,3.74-4.27,10.96-3.34,14.9.11.46,1.08.46,1.23.98,4.2,14.21,10.05,19.33,25.7,18.55.47,12.88,5.75,25.11,14.44,34.53,2.53,2.74,5.69,6.35,9.14,7.62.52.81-.87,4.81-1.29,5.98-.15.41-.93.41-1.21,1.02-.45,1,.42,2.9-1.36,3.77-4.02.87-8.7.94-12.66,1.81-24.82,5.42-47.86,21.56-57.07,45.82-1.55,1.07-7.93-5.51-9.16-6.89-6.03-6.79-7.07-12.36-5.88-21.62s13.07-17.2,13.77-28.29c.79-12.56-10.84-17.54-6.41-32.71.87-2.99,4.54-9.88,6.38-12.51,10.3-14.71,19.45-20.08,23.51-39.77,1.69-8.2,2.23-16.12,4.42-24.5,18.06-68.95,135.57-76.63,164.32-13.37Z" fill="#fff"/>
  <path d="M498.1,515.02c10.65,29.03,2.8,65.33-5.05,94.38-4.04,14.93-10.3,31.79-22.82,41.6s-36.38,16.65-52.36,19.96c-5.67,1.17-23.56,2.66-27.03,4.53-1.83.99-2.96,3.96-4.42,5.44-8.22,8.27-23.79,10.52-33.84,18.1-2.84,2.14-5.09,5.6-8.37,7.41-4.08,2.26-12.03,4.18-10.3-3.06,2.11-8.79,13.03-15.94,21.16-18.61l.09-2.54c-1.59-.16-2.91-.02-4.43.5-3.84,1.3-13.09,8.7-15.58,12.03-3.21,4.29-5.59,15.79-13.47,11.4-3.67-2.05-1.51-6.45-.37-9.46,3.52-9.27,12.13-15.81,19.73-21.68.39-4.55-5.8.43-7.53,1.68-6.46,4.64-11.63,11.85-15.78,18.55-1.3,2.1-1.31,6.41-4.89,6.56-11.69-4.64,1.9-23.25,7.42-28.48,1.38-1.31,9.13-6.64,9.25-7.21.82-3.88-5.99.53-7.17,1.38-9.22,6.6-10.05,11.21-15.23,20.12-.24.41-2.68,3.73-2.87,3.88-2.92,2.32-5.82-3.67-5.56-6.89,1.39-17.33,24.41-32.13,39.41-36.88,6.7-2.12,18.21-2.86,23.66-5.27,4.35-1.92,9.67-6.52,14-9.01,13.81-7.91,28.13-15.69,43.01-21.42,4.15-1.6,9.89-2.71,13.48-4.27,5.45-2.36-1.85-3.78-4.76-2.45l4.49-54.13-1.53-1.09c-2.74.56-2.42,12.19-2.98,14.66-.11.5-1.18.4-1.29.9l-1.33,14.67c-11.19-8.59-6.73-27.75-2.81-39.3,1.52-4.49,3.51-7.42,5.43-11.15,5.37-10.46,10.64-19.8,18.76-28.43.41,4.22-.09,9.12-1.18,13.28-1.64,6.21-10.49,14.5,4.28,12.82,16.08-1.82,17.59-18.83,28.33-25.57,1.46-.91,9.61-4.99,10.78-5.01,3.3-.04,8.55,14.99,9.67,18.03Z" fill="#fff"/>
  <path d="M245.37,442.3c-8.45,4.11-17.4,9.22-24.94,14.84-18.31,13.64-38.34,35.98-28.63,60.74,1.5,3.82,4.26,6.73,5.57,10.53-37.08,2.06-72.41,14.15-106.86,26.98-9.6-2.93-20.42-7.26-29.24-12.18-2.73-1.52-11.24-7-12.12-9.57-1.34-3.94,1.37-12.04,3.43-15.59.62-1.07,1.7-1.28,2.13-1.97,1.91-3,7.31-11.94,10.89-12.66,2.09-.42,1.52,1.14,2.56,1.98,11.71,9.53,27.24,19.85,42.4,22.73.95.18,3.04.65,3.31-.71.42-2.09-11.14-5.08-13.13-5.92-39.16-16.44-55.49-41.67-39.97-83.98,2.41-6.56,5.98-11.84,8.41-18.22,10.42,4.57,21.02,8.8,32.07,11.64,38.2,9.82,79.36,8.98,116.78-3.09,9.02,4.83,19.14,8.36,27.34,14.45ZM172.39,452.83c0,1.03-.3,2.18.65,2.96.4.33,7.73,2.96,9.05,3.44,3.82,1.38,13.6,4.98,17.11,5.3,2.53.23,2.84-2.57,1.48-3.51-.82-.57-12.78-3.18-15.12-3.94-2.2-.71-11.81-5.62-13.16-4.25Z" fill="#fff"/>
  <path d="M332.81,429.82c-.16,4.1-.06,7.86.97,11.85.73,2.84,3.82,7.41,4.16,9.01.39,1.9-.79,9.75-.55,13.02,2.25,30.81,41.32,39.53,66.44,32.85,11.12-2.95,17.41-8.21,25.96-14.8,3.98-3.07,8.79-2.72,13.27-4.48,6.04-2.37,23.46-12.84,28.18-17.18l8.18-8.57c-1.35,5.21-3.71,10.1-7.25,14.11-6.74,7.66-17.31,11.45-22.9,20.45-1.91,3.07-1.97,8.17-3.46,11.03-1.41,2.7-6.43,6.83-8.37,9.38-12.09,15.94-30.98,52.43-19.3,71.68,1.76,2.9,7.12,4.92,6.13,7.12-.57,1.26-6.31,7.63-7.63,8.85-.91.84-2.34,1.13-3.29,1.97-18.1,16.04-38.87,26.86-62.38,32.91-3.79-12.14-12.15-21.76-19.48-31.92-1.5-1.64-12.13-12.25-12.29-13.13-.52-2.92,3.78-.93,5.31-1.03,1.75-.11,5.87-2.25,7.02-3.57.61-.71.38-2.21,1-2.37,1.06-.27,2.65.58,3.8.5,1.58-.12,5.9-2.74,6.8-3.91.77-1,.51-2.55,1.52-3.42,1.91-1.63,4.55-.58,6.58-4.59s1.2-6.16.14-10.06c-5.25-19.34-23.8-32.6-42.39-37.81-3.43-.96-7.93-.96-10.98-2.17-4.19-1.67-9.46-6.96-13.51-9.5-8.27-5.17-17.57-10.46-26.65-13.79l10.89-17.72c11.74-14.52,24.61-27.38,41.47-36.08,2.83-1.46,21.21-9.98,22.59-8.64Z" fill="#fff"/>
  <path d="M547.14,3.89c.8,8.8,1.04,17.77,2.06,26.54,5.53,48.02,19.81,96.45,41.29,139.47v41.67c-3-.09-7.25,2.1-10.07,1.8-1.26-.13-12.28-6.26-14.15-7.42-52.97-32.92-87.87-113.07-104.53-170.38-3.02-10.38-5.31-21.05-7.3-31.68h92.7Z" fill="#fff"/>
  <path d="M125.97,262.61c2.61,3.24,4.03,7.34,6.7,10.71,9.56,12.03,33.6,21.96,47.28,11.89.84-.62,6.46-6.32,6.94-7.04,1.87-2.79,2.65-9.94,2.6-13.34,12.31.77,24.52,4.83,34.8,11.56,10.95,7.17,22.75,21.52,28.66,33.13,1.36,2.68,4.63,9.16,3.98,11.85-1.23,5.04-8.1,12.5-9.65,18-1.68,2.06-13.14,3.55-16.36,4.35.06-8.25-.69-16.78-2.41-24.88-.59-2.77-4.42-16.58-6.29-17.41-1.08-.48-3.88-.96-3.7,1.09.04.42,2.73,6.49,3.25,7.82.18.46,1.04.51,1.36,1.43,3.34,9.61,3.98,21.85,3.84,31.95-1.7,0-2.3-1.64-3.78-2.46-22.65-12.56-37.96-2.26-58.01,8.72l-51.95,8.86c-.38-2.44,2.94-1.6,3.66-2.58,1.16-4.97-.68-9.96-1.02-14.84-.5-7.16-.43-13.33-1.96-19.84-.41-1.73,1.13-10.64-1.65-10.06-.82.17-.95,1.54-1.03,2.27-1.4,12.47,2.36,26.57,2,39.14-2.67-1.16-5.51-2-8.4-2.44-13.39-2.04-28.75-.41-41.71,3.29-2.07.59-12.98,5.1-13.66,4.41-.33-6.02-.98-12.04-.69-18.1,1.39-28.74,16.43-57.08,42.53-70.54,10.15-5.24,21.43-8.03,32.77-9.34l1.03.35c.51.37.45,1.53.87,2.07Z" fill="#fff"/>
  <path d="M449.84,3.89c-.66,1.59,1.07,1.9,1.26,2.48.9,2.7,1.05,6.97,1.8,9.9,16.7,65.61,54.45,160.32,116.38,195.21,1.27.72,2.73,1.15,4.15,1.44l-8.84,1.34c-21.87,2.12-41.55-9.13-59.48-20.14-64.95-39.85-105.49-105.05-127.71-176.02-1.35-4.32-2.48-9.78-3.18-14.22h75.61Z" fill="#fff"/>
  <path d="M211.83,123.52c3.4,13,14.65,26.27,28.28,28.26.9,7.71.58,14.97,0,22.67-2,26.48-8.4,60.1-32.67,75.14-32,19.83-87.47,3.1-97.84-34.71-1.35-4.91-1.37-10-2.91-14.85-4.55.28-8.02.73-12.53-.6-12.09-3.59-15.16-20.18-9.09-30.11,3.87-6.33,12.5-8.51,19.05-4.82,6.06,3.4,3.91,12.68,13.47,4.14,3.28-2.93,8.04-11.19,9.63-15.04.7-1.7,1-3.91,1.14-5.74,13.94,2.06,28.95,3.31,42.87.46,13.81-2.82,26.95-10.48,36.35-20.84,1.58-1.74,1.85-4.51,4.26-3.95ZM166.39,160.9c1.35-.87.53-2.52-.75-3.35-3.85-2.5-11.58-.99-15.4,1.33-2.02,1.23-3.48,2.25-2.08,4.65,3.81.33,6.03-2.72,10.18-3.13,1.96-.19,7.52.85,8.06.5ZM231.56,166.9c1.79-8.15-17.47-11.43-18.36-6.16-.64,3.76,5.61.92,6.85.9,5.62-.08,6.78,5.01,11.51,5.26ZM162.99,191.03c2.29-2.9,3.54-11.29-.26-13.49-9.82-5.7-14.21,15.28-5.74,16.3,1.68.2,5.02-1.58,5.99-2.81ZM196.71,176.76c-5.58-.75-3.86,8.18-2.85,11.72,1.95,6.77,9.23,8.75,8.8,14.89s-9.43,5.39-13.85,4.6c-1.86,2.59,2.14,4.12,4.28,4.31,5.68.5,13.09-2.43,13.26-9,.21-7.92-10.04-11.82-10.34-19.61-.09-2.44.83-4.51.7-6.91ZM222.81,192.99c6.58-8-1.85-19.53-8.35-11.96-7.4,8.62,1.04,20.84,8.35,11.96ZM164.19,216.86c-4.1,1.22,3.5,8.4,4.96,9.48,6.99,5.18,18.89,6.49,26.9,3.32,1.84-.73,6.16-2.33,4.32-4.96-1.14-1.64-8.28,2.32-10.63,2.6-6.19.74-12.6-.24-17.84-3.71-2.16-1.43-6.07-7.22-7.71-6.73Z" fill="#fff"/>
  <path d="M92.84,3.89c-.06,1.85.12,3.73,0,5.58-.81,12.23-3.68,25.75-6.1,37.94-9.67,48.61-30.01,104.86-64.56,141.19-5.21,5.47-11.91,10.78-18.09,15.11V3.89h88.76Z" fill="#fff"/>
  <path d="M197.64,660.94c.04.1.77.23,1.15,1.16,2.3,5.67,3.31,12.28,5.72,17.99l-.17,1.5-35.18,14.15c-26.7,20.75-52.44,42.52-79.91,62.08-1.77,1.26-3.67,3.08-5.27,4.59-2.13-3.37-2.93-7.51-4.74-11-8.2-15.9-20.67-28.59-35.09-39.24-.78-.57-1.61-.95-2.58-1.04-.35-1.66,1.5-1.62,2.66-2.91,24.36-27.24,69.48-72.66,100.76-89.88,2.07-1.14,8.32-4.73,10.12-4,1.18.48,7.41,4.97,9.05,6.12,16.31,11.44,25.61,22.11,33.49,40.49Z" fill="#fff"/>
  <path d="M332.15,425.22l-26.21,11.58c-13.93,8.61-26.72,19.27-36.79,32.23-5.14,6.62-9.24,14.02-13.91,20.96h-1.98c-3.35-1.19-11.28-5.82-14.29-6.18-1.89-.22-2.57,1.07-2.18,2.79.16.69,10.66,4.15,12.32,4.87,12.21,5.29,24.12,11.48,35.4,18.5,3.2,1.99,6.35,5.16,9.48,6.96,4.69,2.69,10.6,2.53,15.7,4.03,15.48,4.53,34.51,18.72,38.72,34.91,1.18,4.53,1.9,10.63-4.35,10.59-3.62-6.82-6.72-14.68-12.26-20.27-.97-.98-7.76-6.48-8.86-6.91-3.41-1.35-3.55,1.31-1.54,2.85,7.54,5.78,17.87,15.25,19.29,25.43.66,4.77-3.05,8.26-7.58,6.24-3.57-5.21-6.51-11.49-10.78-16.17-2.23-2.44-11.07-10.37-13.81-11.18-2.21-.65-3.87-.29-2.5,2.18.21.38,6.03,3.79,7.31,4.85,5.34,4.4,11.37,10.28,14.13,16.76,1.74,4.08,2.68,9.73-3.49,9.46-4.48-.19-10.24-11.36-14.14-14.84-1.65-1.47-14.21-9.86-15.42-9.52-3.09,3.62.51,3.44,2.48,4.71,6.12,3.91,12.67,8.05,16.76,14.14,1.32,1.97,4.25,5.89,2.54,7.9-2.56,3.01-7.52-.5-10.26-2.15-6.47-3.89-11.6-9.36-18.68-12.87-4.61-2.29-8.46-3.13-13.14-5.93-3.7-2.22-9.17-7.94-11.82-9.22-6.33-3.05-20.85-4.86-28.72-7.43-51.24-16.72-54.24-51.28-13.12-83.42,19.33-15.1,61.38-35.23,85.73-36.55,8.64-.47,17.4.2,25.99.69Z" fill="#fff"/>
  <path d="M590.54,539.26c-.64,2.52-15.17,15.2-18.08,17.42-15.92,12.12-42.28,25.13-62.43,26.32-2.01.12-6.69.72-6.95-1.66l3.4-30.48c13.54-2.68,24.9-12.71,26.69-26.88,1.97-15.58-10.48-21.12.38-37.74,8.33-12.74,14.73-15.51,12.12-33.58-.71-4.92-7.94-18.34-6.96-21.7,1.67-5.74,23.11-14.71,28.76-17.3,1.03-.43,2.03-2.03,1.05-2.9-3.39-.46-18.86,7.42-22.61,9.61-.96.56-6.98,5.22-7.3,4.85,0-4.32,1.12-8.48,2.16-12.63,3.15-12.59,9.5-24.47,9.71-37.62.05-3.15-.68-5.83-.69-8.91,2.37-2.4,37.9,10.91,40.63,16.9l.08,101.03c-12.25,28.87-35.06,58.54-63.13,73.6-1.95,1.05-4.33,1.74-6.44,2.43-.33,1.74-.14,3.46,2.08,3.12,2.08-.32,10.83-5.29,13.06-6.71,16.45-10.51,36.86-33.06,47.27-49.54,2.51-3.98,4.1-9.21,7.22-12.65v45.02Z" fill="#fff"/>
  <path d="M188.17,3.89c-.84,2.27-.75,5.21-1.37,7.38-3.62,12.59-8.53,26.11-13.05,38.48-3.38,9.26-6.29,18.7-10.23,27.76-.67.82-17.88,2.23-20.86,2.8-29.95,5.76-54.81,25.64-64.88,54.24-4.48,12.74-2.71,26.68-8.29,39.56-3.93,9.09-11.54,15.86-17.06,23.68-3.7,5.24-2.78,8.71-9.58,11.48-12.19,4.96-26.08,5.73-38.74,2.29-1.15-4.64,1.91-4.21,4.88-6.56C56.55,167.48,86.05,89.46,94.08,31.09c1.24-8.98,1.46-18.21,2.71-27.2h91.39Z" fill="#fff"/>
  <path d="M93.27,655.7c-13.66,12.36-27.71,24.77-40.53,38.03-2.52,2.6-11.23,14.02-13.63,14.7-.92.26-8.35-3.44-9.35-4.22-1.15-.89-6.23-9.95-8.57-12.47s-7.41-7.2-10.23-9.5c-2.16-1.77-4.45-3.12-6.91-4.41l.2-22.73c3.99-4.61,7.2-9.86,11.02-14.6,12.65-15.71,49.55-56.88,66.58-64.9,16.09-7.57,37.42,5.84,49.78,16.23,7.17,6.03,12.67,13.65,19.7,19.73-10.17,4.99-19.59,11.24-28.57,18.1-10.5,8.01-19.83,17.28-29.51,26.04Z" fill="#fff"/>
  <path d="M453.78,319.39c1.54,24.71,26.99,39.79,49.97,39.45-4.8,6.16-9.07,10.7-10.45,18.79-1.12,6.55.33,13.32-.91,19.47-1.47,7.32-9.02,19.2-14.27,24.52-9.13,9.25-24.37,16.6-34.84,5.22-7.65-8.32-11.76-20.16-21.88-26.1s-18.44-1.54-28.18-7.32c-9.22-5.47-9.95-15.02.58-19.3,7.09-2.89,14.71-3.6,21.16-8.43,1.62-1.22,8.36-8.27,3.67-8.69-.69-.06-8.28,7.35-10.85,8.74-8.66,4.7-23.29,3.73-24.63,16.12l-.78.54c-4.11.38-8.29-.2-12.4.09-3.15.23-14.59,2.97-16.16.85-3.64-4.91,1.35-8.97,3.45-12.91,7.05-13.26,13.59-25.84,21.59-38.41,6.2-9.76,9.96-18.36,21.71-22.81,1.07-.4,8.27-2.41,8.86-2.34,1.53.18,3.08,4.22,4.71,5.83,9.4,9.31,27.56,10.41,39.66,6.68ZM413.99,332.23c-2.18-2.86-7.75-5.13-11.23-5.54-2.26-.26-15.83-1.13-12.82,3.42,1.14,1.72,10.21.9,13.5,1.81,4.71,1.3,6.59,6.05,11.46,3.83.7-2.28-.07-2.41-.92-3.52ZM383.94,352.42c-2.18-2.37-4.02.71-3.83,3.45.7,9.84,19.84,12.82,20.98,5.12.7-4.73-5.04.25-6.87.46-1.53.18-5.17-.56-6.43-1.37-2.84-1.84-2.7-6.41-3.85-7.65ZM474.42,361.21c-3.84-4.79-9.25-9.25-15.73-9.63-2.94-.17-4.21.34-3.61,3.62.46,2.49,5.68,2.9,7.9,3.96,2.57,1.23,4.34,2.89,6.18,5,2.2,2.51,4.25,8.57,7.83,7.71,4.28-2.75-.54-8.11-2.58-10.66ZM439.05,385.38c3.85,6.78,9.84,9.02,17.54,7.48,3.09-.62,6.41-4.76,2.65-5.66-3.06-.74-5.98,4.16-12.9-.21-4.52-2.85-2.75-5.01-3.86-8.62-1.06-3.41-6.66-1.9-4.7,5.38.38,1.41,1.08,1.3,1.28,1.64Z" fill="#fff"/>
  <path d="M215.84,381.13c-.03-3.64-10.99-15.81-13.54-15.71l-1.01,2.85c2.18,1.49,4.21,3.36,5.96,5.34,2.23,2.52,10.06,13.57,4.13,15.33-6.99,2.07-7.78-4.76-12.03-8.74-1.43-1.34-9.94-8.11-9.89-3.92.59,2.13,3.61,2.7,5.24,3.97,2.96,2.3,9.5,8.64,7.6,12.76-3.58,7.79-12.89-4.02-15.8-4.58-3.95-.76-7.06,3.45-11.14,3.95-4.92.61-6.81-1.33-11.13-2.62-24.99,11.93-70.25,34.61-94.74,12.46-12.52-11.32-11.47-22.35-14.81-37.01-.06-.28-2.24-.77-1.34-3.99.37-1.35,20.54-6.46,23.47-6.88,4.69-.68,31.67-1.81,33.68,1.31.34.53.2,3.32-.2,3.9-2.64.87-19.45,3.17-19.42,5.54l1.76,1.53c9.35-2.05,18.86-4,28.35-5.6,14.06-2.37,29.74-3.61,43.41-7.22,12.34-3.26,20.54-13.31,35.37-14.6,10.8-.93,30.58,6.69,32.33,18.82,1.26,8.74-6.95,1.17-9.15-.1-4.46-2.58-7.51-3.35-12.13-4.97-1.55-.54-6.8-4.17-7.52-1.67-.37,1.26.33,1.55,1.07,2.2,1.62,1.43,5.06,2.92,7.12,4.71,5.28,4.59,16.21,20.49,4.35,22.94Z" fill="#fff"/>
  <path d="M41.83,257.33c.47.74,2.17,1.6,2.1,3.23-7.75,8.58-10.06,22.53-5.33,33.2,1.77,4,5.97,7.54,9.22,10.5,1.22,1.11,4.08,1.93,4.29,3.63-4.6,15.66-8.49,33.4-5.76,49.77,1.05,6.3,3.8,4.61,4.33,6.18.39,1.14-.06,3.02.16,4.44,1.83,11.36,6.05,25.37,13.73,34.25,1.38,1.6,4.71,2.45,4.59,5.19-.03.6-2.37,9.74-2.67,10.42-4.19,9.58-10.1,19.11-13.16,29.72-2.84,9.86-3.36,20.57-1.26,30.59-16.87.08-31.64,10.13-44.7,19.72l9.87-88.28c8.32-38.75,10.95-81.3,8.53-121.71-.92-15.39-3.19-30.55-5.91-45.69l13.15.98c3.39,4.32,5.89,9.26,8.82,13.86Z" fill="#fff"/>
  <path d="M590.54,377.89c-12.45-7.71-26.09-13.74-40.81-15.43-.77-.45-.48-6.49-.69-7.83-.86-5.52-3.41-12.14-5.72-17.28-6.58-14.64-16.21-24.19-28.96-33.54-.51-1.83,6.54-20.82,7.85-24,.22-.54,1.17-.66,1.46-1.34,5.57-13.3,11.35-26.12,18.55-38.63,1.39-1.3,6.14.65,8.12.92,3.28.45,6.67.49,9.96,1.07l-14.47,43.08c-.77,2.05,3,3.22,3.81,1.15,2.28-9.53,4.57-19.67,7.93-28.85.34-.93,1.17-.98,1.35-1.44,1.77-4.53,2.95-9.87,5.65-13.94h11.83c.43,0,1.72-1.77,1.62.29-.33,6.91-3.37,17.67-4.5,25.09-2.68,17.75-4.99,35.57-5.99,53.83-.6,10.92-.73,21.91-.66,32.86.29,1.63,1.05,1.83,2.63,1.64.99-1,.18-23.97.61-27.32.16-1.25,1.26-.64,1.42-1.89.28-2.18-.23-4.92-.04-7.27,2.11-26.23,4.56-52.64,10.47-78.26l8.58-.95v138.03Z" fill="#fff"/>
  <path d="M257.86,3.89c-2.44,15.01-5.84,30.8-11.08,45.09-.34.93-1.19.99-1.35,1.43-5.67,15.2-11.29,29.36-20.21,42.91-1.73.28-9.74-4.96-12.26-6.09-14.25-6.37-30.2-9.47-45.82-9.08,2.44-5.85,4.3-12,6.61-17.89,4.38-11.14,9.7-23.71,13.04-35.21,1.95-6.71,3.15-14.31,4.66-21.17h66.4Z" fill="#fff"/>
  <path d="M4.08,526.44c11.04,1.56,22.03,2.48,33.23,2,2.24-.1,8.71-2.44,8.82.23.09,2.25-1.39,3.2.18,6.5,2.78,5.82,19.11,14.06,25.24,16.83,4,1.8,8.72,2.94,12.43,4.66.65.3,1.54.38,1.62,1.33-6.34.94-12.6,4.29-16.77,9.2-3.37,3.97-5.47,9.45-3.58,14.65.26.73,1.86.17,1.28,1.78-4.53,1.87-7.44,6.46-10.9,9.81-13.4,12.96-27.01,26.06-39.03,40.48-4.24,5.09-7.38,11.18-12.52,15.45v-122.91ZM25.12,565.23c.65,4.62,1.08,9.54,1.99,14.1.53,2.64,2.31,2.12,2.63-.6.34-2.93-.45-13.93-4.63-13.5ZM39.58,567.85l-2.53.09c-.86,2.66-3.32,11.64-.41,13.05,1.21.33,1.29-.98,1.46-1.8.71-3.45.9-7.78,1.49-11.34Z" fill="#fff"/>
  <path d="M590.54,3.89v157.09c-1.2-.96-2.07-3.36-2.75-4.81-13.56-29.09-23.48-60.48-30.08-91.65-4.22-19.95-5.8-40.4-7.94-60.63h40.76Z" fill="#fff"/>
  <path d="M4.08,239.86c2.81,1.28,7.5,1.2,10.04,2.12,2.96,1.08,2.38,8.07,3.14,10.55,4.19,13.73,5.39,32.33,5.92,47.44,2.14,60.96-10.45,120.29-17.77,179.6l-1.33,10.72v-250.43Z" fill="#fff"/>
  <path d="M590.54,588.88c-8.21-.29-16.43.37-24.45,2.18-9.28,2.09-17.58,6.63-26.49,9.67-13.37,4.56-28.96,8.48-43.09,7.54l5.89-22.4c11.65,1.03,23.69-2.17,34.56-6.17,20.06-7.38,38.7-19.79,53.57-34.85v44.04Z" fill="#fff"/>
  <path d="M267.69,355.56c.66,2.01.91,4.5,1.82,6.39,4.9,10.29,13.92,17.96,23.94,23.42,9.05,4.93,19.77,9.07,30.16,9.62-2.51,8.82-11.78,9.12-18.85,12.37-3.22,1.47-8.53,5.17-10.74,7.85-2.9,3.53-2.57,10.7-8.71,9.88-2.83-.37-13.4-4.9-16.72-6.32-2.29-.97-18.58-8.61-18.6-9.66,13.3-5.97,21.73-24.75,11.15-36.79-2.35-2.68-6-2.87-5.75-7.08.08-1.28,1.95-7.2,2.96-7.73l9.34-1.95Z" fill="#fff"/>
  <path d="M216.44,408.13v15.78c-14.68,5.46-30.06,8.59-45.7,9.85-15.72,1.27-32.94.24-48.56-2.05-17.91-2.63-35.61-7.89-51.72-16.06l2.32-6.84c8.63,5.31,18.31,6.32,28.27,5.89,2.35-.1,5.69-1.34,7.9-1.3,3.04.05,8.07,2,11.34,2.46,31.98,4.47,65.91,4.44,96.15-7.72Z" fill="#fff"/>
  <path d="M53.65,484.12c2.15,2.73,3.16,6.03,4.89,9.24,1.33,2.47,3.36,4.57,4.56,7.12l-10.52,11.64-5.73,12.04c-14.33,2.93-28.52,1.56-42.75-1.01l.1-18.95c3.18-1.2,5.47-3.91,8.23-5.9,11.45-8.24,25.4-16.66,39.91-16.47,1.06.37.8,1.64,1.31,2.3Z" fill="#fff"/>
  <path d="M329.76,601.14c.5.61,1.65.92,2.39,1.87,6.32,8.09,12.29,17.27,15.7,26.89-.36,1.49-16.96,7.3-19.67,8-2.87-5.63-5.09-11.78-8.64-17.05-11.43-17-30.75-35.1-46.43-48.39-8.24-6.98-17.35-12.89-25.12-20.38,3.62.98,10.7,1.42,13.76,3,1.77.92,5.48,5.33,7.61,6.85,6.24,4.44,13.79,6.13,20.27,9.97,6.9,4.09,13.61,11.88,21.43,14.07,1.75.49,3.57-.04,5.28.64,3.96,1.56,10.52,11,13.4,14.53Z" fill="#fff"/>
  <path d="M226.96,366.06c.43,6.55-1.5,11.66-3.85,17.48s-1.11,7.14-2.38,12.12c-2.45,9.63-12.77,12.82-21.25,14.91-21.15,5.2-46.56,5.82-68.17,3.47-4.27-.46-8.6-1.2-12.82-1.97l22.14-7.76,23.04-11.16c3.38.29,6.13,2.56,9.68,2.51,4.2-.06,7.85-2.61,11.69-3.86,5.86,2.66,9.49,8.86,16.94,5.49,3.19-1.44,3.6-4.55,4.05-4.82.91-.56,5.22-.1,7.76-1.77,3.05-2.01,2.4-5.77,3.47-6.73.78-.69,4.4-1.08,5.79-2.6,5.08-5.56-2.53-12.6,3.91-15.29Z" fill="#fff"/>
  <path d="M341.35,455.46c.08.07.11,1.06.71,1.57,17.98,15.45,36.25,23.36,60.71,20.04,1.61-.22,5.8-1.92,6.55-1.77.67.13,1.88,1.7,3.01,2.21,4.24,1.89,8.52,3.12,13.18,3.24-18.09,16.98-50.64,19.68-71.23,5.48-8.05-5.56-13.52-14.81-14.26-24.52-.15-1.96.15-3.97.02-5.94-.08-.57,1.22-.4,1.3-.32Z" fill="#fff"/>
  <path d="M185.35,264.02c-.05.12-1.68.6-1.72,1.9-.05,1.57,1.88.92,1.98,2.52.24,3.69-3.48,10.45-6.34,12.81-14.61,12.05-41.8-2.4-48.66-17.7-2.46-5.48-1.41-8,.35-13.52.24-.75-.49-1.16.99-.98,15.62,8.67,34.71,14.67,52.63,11.35,1.2.22,1.2,2.6.76,3.61Z" fill="#fff"/>
  <path d="M4.08,728.89c1.06-1.2,10.95,7.6,12.17,8.54,14.19,10.79,35.48,26.06,45.57,40.54,2.14,3.06,5.73,6.48.16,7.82-6.8,1.63-14.99-3.21-20.89-6.16l-37.02-29.38v-21.36Z" fill="#fff"/>
  <path d="M223.61,400.31c2.06,6.26,9.27,9.95,15.52,10.44,2.1.17,4.84-.66,6.26-.36,4.31.91,13.99,9.69,19.47,10.79l15.35,6-29.57,12.22-30.59-14.83-.97-19.35c.81-1.44,2.69-6.16,4.53-4.92Z" fill="#fff"/>
  <path d="M590.54,236.57c-9.09.94-18.76,2.94-27.94,2.62-3.56-.12-17.45-1.97-19.75-3.92-.37-.31-1.63-2.07-1.63-2.32v-15.12c0-.13.68-1.59,1.1-1.7,15.92,2.15,32.52,2.22,48.21-1.26v21.69Z" fill="#fff"/>
  <path d="M295.33,297.05c-4.65,5.73-7.78,13.06-11.92,19.29-8.14,12.23-18.43,23.73-25.98,36.45-2.47,4.16-5.06,8.99-4.82,13.93h-8.55c-.54-.54.87-13.56,1.38-15.25,3.61-11.91,19.08-38.06,28.85-46.22,6.06-5.06,12.85-8.65,21.04-8.2ZM253.83,352.82c.85-.52,1.75-6.74-1.49-5.76-2.68.81-1.98,7.9,1.49,5.76Z" fill="#fff"/>
  <path d="M66.29,737.02c1.69,2.18,9.2,12.72,7.84,14.87s-18.28,10.25-21.24,10.38c-3.46.15-9.37-8.82-13.29-10.05,0-.45,3.05-3.01,3.22-3.47,1.14-3.07.77-12.77.03-16.12-.1-.47-1.11-.47-1.24-.97-2.17-8.36-4.72-14.79-8.6-22.5,12.26,7.53,24.39,16.35,33.27,27.85Z" fill="#fff"/>
  <path d="M4.08,214.88c12.45,4.13,25.86,3.64,38.79,2.63-1.05,7.46,2.21,13.35,4.61,20.03-14.07,3.81-29.37,2.49-43.41-.97v-21.69Z" fill="#fff"/>
  <path d="M30.81,712.02c6.56,9.83,11.14,26.46,7.45,37.91l-9.52-6.57-12.53-9.83c-.96-1.35,1.04-7.17,1.07-9.55.1-7.78-3.81-16.61-7.94-23.02,2.92.17,6.98,1.13,9.71,2.12,5.15,1.86,8.69,4.37,11.75,8.95Z" fill="#fff"/>
  <path d="M258.97,398.07c-.87,1.16-5.8,5.42-7.2,6.27-7.57,4.62-20.62,4.49-25.11-4.14-10.04-19.3,17.68-42.51,33.18-24.62,4.48,5.17,3.1,17.19-.87,22.49ZM245.23,377.39c-5.2.58-12.97,6.49-14.03,11.63-3.12,15.2,17.88,15.28,22.75,3.03,2.84-7.14.26-15.66-8.72-14.66Z" fill="#fff"/>
  <path d="M487.08,440.76c7.7-9.12,14.02-19.74,19.28-30.38,9.29,1.61,12.2,9.04,11.19,17.8-1.59,13.86-21.13,24.35-33.26,16.77-.85-2.32,1.91-3.16,2.78-4.19Z" fill="#fff"/>
  <path d="M310.45,325.31c-5.45,21.26-31.19,24.07-49.31,28.25l10.34-15.1,38.96-13.15Z" fill="#fff"/>
  <path d="M76.39,754.53c1.32,3.89,4.29,6.89,4.97,11.23l-12.52,16.37-13.48-17.08c7.59-2.32,14.29-6.51,21.03-10.52Z" fill="#fff"/>
  <path d="M4.08,701.28c3.21,1.54,5.95,6.88,7.25,10.17,1.84,4.66,3.82,13.12,2.03,17.85-.27.7.31,1.11-1.05.89l-8.23-5.58v-23.33Z" fill="#fff"/>
  <path d="M381.38,406.89c2.57,8.23,12.86,12.38,20.82,12.43,2.38.01,6.61-1.86,8.42-1.27,1.17.38,1.48,2.33.99,3.14-1.32,2.16-12.68,2.24-15.27,1.98-8.93-.9-13.82-4.76-17.57-12.54-.24-.5-1.1-.52-1.23-.99-.77-2.67,1.57-2.92,3.84-2.74Z" fill="#fff"/>
  <path d="M4.08,682.22c.51-.58,3.94,1.76,4.62,2.28,1.38,1.07,16.68,16.07,15.76,16.77l-20.38-5.25v-13.8Z" fill="#fff"/>
  <path d="M189.49,690.77l16.11-6.56c1.79.11,2.22,12.4.67,14.45-1.81,2.38-13.73-4.33-15.69-6.03-.67-.59-1.38-.65-1.09-1.86Z" fill="#fff"/>
  <path d="M45.51,256.94c-.36-2.4-10.06-13.06-8.56-14.45,2.71.14,5.39-.4,8.04-.84,3.63-.6,5.75-2.86,5.76,3.79,0,1.66-2.84,13.15-5.24,11.5Z" fill="#fff"/>
  <path d="M244.71,344.38c-2.28,5.05-1.14,9.38-8.21,9.22-3.81-.09-3.43-3.19-5.59-5.63-.22-1.42.2-.77.94-.99,1.5-.45,12.33-3,12.86-2.6Z" fill="#fff"/>
  <path d="M241.42,364.1l-1.33,2.94-10.5,5.6,1.47-7.07c3.38-.9,6.84-1.75,10.37-1.46Z" fill="#fff"/>
  <path d="M241.42,356.2c.8,4.21-1.85,4.21-5.26,4.6l.07-3.87,5.19-.73Z" fill="#fff"/>
  <path d="M223.02,361.47c.7.72-2.15,2.7-2.62,3.28l-3.95-6.56c.8-.72,4.78,4.05,6.57,3.29Z" fill="#fff"/>
  <path d="M44.84,212.26c1.99,1.78-7.09,2.89-7.88,2.62l7.88-2.62Z" fill="#fff"/>
  <path d="M522.41,709.58c2.44,3.21,8.91,3.53,12.87,5.2,6.42,2.7,19.28,12.52,11.43,19.94-8.45,7.99-30.58,6.91-41.01,3.72-4.62-1.41-5.53-3.39-8.27-6.91-2.26.9-4.66.6-7.01.8-13.75,1.16-27.54,1.74-41.39-.99-11.74-2.31-19-8.56-11.04-20.36,15.79-23.41,52.72-29.22,75.27-12.31,4.85,3.63,5.87,6.61,9.14,10.91ZM498.87,727.32c3.9-5.22,3.35-7.46,10.21-11.18,1.8-.98,10.54-3.59,10.38-5.23-.19-1.9-6.74-8.57-8.56-9.89-18.2-13.19-49.14-10.95-64.69,5.5-3.64,3.86-5.63,8.35-8.26,12.81-.2,4.8,5.53,7.63,9.77,8.71,15.33,3.91,34.04,2.89,49.57.77.21-.07,1.39-1.24,1.57-1.49ZM521.17,715.45c-11.46.64-30.91,16.75-10.99,21.14,8.15,1.8,24.3,2.13,31.51-2.31,6.82-4.19,2.33-9.99-2.5-13.55-4.71-3.48-12.19-5.61-18.03-5.28Z"/>
  <path d="M303.79,760.54c1.94,1.23-2.14,15.1-2.45,18.06-.24,2.26-.02,4.56-.07,6.82,5.01-4.88,11.47-10.67,19.06-8.54.06,3.68-3.13,5.3-4.73,8.75s-2.29,7.15-3.26,10.87l-2.53.1c-.17-5.94,2.52-11.34,5.26-16.43-1.09-.84-7.7,3.7-8.78,4.69-1.91,1.76-6.27,10.47-8.31,9.1-2.05-9.8,1.37-19.85,2.61-29.58-6.66,3.18-11.1,9.25-12.83,16.41-.78,3.22-.39,8.72-1.06,10.77-.39,1.22-2.71,1.65-3.19.64-.23-1.32-.26-3.09-.73-4.29-.21-.54-1-.6-1.19-1.04-3.07-7.15-5.76-15.92-14.52-17.88,1.9,2.61,1.87,5.96,2.68,8.7.16.54,1.07.46,1.21,1,1.21,4.45,1.48,9.67,2.62,14.2-3.03,3.4-6.16-3.43-8.23-5.43-2.68-2.6-6.24-5.09-10.12-5.32-.6.47,3.81,4.78,3.97,5.07.5.87,3.12,7.8,3.16,8.54.08,1.38-1.58,2.02-2.57,1.21-.73-.6-.39-1.9-.7-2.45-1.8-3.15-4.37-6.54-5.96-9.96-.69-1.48-1.24-3.11-1.8-4.65,1.12-4.82,15.35,3.33,17.03,6.17.09-2.24-.5-4.41-.98-6.57-.56-2.54-4.81-12.9-3-14.17,4.81-.97,8.74,2.84,12.14,5.7l7.62,10.44c2.06-9.46,8.99-20.75,19.64-20.93Z"/>
  <path d="M552.41,654.61c.76.87,9.79-7.75,12.53-4.22l-4.03,13.39-1.92.04,1.96-10.52c-3.34-.1-7.43,7.89-9.51,7.23-3-.95-1.08-16.28.31-19.05-1.7-.44-1.16.6-1.71,1.23-.51.58-4,5.47-4.16,5.85-1.26,3.1-.69,7.94-3.02,10.66-1.98.48-2.71-6.41-3.29-7.87-1.39-3.47-3.42-7.55-6.88-9.22,1.13,2.87.74,6.87,1.32,9.41.11.5,1.17.41,1.29.91.74,3.11-.33,5.57-1.35,8.01-2.69,2.47-7.84-9.26-11.78-7.8-.13,1.05,1,.39,1.52,1.46.73,1.49,2.99,8.81,2.95,10.2-.11,4.78-3.72-2.08-4.42-2.99-.47-4.89-9.23-14.76,1.8-11.52,3.06.9,4.86,3.74,7.34,5.47.89-4.98-2.07-10.47-2.5-14.97-.4-4.23,5.48-1.15,7.14.16,2.84,2.24,4.47,6.45,6.22,9.55.42-2.79,10.25-16.69,13.2-12.52.94,1.33-4.31,13.91-3,17.12Z"/>
  <path d="M430.11,756.5c.05,3.37-3.55,4.12-5.39,6.76-3.12,4.49-2.69,12.41-3.77,13.88-.87,1.19-2.42.23-2.69-1.27-.93-5.17,4.3-20.67,11.85-19.37Z"/>
  <path d="M162.15,742.41c2.22,2.14,7.07,15.07,3.99,16.06s-2.53-5.9-2.99-7.39c-.18-.56-1.03-.53-1.21-1.02-.54-1.44-3.36-7.28-3.37-7.7-.04-3.33,2.66-.83,3.58.05Z"/>
  <path d="M406.17,765.3c-.11-.2-.76-.23-.84-.42-.89-2-.11-3.2,2-2.35,2.8,1.12,8.34,13.94,4.71,16.97-2.43-2.11-1.4-5.21-2.64-8.52-.71-1.9-2.2-3.86-3.23-5.67Z"/>
  <path d="M176.99,744.01c.54.51-1.65,6.25-2.02,7.38-.15.45-1.11.46-1.24.98-.35,1.45.28,3.49-.61,5.06l-2.69.39c-.63-.6,1.25-16.81,6.57-13.8Z"/>
  <path d="M531.37,803.16c-.62-.4-.6-4.94-.84-6.07-.53-2.52-1.77-5.39-2.19-7.71-.2-1.11-.3-1.23.73-1.99,1.45-.23,1.83.35,2.44,1.49,1,1.88,4.74,17.41-.14,14.28Z"/>
  <path d="M433.4,768.33c.66.88-4.53,7.73-4.59,9.55-.82,1.29-1.56.67-2.67-.04-1.1-1.25,2.4-7.44,3.31-8.54s2.97-2.29,3.94-.98Z"/>
  <path d="M543.2,791.99c.45.43-2.61,10.86-3.61,11.81-2.43-1.6-.3-10.88,1.09-11.7.41-.24,2.43-.2,2.52-.11Z"/>
  <path d="M185.54,748.61c.3.29-2.7,6.85-3.09,7.75s-.43,2.21-1.83,2.1c-2.69-.56.46-11.75,4.92-9.85Z"/>
  <path d="M329.77,325.06c5,5.28,6.77,13.52,2.63,20.02l-2.88-.72c-.56-1.62,1.02-1.14,1.28-1.79,2.56-6.26-2.58-14.15-6.54-18.93,1.55-3.86,3.94-.23,5.5,1.42Z"/>
  <path d="M175.68,586.91c-.21-1.48-.03-1.7,1.07-2.54,3.56-2.72,14.95-6.97,19.61-8.66,7.02-2.55,26.23-8.93,32.9-8.58,2.93.16,3.09,1.93.33,3.02-5.74,2.27-16.09,3.32-22.88,5.39-4.04,1.23-8.61,2.99-12.61,4.48-2.6.97-17.28,7.96-18.43,6.88Z"/>
  <path d="M172.39,452.83c1.35-1.36,10.96,3.54,13.16,4.25,2.34.76,14.3,3.37,15.12,3.94,1.36.95,1.05,3.75-1.48,3.51-3.51-.33-13.29-3.92-17.11-5.3-1.32-.48-8.65-3.11-9.05-3.44-.95-.78-.64-1.94-.65-2.96Z"/>
  <path d="M222.81,192.99c-7.3,8.88-15.74-3.35-8.35-11.96,6.5-7.57,14.92,3.97,8.35,11.96Z"/>
  <path d="M162.99,191.03c-.97,1.23-4.32,3.02-5.99,2.81-8.48-1.03-4.08-22,5.74-16.3,3.79,2.2,2.54,10.59.26,13.49Z"/>
  <path d="M196.71,176.76c.12,2.39-.79,4.47-.7,6.91.3,7.79,10.55,11.69,10.34,19.61-.17,6.58-7.58,9.51-13.26,9-2.13-.19-6.13-1.73-4.28-4.31,4.43.79,13.41,1.8,13.85-4.6s-6.86-8.11-8.8-14.89c-1.02-3.54-2.73-12.47,2.85-11.72Z"/>
  <path d="M164.19,216.86c1.64-.49,5.55,5.3,7.71,6.73,5.24,3.47,11.65,4.45,17.84,3.71,2.35-.28,9.49-4.23,10.63-2.6,1.83,2.63-2.48,4.23-4.32,4.96-8.01,3.17-19.91,1.85-26.9-3.32-1.46-1.08-9.06-8.27-4.96-9.48Z"/>
  <path d="M166.39,160.9c-.54.35-6.1-.7-8.06-.5-4.14.41-6.37,3.46-10.18,3.13-1.4-2.4.06-3.43,2.08-4.65,3.81-2.32,11.55-3.83,15.4-1.33,1.28.83,2.1,2.48.75,3.35Z"/>
  <path d="M231.56,166.9c-4.74-.25-5.89-5.34-11.51-5.26-1.24.02-7.49,2.85-6.85-.9.89-5.27,20.15-1.99,18.36,6.16Z"/>
  <path d="M474.42,361.21c2.04,2.55,6.86,7.91,2.58,10.66-3.58.85-5.63-5.2-7.83-7.71-1.85-2.11-3.61-3.77-6.18-5-2.22-1.06-7.44-1.47-7.9-3.96-.61-3.27.66-3.78,3.61-3.62,6.47.37,11.89,4.83,15.73,9.63Z"/>
  <path d="M439.05,385.38c-.19-.34-.9-.23-1.28-1.64-1.96-7.28,3.64-8.79,4.7-5.38,1.12,3.61-.65,5.77,3.86,8.62,6.93,4.36,9.84-.53,12.9.21,3.77.91.44,5.04-2.65,5.66-7.71,1.55-13.69-.7-17.54-7.48Z"/>
  <path d="M413.99,332.23c.85,1.11,1.62,1.24.92,3.52-4.87,2.22-6.75-2.53-11.46-3.83-3.29-.91-12.36-.09-13.5-1.81-3.02-4.54,10.56-3.68,12.82-3.42,3.48.41,9.06,2.68,11.23,5.54Z"/>
  <path d="M383.94,352.42c1.15,1.25,1,5.81,3.85,7.65,1.26.82,4.91,1.55,6.43,1.37,1.83-.21,7.57-5.19,6.87-.46-1.14,7.7-20.28,4.72-20.98-5.12-.19-2.73,1.65-5.82,3.83-3.45Z"/>
  <path d="M25.12,565.23c4.18-.42,4.97,10.57,4.63,13.5-.32,2.72-2.11,3.24-2.63.6-.91-4.56-1.35-9.48-1.99-14.1Z"/>
  <path d="M39.58,567.85c-.59,3.56-.78,7.89-1.49,11.34-.17.82-.25,2.14-1.46,1.8-2.9-1.41-.45-10.39.41-13.05l2.53-.09Z"/>
  <path d="M253.83,352.82c-3.47,2.14-4.17-4.95-1.49-5.76,3.25-.98,2.34,5.24,1.49,5.76Z"/>
  <path d="M245.23,377.39c8.98-1,11.56,7.52,8.72,14.66-4.86,12.25-25.87,12.17-22.75-3.03,1.06-5.14,8.83-11.06,14.03-11.63ZM243.86,380.66c-5.67,1.69,3.48,10.84,5.78,12.34,4.72-5.21,2.54-14.83-5.78-12.34ZM247.34,396.29c1.15-1.37-4.15-4.81-5.26-6.24-1.48-1.9-2.16-4.32-3.62-6.23-7.93,8.88-2.68,18.02,8.88,12.47Z"/>
  <path d="M498.87,727.32c-.19.25-1.37,1.42-1.57,1.49-15.53,2.12-34.24,3.14-49.57-.77-4.24-1.08-9.97-3.9-9.77-8.71,2.63-4.46,4.61-8.95,8.26-12.81,15.55-16.45,46.5-18.69,64.69-5.5,1.81,1.31,8.37,7.99,8.56,9.89.16,1.64-8.58,4.25-10.38,5.23-6.86,3.72-6.31,5.96-10.21,11.18Z" fill="#fff"/>
  <path d="M521.17,715.45c5.84-.33,13.32,1.81,18.03,5.28,4.82,3.56,9.31,9.36,2.5,13.55-7.21,4.44-23.36,4.11-31.51,2.31-19.92-4.39-.47-20.5,10.99-21.14Z" fill="#fff"/>
  <path d="M247.34,396.29c-11.55,5.55-16.81-3.59-8.88-12.47,1.46,1.91,2.14,4.33,3.62,6.23,1.11,1.43,6.41,4.87,5.26,6.24Z" fill="#fff"/>
  <path d="M243.86,380.66c8.33-2.49,10.51,7.13,5.78,12.34-2.31-1.5-11.45-10.65-5.78-12.34Z" fill="#fff"/>
</svg>