<?xml version="1.0" encoding="UTF-8"?>
<svg id="Camada_1" xmlns="http://www.w3.org/2000/svg" version="1.1" viewBox="0 0 595.28 841.89">
  <!-- Generator: Adobe Illustrator 29.0.0, SVG Export Plug-In . SVG Version: 2.1.0 Build 186)  -->
  <path d="M.14,841.29V-.06h595v841.34H.14ZM590.54,3.89H4.08v363.81l4.6,1.64c.69-10.6,1.43-21.32,2.65-31.86,3.95-34.12,11.24-66.82,18.33-100.11l7.83-36.77c-4.09-4.63-9.87-8.26-11.42-14.6-1.28-5.22-1.69-20.85,0-25.7.43-1.22,11.42-11.41,12.93-12.05,4.74-2.03,9.57,1.15,14.44-.03,3.63-.88,5.2-5.23,8.01-6.45,3.06-1.33,9.4-.52,11.64-2.17,3.38-2.5,3.45-10,10.23-9.49,3.01-3.4,8.32-18.29,11.84-19.05,6.16-1.33,26.37,3.01,33.04,5.05,17.14,5.24,46.92,22.39,45.42,43.16-.56,7.74-9.93,42.03-13.2,49.24s-12.21,8.66-18.99,11.42l-10.8,47.53c18.51-12.44,45.11-32.42,68.37-31.52,12.91.5,25.97,7.61,35.61,15.67,28.44-16.82,50.75,2.11,72.21,19.17,3.29,2.61,16.41,15.23,18.78,16.06,2.63.91,7.6.59,11.03,1.47,11.59,2.96,22.07,13.64,25.2,25.09,13.45-2.59,25.23-3.18,37.06,4.76,23.38-13.02,47.44-25.35,73.23-33l-7.84-50.5c-5.56.02-9.95-.82-14.12-4.62-4.77-4.35-13.14-20.07-11.2-26.34,1.28-4.12,7.45-6.08,6.25-12.64-.05-.29-2.19-.75-1.29-3.27,8.81-8.7,21.85-9.86,32.24-15.9l12.51-32.86c6.17-.66,12.06-2.3,17.88-4.46s22.36-12.17,26.94-11.54c9.73,1.34,26.69,23.88,35.72,29.41,3.73,10.77,4.44,25.72,3.61,37.87-.29,4.26-2.42,9.25-5.01,12.74-1.71,2.31-6.76,5.6-6.83,8.16,5.38,23.6,10.26,47.05,13.67,70.54,4.55,31.33,7.58,63.19,8,94.88l7.89-3.62V103.14h-129.85c-2.82,0-3.01-4.53-2.66-6.6,2.69-16.19,30.85-30.22,43.09-15.75,2.39-9.76,7.05-17.78,15.84-23.28,20.01-12.53,49.34-6.37,53.21,19.34,2.67.6,3.06-2.27,4.44-3.3,4.61-3.43,10.1-5.37,15.93-5.25V3.89ZM461.02,99.2h129.52v-26.95c-6.39-.52-11.36,1.9-15.8,6.23-1.62,1.58-4.03,7.06-6.82,6.3-1.54-4.78-1.01-8.63-2.9-13.63-9.49-25.07-52.83-18.44-58.59,4.76-.75,3.02-.19,11.41-2,12.46-3.79,2.19-5.12-3.59-6.89-5.61-10.55-11.97-35.04,2.48-36.5,16.45ZM168.2,149.39c-7.12-13.67-24.95-24.73-39.34-29.34-4.97-1.6-29.28-6.96-32.95-5.62l-6.93,13.26,11.37,17.57c4.67,1.27,9.21-.15,13.49,2.94,2.46,1.78,11.76,16.04,12.86,16.04,3.42-2.09,5.01-9.09,9.19-9.1,2.77,0,17.24,7.77,14.14,11.09l-13.98-7.13-8.25,8.11c1.13.9,6.37,10.68,1.83,7.91-4.74-5.53-12.05-20.03-17.37-24.04-4.85-3.66-11.06-.25-14.42-3.33-1.43-1.31-9.16-18.68-11.57-17.01-.28,4.77-3.81,2.49-5.79,3.43-1.27.6-2.38,6.93-4.53,8.28-3.02,1.88-9.93,1.26-13.19,2.59-2.31.94-3.95,5.18-7.9,6.56-5.72,2-8.63-.93-12.92-.48-2.2.23-11.57,9.47-12.08,11.63.38,10.92-3.23,24.95,7.08,32.39-1.53-7.27-.31-12.62,6.13-16.56,22.22-13.58,75.2-2.47,95.44,12.63,8.94,6.68,11.58,10.91,8.74,21.85-.15.58-1.18,1.61.47,1.12s8.14-4.62,9-6.18c4.29-18.13,12.25-36.68,12.99-55.21-.12-1.33-.94-2.31-1.52-3.43ZM532.67,126.81l-40.08,16.1,15.21,24.55c10.58.78,10.43-7.1,14.48-13.91,1.72-2.88,4.87-4.75,6.07-7.73.72-1.79,4.97-18.27,4.32-19ZM563.59,201.74c10.17-11.07,3.74-32.23,3.1-46.16-3.59-3.76-27.33-27.33-30.36-26.82-2.88,5.52-2.24,12.14-4.64,17.77-1.66,3.88-5.57,7.35-7.7,10.69-1.49,2.33-3.92,9.48-5.3,10.83-2.14,2.1-7.96,1.9-10.68,3.46-2.38,3.39-15.83,13.27-16.64,16.26-.24.87-.32,1.97.51,2.53,1.51.55,3.15.09,4.67.58,1.9.62,9.91,11.91,7.23,13.87-3.28,2.39-5.55-9.18-8.38-10.09-16.04-.1-32.47-.83-47.53-6.7.09,4,1.28,6.68-.18,10.67-1.17,3.2-5.57,4.77-5.68,8.05-.07,2.35,7.74,18.08,9.5,20.03,2,2.23,4.5,3.01,7.21,3.96-5.2-9.98,3.3-19.23,11.3-24.17,1.04-.64,11.11-6.45,7.77-.78-.4.68-10.49,6.67-12.32,8.52-3.52,3.54-7.04,11.49-2.93,15.57,4.99,4.96,10.05-2.99,14.42-5.87,20.44-13.45,45.58-18.41,69.88-17.61,4.48.15,11.66,4.02,12.75-2.32,2.21-12.76-15.58-15.17-24.58-15.43-5.15-.15-20.71,3.35-22.93,2.69-.69-.2-.61-1.14-.93-1.69.72-3.37,23.91-4.46,27.76-4.24,10.27.59,24.39,3.91,24.68,16.42ZM490.2,146.24c-.25-.17-.41-2.1-1.23-.37-2.99,6.34-5.38,22.79-9.1,27.39-3.72,4.6-21.14,8.91-27.13,11.98-.69.36-1.23-.32-.92,1.37,11.65,2.85,23.43,4.85,35.51,4.61-1.57-6.75,4.44-8.09,8.23-11.81,3.25-3.19,6.2-6.98,9.49-10.19-3.24-4.96-5.76-10.41-8.9-15.41-1.55-2.47-3.51-5.95-5.94-7.56ZM143.72,202.8c-11.89-22.25-78.25-35.07-98.44-21.33-3.59,2.44-6.74,6.83-5.67,11.25.06.24,2.89,3.01,3.62,3.13,1.31.2,13.59-3.04,17.07-3.29,26.92-1.95,57.53,6.08,78.32,23.54,3.93-1.34,7.2-6.51,6.77-10.68-.23-2.2-1.37-2.02-1.68-2.6ZM133.33,240.92c1.6-7.13,2.97-14.34,4.55-21.47-26.5-20.79-63.56-29.27-96.21-19.59-.59.42-.46,2.47-.84,3.3-4.36,9.38-10.06,40.75-12.37,52.3-18.68,93.09-27.14,194.65-10.6,288.54.69,3.89,1.05,14.95,2.61,17.65,1.43,2.46,12.07,6.28,15.17,7.18,16.88,4.9,40.21,4.04,57.04-.81,5.32-1.53,24.2-8.37,25.51-13.95-1.5-15.9-4.12-31.8-5.62-47.7-1.9-20.15-4-41.06-4.64-61.09-.45-14.21.4-28.51,0-42.73-.41-1.93-8.64-6.06-10.7-9.09-3.21-4.7-2.59-10.26-4.06-14.94-1.65-5.24-8.02-12.63-6.96-18.09.11-.57,2.86-3.57,3.37-3.86,5.85-3.32,13.88,3.64,15.09,9.48,2.32,1.36,2.15-18.91,1.99-20.73-.7-7.67-7.41-19.92,2.93-24.03,3.9-.28,5.01,2.83,6.9,5.32,1.23-9.02,2.33-18.14,4.01-27.09,3.54-18.82,8.59-39.69,12.82-58.61ZM559.88,223.86c-.6-2.17-2.02-11.44-3.13-12.34-19.89-4.22-40.63-.53-59.57,6-.32.48,3.9,9.8,4.59,10.67,1.17,1.47,3.96,2.42,5.28,4.1,7.01,8.95-8.67,18.55-6.31,22.06,18.12,8.05,33.05,6.84,14.43,28.57l8.78,10.59-7.65,20.95c.56,3.16,10.97,16.55,10.39,18.35-.44,1.37-2.71,1.5-3.54.38l-10.71-17.53,8.11-21.9-8.91-7.89-6.7,9.11c-.63.32-2.95-.31-3.19-.9-.61-1.51,18.46-21.79,19.08-26.3,0-4.94-21.39-7.61-23.33-12.16-2.76-6.48,11.07-14.52,7.48-20.63-1.01-1.72-3.81-2.02-5.48-4.37-1.15-1.62-4.67-11.76-5.32-11.82-9.42,3.86-18.7,9.42-25.61,17.01l12.16,92.12c.69.91,7.52-9.22,13.45-1.95.81.99.77,2.48,1.68,3.57,1.74,2.09,4.72,1.1,5.1,6.78.35,5.17-7.25,18.35-9.54,24.29-.27.69-1.25.76-1.44,1.35-.64,1.92-.55,4.39-1.36,6.37l1.36.75c5.64-3.22,21.39-13.95,21.03-.06-.21,8.17-7.91,8.93-11.52,14.15-1.8,2.61-2.82,7.57-4.6,10.52-3.23,5.39-7.15,6.82-12.09,10.26-.85,45.14-5.05,90.29-14.62,134.48-.1.45-2.04.64-1.29,2.66,11.34,10.4,26.68,16.84,41.56,20.38,16.86,4.02,39.61,7.11,54.74-2.87,6.38-36.29,14.8-73.57,15.51-110.69.05-2.39.4-7.82-.17-9.74-.45-1.55-13.4-13.06-14.56-12.88-4.86,3.71-9.15,7.88-13.55,12.11-1,.96-2.54,1.07-3.68,2.24-4.54,4.64-6.58,11.38-10.82,16.18l14.53,19.69c-.7,3.62-.83,7.4-1.4,11.02-.08.49-1.18.46-1.25.95-.61,4.07-3.27,30.91-4.59,32.11l-2.01.28,5.22-44.32-12.81-16.81c-3.16,3.69-14,8.7-16.1,12.15-2.27,3.71-.87,11-3.48,14.61-1.55,2.14-15.27,10.34-16.89,8.74-.92-3.98,4.83-4.43,7.44-6.03,10.15-6.22,5.37-7.59,8.41-16.44,1.87-5.44,15.09-11.4,19.03-15.95,3.15-3.63,5.45-10.29,9.09-13.97l-.58-1.84-14.8-8.88-19.81,15.04-4.18.07,20.94-17.55c.67-3.07-8.23-11.54-8.28-15.74-.02-1.65,7.3-13.13,8.66-14.06,1.66-1.14,3.79-1.05,3.41,1.41-.15,1-9.29,9.83-8.65,13.15,5.81,11.84,13.82,19.05,25.57,24.84l18.06-15.43c.44-1.59-5.89-9.22-6.34-11.94-.52-3.2,2.14-7.08,2.43-10.42.75-8.76-6.04-18.69-8.46-26.95,0-.95,10.17-14.89,10.97-15.4.75-.47,2.04-.91,2.84-.34,3.57,2.54-9.77,12.12-9.93,15.79,1.79,9.68,10.3,20.42,7.86,30.07-.29,1.15-2.63,3.76-2.43,6.61.17,2.43,2.51,3.16,3.3,4.59.97,1.76,1.93,5.06,2.87,6.35,2.81,3.84,11.56,8.09,14.73,12.55,2.13-48.58-.44-97.37-7.27-145.43-2.88-20.28-6.73-44.59-12.2-64.47ZM272.32,287.2c-16.78-14.38-32.76-29.77-51.73-41.3-32.09-18.47-64.43,8.81-90.25,25.86l-5.85,28.19c.37,1.15,7.38,1.5,9.58,2.22,5.35,1.75,7.1,6.26,12.02,8.02l1.3-3.23c-5.76-2.59-6.23-9.43-4.64-14.9,1.6-2.07,4.52.22,5.29-.28.23-.15,1.15-3.88,1.87-5.05,9.97-16.36,37.53-16.19,44.96,2.65,1.6,4.05,5.47,14.52-1.43,14.92l.67,3.28c8.28-13.55,27.39-12.46,38.14-2.32,5.16,4.86,6.02,8.02,7.88,14.49.26.92-.49,1.18,1.3.98,3.43-11.7,12.53-22.31,22.81-28.8,2.28-1.44,4.74-2.25,7.13-3.4.66-.31,1.29.5.97-1.31ZM320.32,287.18c-23.4-17.56-48.81-50.99-81.52-34.16l37.24,33.38c10.81-3.49,22.13-2.75,33.14-.88,3.99.68,7,3.58,11.14,1.67ZM190.4,288.9c-7.99-14.03-26.43-14.54-36.11-2.41-2.83,3.55-3.24,10.77-8.2,8.58-.14,2.19-.23,7.58,2.42,8.42,7.74,2.45,18.17-3.95,23.57-9.11,6.93,3.43,13.84,7.64,22,6.6.13-4.93-1.51-8.26-3.69-12.08ZM352.14,303.36c-6-7.45-14.44-12.31-24.27-12.87-4.11-.23-8.67,1.32-12.25.93-18.96-2.07-27.75-8.41-47.44,2.46-19.49,10.77-18.75,21.69-27.09,38.65-6.74,13.71-27.06,15.88-26.36,37.91.13,4.16,4.07,10.44,3.56,12.23-1.21,4.27-9.3,2.84-7.78,8.37,5.71.47,11.64,1.04,17.25,2.15,3.54.7,9.67,3.52,12.73,3.76,3.29.25,8.92-2.16,12.79-1.6l-.64-5.99c-21.51,2.48-25.87-32.49-4.9-34.39,11.27-1.02,7.17,4.73,7.42,11.43.62,16.53.24,32.27,9.25,46.69,15.21,24.34,65.73,31.16,84.06,7.76,9.66-12.33,8.92-24.62,8-39.65-2.54.23-2.28,6.23-3.46,7.7-3.19,3.99-8.6-3.02-11.73-4.67-1.66-.88-5.91-2.64-7.65-2.88-5.39-.72-7.02,3.27-12.98,3.17-6.5-.11-9.47-4.3-13.79-4.7-3.53-.32-11.15,1.38-14.5,2.66-5.77,2.2-8.75,6.77-14.28,7.81-8.39-7.78-12.07-17.84-12.96-29.17-.27-3.43.75-13.66.03-15.72-.24-.69-1.38-.25-1.92-.43l-.13-2.16c5.04-1.86,9.57-2.69,13.6-6.56,1.77-1.7,5.03-7.87,6.44-8.44,2.16-.87,11.49,1.81,15.85,1.47,8.47-.66,19.72-6.53,20.03-15.8,5.19-.43,4.38,6.74,7.87,10.2,3.09,3.07,11.84,6.52,16.21,6.79,4.05.25,7.59-1.29,11.15.06l6.19,62.48,15.77-3.29c-8.59-7.45,4.1-8.77,5.2-18.13,1.39-11.88-17.43-26.46-20.67-41.66-2.45-11.49-.53-16.56-8.59-26.57ZM473.5,288.5c-2.75-2.84-65.3,26.67-71.65,32.54,3.62,3.96,8.23,8.9,9.2,14.13,3.61-.47,6.22-3.32,9.71-4.41,16.63-5.22,32.49,2.24,36.31,19.53,3.97-1.71,6.83-2.11,11.11-1.38.7-2.49,1.78-5.59,3-7.84,4.75-8.82,6-7.43,5.6-18.7-.4-11.28-3.6-22.49-3.28-33.86ZM190.38,308.66c-.47-1.6-.1-3.47-1.57-4.7-5.71-1.34-11.48-2.28-16.1-6.13-1.81,4.33-12.75,6.66-14.45,8.43-3.46,3.6,3.36,12.19-3.55,10.43l-.74-9.12c-7.31-1.76-6.41,14.52-2.65,16.79,3,1.26,1.82-3.39,5.64-.38.72,9.31,3.12,16.29,13.31,17.59,11.45,1.46,16.05-1.06,19.41-11.77,2.21-7.05,2.79-13.93.69-21.12ZM233.54,322.35c.55,4.12-.4,9.23,0,13.47.69-1.13,3.89-3.42,4.17-4.1,2.18-5.24-2.74-18.01-6.26-22.41-6.15-7.7-18.32-10.46-27.29-6.47-11.34,5.04-8.13,18.9-11.06,29.03-1.26,4.33-2.98,5.69-4.94,9.53,9.65,2.46,14.76,13.42,17.44,22.03,1.6,5.13,2.57,15.79,4.19,19.49.29.66-.36,1.12,1.02.86l3.65-1.95c-.58-1.95-2-2.36-2.81-4.73-2.54-7.44-.57-16.35,3.47-22.86-18.71,2.24-20.29-22.43-16.47-35.2,5.27-17.59,32.53-14.4,34.88,3.32ZM123.82,304.36l-.1,6.2c5.99-.74,12.07-.82,17.76,1.28-3.61-5.94-11.05-7.62-17.66-7.48ZM229.59,318.73c-4.39-10.97-24.66-11.92-26.95,1.32,10.02-6.69,16.3-5.69,26.95-1.32ZM142.8,318.73c-.09-6.65-21.18-7.81-21.06-2.95.03,1.11.68,1.52,1.68,1.63l19.38,1.32ZM398.15,323.08c-10.95-9.24-21.4-10.26-35.13-5.91,1.25,7.82,2.1,15.46,5.48,22.75,5.51,11.88,20.35,19.39,15.92,34.68-1.12,3.85-4.14,7.41-6.85,10.29-.1.7,2.67,3.64,3.2,3.81.68.22,11.99-1.42,14.14-1.64s5.12-.59,7.16-.87c20.76-2.88,40.54-9.55,60.58-15.53l3.63-18.39c-4.22-2.17-9.07,4.59-11.83,2.98-1.36-.8-1.62-6.77-2.32-8.88-4.35-13.08-20.1-16.3-31.89-11.55-3.49,1.41-8.54,7.02-10.73,6.19-.63-.24-3.47-9.5-5.14-11.96-2.06-3.04-3.69-3.83-6.21-5.96ZM230.11,322.83c-11.67-6.36-18.3-5.55-29.12,1.82-.97,9.82-.8,24.69,11.47,26.66,7.2,1.16,5.73-1.99,10.19-6.31,1.58-1.53,3.59-1.73,5.31-3.89,3.54-4.47,3.46-12.9,2.14-18.27ZM142.81,322.02c-3.99.87-20.21-4.01-22.42-.89-.81,3.59-1.64,7.31-1.2,11.03.36,3.04,2.65,4.45,3.43,7.07.62,2.08,2.28,13.93,2.83,14.42.96.88,6.75,1.72,8.02,1.09.43-.22,4.45-6.73,5.42-8.05s3.84-3.33,4.23-4.31c1.9-4.74-1.5-14.93-.31-20.36ZM349.87,333.89c-11.17.79-23.61-2.76-29.23-13.18-3.97,7.12-13.74,11.31-21.67,11.85-2.79.19-13.44-1.37-14.13-1.02-3.61,1.84-9.08,13-15.82,13.14-1.94,14.06-.39,31.81,10.86,41.77,5.03-5.89,21.3-11.79,28.77-10.38,4.75.89,9.41,8.19,16.49,3.68,10.21-6.51-5.85-19.49-4.85-25.17.15-.88.63-1.84,1.67-1.66s9.73,15.5,10.12,17.5c.52,2.7.39,4.77.09,7.46,7.2.29,12.16,4.05,17.73,7.9,5.56-11.85,5.48-25.22,3.28-38.31-.08-.47-1.16-.43-1.26-.94-.33-1.64-1.48-12.15-2.04-12.64ZM120.68,350.09c-1.82-8.5-3.64-20.04-11.06-25.44-4.29,4.84-1.24,13.12-.32,19.25,1.26,8.37,1.53,9.48.01,18.05-.46,2.62-.48,9.55-3.14,10.56l-2.08.03c-1.62-4.51-5.74-13.99-11.62-13.71-6.42.31,2.72,16.1,3.68,18.7,1.83,4.97,1.84,10.24,5.35,15.02s7.38,4.28,11.52,6.89c29.78,18.77,54.48,32.51,88.32,43.82,2.95.99,19.68,4.81,20.32,5.65,2.09,2.78-3.25,3.37-3.62,3.87-.2.27-1.18,6.37-.94,6.61,23.42-2.31,33.07-31.14,28.08-51.41-1.97-8.01-8.33-8.93-15.58-10.72-12.83-3.17-25.06-2.74-37.81-4.27-22.73-2.71-44.7-13.84-66.97-19.16-.88-.26-.91-.79-1.09-1.54-1.47-5.94-.72-14.94-2.01-21.54-.09-.46-1.02-.52-1.06-.68ZM155.56,335.57c-.73-1.68-1.28-5.38-1.92-6.3-.68-.97-5.77-2.58-6.87-4.62l.65,15.11,9.86-1.98c.1-.99-1.58-1.92-1.71-2.21ZM491.83,331.15c1.15-1.55-1.67-4.71-3.65-4.06-10.75,6.51-16.01,17.88-19.08,29.63-.71,2.73-1.69,6.43-2.15,8.48-.53,2.35.41,7.51-2.02,9.04-18.23,3.51-36.82,11.84-55.04,14.65-16.33,2.51-33.51,2.03-49.39,8.14-.28,10.95-4.11,20.4-11.15,28.65,1.5,8.36,5.19,15.19,4.49,23.85,31.18-5.68,63.08-17.57,91.31-31.96,8.36-4.26,18.73-11.98,26.79-15.29,6.37-2.62,11.21-1.71,16.8-6.68,5.2-4.62,5.35-11.67,9.74-16.55,3.73-4.14,11.46-5.14,8.92-13.05-2.83-4.08-16.09,8.94-20.4,7.29-4.23-.97.53-14.93,1.79-17.94,1.4-3.33,13.74-19.82,7.3-22.13-5.27-1.88-14.92,15.05-17.28,18.87-.16.26-2.1,7.13-3.25,3.01-1.45-5.17,10.72-22.37,16.27-23.97ZM164.07,349.4c-4.79-4.71.61-10.7-11.29-7.87-11.53,2.75-19.95,19.42-22.85,29.81l15.49,5.24,1.43-12.72,3.18-1.09c.91,3.49-2.88,12.93-.27,15.07,13.74,4.12,27.45,10.76,41.94,11.27,2.72-.93-.64-23.39-.24-26.99.66.14,1.89-.21,2.28-.03,2.11.98,1.4,23.6,1.95,27.02l10.89,1.28c.13-8.03-1.42-17.03-3.85-24.71-.28-.89-1.19-1.02-1.35-1.45-3.46-9.69-5.53-19.49-18.15-19.91l-1.05.45c-.36,7.92-13.63,9.04-18.1,4.64ZM178.31,345.03c-4.7,1.38-9.11-.05-13.8-.65,2.11,4.95,11.75,6.6,13.8.65ZM126.37,358.17c-.45.6.34,10.06,0,11.83l4.6-11.49c-.32-1.49-4.45-.54-4.6-.34ZM251.95,358.83c-19.45-3.55-17.71,29.96.35,26.33l-.35-26.33ZM4.08,371.98v72.3l1.32-.97c.52-5.59-1.29-12.48,1.31-16.77l-1.32-.33,2.69-52.6-3.99-1.62ZM590.54,442.96v-65.73l-6.58,4.27c-.47,12.68.61,25.5.05,38.16-.05,1.16-1.35.72-1.42,1.89-.4,7.09.24,14.32-.61,21.41h8.55ZM259.44,411.82c-2.3-4.24-3.23-8.13-4.84-12.58l-9.23.36c11.29,17.89,2.68,49.35-15.77,59.49-4.54,2.5-8.19,2.58-12.85,4.24-.95,1.5-.34,19.67.94,21.45,38.95,16.27,83.78,16.48,124.21,5.41l4.72-17.63c-14.81-.41-31.24-6.2-42.95-15.23-10.7-8.26-12.95-15.67-20.38-24-6.94-7.78-16.58-8.12-23.85-21.5ZM111.91,404.51v39.44l.99.99h25.97v-9.2c-16.05.06-16.85-11.22-13.89-24.2l-11.75-7.69-1.31.67ZM391.98,443.62h84.48l.98-1.65c-.57-11.33,2.92-25.85,1.32-36.83-.31-2.14-3.93-.28-5.05.24-5.31,2.44-10.86,6.8-16.07,9.57-21.12,11.21-43.16,20.64-65.67,28.67ZM140.06,420.07l-12.37-6.02c-2.08,11.55-1.12,17.58,11.82,18.4l.55-12.38ZM143.14,444.94h50.95l-50.29-22.36-1.71,20.06,1.04,2.29ZM346.61,429.16c-18.1,11.18-39.22,12.11-59.16,5.58,13.1,19.83,34.69,33.21,58.84,34.52,2.29-.57,2.84-9,2.99-11.48.59-9.33.3-19.75-2.67-28.62ZM590.54,446.25h-8.55c-1.83,29.19-4.75,58.79-9.9,87.59-.09.51-1.15.48-1.24.97-1.43,7.77-2.13,15.74-4.03,23.44,10.92,3.85,6.9,16.84,5.28,25.56-.09.49-1.14.45-1.24.97-1.56,8.37-2.79,24.52-5.76,31.59-1.59,3.77-7.05,6.27-10.73,7.67-30.77,11.69-86.35-.08-111.11-21.66-5.41-4.71-8.45-7.46-6.88-14.81,1.88-8.83,6.08-18.3,8.97-26.55,3.53-10.07,3.48-22.65,17.88-22.85l.97-1c3.38-15.76,7.05-31.01,9.24-47.29,1.91-14.22,2.63-28.69,4.03-42.97h-97.63c-2.11,0-11.14,3.55-14.12,4.29-2.05.51-10.78,1.27-11.55,2.26-1.43,6.79-2.32,12.86-3.9,19.76-1.11,4.85-4.43,13.42-4.83,17.58-.47,4.93,2.66,11.8.03,17.5.33,1.5,7.8,5.66,9.38,6.97,7.48,6.19,16.07,14.33,22.31,21.74,3.89,4.62,17.57,23.32,17.21,28.55-.1,1.52-1.98,2.35-2.11,3.26-.16,1.05,1.47,5.52,1.63,7.33,1.92,20.92-2.77,41.58-5.08,62.27,10.93,6.36,34.41,11.38,35.33,26.48.39,6.38-1.56,11.14-7.24,14.28-16.31,9.02-62.54,3.33-77.71-7.59-7.5-5.4-5.26-16.6-3.03-24.5.79-2.81,3.33-6.56,3.75-8.74,2.34-11.98,2.37-31.82-.03-43.71-.74-3.69-3.12-15.18-7.99-15.57-2.24-.18-18.57,5.93-22.59,6.99-18.86,4.94-37.03,7.74-56.67,7.76l-44.45,53.54c-.6,2.62,5.29,8.96,6.49,11.38,2.57,5.13,7.32,15.05,4.01,20.03-5.76,8.65-35.83,9.04-45.09,7.2-24.47-4.85-32.05-37.52-19.05-56.82,1.93-2.87,6.18-5.53,7.92-7.83,1.97-2.61,4.36-7.8,6.56-11.16,6.95-10.58,13.18-21.59,21.08-31.59.06-1.94-6.61-3.21-7.17-6.5-.33-1.98,1.6-11.59,2.17-14.23,2.77-12.82,9.9-29.34,16.07-41.09,1.79-3.42,7.78-10.17,8.59-13.8,1.88-8.41-1.06-9.22,4.74-17.29.56-.78-1.19-.46-1.31-1.08-1.05-5.22-1.09-15.53-.68-20.95.34-4.44,2.04-8.43,2.66-12.79l-10.17-2.66-92.32.76c.05,11.23.5,22.56,1.25,33.76,1.06,15.88,3.15,52.98,7.85,65.89.33.92-.33,2.54.31,3.52,2.91,1.06,6.29,2.08,8.7,4.12,5.38,4.57,10.03,33.56,11.19,41.73,1.36,9.61,1.58,11.43-6.93,17.63-25.46,18.55-85.59,25.37-113.82,11.73-3.94-1.9-7.87-4.35-10.37-8.04-.28-14.24-2.95-31.14-1.47-45.18.56-5.33,2.63-9.18,7.26-11.95-5.7-31.58-8.57-63.74-9.93-95.83-.21-5.04.59-11.03.09-15.85-.16-1.5-1.46-.64-1.38-1.27l1.32-.98-2.62-.67v389.78h586.45v-391.09ZM342.67,493.57c-41.1,11.42-86.11,10.65-125.86-5.23-1.03.25-4.11,10.64-3.71,12.15.88,4.04,26.24,11.02,30.8,11.96,31.41,6.48,67.37,4.74,97.97-4.55,1.41-4.75,1.46-9.48.79-14.33ZM375.97,541.14c-2.73-3.42-7.86-9.37-10.92-12.42-2.37-2.37-19.72-16.88-21.57-17.27-42.88,11.74-90.52,12.06-131.61-6.03-11.74,20.64-22.71,42.06-25.71,65.9.43,1.69,22.07,10.69,25.23,11.76,24.45,8.26,52.21,8.8,77.5,4.29,34.31-6.12,65.41-25.44,101.11-22.81,1.7-1.45-12.31-21.26-14.04-23.42ZM459.99,560.99c21.36,17.82,70.52,28.42,96.87,20.19,9.02-2.82,19.95-11.09,8.98-19.28-22.23,11.72-53.66,6.35-76.07-2.75-10.48-4.26-19.29-10.22-27.79-17.59-13.86,3.51-10.72,12.15-1.99,19.44ZM127.4,571.5c3.39-4.09,5.29-8.07.96-12.55-6.41-6.63-9.75.85-14.95,4.16-21.35,13.6-60.02,16.12-83.54,7.54-2.2-.8-10.27-5.28-10.88-5.28-5.09-.07-7.12,8.38-3.75,12.67,16.59,21.11,95.41,13.66,112.15-6.55ZM568.83,579.03c-6.59,4.9-15.2,7.14-23.34,7.88-31.74,2.87-73.44-7.05-95.64-30.88-.15,8.73-11.47,28.38-10.52,35.77.4,3.09,12.52,12.82,15.55,14.74,27.13,17.1,79.03,27.26,107.34,8.93l6.61-36.43ZM387.94,567.29c-17.85-.22-35,4.5-51.84,9.77,4.11,5.7,6.64,9.8,7.71,16.93,1.47,9.79.51,19.79.94,29.63,13.71,4.4,28.82,4.54,42.48-.06,2.35-7.84,6.22-52.92.72-56.27ZM133.6,571.14c-4.31,2.45-6.7,6.23-11.09,8.96-24.28,15.06-81.2,19.98-105.5,4.08-1.65-1.08-2.66-2.86-4.38-3.83l.96,36.17c.9,3.64,10.03,8.13,13.52,9.49,25.97,10.13,73.35,4.39,97.96-8.52,3.52-1.85,13.13-7.77,14.18-11.49,1.79-6.37-5.86-27.12-5.65-34.86ZM248,593.5c-18.69-1.73-36.56-5.36-53.48-13.7-.34.06-3.76,3.66-4.36,4.36-3.83,4.43-9.24,12.87-12.66,18.02-1.55,2.34-3.49,4.28-3,7.24.75,4.58,10.09,14.4,14.11,16.84,5.55,3.37,21.35,7.82,27.39,5.88l32.01-38.64ZM172.38,612.55l-1.35.41c-6.12,9.11-6.66,11.72,1.03,19.97,6.17,6.62,25.13,15.53,33.62,11.56.47-.22,6.7-7.45,6.81-7.96.27-1.3-.13-.87-.96-.98-4.17-.54-8.17-.12-12.61-1.21-10.29-2.53-22.49-11.83-26.53-21.79ZM171.31,637.29c-3.28-3.46-7.01-6.7-8.14-11.59-8.61,6.9-12.65,18.46-11.81,29.58,5.96-6.96,13.9-12.43,23-14.46.23-1.95-2.05-2.46-3.05-3.52ZM343.99,627.99v9.86c9.24,4.79,21.53,5.29,31.69,3.42,10.47-1.93,8.69-3.42,10.4-13.26-13.69,2.37-27.2,3.57-40.73-.75l-1.36.74ZM370.28,645.42c-9.4.39-18.5-.19-27.21-3.86-4.3,4.64-5.55,11.38-5.58,17.59,3.61-.02,15.64,8.58,18.26,6.57,1.79-8.57,7.99-14.96,14.53-20.29ZM401.84,648.69c-3.79-1.78-11.37-6.38-15.23-6.8-9.18-.99-27.04,15.63-28.17,25.2l16.43,3.95c4.24-10.64,15.67-20.25,26.96-22.35ZM204.46,648.85c-1.69-.91-11.52-1.07-14.88-1.89-6.07-1.48-6.94-4.53-13.92-3.21-7.02,1.33-16.44,7.09-21,12.52-4.3,5.11,1.79,13.38,2.94,12.8,9.6-14.73,32.78-19.32,48.98-15.77.38-.38-1.9-4.33-2.11-4.45ZM417.63,665.79c5.91-5.33-4.52-13.21-9.72-14.27-7.67-1.57-17.18,4.93-22.51,10-2.8,2.66-6.71,6.03-6.57,10.19h24.99c-.2-6.56-3.92-7.98-9.18-10.21-1.5-4.66,7.82-.36,9.54,1.64s2.13,4.72,2.27,7.27l8.48-2.05c1.87-5.93-9.4-8.65-10.14-9.77-3.12-4.73,5.38-1.6,7.53-.3,2.91,1.76,4.53,4.18,5.32,7.51ZM177.65,675.65h11.18c1.2-4.66-2.28-7-2.63-11.17,6.16.04,7.03,6.08,6.57,11.17l10.25-1.27c.7-.94-.06-4.25-.46-5.41-.55-1.58-5.63-5.33-2.78-6.38,5.85-.66,6.63,6.64,6.15,11.09.73.75,8.54-2.2,8.91-3.89-.23-3.06-3.2-9.58-5.67-11.52-10.1-7.97-41.68.28-48.6,11.79-.02,1.79,11.66,4.79,13.79,4.93,1.19-1.31-3.62-10.68.24-9.11,2.7,1.1,3.24,7.23,3.05,9.77ZM420.25,668.42c-9.16,6.77-22.69,7.76-33.84,7.22-16.79-.82-34-5.87-48.99-13.13-3.27,3.93,11.95,10.55,14.48,11.48,15.95,5.85,43.46,8.99,59.68,3.83,4.89-1.56,8.05-3.96,8.67-9.4ZM217.09,673.02c-17.31,9.03-39.38,8-57.18.98,6.48,9.84,22.51,10.19,33.21,9.56,7.05-.41,22.47-2.11,23.96-10.54Z"/>
  <rect x=".14" y="841.29" width="595" height=".66" fill="#fff"/>
  <path d="M590.54,446.25v391.09H4.08v-389.78l2.62.67-1.32.98c-.07.62,1.23-.23,1.38,1.27.51,4.82-.3,10.81-.09,15.85,1.36,32.09,4.22,64.25,9.93,95.83-4.63,2.77-6.7,6.62-7.26,11.95-1.48,14.04,1.19,30.93,1.47,45.18,2.5,3.68,6.43,6.14,10.37,8.04,28.23,13.65,88.36,6.82,113.82-11.73,8.51-6.2,8.29-8.02,6.93-17.63-1.16-8.17-5.81-37.16-11.19-41.73-2.41-2.04-5.78-3.06-8.7-4.12-.65-.98.02-2.6-.31-3.52-4.7-12.91-6.78-50-7.85-65.89-.75-11.21-1.2-22.53-1.25-33.76l92.32-.76,10.17,2.66c-.62,4.36-2.32,8.35-2.66,12.79-.42,5.42-.37,15.73.68,20.95.13.63,1.87.31,1.31,1.08-5.8,8.07-2.86,8.88-4.74,17.29-.81,3.63-6.79,10.38-8.59,13.8-6.16,11.74-13.3,28.27-16.07,41.09-.57,2.63-2.5,12.25-2.17,14.23.56,3.29,7.23,4.56,7.17,6.5-7.89,10-14.13,21-21.08,31.59-2.2,3.35-4.59,8.55-6.56,11.16-1.74,2.31-5.99,4.96-7.92,7.83-13,19.3-5.42,51.97,19.05,56.82,9.26,1.84,39.33,1.44,45.09-7.2,3.32-4.98-1.44-14.9-4.01-20.03-1.21-2.41-7.09-8.76-6.49-11.38l44.45-53.54c19.64-.02,37.81-2.82,56.67-7.76,4.02-1.05,20.35-7.17,22.59-6.99,4.88.39,7.25,11.88,7.99,15.57,2.4,11.88,2.36,31.73.03,43.71-.42,2.17-2.96,5.93-3.75,8.74-2.22,7.9-4.47,19.1,3.03,24.5,15.17,10.92,61.4,16.6,77.71,7.59,5.68-3.14,7.63-7.9,7.24-14.28-.92-15.1-24.4-20.11-35.33-26.48,2.31-20.69,7.01-41.35,5.08-62.27-.17-1.81-1.79-6.28-1.63-7.33.14-.91,2.01-1.74,2.11-3.26.36-5.24-13.32-23.93-17.21-28.55-6.24-7.41-14.83-15.55-22.31-21.74-1.58-1.31-9.04-5.47-9.38-6.97,2.63-5.7-.5-12.57-.03-17.5.4-4.16,3.72-12.73,4.83-17.58,1.58-6.9,2.47-12.97,3.9-19.76.77-.99,9.5-1.75,11.55-2.26,2.98-.74,12-4.29,14.12-4.29h97.63c-1.4,14.27-2.12,28.74-4.03,42.97-2.18,16.28-5.85,31.53-9.24,47.29l-.97,1c-14.4.2-14.34,12.78-17.88,22.85-2.89,8.24-7.09,17.71-8.97,26.55-1.56,7.35,1.47,10.1,6.88,14.81,24.77,21.58,80.34,33.34,111.11,21.66,3.69-1.4,9.15-3.9,10.73-7.67,2.97-7.07,4.21-23.22,5.76-31.59.1-.52,1.15-.48,1.24-.97,1.62-8.72,5.65-21.71-5.28-25.56,1.9-7.69,2.6-15.67,4.03-23.44.09-.49,1.15-.45,1.24-.97,5.15-28.8,8.07-58.4,9.9-87.59h8.55ZM152.67,486.35v-14.13c0-.2-1.09-2.54-1.28-2.66-4.18-.98-2.01,2.03-2.01,3.32v13.47h3.29ZM432.24,485.52c.34.46,1.83.95,2.47.54,2.37-1.38-.07-15.29-2.31-15.54l-2.81,1.78c2.04,2.76,1.42,11.55,2.64,13.22ZM143.71,479.55c-.86-1.48-6.76-11.07-9.14-7.69-1.94,2.77,1.75,3.03,2.91,4.37,3.15,3.61,4.78,7.41,6.08,11.99l3.2-.28c.98-4.12-1.55-5.8-3.06-8.39ZM163.84,472.55c-5-1.09-10.3,9.82-8.45,13.03,4.61,2.39,3.7-3.92,5.04-6.92s3.9-3.01,3.41-6.11ZM445.88,472.56c-5.31-2.11-9.81,12.18-6.88,13.13,2.57.83,3.19-5.78,4.12-7.72.82-1.71,4.25-2.49,2.76-5.41ZM410.17,486.55c-2.46-4.31-10.75-9.42-15.81-9.33s-17.45,7.8-16.73,13.24c1.37,10.32,40.55,10.09,32.54-3.92ZM167.42,530.1c-4.68-7.91-11.75-10.57-20.26-6.87-7.16,3.12-14.76,12.78-3.72,16.05,6.68,1.98,31.17,2.98,23.98-9.18ZM413.83,542.05c.25.35,1.74,1.08,2.17.19,1.49-2.07-1.13-13.82-3.31-13.81-2.4.01.38,12.57,1.14,13.62ZM422.82,542.81c-.94-2.2,6.91-12.77,3.68-13.06-2.42-.22-11.99,14.11-3.68,13.06ZM427.98,604.16c-7.25.99-12.96,4.91-11.36,13.01,1.22,1.9,21.63,2.76,23.74,1.34,1.46-.98,2.51-4.02,1.64-5.66-.37-.7-8.23-7.74-9.01-8.11-1.96-.92-2.93-.87-5.01-.58ZM282.42,628.09c-1.93-1.78-2.72-4.31-6.4-4.32-1.58,0-16.38,4.21-17.97,5.08-3.38,1.85-8.03,10.14-6.42,13.93,3.52,8.29,38.93,8.29,39.05-3.6.03-3.02-6.02-9.02-8.26-11.09ZM478.62,637.69c-2.86.28-30.47,8-31.48,9.3-1.1,5.68-.9,20.03,3.03,24.05,2.09,2.14,21.09,13.71,23.67,13.85,5.31.3,25.34-2.99,30.86-4.68,2.43-.74,15.31-6.47,16.45-7.88,2.12-2.64.85-18.79-1.65-21.31-2.65-2.67-22.37-9.07-27.07-10.4-4.04-1.14-9.87-3.32-13.81-2.94ZM553.55,637.64c-2.21.57-11.9,8-10.9,11.24.61,1.98,11.91,6.32,14,6.39,2.36.08,16.23-3.83,17.39-5.66,1.45-2.31,1.24-6.31-1.31-7.77-1.15-.66-18.23-4.45-19.18-4.21ZM86.37,661.09c-1.39-3.75-5.84-8.31-9.52-9.89-18.73-8.01-53.71,23.92-17.89,27.09,6.43.57,15.92.03,22.18-1.53,2.5-.62,4.56-2.61,7.48-3.03,4.94-.72,24.3,2.42,19.88-8.18-3.91-9.4-14.55-7.73-22.14-4.47ZM285.34,679.73l-22.24,5.42c-1.41,1.52,0,13.61,1.29,15.18,1.81,2.21,16.32,2.71,19.45,2.27,9.93-1.4,8.92-16.1,4.64-22.41-.98-.9-2.01-.55-3.14-.47ZM527.27,683.69c-3.37.77-9.56,8.05-12.31,10.72-1.63,1.58-5.83,3.12-6.02,6.55-.2,3.53,4.37,6.32,5.88,8.65,1.68,2.59,6.38,12.24,8.28,13.41,3.99,2.46,21.94-5.88,27.06-7.22.64-.58,2.36-9.66,2.31-10.92-.12-3.28-7.29-10.19-9.92-12.48-2.95-2.57-11.7-9.52-15.28-8.71ZM519.55,770.93c-.97-1.22,4.28-19.01,1.99-23.35s-19.83-10.16-22.69-13.47-1.95-14.66-5.9-17.1c-2.48-1.53-13.15-3.69-17.14-5.21-11.91-4.54-13.02-7.12-20.6-16.87-4.01-5.16-6.01-14.46-14.12-8.66l-44.51,30.43-9.26,52.85c-8.14-2.83-25.86,7.21-27.39,15.02s2.36,9.07,9.03,10.39c7.33,1.44,14.53.93,21.97.92,2.27,8.86,17.64,8.14,24.44,5.99,1.89-.6,2.97-2.54,5.22-2.71,5.14-.38,19.9,3.63,26.94,4.02,16.36.91,40.94-.86,56.22-6.94,4.67-1.86,8.98-5.59,13.17-7.21,4.76-1.83,14.57-1.17,14.52-8.54-.05-7.15-5.88-8.91-11.87-9.56ZM155.58,716.12c-2.44-4.31-6.33-13.8-9.91-16.05-4.42-2.78-18.29-6.04-23.41-5.19l-43.84,20.58c-2.3,2.38-.58,18.14,1.33,20.29,1.41,1.58,28.33,10.87,31.21,10.91,11.12-3.58,28.75-2.84,39.12-6.22,3.28-1.07,11.33-9.4,11.68-12.7.42-3.84-4.42-8.49-6.18-11.6ZM341.12,717.29c-7.23-9.23-16.04-8.28-25.06-2.19-7.38,4.98-11.82,10.96.16,13.61,7.2,1.6,35.78,2.45,24.9-11.42ZM46.16,729.55v-11.5c0-3-3.29-4.79-3.29-2.63v11.17c0,1.22,1.67,3.7,3.29,2.96ZM28.59,718.2c.67.56,2.11.27,3.38,1.54,2.17,2.16,5.18,11.43,6.61,11.12,3.63-.78-2.59-15.84-8.54-15.83-2.38,0-2.96,1.91-1.46,3.17ZM49.51,729.48l3.59-.54c-1.55-2.95,5.27-11.18,2.57-11.87-3.91-1.01-8,9.37-6.17,12.42ZM216.87,724.41c-1.62.1-14.21,8.76-16.52,10.41-3.24,2.32-12.98,9.34-14.81,12.14-2.31,3.53-6.02,18.58-3.57,21.98,4.04,5.62,29.1,10.21,36.12,13.25,11.38-3.54,21.12-11.59,31.6-17.12.59-.66,3.54-15.6,3.49-16.83-.08-1.87-2.22-3.74-3.55-4.88-3.23-2.77-30.21-19.12-32.75-18.96ZM301.91,768.66c-.48,3.63.35,8.09,0,11.83,1.01,1.39,2.27,1.39,3.29,0v-12.16c0-.06,1,.12,1.1-.18.66-1.95,4.18-7.56,1.8-8.31-3.81.01-5.78,5.71-6.19,8.82ZM295.12,769.85c-.97-1.26-7.32-7.4-8.29-4.43-.82,2.52,2.72,3.55,4.19,5.58,2.04,2.82,3.94,6.85,5.03,10.08,6.55,3.76.9-8.86-.93-11.24ZM319.63,769.6c.2-.32.12-1.56-.26-1.97-5.61-4.67-12.22,11.19-10.23,13.19l2.67-.29c1.05-2.87,1.09-6.07,3.34-8.49,1.45-1.56,4.34-2.22,4.48-2.44ZM86.53,775.96c-6.83-7.81-14.92-9.91-24.61-5.36-3.55,1.67-12.54,9.69-11.7,13.67,4.24,9.93,38.11,9,40.52.67,1.1-3.82-2.07-6.53-4.21-8.98ZM536.97,787.69c3.58,5.26,14.41,5.55,19.91,3.85,17.5-5.41-6.12-24.52-16.31-13.02-2.36,2.67-5.46,6.43-3.6,9.17ZM145.94,777.69c-2.39.59-8.22,7.35-8.76,9.7-2.44,10.56,23.52,10.58,27.34,5.6,6.72-8.77-12.42-16.81-18.58-15.3Z" fill="#fff"/>
  <path d="M133.33,240.92c-4.24,18.92-9.28,39.78-12.82,58.61-1.68,8.95-2.78,18.07-4.01,27.09-1.89-2.49-3-5.6-6.9-5.32-10.34,4.11-3.63,16.36-2.93,24.03.16,1.81.33,22.09-1.99,20.73-1.21-5.84-9.24-12.8-15.09-9.48-.51.29-3.26,3.29-3.37,3.86-1.06,5.46,5.31,12.85,6.96,18.09,1.47,4.68.85,10.24,4.06,14.94,2.06,3.02,10.29,7.15,10.7,9.09.4,14.22-.46,28.52,0,42.73.64,20.03,2.74,40.94,4.64,61.09,1.5,15.9,4.12,31.8,5.62,47.7-1.31,5.58-20.19,12.42-25.51,13.95-16.84,4.84-40.16,5.7-57.04.81-3.1-.9-13.74-4.71-15.17-7.18-1.56-2.69-1.93-13.76-2.61-17.65C1.32,450.12,9.78,348.56,28.45,255.47c2.32-11.55,8.01-42.92,12.37-52.3.39-.83.26-2.88.84-3.3,32.65-9.69,69.71-1.2,96.21,19.59-1.57,7.13-2.95,14.34-4.55,21.47ZM64.57,207.65l-2.7.39c-1.3,5.73-3.26,11.45-4.33,17.23-1.28,6.89-3.14,8.39,1.76,14.28l17.1,15.76c-1.77,3.52-14.68,10.78-15,13.3-.36,2.79,2.71,4.22,3.56,6.02.79,1.67,4.83,11.84,4.8,12.9-.1,4.02-8.99,15.24-10.16,20-.3.68,1.08,1.93,1.39,1.98,1.63.28,10.01-17.11,10.83-19.7,4.78.97,11.1,11.02,13.8,12.16,2.53,1.07,3.11-.81,1.75-2.75-3.36-4.78-12.62-10.31-14.91-13.67-2.64-3.88-3.83-12.22-7.17-16.36,4.71-5.32,18.59-12.24,19.61-19.21.51-3.52-.52-7.28.39-10.79l13.49-12.81c-1.05-.95-2.6-1.22-3.93-.67-.73.3-10.91,10.03-11.48,10.91-3.38,5.16-.27,10.55-2.96,15.99l-1.63.34-19.34-18.83c-1.03-5.01,6.2-25.38,5.14-26.47ZM40.68,367.18c1.95-18.43,3.63-36.9,6.24-55.25.89-6.25,3.92-16.17,3.86-21.83-.01-1.22.19-2.1-1-2.91-1.67-.09-2.97,8.85-3.3,10.49-2.74,13.54-5.3,29.94-6.94,43.03-2.94,23.37-4.22,47.18-5.21,70.7l2.01-.29c2.08-13.96,1.72-28.62,3.19-42.81.11-1.09,1.13-1,1.15-1.13ZM74.66,403.09c1.07-1.7,5.68-4.61-.81-4.73l-12.39,19.4c2.36,7.22,8.39,13.21,11.62,20.27l-6.6,12.77-22.7-11.72c-.94-.15-1.59.71-1.59,1.59,0,2.37,19.01,11.58,22.37,12.82-2.74,2.93-6.55,7.38-4.75,11.66,3.07,3.71,18.09,14.68,19.09,18.4.38,1.41-1.89,12.78-2.62,14.18-2.27,4.31-10.34,11.4-13.05,16.05-.51.87-.73,1.8-.63,2.81.98-.09,2.28.3,3.14-.14s9.48-16.34,11.97-14.32c.6,2.99,1.91,6.63,3.78,9.04,2.26,2.91,6.2,3.96,8.06,6.4.43.57,7.15,16.74,5.77,6.08-1.27-9.81-9.89-10.88-13.32-17.6-4.66-9.12.28-12.61.24-20.77-.01-2.45-2.06-4.22-1.81-5.67.61-3.54,15.03-17.99,14.37-20.53-.22-.85-1.81-1.42-2.64-.68l-14.11,18.58-16.02-14.05,14.9-23.76c-2.09-7.26-8.82-13.41-11.7-20.86,2.9-5.22,6.25-10.18,9.43-15.22ZM39.81,534.79c-1.2-8.16-2.09-16.89-2.84-25.12-.38-4.12-.8-28.05-1.64-29.25-.62-.9-1.37-.67-2.31-.64-.02,24.26,3.06,48.36,6.58,72.3l2.66-.29c1.04-.69-1.02-13.82-1.39-16.31-.07-.48-1.03-.56-1.05-.68Z" fill="#fff"/>
  <path d="M559.88,223.86c5.47,19.88,9.32,44.19,12.2,64.47,6.83,48.06,9.4,96.85,7.27,145.43-3.16-4.45-11.92-8.7-14.73-12.55-.94-1.29-1.91-4.58-2.87-6.35-.79-1.44-3.12-2.16-3.3-4.59-.2-2.85,2.14-5.47,2.43-6.61,2.44-9.64-6.07-20.39-7.86-30.07.16-3.67,13.5-13.26,9.93-15.79-.8-.57-2.09-.12-2.84.34-.81.5-10.98,14.45-10.97,15.4,2.42,8.27,9.21,18.19,8.46,26.95-.29,3.34-2.96,7.22-2.43,10.42.45,2.72,6.77,10.35,6.34,11.94l-18.06,15.43c-11.75-5.79-19.77-13-25.57-24.84-.65-3.32,8.49-12.14,8.65-13.15.38-2.47-1.75-2.55-3.41-1.41-1.35.93-8.68,12.42-8.66,14.06.05,4.2,8.95,12.67,8.28,15.74l-20.94,17.55,4.18-.07,19.81-15.04,14.8,8.88.58,1.84c-3.64,3.68-5.94,10.34-9.09,13.97-3.94,4.54-17.16,10.51-19.03,15.95-3.03,8.84,1.74,10.21-8.41,16.44-2.61,1.6-8.36,2.05-7.44,6.03,1.62,1.6,15.34-6.59,16.89-8.74,2.6-3.61,1.21-10.9,3.48-14.61,2.11-3.45,12.95-8.46,16.1-12.15l12.81,16.81-5.22,44.32,2.01-.28c1.32-1.2,3.98-28.04,4.59-32.11.07-.49,1.18-.46,1.25-.95.57-3.62.7-7.4,1.4-11.02l-14.53-19.69c4.24-4.8,6.28-11.54,10.82-16.18,1.14-1.17,2.68-1.27,3.68-2.24,4.4-4.23,8.68-8.41,13.55-12.11,1.16-.18,14.1,11.33,14.56,12.88.56,1.92.21,7.36.17,9.74-.71,37.12-9.13,74.41-15.51,110.69-15.14,9.98-37.88,6.9-54.74,2.87-14.88-3.55-30.22-9.99-41.56-20.38-.75-2.02,1.19-2.21,1.29-2.66,9.57-44.19,13.77-89.34,14.62-134.48,4.94-3.44,8.86-4.87,12.09-10.26,1.77-2.96,2.79-7.91,4.6-10.52,3.61-5.22,11.31-5.98,11.52-14.15.35-13.88-15.4-3.16-21.03.06l-1.36-.75c.81-1.97.72-4.45,1.36-6.37.2-.59,1.18-.66,1.44-1.35,2.28-5.94,9.89-19.11,9.54-24.29-.38-5.68-3.36-4.7-5.1-6.78-.91-1.09-.88-2.59-1.68-3.57-5.93-7.27-12.76,2.86-13.45,1.95l-12.16-92.12c6.9-7.59,16.18-13.15,25.61-17.01.65.05,4.16,10.19,5.32,11.82,1.67,2.35,4.47,2.65,5.48,4.37,3.59,6.11-10.24,14.15-7.48,20.63,1.94,4.55,23.33,7.22,23.33,12.16-.63,4.51-19.69,24.79-19.08,26.3.24.59,2.56,1.21,3.19.9l6.7-9.11,8.91,7.89-8.11,21.9,10.71,17.53c.83,1.12,3.09.99,3.54-.38.58-1.8-9.82-15.2-10.39-18.35l7.65-20.95-8.78-10.59c18.62-21.73,3.69-20.51-14.43-28.57-2.36-3.5,13.32-13.1,6.31-22.06-1.32-1.68-4.11-2.63-5.28-4.1-.69-.87-4.91-10.19-4.59-10.67,18.94-6.52,39.68-10.22,59.57-6,1.12.89,2.54,10.17,3.13,12.34ZM535.18,220.29c-.18-.28-1.79-1.07-2.19-.18-1.28,2.23,8.28,44.29,9.37,50.49,2.34,13.31,4.3,27.43,6.73,40.06.54,2.8-.05,16.35,4.04,11.02-2.95-20.54-5.72-39.9-9.46-60.27-2.17-11.85-4.4-24.9-7.63-35.87-.39-1.32-.25-4.33-.85-5.25ZM502.87,538.07c1.78-6.98,5.03-19.35,5.88-26.08.13-1.06.36-1.22-.73-1.98-1.82-.3-2.03.7-2.51,2.07-1.33,3.78-2.84,9.63-3.78,13.34-2.03,8.02-3.07,16.56-4.54,24.67,4.71.06,3.82-8.3,4.63-11.35.13-.48,1.01-.51,1.06-.67Z" fill="#fff"/>
  <path d="M375.97,541.14c1.73,2.16,15.74,21.97,14.04,23.42-35.7-2.62-66.81,16.7-101.11,22.81-25.29,4.51-53.05,3.97-77.5-4.29-3.16-1.07-24.8-10.07-25.23-11.76,3-23.84,13.97-45.26,25.71-65.9,41.09,18.09,88.72,17.77,131.61,6.03,1.85.39,19.2,14.9,21.57,17.27,3.06,3.06,8.18,9,10.92,12.42ZM315.06,534.99c-2.23-1.21-6.22,5.38-7.55,6.58-7.25,6.51-15.44,13.1-24.09,17.98-3.34,1.88-13.23,5.29-15.29,7.07-1.64,1.41-1.7,3.13.74,2.73s7.37-2.87,9.82-4.01c14.05-6.55,26.59-16.77,36.7-28.36l-.33-1.98Z" fill="#fff"/>
  <path d="M352.14,303.36c8.06,10.01,6.15,15.08,8.59,26.57,3.23,15.2,22.06,29.78,20.67,41.66-1.1,9.36-13.79,10.68-5.2,18.13l-15.77,3.29-6.19-62.48c-3.55-1.35-7.1.19-11.15-.06-4.37-.27-13.12-3.72-16.21-6.79-3.49-3.46-2.68-10.64-7.87-10.2-.31,9.27-11.56,15.15-20.03,15.8-4.37.34-13.69-2.34-15.85-1.47-1.41.57-4.67,6.73-6.44,8.44-4.03,3.87-8.56,4.7-13.6,6.56l.13,2.16c.54.18,1.68-.26,1.92.43.72,2.06-.3,12.29-.03,15.72.89,11.32,4.57,21.39,12.96,29.17,5.54-1.05,8.52-5.62,14.28-7.81,3.35-1.28,10.97-2.98,14.5-2.66,4.32.4,7.3,4.59,13.79,4.7,5.96.1,7.59-3.89,12.98-3.17,1.74.23,5.99,2,7.65,2.88,3.13,1.66,8.55,8.66,11.73,4.67,1.18-1.48.92-7.47,3.46-7.7.92,15.03,1.67,27.32-8,39.65-18.34,23.4-68.85,16.58-84.06-7.76-9.01-14.41-8.63-30.16-9.25-46.69-.25-6.69,3.85-12.45-7.42-11.43-20.97,1.9-16.61,36.87,4.9,34.39l.64,5.99c-3.88-.55-9.5,1.85-12.79,1.6-3.06-.23-9.19-3.06-12.73-3.76-5.62-1.11-11.54-1.67-17.25-2.15-1.53-5.53,6.57-4.1,7.78-8.37.51-1.79-3.43-8.07-3.56-12.23-.7-22.03,19.62-24.2,26.36-37.91,8.33-16.96,7.6-27.88,27.09-38.65,19.68-10.88,28.48-4.54,47.44-2.46,3.58.39,8.14-1.16,12.25-.93,9.83.56,18.27,5.42,24.27,12.87ZM292.07,400.87c3.54,1.4,5.55-2.41,8.38-3.74,5.15-2.43,13.88-3.5,19.48-2.75,4.63.62,9.06,4.37,12.06,5.06,3.52.82,3.14-1.84,1.16-3.82-6.06-6.06-22.85-6.01-30.58-3.61-2.58.8-12.5,5.14-10.5,8.85ZM322.95,403.52c.28-6.8-18.68-5.87-14.72.64,5.62-3.04,9.11-.47,14.72-.64Z" fill="#fff"/>
  <path d="M120.68,350.09c.03.16.97.21,1.06.68,1.28,6.6.53,15.61,2.01,21.54.19.75.22,1.28,1.09,1.54,22.27,5.32,44.24,16.44,66.97,19.16,12.75,1.52,24.98,1.1,37.81,4.27,7.24,1.79,13.6,2.71,15.58,10.72,4.99,20.27-4.66,49.1-28.08,51.41-.24-.24.75-6.34.94-6.61.37-.5,5.71-1.1,3.62-3.87-.63-.84-17.37-4.67-20.32-5.65-33.84-11.31-58.54-25.04-88.32-43.82-4.14-2.61-8.07-2.2-11.52-6.89s-3.53-10.05-5.35-15.02c-.96-2.6-10.1-18.39-3.68-18.7,5.88-.28,10,9.2,11.62,13.71l2.08-.03c2.66-1.02,2.68-7.94,3.14-10.56,1.52-8.57,1.25-9.68-.01-18.05-.92-6.13-3.97-14.41.32-19.25,7.42,5.4,9.24,16.93,11.06,25.44Z" fill="#fff"/>
  <path d="M491.83,331.15c-5.56,1.6-17.72,18.8-16.27,23.97,1.15,4.12,3.09-2.75,3.25-3.01,2.36-3.82,12.01-20.75,17.28-18.87,6.45,2.31-5.9,18.8-7.3,22.13-1.26,3.01-6.02,16.97-1.79,17.94,4.31,1.64,17.57-11.37,20.4-7.29,2.54,7.91-5.18,8.9-8.92,13.05-4.4,4.88-4.55,11.93-9.74,16.55-5.59,4.96-10.43,4.06-16.8,6.68-8.06,3.31-18.42,11.02-26.79,15.29-28.23,14.4-60.13,26.28-91.31,31.96.7-8.67-2.99-15.49-4.49-23.85,7.04-8.25,10.87-17.7,11.15-28.65,15.87-6.11,33.06-5.63,49.39-8.14,18.22-2.81,36.8-11.14,55.04-14.65,2.43-1.53,1.49-6.69,2.02-9.04.46-2.05,1.43-5.75,2.15-8.48,3.08-11.76,8.33-23.13,19.08-29.63,1.98-.65,4.8,2.51,3.65,4.06Z" fill="#fff"/>
  <path d="M168.2,149.39c.58,1.11,1.39,2.1,1.52,3.43-.74,18.53-8.7,37.08-12.99,55.21-.86,1.57-7.3,5.68-9,6.18s-.62-.54-.47-1.12c2.84-10.94.2-15.18-8.74-21.85-20.24-15.1-73.22-26.21-95.44-12.63-6.44,3.94-7.66,9.29-6.13,16.56-10.31-7.45-6.71-21.47-7.08-32.39.51-2.17,9.88-11.4,12.08-11.63,4.29-.45,7.2,2.48,12.92.48,3.95-1.38,5.59-5.62,7.9-6.56,3.26-1.33,10.17-.71,13.19-2.59,2.16-1.35,3.26-7.68,4.53-8.28,1.98-.94,5.51,1.35,5.79-3.43,2.42-1.66,10.14,15.71,11.57,17.01,3.37,3.08,9.57-.34,14.42,3.33,5.32,4.02,12.63,18.52,17.37,24.04,4.54,2.77-.7-7.01-1.83-7.91l8.25-8.11,13.98,7.13c3.09-3.32-11.37-11.1-14.14-11.09-4.18,0-5.77,7.01-9.19,9.1-1.1,0-10.39-14.26-12.86-16.04-4.28-3.09-8.83-1.67-13.49-2.94l-11.37-17.57,6.93-13.26c3.67-1.34,27.98,4.02,32.95,5.62,14.39,4.62,32.21,15.67,39.34,29.34Z" fill="#fff"/>
  <path d="M259.44,411.82c7.27,13.38,16.91,13.72,23.85,21.5,7.43,8.33,9.68,15.74,20.38,24,11.71,9.04,28.14,14.82,42.95,15.23l-4.72,17.63c-40.43,11.07-85.26,10.87-124.21-5.41-1.28-1.77-1.89-19.95-.94-21.45,4.66-1.66,8.31-1.75,12.85-4.24,18.45-10.13,27.06-41.6,15.77-59.49l9.23-.36c1.61,4.45,2.54,8.34,4.84,12.58Z" fill="#fff"/>
  <path d="M272.32,287.2c.33,1.8-.31.99-.97,1.31-2.39,1.14-4.85,1.96-7.13,3.4-10.28,6.49-19.39,17.1-22.81,28.8-1.79.2-1.03-.06-1.3-.98-1.85-6.47-2.72-9.63-7.88-14.49-10.76-10.14-29.86-11.23-38.14,2.32l-.67-3.28c6.91-.39,3.03-10.87,1.43-14.92-7.43-18.83-34.99-19-44.96-2.65-.71,1.17-1.64,4.9-1.87,5.05-.77.5-3.7-1.79-5.29.28-1.59,5.48-1.12,12.31,4.64,14.9l-1.3,3.23c-4.92-1.76-6.67-6.27-12.02-8.02-2.2-.72-9.21-1.07-9.58-2.22l5.85-28.19c25.82-17.05,58.16-44.33,90.25-25.86,18.97,11.52,34.96,26.92,51.73,41.3Z" fill="#fff"/>
  <path d="M568.83,579.03l-6.61,36.43c-28.31,18.33-80.22,8.17-107.34-8.93-3.03-1.91-15.15-11.65-15.55-14.74-.95-7.38,10.37-27.04,10.52-35.77,22.2,23.83,63.9,33.75,95.64,30.88,8.15-.74,16.76-2.98,23.34-7.88Z" fill="#fff"/>
  <path d="M133.6,571.14c-.21,7.73,7.44,28.49,5.65,34.86-1.05,3.72-10.65,9.64-14.18,11.49-24.61,12.9-71.99,18.64-97.96,8.52-3.49-1.36-12.61-5.85-13.52-9.49l-.96-36.17c1.72.97,2.72,2.75,4.38,3.83,24.3,15.91,81.22,10.98,105.5-4.08,4.39-2.72,6.77-6.5,11.09-8.96Z" fill="#fff"/>
  <path d="M398.15,323.08c2.52,2.13,4.14,2.92,6.21,5.96,1.67,2.46,4.51,11.72,5.14,11.96,2.19.83,7.24-4.78,10.73-6.19,11.79-4.75,27.54-1.53,31.89,11.55.7,2.11.96,8.08,2.32,8.88,2.76,1.61,7.61-5.14,11.83-2.98l-3.63,18.39c-20.03,5.98-39.82,12.66-60.58,15.53-2.05.28-5.1.67-7.16.87s-13.46,1.85-14.14,1.64c-.52-.17-3.3-3.1-3.2-3.81,2.71-2.87,5.73-6.43,6.85-10.29,4.42-15.29-10.42-22.8-15.92-34.68-3.38-7.29-4.22-14.93-5.48-22.75,13.73-4.35,24.18-3.33,35.13,5.91Z" fill="#fff"/>
  <path d="M461.02,99.2c1.46-13.96,25.95-28.42,36.5-16.45,1.78,2.02,3.11,7.8,6.89,5.61,1.81-1.05,1.25-9.43,2-12.46,5.77-23.2,49.1-29.82,58.59-4.76,1.89,5,1.37,8.85,2.9,13.63,2.8.76,5.21-4.72,6.82-6.3,4.44-4.33,9.41-6.75,15.8-6.23v26.95h-129.52Z" fill="#fff"/>
  <path d="M349.87,333.89c.56.49,1.7,11,2.04,12.64.1.51,1.18.47,1.26.94,2.2,13.09,2.28,26.47-3.28,38.31-5.57-3.85-10.53-7.61-17.73-7.9.3-2.69.43-4.76-.09-7.46-.39-2-9.12-17.33-10.12-17.5s-1.51.79-1.67,1.66c-1,5.68,15.06,18.66,4.85,25.17-7.08,4.51-11.73-2.79-16.49-3.68-7.48-1.4-23.75,4.49-28.77,10.38-11.25-9.96-12.8-27.71-10.86-41.77,6.75-.13,12.21-11.3,15.82-13.14.69-.35,11.34,1.2,14.13,1.02,7.93-.53,17.7-4.73,21.67-11.85,5.62,10.42,18.06,13.97,29.23,13.18ZM328.37,350.8c3.2,5.68,27.09-3.61,19.53-9.35-.6-.46-2.14-.93-2.93-.93-3.08,0-18.76,6.46-16.6,10.28ZM283.79,348.67c4.13,3.37,18.9,5.92,23.35,2.57,5.38-4.05-3.29-4.44-5.22-5.23-6.41-2.62-17.62-10.21-19.7,1.15.05.2,1.25,1.25,1.56,1.51ZM297.79,357.04l-4.64-.74c-9.84,16.07,12.12,20.65,4.64.74ZM342.5,357.7c-6.9-5.85-10.35,10.56-3.19,11.98,5.29,1.06,5.93-9.66,3.19-11.98Z" fill="#fff"/>
  <path d="M387.94,567.29c5.51,3.35,1.63,48.43-.72,56.27-13.65,4.6-28.77,4.46-42.48.06-.43-9.84.53-19.84-.94-29.63-1.07-7.13-3.59-11.23-7.71-16.93,16.84-5.27,33.99-9.99,51.84-9.77Z" fill="#fff"/>
  <path d="M473.5,288.5c-.32,11.37,2.88,22.59,3.28,33.86.4,11.27-.84,9.88-5.6,18.7-1.22,2.26-2.3,5.35-3,7.84-4.28-.74-7.14-.33-11.11,1.38-3.82-17.29-19.67-24.75-36.31-19.53-3.49,1.1-6.11,3.95-9.71,4.41-.97-5.23-5.58-10.18-9.2-14.13,6.34-5.87,68.9-35.38,71.65-32.54Z" fill="#fff"/>
  <path d="M164.07,349.4c4.48,4.4,17.74,3.28,18.1-4.64l1.05-.45c12.62.42,14.69,10.22,18.15,19.91.15.43,1.07.56,1.35,1.45,2.44,7.68,3.98,16.69,3.85,24.71l-10.89-1.28c-.55-3.42.16-26.04-1.95-27.02-.39-.18-1.62.17-2.28.03-.4,3.61,2.97,26.06.24,26.99-14.49-.51-28.2-7.14-41.94-11.27-2.61-2.13,1.18-11.58.27-15.07l-3.18,1.09-1.43,12.72-15.49-5.24c2.9-10.4,11.32-27.07,22.85-29.81,11.9-2.84,6.49,3.15,11.29,7.87Z" fill="#fff"/>
  <path d="M248,593.5l-32.01,38.64c-6.04,1.93-21.84-2.52-27.39-5.88-4.02-2.44-13.35-12.25-14.11-16.84-.49-2.96,1.45-4.9,3-7.24,3.42-5.15,8.83-13.6,12.66-18.02.61-.7,4.02-4.3,4.36-4.36,16.92,8.34,34.8,11.96,53.48,13.7Z" fill="#fff"/>
  <path d="M342.67,493.57c.67,4.85.62,9.58-.79,14.33-30.6,9.29-66.56,11.02-97.97,4.55-4.56-.94-29.92-7.92-30.8-11.96-.4-1.51,2.68-11.9,3.71-12.15,39.74,15.88,84.75,16.65,125.86,5.23Z" fill="#fff"/>
  <path d="M459.99,560.99c-8.73-7.29-11.87-15.92,1.99-19.44,8.5,7.38,17.3,13.34,27.79,17.59,22.41,9.11,53.84,14.47,76.07,2.75,10.97,8.18.03,16.46-8.98,19.28-26.35,8.23-75.51-2.36-96.87-20.19Z" fill="#fff"/>
  <path d="M127.4,571.5c-16.74,20.21-95.56,27.65-112.15,6.55-3.37-4.29-1.34-12.75,3.75-12.67.6,0,8.68,4.48,10.88,5.28,23.53,8.58,62.2,6.06,83.54-7.54,5.19-3.31,8.53-10.79,14.95-4.16,4.33,4.47,2.42,8.46-.96,12.55Z" fill="#fff"/>
  <path d="M143.72,202.8c.31.58,1.45.41,1.68,2.6.43,4.18-2.84,9.34-6.77,10.68-20.79-17.46-51.4-25.49-78.32-23.54-3.48.25-15.77,3.5-17.07,3.29-.73-.11-3.57-2.88-3.62-3.13-1.07-4.42,2.09-8.8,5.67-11.25,20.19-13.74,86.55-.92,98.44,21.33Z" fill="#fff"/>
  <path d="M391.98,443.62c22.51-8.03,44.55-17.45,65.67-28.67,5.21-2.76,10.76-7.12,16.07-9.57,1.12-.52,4.74-2.38,5.05-.24,1.6,10.97-1.89,25.5-1.32,36.83l-.98,1.65h-84.48Z" fill="#fff"/>
  <path d="M320.32,287.18c-4.15,1.92-7.15-.99-11.14-1.67-11.01-1.87-22.33-2.61-33.14.88l-37.24-33.38c32.71-16.83,58.12,16.6,81.52,34.16Z" fill="#fff"/>
  <path d="M346.61,429.16c2.97,8.87,3.26,19.3,2.67,28.62-.16,2.48-.71,10.91-2.99,11.48-24.15-1.32-45.73-14.69-58.84-34.52,19.94,6.52,41.06,5.6,59.16-5.58Z" fill="#fff"/>
  <path d="M190.38,308.66c2.09,7.19,1.52,14.07-.69,21.12-3.36,10.71-7.97,13.23-19.41,11.77-10.19-1.3-12.59-8.28-13.31-17.59-3.82-3.01-2.64,1.64-5.64.38-3.76-2.26-4.66-18.55,2.65-16.79l.74,9.12c6.9,1.76.08-6.82,3.55-10.43,1.69-1.76,12.64-4.09,14.45-8.43,4.62,3.85,10.39,4.79,16.1,6.13,1.46,1.24,1.1,3.1,1.57,4.7ZM159.9,310.19c1.57-.03,9.59-1.52,9.2-3.6s-10.45.19-9.2,3.6ZM186.82,307.61c-.17-.22-5.01-1.46-5.46-1.3l-1.07,2.56,6.58.66c-.09-.56.16-1.66-.04-1.92ZM178.58,315.18c-1.41-1.39-2.73-3.77-4.88-1.36-.46,2.15,6.09,5,2.95,9.5-.53.76-5.42,3.38-1.87,4.56,4.95,1.65,9.68-6.93,3.8-12.71ZM168.37,314.2l-5.22-.45-.29,3.66c1.94,3.02,7.08-1.27,5.52-3.22ZM182.26,313.48c-2.53,2.5,3.96,6.22,4.56,2.21.29-1.95-3.95-2.82-4.56-2.21ZM181.59,334.51c.74-3.19-4.65-3.43-6.9-3.33-2.06.09-7.16,1.37-7.55,3.99l14.46-.66Z" fill="#fff"/>
  <path d="M490.2,146.24c2.44,1.61,4.39,5.09,5.94,7.56,3.14,5,5.66,10.46,8.9,15.41-3.29,3.21-6.24,7-9.49,10.19-3.79,3.72-9.81,5.07-8.23,11.81-12.08.24-23.86-1.76-35.51-4.61-.3-1.69.23-1.02.92-1.37,5.99-3.06,23.41-7.38,27.13-11.98,3.72-4.6,6.11-21.05,9.1-27.39.82-1.73.98.2,1.23.37Z" fill="#fff"/>
  <path d="M532.67,126.81c.65.73-3.6,17.21-4.32,19-1.2,2.99-4.36,4.85-6.07,7.73-4.05,6.81-3.9,14.69-14.48,13.91l-15.21-24.55,40.08-16.1Z" fill="#fff"/>
  <path d="M190.4,288.9c2.18,3.82,3.82,7.16,3.69,12.08-8.15,1.04-15.06-3.18-22-6.6-5.4,5.16-15.83,11.55-23.57,9.11-2.65-.84-2.57-6.23-2.42-8.42,4.96,2.19,5.37-5.03,8.2-8.58,9.68-12.13,28.11-11.62,36.11,2.41Z" fill="#fff"/>
  <path d="M177.65,675.65c.19-2.54-.35-8.67-3.05-9.77-3.86-1.57.95,7.8-.24,9.11-2.13-.14-13.81-3.13-13.79-4.93,6.92-11.52,38.5-19.76,48.6-11.79,2.46,1.95,5.44,8.47,5.67,11.52-.37,1.69-8.18,4.64-8.91,3.89.48-4.45-.29-11.75-6.15-11.09-2.86,1.05,2.23,4.8,2.78,6.38.4,1.16,1.16,4.47.46,5.41l-10.25,1.27c.46-5.09-.41-11.13-6.57-11.17.35,4.17,3.82,6.51,2.63,11.17h-11.18Z" fill="#fff"/>
  <path d="M233.54,322.35c-2.35-17.72-29.61-20.91-34.88-3.32-3.83,12.77-2.24,37.44,16.47,35.2-4.04,6.51-6.01,15.41-3.47,22.86.81,2.37,2.23,2.78,2.81,4.73l-3.65,1.95c-1.37.26-.73-.21-1.02-.86-1.63-3.7-2.59-14.35-4.19-19.49-2.68-8.6-7.78-19.57-17.44-22.03,1.96-3.84,3.68-5.19,4.94-9.53,2.94-10.14-.27-23.99,11.06-29.03,8.97-3.99,21.13-1.23,27.29,6.47,3.51,4.4,8.44,17.17,6.26,22.41-.28.68-3.48,2.97-4.17,4.1-.4-4.24.55-9.36,0-13.47Z" fill="#fff"/>
  <path d="M230.11,322.83c1.32,5.38,1.4,13.8-2.14,18.27-1.72,2.17-3.73,2.37-5.31,3.89-4.46,4.32-2.99,7.47-10.19,6.31-12.27-1.97-12.44-16.83-11.47-26.66,10.82-7.37,17.45-8.18,29.12-1.82ZM209.05,322.8c-1.87.13-5.3,2.22-2.81,3.81,2.52-.07,7.82-4.15,2.81-3.81ZM222.13,322.74c-4.99,1.66,6.74,4.65,6.79,2.24-.78-1.51-5.59-2.64-6.79-2.24ZM209.02,328.7c-2.35.68-2.74,4.81.49,4.52s3.39-5.63-.49-4.52ZM224.15,328.71c-4.06,1.25-.31,6.57,3.19,3.88,2.43-1.86-.25-4.78-3.19-3.88ZM213.16,338.44c6.42,2.9,11.48-5.55,3.95-7.21l.6,4.53c-.24.38-6.07,1.15-4.54,2.68ZM218.97,341.18c-4.5-1.87-8.77-.98-8.45,4.5l8.54.66-.09-5.16Z" fill="#fff"/>
  <path d="M111.91,404.51l1.31-.67,11.75,7.69c-2.95,12.98-2.15,24.27,13.89,24.2v9.2h-25.97l-.99-.99v-39.44Z" fill="#fff"/>
  <path d="M172.38,612.55c4.04,9.96,16.25,19.27,26.53,21.79,4.44,1.09,8.44.66,12.61,1.21.83.11,1.23-.32.96.98-.11.51-6.33,7.74-6.81,7.96-8.49,3.97-27.45-4.94-33.62-11.56-7.69-8.25-7.15-10.86-1.03-19.97l1.35-.41Z" fill="#fff"/>
  <path d="M401.84,648.69c-11.29,2.11-22.72,11.72-26.96,22.35l-16.43-3.95c1.13-9.57,18.99-26.19,28.17-25.2,3.85.42,11.44,5.02,15.23,6.8Z" fill="#fff"/>
  <polygon points="143.14 444.94 142.09 442.64 143.8 422.58 194.09 444.94 143.14 444.94" fill="#fff"/>
  <path d="M142.81,322.02c-1.19,5.43,2.21,15.62.31,20.36-.39.98-3.29,3.04-4.23,4.31s-4.99,7.83-5.42,8.05c-1.26.63-7.05-.21-8.02-1.09-.54-.49-2.21-12.34-2.83-14.42-.78-2.62-3.07-4.03-3.43-7.07-.44-3.73.39-7.45,1.2-11.03,2.21-3.12,18.43,1.76,22.42.89ZM138.21,323.34c-.46-.47-7.15-.14-6.57,2.62h6.57c-.09-.63.17-2.46,0-2.62ZM126.37,324c-.68-.7-3.8,1.06-3.28,2.62l2.64-.31c.75-.29.85-2.09.64-2.31ZM124.85,329.36c-2.76.67-1.79,4.24,1.12,3.11,1.94-.75,1.23-3.68-1.12-3.11ZM131,337.18c-1.81,2.74,3.3,3.61,6.19-.07,4.02-5.13-1.71-9.46-2.28-7.52,2.92,6.44-3.08,6.34-3.91,7.59ZM125.72,345.68c1.75.48,3.26-1.42,4.52-1.61,1.13-.18,5.25,1.75,5.32-.02.14-3.46-11.22-5.79-9.84,1.63Z" fill="#fff"/>
  <path d="M417.63,665.79c-.79-3.32-2.41-5.74-5.32-7.51-2.15-1.3-10.65-4.44-7.53.3.74,1.12,12.01,3.84,10.14,9.77l-8.48,2.05c-.14-2.54-.55-5.28-2.27-7.27s-11.04-6.3-9.54-1.64c5.25,2.23,8.97,3.66,9.18,10.21h-24.99c-.14-4.17,3.77-7.53,6.57-10.19,5.33-5.07,14.84-11.57,22.51-10,5.2,1.07,15.63,8.94,9.72,14.27Z" fill="#fff"/>
  <path d="M343.99,627.99l1.36-.74c13.53,4.32,27.04,3.12,40.73.75-1.72,9.84.07,11.33-10.4,13.26-10.16,1.87-22.45,1.38-31.69-3.42v-9.86Z" fill="#fff"/>
  <path d="M204.46,648.85c.22.12,2.49,4.07,2.11,4.45-16.21-3.55-39.38,1.05-48.98,15.77-1.15.57-7.24-7.7-2.94-12.8,4.57-5.43,13.98-11.18,21-12.52,6.99-1.33,7.86,1.73,13.92,3.21,3.36.82,13.19.98,14.88,1.89Z" fill="#fff"/>
  <path d="M590.54,442.96h-8.55c.85-7.08.22-14.31.61-21.4.07-1.17,1.36-.73,1.42-1.89.56-12.66-.53-25.49-.05-38.16l6.58-4.27v65.73Z" fill="#fff"/>
  <path d="M370.28,645.42c-6.54,5.33-12.74,11.73-14.53,20.29-2.62,2.01-14.66-6.59-18.26-6.57.03-6.21,1.28-12.95,5.58-17.59,8.71,3.67,17.82,4.25,27.21,3.86Z" fill="#fff"/>
  <path d="M420.25,668.42c-.63,5.44-3.79,7.84-8.67,9.4-16.22,5.17-43.73,2.02-59.68-3.83-2.53-.93-17.75-7.55-14.48-11.48,14.99,7.26,32.2,12.31,48.99,13.13,11.15.54,24.68-.45,33.84-7.22Z" fill="#fff"/>
  <path d="M251.95,358.83l.35,26.33c-18.07,3.63-19.8-29.88-.35-26.33Z" fill="#fff"/>
  <path d="M171.31,637.29c1,1.05,3.28,1.56,3.05,3.52-9.1,2.03-17.04,7.5-23,14.46-.84-11.12,3.21-22.67,11.81-29.58,1.13,4.89,4.86,8.13,8.14,11.59Z" fill="#fff"/>
  <path d="M217.09,673.02c-1.49,8.44-16.91,10.13-23.96,10.54-10.71.62-26.73.27-33.21-9.56,17.8,7.02,39.87,8.05,57.18-.98Z" fill="#fff"/>
  <path d="M4.08,371.98l3.99,1.62-2.69,52.6,1.32.33c-2.59,4.29-.79,11.19-1.31,16.77l-1.32.97v-72.3Z" fill="#fff"/>
  <path d="M140.06,420.07l-.55,12.38c-12.95-.82-13.9-6.85-11.82-18.4l12.37,6.02Z" fill="#fff"/>
  <path d="M229.59,318.73c-10.65-4.37-16.93-5.37-26.95,1.32,2.29-13.24,22.56-12.29,26.95-1.32Z" fill="#fff"/>
  <path d="M155.56,335.57c.13.3,1.82,1.23,1.71,2.21l-9.86,1.98-.65-15.11c1.11,2.05,6.19,3.66,6.87,4.62s1.2,4.62,1.92,6.3Z" fill="#fff"/>
  <path d="M142.8,318.73l-19.38-1.32c-1-.11-1.65-.52-1.68-1.63-.12-4.86,20.97-3.7,21.06,2.95Z" fill="#fff"/>
  <path d="M178.31,345.03c-2.05,5.94-11.69,4.3-13.8-.65,4.7.61,9.1,2.03,13.8.65Z" fill="#fff"/>
  <path d="M126.37,358.17c.15-.2,4.29-1.15,4.6.34l-4.6,11.49c.34-1.77-.45-11.23,0-11.83Z" fill="#fff"/>
  <path d="M123.82,304.36c6.61-.14,14.06,1.54,17.66,7.48-5.69-2.1-11.77-2.02-17.76-1.28l.1-6.2Z" fill="#fff"/>
  <path d="M563.59,201.74c-.29-12.51-14.4-15.83-24.68-16.42-3.85-.22-27.04.87-27.76,4.24.32.55.24,1.49.93,1.69,2.22.66,17.79-2.84,22.93-2.69,8.99.26,26.79,2.68,24.58,15.43-1.1,6.34-8.27,2.47-12.75,2.32-24.3-.8-49.43,4.16-69.88,17.61-4.37,2.88-9.43,10.83-14.42,5.87-4.11-4.08-.59-12.03,2.93-15.57,1.84-1.85,11.92-7.84,12.32-8.52,3.34-5.67-6.73.13-7.77.78-8,4.94-16.49,14.19-11.3,24.17-2.72-.95-5.21-1.73-7.21-3.96-1.75-1.96-9.57-17.68-9.5-20.03.1-3.27,4.51-4.85,5.68-8.05,1.46-3.99.27-6.68.18-10.67,15.06,5.87,31.48,6.6,47.53,6.7,2.83.91,5.1,12.48,8.38,10.09,2.69-1.96-5.33-13.25-7.23-13.87-1.52-.5-3.16-.04-4.67-.58-.84-.56-.75-1.66-.51-2.53.81-2.99,14.26-12.87,16.64-16.26,2.72-1.56,8.53-1.35,10.68-3.46,1.38-1.35,3.81-8.5,5.3-10.83,2.13-3.33,6.04-6.8,7.7-10.69,2.4-5.63,1.76-12.25,4.64-17.77,3.03-.51,26.77,23.06,30.36,26.82.63,13.93,7.07,35.09-3.1,46.16Z" fill="#fff"/>
  <path d="M590.54,3.89v64.42c-5.83-.13-11.32,1.81-15.93,5.25-1.38,1.03-1.78,3.89-4.44,3.3-3.88-25.71-33.2-31.88-53.21-19.34-8.78,5.5-13.44,13.52-15.84,23.28-12.24-14.47-40.4-.44-43.09,15.75-.34,2.06-.16,6.6,2.66,6.6h129.85v269.82l-7.89,3.62c-.42-31.69-3.45-63.55-8-94.88-3.41-23.49-8.29-46.94-13.67-70.54.07-2.56,5.12-5.84,6.83-8.16,2.59-3.5,4.72-8.48,5.01-12.74.83-12.15.12-27.09-3.61-37.87-9.03-5.52-25.99-28.06-35.72-29.41-4.57-.63-20.98,9.33-26.94,11.54s-11.72,3.8-17.88,4.46l-12.51,32.86c-10.4,6.04-23.43,7.2-32.24,15.9-.9,2.52,1.24,2.99,1.29,3.27,1.2,6.56-4.97,8.53-6.25,12.64-1.95,6.27,6.43,21.99,11.2,26.34,4.17,3.8,8.55,4.64,14.12,4.62l7.84,50.5c-25.78,7.64-49.84,19.98-73.23,33-11.83-7.94-23.61-7.35-37.06-4.76-3.12-11.45-13.61-22.13-25.2-25.09-3.42-.87-8.4-.55-11.03-1.47-2.38-.82-15.5-13.44-18.78-16.06-21.46-17.06-43.77-35.99-72.21-19.17-9.64-8.05-22.7-15.17-35.61-15.67-23.26-.9-49.86,19.08-68.37,31.52l10.8-47.53c6.77-2.76,15.67-4.09,18.99-11.42s12.64-41.5,13.2-49.24c1.5-20.77-28.28-37.92-45.42-43.16-6.67-2.04-26.88-6.38-33.04-5.05-3.52.76-8.83,15.65-11.84,19.05-6.78-.52-6.85,6.99-10.23,9.49-2.24,1.65-8.58.84-11.64,2.17-2.81,1.22-4.38,5.57-8.01,6.45-4.87,1.18-9.7-2-14.44.03-1.5.65-12.5,10.83-12.93,12.05-1.7,4.86-1.28,20.48,0,25.7,1.55,6.34,7.34,9.97,11.42,14.6l-7.83,36.77c-7.09,33.29-14.39,65.99-18.33,100.11-1.22,10.54-1.96,21.27-2.65,31.86l-4.6-1.64V3.89h586.45ZM87.42,52.01c-.96-1.93-8.09-4.96-10.36-5.74-25.14-8.58-43.68,11.84-55.79,31.06l4.64,37.16c.53,1.8,10.78,10.26,12.91,11.41,7.69,4.16,8.51-.82,15.72-3.54,2.83-1.07,12.11-2.68,13.14-3.63,1.45-1.35,5.08-11.57,6.77-14.44,3.15-5.35,8.22-10.93,13.13-14.78.97-2.98-1.07-3.43-1.26-3.99-3.57-10.59-4.92-17.84-.63-28.67.31-.78,3.42-1.46,1.73-4.85ZM364.16,77.06c-3.12-3.96-11.99-9.34-16.97-10.3-19.77-3.85-36.22,8.37-39.36,27.84-11.52-11.73-32.71-3.58-35.46,12.2-3.31.83-6.85-.12-10.16.35-6.81.98-13.64,10.24-7.33,15.75l162.13.33c12.45-12.68-6.75-25.27-19.75-20.08-1.33-14.83-17.21-22.51-28.93-12.49-.27-4.58-1.29-9.94-4.17-13.59ZM105.15,72.36c-1.1.37-1.54,1.12-1.77,2.21-.51,2.4-1.18,17.23-.57,18.93,3.72,3.36,9.5,4.35,14.34,4.74,2.66-1.19,4.08-13.47,2.96-16.13-.57-1.36-12.41-10.81-14.97-9.76ZM183.39,119.09c-.93-1.09-17.34-5.77-19.18-5.44-2.41.44-4.71,5.95-4.32,8.19.47,2.66,14.76,14.3,17.38,14.16,4.72-.24,8.94-13.59,6.12-16.91ZM456.82,148.91c1.86-2.81,5.6-7.92,5.55-11.23-.05-3.01-3.17-11.98-7.06-12.02-1.82-.02-28.98,15.99-29.17,17.94.21,3.77,15.98,16.43,18.18,16.71,4.48.58,10.15-7.86,12.5-11.41ZM430.03,165.02l-24.74,5.98c-.76.82-4.07,20.15-4.04,21.96.02,1.31.28,2.27,1.28,3.17,1.98,1.78,17.51,6.14,20.02,4.29l12.69-18.88c1.2-6.19-4.51-10.65-5.21-16.52ZM199.68,170.84h9.86c4.21,0,14.11,6.03,17.12,9.17,1.75,1.83,1.92,6.61,5.56,4.3.82-.52,2.9-5.36,4.17-6.67,4.59-4.72,13.66-7.47,20.15-6.81l-.62-2.99c-9.61-2.02-20.71,2.54-25.03,11.54-6.8-8.73-21.62-16.07-32.13-10.76l.91,2.22ZM298.46,201.23c-5.02-3.71-18.7,2.85-22.98,6.42-.94.79-3.7,5.51-4.81,5.21-2.8-8.81-20.52-12.53-26.2-6.44-5.11,5.48,5.45,1.54,6.66,1.4,5.95-.68,10.52-.58,14.6,4.12,1.9,2.2,2.85,6.87,6.24,6.26,1.76-.32,3.83-5.85,5.62-7.58,4.31-4.16,14.38-7.35,20.36-5.91,1.33-.56,1.55-2.71.5-3.49ZM398.16,235.66c-14.43-18.63-48.53-10.94-52.2,12.09-7.78-2.02-17.75-1.76-23.99,3.94-3.61,3.3-8.51,12.61-1.37,14.51l118.26-.18c3.25-1.02,2.54-7.17,2.14-9.76-2.65-17.16-25.95-23.26-38.49-12.46-.39-3.69-2.39-5.61-4.35-8.14Z" fill="#fff"/>
  <path d="M519.55,770.93c5.99.65,11.82,2.41,11.87,9.56.05,7.37-9.76,6.71-14.52,8.54-4.19,1.62-8.5,5.35-13.17,7.21-15.28,6.08-39.86,7.86-56.22,6.94-7.04-.39-21.79-4.4-26.94-4.02-2.25.17-3.33,2.11-5.22,2.71-6.79,2.15-22.17,2.87-24.44-5.99-7.44,0-14.64.52-21.97-.92-6.66-1.31-10.58-2.5-9.03-10.39s19.25-17.85,27.39-15.02l9.26-52.85,44.51-30.43c8.11-5.8,10.11,3.5,14.12,8.66,7.58,9.75,8.69,12.33,20.6,16.87,3.99,1.52,14.66,3.68,17.14,5.21,3.95,2.44,3.04,13.79,5.9,17.1s20.52,9.35,22.69,13.47c2.29,4.33-2.95,22.12-1.99,23.35ZM475.33,738.26l-21.22-10.01-1.77-31.75c-1.26-1.85-4.3-7.77-6.26-8.26-2.64-.67-40.44,26.31-45.53,29.82l14.53,12.4c2.14,1.43,9.17,6.01,11.13,6.62,2.57.79,15.23.44,16.11,1.64,3.44,4.75-12.98,1.56-14.81,2.34-1.23.52-6.4,7.97-7.9,9.5,7.64,3.91,19.35,14.53,27.58,16.15,9.19,1.82,22.09-1.28,31.11.45,4.42.85,8.05,6.79,12.61,7.73,1.35-.42,1.77-8.42,3.36-10.48,2.43-3.16,23.42-13.75,23.96-15.48-4.06-3.58-21.82-10.78-23.36-14.76-.97-2.53-1.94-12.79-3.76-14.32-9.58-2.5-19.81-4.94-28.11-10.34l-7.22-7.56c.15,1.99-.25,4.14.02,6.1.07.49,1.21.26,1.34,1.41.61,5.31.15,11.45.93,16.81,3.15,3.03,19.64,8.31,20.59,11.65.43,1.49-3.12,16.61-3.96,18.11-.92,1.65-2.21,1.27-2.84-.2-.91-2.12,5.4-15.95,3.48-17.57ZM421.99,743.11c.64-.72,2.51-2.68,1.91-3.72-5.02-2.4-9.87-5.39-14.37-8.65-2.02-1.46-10.17-9.83-11.63-8.43l-7.23,47.65c.19,1.6,7.32,6.6,8.8,8.29,1.15,1.32,2.68,5.33,3,5.54,1.72,1.11,7.64-.39,12.18,2.94,3.3,2.42,4.72,8.26,5.59,8.87.6.41,12.55,2.62,14.24,2.85,13.88,1.91,32.63,1.98,46.49.02,8-1.13,30.31-5.93,33.22-14.25,2.84-8.13,2.81-22.8,4.35-31.67l-22.34,14.47c-.71,3.15-4.22,22.5-5.77,23.22-1.36.62-2.33.17-2.86-1.2.1-2.27,2.91-8.4,2.09-10.19-.2-.45-6.83-5.55-7.77-6.09-9.82-5.63-25.03-.38-35.98-3.13l-3.44,17.27c-1.18,2.2-3.1,1.33-3.1-1.06,0-4.57,3.51-11.97,3.18-17.07-.45-1.41-21.78-11.64-24.92-15.88-3.65-4.91,1.83-6.92,4.37-9.78ZM398.15,783.88c-4.01-7.35-9.1-12.47-18.24-10.88-6.13,1.06-18.93,9.64-16.88,16.58.91,3.11,23.99,3.75,27.29,3.05,3.07-.66,4.92-6.95,8.89-7.22v-1.29c-.31-.01-.95-.03-1.06-.23ZM527.88,781.93c3.11-3.69-4.26-8.58-8.59-7.07l-2.38,10.55c.71.65,10.01-2.34,10.97-3.48ZM402.99,787.55c-3.67.58-8.59,3.93-8.41,8.09.23,5.34,9.08,3.59,12.2,3.53s10.5,1.97,9.4-4.05-7.65-8.44-13.19-7.56Z"/>
  <path d="M155.58,716.12c1.76,3.11,6.6,7.76,6.18,11.6-.36,3.3-8.4,11.63-11.68,12.7-10.38,3.39-28.01,2.64-39.12,6.22-2.87-.04-29.8-9.33-31.21-10.91-1.91-2.15-3.63-17.91-1.33-20.29l43.84-20.58c5.12-.85,18.99,2.41,23.41,5.19,3.58,2.25,7.47,11.74,9.91,16.05ZM144.77,703.92c-5.71-2.15-14.94-6.31-21.07-5.63-3.89.44-22.53,9.73-27.35,12.09-4,1.95-8.64,3.83-12.06,6.67,5.33.08,22.52,8.06,26.47,7.13.99-.23,6.31-4.74,8.16-5.69,6.53-3.36,13.81-5.14,21.17-5.46l4.67-9.11ZM155.58,722.69c-2.94-5.15-5.7-10.45-8.82-15.49.05,3.01-3.94,5.42-3.79,8.06.06.99,3.4,6.63,4.09,8.4,1.49,3.8,3.04,7.73,3.64,11.81l7.63-7.88c.44-1.96-2.09-3.73-2.75-4.89ZM140.17,716.4c-5.92,0-23.96,5.15-26.99,10.15-1.54,2.54-.22,12.52-1.27,16.15l36.17-5.26-7.9-21.03ZM81.01,719.03v11.5c0,.56.94,3.15,1.74,3.51l24.83,8.03,1.08-14.21-27.66-8.84Z"/>
  <path d="M478.62,637.69c3.94-.38,9.78,1.8,13.81,2.94,4.7,1.33,24.42,7.73,27.07,10.4,2.5,2.52,3.77,18.67,1.65,21.31-1.13,1.41-14.02,7.13-16.45,7.88-5.51,1.69-25.54,4.97-30.86,4.68-2.59-.14-21.58-11.71-23.67-13.85-3.94-4.02-4.13-18.37-3.03-24.05,1-1.3,28.61-9.02,31.48-9.3ZM514.69,655.69c.61-.57.83-1.54,1.54-2.07-.17-2.16-31.07-11.44-35.38-12.44l-31.01,8.18c-.9,1.42,26.82,16.3,29.27,16.47,1.83.13,22.38-1.17,23.51-1.5.71-.21,11.41-8.04,12.06-8.64ZM476.14,667.77l-26.3-13.8c1.39,3.77.02,10.84,1.92,14.18.68,1.19,18.16,12.22,19.11,11.45l5.27-11.83ZM505.07,676.31l13.47-6.57-.34-13.15c-2.12,2.82-12.22,7.48-13.46,9.87-1.35,2.61.49,7.04.33,9.85ZM500.47,667.76c-5.18.43-16.46-.88-20.85,1.77-1.66,1-6.79,11.42-6.1,12.03l27.23-3.86-.27-9.94Z"/>
  <path d="M216.87,724.41c2.55-.16,29.53,16.19,32.75,18.96,1.33,1.14,3.47,3.02,3.55,4.88.05,1.23-2.9,16.17-3.49,16.83-10.48,5.52-20.22,13.58-31.6,17.12-7.02-3.04-32.08-7.63-36.12-13.25-2.44-3.4,1.26-18.45,3.57-21.98,1.83-2.8,11.58-9.82,14.81-12.14,2.31-1.65,14.89-10.31,16.52-10.41ZM249.31,747.31c-10.35-7.05-20.71-14.48-32.55-18.82-1.29.08-13.75,8.76-15.76,10.26-1.6,1.2-11.12,8.24-11.55,8.82-.47.63-.78,1.17-.64,1.99,9.1,6.24,17.57,13.98,28.57,16.77,11.4-4.28,20.88-12,31.53-17.67l.41-1.36ZM214.21,773.99c.7-1.43.45-3.32,1.53-4.69l-.61-.64c-11.05-2.48-19.47-10.2-28.27-16.76l-2.3,14.44c7.74,5.86,18.41,7.61,27.65,10.38.29-.84,1.8-2.32,2-2.73ZM249.31,752.56c-5.99,2.3-11.82,6.96-17.55,10.38-7.28,4.35-15.49,4.63-15.03,15.26.75,1.01,1.4.56,2.34.35,2.29-.49,25.36-13.84,26.63-15.47,2.49-3.2.64-7.98,3.59-10.53Z"/>
  <path d="M527.27,683.69c3.58-.81,12.33,6.14,15.28,8.71,2.63,2.29,9.79,9.2,9.92,12.48.05,1.26-1.66,10.34-2.31,10.92-5.12,1.33-23.07,9.68-27.06,7.22-1.9-1.17-6.6-10.82-8.28-13.41-1.51-2.33-6.08-5.12-5.88-8.65.2-3.43,4.39-4.97,6.02-6.55,2.75-2.67,8.94-9.95,12.31-10.72ZM542.3,696.92c-1.54-1.5-12.5-9.93-13.8-9.96l-16.2,14.64c4.94,4.98,9.48,10.74,16.61,12.74l18.15-10.51-.25-1.88c-1.79-1.3-3.08-3.65-4.51-5.03ZM549.11,706.54c-5.03,4.16-14.7,6.96-19.3,10.6-.84.67-1.38,1.54-1.73,2.53.75.62,17.63-5.65,18.37-6.27,1.22-1.02,1.83-5.12,2.66-6.86ZM526.11,716.41l-3.93-1,2.29,3.62,1.64-2.62Z"/>
  <path d="M86.37,661.09c7.59-3.26,18.23-4.93,22.14,4.47,4.41,10.6-14.94,7.46-19.88,8.18-2.93.42-4.98,2.41-7.48,3.03-6.27,1.56-15.76,2.1-22.18,1.53-35.81-3.17-.84-35.1,17.89-27.09,3.68,1.57,8.13,6.13,9.52,9.89ZM67.05,653.49c-5.81.67-24.41,10.85-19.63,17.94,3.41,5.06,33.19,4.98,37.25-.33,2.23-2.91-1.6-9.64-3.65-12.23-3.91-4.93-7.68-6.1-13.97-5.38ZM89.7,670.24c2.47,1.92,16.34.7,16.22-2.69-.04-1.02-3.6-4.81-4.59-5.32-5.53-2.87-15.42.53-11.63,8.01Z"/>
  <path d="M282.42,628.09c2.24,2.06,8.29,8.07,8.26,11.09-.12,11.89-35.53,11.89-39.05,3.6-1.61-3.79,3.04-12.08,6.42-13.93,1.59-.87,16.39-5.08,17.97-5.08,3.68.02,4.47,2.55,6.4,4.32ZM254.7,641.34c4.33,5.53,32.05,5.34,32.09-2.16.01-2.2-8.55-11.5-11.46-11.54-1.87-.02-15.03,3.61-16.52,4.6s-4.93,7.57-4.12,9.1Z"/>
  <path d="M86.53,775.96c2.14,2.45,5.32,5.16,4.21,8.98-2.41,8.34-36.28,9.26-40.52-.67-.84-3.98,8.15-12,11.7-13.67,9.69-4.55,17.78-2.45,24.61,5.36ZM86.56,781.86c-5.9-10.28-15.66-13.61-25.89-6.59-1.5,1.03-6.69,6.18-6.6,7.86.31,6.05,29.62,6.96,33.54.59.5-1.63-.83-1.49-1.04-1.86Z"/>
  <path d="M285.34,679.73c1.13-.08,2.16-.44,3.14.47,4.29,6.31,5.29,21.01-4.64,22.41-3.13.44-17.64-.06-19.45-2.27-1.29-1.57-2.71-13.66-1.29-15.18l22.24-5.42ZM267.22,697.84c.61.62,7.89,1.45,9.35,1.49,13.57.42,11.82-3.48,10.58-15.18-.73-1.06-20.04,2.85-20.76,3.63-1.59,1.71.12,7.86.83,10.06Z"/>
  <path d="M410.17,486.55c8.01,14-31.17,14.23-32.54,3.92-.72-5.45,11.62-13.15,16.73-13.24s13.35,5.02,15.81,9.33ZM406.26,492.09c2.76-3.08-2.81-8.27-5.53-9.56-7.92-3.77-14.71.34-19.31,6.82-.54,5.69,21.68,6.26,24.83,2.74Z"/>
  <path d="M341.12,717.29c10.87,13.88-17.7,13.02-24.9,11.42-11.98-2.65-7.53-8.63-.16-13.61,9.02-6.1,17.83-7.04,25.06,2.19ZM312.44,724.27c5.97,1.93,20.64,4.27,25.85.56,4.63-3.29-5.59-11.75-10.34-11.65-3.45.07-17.44,8.12-15.5,11.09Z"/>
  <path d="M145.94,777.69c6.16-1.52,25.3,6.53,18.58,15.3-3.82,4.98-29.78,4.96-27.34-5.6.54-2.34,6.37-9.11,8.76-9.7ZM161.01,786.28c-.49-.73-12.48-5.47-13.18-5.35-1.11.2-7.22,6.28-7.05,8.08.45,4.72,17.69,3.35,21.07,2.31.39-.45-.32-4.26-.85-5.04Z"/>
  <path d="M553.55,637.64c.95-.24,18.03,3.54,19.18,4.21,2.54,1.46,2.76,5.46,1.31,7.77-1.15,1.83-15.02,5.74-17.39,5.66-2.09-.07-13.39-4.41-14-6.39-1-3.25,8.69-10.68,10.9-11.24ZM570.8,644.78c-4.18-.15-12.5-3.98-16.11-3.68-1,.08-7.67,5.11-8.2,6.61.13.56,9.6,4.24,10.76,4.24,2.06,0,16.07-3.39,13.55-7.17Z"/>
  <path d="M167.42,530.1c7.2,12.16-17.3,11.16-23.98,9.18-11.04-3.27-3.44-12.93,3.72-16.05,8.51-3.7,15.57-1.05,20.26,6.87ZM152.45,524.73c-3.13.49-14.8,6.84-10.67,10.3,2.63,2.21,21.23,2.78,23.09-.02,2.7-4.05-7.22-11.09-12.42-10.28Z"/>
  <path d="M536.97,787.69c-1.86-2.73,1.23-6.5,3.6-9.17,10.19-11.5,33.81,7.61,16.31,13.02-5.5,1.7-16.33,1.41-19.91-3.85ZM544.04,779.04c-.5.38-3.47,5.38-3.49,6.11-.17,6.08,24.35,5.87,17.01-3.25-2.19-2.72-10.62-5.09-13.53-2.86Z"/>
  <path d="M427.98,604.16c2.08-.29,3.06-.34,5.01.58.78.37,8.64,7.41,9.01,8.11.87,1.64-.18,4.68-1.64,5.66-2.11,1.41-22.52.56-23.74-1.34-1.6-8.09,4.11-12.01,11.36-13.01ZM419.59,615.17c5.21.03,11.69,2.12,16.8,1.35,1.14-.17,2.27-.12,2.3-1.67.04-1.8-7.8-7.44-9.54-7.49-3.43-.1-10.95,3.01-9.55,7.82Z"/>
  <path d="M301.91,768.66c.41-3.11,2.38-8.81,6.19-8.82,2.37.74-1.14,6.35-1.8,8.31-.1.3-1.1.13-1.1.18v12.16c-1.01,1.39-2.27,1.39-3.29,0,.35-3.74-.48-8.21,0-11.83Z"/>
  <path d="M295.12,769.85c1.83,2.38,7.47,15,.93,11.24-1.1-3.23-3-7.26-5.03-10.08-1.47-2.03-5.01-3.06-4.19-5.58.97-2.97,7.32,3.17,8.29,4.43Z"/>
  <path d="M143.71,479.55c1.51,2.59,4.04,4.28,3.06,8.39l-3.2.28c-1.3-4.58-2.93-8.38-6.08-11.99-1.17-1.34-4.86-1.6-2.91-4.37,2.38-3.38,8.28,6.21,9.14,7.69Z"/>
  <path d="M28.59,718.2c-1.51-1.27-.93-3.17,1.46-3.17,5.95-.01,12.16,15.05,8.54,15.83-1.43.31-4.44-8.96-6.61-11.12-1.27-1.26-2.71-.98-3.38-1.54Z"/>
  <path d="M432.24,485.52c-1.23-1.67-.6-10.45-2.64-13.22l2.81-1.78c2.24.25,4.68,14.17,2.31,15.54-.64.41-2.13-.08-2.47-.54Z"/>
  <path d="M152.67,486.35h-3.29v-13.47c0-1.29-2.17-4.3,2.01-3.32.19.13,1.28,2.46,1.28,2.66v14.13Z"/>
  <path d="M319.63,769.6c-.14.22-3.03.87-4.48,2.44-2.25,2.42-2.29,5.62-3.34,8.49l-2.67.29c-2-2,4.61-17.85,10.23-13.19.38.41.46,1.65.26,1.97Z"/>
  <path d="M163.84,472.55c.49,3.1-2.11,3.21-3.41,6.11s-.43,9.31-5.04,6.92c-1.85-3.21,3.45-14.12,8.45-13.03Z"/>
  <path d="M49.51,729.48c-1.83-3.05,2.26-13.43,6.17-12.42,2.69.7-4.12,8.93-2.57,11.87l-3.59.54Z"/>
  <path d="M445.88,472.56c1.49,2.91-1.94,3.7-2.76,5.41-.93,1.93-1.55,8.54-4.12,7.72-2.93-.94,1.56-15.24,6.88-13.13Z"/>
  <path d="M422.82,542.81c-8.32,1.04,1.26-13.28,3.68-13.06,3.24.29-4.62,10.86-3.68,13.06Z"/>
  <path d="M46.16,729.55c-1.62.74-3.29-1.74-3.29-2.96v-11.17c0-2.16,3.29-.37,3.29,2.63v11.5Z"/>
  <path d="M413.83,542.05c-.76-1.05-3.54-13.61-1.14-13.62,2.18-.01,4.8,11.74,3.31,13.81-.43.89-1.92.15-2.17-.19Z"/>
  <path d="M364.16,77.06c2.88,3.65,3.9,9.01,4.17,13.59,11.72-10.01,27.6-2.34,28.93,12.49,13-5.19,32.2,7.4,19.75,20.08l-162.13-.33c-6.32-5.51.52-14.76,7.33-15.75,3.32-.48,6.86.48,10.16-.35,2.75-15.79,23.94-23.94,35.46-12.2,3.15-19.46,19.6-31.68,39.36-27.84,4.98.97,13.86,6.35,16.97,10.3ZM363.32,85.14c-8.58-23.38-41.83-18.76-50.36,3.09-1,2.56-1.74,9.56-3.56,10.9l-1.85.67c-8.07-12.79-28.89-7.07-31.68,6.61-.38,1.85,1.12,3.43-.22,4.99-1.14.81-6.13-1.6-8.29-1.69-5.21-.19-13.07,2.74-11.38,9.44l159.21.95c3.42-2.08,2.58-5.09,1.23-8.2-3.37-7.73-14.94-7.26-21.49-4.19-1.7-3.8-.52-6.29-2.66-10.44-3.38-6.54-10.79-9.23-17.57-6.48-4.06,1.65-4.81,5.08-8.61,5.74-1.51-.53-1.1-7.8-1.67-10.18-.22-.93-1.03-1.02-1.1-1.21Z"/>
  <path d="M87.42,52.01c1.69,3.38-1.42,4.07-1.73,4.85-4.3,10.83-2.94,18.07.63,28.67.19.56,2.23,1.01,1.26,3.99-4.9,3.85-9.98,9.43-13.13,14.78-1.69,2.87-5.31,13.09-6.77,14.44-1.03.95-10.31,2.56-13.14,3.63-7.2,2.73-8.03,7.71-15.72,3.54-2.13-1.15-12.38-9.61-12.91-11.41l-4.64-37.16c12.11-19.22,30.65-39.64,55.79-31.06,2.27.77,9.39,3.8,10.36,5.74ZM74.68,78.4c4.94-7.11,4.26-8.47,5.98-16.69.58-2.8,3.45-7.29,1.37-9.22-1.07-.99-8.91-3.63-10.61-3.85-22.6-2.87-34.54,13.03-46.16,29.34l4.48,32.39c11.45-16.15,33.72-15.8,44.95-31.96ZM74.69,97.48c1.14-1.59,8.66-9.21,8.79-9.86.45-2.3-3.28-8.57-3.14-11.42-5.13,9.48-14.3,15.92-24.32,19.73l9.87,17.73c3.39-5.22,5.13-11.05,8.8-16.18ZM30.39,114.96l14.04,9.8c4.81-5.82,12.41-5.93,18.82-8.79l-10.8-18.08c-3.34.12-23.39,14.82-22.05,17.08Z"/>
  <path d="M398.16,235.66c1.96,2.53,3.96,4.45,4.35,8.14,12.54-10.81,35.84-4.7,38.49,12.46.4,2.59,1.12,8.74-2.14,9.76l-118.26.18c-7.14-1.9-2.24-11.2,1.37-14.51,6.24-5.7,16.21-5.97,23.99-3.94,3.67-23.03,37.77-30.72,52.2-12.09ZM321.31,262.86h116.7c1.02-21.17-23.21-28.02-37.13-13.81-4.43-13.91-11.57-21.33-27-20.4-8.31.5-18.4,5.46-22.81,12.69-2.22,3.65-1.54,7.97-3.78,11.37-9.27-5.8-24.22-3.1-26.87,8.64l.89,1.51Z"/>
  <path d="M430.03,165.02c.71,5.87,6.42,10.33,5.21,16.52l-12.69,18.88c-2.51,1.85-18.04-2.51-20.02-4.29-1-.9-1.26-1.86-1.28-3.17-.03-1.81,3.28-21.14,4.04-21.96l24.74-5.98ZM421.97,180.45c.75-1.39,5.26-11.73,4.85-12.24l-18.62,5.21-3.07,17.8c2.95-1.5,10.31-2.12,12.69-3.9.32-.24,3.63-5.91,4.15-6.87ZM429.45,172.82l-1.46.84c-1.94,3.91-4.37,13.52-7.8,15.82-4.23,2.83-9.67,2.19-13.74,5.02l13.12,2.97c4.78-7.09,15.4-15.73,9.88-24.65Z"/>
  <path d="M456.82,148.91c-2.35,3.54-8.02,11.98-12.5,11.41-2.19-.28-17.97-12.94-18.18-16.71.19-1.95,27.35-17.96,29.17-17.94,3.88.04,7.01,9.02,7.06,12.02.05,3.31-3.69,8.42-5.55,11.23ZM455.6,130.26l-25.47,13.96c3.69,2.05,10.52,10.63,13.83,11.82.94.34,1.63.65,2.57.01,4.41-7.77,17.24-16.76,9.07-25.8Z"/>
  <path d="M199.68,170.84l-.91-2.22c10.51-5.31,25.33,2.03,32.13,10.76,4.32-8.99,15.42-13.55,25.03-11.54l.62,2.99c-6.49-.66-15.56,2.09-20.15,6.81-1.28,1.31-3.36,6.15-4.17,6.67-3.64,2.31-3.81-2.48-5.56-4.3-3.01-3.14-12.91-9.17-17.12-9.17h-9.86Z"/>
  <path d="M298.46,201.23c1.05.77.83,2.92-.5,3.49-5.97-1.44-16.04,1.75-20.36,5.91-1.79,1.73-3.86,7.26-5.62,7.58-3.39.61-4.34-4.06-6.24-6.26-4.08-4.7-8.65-4.8-14.6-4.12-1.21.14-11.77,4.07-6.66-1.4,5.68-6.09,23.4-2.37,26.2,6.44,1.1.3,3.86-4.42,4.81-5.21,4.28-3.58,17.96-10.13,22.98-6.42Z"/>
  <path d="M183.39,119.09c2.82,3.32-1.4,16.67-6.12,16.91-2.62.13-16.91-11.5-17.38-14.16-.4-2.24,1.91-7.75,4.32-8.19,1.84-.33,18.25,4.35,19.18,5.44ZM179.36,128.52c.84-1.75,2.35-5.6.65-7.02-1.03-.85-14.1-4.98-15.17-3.93-4.8,4.66,11.07,14.79,12.17,14.22.33-.86,2.13-2.8,2.36-3.27Z"/>
  <path d="M105.15,72.36c2.55-1.06,14.4,8.4,14.97,9.76,1.11,2.66-.3,14.93-2.96,16.13-4.84-.39-10.62-1.38-14.34-4.74-.61-1.71.06-16.53.57-18.93.23-1.08.67-1.83,1.77-2.21ZM106.65,76.19l-.58,15.36,8.72,2.95c6.36-9.61-.66-13.57-8.14-18.31Z"/>
  <path d="M74.66,403.09c-3.18,5.04-6.52,10.01-9.43,15.22,2.89,7.45,9.61,13.6,11.7,20.86l-14.9,23.76,16.02,14.05,14.11-18.58c.83-.74,2.42-.17,2.64.68.66,2.54-13.76,16.99-14.37,20.53-.25,1.45,1.79,3.22,1.81,5.67.04,8.16-4.9,11.65-.24,20.77,3.43,6.72,12.04,7.79,13.32,17.6,1.38,10.65-5.34-5.51-5.77-6.08-1.86-2.44-5.81-3.49-8.06-6.4-1.87-2.41-3.18-6.05-3.78-9.04-2.49-2.03-11.12,13.88-11.97,14.32s-2.16.05-3.14.14c-.09-1.01.13-1.94.63-2.81,2.7-4.64,10.78-11.74,13.05-16.05.73-1.39,3-12.76,2.62-14.18-1-3.72-16.02-14.69-19.09-18.4-1.79-4.28,2.02-8.72,4.75-11.66-3.36-1.24-22.37-10.46-22.37-12.82,0-.87.64-1.73,1.59-1.59l22.7,11.72,6.6-12.77c-3.23-7.06-9.26-13.05-11.62-20.27l12.39-19.4c6.49.12,1.88,3.03.81,4.73Z"/>
  <path d="M64.57,207.65c1.06,1.08-6.17,21.46-5.14,26.47l19.34,18.83,1.63-.34c2.68-5.43-.42-10.82,2.96-15.99.57-.87,10.75-10.6,11.48-10.91,1.33-.55,2.88-.28,3.93.67l-13.49,12.81c-.91,3.51.13,7.27-.39,10.79-1.01,6.97-14.9,13.88-19.61,19.21,3.34,4.14,4.53,12.48,7.17,16.36,2.29,3.36,11.55,8.89,14.91,13.67,1.37,1.94.78,3.82-1.75,2.75-2.7-1.14-9.02-11.19-13.8-12.16-.82,2.59-9.19,19.98-10.83,19.7-.32-.05-1.69-1.31-1.39-1.98,1.17-4.76,10.06-15.99,10.16-20,.03-1.07-4.01-11.24-4.8-12.9-.85-1.8-3.92-3.23-3.56-6.02.32-2.52,13.23-9.78,15-13.3l-17.1-15.76c-4.9-5.89-3.04-7.39-1.76-14.28,1.07-5.78,3.04-11.49,4.33-17.23l2.7-.39Z"/>
  <path d="M40.68,367.18c-.01.13-1.03.05-1.15,1.13-1.47,14.18-1.11,28.85-3.19,42.81l-2.01.29c.99-23.52,2.27-47.33,5.21-70.7,1.64-13.09,4.2-29.49,6.94-43.03.33-1.63,1.64-10.58,3.3-10.49,1.19.8.99,1.69,1,2.91.06,5.66-2.97,15.59-3.86,21.83-2.61,18.35-4.3,36.82-6.24,55.25Z"/>
  <path d="M39.81,534.79c.02.13.98.2,1.05.68.38,2.49,2.43,15.62,1.39,16.31l-2.66.29c-3.52-23.93-6.6-48.04-6.58-72.3.94-.03,1.69-.25,2.31.64.84,1.2,1.26,25.13,1.64,29.25.75,8.23,1.64,16.96,2.84,25.12Z"/>
  <path d="M535.18,220.29c.59.92.46,3.93.85,5.25,3.24,10.98,5.46,24.02,7.63,35.87,3.74,20.37,6.51,39.73,9.46,60.27-4.09,5.33-3.5-8.23-4.04-11.02-2.43-12.63-4.39-26.75-6.73-40.06-1.09-6.21-10.65-48.26-9.37-50.49.4-.89,2.01-.1,2.19.18Z"/>
  <path d="M502.87,538.07c-.04.16-.93.19-1.06.67-.81,3.05.08,11.41-4.63,11.35,1.47-8.11,2.51-16.65,4.54-24.67.94-3.71,2.45-9.56,3.78-13.34.49-1.37.69-2.37,2.51-2.07,1.08.76.86.92.73,1.98-.85,6.72-4.1,19.1-5.88,26.08Z"/>
  <path d="M315.06,534.99l.33,1.98c-10.11,11.6-22.65,21.82-36.7,28.36-2.45,1.14-7.42,3.61-9.82,4.01s-2.37-1.32-.74-2.73c2.06-1.77,11.94-5.18,15.29-7.07,8.65-4.88,16.84-11.47,24.09-17.98,1.33-1.2,5.32-7.79,7.55-6.58Z"/>
  <path d="M292.07,400.87c-2.01-3.71,7.91-8.05,10.5-8.85,7.73-2.4,24.52-2.46,30.58,3.61,1.98,1.98,2.36,4.63-1.16,3.82-2.99-.7-7.43-4.44-12.06-5.06-5.6-.75-14.33.32-19.48,2.75-2.82,1.33-4.84,5.14-8.38,3.74Z"/>
  <path d="M322.95,403.52c-5.62.16-9.11-2.4-14.72.64-3.96-6.5,15-7.43,14.72-.64Z"/>
  <path d="M283.79,348.67c-.31-.26-1.52-1.31-1.56-1.51,2.08-11.36,13.29-3.77,19.7-1.15,1.93.79,10.59,1.18,5.22,5.23-4.45,3.35-19.22.8-23.35-2.57Z"/>
  <path d="M328.37,350.8c-2.16-3.83,13.53-10.28,16.6-10.28.78,0,2.32.47,2.93.93,7.56,5.75-16.32,15.03-19.53,9.35Z"/>
  <path d="M297.79,357.04c7.48,19.92-14.49,15.33-4.64-.74l4.64.74Z"/>
  <path d="M342.5,357.7c2.74,2.32,2.1,13.04-3.19,11.98-7.15-1.43-3.7-17.83,3.19-11.98Z"/>
  <path d="M178.58,315.18c5.88,5.78,1.15,14.35-3.8,12.71-3.55-1.18,1.34-3.8,1.87-4.56,3.14-4.5-3.41-7.35-2.95-9.5,2.14-2.42,3.47-.03,4.88,1.36Z"/>
  <path d="M181.59,334.51l-14.46.66c.39-2.62,5.5-3.89,7.55-3.99,2.25-.1,7.65.14,6.9,3.33Z"/>
  <path d="M159.9,310.19c-1.25-3.41,8.81-5.64,9.2-3.6s-7.63,3.57-9.2,3.6Z"/>
  <path d="M168.37,314.2c1.57,1.95-3.58,6.24-5.52,3.22l.29-3.66,5.22.45Z"/>
  <path d="M186.82,307.61c.21.26-.05,1.37.04,1.92l-6.58-.66,1.07-2.56c.46-.15,5.29,1.08,5.46,1.3Z"/>
  <path d="M182.26,313.48c.61-.6,4.84.26,4.56,2.21-.59,4.01-7.09.28-4.56-2.21Z"/>
  <path d="M218.97,341.18l.09,5.16-8.54-.66c-.32-5.48,3.95-6.37,8.45-4.5ZM215.78,342.41c-.7-.47-1.8.31-1.31.64.7.47,1.8-.31,1.31-.64Z"/>
  <path d="M213.16,338.44c-1.53-1.54,4.3-2.3,4.54-2.68l-.6-4.53c7.54,1.66,2.47,10.12-3.95,7.21Z"/>
  <path d="M224.15,328.71c2.94-.9,5.62,2.02,3.19,3.88-3.51,2.69-7.25-2.64-3.19-3.88Z"/>
  <path d="M209.02,328.7c3.87-1.11,3.62,4.23.49,4.52s-2.83-3.84-.49-4.52Z"/>
  <path d="M222.13,322.74c1.2-.4,6.01.73,6.79,2.24-.06,2.41-11.78-.58-6.79-2.24Z"/>
  <path d="M209.05,322.8c5.02-.34-.29,3.74-2.81,3.81-2.49-1.59.93-3.68,2.81-3.81Z"/>
  <path d="M131,337.18c.83-1.25,6.82-1.15,3.91-7.59.56-1.94,6.3,2.39,2.28,7.52-2.88,3.68-7.99,2.81-6.19.07Z"/>
  <path d="M125.72,345.68c-1.38-7.43,9.98-5.09,9.84-1.63-.07,1.77-4.19-.16-5.32.02-1.26.2-2.77,2.09-4.52,1.61Z"/>
  <path d="M138.21,323.34c.16.16-.1,1.99,0,2.62h-6.57c-.58-2.77,6.11-3.1,6.57-2.62Z"/>
  <path d="M124.85,329.36c2.35-.57,3.06,2.36,1.12,3.11-2.91,1.12-3.88-2.44-1.12-3.11Z"/>
  <path d="M126.37,324c.21.22.11,2.02-.64,2.31l-2.64.31c-.52-1.56,2.6-3.32,3.28-2.62Z"/>
  <path d="M475.33,738.26c1.92,1.62-4.4,15.44-3.48,17.57.63,1.47,1.92,1.85,2.84.2.84-1.5,4.39-16.62,3.96-18.11-.96-3.33-17.44-8.61-20.59-11.65-.78-5.36-.31-11.5-.93-16.81-.13-1.16-1.27-.93-1.34-1.41-.27-1.97.13-4.11-.02-6.1l7.22,7.56c8.31,5.4,18.53,7.85,28.11,10.34,1.81,1.54,2.78,11.8,3.76,14.32,1.54,3.98,19.3,11.18,23.36,14.76-.54,1.74-21.53,12.32-23.96,15.48-1.58,2.06-2.01,10.06-3.36,10.48-4.57-.94-8.19-6.88-12.61-7.73-9.02-1.73-21.92,1.37-31.11-.45-8.23-1.63-19.93-12.24-27.58-16.15,1.5-1.54,6.67-8.98,7.9-9.5,1.84-.79,18.25,2.41,14.81-2.34-.87-1.2-13.54-.85-16.11-1.64-1.96-.61-8.99-5.19-11.13-6.62l-14.53-12.4c5.09-3.52,42.89-30.49,45.53-29.82,1.96.49,5.01,6.42,6.26,8.26l1.77,31.75,21.22,10.01Z" fill="#fff"/>
  <path d="M421.99,743.11c-2.54,2.87-8.02,4.87-4.37,9.78,3.15,4.24,24.48,14.47,24.92,15.88.33,5.1-3.19,12.51-3.18,17.07,0,2.39,1.92,3.26,3.1,1.06l3.44-17.27c10.95,2.75,26.17-2.51,35.98,3.13.93.53,7.56,5.64,7.77,6.09.82,1.79-1.99,7.92-2.09,10.19.54,1.36,1.51,1.82,2.86,1.2,1.55-.71,5.07-20.07,5.77-23.22l22.34-14.47c-1.54,8.87-1.51,23.54-4.35,31.67-2.9,8.33-25.21,13.12-33.22,14.25-13.86,1.96-32.61,1.89-46.49-.02-1.69-.23-13.65-2.44-14.24-2.85-.88-.61-2.3-6.45-5.59-8.87-4.54-3.33-10.46-1.83-12.18-2.94-.32-.21-1.86-4.23-3-5.54-1.48-1.69-8.61-6.69-8.8-8.29l7.23-47.65c1.45-1.41,9.61,6.96,11.63,8.43,4.49,3.26,9.35,6.25,14.37,8.65.6,1.04-1.27,3-1.91,3.72Z" fill="#fff"/>
  <path d="M398.15,783.88c.11.2.74.22,1.05.23v1.29c-3.96.27-5.81,6.57-8.88,7.22-3.3.7-26.38.06-27.29-3.05-2.04-6.94,10.76-15.52,16.88-16.58,9.14-1.58,14.22,3.54,18.24,10.88Z" fill="#fff"/>
  <path d="M402.99,787.55c5.54-.88,12.09,1.52,13.19,7.56s-6.28,3.99-9.4,4.05-11.97,1.82-12.2-3.53c-.18-4.15,4.74-7.51,8.41-8.09Z" fill="#fff"/>
  <path d="M527.88,781.93c-.96,1.14-10.27,4.13-10.97,3.48l2.38-10.55c4.33-1.51,11.7,3.38,8.59,7.07Z" fill="#fff"/>
  <path d="M144.77,703.92l-4.67,9.11c-7.36.32-14.65,2.1-21.17,5.46-1.85.95-7.17,5.46-8.16,5.69-3.94.93-21.14-7.05-26.47-7.13,3.42-2.84,8.05-4.71,12.06-6.67,4.82-2.35,23.46-11.65,27.35-12.09,6.13-.69,15.36,3.48,21.07,5.63Z" fill="#fff"/>
  <path d="M140.17,716.4l7.9,21.03-36.17,5.26c1.05-3.64-.27-13.61,1.27-16.15,3.03-5,21.07-10.16,26.99-10.15Z" fill="#fff"/>
  <path d="M81.01,719.03l27.66,8.84-1.08,14.21-24.83-8.03c-.81-.36-1.74-2.95-1.74-3.51v-11.5Z" fill="#fff"/>
  <path d="M155.58,722.69c.66,1.16,3.19,2.93,2.75,4.89l-7.63,7.88c-.6-4.07-2.16-8.01-3.64-11.81-.69-1.76-4.04-7.41-4.09-8.4-.15-2.64,3.84-5.04,3.79-8.06,3.12,5.04,5.88,10.34,8.82,15.49Z" fill="#fff"/>
  <path d="M514.69,655.69c-.65.61-11.35,8.43-12.06,8.64-1.13.33-21.69,1.62-23.51,1.5-2.45-.17-30.17-15.05-29.27-16.47l31.01-8.18c4.31,1,35.21,10.28,35.38,12.44-.71.53-.93,1.5-1.54,2.07Z" fill="#fff"/>
  <path d="M476.14,667.77l-5.27,11.83c-.95.77-18.43-10.26-19.11-11.45-1.9-3.34-.53-10.41-1.92-14.18l26.3,13.8Z" fill="#fff"/>
  <path d="M500.47,667.76l.27,9.94-27.23,3.86c-.69-.61,4.44-11.03,6.1-12.03,4.39-2.65,15.68-1.34,20.85-1.77Z" fill="#fff"/>
  <path d="M505.07,676.31c.16-2.81-1.68-7.24-.33-9.85,1.24-2.39,11.34-7.04,13.46-9.87l.34,13.15-13.47,6.57Z" fill="#fff"/>
  <path d="M249.31,747.31l-.41,1.36c-10.65,5.68-20.13,13.4-31.53,17.67-11-2.79-19.48-10.53-28.57-16.77-.14-.82.17-1.36.64-1.99.43-.58,9.95-7.63,11.55-8.82,2.01-1.5,14.47-10.19,15.76-10.26,11.84,4.34,22.2,11.77,32.55,18.82Z" fill="#fff"/>
  <path d="M214.21,773.99c-.2.4-1.7,1.89-2,2.73-9.24-2.77-19.91-4.51-27.65-10.38l2.3-14.44c8.8,6.57,17.22,14.28,28.27,16.76l.61.64c-1.09,1.37-.83,3.26-1.53,4.69Z" fill="#fff"/>
  <path d="M249.31,752.56c-2.95,2.54-1.1,7.32-3.59,10.53-1.27,1.63-24.34,14.98-26.63,15.47-.94.2-1.59.65-2.34-.35-.46-10.63,7.75-10.91,15.03-15.26,5.73-3.42,11.56-8.08,17.55-10.38Z" fill="#fff"/>
  <path d="M542.3,696.92c1.42,1.38,2.72,3.73,4.51,5.03l.25,1.88-18.15,10.51c-7.13-1.99-11.67-7.75-16.61-12.74l16.2-14.64c1.3.03,12.26,8.46,13.8,9.96Z" fill="#fff"/>
  <path d="M549.11,706.54c-.84,1.74-1.44,5.85-2.66,6.86-.75.62-17.62,6.89-18.37,6.27.35-1,.89-1.86,1.73-2.53,4.6-3.64,14.27-6.44,19.3-10.6Z" fill="#fff"/>
  <polygon points="526.11 716.41 524.46 719.03 522.18 715.41 526.11 716.41" fill="#fff"/>
  <path d="M67.05,653.49c6.29-.72,10.06.45,13.97,5.38,2.05,2.59,5.88,9.32,3.65,12.23-4.06,5.3-33.84,5.39-37.25.33-4.78-7.09,13.82-17.27,19.63-17.94Z" fill="#fff"/>
  <path d="M89.7,670.24c-3.79-7.48,6.1-10.88,11.63-8.01.98.51,4.55,4.29,4.59,5.32.12,3.39-13.75,4.61-16.22,2.69Z" fill="#fff"/>
  <path d="M254.7,641.34c-.81-1.53,2.68-8.15,4.12-9.1s14.64-4.63,16.52-4.6c2.9.04,11.47,9.34,11.46,11.54-.05,7.5-27.77,7.69-32.09,2.16Z" fill="#fff"/>
  <path d="M86.56,781.86c.21.37,1.54.23,1.04,1.86-3.92,6.37-33.23,5.46-33.54-.59-.09-1.68,5.11-6.83,6.6-7.86,10.23-7.02,19.99-3.69,25.89,6.59Z" fill="#fff"/>
  <path d="M267.22,697.84c-.71-2.2-2.43-8.35-.83-10.06.73-.78,20.03-4.69,20.76-3.63,1.24,11.7,2.99,15.59-10.58,15.18-1.46-.04-8.75-.88-9.35-1.49Z" fill="#fff"/>
  <path d="M406.26,492.09c-3.15,3.52-25.37,2.94-24.83-2.74,4.6-6.48,11.38-10.59,19.31-6.82,2.72,1.29,8.29,6.48,5.53,9.56Z" fill="#fff"/>
  <path d="M312.44,724.27c-1.94-2.97,12.05-11.01,15.5-11.09,4.75-.1,14.97,8.36,10.34,11.65-5.21,3.71-19.88,1.37-25.85-.56Z" fill="#fff"/>
  <path d="M161.01,786.28c.53.78,1.24,4.58.85,5.04-3.38,1.04-20.62,2.41-21.07-2.31-.17-1.8,5.94-7.88,7.05-8.08.7-.12,12.68,4.62,13.18,5.35Z" fill="#fff"/>
  <path d="M570.8,644.78c2.53,3.78-11.49,7.18-13.55,7.17-1.17,0-10.63-3.68-10.76-4.24.53-1.5,7.2-6.53,8.2-6.61,3.61-.3,11.94,3.53,16.11,3.68Z" fill="#fff"/>
  <path d="M152.45,524.73c5.2-.81,15.12,6.23,12.42,10.28-1.86,2.79-20.46,2.23-23.09.02-4.13-3.46,7.54-9.82,10.67-10.3Z" fill="#fff"/>
  <path d="M544.04,779.04c2.91-2.23,11.34.13,13.53,2.86,7.34,9.13-17.19,9.34-17.01,3.25.02-.73,2.99-5.73,3.49-6.11Z" fill="#fff"/>
  <path d="M419.59,615.17c-1.4-4.81,6.13-7.92,9.55-7.82,1.75.05,9.59,5.69,9.54,7.49-.03,1.56-1.16,1.5-2.3,1.67-5.12.78-11.59-1.32-16.8-1.35Z" fill="#fff"/>
  <path d="M363.32,85.14c.07.19.88.29,1.1,1.21.57,2.37.15,9.64,1.67,10.18,3.8-.66,4.54-4.09,8.61-5.74,6.78-2.75,14.19-.06,17.57,6.48,2.15,4.16.96,6.65,2.66,10.44,6.54-3.07,18.12-3.54,21.49,4.19,1.35,3.1,2.19,6.12-1.23,8.2l-159.21-.95c-1.69-6.7,6.16-9.63,11.38-9.44,2.17.08,7.15,2.5,8.29,1.69,1.34-1.55-.16-3.14.22-4.99,2.79-13.68,23.61-19.4,31.68-6.61l1.85-.67c1.82-1.34,2.56-8.34,3.56-10.9,8.53-21.85,41.78-26.47,50.36-3.09Z" fill="#fff"/>
  <path d="M74.68,78.4c-11.23,16.16-33.5,15.81-44.95,31.96l-4.48-32.39c11.62-16.3,23.56-32.2,46.16-29.34,1.7.22,9.54,2.85,10.61,3.85,2.08,1.93-.79,6.42-1.37,9.22-1.71,8.23-1.04,9.59-5.98,16.69Z" fill="#fff"/>
  <path d="M30.39,114.96c-1.34-2.26,18.71-16.96,22.05-17.08l10.8,18.08c-6.41,2.87-14.01,2.97-18.82,8.79l-14.04-9.8Z" fill="#fff"/>
  <path d="M74.69,97.48c-3.67,5.13-5.41,10.96-8.8,16.18l-9.87-17.73c10.01-3.81,19.19-10.24,24.32-19.73-.14,2.85,3.58,9.12,3.14,11.42-.13.65-7.65,8.27-8.79,9.86Z" fill="#fff"/>
  <path d="M321.31,262.86l-.89-1.51c2.64-11.74,17.59-14.44,26.87-8.64,2.24-3.4,1.56-7.73,3.78-11.37,4.41-7.23,14.5-12.19,22.81-12.69,15.43-.93,22.57,6.49,27,20.4,13.92-14.22,38.16-7.37,37.13,13.81h-116.7Z" fill="#fff"/>
  <path d="M421.97,180.45c-.52.96-3.82,6.63-4.15,6.87-2.37,1.78-9.74,2.4-12.69,3.9l3.07-17.8,18.62-5.21c.41.51-4.1,10.85-4.85,12.24Z" fill="#fff"/>
  <path d="M429.45,172.82c5.53,8.92-5.09,17.56-9.88,24.65l-13.12-2.97c4.07-2.83,9.51-2.19,13.74-5.02,3.44-2.3,5.86-11.91,7.8-15.82l1.46-.84Z" fill="#fff"/>
  <path d="M455.6,130.26c8.17,9.04-4.66,18.02-9.07,25.8-.94.64-1.63.33-2.57-.01-3.31-1.2-10.14-9.77-13.83-11.82l25.47-13.96Z" fill="#fff"/>
  <path d="M179.36,128.52c-.23.47-2.03,2.41-2.36,3.27-1.11.57-16.98-9.55-12.17-14.22,1.08-1.05,14.15,3.08,15.17,3.93,1.7,1.41.2,5.27-.65,7.02Z" fill="#fff"/>
  <path d="M106.65,76.19c7.48,4.74,14.5,8.7,8.14,18.31l-8.72-2.95.58-15.36Z" fill="#fff"/>
  <path d="M215.78,342.41c.49.33-.6,1.11-1.31.64-.49-.33.6-1.11,1.31-.64Z" fill="#fff"/>
</svg>