<?xml version="1.0" encoding="UTF-8"?>
<svg id="Camada_1" xmlns="http://www.w3.org/2000/svg" version="1.1" viewBox="0 0 595.28 841.89">
  <!-- Generator: Adobe Illustrator 29.0.0, SVG Export Plug-In . SVG Version: 2.1.0 Build 186)  -->
  <path d="M.14,841.29V-.06h595v841.34H.14ZM590.54,3.89H4.08v543.59c14.06-7.63,30.77-18.14,46.52-21.52,22.08-4.74,39.86,8.35,58.66,17.57.34-.41-.24-6.2-.05-7.59.16-1.17,1.23-.9,1.34-1.41.91-4.45-1.02-3.55-2.18-6.17-2.38-5.35-4.41-10.8-6.43-16.29-3.04-1.76-24.97,12.05-24.91-2.34.04-9.27,12.86-19.08,20.09-23.36,4.84-2.87,10.24-4.81,15.44-6.92-7.21-3.44-33.52,4.14-32.89-7.86s26.32-18.09,35.5-19.77c-.75-3.45-2.2-6.71-2.94-10.16-8.74-40.87,5.43-78.09,42.08-100.58,56.3-34.54,132.98-6.87,149.24,57.85,1.37,5.46,1.49,10.99,2.98,15.75,11.47,1.04,26.2,3.07,32.6,13.85,5.51-2.06,10.64-5.4,16.55-6.43,18.91-3.31,19.66,8.24,6.73,18.22,9.44-4.34,37.47-7.16,44.66,1.04s-7.28,12.79-11.78,15.39c10.47-.19,26.37,2.64,33.78,10.6s4.51,12.08-5.86,13.07c-2.95.28-6.79-1.24-9.51.65,13.66,5.29,28.96,15.63,30.25,31.55,12.66.77,22.48,5.83,18.4,20.38,22.08-14.24,47.39-34.27,75.61-27.28,18.73,4.64,36.69,19.53,52.59,29.91V3.89ZM283.26,363.67c-9.33-11.54-25.33-22.88-39.22-28.16-74.95-28.54-154.31,37.16-126.16,115.62l19.66,3.01c-1.47-3.81-2.68-7.12-1.81-11.35.37-1.79,2.35-3.66,2.45-5.45.12-2.09-2.36-9.55-2.63-13.08-5.99-78.86,113.63-109.35,144.79-40.24,1.42,3.15,3.23,11.05,4.84,13.57,2.62,4.11,7.41,4.2,8.12,12.28.63,7.23-2.83,8.57-4.38,13.21s-.57,12.24-3.44,17.26l15.03-.09c3.23-12.41,3.53-25.49,1.11-38.06-2.38-12.4-10.41-28.69-18.35-38.51ZM173.05,401.55h10.19c.48,0,8.04-3.17,8.81-3.68,6.26-4.11,7.95-12.67,10.53-18.52.32-.73-.25-3.12,1.05-3.44,3.66-.9.05,10.69-.84,12.18,18.23,7.66,30.38-8.75,29.43-26.32-.07-1.32-2.38-5.89-.33-6.22,2.94-.48,2.43,9.12,3.9,10.54l27.16,12.94,6.73.17-1.97,2.95c5.55,3.49,9.39,8.24,13.14,13.47-2.48-17.18-15.93-32.03-30.98-39.68-51.98-26.44-125.68,17.22-109.7,78.46,4.76-3.01,8.77-4.27,14.43-2.63,2.08-4.35,2.86-8.59,3.32-13.45l-3.3-1.98c10.2-5.99,17.69-15.91,18.72-27.96h2.01s-2.32,13.16-2.32,13.16ZM272.74,389.96c-2.51-2.51-9.13-7.17-12.32-9.04-7.85-4.59-17.65-7.42-25.56-12.23-.95,16.24-17.48,28.97-33.11,22.46-7.12,10.96-17.62,14.24-30.36,12.97-.84,3.41-9.63,9.37-10.5,11.24-1.29,2.77-.36,19.69-6.58,19.67-1.1,0-2.16-1.14-3.33-1.23-11.55-.88-17.52,14.11-8.49,21.65,3.36,2.81,13.35,6.79,17.01,3.37.91-.85-.06-3.41,2.04-3.36,24.48,33.54,86.02,26.06,111.81-1.94,16.27-17.66,16.54-46.39-.6-63.55ZM288.77,417.33c4.22-4.43,1.85-14.34-3.95-16.43l3.95,16.43ZM388.7,459.4c-.28-6.21,25.42-9.7,15.05-17.35s-38.73-1.91-48.9,4.86c-.88-.77-1.17-.77-.68-1.98,1.53-3.79,21.54-16.48,11.66-20.19-9.3-3.5-26.09,6.45-33.34,12.31-3.36-3.31,3.72-4.31,4.16-7.44-.38-6.93-24.21-12.79-30.15-12.28-.3.29.27,3.95.05,4.97-.26,1.2-1.27.94-1.34,1.41-.79,5.46-.06,11.95-2.02,17.56,3.2.88,6.08,1.95,9.01,3.56,2.06,1.13,7.32,5.92,8.29,6.27,1.26.45,9.01.21,11.69.7,27.97,5.14,59.84,29.82,53.93,60.03-1.22,6.24-2.58,11.46-5.32,17.24h10.85c2.81,0,10.29,3.27,13.02,4.73.87.46,11.59,6.69,7.34,7.75-4.75-1.63-7.83-5.88-12.64-7.71-4.68-1.79-14.87-3.25-19.53-1.47-2.86,1.1-11.5,12.62-15.16,15.74-4.93,4.2-11.47,8-17.4,10.54,6.2,3.35,13.22,5.22,18.73,9.85,1.21,1.02,8.16,7.84,5.25,9.19-1.3.6-4.7-4.86-6.23-6.24-18.88-16.94-27.88-6.3-48.3-4.9-5.59.38-12.78.19-18.46,0-4-.13-12.49-2.25-15.61-1.86-5.52.7-17.71,11.61-21.18,16.28-4.73-.03,6.41-10.54,7.21-11.18,2.9-2.28,6.35-3.82,9.55-5.57l-27.27-7.56c-7.02,1.58-15.26,5.44-20.04,10.87-.69.78-8.43,13.77-7.8,6.06.49-6.01,17.07-16.22,22.24-18.89-7.65-2.85-15.33-5.81-22.8-9.09-9.49-4.16-10.71-8.92-21.56-.77-3.42,2.57-4.17,5.71-6.35,8.11-.88.97-.91,1.37-2.53,1.08-.08-4.95,4.81-8.21,7.93-11.46l7.84-4.64c-6.24-3.98-12.38-8.08-18.05-12.85-6.77-5.69-5.22-8.77-15.88-9.75-5.85-.54-13.22.19-18.8,2.07-.76.26-10.78,6.27-8.41,2.11,3.57-6.27,25.9-8.06,32.53-6.23,1.5-1.91-1.05-2.03-1.77-3.46-3.22-6.4-4.59-14.94-5.26-22.05-5.76-3.7-13.11-7.67-19.96-8.63-3.13-.44-10.6.46-12.33-.17-1.86-.68-.75-2.52-.11-2.52h11.83c6.48,0,14.82,5.39,20.7,7.89l2.3-13.17c-3.33-3.11-7.3-5.38-10.89-8.16-.81-.63-1.16-2.28-1.7-2.38-.82-.15-5.46,2.04-8.34,1.97-5.85-.15-9.68-4.05-14.9-5.54-12.58-3.59-30.3-2.77-42.33,2.39-3.64,1.56-18.53,10.05-13.27,15.07,2.19,2.09,24.65,1.54,29.53,2.02,2.19.22,6.47.38,6.83,2.87-.37,1.77-12.77,4.96-15.39,6.13-6.53,2.9-18.59,11.25-22.04,17.4-4.81,8.57-3.22,12.03,6.72,10.01,5.34-1.09,35.33-12.72,38.1-10.21-.67,4.83-5.98,8.24-8.41,12.29-4.52,7.53-7.22,19.52-5.44,28.18l29-9.95c1.56,1.06-5.99,38.14,8.1,31.17,3.76-1.86,10.88-14.36,15.51-18.01,1.18-.93,8.28-5.2,9.23-4.24-.6,5.59-3.39,9.61-3.92,15.46-.66,7.25-1.44,26.08,10.02,25.14,6.55-.54,13.57-16.26,21.52-15.62v14.13c0,4.05,5.32,14.33,8.98,16.66,13.16,8.42,20.55-11.81,31.37-14.31,2.72,7.5,2.88,16.48,10.33,21.26,8.86,5.7,11.42-2.87,16.7-7.53,6.12-5.39,13.01-10.11,20.97-12.42,4.31,7.36,12.88,41.49,21.76,18.33,1.16-3.03,1.62-11.3,4.66-11.82,11.81-2.01,33.14,33.33,33.81,6.91.06-2.24-2.2-11.35-.21-12.06,9.88.21,27.78,17.48,37.27,11.64,6.35-3.91,6.16-21.23,5.71-27.85-.17-2.49-2.95-10-1.35-11.17,7.15-.81,25.99,23.36,27.26,6.61.5-6.55-3.03-11.97-4.24-18.09,7.01-1.46,26.05,15.16,28.22,2.25,2.18-12.99-9.51-27.73-20.55-33.26-3.02-1.51-16.02-4.01-16.21-4.83-.96-4.06,13.9.83,15.57,1.53,5.77,2.44,10.05,7.07,15.02,10.67,11.45-12.71-3.47-28.58-14.62-35.4-2.81-1.72-16.84-6.89-17.23-7.75-.17-.38-.34-1.58.32-1.63,5.28-4.09,29.67,2.89,22.25-8.45-3.29-5.03-18.53-11.22-24.28-11.22h-15.45ZM316.37,452.16c2.72-3.12-26.85-15.97-34.2-6.73-1.26,1.58-1.63,4.53-3.27,6.07.52.39,12.29-2.98,9.54.68-11.56,1.17-18.45,9.02-27.62,14.45-11.79,6.99-17,5.94-25.88,18.16-4.9,6.75-8.12,14.64-11.82,21.67-.56,1.07-.69,1-1.76,1.56-2.75-.45,2.22-9.64,2.78-10.97l13.98-20.56c-20.51,6.31-41.69,5.02-61.13-3.95-7.08,24.08,3.76,43.74,23.18,57.34,44.59,31.2,141.91,57.56,176.82.34,20.94-34.32-7.75-67.67-41.56-75.1-32.7-7.18-65.06,23.42-81.65,48.52-2.8,4.24-4.04,10.22-8.41,12.94-1.2-4.81,2.37-7,3.95-9.7,14.72-25.28,37.74-47.99,67.05-54.72ZM123.08,505.42l-18.13,5.23,5.66,15.12,1.3-.39c1.98-7.45,5.42-14.74,11.17-19.96ZM590.54,538.93c-17.62-11.39-41.55-31.89-63.48-32.22-18.2-.28-47.49,15.85-61.39,27.34-4.9,4.05-8.89,15.24-11.24,21.63-2.45,6.64-4.38,13.64-6.57,20.38,47.94,2.66,95.62,8.63,142.68,17.43v-54.56ZM353.85,589.54v14.79c0,.63-3.43,5.54-3.96,5.9-5.87,4.05-13.29-5.28-17.43-8.18-2.09-1.46-13.4-10.08-15.31-7.13-.57,4.78-1.84,10.76-4.59,14.79-2.04,3-4.15,3.22-6.08,5.81l2.67,23.96c1.35.13,2.64.05,3.96-.3,7.78-2.07,21.31-9.24,29.16-12.91,35.51-16.65,69.49-36.34,104.13-54.63,1.9-11.42,18.75-40.18,12.94-50.42-2.03-3.58-11.45-7.17-15.3-5.16-.13,4.06-1.76,7.39-4.64,10.16l2.33,3.45c3.27.97,11.79-7.73,16-6.49-.02.86.33,1.28-.46,1.98-1.56,1.37-13.52,6.32-13.92,7.6,3.86,6.38,7.67,20.73-1.57,24.1-6.87,2.51-15.71-4.27-22.18-6.07,1.91,6.29,7.52,17.73-.42,22.25-8.11,4.62-16.43-7.78-23.9-10.42,2.16,8.81,2.99,33.2-6.34,38.04-9.82,5.1-25.64-8.31-35.09-11.09ZM4.08,550.1v47.33c40.83-10.77,83-14.9,124.93-19.4-3.1-6.37-4.36-16.93-7.29-22.8-3.05-6.11-45.02-25.71-53.17-27.18-22.58-4.07-45.13,12.63-64.47,22.06ZM139.52,536.3c-.73-.73-10.97,3.47-12.3,4.43-.55.4-1.22-.08-.84,1.47l12.49,5.92.66-11.82ZM168.3,568.65c-.33-.71-9.27-5.76-10.81-6.56-3.62-.24-5.42,8.34-13.2,5.26-6.03-2.38-4.19-12.56-6.04-15.65-.57-.94-14.56-8.71-15.78-8.48-4.16.78-.79,3.21-.6,3.84,2.02,6.61,7.03,26.67,10.63,31.1,3.98,4.9,27.39,17.37,34.29,21.26,39.42,22.19,85,47.24,125.9,66.06,12.47,5.74,12.95,8.41,26.77,3.07,29.35-11.35,80.38-40.35,106.26-58.75,1.8-1.28,6.89-4.94,7.87-6.63,4.02-6.99,6.79-19.1,10.38-26.92.32-.71,1.45-.33,1.28-.83l-1.8.17c-43.57,24.51-87.6,48.97-134.2,67.3-.23,2.96.1,20.88-1.8,21.55-5.12-.71-.98-5.21-.88-6.16.29-2.6.91-16.54-.21-17.95-25.11-15.24-51.85-27.5-78.08-40.65-2.37-.48-6.1,2.75-8.95,2.99-8.81.75-13.81-7.35-17.95-13.63-.53-.81-.27-2.48-.88-3.26-.33-.43-9.01-5.19-9.54-5.31-3.5-.78-6.57,8.15-15.07,3.95-2.37-1.17-5.05-4.69-6.03-7.12-1.2-2.97-.95-7.36-1.55-8.64ZM119.14,548.78c-.95-2.59-.89-3.96-3.94-2.61l.82,1.51,3.12,1.1ZM168.22,562.38c1.18-4.64.5-10.78,2.85-15.57-5.91,2.56-9.17,7.56-12.48,12.82l8.22,4.92c-.34-.88,1.38-2.05,1.41-2.18ZM199.35,571.14c-1.64-.14-7.28,6.2-7.19,6.91,1.79,1.28,4.88,3.63,6.87,4.25s.31-.92.31-.98v-10.19ZM590.54,837.34v-240.9l-1.1-.87c-47.15-7.67-94.52-15.4-142.44-16.44-7.81,9.58-6.78,24.95-18.06,31.76l35.29,40.22c1.67,2.24-.95,4.33-2.54,5.8-2.02,1.88-20.11,12.4-22.2,12.7-2.93.42-20.45-1.89-23.85-2.82-6.99.19-29.08-29.24-31.57-29.01l-36.41,20.16-28.2,57.58c-3.3,2.98-30.09,14.37-34.41,14.44-3.14.05-15.83-5.82-18.84-7.79-8.75-5.74-5.91-7.59-2.34-15.88,6.09-14.1,15.94-27.55,21.33-41.85l-100-52.53c-1.58,3.07-5.06,5.87-6.91,8.35-4.4,5.92-12.94,22.63-19.04,25.48-3.92,1.83-21.41,6.59-25.32,6.27s-18.64-8.54-19.79-12.51c-.57-1.96.03-2.4.69-3.99,3.65-8.78,21.49-31.03,28.07-40.29.91-1.28,3.07-2.22,3.7-4.05-.03-.94-14.7-10.22-15.61-10.46-2.95-.78-27.28,2.45-32.48,3-31.75,3.35-63.69,8.04-94.44,16.67v236.96h586.45ZM290.07,588.23c-1.81-1.46-16.74,9.57-18.99,11.57-5.87,5.22-7.18,12.81-17.97,7.97-8.22-3.69-10.07-12.87-11.7-20.85-1.82.7-12.75,9.78-11.82,11.16l75.6,38.79c.68-.94-1.54-21.7-2.14-23.15-1.03-2.46-7.25-9.18-8.97-12.86s-2.97-8.72-4-12.63ZM156.36,617.56c3.41-5.03,6.71-10.15,10.1-15.21l-17.42-10.09c-9.7,12.31-18.54,25.18-27.25,38.18-1.42,2.11-6.39,5.27-4.95,9.02.83,2.13,15.5,10.48,17.42,9.59,7.01-10.75,14.92-20.9,22.11-31.51ZM179.37,615.59c.95-1.37,1.84-2.78,2.79-4.15.11-.92-9.87-6.91-11.09-7.17-1.62-.35-2.22.13-3.43,1.05l-30.08,43.73c5.48-2.01,18.38-3.58,22.68-6.89,2.31-1.78,16.31-22.49,19.12-26.55ZM444.16,632.69c-5.94-6.64-10.87-14.22-17.76-20.03l-23.24,13.71,37.24,39.98c3.2-1.3,21.99-11.53,21.76-14.04-5.69-6.79-12.11-13.03-18-19.62ZM436.03,666.44l-34.19-37.82-14.45,7.92c7.3,6.09,18.7,23.59,26.72,27.17,5.76,2.57,15.63,2.32,21.91,2.74ZM343.99,659.88c-5.84,3.39-23.2,8.98-27.23,13.19-3.21,3.35-7.62,14.95-10.32,19.76-6.22,11.06-13.26,21.75-18.33,33.42,1.4,1.11,27.69-10.62,30.03-13.35,2.71-3.16,7.57-16.53,9.9-21.3,4.12-8.44,8.99-17.44,13.35-25.64.99-1.86,1.28-4.3,2.61-6.09ZM313.08,673.68c-9.55,2.78-16.79-5.86-25.55-7.15l-24.39,48.31c-.22,1.03.02,1.73.59,2.58,1.29,1.9,20.06,10.75,21.06,10.14l28.29-53.89Z"/>
  <rect x=".14" y="841.29" width="595" height=".66" fill="#fff"/>
  <path d="M590.54,3.89v531.75c-15.9-10.38-33.86-25.27-52.59-29.91-28.21-6.99-53.52,13.04-75.61,27.28,4.08-14.56-5.74-19.61-18.4-20.38-1.29-15.92-16.59-26.26-30.25-31.55,2.72-1.89,6.56-.37,9.51-.65,10.37-.98,13.36-5.02,5.86-13.07s-23.32-10.8-33.78-10.6c4.5-2.6,18.78-7.4,11.78-15.39s-35.21-5.38-44.66-1.04c12.93-9.98,12.18-21.53-6.73-18.22-5.91,1.03-11.04,4.37-16.55,6.43-6.39-10.78-21.12-12.81-32.6-13.85-1.49-4.76-1.6-10.29-2.98-15.75-16.26-64.72-92.94-92.39-149.24-57.85-36.65,22.49-50.82,59.71-42.08,100.58.74,3.45,2.18,6.71,2.94,10.16-9.18,1.68-34.9,8.19-35.5,19.77s25.68,4.42,32.89,7.86c-5.2,2.1-10.6,4.05-15.44,6.92-7.23,4.29-20.05,14.09-20.09,23.36-.05,14.4,21.88.58,24.91,2.34,2.02,5.49,4.05,10.94,6.43,16.29,1.16,2.61,3.09,1.72,2.18,6.17-.1.51-1.17.24-1.34,1.41-.19,1.39.38,7.19.05,7.59-18.8-9.22-36.59-22.31-58.66-17.57-15.76,3.38-32.47,13.88-46.52,21.52V3.89h586.45ZM81.66,81.45c18.53.28,36.49-4.67,33.36-27.11-2.81-20.14-31.38-20.31-46.65-17.41-5.51,1.05-7.74,1.12-8.42,7.35-1.76,16.14,1.13,35.82.31,52.32,1.53,5.17,21.41,3.98,21.41.29v-15.45ZM490.2,50.96c-7.38-12.64-22.91-17.1-36.6-12.08-24.16,8.85-23.83,50.34.59,59.59,28.85,10.93,50.49-22.72,36.01-47.5ZM241.43,57.79h10.85c7.88,0,8.37-15.58,2.54-18.97-1.55-.9-4-1.25-5.81-1.43-8.94-.87-26.5-.74-35.55,0-2.43.2-5.33.38-7.39,1.82-5.14,3.59-4.94,18.59,2.16,18.59h11.51l.67,38.44c1.91,4.82,15.79,3.82,19.68,1.3,3.18-3.41.37-33.29,1.34-39.74ZM294.31,45.02c-2.24-4.17-4.14-6.82-9.23-7.55-20.75-2.97-19.25,7.41-24.5,22.68-3.27,9.52-7.43,20.33-9.62,30.5-1.23,5.72-1.89,8.3,5.25,9.2,9.46,1.19,15.23.08,17.08-9.87l14.05-.55c1.65,9.93,5.73,11.56,15.35,10.24,5.1-.7,7.51-1.64,7.02-7.29-.47-5.45-12.73-42.35-15.41-47.36ZM348.59,41.03c-1.42,5.04,1.06,16.86,0,22.68-5.9-5.77-11.7-24.27-20.11-25.57-3.2-.5-12.97-.65-15.04,1.94l-.97,2.32c.48,18.44-1.57,37.16.79,55.33,5.77,2.8,13.74,3.05,19.22-.48l.99-22.35c5.23,6.12,11.51,23.83,20.05,24.97,2.73.37,12.09.11,14.12-1.65,1.37-1.19,1.85-5.36,2.01-7.2,1.37-15.73-.82-33.74-.32-49.68-1.86-5.87-19.42-5-20.74-.3ZM179.62,44.97c-.81,5.85.6,13.35,0,19.39-1.52.39-1.1-.34-1.52-.82-6.15-7.21-9.83-23.56-21.18-24.8-3.3-.36-13.14.09-14.12,4.26l.12,53.13c4.86,5.04,14.33,4.94,19.9,1.06l.7-21.66,14.82,21.99c3.29,3.2,16.81,3.41,19.34.35l1.69-8.83.34-47.06c-1.38-4.16-11.64-3.84-15.12-3.21-3.27.59-4.55,3.21-4.97,6.2ZM377.71,40.23c-1.03,1.45-1.36,2.95-1.54,4.71-1.13,10.87-1.16,37.86.01,48.7.5,4.62,1.52,5.62,6.27,6.22,14.9,1.87,39.59-1,46.7-16.41,6.44-13.98,3.35-35.89-12.19-42.41-6.57-2.75-34.66-5.33-39.25-.8ZM123.59,40.22c-3.88.65-5.14,2.19-5.7,6.13-1.08,7.48-1.19,40.61-.01,47.87s18.04,7.79,19.03.72l-.02-51.94c-.75-3.47-10.43-3.27-13.3-2.79ZM532.75,68.89c-2.12-12.12-11.92-12.73-14.99-.52l-11.68,1.92c-4.55,5.2,5.11,9.38,5.57,10.97,1.29,4.42-6.46,16.63,4.76,14.49,2.11-.4,6.93-4.09,8.05-4.18,3.22-.27,9.84,7.76,14.14,2.7,3.23-3.8-1.14-10.2-.33-12.21.26-.65,4.85-3.43,5.88-5.25,4.06-7.18-6.7-7.69-11.4-7.93ZM180.28,153.75c16.64.32,29.6-7.74,27.54-25.88s-18.59-19.7-33.15-18.83c-5.8.34-14.64.59-14.77,8.24l.29,50.32c1.38,4.2,13.71,3.02,17.04,1.15,4.65-2.6,2.65-10.5,3.05-15ZM295.67,151.78c-4.08-.7-9.85.51-14.14,0-.13-6.65,2.46-35.67-.07-39.7-1.58-2.53-16.7-3.25-18.2,1.39l-.17,51.16c-.23,3.56,2.45,5.16,5.61,5.57,4.81.63,21.56.66,26.32,0,2.96-.41,5.27-1.96,6.56-4.62.34,6.39,15.33,5.41,18.68,3.56,3.92-2.16,3.15-8.21,4.64-9.17l13.1-.23c.91,9.56,5.8,11.49,14.85,10.43s6.84-4.97,5.41-11.3c-1.71-7.58-11.3-38.85-14.81-44.36-3.7-5.82-16.16-6.45-21.62-3.61-2.72,1.41-2.81,3.83-4.99,5.56l-14.29,45.83c-1.25-2.35-.4-5.46-2.31-7.87-.79-1-3.45-2.45-4.59-2.65ZM430.77,166.57c.79-3.51-.58-9.63,0-13.47,7.35,5.95,6.58,18.57,18.72,17.77,18.34-1.21,4.38-14.87.34-22.73,16.67-13.06,11.61-37.24-10.82-39.1-6.72-.56-27.23-2.48-27.34,6.89l.17,51.16c1.32,4.49,17.72,4.84,18.92-.52ZM120.72,121.29c-1.93-4.51-2.44-9.62-8.28-11.13-4.45-1.15-14.91-1.18-18.29,2.51-3.16,3.45-4.82,13.21-6.47,17.83-3.33,9.31-8.58,21.13-10.32,31.11-1.01,5.77-.86,7.81,5.29,8.58,9.78,1.22,14.33-.3,16.68-10.14l13.16-.3c1.26,10.2,6.42,11.84,16.01,10.27,7.56-1.24,6.82-5.12,5.03-11.13-3.46-11.67-8.02-26.41-12.81-37.6ZM248.27,127.2c-5.18-13.5-4.82-20.04-22.97-17.5-8.34,1.17-8.59,9.92-10.89,15.92-4.66,12.14-8.16,24.7-11.84,37.46-.14.5-1.09.54-1.21,1.01-1.74,6.64,12.46,6.78,16.58,5.93,6.34-1.31,4.15-8.74,6.4-10.04l14.15.33c.87,2.9,1.97,8.73,5.39,9.73,5.03,1.46,18.64.7,16.59-7.27-2.81-10.92-8.08-24.86-12.18-35.57ZM375.14,127.23c-1.34-4.61-1.64-14.26-6.15-16.55-5.51-2.79-18.93-.55-17.07,7.75,2.34,10.43,8.53,28.56,12.55,38.86,2.44,6.25,1.89,12.01,10.26,13.38,19.39,3.17,18.73-7.24,23.26-20.98.17-.5.97-.52,1.28-1.51,1.37-4.3,8.91-31.12,8.5-33.51-.99-5.74-14.18-6.2-18.05-2.97l-8.92,32.83c-2.61-5.11-3.11-11.07-4.67-16.55-.13-.46-.94-.59-1-.76ZM502.04,115.38c-.69-.98-.95-2.28-1.88-3.06-4.6-3.87-18.23-3.92-22.36.69l-16.72,51.02c-2.88,8.52,15.45,6.94,18.54,4.7,2.84-2.06,2.42-8.73,3.51-9.1l13.44.32c1.08,9.93,7.71,11.67,16.68,10.18,9.15-1.52,2.79-15.06.97-21.11-2.21-7.32-8.21-27.99-12.17-33.65ZM52.46,222.38c5.73,10.92,13.96,15.53,26.22,16.84h436.6c37.59-4.26,37.81-49.63,1.28-55.88H79.31c-19.41,1.34-36.88,19.9-26.85,39.04ZM467.22,257.32c-1.72-2.19-3.3-4.62-6.53-4.37-7.08.54-12.74,24.77-14.85,30.89-2.24,1.72-23.39-10.51-29.5-4.84s9.92,22.81,8.24,25.31c-7.32,2.95-49.06,9.82-24.02,19.99,7.07,2.87,16.08,4.95,23.64,6.28,1.91,1.82-22.59,31.31-.63,27.3,6.14-1.12,13.62-6.32,19.68-8.24,2.46,5.71,2.89,12,4.4,18.29,1.25,5.21,5.08,24.12,7.77,27.07,7.46,8.14,9.86-4.66,11.58-9.32.19-.51,1-.58,1.17-1.07,3.65-10.89,5.14-23.62,8.58-34.69,2.5-1.87,21.1,13.27,26.96,8.56s-6.76-22.31-7.85-27.88c8.5-2.59,48.53-10.64,23.9-21.61-6.97-3.1-14.95-3.85-21.91-6.99,2.54-5.32,14.44-21.86,8.51-26.93-4.98-4.26-23.46,7.02-29.24,8.83-4.35-8.21-4.07-19.12-9.9-26.56ZM296.83,283.45c1.79-2.36,7.91-4.38,6.05-8.73-1.75-4.11-9.42-2.6-10.88-3.59-1.03-.7-1.43-8.82-5.87-9.96-6.5-1.67-6.94,7.06-9,8.34-2.97,1.85-10.36-1.36-11.79,3.21s5.06,7.54,5.55,9.69c.73,3.22-5.88,11.08.41,13.41,3.86,1.43,8.06-3.5,11.21-3.41s6.54,6.7,11.99,4.17c4.34-2.02.66-10.93,2.31-13.11ZM98.52,278.87c-14.47-20.96-45.43-18.13-52.46,6.91-30.62-1.55-35.24,39.3-.2,38.25,2.73-.08,7.02-1.61,9.12-1.34,1.35.17,4.51,2.67,6.6,3.31,8.62,2.63,17.01,2.75,25.63-.06,2.24-.73,7.81-4.27,8.7-4.39,1.47-.2,5.98,2.38,8.08,2.81,11.11,2.31,38.08-.32,35.55-16.49-1.38-8.82-11.4-7.09-13.84-9.16-.51-.44-1.78-6.96-3.37-9.12-4.71-6.37-14.52-8.43-21.57-5.04-.26-.16-1.66-4.84-2.24-5.68ZM201.55,296.61c3.79-5.17,7.93-10.59,8.32-17.66.88-16.12-18.01-19.19-23.02-4.91-6.59-2.64-10.12-5.43-16.9-.88-12.25,8.21.14,19.42,8.04,24.55,4.84,3.14,10.84,5.74,16.41,7.25,2.28-.22,5.76-6.42,7.16-8.34ZM372.69,274.76c-.61.33-1.25.79-1.08,1.58.37,1.68,27.4,13,30.87,15.17l1.99-1.39-31.77-15.35ZM358.29,309.03c-1.43-1.42-7.86-.49-9.7-1.8-2.04-1.45-1.29-8.47-8.24-7.6-4.69.59-4.3,7.53-6,8.65-2.28,1.49-9.51.24-10.1,4.25-.68,4.61,6.06,6.86,6.44,8.57.45,2.04-2.78,7.72-.57,10.52,2.89,3.65,9.29-3,12.31-3.01,1.88,0,4.7,2.73,7.32,3.13,9.83,1.49,3-8.65,4.08-12.53.22-.8,8.77-5.89,4.46-10.18ZM550.96,313.67c-2.37.08-10.02.6-11.88,1.27-2.41.87-2.47,3.09.47,3.16,2.08.05,18.54-2.06,18.77-2.99-.54-2.75-5.16-1.51-7.36-1.43ZM400.53,348.32c-.86-.88-15.99,7.46-17.95,8.67s-9.27,5.38-3.74,6.13l21.04-11.84c.79-.41.86-2.74.65-2.95ZM544.48,360.84c-5.84-1.13-17.48-11.64-22.14-12.4-2.35-.38-3.04,1.94-1.07,3.07l19.99,11.58,2.62.04.61-2.29ZM42.38,367.53c-3.95,4.15,4.52,8.77,4.98,10.82.63,2.77-5.04,11.54.48,12.68,4.21.87,9.61-3.39,11.04-3.16.54.08,5.9,4.33,8.31,4.84,9,1.88,4.11-10.19,5.6-12.85.66-1.18,6.93-2.7,7.57-6.28,1.09-6.17-7.79-5.97-11.87-6.51-7.84-22.42-11.87-3.13-15.75-1.34-2.23,1.03-8.25-.41-10.36,1.8ZM318.09,383.4c2.52,4.57,11.45,17.17,16.98,16.8,4.33-.28,19.87-12.33,21.54-16.6,5.42-13.89-10.06-19.8-18.87-10.33-6.73-14.65-27.21-5.94-20.89,9.04.31.73,1.11.85,1.24,1.09ZM409.33,395.88c.55-.73,9.26-10.03,5.32-10.76-2.79,1.47-14.46,16.76-12.81,18.4,2,1.98,6.27-6.04,7.48-7.64ZM501.12,408.79c-12.82-3.78-32.77,8.26-25.24,22.93,5.54,10.78,15.37,6.26,23.58,7.97,2.14.45,6.85,3.93,10.34,4.78,10.74,2.63,19.55.41,29.64-2.97,1.49-.5,2.99-2.17,4.17-2.3,2.46-.29,9.65,2.46,13.61,2.39,25.17-.4,28.1-32.67,1.72-32.5-7.77-30.44-49.84-30.51-57.83-.31ZM476.89,463.25c-.84-.68-.52-9-5.67-9.16s-6.56,6.51-7.68,7.17c-1.78,1.06-10.06-2.99-11.08,2.45-.83,4.46,4.5,6.81,4.68,8.52s-5.46,7.16-2.76,10.57,9.48-1.81,11.45-1.56c2.2.28,7.55,7.85,11.35,5.17.07-1.19,2.8-4.86,2.87-5.14.44-1.69-.5-4.59.18-5.95.39-.78,6.4-2.78,6.37-7.04.11-4.86-8.67-4.18-9.71-5.02Z" fill="#fff"/>
  <path d="M590.54,837.34H4.08v-236.96c30.74-8.63,62.68-13.32,94.44-16.67,5.2-.55,29.53-3.78,32.48-3,.91.24,15.58,9.52,15.61,10.46-.62,1.83-2.79,2.78-3.7,4.05-6.58,9.26-24.42,31.51-28.07,40.29-.66,1.59-1.26,2.03-.69,3.99,1.15,3.96,15.83,12.17,19.79,12.51s21.39-4.44,25.32-6.27c6.11-2.84,14.64-19.56,19.04-25.48,1.84-2.47,5.32-5.27,6.91-8.35l100,52.53c-5.39,14.29-15.24,27.74-21.33,41.85-3.58,8.29-6.41,10.14,2.34,15.88,3.01,1.97,15.7,7.84,18.84,7.79,4.32-.07,31.11-11.46,34.41-14.44l28.2-57.58,36.41-20.16c2.49-.23,24.58,29.19,31.57,29.01,3.4.93,20.92,3.24,23.85,2.82,2.09-.3,20.18-10.82,22.2-12.7,1.59-1.48,4.21-3.56,2.54-5.8l-35.29-40.22c11.28-6.81,10.24-22.18,18.06-31.76,47.92,1.04,95.29,8.77,142.44,16.44l1.1.87v240.9ZM506.38,609.91c-.71-19.03-23.9-13.39-16.45,4.6-9.93-5.88-18.29.72-11.72,11.42.5.82,8.13,9.38,8.42,6-2.29-4.17-13.69-14.06-5.05-16.91,10.37-3.42,13.3,15.2,17.57,20.89,3.23,1.57,21.01-17.65,28.3-10.59,5.83,5.65-9.61,12.63-7.92,14.17,11.23-.74,18.16-19.07,1.97-17.75,5.08-5,10.53-13.35.36-16.46-6.23-1.9-10.33,1.91-15.48,4.63ZM74.68,612.3c-5.61-8.37-14-4.12-14.07,4.85-6.2-4.78-12.58-1.66-10.85,6.59.38,1.82,8.21,13.12,8.25,7.54.01-1.61-7.89-7.97-4.68-13.03,5.27-3.91,6.76,7.41,11.16,5.39.3-4.46-3.28-8.51,1.31-12.14,6.06-4.79,8.36,6.22,8.63,10.41,5.74,3.9,6.26-11.84,13.49-6.74,1.38,5.66-.66,9.99-2.98,14.79.73,1,1.5,1.41,2.66.7,2.15-1.32,4.89-14.94,2.27-17.45-5.65-4.6-9.49.33-12.81,4.6-.09-2.71-1.24-3.79-2.39-5.5ZM77.06,707.53v13.47c-3.68-3.58-6.56-7.68-11.38-9.99-19.73-9.43-27.83,7.93-7.71,17.57,12.22,5.86,30.81,4.54,41.77-3.65,4.7-3.51,19.15-20.93,7.45-23.87-12.46-3.13-23.17,8.24-27.5,18.62v-9.53c0-.8-1.13-1.73-.53-3.79.37-1.27,3.59-3.55,4.51-6.03.82-2.19.66-4.65,1.35-6.86,18.12,2.4,27.17-18.41,5.84-21.77,7.79-16.62-10.89-21.89-20.04-9.19-6.35-9.86-23.58-6.05-20.39,7.25.61,2.52,2.51,2.46,2.96,4.57-20.13,3.28-13.8,26.36,5.9,20.39.36,8.44,8.64,14.09,16.7,11.88l1.07.93ZM532.68,681.56c5.1-16.31-14.88-20.33-20.39-5.91-6.69-6.84-21.34-2.89-18.22,8.02,1.11,3.87,4.07,5.22,5.73,8.41-15,6.83-3.88,24.72,9.86,17.76l-1.32,21.03c-4.81-8.45-13.61-17.79-24.49-15.61-8.48,1.7-4.41,10.23-.76,14.9,11.26,14.42,35.71,17.88,50.85,7.57,12.3-8.37,9.3-19.78-5.85-15.71-7.83,2.11-11.7,8.17-17.11,13.45l1.31-27.61c4.05,2.68,4.78,7.82,10.79,7.91,8.16.11,12.3-6.99,9.58-14.47,18.52,1.26,18.46-20.71,0-19.73ZM173.04,688.14c-6.8-13.35-25.99-12.39-22.34,5.25-17.26-.21-16.76,19.69,0,20.39-5.44,10.97,4.74,19.25,15.12,15.12l-1.32,19.71c-3.12-9.04-9.17-19.7-19.07-22.66-17.71-5.3-11.03,15.01-2.66,22.37,11.34,9.97,29.24,10.85,42.31,4.11,21.23-10.96,13.51-31.96-8.41-17.61l-9.53,10.51c-1.19-2.62,1.25-4.04,1.36-4.88.84-6.12-.69-12.89,3.58-18.14l1.17-.53c13.41,8.04,31.43-9.37,13.61-17.2,1.87-4.21,5.45-5.77,5.31-10.84-.22-7.61-15.4-14.17-19.13-5.59ZM427.49,711.14c-1.64-16.23-23.88-11.48-19.74,4.6-7.62-2.47-15.34,2.78-13.52,11.22,1.48,6.83,11.1,7.33,11.87,9.11-1.81,7.97,4.53,13.23,12.17,12.54l-2.64,16.42c-2.81-8.8-13.46-23.29-23.9-22.31-10.92,1.03-3.99,15.01-.42,20.01,11.3,15.83,40.48,15.79,54.59,3.97,5.76-4.82,10.04-15.93-.41-17.38-11.09-1.53-19.56,7.34-26.56,14.39.53-3.36.61-12.69,1.97-15.27.57-1.07,6.37-3.02,5.94-6.41,12.24,7.83,31.5-5.61,14.44-15.14,1.25-3.71,4.39-3.44,5.72-7.74,3.77-12.26-12.04-13.82-19.52-8.02ZM266.42,755.18c-.87-10.95-12.09-11.89-14.8-1.33-12.82-10.09-14.97,6.99-5.92,13.8,3.62-.02-5.58-9.37-2.36-13.52s7.63,4.64,10.24,4.99c1.96-.59-.73-11.15,5.63-10.25,5.37.76,4.32,7.84,5.24,11.57,2.13,1.66,6.79-10.43,11.86-5.62,3.13,4.06-.59,8.66-2.02,12.52,3,2.38,5.78-6.57,5.88-8.64.44-9.09-8.82-9.21-13.75-3.51Z" fill="#fff"/>
  <path d="M388.7,459.4h15.45c5.75,0,20.99,6.19,24.28,11.22,7.41,11.34-16.97,4.36-22.25,8.45-.66.06-.5,1.26-.32,1.63.39.86,14.42,6.03,17.23,7.75,11.15,6.81,26.06,22.68,14.62,35.4-4.97-3.6-9.26-8.23-15.02-10.67-1.67-.71-16.52-5.59-15.57-1.53.19.82,13.19,3.32,16.21,4.83,11.04,5.53,22.73,20.27,20.55,33.26-2.17,12.9-21.21-3.72-28.22-2.25,1.21,6.12,4.74,11.54,4.24,18.09-1.28,16.75-20.12-7.42-27.26-6.61-1.6,1.17,1.18,8.68,1.35,11.17.45,6.62.64,23.94-5.71,27.85-9.49,5.85-27.39-11.43-37.27-11.64-1.99.72.26,9.83.21,12.06-.66,26.42-21.99-8.92-33.81-6.91-3.04.52-3.5,8.79-4.66,11.82-8.88,23.16-17.45-10.97-21.76-18.33-7.96,2.31-14.85,7.03-20.97,12.42-5.28,4.66-7.84,13.23-16.7,7.53-7.45-4.79-7.61-13.76-10.33-21.26-10.82,2.5-18.2,22.73-31.37,14.31-3.65-2.34-8.98-12.61-8.98-16.66v-14.13c-7.95-.64-14.97,15.09-21.52,15.62-11.47.94-10.69-17.89-10.02-25.14.53-5.85,3.32-9.87,3.92-15.46-.95-.96-8.04,3.31-9.23,4.24-4.63,3.66-11.75,16.16-15.51,18.01-14.09,6.97-6.54-30.11-8.1-31.17l-29,9.95c-1.78-8.66.92-20.65,5.44-28.18,2.43-4.05,7.74-7.47,8.41-12.29-2.78-2.52-32.76,9.12-38.1,10.21-9.95,2.03-11.54-1.44-6.72-10.01,3.45-6.15,15.51-14.5,22.04-17.4,2.63-1.17,15.03-4.36,15.39-6.13-.36-2.49-4.64-2.66-6.83-2.87-4.88-.48-27.34.07-29.53-2.02-5.26-5.03,9.63-13.51,13.27-15.07,12.03-5.16,29.75-5.98,42.33-2.39,5.22,1.49,9.05,5.38,14.9,5.54,2.88.08,7.51-2.12,8.34-1.97.54.1.89,1.76,1.7,2.38,3.58,2.78,7.56,5.05,10.89,8.16l-2.3,13.17c-5.88-2.49-14.22-7.89-20.7-7.89h-11.83c-.64,0-1.75,1.84.11,2.52,1.73.63,9.19-.27,12.33.17,6.85.96,14.2,4.92,19.96,8.63.67,7.1,2.03,15.64,5.26,22.05.72,1.43,3.27,1.55,1.77,3.46-6.63-1.84-28.96-.04-32.53,6.23-2.37,4.16,7.65-1.85,8.41-2.11,5.58-1.88,12.95-2.61,18.8-2.07,10.66.98,9.11,4.06,15.88,9.75,5.68,4.77,11.82,8.86,18.05,12.85l-7.84,4.64c-3.12,3.25-8.01,6.51-7.93,11.46,1.62.29,1.65-.11,2.53-1.08,2.18-2.4,2.93-5.54,6.35-8.11,10.86-8.15,12.07-3.39,21.56.77,7.47,3.28,15.16,6.24,22.8,9.09-5.17,2.67-21.74,12.88-22.24,18.89-.63,7.72,7.11-5.28,7.8-6.06,4.77-5.43,13.02-9.28,20.04-10.87l27.27,7.56c-3.2,1.75-6.65,3.29-9.55,5.57-.81.63-11.94,11.15-7.21,11.18,3.47-4.67,15.66-15.58,21.18-16.28,3.12-.39,11.61,1.72,15.61,1.86,5.68.19,12.87.38,18.46,0,20.42-1.4,29.42-12.04,48.3,4.9,1.54,1.38,4.94,6.84,6.23,6.24,2.91-1.35-4.04-8.18-5.25-9.19-5.52-4.64-12.53-6.5-18.73-9.85,5.93-2.54,12.47-6.34,17.4-10.54,3.66-3.12,12.3-14.64,15.16-15.74,4.66-1.79,14.85-.32,19.53,1.47,4.81,1.84,7.89,6.08,12.64,7.71,4.25-1.07-6.47-7.29-7.34-7.75-2.73-1.46-10.21-4.73-13.02-4.73h-10.85c2.74-5.78,4.1-11,5.32-17.24,5.91-30.22-25.96-54.89-53.93-60.03-2.68-.49-10.43-.25-11.69-.7-.97-.35-6.23-5.14-8.29-6.27-2.93-1.61-5.81-2.68-9.01-3.56,1.96-5.6,1.24-12.1,2.02-17.56.07-.47,1.08-.21,1.34-1.41.22-1.02-.35-4.68-.05-4.97,5.94-.51,29.76,5.35,30.15,12.28-.44,3.13-7.52,4.13-4.16,7.44,7.25-5.85,24.04-15.81,33.34-12.31,9.87,3.72-10.13,16.4-11.66,20.19-.49,1.21-.2,1.2.68,1.98,10.17-6.77,39.03-12.15,48.9-4.86,10.37,7.65-15.33,11.14-15.05,17.35Z" fill="#fff"/>
  <path d="M316.37,452.16c-29.31,6.73-52.33,29.44-67.05,54.72-1.57,2.7-5.14,4.89-3.95,9.7,4.37-2.72,5.61-8.7,8.41-12.94,16.6-25.1,48.96-55.7,81.65-48.52,33.81,7.42,62.5,40.78,41.56,75.1-34.91,57.22-132.23,30.86-176.82-.34-19.42-13.59-30.26-33.25-23.18-57.34,19.44,8.96,40.61,10.26,61.13,3.95l-13.98,20.56c-.56,1.34-5.53,10.53-2.78,10.97,1.07-.56,1.2-.49,1.76-1.56,3.7-7.03,6.92-14.92,11.82-21.67,8.88-12.22,14.08-11.17,25.88-18.16,9.17-5.43,16.07-13.28,27.62-14.45,2.75-3.65-9.03-.29-9.54-.68,1.65-1.54,2.02-4.49,3.27-6.07,7.35-9.24,36.92,3.6,34.2,6.73ZM362.39,482.4c.43-4.9-11.79-1.68-15.12-.98-28.36,6-55.92,27.88-66.4,54.88l3.17-.11c12.77-30.97,44.99-52.23,78.35-53.78Z" fill="#fff"/>
  <path d="M272.74,389.96c17.14,17.16,16.87,45.89.6,63.55-25.79,28-87.33,35.48-111.81,1.94-2.1-.06-1.13,2.5-2.04,3.36-3.66,3.43-13.65-.56-17.01-3.37-9.02-7.54-3.05-22.53,8.49-21.65,1.17.09,2.23,1.22,3.33,1.23,6.22.02,5.29-16.9,6.58-19.67.87-1.87,9.65-7.83,10.5-11.24,12.75,1.28,23.25-2.01,30.36-12.97,15.63,6.51,32.16-6.22,33.11-22.46,7.9,4.82,17.71,7.65,25.56,12.23,3.19,1.86,9.82,6.52,12.32,9.04ZM245.37,409.44c.92,14.34,22.96,12.38,20.73-2.65l-1.68-.32c-1.06,6.82-5.81,13.34-13.12,8.55-1.29-.85-4.68-6.94-5.93-5.58ZM187.52,424.56c1.76,14.15,21.85,11.71,21.04-2.94-.07-1.66-2.03-2.41-2.99-1.01,1.67,11.62-11.55,14.71-15.52,4.09l-2.53-.14ZM228.28,427.19c2.26.64,3.03-2.17,4.42-2.52,2.48-.63,5.05,2.51,6.74-.43-3.58-3.88-11.39-3.28-11.16,2.95ZM223.02,441c-1.85,1.83,4.95,6.51,6.41,7.05,9.81,3.66,19.41-2.62,21.74-12.01-3.92-3.64-4.09,4.01-6.86,6.85-4.42,4.54-11.65,4.31-16.68,1.03-1.56-1.02-1.53-3.78-4.62-2.93Z" fill="#fff"/>
  <path d="M168.3,568.65c.6,1.28.36,5.67,1.55,8.64.98,2.43,3.66,5.95,6.03,7.12,8.5,4.19,11.57-4.73,15.07-3.95.53.12,9.2,4.88,9.54,5.31.6.78.34,2.45.88,3.26,4.14,6.28,9.14,14.39,17.95,13.63,2.86-.24,6.58-3.48,8.95-2.99,26.23,13.15,52.97,25.41,78.08,40.65,1.13,1.41.51,15.35.21,17.95-.11.95-4.25,5.46.88,6.16,1.9-.67,1.57-18.59,1.8-21.55,46.61-18.32,90.64-42.79,134.2-67.3l1.8-.17c.17.5-.96.12-1.28.83-3.59,7.82-6.35,19.94-10.38,26.92-.98,1.7-6.07,5.35-7.87,6.63-25.88,18.4-76.91,47.4-106.26,58.75-13.82,5.34-14.3,2.67-26.77-3.07-40.9-18.82-86.49-43.87-125.9-66.06-6.9-3.88-30.31-16.36-34.29-21.26-3.6-4.43-8.61-24.48-10.63-31.1-.19-.63-3.56-3.07.6-3.84,1.22-.23,15.21,7.54,15.78,8.48,1.85,3.09.01,13.27,6.04,15.65,7.78,3.08,9.58-5.5,13.2-5.26,1.54.8,10.48,5.85,10.81,6.56Z" fill="#fff"/>
  <path d="M590.54,538.93v54.56c-47.06-8.8-94.74-14.76-142.68-17.43,2.18-6.75,4.11-13.74,6.57-20.38,2.36-6.39,6.35-17.58,11.24-21.63,13.9-11.49,43.19-27.62,61.39-27.34,21.93.34,45.86,20.84,63.48,32.22Z" fill="#fff"/>
  <path d="M4.08,550.1c19.34-9.43,41.89-26.13,64.47-22.06,8.14,1.47,50.12,21.07,53.17,27.18,2.93,5.87,4.19,16.44,7.29,22.8-41.93,4.5-84.1,8.63-124.93,19.4v-47.33Z" fill="#fff"/>
  <path d="M283.26,363.67c7.94,9.82,15.97,26.11,18.35,38.51,2.41,12.57,2.12,25.65-1.11,38.06l-15.03.09c2.87-5.02,1.88-12.59,3.44-17.26s5.01-5.98,4.38-13.21c-.71-8.08-5.5-8.17-8.12-12.28-1.61-2.52-3.42-10.42-4.84-13.57-31.16-69.1-150.78-38.62-144.79,40.24.27,3.52,2.76,10.98,2.63,13.08-.11,1.79-2.09,3.67-2.45,5.45-.86,4.22.34,7.54,1.81,11.35l-19.66-3.01c-28.14-78.45,51.21-144.15,126.16-115.62,13.89,5.29,29.89,16.62,39.22,28.16Z" fill="#fff"/>
  <path d="M173.05,401.55l2.32-13.17h-2.01c-1.03,12.05-8.52,21.98-18.72,27.97l3.3,1.98c-.46,4.86-1.24,9.1-3.32,13.45-5.67-1.64-9.68-.38-14.43,2.63-15.98-61.24,57.72-104.9,109.7-78.46,15.05,7.65,28.5,22.5,30.98,39.68-3.74-5.24-7.59-9.98-13.14-13.47l1.97-2.95-6.73-.17-27.16-12.94c-1.48-1.42-.96-11.02-3.9-10.54-2.04.33.26,4.9.33,6.22.96,17.57-11.2,33.98-29.43,26.32.89-1.49,4.5-13.08.84-12.18-1.3.32-.73,2.71-1.05,3.44-2.58,5.85-4.27,14.4-10.53,18.52-.77.51-8.34,3.68-8.81,3.68h-10.19Z" fill="#fff"/>
  <path d="M353.85,589.54c9.46,2.79,25.27,16.19,35.09,11.09,9.33-4.84,8.49-29.24,6.34-38.04,7.47,2.64,15.79,15.04,23.9,10.42,7.94-4.52,2.33-15.96.42-22.25,6.47,1.8,15.31,8.58,22.18,6.07,9.23-3.37,5.42-17.72,1.57-24.1.4-1.28,12.36-6.23,13.92-7.6.79-.69.43-1.12.46-1.98-4.21-1.23-12.73,7.46-16,6.49l-2.33-3.45c2.88-2.76,4.52-6.1,4.64-10.16,3.86-2,13.28,1.59,15.3,5.16,5.8,10.24-11.05,39.01-12.94,50.42-34.65,18.3-68.62,37.98-104.13,54.63-7.84,3.68-21.37,10.84-29.16,12.91-1.32.35-2.61.43-3.96.3l-2.67-23.96c1.93-2.58,4.03-2.81,6.08-5.81,2.75-4.03,4.02-10.01,4.59-14.79,1.91-2.95,13.23,5.67,15.31,7.13,4.14,2.9,11.56,12.24,17.43,8.18.52-.36,3.96-5.28,3.96-5.9v-14.79Z" fill="#fff"/>
  <path d="M313.08,673.68l-28.29,53.89c-1,.61-19.77-8.24-21.06-10.14-.57-.85-.81-1.56-.59-2.58l24.39-48.31c8.76,1.29,16,9.93,25.55,7.15Z" fill="#fff"/>
  <path d="M444.16,632.69c5.89,6.59,12.31,12.83,18,19.62.23,2.51-18.55,12.74-21.76,14.04l-37.24-39.98,23.24-13.71c6.88,5.81,11.82,13.39,17.76,20.03Z" fill="#fff"/>
  <path d="M290.07,588.23c1.03,3.9,2.31,9.03,4,12.63s7.95,10.41,8.97,12.86c.61,1.45,2.82,22.21,2.14,23.15l-75.6-38.79c-.92-1.38,10.01-10.47,11.82-11.16,1.63,7.98,3.48,17.17,11.7,20.85,10.79,4.84,12.1-2.75,17.97-7.97,2.25-2,17.18-13.03,18.99-11.57Z" fill="#fff"/>
  <path d="M156.36,617.56c-7.19,10.6-15.1,20.76-22.11,31.51-1.92.89-16.59-7.46-17.42-9.59-1.44-3.76,3.53-6.91,4.95-9.02,8.72-13,17.56-25.87,27.25-38.18l17.42,10.09c-3.39,5.05-6.69,10.18-10.1,15.21Z" fill="#fff"/>
  <path d="M343.99,659.88c-1.33,1.78-1.62,4.22-2.61,6.09-4.36,8.2-9.23,17.2-13.35,25.64-2.33,4.77-7.19,18.14-9.9,21.3-2.34,2.73-28.63,14.46-30.03,13.35,5.07-11.67,12.11-22.35,18.33-33.42,2.71-4.81,7.11-16.41,10.32-19.76,4.03-4.21,21.39-9.81,27.23-13.19Z" fill="#fff"/>
  <path d="M436.03,666.44c-6.29-.42-16.15-.17-21.91-2.74-8.02-3.57-19.43-21.07-26.72-27.17l14.45-7.92,34.19,37.82Z" fill="#fff"/>
  <path d="M123.08,505.42c-5.75,5.22-9.19,12.52-11.17,19.96l-1.3.39-5.66-15.12,18.13-5.23Z" fill="#fff"/>
  <path d="M168.22,562.38c-.03.13-1.74,1.3-1.41,2.18l-8.22-4.92c3.3-5.26,6.57-10.27,12.48-12.82-2.35,4.79-1.67,10.92-2.85,15.57Z" fill="#fff"/>
  <path d="M139.52,536.3l-.66,11.82-12.49-5.92c-.37-1.54.29-1.07.84-1.47,1.33-.96,11.57-5.17,12.3-4.43Z" fill="#fff"/>
  <path d="M199.35,571.14v10.19c0,.05,1.58,1.57-.31.98-1.99-.62-5.08-2.97-6.87-4.25-.09-.71,5.55-7.05,7.19-6.91Z" fill="#fff"/>
  <path d="M288.77,417.33l-3.95-16.43c5.8,2.09,8.17,12,3.95,16.43Z" fill="#fff"/>
  <path d="M119.14,548.78l-3.12-1.1-.82-1.51c3.06-1.35,2.99.02,3.94,2.61Z" fill="#fff"/>
  <path d="M179.37,615.59c-2.81,4.06-16.81,24.77-19.12,26.55-4.31,3.31-17.21,4.88-22.68,6.89l30.08-43.73c1.22-.91,1.81-1.39,3.43-1.05,1.22.26,11.2,6.25,11.09,7.17-.95,1.37-1.85,2.78-2.79,4.15Z" fill="#fff"/>
  <path d="M52.46,222.38c-10.04-19.14,7.44-37.7,26.85-39.05h437.25c36.53,6.26,36.3,51.63-1.28,55.89H78.68c-12.26-1.31-20.49-5.92-26.22-16.84ZM532.96,194.23c-4.53-4.26-8.67-6.39-14.71-7.97-128.43-1.83-257.19-1.1-385.62-.24-15.49.1-31.85-1.41-47.37-.74-42.35,1.84-42.43,48.28-5.92,51.31h435.28c22.05-1.82,36.73-25.09,18.34-42.37Z"/>
  <path d="M467.22,257.32c5.83,7.44,5.55,18.34,9.9,26.56,5.78-1.8,24.26-13.09,29.24-8.83,5.93,5.07-5.97,21.61-8.51,26.93,6.96,3.14,14.94,3.89,21.91,6.99,24.63,10.96-15.4,19.01-23.9,21.61,1.09,5.58,13.65,23.22,7.85,27.88s-24.45-10.43-26.96-8.56c-3.45,11.06-4.93,23.8-8.58,34.69-.16.49-.98.57-1.17,1.07-1.72,4.66-4.12,17.46-11.58,9.32-2.7-2.94-6.52-21.85-7.77-27.07-1.51-6.29-1.94-12.58-4.4-18.29-6.06,1.92-13.54,7.13-19.68,8.24-21.96,4,2.54-25.49.63-27.3-7.56-1.33-16.57-3.41-23.64-6.28-25.04-10.17,16.69-17.04,24.02-19.99,1.68-2.5-14.32-19.67-8.24-25.31s27.26,6.56,29.5,4.84c2.11-6.13,7.76-30.35,14.85-30.89,3.23-.25,4.82,2.18,6.53,4.37ZM467.21,264.57c-.95-2.03-3.27-8.94-5.87-8.95-6.46,2.06-11.97,29.83-14.58,30.8-4.31,1.6-24.48-8.86-28.22-5.87-4.44,3.55,7.59,17.47,8.64,21.74s-1.15,4.26-4.46,5.44c-6.04,2.16-12.93,2.85-19.08,5.25-10.96,4.27-11.65,5.7-.17,9.71,3.16,1.11,22.4,5.48,23.04,6.56,2.64,4.46-11.71,19.99-9.46,26.2,2.29,3.77,20.83-7.13,24.35-8,1.49-.37,2.76-1.01,4.17.19,2.14,1.82,7.65,36.54,10.07,41.82,3.54,4.86,3.9,8.23,7.35.6,1.77-3.92,4.19-12.32,5.35-16.37s5.08-24.32,6.43-25.75c.5-.52.96-.92,1.72-.96,4.26-.18,21.78,11.72,24.66,9.6,3.7-5.62-9.77-23.61-7.62-27.33,4.47-2.69,30.99-7.59,31.09-12.9.04-2.28-2.66-3.59-4.44-4.51-3.67-1.9-24.69-6.84-25.36-8.22-.29-4.6,14.58-23.21,9.63-26.66-6.34-2.44-24.8,11.05-29.2,9.51-3.26-7.21-4.75-14.91-8.04-21.9Z"/>
  <path d="M295.67,151.78c1.13.19,3.8,1.65,4.59,2.65,1.9,2.41,1.06,5.52,2.31,7.87l14.29-45.83c2.18-1.73,2.27-4.15,4.99-5.56,5.47-2.84,17.92-2.2,21.62,3.61,3.51,5.51,13.1,36.78,14.81,44.36,1.43,6.33,3.27,10.28-5.41,11.3s-13.94-.87-14.85-10.43l-13.1.23c-1.49.96-.72,7.01-4.64,9.17-3.35,1.84-18.34,2.83-18.68-3.56-1.3,2.66-3.61,4.21-6.56,4.62-4.76.66-21.51.63-26.32,0-3.15-.41-5.84-2.01-5.61-5.57l.17-51.16c1.51-4.64,16.62-3.91,18.2-1.39,2.53,4.03-.06,33.05.07,39.7,4.29.51,10.06-.7,14.14,0ZM341.14,115.84c-3-3.7-12.12-4.36-16.41-3.36-5.32,1.24-4.9,7.42-6.43,11.17-4.87,11.95-7.98,24.27-11.86,36.78-.34,1.09-2.95,3.78-1.84,6.4,9.72,2.14,17.47,3,17.61-9.43.58-.72,15.28-.58,17.14.01,3.57,1.13,1.64,8.77,5.77,9.98,2.31.68,9.26.51,11.43-.97,1-1.47-2.64-13.52-3.42-16.09-.16-.52-1.07-.61-1.33-1.46-1.94-6.27-7.57-29.26-10.64-33.05ZM278.57,113h-11.18c-.84,0-1.54,2.04-1.68,2.93-1.01,6.47-1.04,41.65,0,48.05.22,1.36.48,2.13,1.63,2.97,1.3.76,25.85,1.12,28.29.59,4.8-1.03,4.54-10.76,1.67-12.15-2.57-1.24-17.04-.42-17.84-1.36l-.91-41.03Z"/>
  <path d="M179.62,44.97c.42-2.99,1.7-5.61,4.97-6.2,3.48-.63,13.74-.95,15.12,3.21l-.34,47.06-1.69,8.83c-2.53,3.06-16.05,2.85-19.34-.35l-14.82-21.99-.7,21.66c-5.57,3.88-15.05,3.98-19.9-1.06l-.12-53.13c.98-4.16,10.82-4.62,14.12-4.26,11.35,1.23,15.03,17.58,21.18,24.8.42.49,0,1.21,1.52.82.6-6.04-.81-13.54,0-19.39ZM160.56,94.92c1.03-3.42,0-22.37,0-27.61l1.32-.67c5.51,5.9,14.49,29.18,22.06,30.53,4.26.76,12.07,1.12,12.79-4.22,1.6-11.94-.05-31.25-.04-44.07,0-2.16,1.42-4.26.08-6.43-.92-1.38-13.25-1.45-14.21.21-.83,9.05.89,19.01-.31,27.95-.12.92.37,1.12-.99.98-3.33-.17-10.17-15.14-12.38-18.54-2.53-3.88-6.63-11.13-11.26-11.59-.58-.06-7.12-.06-7.74,0-.79.09-2.75.85-3.2,1.46l-.46,51.85c.91,2.88,13.62,2.48,14.33.14Z"/>
  <path d="M348.59,41.03c1.33-4.7,18.88-5.58,20.74.3-.51,15.94,1.69,33.95.32,49.68-.16,1.83-.64,6-2.01,7.2-2.03,1.76-11.38,2.02-14.12,1.65-8.54-1.14-14.81-18.85-20.05-24.97l-.99,22.35c-5.47,3.54-13.45,3.29-19.22.48-2.36-18.17-.31-36.88-.79-55.33l.97-2.32c2.06-2.59,11.84-2.43,15.04-1.94,8.41,1.3,14.21,19.81,20.11,25.57,1.06-5.82-1.42-17.64,0-22.68ZM351.22,41.68v28.26l-2.96.33c-4.42-7.49-8.81-16.75-13.6-23.87-5.06-7.53-10.02-6.19-18.5-5.1-1.05.69-1.01,2.51-1.12,3.64-1.04,10.29-1.25,38-.01,48.05.73,5.9,10.69,3.93,14.84,2.26l.64-28.28,1.98-.66c4.06,5.56,13.01,25.93,17.62,29.39,3.53,2.65,11.86,1.57,15.94.23l.81-52.79c-.19-4.69-14.93-3.3-15.63-1.46Z"/>
  <path d="M98.52,278.87c.58.84,1.98,5.52,2.24,5.68,7.05-3.4,16.86-1.33,21.57,5.04,1.6,2.16,2.86,8.68,3.37,9.12,2.44,2.07,12.46.34,13.84,9.16,2.53,16.17-24.44,18.8-35.55,16.49-2.1-.43-6.61-3.01-8.08-2.81-.89.12-6.46,3.66-8.7,4.39-8.61,2.81-17.01,2.69-25.63.06-2.09-.64-5.25-3.13-6.6-3.31-2.1-.27-6.39,1.26-9.12,1.34-35.04,1.05-30.43-39.79.2-38.25,7.03-25.04,37.98-27.87,52.46-6.91ZM97.67,286.3c-.63-1.21-.44-3.01-1.22-4.38-12.61-22.25-42.41-18.08-48.29,6.29-27.6-3.34-35.19,33.64-2.99,33.21,3.14-.04,7.68-1.7,10.45-1.36,1.8.22,4.67,2.71,7.1,3.47,7.75,2.44,17.72,2.08,25.37-.66,2.21-.79,7.35-4.63,7.8-4.7s6.89,3.15,8.75,3.56c8.62,1.92,33.39.38,32.28-12.52-.57-6.61-8.43-7.45-13.74-7.66-.72-12.58-11.83-20.57-23.39-13.07-.27-.77-1.93-1.85-2.11-2.18Z"/>
  <path d="M501.12,408.79c7.98-30.2,50.06-30.13,57.83.31,26.37-.18,23.45,32.1-1.72,32.5-3.96.06-11.15-2.68-13.61-2.39-1.18.14-2.68,1.8-4.17,2.3-10.09,3.39-18.89,5.6-29.64,2.97-3.49-.85-8.2-4.34-10.34-4.78-8.22-1.71-18.05,2.81-23.58-7.97-7.54-14.67,12.42-26.71,25.24-22.93ZM556.42,412c-3.94-30.01-48.39-31.07-52.76-.67-12.24-2.54-28.92,2.73-26.05,18.01.56,2.97,5.67,6.56,8.5,7.27,4.7,1.18,11.14-.7,13.88-.1.64.14,4.63,3.28,6.52,4.02,10.45,4.09,22.16,2.28,32.34-1.57,1.54-.58,2.66-2.37,4.05-2.58,1.79-.26,6.6,1.75,9.18,1.97,6.91.59,11.65.49,17.26-3.77,13.19-10.01,1.23-25.82-12.93-22.58Z"/>
  <path d="M375.14,127.23c.05.17.86.3,1,.76,1.56,5.48,2.06,11.44,4.67,16.55l8.92-32.83c3.88-3.24,17.07-2.78,18.05,2.97.41,2.39-7.13,29.21-8.5,33.51-.31.99-1.12,1-1.28,1.51-4.53,13.74-3.88,24.15-23.26,20.98-8.37-1.37-7.82-7.13-10.26-13.38-4.02-10.3-10.21-28.43-12.55-38.86-1.86-8.31,11.56-10.55,17.07-7.75,4.51,2.29,4.81,11.94,6.15,16.55ZM375.16,138.38c-1.23-4.15-4.71-22.88-6.53-24.71-2.36-2.37-13.77-2.42-13.41,3.51.54,8.78,6.49,22.05,9.25,30.25,1.53,4.56,3.64,16.62,7.16,19.11,4.1,2.9,16.92,2.88,19.37-2.92,3.21-14.3,9.94-28.6,13.15-42.73,2.46-10.85-3.96-9.12-12.5-7.24l-10.19,38.78c-2.44,1.73-4.99-12.17-5.32-13.26-.14-.46-.92-.61-.98-.79Z"/>
  <path d="M430.77,166.57c-1.21,5.36-17.6,5-18.92.52l-.17-51.16c.11-9.38,20.62-7.45,27.34-6.89,22.43,1.86,27.49,26.04,10.82,39.1,4.04,7.86,18,21.52-.34,22.73-12.14.8-11.36-11.82-18.72-17.77-.58,3.85.79,9.96,0,13.47ZM428.14,165.91c1.06-3.52-.79-12.27,0-16.43.98-1.52,3.87-1.2,5.09-.15,2.76,2.37,6.45,15.49,10.75,17.84,2.92,1.6,10.76,1.31,11.69-2.06.98-3.56-8.9-13.9-9.67-18.17,5.06-3.56,7.38-5.57,9.47-11.55.75-2.14-.5-3.82,1.66-5.62-2.29-6.25-3.07-13.23-10.12-16.24-4.73-2.02-28.59-3.45-31.67.15-1.17,3.56-1.48,8.83-1.69,12.78-.39,7.59-1.24,31.8.17,38,1.16,5.11,13.7,3.52,14.32,1.46Z"/>
  <path d="M294.31,45.02c2.68,5.01,14.94,41.9,15.41,47.36.49,5.65-1.91,6.59-7.02,7.29-9.63,1.33-13.71-.31-15.35-10.24l-14.05.55c-1.85,9.95-7.62,11.06-17.08,9.87-7.14-.9-6.49-3.48-5.25-9.2,2.19-10.17,6.35-20.99,9.62-30.5,5.25-15.27,3.75-25.66,24.5-22.68,5.09.73,6.99,3.38,9.23,7.55ZM294.29,54.24c-1.56-3.98-2.38-10.94-6.39-13.02-3.72-1.93-15.09-2.02-18.23,1.09-2.32,2.29-7.6,23.04-9.08,27.71-.27.84-1.18.92-1.34,1.45-2.51,8-4.69,16.23-6.62,24.39,9.25,2.52,17.16,3.89,17.76-8.12,1.65-2.2,15.22-.56,18.6-.93,1.95.72,1.84,7.05,3.1,8.73,2.16,2.89,12.23,1.66,15.15-.58,1.3-2.52-1.77-5.35-2.15-6.54-3.67-11.59-6.35-22.8-10.81-34.18Z"/>
  <path d="M241.43,57.79c-.98,6.45,1.84,36.33-1.34,39.74-3.89,2.52-17.77,3.52-19.68-1.3l-.67-38.44h-11.51c-7.09,0-7.3-15-2.16-18.59,2.06-1.44,4.96-1.62,7.39-1.82,9.05-.73,26.61-.86,35.55,0,1.8.17,4.25.52,5.81,1.43,5.83,3.39,5.34,18.97-2.54,18.97h-10.85ZM223.11,95.82c2.83,1.12,13.98,1.62,15.36-1.21,2.5-5.12-1.33-31.01.46-38.32,1.29-4.13,13.81.45,16.35-3.37.92-1.38.86-6.23.57-7.89-.73-4.09-4.7-4.66-8.16-4.99-8.27-.79-25.97-.8-34.23,0-6.41.62-8.75,2.67-8.24,9.58.4,5.48,4.2,5.39,8.92,5.62,2.83.14,7.46-2.63,8.44,1.36l.53,39.24Z"/>
  <path d="M502.04,115.38c3.96,5.65,9.96,26.33,12.17,33.65,1.83,6.05,8.19,19.6-.97,21.11-8.97,1.48-15.6-.26-16.68-10.18l-13.44-.32c-1.09.37-.68,7.03-3.51,9.1-3.09,2.25-21.42,3.82-18.54-4.7l16.72-51.02c4.13-4.61,17.76-4.56,22.36-.69.93.78,1.19,2.07,1.88,3.06ZM502.05,122.6c-1.89-4.39-1.55-8.71-7.47-9.96-5.2-1.1-11.77-.85-15.61,3.2-4.17,11.83-7.07,24.1-10.8,36.07-.16.52-1.06.61-1.33,1.46-.7,2.21-3.96,12.07-3.1,13.45,9.66,2.48,15.87,1.18,16.92-9.38l18.46.3c.16,9.5,4.72,11.28,13.53,9.86,4.83-.78,2.54-6.11,1.54-9.35-3.44-11.19-7.51-24.88-12.15-35.64Z"/>
  <path d="M120.72,121.29c4.79,11.19,9.35,25.94,12.81,37.6,1.78,6.01,2.53,9.89-5.03,11.13-9.59,1.57-14.75-.08-16.01-10.27l-13.16.3c-2.35,9.84-6.9,11.36-16.68,10.14-6.15-.77-6.3-2.81-5.29-8.58,1.74-9.98,6.99-21.81,10.32-31.11,1.65-4.62,3.31-14.37,6.47-17.83,3.38-3.69,13.84-3.66,18.29-2.51,5.83,1.5,6.35,6.62,8.28,11.13ZM114.97,114.54c-3.13-3.15-16.79-3.25-19.42.18s-6.2,19.88-7.87,24.97c-.29.88-1.22,1.02-1.35,1.45-1.08,3.44-7.61,23.95-6.54,25.67l13.05.42,3.45-9.37c1-1.13,16.31-1.19,17.87-.11,2.24,1.55,1.55,8.65,4.79,9.68,1.66.53,11.07.37,12.09-.96.58-.96.45-1.82.34-2.86-1-8.92-7.87-25.8-11.01-34.43-1.24-3.4-3.21-12.43-5.39-14.63Z"/>
  <path d="M248.27,127.2c4.11,10.71,9.37,24.66,12.18,35.57,2.05,7.97-11.56,8.73-16.59,7.27-3.43-.99-4.52-6.83-5.39-9.73l-14.15-.33c-2.25,1.29-.06,8.73-6.4,10.04-4.12.85-18.31.71-16.58-5.93.12-.47,1.07-.51,1.21-1.01,3.68-12.76,7.18-25.32,11.84-37.46,2.3-5.99,2.56-14.75,10.89-15.92,18.15-2.54,17.79,4,22.97,17.5ZM248.28,135.74c-4.85-13.92-3.92-26.33-22.9-23.33-6.8,1.07-8.7,15.28-10.82,21.36-.32.92-1.21.95-1.51,1.83-1.16,3.45-8.67,28.5-8.13,29.96,1.52,2.82,10.39,2.52,12.87,1.7,3.93-1.29,2.37-8.64,4.56-9.9l18.27.48,3.43,9.4,12.06-.28c1.04-.68,1.1-2.37.98-3.49-.93-8.35-6.1-19.96-8.8-27.73Z"/>
  <path d="M81.66,81.45v15.45c0,3.69-19.87,4.88-21.41-.29.81-16.49-2.08-36.18-.31-52.32.68-6.23,2.92-6.31,8.42-7.35,15.27-2.91,43.84-2.74,46.65,17.41,3.13,22.43-14.83,27.38-33.36,27.11ZM62.6,43.66v51.27c2.23,2.9,13.98,3.16,15.78,1.32.34-.73,1.31-2.71,1.31-3.29v-14.13c16.16.36,34.5-2.3,32.86-22.67-.57-7.12-6.82-13.97-13.64-15.93-5.55-1.59-24.98-2.07-30.68-.79-2.3.51-5.22,1.75-5.63,4.23Z"/>
  <path d="M377.71,40.23c4.6-4.53,32.69-1.95,39.25.8,15.53,6.52,18.63,28.43,12.19,42.41-7.1,15.42-31.8,18.29-46.7,16.41-4.75-.6-5.77-1.6-6.27-6.22-1.17-10.84-1.14-37.82-.01-48.7.18-1.76.51-3.25,1.54-4.71ZM378.83,95.91c23.14,3.79,51.8.57,50.65-29.28-.96-24.95-22.48-27.82-43.12-25.95-1.74.16-7.54.9-7.54,2.98v52.26Z"/>
  <path d="M490.2,50.96c14.48,24.78-7.16,58.44-36.01,47.5-24.42-9.25-24.74-50.73-.59-59.59,13.69-5.02,29.22-.55,36.6,12.08ZM490.23,58.84c-4.45-14.2-13.91-20.13-28.9-18.82-28.38,2.49-30.3,47.93-5.56,56.21,24.02,8.03,41.12-16.12,34.46-37.39Z"/>
  <path d="M180.28,153.75c-.4,4.5,1.6,12.39-3.05,15-3.33,1.87-15.66,3.04-17.04-1.15l-.29-50.32c.13-7.65,8.97-7.9,14.77-8.24,14.56-.86,31.19,1.51,33.15,18.83s-10.9,26.2-27.54,25.88ZM163.19,167.56h11.51c3.16,0,.51-13.91,2.4-16.34,12.01.6,26.82-2.85,28.08-16.94,1.5-16.82-8.74-22.19-23.88-22.62-3.47-.1-16.41.4-17.96,3.14l-.15,52.76Z"/>
  <path d="M123.59,40.22c2.87-.48,12.55-.69,13.3,2.79l.02,51.94c-1,7.08-17.8,6.89-19.03-.72s-1.06-40.39.01-47.87c.57-3.94,1.82-5.48,5.7-6.13ZM134.26,43.33l-11.46.04c-1.97,1.49-.64,4.58-1.05,6.72-1.76,9.12-2.13,22.83-1.34,33.04.07.94,2.05,2.4,1.41,6.58-.2,1.29-1.63.61-1.43,2.58.03.26,2.76,4.28,3.02,4.28h9.86l.99-.99v-52.26Z"/>
  <path d="M532.75,68.89c4.7.24,15.47.75,11.4,7.93-1.03,1.82-5.62,4.6-5.88,5.25-.81,2.01,3.56,8.41.33,12.21-4.3,5.06-10.92-2.97-14.14-2.7-1.12.09-5.94,3.78-8.05,4.18-11.22,2.14-3.48-10.07-4.76-14.49-.46-1.59-10.13-5.77-5.57-10.97l11.68-1.92c3.07-12.21,12.86-11.6,14.99.52ZM530.89,70.75c-1.01-.8-1.66-4.92-2.54-6.34-4.96-8.01-6.57,4.24-9.52,6.15-3.26,2.12-7.52.02-10.85,1.65-2.11,2.86,7.01,7.27,7.51,9.05.89,3.15-4.02,8.39-2.54,12.02,4.04,1.31,8.68-4.42,11.55-4.6,2.59-.16,9.71,6.25,11.15,3.96,1.52-3.45-1.42-9.06-.26-12.1.42-1.11,7.4-3.69,7.09-6.59-2.15-3.22-9.52-1.57-11.6-3.21Z"/>
  <path d="M201.55,296.61c-1.4,1.92-4.89,8.11-7.16,8.34-5.57-1.5-11.57-4.1-16.41-7.25-7.89-5.13-20.29-16.33-8.04-24.55,6.78-4.55,10.32-1.76,16.9.88,5.02-14.27,23.9-11.2,23.02,4.91-.39,7.08-4.53,12.49-8.32,17.66ZM201.56,292.01c.34-.57,1.47-.98,2.32-2.6,10.69-20.37-8.21-31.76-16.69-10.79-10.67-11.99-26.53-.72-14.49,11.87,2.66,2.78,18.74,12.99,22.04,11.51,1.01-.45,5.86-8.4,6.82-10Z"/>
  <path d="M296.83,283.45c-1.65,2.18,2.03,11.09-2.31,13.11-5.45,2.53-8.97-4.08-11.99-4.17s-7.36,4.84-11.21,3.41c-6.3-2.33.32-10.19-.41-13.41-.49-2.15-7.04-4.91-5.55-9.69s8.81-1.37,11.79-3.21c2.06-1.28,2.5-10,9-8.34,4.44,1.14,4.84,9.26,5.87,9.96,1.45.99,9.13-.51,10.88,3.59,1.86,4.36-4.27,6.37-6.05,8.73ZM293.36,294.41v-12.49c0-.51,8.37-2.74,7.19-6.53-2.44-1.89-8.62-1.21-10.48-2.34-1.25-.77-1.61-5.04-2.5-6.71-4.35-8.16-6.92,4.48-9.14,5.76-2.71,1.55-10.69-.84-10.74,2.26.44,2.86,6.17,5.39,6.47,7.38.57,3.68-2.25,7.29-3.14,10.66,4.3,2.45,8.29-2.93,12.15-2.66,2.9.2,6.4,5.59,10.19,4.67Z"/>
  <path d="M318.09,383.4c-.13-.23-.93-.36-1.24-1.09-6.32-14.98,14.16-23.69,20.89-9.04,8.8-9.47,24.29-3.55,18.87,10.33-1.67,4.27-17.21,16.32-21.54,16.6-5.54.36-14.47-12.24-16.98-16.8ZM340.23,374.13c-.7.6-1.36,4.16-3.13,3.76-2.58-6.1-9.36-14.32-15.82-7.26-7.82,8.53,6.09,21.86,12.66,26.89,5.81-1.62,19.77-11.2,20.94-16.95,2-9.85-8.51-11.73-14.65-6.43Z"/>
  <path d="M42.38,367.53c2.1-2.21,8.12-.77,10.36-1.8,3.88-1.79,7.91-21.08,15.75,1.34,4.08.54,12.96.34,11.87,6.51-.63,3.58-6.91,5.1-7.57,6.28-1.49,2.66,3.4,14.73-5.6,12.85-2.4-.5-7.77-4.75-8.31-4.84-1.43-.23-6.82,4.03-11.04,3.16-5.52-1.14.15-9.91-.48-12.68-.47-2.05-8.94-6.67-4.98-10.82ZM69.83,390.38v-10.85c0-2.04,9.61-4.15,7.83-8.16-.71-1.1-9.11-.92-10.47-1.69-1.05-.59-3.09-9.07-5.7-10.14-3.08-.81-4.68,7.08-7.19,8.41s-5.04.45-7.64.92c-6.77,1.24,2.91,5.65,3.45,8.72.41,2.32-3.11,9.84-2,10.5,3.49,1.74,8.03-3.21,10.82-2.97,2.18.19,7.41,6.04,10.89,5.26Z"/>
  <path d="M358.29,309.03c4.3,4.29-4.24,9.38-4.46,10.18-1.08,3.88,5.74,14.02-4.08,12.53-2.62-.4-5.44-3.14-7.32-3.13-3.02.01-9.42,6.66-12.31,3.01-2.21-2.79,1.03-8.48.57-10.52-.38-1.71-7.12-3.96-6.44-8.57.59-4.01,7.83-2.76,10.1-4.25,1.71-1.12,1.31-8.06,6-8.65,6.95-.87,6.19,6.15,8.24,7.6,1.84,1.31,8.28.38,9.7,1.8ZM351.87,329.25c.79-.84-2.23-8.45-1.86-10.05.41-1.76,8.4-5.41,5.82-8.02-1.73-1.76-5.66-.41-7.9-1.33-2.86-1.17-2.76-7.56-6.25-7.61-4.03-.07-3.13,6.3-5.4,7.99-1.71,1.28-7.12,1.72-9.4,1.94-.49,3.28,4.96,4.28,5.78,7.04.99,3.35-.97,7.29-.51,10.71,3.64.78,7.1-4.51,10.25-4.6,2.27-.07,6.39,4.46,9.47,3.94Z"/>
  <path d="M476.89,463.25c1.04.84,9.82.16,9.71,5.02.03,4.26-5.98,6.26-6.37,7.04-.68,1.37.26,4.26-.18,5.95-.07.29-2.8,3.95-2.87,5.14-3.8,2.68-9.15-4.9-11.35-5.17-1.97-.25-8.7,5.04-11.45,1.56s2.94-8.78,2.76-10.57-5.51-4.06-4.68-8.52c1.02-5.44,9.29-1.39,11.08-2.45,1.12-.67,2.47-7.33,7.68-7.17s4.83,8.48,5.67,9.16ZM472.11,456.86c-2.42-1.27-6.14,6.39-8.28,7.01-2.73.8-5.89-1.8-8.45.09-1.12,3.91,3.96,3.8,4.33,7.66.28,2.96-3.14,6.8-2.62,10.12.58.64,7.82-3.29,9.44-3.12,1.95.21,7.71,6.91,9.28,5.08,1.91-2.74.12-7.66,1.61-10.07.82-1.33,6.71-2.16,6.66-4.72-.06-3.03-7.85-2.68-9.08-3.76-1.02-.89-1.29-6.74-2.88-8.3Z"/>
  <path d="M372.69,274.76l31.77,15.35-1.99,1.39c-3.47-2.17-30.5-13.49-30.87-15.17-.17-.78.48-1.24,1.08-1.58Z"/>
  <path d="M544.48,360.84l-.61,2.29-2.62-.04-19.99-11.58c-1.96-1.13-1.27-3.45,1.07-3.07,4.67.76,16.3,11.27,22.14,12.4Z"/>
  <path d="M400.53,348.32c.21.21.14,2.55-.65,2.95l-21.04,11.84c-5.53-.75,1.81-4.93,3.74-6.13s17.09-9.55,17.95-8.67Z"/>
  <path d="M409.33,395.88c-1.21,1.6-5.48,9.61-7.48,7.64-1.66-1.63,10.02-16.92,12.81-18.4,3.93.73-4.77,10.03-5.32,10.76Z"/>
  <path d="M550.96,313.67c2.2-.08,6.82-1.31,7.36,1.43-.23.93-16.69,3.05-18.77,2.99-2.93-.07-2.88-2.29-.47-3.16,1.86-.67,9.51-1.18,11.88-1.27Z"/>
  <path d="M77.06,707.53l-1.07-.93c-8.06,2.22-16.34-3.44-16.7-11.88-19.7,5.96-26.02-17.11-5.9-20.39-.45-2.11-2.35-2.05-2.96-4.57-3.19-13.3,14.04-17.11,20.39-7.25,9.16-12.7,27.84-7.43,20.04,9.19,21.33,3.37,12.28,24.17-5.84,21.77-.7,2.21-.54,4.68-1.35,6.86-.93,2.48-4.14,4.76-4.51,6.03-.6,2.06.53,3,.53,3.79v9.53c4.32-10.38,15.04-21.75,27.5-18.62,11.7,2.94-2.76,20.36-7.45,23.87-10.96,8.19-29.55,9.51-41.77,3.65-20.12-9.64-12.02-27,7.71-17.57,4.82,2.3,7.7,6.4,11.38,9.99v-13.47ZM86.43,671.83c.12-.21,1.36-.49,1.96-1.6,8.32-15.45-13.26-16.23-16.26-2.45l-1.95-.69c-2.61-11.42-22.28-9.12-15.6,3.77.61,1.18,4.04,3.9,3.42,4.79-21.74,2.4-17.58,22.77,3.94,15.78-3.18,13.56,18.49,18.87,20.35,4.85.21-1.57-.96-4.59,0-5.2,19.03,2.19,27.59-15.69,4.01-17.43-.04-.6-.19-1.24.13-1.81ZM81.01,729.55c7.97-1.45,17.06-5.24,22.23-11.62,6.17-7.6,8.36-18.97-5.44-13.98-8.83,3.19-17.5,16.09-16.79,25.6ZM75.52,723.84c-.8-1.34-5.33-6.26-6.7-7.42-5-4.22-15.17-8.4-19.91-2.17,1.77,11.67,18.36,16.3,28.81,15.28-.95-1.81-1.13-3.93-2.2-5.7Z"/>
  <path d="M173.04,688.14c3.73-8.58,18.92-2.03,19.13,5.59.14,5.06-3.45,6.63-5.31,10.84,17.81,7.83-.2,25.24-13.61,17.2l-1.17.53c-4.26,5.24-2.74,12.01-3.58,18.14-.12.84-2.55,2.27-1.36,4.88l9.53-10.51c21.93-14.34,29.64,6.66,8.41,17.61-13.07,6.74-30.96,5.86-42.31-4.11-8.38-7.36-15.06-27.67,2.66-22.37,9.89,2.96,15.95,13.62,19.07,22.66l1.32-19.71c-10.37,4.14-20.56-4.15-15.12-15.12-16.76-.69-17.26-20.59,0-20.39-3.65-17.64,15.54-18.61,22.34-5.25ZM167.39,685.92c-1.92-2.27-3.13-4.07-6.59-4.32-9.48-.7-8.1,8.04-7.78,14.47-18.22-.65-14.98,15.18.69,16.35,1.35,1.76-5.14,7.38-.07,12.55,5.77,5.88,16.09,1.36,16.85-6.53,2.06-1.31,10.81,7.09,18.39-.35,2.91-2.86,3.56-6.73.31-9.58-2.41-2.11-8.65-2.43-6.25-5.56,2.73-3.55,9.19-5.7,4.58-12.51-6.56-9.7-15.17,1.84-16.09,1.65-1.52-2.65-2.13-3.91-4.03-6.17ZM155.56,737.18c-4.4-5.67-10.99-11.92-18.57-8.19-1.45,13.45,13.47,23.64,25.54,24.87-.98-6.6-3.02-11.61-6.97-16.68ZM191.22,745.08c3.06-3.27,6.63-11.37-.08-12.25-12.39-1.64-21.04,11.8-24.66,21.69,8.2-.23,19.03-3.34,24.74-9.44Z"/>
  <path d="M427.49,711.14c7.48-5.8,23.3-4.24,19.52,8.02-1.32,4.31-4.47,4.03-5.72,7.74,17.06,9.54-2.2,22.97-14.44,15.14.43,3.38-5.37,5.33-5.94,6.41-1.36,2.58-1.44,11.91-1.97,15.27,7-7.05,15.47-15.93,26.56-14.39,10.45,1.45,6.17,12.56.41,17.38-14.11,11.82-43.29,11.86-54.59-3.97-3.57-5-10.51-18.98.42-20.01,10.44-.98,21.09,13.5,23.9,22.31l2.64-16.42c-7.64.69-13.99-4.57-12.17-12.54-.78-1.78-10.39-2.28-11.87-9.11-1.83-8.44,5.89-13.69,13.52-11.22-4.14-16.08,18.09-20.83,19.74-4.6ZM426.18,715.08c-1.45-4.64-1.03-10.26-6.97-11.1-12.58-1.78-6.47,13.38-7.5,14.4-19.88-3.44-20.06,13.7-1.32,15.13.62,2.25-1.53,1.7-1.84,3.74-1.28,8.37,10.09,11.72,15.01,5.8,1.24-1.49,1.1-3.77,2.93-4.83,5.09,6.03,21.76,3.77,18.55-5.21-.76-2.13-8.45-6.23-8.36-7.72,6.22-2.44,12.34-10,4.55-14.41-6.14-3.47-13.52,5.25-15.05,4.21ZM409.34,758.87c-2.49-4.12-13.89-18.24-19.36-12.6-7.5,7.74,14.87,28.62,24.36,26-.49-5.05-2.48-9.22-5-13.4ZM445.66,763.49c2.14-2.14,4.62-6.55,3.19-9.63-11.37-7.14-28.16,8.2-31.22,19.06,5.4.11,11.68-.76,16.79-2.6,2.59-.94,9.42-5.01,11.25-6.83Z"/>
  <path d="M532.68,681.56c18.46-.98,18.51,20.99,0,19.73,2.72,7.48-1.43,14.58-9.58,14.47-6.01-.08-6.74-5.22-10.79-7.91l-1.31,27.61c5.41-5.28,9.28-11.34,17.11-13.45,15.15-4.07,18.14,7.33,5.85,15.71-15.14,10.31-39.59,6.84-50.85-7.57-3.65-4.67-7.72-13.2.76-14.9,10.87-2.18,19.68,7.17,24.49,15.61l1.32-21.03c-13.74,6.96-24.86-10.93-9.86-17.76-1.66-3.19-4.62-4.53-5.73-8.41-3.13-10.91,11.52-14.85,18.22-8.02,5.51-14.42,25.49-10.4,20.39,5.91ZM529.39,684.19c-.63-.61,6.03-12.74-4.06-14.73s-9.21,9.46-10.81,10.09c-2.61.66-3.42-2.1-5.29-3.14-8.75-4.88-17.86,1.97-10.41,10.41,1.99,2.26,4.41,2.46,5.63,4.93-.08,2.31-13.3,4.08-7.7,13.57s17.09-2.75,18.82-1.4c.44,6.9,6.21,11.89,12.76,7.79,4.81-3.01.94-8.36,1.34-12.45,1.24-1.7,13.77,1.88,14.23-7.53.37-7.71-8.9-7.94-14.5-7.55ZM507.69,740.72c-.23-10.43-11.26-24.85-22.71-23.03-7.65,1.22,1.08,12.85,4.28,15.5,2.18,1.81,16.9,9.07,18.43,7.53ZM511.64,741.37c6.78-.19,13.68-1.51,19.52-5.13,3.2-1.99,11.87-8.84,5.64-11.8-9.35-4.45-22.1,9.07-25.16,16.93Z"/>
  <path d="M506.38,609.91c5.15-2.72,9.25-6.53,15.48-4.63,10.16,3.1,4.72,11.46-.36,16.46,16.19-1.32,9.26,17.01-1.97,17.75-1.69-1.54,13.76-8.52,7.92-14.17-7.29-7.06-25.07,12.17-28.3,10.59-4.27-5.69-7.2-24.31-17.57-20.89-8.63,2.85,2.77,12.74,5.05,16.91-.29,3.38-7.91-5.18-8.42-6-6.58-10.7,1.79-17.31,11.72-11.42-7.45-17.99,15.74-23.64,16.45-4.6ZM502.06,604.38c-2.2-3.15-5.61-6.16-8.85-2.03-4.59,5.85,5.29,23.73,6.6,30.58,5.55-3.16,23.61-13.86,24.35-20.03.88-7.41-7.15-6.03-11.56-3.65-2.86,1.54-4.33,4.57-7.2,5.93-1.9-4.31-.5-6.72-3.34-10.8Z"/>
  <path d="M74.68,612.3c1.15,1.71,2.29,2.79,2.39,5.5,3.32-4.27,7.16-9.2,12.81-4.6,2.61,2.51-.13,16.12-2.27,17.45-1.16.71-1.93.3-2.66-.7,2.32-4.8,4.36-9.14,2.98-14.79-7.23-5.09-7.75,10.65-13.49,6.74-.27-4.18-2.57-15.19-8.63-10.41-4.59,3.63-1.01,7.68-1.31,12.14-4.4,2.03-5.89-9.3-11.16-5.39-3.21,5.06,4.69,11.42,4.68,13.03-.04,5.58-7.87-5.72-8.25-7.54-1.73-8.25,4.65-11.37,10.85-6.59.06-8.97,8.46-13.21,14.07-4.85Z"/>
  <path d="M266.42,755.18c4.93-5.69,14.19-5.58,13.75,3.51-.1,2.06-2.88,11.02-5.88,8.64,1.42-3.86,5.15-8.46,2.02-12.52-5.08-4.8-9.74,7.28-11.86,5.62-.92-3.74.13-10.82-5.24-11.57-6.36-.9-3.67,9.67-5.63,10.25-2.62-.35-6.9-9.31-10.24-4.99s5.99,13.5,2.36,13.52c-9.05-6.81-6.9-23.9,5.92-13.8,2.71-10.57,13.93-9.62,14.8,1.33Z"/>
  <path d="M362.39,482.4c-33.36,1.55-65.58,22.81-78.35,53.78l-3.17.11c10.49-27,38.04-48.88,66.4-54.88,3.32-.7,15.55-3.92,15.12.98Z"/>
  <path d="M223.02,441c3.09-.85,3.06,1.91,4.62,2.93,5.03,3.28,12.26,3.51,16.68-1.03,2.76-2.84,2.94-10.49,6.86-6.85-2.33,9.39-11.93,15.67-21.74,12.01-1.46-.54-8.26-5.22-6.41-7.05Z"/>
  <path d="M187.52,424.56l2.53.14c3.97,10.62,17.19,7.53,15.52-4.09.96-1.4,2.92-.65,2.99,1.01.81,14.65-19.28,17.09-21.04,2.94Z"/>
  <path d="M245.37,409.44c1.24-1.37,4.63,4.73,5.93,5.58,7.31,4.78,12.05-1.73,13.12-8.55l1.68.32c2.24,15.03-19.81,16.99-20.73,2.65Z"/>
  <path d="M228.28,427.19c-.23-6.23,7.58-6.83,11.16-2.95-1.69,2.94-4.26-.2-6.74.43-1.39.35-2.16,3.16-4.42,2.52Z"/>
  <path d="M532.96,194.23c18.39,17.28,3.71,40.55-18.34,42.37H79.34c-36.52-3.03-36.44-49.47,5.92-51.31,15.52-.67,31.87.84,47.37.74,128.43-.86,257.19-1.6,385.62.24,6.04,1.58,10.18,3.71,14.71,7.97ZM186.2,201.08c.31-5.02-4.21-5.17-3.95,0h3.95ZM396.51,201.01c1.36-2.19-2.7-5.92-3.76-2.09-.98,3.53,3.17,3.04,3.76,2.09ZM112.56,199.44v22.02c1.11.82,3.94.27,3.94-.99v-13.47c2.94,2.18,7.95,14.75,10.83,15.07l2.22-.72.18-23.16c-8.31-3.44-.72,14.89-4.36,16.03-1.3-2.76-8.16-15.62-10.55-15.79l-2.27,1.01ZM303.14,221.36l.14-22.64c-5.33-3.84-2.53,5.81-3.35,6.96-13.18-7.93-14.91,17.12-3.7,16.41,2.04-.13,3.48-1.84,4.04-1.95.18-.04.65,2.39,2.86,1.22ZM89.39,198.62c-11.56,1.58-10.95,24.59,3.03,23.46,12.86-1.04,12.52-25.58-3.03-23.46ZM332.81,200.09v21.03c6.62,3.86,2.03-10.36,3.95-14.13,5.6,8.5,5.94,10.82,11.83.66v12.82c0,1.82,4.33,2.01,5.26,0v-20.38c0-.82-4-2.53-4.98-1.04l-5.22,9.26c-2.56.09-5.5-11.12-9.05-9.76l-1.79,1.54ZM453.78,217.18c.93-4.93-.69-12.49,0-17.75-1.07-1.46-2.92-1.42-3.94,0v17.75c0,.49-1.54,1.35-2.26.94-2.2-4.49-8.77-1.06-3.99,2.68,3.65,2.86,9.34.94,10.2-3.62ZM261.15,207.65l-.29-2.01c-6.07.36-1.65-9.3-6.84-5.44.26,4.3-.1,3.78-3.35,5.8.04,1.93,2.93,2.03,3.15,2.4,1.18,1.99-1.45,8.78,1.39,12.08,3.88,4.51,12.5-2.38,2.6-2.6-.78-3.54-2.56-11.67,3.33-10.23ZM147.41,221.45v-13.47c0-4.58-14.56-5.53-11.18,1.32,1.34.98,1.91-1.19,3.11-1.53,2.84-.81,4.54,1.04,4.13,3.83-5.38-1.58-12.23,3.26-8.21,8.55,3.19,4.2,7.74-1.23,12.16,1.32ZM159.18,215.6c.68,5.44-4.83,3.05-7.48,1.25-3.48,5.93,9.45,7.1,10.7,1.49,1.66-7.45-7.8-5.99-7.79-9.05s5.39-1.7,6.91-.99c3.22-5.02-8.65-5.46-10.02-.84-1.7,5.7,3.29,7.25,7.69,8.13ZM178.59,207.41c-6.16-7.76-14.59-.89-12.62,8.96,1.26,6.27,12.75,8.58,12.33.49-1.87-.43-2.89,1.56-4.41,1.85-5.54,1.05-5.72-12.89.65-10.95,1.92.59,1.47,3.04,5.07.54.26-.98-.69-.48-1.02-.89ZM182.25,206.01c-.62,3.15,0,10.13,0,13.8,0,2.68,3.94,2.46,3.94.66v-14.46c0-.74-3.3-3.27-3.94,0ZM190.14,205.02v15.78c0,.23,3.68,2,3.94.33v-11.83c0-.73,2.6-2.13,3.59-1.68.92-.07,2.32,1.82,2.32,2.34v11.5c0,.22,3.57,1.21,3.94-.33v-11.17c0-3.04,5.92-3.04,5.92,0v11.5c4.36,2.22,5.07-6.4,4.58-9.39-.08-.46-1.12-.42-1.25-.95-.46-1.83.08-4.11-1.53-5.91-4.32-3.16-6.79,1.15-8.71,1.79-.2.07-.99-2.26-3.34-2.59-3-.42-3.85,1.04-5.32,1.15-.95.08-2.3-1.82-4.16-.53ZM220.39,214.22h9.53c3.14-1.76.85-8.27-1.81-9.36-13.62-5.62-15.44,20.33-1.28,16.81,2.4-.6,3.89-1.42,3.41-4.15-4.94,1.16-8.1,3.07-9.86-3.29ZM234.85,205.35v16.1h3.94v-11.5c0-3.04,5.92-3.04,5.92,0v10.52c.76,2.23,4.6-.07,4.6-.33v-9.86c0-.06-1.01.12-1.1-.19-3.04-10.42-5.16-3.03-12.36-5.73l-1,.99ZM268.19,204.51c-7.69,1.82-6.6,19.38,4.29,17.46,8.65-1.52,8.32-20.45-4.29-17.46ZM312.24,204.51c-6.32,1.5-6.57,14.06-.65,16.79,12.99,6,16.26-20.5.65-16.79ZM360.43,214.22h9.53c5.57-17.15-20.33-10.3-11.87,3.98,3.67,6.2,13.18,3.37,12.84.29-.25-2.2-10.65,3-10.5-4.27ZM378.83,221.45v-12.16c0-.73,2.6-2.13,3.59-1.68.92-.07,2.32,1.82,2.32,2.34v11.5c7.08,4.1,4.98-13.74,2.94-15.76-4.03-3.64-7,.28-8.54.64-.28.07-1.68-4.25-4.51-.47l.21,15.11,3.97.48ZM396.59,220.47v-15.12c0-.54-1.64-1.31-2.29-.98-1.86.61-2.29,16.15-.93,17.01l3.23-.92ZM414.34,221.45v-13.47c0-.88-2.38-3.33-3.64-3.59-3.15-.65-4.26,1.08-5.37,1.17-.57.04-4.14-2.35-4.14.45v14.46c0,.15,1.18,1.31,1.64,1.44.82.18,2.31-1.38,2.31-2.1v-11.17c1.43-1.79,4.14-1.05,5.59.33l.42,11.41,3.19,1.08ZM432.39,209.33c-3.9-8.68-14.51-5.89-14.79,3.29-.4,13.63,18.26,11.66,15.84-2.04-.19-1.09-.94-1-1.05-1.25ZM471.44,213.47c2.04-3.34-.76-8.31-5-8.95-11.65-1.73-11.82,18.14-.69,17.45,1.4-.09,6.15-1.61,5.78-3.47-.46-2.32-10.96,3.47-9.86-4.28,1.7-.15,9.02.47,9.76-.76ZM486,208.3c-.25-5.82-10.47-5.27-11.16.4-.82,6.69,8.97,5.48,8.52,8.46-2.96,5.06-8.15-3.42-8.44,1.89,9.11,9.17,17.82-5.93,3.87-8.46-2.81-5.72,6.73-1.83,7.2-2.28ZM493.23,215.87c-.65-2.68.47-7.53,0-10.52-1.07-1.46-2.92-1.42-3.94,0v11.83c0,1.78,3.45,4.64,5.11,4.81,3.02.31,3.07-1.38,4.48-1.81.54-.16,2.8,3.13,4.87.29v-14.46c-.67-1.4-4.6-2.31-4.6-.66v11.17c0,2.73-5.07,2.85-5.92-.66ZM517.55,208.3c3.28-3.41-10.27-7.54-10.57,1.01-.23,6.41,7.75,4.45,7.34,7.86-.38,3.15-5.46.86-6.93-.33-3.38,4.92,7.03,7.07,9.84,3.29,6.55-8.81-18.47-12.67.33-11.83Z" fill="#fff"/>
  <path d="M467.21,264.57c3.28,6.99,4.78,14.69,8.04,21.9,4.4,1.53,22.87-11.96,29.2-9.51,4.96,3.45-9.91,22.06-9.63,26.66.67,1.38,21.69,6.32,25.36,8.22,1.78.92,4.48,2.24,4.44,4.51-.1,5.31-26.62,10.21-31.09,12.9-2.15,3.72,11.33,21.71,7.62,27.33-2.88,2.12-20.4-9.78-24.66-9.6-.76.04-1.23.44-1.72.96-1.35,1.43-5.32,21.86-6.43,25.75s-3.58,12.45-5.35,16.37c-3.45,7.63-3.81,4.26-7.35-.6-2.42-5.28-7.94-40-10.07-41.82-1.41-1.2-2.68-.56-4.17-.19-3.51.86-22.06,11.76-24.35,8-2.26-6.21,12.1-21.74,9.46-26.2-.64-1.07-19.88-5.45-23.04-6.56-11.48-4.01-10.79-5.45.17-9.71,6.15-2.39,13.03-3.08,19.08-5.25,3.31-1.18,5.54-1.03,4.46-5.44s-13.08-18.2-8.64-21.74c3.74-2.99,23.91,7.47,28.22,5.87,2.61-.97,8.12-28.74,14.58-30.8,2.59,0,4.91,6.92,5.87,8.95Z" fill="#fff"/>
  <path d="M341.14,115.84c3.07,3.79,8.71,26.78,10.64,33.05.26.85,1.18.94,1.33,1.46.78,2.57,4.43,14.62,3.42,16.09-2.16,1.49-9.12,1.66-11.43.97-4.12-1.22-2.19-8.85-5.77-9.98-1.86-.59-16.56-.73-17.14-.01-.14,12.42-7.89,11.57-17.61,9.43-1.11-2.62,1.5-5.31,1.84-6.4,3.89-12.52,6.99-24.84,11.86-36.78,1.53-3.76,1.11-9.94,6.43-11.17,4.29-1,13.41-.34,16.41,3.36ZM328.48,133.63c-.55,1.67-3.27,11.39-2.63,12.28l10.28.33c1.31-.92-2.89-16.55-3.67-17.44s-1.19-.76-2.27-.68c.41,2.18-1.37,4.49-1.71,5.51Z" fill="#fff"/>
  <path d="M278.57,113l.91,41.03c.79.94,15.27.12,17.84,1.36,2.87,1.39,3.13,11.12-1.67,12.15-2.44.52-26.99.17-28.29-.59-1.16-.83-1.41-1.61-1.63-2.97-1.03-6.4-1.01-41.58,0-48.05.14-.88.83-2.93,1.68-2.93h11.18Z" fill="#fff"/>
  <path d="M160.56,94.92c-.71,2.35-13.42,2.74-14.33-.14l.46-51.85c.45-.62,2.4-1.38,3.2-1.46.62-.07,7.16-.06,7.74,0,4.63.46,8.73,7.71,11.26,11.59,2.21,3.4,9.05,18.37,12.38,18.54,1.35.14.87-.07.99-.98,1.2-8.94-.52-18.89.31-27.95.95-1.66,13.29-1.59,14.21-.21,1.34,2.17-.08,4.27-.08,6.43-.02,12.82,1.64,32.13.04,44.07-.72,5.35-8.52,4.98-12.79,4.22-7.58-1.35-16.55-24.63-22.06-30.53l-1.32.67c0,5.24,1.03,24.19,0,27.61Z" fill="#fff"/>
  <path d="M351.22,41.68c.7-1.83,15.44-3.23,15.63,1.46l-.81,52.79c-4.08,1.34-12.41,2.42-15.94-.23-4.62-3.46-13.57-23.82-17.62-29.39l-1.98.66-.64,28.28c-4.15,1.66-14.11,3.63-14.84-2.26-1.24-10.05-1.03-37.76.01-48.05.11-1.13.07-2.95,1.12-3.64,8.49-1.09,13.45-2.42,18.5,5.1,4.79,7.12,9.18,16.38,13.6,23.87l2.96-.33v-28.26Z" fill="#fff"/>
  <path d="M97.67,286.3c.17.34,1.84,1.42,2.11,2.18,11.56-7.5,22.67.49,23.39,13.07,5.31.2,13.17,1.05,13.74,7.66,1.11,12.9-23.65,14.43-32.28,12.52-1.85-.41-8.28-3.63-8.75-3.56s-5.59,3.91-7.8,4.7c-7.65,2.74-17.62,3.11-25.37.66-2.43-.77-5.3-3.26-7.1-3.47-2.77-.34-7.31,1.32-10.45,1.36-32.2.42-24.61-36.55,2.99-33.21,5.88-24.37,35.68-28.53,48.29-6.29.78,1.37.59,3.16,1.22,4.38Z" fill="#fff"/>
  <path d="M556.42,412c14.15-3.23,26.11,12.57,12.93,22.58-5.61,4.26-10.35,4.36-17.26,3.77-2.59-.22-7.39-2.24-9.18-1.97-1.39.2-2.51,2-4.05,2.58-10.18,3.85-21.9,5.66-32.34,1.57-1.89-.74-5.88-3.88-6.52-4.02-2.74-.6-9.18,1.27-13.88.1-2.83-.71-7.94-4.3-8.5-7.27-2.87-15.28,13.81-20.55,26.05-18.01,4.37-30.4,48.82-29.33,52.76.67Z" fill="#fff"/>
  <path d="M375.16,138.38c.05.18.83.33.98.79.34,1.09,2.88,15,5.32,13.26l10.19-38.78c8.54-1.88,14.96-3.62,12.5,7.24-3.2,14.12-9.93,28.42-13.15,42.73-2.45,5.8-15.27,5.82-19.37,2.92-3.52-2.49-5.63-14.55-7.16-19.11-2.76-8.2-8.72-21.48-9.25-30.25-.36-5.93,11.05-5.88,13.41-3.51,1.82,1.83,5.29,20.56,6.53,24.71Z" fill="#fff"/>
  <path d="M428.14,165.91c-.62,2.06-13.16,3.65-14.32-1.46-1.41-6.2-.55-30.41-.17-38,.2-3.95.52-9.22,1.69-12.78,3.08-3.59,26.94-2.17,31.67-.15,7.05,3.01,7.84,9.99,10.12,16.24-2.17,1.81-.91,3.48-1.66,5.62-2.09,5.97-4.41,7.98-9.47,11.55.77,4.27,10.65,14.61,9.67,18.17-.93,3.37-8.77,3.66-11.69,2.06-4.3-2.35-7.98-15.47-10.75-17.84-1.22-1.05-4.11-1.36-5.09.15-.79,4.16,1.06,12.92,0,16.43ZM429.93,122.32c-2.55.78-2.34,13.21-1.46,14.99,1.69,3.45,18.33-.42,12.43-11.11-1.51-2.75-8.24-4.72-10.97-3.88Z" fill="#fff"/>
  <path d="M294.29,54.24c4.46,11.38,7.14,22.59,10.81,34.18.38,1.19,3.45,4.02,2.15,6.54-2.93,2.23-12.99,3.47-15.15.58-1.26-1.68-1.15-8.01-3.1-8.73-3.38.37-16.95-1.26-18.6.93-.6,12.01-8.51,10.64-17.76,8.12,1.93-8.16,4.1-16.39,6.62-24.39.17-.53,1.08-.61,1.34-1.45,1.48-4.67,6.76-25.41,9.08-27.71,3.14-3.11,14.51-3.02,18.23-1.09,4.01,2.08,4.83,9.04,6.39,13.02ZM274.3,75.53h11.83c-.46-6.85-3.22-13.04-6.25-19.05-1.34-.05-5.46,16.48-5.59,19.05Z" fill="#fff"/>
  <path d="M223.11,95.82l-.53-39.24c-.97-3.99-5.61-1.22-8.44-1.36-4.72-.23-8.52-.14-8.92-5.62-.51-6.9,1.82-8.95,8.24-9.58,8.26-.8,25.96-.79,34.23,0,3.45.33,7.43.9,8.16,4.99.3,1.67.35,6.52-.57,7.89-2.54,3.82-15.06-.75-16.35,3.37-1.79,7.31,2.04,33.2-.46,38.32-1.38,2.83-12.53,2.33-15.36,1.21Z" fill="#fff"/>
  <path d="M502.05,122.6c4.64,10.75,8.71,24.45,12.15,35.64.99,3.24,3.29,8.57-1.54,9.35-8.81,1.42-13.37-.36-13.53-9.86l-18.46-.3c-1.04,10.57-7.25,11.86-16.92,9.38-.86-1.38,2.4-11.24,3.1-13.45.27-.85,1.17-.94,1.33-1.46,3.73-11.97,6.63-24.23,10.8-36.07,3.84-4.04,10.41-4.3,15.61-3.2,5.91,1.25,5.58,5.58,7.47,9.96ZM490.26,129.11c-.46-.53-.82-1.12-1.3-1.64-1.18-.06-5.46,16.44-4.85,17.97.65,1.64,9.68,1.79,11.04,0,.48-1.31-3.86-15.14-4.89-16.33Z" fill="#fff"/>
  <path d="M114.97,114.54c2.18,2.2,4.15,11.23,5.39,14.63,3.14,8.63,10.01,25.51,11.01,34.43.12,1.04.25,1.9-.34,2.86-1.02,1.33-10.43,1.49-12.09.96-3.24-1.03-2.54-8.13-4.79-9.68-1.56-1.07-16.87-1.02-17.87.11l-3.45,9.37-13.05-.42c-1.07-1.72,5.46-22.22,6.54-25.67.13-.43,1.06-.57,1.35-1.45,1.66-5.09,5.33-21.65,7.87-24.97s16.29-3.33,19.42-.18ZM101.06,146.52h10.19c.44-2.28-4.61-18.84-5.6-19.06-1.15-.26-1.31.92-1.63,1.64-.77,1.75-3.69,12.82-3.82,14.64-.09,1.2-.39,1.97.85,2.77Z" fill="#fff"/>
  <path d="M248.28,135.74c2.7,7.76,7.87,19.38,8.8,27.73.13,1.13.06,2.81-.98,3.49l-12.06.28-3.43-9.4-18.27-.48c-2.19,1.26-.63,8.61-4.56,9.9-2.48.82-11.35,1.12-12.87-1.7-.54-1.46,6.97-26.51,8.13-29.96.3-.89,1.19-.92,1.51-1.83,2.12-6.09,4.02-20.29,10.82-21.36,18.98-3,18.06,9.41,22.9,23.33ZM236.42,143.67c-.94-2.89-3.19-12.7-4.33-14.44-.8-1.22-.98-1.28-2.5-1.11.72,3.33-4.62,15.38-3.9,17.33s9.7,1.11,11.77.4c.76-1.6-.99-1.99-1.05-2.17Z" fill="#fff"/>
  <path d="M62.6,43.66c.42-2.48,3.33-3.72,5.63-4.23,5.69-1.27,25.13-.8,30.68.79,6.82,1.96,13.07,8.81,13.64,15.93,1.64,20.37-16.7,23.03-32.86,22.67v14.13c0,.58-.97,2.56-1.31,3.29-1.8,1.84-13.55,1.59-15.78-1.32v-51.27ZM79.03,51.21v14.79c6.6,3.67,20.17-.23,16.48-9.91-.71-1.87-4.5-4.88-6.29-4.88h-10.19Z" fill="#fff"/>
  <path d="M378.83,95.91v-52.26c0-2.08,5.8-2.82,7.54-2.98,20.63-1.87,42.16,1,43.12,25.95,1.14,29.86-27.51,33.07-50.65,29.28ZM393.96,53.19v29.91c6.38,3.04,16.87-1.76,18.88-8.73,4.22-14.59-4.58-22.93-18.88-21.18Z" fill="#fff"/>
  <path d="M490.23,58.84c6.66,21.27-10.43,45.42-34.46,37.39-24.74-8.28-22.83-53.72,5.56-56.21,14.99-1.31,24.46,4.62,28.9,18.82ZM456.81,79.73c16.21,18.16,29.79-20.28,13.2-27.32-15.52-6.59-22.22,17.22-13.2,27.32Z" fill="#fff"/>
  <path d="M163.19,167.56l.15-52.76c1.55-2.74,14.5-3.24,17.96-3.14,15.13.43,25.38,5.81,23.88,22.62-1.26,14.09-16.07,17.55-28.08,16.94-1.89,2.42.76,16.34-2.4,16.34h-11.51ZM177.42,124.27c-1.64.63-1.54,13.39-.49,14.75,1.33,1.72,9.9.1,11.59-1.68,6.65-7.01-3.15-15.83-11.11-13.07Z" fill="#fff"/>
  <path d="M134.26,43.33v52.26l-.99.99h-9.86c-.26,0-2.99-4.02-3.02-4.28-.21-1.97,1.23-1.29,1.43-2.58.63-4.18-1.34-5.63-1.41-6.58-.79-10.21-.42-23.93,1.34-33.04.41-2.14-.92-5.23,1.05-6.72l11.46-.04Z" fill="#fff"/>
  <path d="M530.89,70.75c2.08,1.64,9.45,0,11.6,3.21.31,2.9-6.67,5.48-7.09,6.59-1.16,3.04,1.78,8.65.26,12.1-1.44,2.28-8.56-4.12-11.15-3.96-2.87.18-7.51,5.91-11.55,4.6-1.48-3.63,3.43-8.88,2.54-12.02-.5-1.77-9.62-6.19-7.51-9.05,3.33-1.63,7.59.47,10.85-1.65,2.95-1.92,4.55-14.17,9.52-6.15.88,1.42,1.52,5.54,2.54,6.34Z" fill="#fff"/>
  <path d="M201.56,292.01c-.96,1.6-5.81,9.55-6.82,10-3.3,1.48-19.38-8.73-22.04-11.51-12.04-12.6,3.83-23.87,14.49-11.87,8.48-20.97,27.38-9.58,16.69,10.79-.85,1.61-1.98,2.03-2.32,2.6Z" fill="#fff"/>
  <path d="M293.36,294.41c-3.79.92-7.28-4.46-10.19-4.67-3.86-.27-7.85,5.11-12.15,2.66.89-3.37,3.7-6.98,3.14-10.66-.31-1.99-6.03-4.52-6.47-7.38.05-3.1,8.04-.71,10.74-2.26,2.22-1.28,4.79-13.92,9.14-5.76.89,1.67,1.24,5.94,2.5,6.71,1.85,1.13,8.04.45,10.48,2.34,1.18,3.79-7.19,6.02-7.19,6.53v12.49Z" fill="#fff"/>
  <path d="M340.23,374.13c6.14-5.29,16.65-3.41,14.65,6.43-1.17,5.75-15.13,15.34-20.94,16.95-6.57-5.03-20.49-18.35-12.66-26.89,6.47-7.05,13.24,1.16,15.82,7.26,1.78.4,2.44-3.16,3.13-3.76Z" fill="#fff"/>
  <path d="M69.83,390.38c-3.48.79-8.72-5.07-10.89-5.26-2.8-.24-7.34,4.71-10.82,2.97-1.11-.65,2.41-8.18,2-10.5-.54-3.07-10.22-7.48-3.45-8.72,2.6-.48,5.22.37,7.64-.92s4.1-9.22,7.19-8.41c2.61,1.07,4.64,9.54,5.7,10.14,1.36.77,9.77.59,10.47,1.69,1.78,4.01-7.83,6.12-7.83,8.16v10.85Z" fill="#fff"/>
  <path d="M351.87,329.25c-3.08.52-7.2-4.01-9.47-3.94-3.15.09-6.61,5.38-10.25,4.6-.45-3.42,1.5-7.36.51-10.71-.82-2.76-6.26-3.76-5.78-7.04,2.28-.21,7.69-.66,9.4-1.94,2.27-1.7,1.37-8.06,5.4-7.99,3.49.06,3.39,6.44,6.25,7.61,2.23.91,6.16-.44,7.9,1.33,2.57,2.62-5.42,6.26-5.82,8.02-.37,1.6,2.64,9.21,1.86,10.05Z" fill="#fff"/>
  <path d="M472.11,456.86c1.58,1.56,1.86,7.41,2.88,8.3,1.23,1.08,9.02.74,9.08,3.76.05,2.56-5.84,3.4-6.66,4.72-1.49,2.4.31,7.33-1.61,10.07-1.56,1.83-7.32-4.87-9.28-5.08-1.62-.17-8.86,3.75-9.44,3.12-.51-3.32,2.9-7.15,2.62-10.12-.36-3.86-5.45-3.75-4.33-7.66,2.56-1.89,5.72.71,8.45-.09,2.15-.63,5.86-8.29,8.28-7.01Z" fill="#fff"/>
  <path d="M86.43,671.83c-.33.57-.18,1.21-.13,1.81,23.59,1.74,15.03,19.63-4.01,17.43-.96.62.2,3.63,0,5.2-1.86,14.02-23.53,8.71-20.35-4.85-21.52,6.99-25.69-13.38-3.94-15.78.62-.89-2.81-3.6-3.42-4.79-6.68-12.89,12.99-15.19,15.6-3.77l1.95.69c3-13.78,24.58-13,16.26,2.45-.6,1.11-1.84,1.39-1.96,1.6ZM66.13,687.24c11.88,9.53,22.32-8.13,11.81-14.1-8.94-5.08-20.96,6.76-11.81,14.1Z" fill="#fff"/>
  <path d="M81.01,729.55c-.7-9.51,7.96-22.41,16.79-25.6,13.8-4.98,11.61,6.38,5.44,13.98-5.18,6.38-14.26,10.17-22.23,11.62Z" fill="#fff"/>
  <path d="M75.52,723.84c1.06,1.77,1.24,3.89,2.2,5.7-10.44,1.02-27.04-3.62-28.81-15.28,4.74-6.24,14.91-2.05,19.91,2.17,1.37,1.16,5.9,6.08,6.7,7.42Z" fill="#fff"/>
  <path d="M167.39,685.92c1.91,2.25,2.51,3.52,4.03,6.17.93.19,9.53-11.35,16.09-1.65,4.6,6.81-1.86,8.95-4.58,12.51-2.4,3.12,3.84,3.44,6.25,5.56,3.25,2.85,2.6,6.72-.31,9.58-7.58,7.45-16.33-.95-18.39.35-.75,7.89-11.08,12.4-16.85,6.53-5.07-5.17,1.42-10.79.07-12.55-15.68-1.17-18.92-17-.69-16.35-.32-6.42-1.69-15.16,7.78-14.47,3.45.25,4.67,2.05,6.59,4.32ZM164.33,696.85c-13.02,2.17-5.74,23.65,7.35,15.23,8.53-5.48,3.24-17-7.35-15.23Z" fill="#fff"/>
  <path d="M155.56,737.18c3.94,5.07,5.98,10.08,6.97,16.68-12.07-1.23-26.99-11.42-25.54-24.87,7.58-3.72,14.16,2.53,18.57,8.19Z" fill="#fff"/>
  <path d="M191.22,745.08c-5.71,6.1-16.54,9.21-24.74,9.44,3.62-9.9,12.28-23.33,24.66-21.69,6.7.89,3.13,8.98.08,12.25Z" fill="#fff"/>
  <path d="M426.18,715.08c1.54,1.04,8.91-7.68,15.05-4.21,7.79,4.41,1.67,11.97-4.55,14.41-.09,1.49,7.6,5.59,8.36,7.72,3.21,8.98-13.46,11.23-18.55,5.21-1.83,1.06-1.69,3.34-2.93,4.83-4.92,5.92-16.29,2.57-15.01-5.8.31-2.04,2.46-1.49,1.84-3.74-18.74-1.43-18.56-18.56,1.32-15.13,1.02-1.02-5.08-16.18,7.5-14.4,5.94.84,5.53,6.46,6.97,11.1ZM421.42,718.52c-7.84,1.06-10.32,11.8-2.19,14.36,14.63,4.61,14.96-16.08,2.19-14.36Z" fill="#fff"/>
  <path d="M445.66,763.49c-1.82,1.82-8.65,5.89-11.25,6.83-5.1,1.84-11.39,2.71-16.79,2.6,3.07-10.86,19.85-26.2,31.22-19.06,1.43,3.08-1.05,7.49-3.19,9.63Z" fill="#fff"/>
  <path d="M409.34,758.87c2.52,4.17,4.51,8.34,5,13.4-9.49,2.62-31.86-18.26-24.36-26,5.47-5.64,16.88,8.48,19.36,12.6Z" fill="#fff"/>
  <path d="M529.39,684.19c5.6-.39,14.88-.16,14.5,7.55-.45,9.41-12.99,5.82-14.23,7.53-.4,4.09,3.47,9.44-1.34,12.45-6.55,4.1-12.33-.89-12.76-7.79-1.72-1.35-13.43,10.55-18.82,1.4s7.62-11.27,7.7-13.57c-1.22-2.47-3.64-2.68-5.63-4.93-7.44-8.44,1.67-15.29,10.41-10.41,1.87,1.04,2.69,3.8,5.29,3.14,1.6-.63.89-12.04,10.81-10.09s3.42,14.12,4.06,14.73ZM525.91,686.35c-6.12-7.56-19.59-1.63-15.74,8.19,4.17,10.64,23.12.92,15.74-8.19Z" fill="#fff"/>
  <path d="M507.69,740.72c-1.53,1.54-16.24-5.72-18.43-7.53-3.2-2.65-11.92-14.28-4.28-15.5,11.44-1.82,22.47,12.61,22.71,23.03Z" fill="#fff"/>
  <path d="M511.64,741.37c3.05-7.86,15.8-21.38,25.16-16.93,6.23,2.96-2.44,9.81-5.64,11.8-5.83,3.62-12.74,4.93-19.52,5.13Z" fill="#fff"/>
  <path d="M502.06,604.38c2.85,4.08,1.44,6.49,3.34,10.8,2.87-1.36,4.33-4.39,7.2-5.93,4.41-2.38,12.45-3.75,11.56,3.65-.74,6.17-18.8,16.86-24.35,20.03-1.31-6.85-11.19-24.72-6.6-30.58,3.24-4.13,6.65-1.12,8.85,2.03Z" fill="#fff"/>
  <path d="M332.81,200.09l1.79-1.54c3.55-1.36,6.49,9.85,9.05,9.76l5.22-9.26c.98-1.49,4.98.22,4.98,1.04v20.38c-.93,2.01-5.26,1.82-5.26,0v-12.82c-5.89,10.17-6.22,7.84-11.83-.66-1.93,3.78,2.67,17.99-3.95,14.13v-21.03Z"/>
  <path d="M112.56,199.44l2.27-1.01c2.4.18,9.25,13.04,10.55,15.79,3.63-1.14-3.96-19.47,4.36-16.03l-.18,23.16-2.22.72c-2.87-.32-7.89-12.89-10.83-15.07v13.47c0,1.26-2.84,1.81-3.94.99v-22.02Z"/>
  <path d="M190.14,205.02c1.86-1.29,3.21.61,4.16.53,1.47-.12,2.32-1.58,5.32-1.15,2.35.33,3.14,2.66,3.34,2.59,1.92-.64,4.39-4.95,8.71-1.79,1.6,1.8,1.07,4.08,1.53,5.91.13.53,1.17.49,1.25.95.5,2.99-.22,11.61-4.58,9.39v-11.5c0-3.04-5.92-3.04-5.92,0v11.17c-.37,1.54-3.94.55-3.94.33v-11.5c0-.52-1.4-2.41-2.32-2.34-.99-.45-3.59.95-3.59,1.68v11.83c-.27,1.67-3.94-.1-3.94-.33v-15.78Z"/>
  <path d="M89.39,198.62c15.55-2.13,15.89,22.42,3.03,23.46-13.98,1.13-14.59-21.88-3.03-23.46ZM87.3,215.82c7.53,9.32,12.79-6.4,7.88-12.16-5.22-6.12-14.21,4.32-7.88,12.16Z"/>
  <path d="M303.14,221.36c-2.21,1.16-2.69-1.26-2.86-1.22-.56.11-2,1.82-4.04,1.95-11.22.71-9.49-24.34,3.7-16.41.82-1.15-1.98-10.8,3.35-6.96l-.14,22.64ZM299.12,208.47c-5.37-5.44-10.34,9-2.63,10.25,4.22.69,4.34-8.53,2.63-10.25Z"/>
  <path d="M378.83,221.45l-3.97-.48-.21-15.11c2.82-3.78,4.22.54,4.51.47,1.54-.37,4.51-4.28,8.54-.64,2.04,2.03,4.13,19.86-2.94,15.76v-11.5c0-.52-1.4-2.41-2.32-2.34-.99-.45-3.59.95-3.59,1.68v12.16Z"/>
  <path d="M432.39,209.33c.12.26.86.17,1.05,1.25,2.42,13.7-16.24,15.67-15.84,2.04.27-9.18,10.88-11.97,14.79-3.29ZM424.68,207.78c-4.1,1.17-3.08,11.24,1.18,11.02s4.71-12.7-1.18-11.02Z"/>
  <path d="M493.23,215.87c.85,3.51,5.92,3.39,5.92.66v-11.17c0-1.65,3.93-.74,4.6.66v14.46c-2.07,2.85-4.34-.45-4.87-.29-1.42.43-1.47,2.12-4.48,1.81-1.66-.17-5.11-3.03-5.11-4.81v-11.83c1.02-1.42,2.88-1.46,3.94,0,.47,2.99-.65,7.83,0,10.52Z"/>
  <path d="M312.24,204.51c15.61-3.71,12.34,22.79-.65,16.79-5.92-2.73-5.67-15.29.65-16.79ZM318.13,209.17c-8.42-6.74-9.57,10.88-2.37,9.4,3.04-.63,4.13-6.97,2.37-9.4Z"/>
  <path d="M360.43,214.22c-.14,7.27,10.26,2.07,10.5,4.27.34,3.08-9.16,5.9-12.84-.29-8.46-14.27,17.44-21.13,11.87-3.98h-9.53ZM360.43,210.93c11.31,3.62,6.99-6.33,1.59-2.67-.39.27-1.69,2.5-1.59,2.67Z"/>
  <path d="M234.85,205.35l1-.99c7.21,2.7,9.32-4.69,12.36,5.73.09.3,1.1.13,1.1.19v9.86c0,.26-3.84,2.56-4.6.33v-10.52c0-3.04-5.92-3.04-5.92,0v11.5h-3.94v-16.1Z"/>
  <path d="M268.19,204.51c12.62-2.99,12.95,15.94,4.29,17.46-10.89,1.92-11.99-15.64-4.29-17.46ZM273.48,208.47c-5-4.98-9.33,6.6-4.29,9.93,5.96,2.63,6.25-7.98,4.29-9.93Z"/>
  <path d="M147.41,221.45c-4.42-2.54-8.97,2.88-12.16-1.32-4.01-5.29,2.84-10.13,8.21-8.55.41-2.79-1.29-4.63-4.13-3.83-1.2.34-1.77,2.52-3.11,1.53-3.38-6.85,11.18-5.9,11.18-1.32v13.47ZM143.46,214.23l-4.59.33-1.03,2.95,1.5,1.22c2.56.74,4.24-2.15,4.12-4.5Z"/>
  <path d="M220.39,214.22c1.75,6.36,4.92,4.45,9.86,3.29.48,2.73-1.01,3.56-3.41,4.15-14.16,3.52-12.34-22.42,1.28-16.81,2.66,1.1,4.95,7.61,1.81,9.36h-9.53ZM222.83,207.78c-3.18,1-2.28,4.63,2.51,3.85s1.52-5.11-2.51-3.85Z"/>
  <path d="M471.44,213.47c-.75,1.23-8.06.61-9.76.76-1.1,7.75,9.4,1.96,9.86,4.28.37,1.85-4.38,3.38-5.78,3.47-11.14.69-10.97-19.19.69-17.45,4.24.63,7.03,5.6,5,8.95ZM468.11,209.08c-1.51-2.48-7.34-1.81-6.43,2.52l6.54-.7c.03-.58.22-1.28-.11-1.82Z"/>
  <path d="M414.34,221.45l-3.19-1.08-.42-11.41c-1.46-1.38-4.16-2.12-5.59-.33v11.17c0,.72-1.48,2.28-2.31,2.1-.46-.13-1.64-1.29-1.64-1.44v-14.46c0-2.8,3.57-.41,4.14-.45,1.11-.09,2.22-1.83,5.37-1.17,1.26.26,3.64,2.72,3.64,3.59v13.47Z"/>
  <path d="M517.55,208.3c-18.8-.84,6.22,3.02-.33,11.83-2.81,3.79-13.22,1.64-9.84-3.29,1.47,1.18,6.55,3.47,6.93.33.41-3.41-7.57-1.45-7.34-7.86.31-8.56,13.85-4.43,10.57-1.01Z"/>
  <path d="M453.78,217.18c-.86,4.56-6.55,6.48-10.2,3.62-4.78-3.74,1.79-7.18,3.99-2.68.72.41,2.26-.45,2.26-.94v-17.75c1.02-1.42,2.88-1.46,3.94,0-.69,5.26.93,12.81,0,17.75Z"/>
  <path d="M159.18,215.6c-4.4-.88-9.39-2.43-7.69-8.13,1.38-4.62,13.25-4.18,10.02.84-1.52-.71-6.9-2.08-6.91.99s9.45,1.6,7.79,9.05c-1.25,5.61-14.18,4.44-10.7-1.49,2.66,1.8,8.17,4.19,7.48-1.25Z"/>
  <path d="M178.59,207.41c.33.42,1.28-.08,1.02.89-3.6,2.5-3.16.05-5.07-.54-6.37-1.95-6.2,12-.65,10.95,1.53-.29,2.54-2.28,4.41-1.85.42,8.08-11.07,5.78-12.33-.49-1.98-9.85,6.46-16.72,12.62-8.96Z"/>
  <path d="M486,208.3c-.47.45-10.02-3.44-7.2,2.28,13.95,2.53,5.24,17.63-3.87,8.46.29-5.31,5.49,3.17,8.44-1.89.45-2.98-9.34-1.76-8.52-8.46.69-5.66,10.91-6.22,11.16-.4Z"/>
  <path d="M261.15,207.65c-5.89-1.44-4.11,6.7-3.33,10.23,9.9.22,1.28,7.11-2.6,2.6-2.84-3.3-.21-10.09-1.39-12.08-.22-.37-3.11-.47-3.15-2.4,3.25-2.01,3.61-1.5,3.35-5.8,5.18-3.86.76,5.79,6.84,5.44l.29,2.01Z"/>
  <path d="M182.25,206.01c.64-3.27,3.94-.74,3.94,0v14.46c0,1.81-3.94,2.02-3.94-.66,0-3.68-.62-10.66,0-13.8Z"/>
  <path d="M396.59,220.47l-3.23.92c-1.36-.86-.93-16.4.93-17.01.65-.34,2.29.44,2.29.98v15.12Z"/>
  <path d="M396.51,201.01c-.59.95-4.74,1.45-3.76-2.09,1.06-3.83,5.13-.1,3.76,2.09Z"/>
  <path d="M186.2,201.08h-3.95c-.26-5.17,4.26-5.02,3.95,0Z"/>
  <path d="M328.48,133.63c.34-1.02,2.12-3.33,1.71-5.51,1.08-.08,1.5-.2,2.27.68s4.99,16.52,3.67,17.44l-10.28-.33c-.65-.89,2.07-10.61,2.63-12.28ZM333.47,143.89l-1.64-7.88-2.31,7.88h3.95Z"/>
  <path d="M429.93,122.32c2.73-.84,9.45,1.14,10.97,3.88,5.9,10.69-10.74,14.56-12.43,11.11-.87-1.79-1.09-14.21,1.46-14.99ZM430.77,135.35c11.44,1.74,11.44-11.6,0-9.86v9.86Z"/>
  <path d="M274.3,75.53c.13-2.56,4.25-19.1,5.59-19.05,3.03,6.01,5.78,12.2,6.25,19.05h-11.83ZM282.19,72.9l-2.62-8.54-1.98,8.54h4.6Z"/>
  <path d="M490.26,129.11c1.03,1.19,5.37,15.02,4.89,16.33-1.36,1.79-10.39,1.63-11.04,0-.6-1.53,3.68-18.02,4.85-17.97.48.52.83,1.11,1.3,1.64ZM490.24,138.34c-.5-.84-.52-2.12-1.6-2.34l-1.98,7.88h5.26c.24-2.57-.62-3.77-1.68-5.54Z"/>
  <path d="M101.06,146.52c-1.24-.8-.94-1.57-.85-2.77.13-1.83,3.04-12.9,3.82-14.64.32-.73.48-1.9,1.63-1.64.99.22,6.04,16.78,5.6,19.06h-10.19ZM107.96,143.89l-2.29-7.88-2.3,7.88h4.6Z"/>
  <path d="M236.42,143.67c.06.18,1.81.57,1.05,2.17-2.07.71-11.02,1.61-11.77-.4s4.61-13.99,3.9-17.33c1.51-.17,1.7-.11,2.5,1.11,1.14,1.74,3.39,11.55,4.33,14.44ZM233.53,143.89l-2.29-7.88-2.3,7.88h4.6Z"/>
  <path d="M79.03,51.21h10.19c1.79,0,5.58,3.01,6.29,4.88,3.68,9.68-9.89,13.58-16.48,9.91v-14.79ZM81.66,64.36c15.59,1.74,16.19-12.64,0-10.52v10.52Z"/>
  <path d="M393.96,53.19c14.3-1.75,23.1,6.58,18.88,21.18-2.02,6.97-12.5,11.77-18.88,8.73v-29.91ZM396.59,55.82v25.63c18.88-.09,19.71-26.94,0-25.63Z"/>
  <path d="M456.81,79.73c-9.02-10.11-2.32-33.92,13.2-27.32,16.59,7.05,3.01,45.48-13.2,27.32ZM456.81,72.49c.85,2.87,2.18,6.99,5.49,8,13.69,4.19,15.46-20.45,7.24-24.98-9.89-5.45-15.08,8.05-13.82,15.78.18,1.08,1.04,1,1.1,1.2Z"/>
  <path d="M177.42,124.27c7.96-2.75,17.76,6.06,11.11,13.07-1.69,1.78-10.26,3.41-11.59,1.68-1.05-1.36-1.16-14.12.49-14.75ZM180.28,126.8c1.07,3.6-3.05,9.96,2.27,9.89,8.33-.11,5.52-11.33-2.27-9.89Z"/>
  <path d="M66.13,687.24c-9.16-7.35,2.86-19.19,11.81-14.1,10.51,5.98.07,23.64-11.81,14.1ZM78.15,676.54c-5.62-5.92-15.73,1.28-10.96,8,5.46,7.69,17.09-1.54,10.96-8Z"/>
  <path d="M164.33,696.85c10.59-1.77,15.89,9.75,7.35,15.23-13.1,8.41-20.38-13.06-7.35-15.23ZM164.31,699.46c-7.48,1.79-4.72,15.11,5.28,11.19,6.3-2.47,3.94-13.39-5.28-11.19Z"/>
  <path d="M421.42,718.52c12.77-1.73,12.44,18.96-2.19,14.36-8.13-2.56-5.65-13.3,2.19-14.36ZM420.73,721.14c-5.48,1.24-5.51,8.31,0,9.58,10.59,2.44,9.44-11.71,0-9.58Z"/>
  <path d="M525.91,686.35c7.38,9.11-11.57,18.83-15.74,8.19-3.85-9.82,9.62-15.75,15.74-8.19ZM513.13,694.54c3.63,4.29,13.21,1.22,10.51-5.58-3.16-7.94-15.84-.73-10.51,5.58Z"/>
  <path d="M87.3,215.82c-6.33-7.83,2.66-18.28,7.88-12.16,4.91,5.75-.35,21.48-7.88,12.16Z" fill="#fff"/>
  <path d="M299.12,208.47c1.71,1.73,1.59,10.94-2.63,10.25-7.71-1.25-2.74-15.69,2.63-10.25Z" fill="#fff"/>
  <path d="M424.68,207.78c5.89-1.68,5.38,10.8,1.18,11.02s-5.28-9.85-1.18-11.02Z" fill="#fff"/>
  <path d="M318.13,209.17c1.76,2.43.67,8.77-2.37,9.4-7.2,1.48-6.04-16.14,2.37-9.4Z" fill="#fff"/>
  <path d="M360.43,210.93c-.1-.16,1.19-2.4,1.59-2.67,5.4-3.67,9.72,6.29-1.59,2.67Z" fill="#fff"/>
  <path d="M273.48,208.47c1.96,1.95,1.67,12.56-4.29,9.93-5.04-3.33-.71-14.91,4.29-9.93Z" fill="#fff"/>
  <path d="M143.46,214.23c.12,2.36-1.56,5.24-4.12,4.5l-1.5-1.22,1.03-2.95,4.59-.33Z" fill="#fff"/>
  <path d="M222.83,207.78c4.02-1.26,7.19,3.09,2.51,3.85s-5.69-2.85-2.51-3.85Z" fill="#fff"/>
  <path d="M468.11,209.08c.33.54.14,1.24.11,1.82l-6.54.7c-.91-4.33,4.92-4.99,6.43-2.52Z" fill="#fff"/>
  <polygon points="333.47 143.89 329.52 143.89 331.83 136.01 333.47 143.89" fill="#fff"/>
  <path d="M430.77,135.35v-9.86c11.44-1.74,11.44,11.6,0,9.86Z" fill="#fff"/>
  <polygon points="282.19 72.9 277.59 72.9 279.57 64.36 282.19 72.9" fill="#fff"/>
  <path d="M490.24,138.34c1.05,1.77,1.92,2.97,1.68,5.54h-5.26s1.98-7.88,1.98-7.88c1.09.22,1.1,1.5,1.6,2.34Z" fill="#fff"/>
  <polygon points="107.96 143.89 103.36 143.89 105.66 136.01 107.96 143.89" fill="#fff"/>
  <polygon points="233.53 143.89 228.94 143.89 231.24 136.01 233.53 143.89" fill="#fff"/>
  <path d="M81.66,64.36v-10.52c16.19-2.12,15.59,12.26,0,10.52Z" fill="#fff"/>
  <path d="M396.59,55.82c19.71-1.3,18.88,25.55,0,25.63v-25.63Z" fill="#fff"/>
  <path d="M456.81,72.49c-.06-.2-.92-.11-1.1-1.2-1.26-7.73,3.93-21.23,13.82-15.78,8.22,4.53,6.45,29.17-7.24,24.98-3.31-1.01-4.64-5.13-5.49-8Z" fill="#fff"/>
  <path d="M180.28,126.8c7.79-1.44,10.6,9.78,2.27,9.89-5.32.07-1.2-6.29-2.27-9.89Z" fill="#fff"/>
  <path d="M78.15,676.54c6.13,6.46-5.49,15.69-10.96,8-4.77-6.72,5.34-13.92,10.96-8Z" fill="#fff"/>
  <path d="M164.31,699.46c9.22-2.21,11.58,8.72,5.28,11.19-10,3.92-12.76-9.4-5.28-11.19Z" fill="#fff"/>
  <path d="M420.73,721.14c9.43-2.13,10.58,12.02,0,9.58-5.5-1.27-5.48-8.34,0-9.58Z" fill="#fff"/>
  <path d="M513.13,694.54c-5.33-6.31,7.35-13.52,10.51-5.58,2.7,6.8-6.88,9.87-10.51,5.58Z" fill="#fff"/>
</svg>