<?xml version="1.0" encoding="UTF-8"?>
<svg id="Camada_1" xmlns="http://www.w3.org/2000/svg" version="1.1" viewBox="0 0 595.28 841.89">
  <!-- Generator: Adobe Illustrator 29.0.0, SVG Export Plug-In . SVG Version: 2.1.0 Build 186)  -->
  <path d="M.14,841.29V-.06h595v841.34H.14ZM590.54,3.89H4.08v594.86l40.1-5.92c-4.74-7.22-13.82-14.17-11-24.15,10.57-3.07,20.58,10.32,25.47,18.23v-25.31c0-.43,1.47-1.74.03-2.66-7.49-.02-11.71-5.76-7.92-12.78-12.55,1.28-16.97-10.79-3.3-14.8-8.24-9.95-.13-15.82,10.53-11.5.85-11.16,14.33-10.54,14.48.65,10.1-6.44,18.15,1.45,10.51,11.16,12.25,3.31,8.24,16.98-3.94,15.14,3.87,10.85-6.42,17.53-12.51,7.23l-1.27.02c-3.28,3.49-3.08,9.2-3.34,14.09-.45,8.43.06,17.03,1.35,25.33,1.51.3,1.05-.14,1.47-.84,1.62-2.7,2.78-7.63,4.76-11,10.83-18.39,33.23-19.38,15.46,4.6l42.08-3.28c-.09-.78.25-1.86-.13-2.51-.29-.5-8.45-3.35-10.6-4.84-26.93-18.66,1.75-37.34-.62-56.57-.61-4.96-3.67-10.62-3.81-15.95-.64-23.77,27.36-36.48,25.91-58.73-.96-14.65-5.99-21.16-2.54-38.24,12.22-60.58,112.75-79.33,129.88-22.01,2.99,9.99.18,13.06.67,20.97.36,5.79,3.66,13.85,3.94,21.09.43,10.94-2.94,19.77-1.16,30.73,3.26,20.07,20.38,27.23,16.82,50.71-.95,6.29-7.26,16.47-7.18,21.09.07,4.06,4.42,12.1,5.35,15.78,2.69,10.65,3.69,21.81,5.86,32.57h37.48v-6.57c-7.41,5.36-14.46-2.21-9.86-9.85-11.82-.58-12.85-12.49-1.33-14.79-5.04-10.05,6.62-14.94,12.83-6.87,6.78-8.27,18.12-4.49,14.42,6.56,10.42,1.69,12,14.37.38,14.44,4.34,9.89-4.37,16.81-12.48,9.2v7.89s41.41,1.96,41.41,1.96c-2.88-3.57-12.49-10.35-9.53-15.77,4.95-4.28,9.79-.47,14.45,1.98l8.22,8.53-1.97-23.66c-2.45.43-2.83,2.79-5.63,3.25-8.12,1.33-10.47-7.08-6.2-12.77-12.17-3.85-10.81-14.82,1.97-14.81-3.31-11.58,6.84-14.67,14.15-6.68,7.15-9.37,17.36-1.99,12.15,8.66,12.95-.03,10.85,15.41-1.97,13.15.57,2.3,2.24,1.8,2.57,5.01.71,6.92-6.84,9.68-12.43,6.82l1.32,19.05c5.31-7.56,12.68-20.11,23.65-16.74,7.23,7.23-17.26,23.9-16.42,25.28l53.91,3.95c-2.19-3.56-6.22-5.51-8.88-8.53-3.36-3.81-11.37-15.19-1.31-15.18,11.6.01,18.14,11.99,23.33,20.43l-1.97-35.49c-7.04,10.32-20.83,8.32-15.11-5.91-11.9,2.75-16.41-10.58-4.6-13.82-6.12-11.71,2.85-17.54,12.49-9.85,2.13-11.47,17.44-9.97,15.13,2.63,13.59-5.61,21,7.32,6.58,13.48,14.13,8.86-.28,19.08-11.18,11.5l3.29,27.6c4-6.24,7.54-14.62,15.96-15.65,6.02.94,1.42,12.1-.07,15.43-2.56,5.7-7.6,10.51-10.63,15.98l52.6,6.58c-.58-5.12-1.77-10.13-1.98-15.78-2.47.97-3.38,3.77-6.55,4.35-7.86,1.45-11.56-6.74-7.92-12.89-6.76,1.2-15.31-2.46-11.3-10.32,2.14-4.18,5.14-3.26,8.66-5.13-7.8-10.25,3.57-18.33,12.5-9.53,2.51-11.44,16.52-7.42,14.48,3.94,13.7-4.38,18.79,10.71,4.6,13.81-.71.83,9.04,7.86,2.42,13.59-4.79,4.13-12.78-1.04-13.6-.44,1.76,3.27,1.11,16.34,2.3,18.4,2.32,4.02,4.9-1.17,5.92-1.97,9.52-7.38,21.74-11.84,14.79,5.91l40.11,7.89V3.89ZM259.42,380.95c-27.72-56.61-128.47-21.53-121.86,45.24.63,6.39,3.89,13.65,3.98,19.73.33,22.88-28.34,35.28-25.67,60.46.43,4.08,2.75,7.98,3.2,11.92,1.94,16.8-10.87,24.05-10.47,38.08.19,6.95,5.92,14.94,12.37,17.86.82.37,5.04,1.9,5.41,1.49-2.85-33.33,7.43-70.57,40.31-84.91,8.22-3.59,16.16-2.38,19.33-13.54s-3.68-10.14-9.3-17.94c-2.04-1.57-4.51.59-6.67.64-11.17.24-24.57-16.29-16.99-26.83,5.06-7.04,11.38-2.16,16.33-2.69,5.76-.62,12-17.45,15.53-21.99,4.54-5.84,12.57-10.92,17.5-17.02,5.58-6.91,10.28-16.4,9.45-25.39,1.89-1.88,8.73,5.48,10.68,6.73,13.2,8.46,31.39,9.19,40.27,24.15.9-4.89-.15-10.42-2.11-14.95-.29-.67-1.17-.86-1.27-1.06ZM259.43,399.33c-10.18-17.05-29.42-15.18-43.64-27.35-2.08,8.1-6.37,16.26-11.81,22.71-4.29,5.09-11.76,10.27-15.79,15.1-4.57,5.48-9.07,21.89-16.95,23.82-4.62,1.13-7.15-2.77-12.61-.14-9.54,4.6.15,19.95,6.73,22.13,5.84,1.93,9.13-1.77,11.17-1.36,1.76.36,10.09,10.4,12.65,12.38,23.78,18.35,64.63,13.32,74.29-17.73,4.38-14.09,3.6-36.79-4.02-49.56ZM271.24,474.95c-3.18-5.94-4.99-12.31-6.48-18.84-5.75,10.02-13.86,16.85-24.43,21.59-3.7,1.66-8.73.63-8.18,5.7s7.59,5.15,11.03,6.77c14.56,6.83,26.8,17.85,32.75,32.99,5.83-11.26,7.97-24.49,2.88-36.4-1.78-4.17-5.78-8.44-7.58-11.8ZM228.87,481.15c-10.13.36-19.36-.79-28.85-4.35-3.46-1.3-6.24-4.28-9.88-4.26-.18,7.56-4.74,14.97-11.43,18.35l-.4,1.36c4.05,2.72,7.17,6.72,11.23,9.48,15.07,10.24,49.49,18.2,48.51-9.39l-4.51-2.05c-.39.5,1.11,2.87.65,3.28-3.37,3-6.24-10.22-5.32-12.42ZM255.23,615.83h12.82c6.09,0,15.61,7.69,19.07,12.47,3.16-10.99,2.05-23.1.97-34.48-2.28-24.04-10.04-69.84-26.92-87.46-1.73-1.8-18.25-14.58-19.74-12.79,1.37,11.79-7.22,19.56-18.27,20.85-18.33,2.14-37.5-8.69-49.12-22.19-36.65,10.19-47,51.31-44.37,85.13,1.45,18.67,11.01,34.67,24.62,47.03,12.3,11.16,28.1,20.03,43.45,26.27l1.12-.81c2.83-12.51,10.29-25.49,20.86-33.04l-29.88-18.75c-5.24-4.58-12.55-8.56-14.79-15.45s-4.22-42.98-1.97-48.57c1.27-3.15,2.91-1.21,3.28,1.25,2.19,14.62-4.55,40.7,6.21,52.29,4.62,4.98,37.48,26.64,43.78,29.19,5.14,2.08,13.31,1.51,18.74,4.3,2.17.04,6.58-2.78,6.83-4.91-4.84-27.7,9.78-52.83,6.57-80.17-.21-1.81-4.3-14.14-.98-13.49,3.46.68,5.34,13.55,5.58,16.78,1.14,15.13-1.86,20.74-4.93,33.82-1.11,4.72-1.2,9.74-2.28,14.47.67.71,13.96-6.32,13.14-1.65-.45,2.56-12.11,3.97-13.65,6.73l-.15,23.18ZM464.24,523.1c1.28-.79,3.25-12.32-2.08-11.69-4.01.48-4.77,7.64-3.8,10.66.29.46,5.43,1.3,5.87,1.03ZM67.76,527c1.57-2.58,2.62-10.65-1.03-11.63-7.31-1.98-8.01,14.66,1.03,11.63ZM445.73,516.05c-8.63,1.8,6.29,14.51,7.94,7.3.05-3.7-4.14-8.09-7.94-7.3ZM382.61,518.73c-6.3-5.31-7.94,7.74-2.03,10.22l3.95-2.14c-.61-2.04-.18-6.62-1.92-8.08ZM396.42,518.72c-5.82-2.83-6.98,4.8-7.7,8.98,5.42,3.74,10.7-4,7.7-8.98ZM479.9,522.02c-3.47-3.85-10.22.71-13.33,3.12-.72,1.36,1.33,4.56,2.66,4.65,2.92.61,14.22-3.83,10.67-7.77ZM57.85,531.55c.18-.09,2.04-2.93,2.02-3.35-.69-3.5-9.77-9.65-12.08-5.7-2.71,4.64,6.72,10.67,10.06,9.05ZM82.16,522c-3.55-3.49-15.61,5.55-8.37,9.38,3.41,1.8,11.87-5.93,8.37-9.38ZM462.81,526.61c-6.08-6.49-15.46,7.87-5.41,9.05,6.61.78,8.72-5.52,5.41-9.05ZM449.84,528.41c-4.2-.31-9.17,0-11.59,3.93-1.66,5.52,9.91,5.16,12.12,1.61l-.53-5.54ZM370.7,529.3c-12.13,1.37,8.6,16.16,7.18,1.74-.66-1.14-5.96-1.88-7.18-1.74ZM65.65,529.97c-7.22.27-7.93,9.76-.74,10.32,7.79.6,8.65-10.61.74-10.32ZM385.23,530.52c-1.68.36-4.42,2.89-4.28,4.69,7.12,11.28,14.34-6.88,4.28-4.69ZM404.31,531.86c-1.8-1.87-10.01-1.47-10.89.94-3.32,9.03,16.72,5.1,10.89-.94ZM467.14,533.86c-.56.39-1.8,2.9-2.78,3.52,1.47,5.41,15.35,8.69,12.96.71-.8-2.67-7.85-5.83-10.18-4.23ZM56.68,534.33c-3.58-.7-16.75.84-13.02,6.76,2.45,3.9,13.07.1,13.56-1.88.21-.85-1.05-3.51-.54-4.88ZM74.57,535.78c-.27.24-1,3.28-1.36,4.04,2.9,4.13,15.22,5.99,12.92-1.74-1.09-3.66-9.76-3.88-11.56-2.31ZM459.7,538.93l-7.24-1.69c-2.84,2.81-5.35,6.49-3.35,10.62,2.88,3.72,11.29-5.27,10.58-8.93ZM330.85,545.47c10.06,7.31,10.78-12.15,3.29-6.84-1.8,1.27-2.82,4.76-3.29,6.84ZM320.11,538.36c-3.35,1.15-.93,10.5,3.64,9.65,6.29-1.17,1.23-11.32-3.64-9.65ZM387.12,543.75c1.44,3.6,1.71,7.68,7,6.89l2.12-1.88c1.44-3.37-2.05-6.82-4.25-8.87l-5.93,2.33c-.62,1.5.95,1.26,1.05,1.53ZM378.01,540.37c-3.06.8-8.43,7.43-3.31,9.62,4.83,1.53,9.94-6.11,7.44-8.76-1.25-.85-2.62-1.25-4.13-.85ZM525.27,541.04c-4.23,1.27-5.18,13.16,2.38,10.96,2.14-.62,4.03-10.1.62-10.97-.99-.27-2.01-.29-3,0ZM57.58,543.12c-12.68,10.84,6.59,20.32,5.35.41-2.28-1.66-3.08-2.36-5.35-.41ZM75.55,546.35c-.15-.25-3.92-3.98-4.21-4.05-1.32-.33-3.01.88-3.82,1.89-3.09,14.36,15.36,14.02,8.02,2.15ZM510.15,543.65c-5.97,1.65-.06,12.71,5.46,11.35,7.09-3.13-.66-12.68-5.46-11.35ZM328.03,548.92c-3.46.74-5.26,5.49-2.05,7.68,7.83,5.36,11.72-9.75,2.05-7.68ZM336.86,550.86c-2.7,8.48,14.35,7.5,10.46.85-2.89-3.43-6.84-2.4-10.46-.85ZM311.97,550.96c-.39.29-1.5,2.17-1.43,2.66,2.15,3.63,7.43,5.36,10.75,2.44-.55-1.27.44-4.32-.28-4.96-1.51-1.34-7.31-1.43-9.04-.14ZM542.37,557.17c.86-1.02,1.09-3.36.71-4.62-4.5-4.86-15.48.46-12.37,7.42.9.91,10.51-1.43,11.66-2.8ZM526.59,555.53c-6.37-6.08-13.98,7.94-4.74,8.41,5.32.27,7.56-5.73,4.74-8.41ZM410.39,557.34c-10.68,1.71-17.63,14.04-20.37,23.66,4.84-3.88,10.76-8.47,14.79-13.14,1.27-1.47,6.99-8.99,5.58-10.52ZM514.2,558.06c-4.84-1.3-14.06-1.67-12.97,5.4,3.73,4.67,9.04,1.66,13.66.41l-.69-5.81ZM340.32,564.31c-.84-1.58-2.36-4.92-4.2-5.41-10.41.79-.1,16.3,5.25,6.64.29-1.34-.86-.89-1.05-1.24ZM327.43,560.74l-3.56-1.44c-3.85-.1-7.25,11.11-.08,9.07,3.06-.87,4.25-4.73,3.64-7.63ZM483.37,559.31c-11.73,4.33-13.04,19.9-17.08,30.23,1.18-.41,2.08-1.09,2.92-2.01,2.35-2.57,13.21-19.83,13.88-22.93.38-1.77.36-3.51.29-5.29ZM529.88,563.35c-9.2,5.21,7.31,16.43,9.86,6.92-.08-3.66-6.49-6.96-9.86-6.92ZM456.04,575.45c-4.26-6.48-8.66-12.09-17.38-11.54,3.43,11.11,15.17,17.39,22.68,25.62,1.32-.92.97-1.34.69-2.64-.6-2.75-4.3-8.87-5.99-11.44ZM384.09,583.63c-1.01-8.49-8.51-19.04-17.77-18.75-1.05.62.09,2.09.44,2.89,3.1,7.08,12.14,10.48,17.33,15.86ZM522.77,567.25c-6.06-5.31-14.77,7.45-9.62,10.92,5.95,4,10.09-6.3,9.62-10.92ZM59.96,600.72c-1.84-12.19-11.51-26.09-23.66-29.57,1.03,12.98,14.34,22.03,23.66,29.57ZM88.24,571.14c-13.35,1.91-21.34,18.28-21.69,30.89,5.43-6.5,11.94-12.1,16.58-19.24,1.02-1.58,6.58-10.2,5.11-11.65ZM326.89,580.34h-36.82c1.77,17.2,4.71,35.22-.05,52.15,25.24,13.06,55.04,36.02,44.94,68.65-7.25,23.41-28.85,22.48-47.8,27.14-12.71,3.13-22.77,10.83-37.18,13.44-31.07,5.63-88.93-9.15-118.98-20.42-12.09-4.53-12.54-7.29-7.27-18.7-8.42.22-35.16,11.17-31.92-5.96,1.44-7.62,20.16-29.22,26.69-33.78,1.41-.99,7.58-3.11,8.2-4.26-2.12-11.99-.94-24.42,1.96-36.19.86-3.5,5.7-14.57,5.61-16.75-.12-3.05-1.72-2.52-2.35-4.24-1.78-4.9-3.39-9.94-4.32-15.09l-45.02,3.82-18.35,19.79-16.57-14.35c-14.61,1.79-29.44,3.36-43.59,7.43v234.33h586.45v-227.75l-43.57-8.88c-2.71,3.21-5.45,7.21-8.42,10.15-1.71,1.69-6.09,3.93-7.85,6.15-2.06,2.6-5.36,12.8-5.99,13.16-.55.32-1.56.25-2.19.12-1.88-.4-14.4-14.5-15.75-17.13-5.58-10.88-3.39-20.45,8.8-10.77,4.23,3.36,5.75,9.12,8.56,13.45.59-6.28,2.93-11.28,2-17.96l-54.25-7.71-7.9,8.62c-5.88-5.4-3.21-8.75-12.6-10.46-18.32-3.33-38.59-2.02-57.11-4.76-3.55.26-5.84,6.03-8.54,6.04-3.32.01-4.43-6.18-9.36-7.14l-45.54-2.13.67,16.44c3.88-3.76,6.21-11.94,13.11-8.85,5.25,4.79-8.04,27.11-11.33,29.69-.81.64-1.7.87-2.73.81-2.5-.13-3.08-2.7-4.97-4.24-4.75-3.88-14.58-10.57-14.98-17.24-.6-10.08,14.33-1.03,16.94,3.11l-.65-19.72ZM549.11,588.23c-12.29,2.09-18.46,15.06-20.37,26.29,4.76-4.57,10.08-8.56,14.08-13.85,1.26-1.67,7.46-11.19,6.29-12.44ZM342.67,590.86c-7.55,1.42-9.22,13.88-9.85,20.37,2.61-1.58,11.4-18.62,9.85-20.37ZM328.41,611.08c-.52-7-7.14-15.29-14.66-14.96-.53.45,2.83,6.17,3.52,6.99,2.11,2.55,9.13,8.35,12.25,8.77l-1.11-.8ZM530.7,599.4c.47-.7-.31-1.8-.64-1.31-.47.7.31,1.8.64,1.31ZM521.49,624.38c-.27-8.92-5.02-20.27-14.45-22.34.04,9.72,7.72,16.54,14.45,22.34ZM261.37,656.82c-1.12.77-2.1,2.87-4.15,3.42-3.04.81-4.52-1-4.96-.95-.69.09-1.24,3.54-5.18,3.2-3.59-.31-11.46-8.07-16.65-9.7s-11.49-.64-16.34-4.11c-6.54,3.82-8.58,8.15-17.35,5.59-16.52-4.82-41.75-23.27-53.53-35.88-.9-.96-5.97-8.87-6.97-7.81-6.93,20.25-11.58,45.21.78,64.61,12.29,19.27,38.48,23.58,57.06,32.34,3.09,1.46,2.6,2.78-.77,2.79-9.8.04-41.93-16.28-50.17-22.85-1.77-1.41-5.43-6.93-7.18-6.61-.29.05-3.48,4.28-3.61,4.54-1.03,1.97-7.52,22.75-7.81,24.93-.13,1-.38,1.97-.02,2.97,1.25,2.28,3.36,3.32,5.64,4.24,22.7,9.13,76.35,22.13,100.38,22.56,23.76.42,32.32-7.83,52.14-14.3,16.48-5.38,31.01-.36,43.81-16.66,17.48-22.25-.78-48.73-19.7-62.36-1.97-1.42-16.69-10.93-17.73-10.97-.64-.02-1.6.97-2.66,1.07-.98.09-1.95-.75-2.79-.53-.55.14-5.93,7.08-7.71,8.41-2.34,1.75-6.67,2.91-7.52,3.65-1.18,1.03-.99,3.66-1.98,5.26-1.43,2.32-3.52,2.13-5.05,3.17ZM283.5,628.99c-3.04-1.67-4.1-4.14-7.29-6.2-7.16-4.61-18.93-6.13-25.57-.06,7.78,5.04,18.72,10.33,19.71,20.71,2.62,2.46,12.51-11.95,13.14-14.45ZM265.1,645.41c5.83-4.9-6.23-13.78-10.32-16.31-5.77-3.57-27.26-10.94-33.27-9.18-2.92.86-14.75,15.56-14.82,18.72,5.65,9.66,17.15,8.37,25.88,11.36,5.96,2.04,9.62,7.67,15.42,8.57.5-5.05-5.1-8.76-8.98-11.07-1.99-1.19-5.95-.76-6.14-4.04,6.11-.86,12.67,4.32,17.11,8.19,2.27,1.98,2.91,6.83,7.21,4.94.92-1.43-3.97-8.25-5.26-9.51-2.54-2.47-8.97-4.98-10.5-6.59-.77-.82-.8-1.17-.66-2.29,9.17,1.01,14.67,7.85,20.17,14.46,2.05.24,2.81-.21,2.89-2.29.18-5.07-10.23-12.89-14.17-15.48-2.04-1.34-6.09-1.35-5.6-4.58,2.29-2.14,21.05,10.3,21.04,15.11ZM205.59,643.45c-.92.02-3.83,7.76-1.98,7.86l5.57-4.31-3.59-3.55ZM127.68,662.5c-.48-.32-7.57,3.63-8.49,4.31-4.71,3.5-21.43,22.81-23.3,27.98-.69,1.91-2.06,5.7-.15,7.21,9.97,2.4,19.54-1.86,29.16-3.51,1.94-7.17,3.31-15.74,9.29-20.62-3.28-4.62-5.31-9.76-6.51-15.37Z"/>
  <rect x=".14" y="841.29" width="595" height=".66" fill="#fff"/>
  <path d="M590.54,3.89v601.43l-40.11-7.89c6.96-17.75-5.26-13.29-14.79-5.91-1.02.79-3.61,5.99-5.92,1.97-1.18-2.06-.53-15.13-2.3-18.4.82-.6,8.81,4.57,13.6.44,6.62-5.72-3.13-12.75-2.42-13.59,14.19-3.1,9.1-18.19-4.6-13.81,2.04-11.36-11.97-15.38-14.48-3.94-8.93-8.8-20.3-.72-12.5,9.53-3.51,1.86-6.52.95-8.66,5.13-4.02,7.86,4.53,11.52,11.3,10.32-3.64,6.15.06,14.34,7.92,12.89,3.17-.58,4.08-3.38,6.55-4.35.21,5.65,1.39,10.65,1.98,15.78l-52.6-6.58c3.03-5.47,8.07-10.28,10.63-15.98,1.5-3.33,6.1-14.5.07-15.43-8.42,1.02-11.95,9.41-15.96,15.65l-3.29-27.6c10.9,7.58,25.31-2.64,11.18-11.5,14.42-6.16,7-19.08-6.58-13.48,2.31-12.59-13-14.1-15.13-2.63-9.64-7.69-18.61-1.86-12.49,9.85-11.81,3.24-7.3,16.57,4.6,13.82-5.71,14.23,8.08,16.23,15.11,5.91l1.97,35.49c-5.19-8.44-11.73-20.42-23.33-20.43-10.06-.01-2.05,11.37,1.31,15.18,2.66,3.02,6.69,4.97,8.88,8.53l-53.91-3.95c-.84-1.38,23.65-18.05,16.42-25.28-10.96-3.36-18.34,9.19-23.65,16.74l-1.32-19.05c5.59,2.86,13.15.1,12.43-6.82-.33-3.21-2.01-2.71-2.57-5.01,12.82,2.26,14.92-13.18,1.97-13.15,5.21-10.65-5-18.02-12.15-8.66-7.31-7.99-17.46-4.9-14.15,6.68-12.78,0-14.14,10.96-1.97,14.81-4.27,5.69-1.92,14.1,6.2,12.77,2.8-.46,3.18-2.82,5.63-3.25l1.97,23.66-8.22-8.53c-4.66-2.45-9.5-6.26-14.45-1.98-2.96,5.42,6.65,12.2,9.53,15.77l-41.42-1.96v-7.89c8.12,7.61,16.84.69,12.49-9.2,11.62-.07,10.04-12.75-.38-14.44,3.7-11.05-7.64-14.82-14.42-6.56-6.2-8.08-17.87-3.18-12.83,6.87-11.52,2.3-10.49,14.21,1.33,14.79-4.6,7.64,2.45,15.21,9.86,9.85v6.57s-37.47,0-37.47,0c-2.17-10.76-3.17-21.92-5.86-32.57-.93-3.68-5.29-11.71-5.35-15.78-.07-4.61,6.23-14.8,7.18-21.09,3.56-23.48-13.57-30.64-16.82-50.71-1.78-10.96,1.59-19.79,1.16-30.73-.29-7.23-3.58-15.3-3.94-21.09-.5-7.91,2.31-10.98-.67-20.97-17.13-57.32-117.66-38.57-129.88,22.01-3.44,17.07,1.59,23.58,2.54,38.24,1.45,22.25-26.54,34.97-25.91,58.73.14,5.32,3.2,10.99,3.81,15.95,2.37,19.23-26.31,37.91.62,56.57,2.15,1.49,10.31,4.34,10.6,4.84.38.64.04,1.73.13,2.51l-42.08,3.28c17.77-23.98-4.63-22.99-15.46-4.6-1.98,3.37-3.14,8.31-4.76,11-.42.69.04,1.14-1.47.84-1.29-8.3-1.79-16.9-1.35-25.33.26-4.89.06-10.59,3.34-14.09l1.27-.02c6.08,10.3,16.38,3.62,12.51-7.23,12.18,1.84,16.19-11.83,3.94-15.14,7.64-9.71-.42-17.6-10.51-11.16-.15-11.2-13.63-11.82-14.48-.65-10.66-4.32-18.77,1.55-10.53,11.5-13.67,4.01-9.25,16.07,3.3,14.8-3.8,7.02.43,12.77,7.92,12.78,1.44.92-.03,2.22-.03,2.66v25.31c-4.89-7.92-14.9-21.31-25.47-18.23-2.81,9.97,6.26,16.92,11,24.15l-40.1,5.92V3.89h586.45ZM328.08,46.81c-8.78.63-29.39,4.06-35.72,10.3-3.6,3.55-2.75,7.9,1.31,10.55,12.33,8.05,51.56,4.22,65.23-1.21,4.76-1.89,11.17-5.05,9.81-11.33-2.26-10.46-32.56-8.89-40.63-8.31ZM201.6,73.28c-6.48-6.81-3.44,4.39-6.21,7.17-2.94,2.95-19.32,1.84-1.62,8.88l.33,10.52c2.01,1.27,6.23-5.75,8.52-6.31s8.72,5.24,9.77,1.23c1.1-2.82-3.65-6.34-3.08-8.91.7-3.18,7.65-3.58,6.48-7.7-2.98-.84-8.23,1.49-10.73.68-.35-.11-2.12-4.16-3.46-5.56ZM132.55,98.94c-19.44-35.77-73.41-21.92-73.25,18-29.1-8.71-43.37,35.31-11.73,42.3,40.83-.38,86.6,4.2,127.14,1.11,32.94-2.51,23.28-36.97-4.29-29.6-1-16.28-18.56-25.67-33.22-18.43-1.46-3.84-1.5-7.95-3.26-11.85-.51-1.13-1.27-1.27-1.41-1.52ZM279.89,231.97c3.79.44,8.28-.32,12.16,0-4.19,5.17-17.69,13.36-24.04,13.75-6.83.42-14.69-3.29-21.36,2.97-2.71,2.54-1.44,5.42-2.02,6.2-.45.61-6.11.53-6.3,5.11-.05,1.3.93,2.31.98,3.33.08,1.46-.73,2.64-.41,4.3.36,1.92,2.25,2.6,2.84,3.79s.14,2.66.69,3.91c1.36,3.06,5.32,1.57,7.8,2.06,6.33,1.26,12.45,3.84,19.04,1.84,9.79,15.73,25.38,8.65,37.56.05l15.45-16.43c4.34,17.38,10.38,36.34,17.82,52.7,2.71,5.96,13.06,25.39,17.41,29.41,2.53,2.34,15.14,3.32,19.01,3.33,10.62.02,21.36-3.07,31.49-5.96,4.59,5.86,7.02,17.22,15.91,17.73,5.17.29,8.07-.82,12.15-2.84,1.15-.57,2.88-.47,3.74-1.2,5.23-4.5-.22-24.27-2.37-30.24l10.75-10.33c5.93,9.51,11.16,25.74,24.69,14.81,2.77-5.55,8.39-8.23,7.17-15.01-.08-.45-1.14-.44-1.25-.96-2.18-10.32-4.53-20.68-14.55-26.27.88-4.62,3.68-11.69,1.28-16.23s-24.48-13.76-27.89-20.15c2.07-8.8,5.73-16.85,3.08-26.03-2.33-8.07-8.76-14.09-14.56-19.62,9.56-1.8,35.14-10.16,33.5-22.94-.43-3.35-3.25-4.99-4.57-7.61,13.48-3.28,28.13-20.71,9.22-28.6,1.68-2.41,4.27-2.89,6.25-4.92,15.92-16.31,7.27-34.81-15.97-27.79-15.63,4.72-27.96,16.09-40.58,25.8-2.17-1.54.13-3.69.26-5.64.94-14.07-3.87-18.79-16.76-23.24,1.91-13.38-8.29-20.2-20.3-21.75-1.43-.18-5.32.54-5.65.37-.58-.31-1.16-2.46-1.93-3.3-7.35-7.99-18.93-9.33-29.08-6.06-3.04.98-8.39,5.45-9.53,5.62-1.65.24-8.41-2.87-11.71-3.15-7.14-.61-13.66.81-19.73,4.57-2.07,1.28-6.19,5.72-7.56,6.25-8.05,3.11-15.26.59-21.23,11.05-2.61,4.56-1.52,11.36-2.56,13.48-.11.22-3.2,1.74-4.15,2.75-5.6,5.99-7.85,11.43-6.83,20,.83,6.96,6.53,8.33,7.06,10.71.44,1.95-1.58,7.77.11,10.71-12.04-3.42-40.01-12.06-36.75,10.13,1.23,8.36,11.26,14.98,18.34,18.15-11.9,15.1,7.12,22.88,19.73,23.65-5.37,10.77,4.82,16.66,14.14,17.74ZM432.34,86.46c-.93-1.14-1.64-4.4-3.81-3.67-1.65.55-1.28,5.38-3.03,6.86-2.22,1.88-6,.06-7.86,2.65,5.96,4.67,8.16,3.27,6.56,12.16,3.16,1.1,4.63-3.75,6.87-3.91,1.75-.12,6.22,3.04,6.93,2.59,1.55-2.66-1.58-5.53-1.03-7.91s4.99-3.43,4.32-5.56c-1.28-2.45-6.9-.13-7.22-.33-.14-.09-.71-1.63-1.73-2.88ZM249.31,119.59c-1.43-1.33-7.74-1.86-8.26-2.6-.83-1.2.13-7.94-2.67-8.49s-4.22,5.93-5.88,6.35c-3.4.86-16.88-6.2-3.61,6.46-.67,2.6-5.99,6.12-4.45,8.68,2.9,2.1,6.82-2.64,9.32-1.81,1.45.49,4.27,6.66,7.67,5.19l-.6-9.14c.83-.18,9.83-2.9,8.48-4.65ZM498.97,163.11c-9.92.94-2.84,22.17,1.32,23.38,5.54,1.61,21.62-11.3,15.98-18.64-2.94-3.83-8.52-.11-9.49-.35-.88-.21-2.51-4.9-7.81-4.4ZM201.58,198.2c-.96-1.01-2.9-5.36-4.52-5.01-2.28,1.6-2.22,8.11-4.07,9.26-1.41.87-9.68,1.43-10.08,1.93.29,3.91,5.24,6.29,8.59,7.62-.99,3.64-1.87,7.12-1.35,11.43,3.99,1.46,7.69-5.57,10.23-5.94,2.99-.43,8.8,5.17,10.51,2.68s-2.06-7.72-1.7-10.18c.24-1.67,7.56-7.62,2.32-8.91-4.81-1.19-5.18,2.15-9.93-2.88ZM492.58,220.8c-6.26-.62-9.03-.2-9.34-7.43l-1.54-1.16c-2.8-.5-4.63,5.7-4.97,5.9-1.11.65-6.9-2.99-9.78.06.8,1.2,5,5.59,5.18,6.37.61,2.66-10.77,13.63,5.49,6.23l7.38,5.79c2.32-.69.23-8.05.7-9.24.88-2.24,7.92-2.01,6.89-6.52ZM186.86,280.61c-.45-21.57-19.46-35.69-40.35-34.09-18.51,1.42-41.22,16.99-39.87,37.38-12.95-5.64-30.51-.44-30.24,15.78-26.43-6.21-36.97,29.6-6.27,32.22,47.87-2.28,98.45,2.96,146.01.01,11.63-.72,26.18-3.93,25.2-18.67-.65-9.81-11.68-16.88-20.95-14.89-.97-16.41-19.44-24.43-33.54-17.74ZM290.95,318.29c-8.25,7.68,13.52,22.24,18.53,18.19,2.85-2.3,5.55-14.84,4.76-18.58-1.45-6.88-11.98-5.74-13,.83-.47.32-6.16-4.28-10.29-.44ZM545.17,394.98c2.87-46.77-70.59-45.6-73.64-2.63-14.22-7.81-34.6-2.32-37.48,15.11-21.62-6.72-40.3,18.95-14.99,29.14,40.7-.41,86.72,4.32,127.13,1.14,20.21-1.59,35.75-20.42,20-37.14-5.44-5.78-13.56-6.8-21.02-5.61Z" fill="#fff"/>
  <path d="M326.89,580.34l.65,19.72c-2.6-4.14-17.54-13.19-16.94-3.11.4,6.67,10.23,13.36,14.98,17.24,1.89,1.54,2.47,4.1,4.97,4.24,1.02.06,1.92-.18,2.73-.81,3.29-2.58,16.58-24.9,11.33-29.69-6.89-3.09-9.22,5.1-13.11,8.85l-.67-16.44,45.54,2.13c4.93.95,6.04,7.15,9.36,7.14,2.69,0,4.99-5.78,8.54-6.04,18.52,2.74,38.79,1.43,57.11,4.76,9.39,1.71,6.72,5.06,12.6,10.46l7.9-8.62,54.25,7.71c.92,6.68-1.41,11.68-2,17.96-2.81-4.33-4.34-10.09-8.56-13.45-12.19-9.68-14.38-.11-8.8,10.77,1.35,2.63,13.87,16.73,15.75,17.13.63.13,1.64.21,2.19-.12.63-.36,3.93-10.56,5.99-13.16,1.75-2.22,6.14-4.45,7.85-6.15,2.97-2.94,5.71-6.93,8.42-10.15l43.57,8.88v227.75H4.08v-234.33c14.15-4.07,28.98-5.64,43.59-7.43l16.57,14.35,18.35-19.79,45.02-3.82c.93,5.15,2.54,10.19,4.32,15.09.62,1.71,2.23,1.18,2.35,4.24.09,2.18-4.75,13.25-5.61,16.75-2.9,11.77-4.08,24.21-1.96,36.19-.62,1.15-6.78,3.27-8.2,4.26-6.53,4.56-25.25,26.16-26.69,33.78-3.24,17.13,23.5,6.18,31.92,5.96-5.28,11.41-4.82,14.16,7.27,18.7,30.05,11.27,87.91,26.05,118.98,20.42,14.41-2.61,24.47-10.32,37.18-13.44,18.95-4.66,40.55-3.74,47.8-27.14,10.1-32.63-19.69-55.58-44.94-68.65,4.76-16.93,1.82-34.95.05-52.15h36.82ZM426.17,605.97c.46-12.2-11.5-10.67-12.5,0-.67.56-13.94-8.98-13.18,2.29.18,2.7,6.23,12.17,9.9,9.53.85-.84-10.46-10.3-4.38-11.72,5.28.38,7.44,9.88,9.96,9.1,2.32-.72-1.34-16.31,5.86-13.84,3.33,1.14-1.93,13.5-.92,14.51,5.97.73,4.85-8.68,12.15-9.21,3.27.54-7.91,12.76-.06,10.56.62-.17,6.2-10.11,4-11.86-3.14-4.34-7.21-.93-10.82.64ZM105.89,619c-.95-3.22,5.49-13.35,2.39-14.99-1.84-.65-2.65,2.43-3.27,3.95-1.03,2.53-4.62,13.46.88,11.05ZM97.72,609.65c-1.11-1.77-3-6.16-4.88-2.07,2.04,2.1,2.98,12.51,6.22,11.53,2.91-.88-.43-8.03-1.33-9.46ZM109.54,615.43c-.47.66-1.63,1.82-1.5,2.61l3.21,1.44,5.26-7.91c-2.11-3.09-5.6,1.96-6.97,3.86ZM476.13,627.01c-8.72-14.49-21.9-7.03-16.43,8.54-15.97-3.06-19.4,16.2-2.63,15.78-1.08,2.54-3.78,4.4-3.9,7.61-.16,4.52,4.54,8.48,8.82,8.2,3.33-.22,5.25-3.21,8.23-3.98l1.97,32.2c-3.27-4.57-8.1-10.71-13.92-12.04-3.26-.74-10.83-1.59-10.98,3.15-.25,7.92,16.56,18.89,21.98,23.97,1.42,1.33,3.71,5.82,5.24,6,2.72.32,3.07-3.81,4.25-5.46,5.53-7.78,24.96-25.46,25-33.74.05-9.4-14.69-.39-18.11,2.98-3.18,3.14-6.06,8.58-8.69,12.32-.41.59.06,1.2-1.48.84l-1.31-28.92c9.86,9.39,20.28-.27,13.8-11.83,16.28,2.83,18.11-16.28.66-15.13-.35-1.92,2.03-2.09,2.65-3.1,6.61-10.82-10.43-18.14-15.16-7.41ZM381.44,626.37c-3.94-2.15-7.35,12.72-7.26,15.41.02.77.47,4.1,1.11,4.33l2.47-.14,3.69-19.6ZM372.26,646.07c1.79-4.06-6.97-20.25-10.77-19.02-.59.19-1.13.9-1.06,1.57.81,3.21,3.68,4.13,5.5,7.02.9,1.43,4.25,12.71,6.33,10.43ZM75.55,631.14c-3.69-4.49-12.91-2.29-14.6,3.11-9.61-10.34-20.03-2.16-13.47,9.84-15.43.5-15.31,15.63,0,15.78-6.14,10.31,4.43,18.55,13.15,10.51l-1.97,25.63c-2.46-6.9-13.51-20.93-21.92-17.65l-1.14,2.86c2,13.98,16.38,22.77,24.86,33.13,2.01.45,14.78-12.46,16.62-14.71,2.96-3.63,10.67-14.56,7.83-19-4.36-4.51-11.95,2.34-15.03,5.87-.94,1.08-6.54,10.5-7.25,9.51l2.63-27.61c10.9,8.85,20.21-.78,11.83-11.83,16.09-1.02,14.6-17.59-1.31-15.13-.4-.36,3.1-6.29-.2-10.32ZM391.98,632.93c-4.48-1.02-11.82,12.26-9.19,13.8,2.37,1.38,2.81-2.67,3.34-3.41,1.2-1.68,7.39-8.66,5.86-10.39ZM363.34,643.83c-1.19-2.51-5.79-10.3-8.83-7.28l7.23,11.21c4.32.07,2.55-1.93,1.6-3.93ZM541.88,666.45c.23-5.89-.32-14.87-6.89-17.09-3.51.74,2.32,6.96,2.48,7.39,1.09,2.85.79,6.4,1.7,9.32l2.7.39ZM552.4,650.67c-5.88-1.62-9.23,15.19-6.23,15.77,2.41-.7,6.85-15.16,6.23-15.77ZM534.65,666.45c1.39-2.86-4.26-12.3-7.24-10.21-2.66,1.86,5.7,6.89,4.7,10.11l2.54.1ZM415.66,672.36c.98-7.03-2.74-11.93-10.16-10.47-5.05.99-4.28,7.22-6.04,7.81-10.82-6.99-20.85,3.8-9.45,11.54-14.25,4.96-9.62,18.48,4.6,14.8-4.65,11.19,5.76,18.13,14.46,9.86-1.2,3.05,1.21,5.12,1.37,6.82.58,5.98-.55,11.6-1.34,16.65-.33,2.11.18,4.59-.03,6.76-2.83-2.41-4.06-6.05-6.55-8.89-4.45-5.07-15.39-13.9-22.04-9.52-2.05,4.01,2.49,11,4.96,14.14s23.3,21.19,25.99,21.35c1.14.07,1.6-.36,2.49-.74,3.92-1.71,16.91-14.56,19.75-18.37,3.19-4.29,8.54-13.14,6.83-18.53l-1.17-1.45c-12.44-1.32-21.41,12.33-26.29,22.02v-34.83c13.82,7.73,21.5-7.32,7.89-14.46,14.71-3.57,9.53-20.97-5.26-14.47ZM547.15,703.25c2.86-12.51-10.2-16.62-15.47-5.25-9.03-8.08-19.02-1.49-12.8,9.51-.26,1.15-7.15.7-9.51,4.98-4.37,7.93,4.65,12.24,11.47,10.49-6.34,11.56,4.31,19.86,13.8,10.51l-.65,34.18c-1.55.38-1.07-.28-1.48-.84-4.29-5.93-6.91-12.75-14.09-16.78-13.8-7.74-10.65,6.18-5.46,13.82,1.62,2.39,18.86,20.93,20.3,21.23,1.32.27,3.27-.9,4.36-1.65,2.6-1.78,11.97-11.08,14.46-13.8,2.84-3.1,17.38-20.69,10.85-24-11.34-2.12-18.8,9.42-24.32,17.42v-32.86c10.55,11.61,23.65-.81,12.49-11.82,13.82-3.35,10.23-19.6-3.94-15.13ZM93.5,799.55c-1.22-8.03.91-18.92,0-27.28,4.03,2.13,7.05,5.55,12.08,3.2,1.07-.5,4.92-5.2,5.07-6.17.23-1.45-2.82-6.54-3.35-8.2,5.54.73,12.64-2.04,11.57-8.57-1.14-6.96-9.95-5.42-10.24-6.88,9.21-10.46-5.19-19.98-13.81-9.53-5.49-12.1-19.3-5.38-14.48,7.23-15.77-4.15-16.5,14.55-1.31,15.13-10.39,9.45-.08,21.21,11.17,12.48l.66,29.57c-3.98-6.8-13.83-21.75-22.19-22.89-3.82-.52-3.08,1.91-5.43,3.51,1.92,2,1.02,3.56,1.94,5.95,4.59,11.91,17.81,20.62,28.58,26.59,9.14-3.65,32.11-22.34,31.34-32.55-.54-7.21-13.15-.79-16.41,1.4-5.63,3.79-11.76,12.24-13.9,18.65-.67.23-1.26-1.34-1.31-1.64ZM343.8,740.92c-7.2-5.47-11.07,6.97-9.68,12.29-3.99-2.78-9.07-6.14-14.17-3.99-6.66,3.94,10.36,19.06,12.52,18.45,2.93-3.66-4.95-7.12-7.56-10.17-6.42-7.49-.24-6.72,5.07-3.1,3.19,2.18,3.76,5.81,7.1,6.7,2.57-.79-2.45-19.6,3.87-17.7,4.13,1.24,2.36,17.13,3.13,17.62,3.62,1.21,3.04-3.09,4.4-5.61,2.02-3.76,4.55-7.58,9.32-7.44.28,3.44-1.98,6.87-3.77,9.7-.98,1.55-3.61,1.97-2.75,4.35,1.23,3.4,9.46-5.84,13.06-2.18,1.96,2.41-11.56,7.51-9.16,9.81,9.67.01,21.25-14.84,3.94-13.15,5.79-13.05-3.18-15.58-11.51-6.58-.88-.07-1.73-7.41-3.81-8.99ZM482.05,746.64c-2.76-2.69-7.55,5.92-8.2,7.9-.94,2.86-3.83,14.03,1.63,12.48-.02-4.48.61-10.06,2.79-14,.54-.97,5.46-4.74,3.78-6.37ZM468.02,752.11c-.68-1.11-5.51-5.9-5.7-1.89,3.38,5.28,4.15,10.53,4.73,16.66,6.99,4.13,2.56-12.19.96-14.77ZM164.5,773.26v-11.17c0-1.02-1.25-4.74-2.31-5.58-3.58-.66-.21,15.55-.31,17.74l2.62-.98ZM458.85,757.36c-2.49-1.74-4.58-1.56-3.47,1.83.51,1.57,2.09,1.58,2.92,2.98,1.3,2.21,1.09,5.55,3.7,6.16,3.28-.73-1.59-9.88-3.14-10.96ZM488.63,756.5c-4.18-2.4-10.95,9.43-9.86,10.51,2.61,2.57,4.84-3.59,5.63-4.55,1.57-1.9,4.39-3.35,4.23-5.96ZM244.06,768.32c2.45-11.94-11.64-13.07-14.79-1.98-9.83-7.34-18,.65-10.19,10.52-13.13,3.96-7.27,15.36,4.6,13.16-3.74,13.17,12.28,13.96,15.13,2.62,9.21,8.18,20.94-.61,11.17-10.51,7.07-.04,11.35-10.25,3.94-13.47-3.5-1.52-6.23-.03-9.86-.35ZM170.92,774.08c-.75-2.79,7.3-11.01,3.72-12.31-2.35-.85-5.49,7.52-6.27,9.32-.28.65-2.03.62-1.12,2.39l3.66.6ZM156.4,768.54c-.57-.77-7.7-7.64-8.33-4.47,1.57,1.38,6.99,11.19,7.64,11.43,4.61,1.72,2.1-5.06.7-6.96ZM310.45,784.76c-6.05-1.89-11.1,14.85-8.21,15.76s2.43-4.07,3.02-5.37c.71-1.57,6.35-9.23,5.19-10.39ZM298.61,801.19c2.42-1.52-2.78-17.02-8.53-15.11-1.18,1.12,4.63,7.74,5.21,9.05.4.92.3,7.96,3.33,6.06Z" fill="#fff"/>
  <path d="M255.23,615.83l.15-23.18c1.54-2.77,13.21-4.18,13.65-6.73.82-4.67-12.48,2.36-13.14,1.65,1.08-4.73,1.17-9.75,2.28-14.47,3.08-13.08,6.08-18.69,4.93-33.82-.24-3.23-2.12-16.09-5.58-16.78-3.31-.65.77,11.67.98,13.49,3.21,27.34-11.41,52.47-6.57,80.17-.26,2.13-4.67,4.95-6.83,4.91-5.43-2.8-13.6-2.23-18.74-4.3-6.31-2.55-39.16-24.21-43.78-29.19-10.76-11.59-4.03-37.67-6.21-52.29-.37-2.46-2.01-4.4-3.28-1.25-2.25,5.58-.19,41.91,1.97,48.57s9.55,10.87,14.79,15.45l29.88,18.75c-10.58,7.55-18.03,20.52-20.86,33.04l-1.12.81c-15.34-6.24-31.15-15.11-43.45-26.27-13.62-12.36-23.17-28.35-24.62-47.03-2.63-33.82,7.71-74.94,44.37-85.13,11.63,13.5,30.8,24.32,49.12,22.19,11.05-1.29,19.64-9.06,18.27-20.85,1.49-1.79,18.02,10.99,19.74,12.79,16.88,17.62,24.64,63.42,26.92,87.46,1.08,11.38,2.19,23.49-.97,34.48-3.46-4.78-12.98-12.47-19.07-12.47h-12.82Z" fill="#fff"/>
  <path d="M261.37,656.82c1.53-1.05,3.63-.85,5.05-3.17.98-1.6.79-4.23,1.98-5.26.86-.74,5.18-1.9,7.52-3.65,1.78-1.34,7.16-8.27,7.71-8.41.84-.22,1.81.62,2.79.53,1.06-.1,2.02-1.09,2.66-1.07,1.04.04,15.76,9.55,17.73,10.97,18.91,13.63,37.17,40.11,19.7,62.36-12.81,16.31-27.33,11.28-43.81,16.66-19.82,6.47-28.38,14.73-52.14,14.3-24.03-.43-77.69-13.42-100.38-22.56-2.28-.92-4.4-1.97-5.64-4.24-.36-1-.11-1.97.02-2.97.29-2.18,6.78-22.96,7.81-24.93.13-.26,3.33-4.48,3.61-4.54,1.75-.32,5.41,5.2,7.18,6.61,8.25,6.57,40.37,22.89,50.17,22.85,3.37-.01,3.86-1.33.77-2.79-18.59-8.77-44.78-13.07-57.06-32.34-12.37-19.4-7.71-44.36-.78-64.61,1.01-1.06,6.08,6.85,6.97,7.81,11.78,12.61,37.01,31.05,53.53,35.88,8.77,2.56,10.81-1.77,17.35-5.59,4.85,3.47,10.97,2.43,16.34,4.11s13.06,9.39,16.65,9.7c3.94.34,4.48-3.11,5.18-3.2.44-.06,1.92,1.76,4.96.95,2.05-.55,3.03-2.65,4.15-3.42ZM284.82,712.45c3.74.3,4.53-6.19,4.63-8.84s-1-12.28-4.3-12.85c-2.49-.43.79,6.58.92,7.63.62,5.08-.76,9.17-1.25,14.07Z" fill="#fff"/>
  <path d="M259.42,380.95c.1.2.98.39,1.27,1.06,1.96,4.53,3.01,10.06,2.11,14.95-8.89-14.96-27.07-15.69-40.27-24.15-1.95-1.25-8.78-8.62-10.68-6.73.83,9-3.86,18.48-9.45,25.39-4.92,6.09-12.96,11.18-17.5,17.02-3.53,4.54-9.76,21.37-15.53,21.99-4.95.53-11.27-4.35-16.33,2.69-7.58,10.54,5.82,27.07,16.99,26.83,2.16-.05,4.63-2.21,6.67-.64,5.62,7.8,12.56,6.45,9.3,17.94s-11.1,9.95-19.33,13.54c-32.89,14.35-43.16,51.58-40.31,84.91-.36.4-4.59-1.12-5.41-1.49-6.45-2.93-12.18-10.91-12.37-17.86-.39-14.03,12.42-21.28,10.47-38.08-.45-3.94-2.77-7.83-3.2-11.92-2.67-25.18,26-37.59,25.67-60.46-.09-6.08-3.34-13.34-3.98-19.73-6.61-66.77,94.14-101.85,121.86-45.24ZM190.14,391.04c-1.5-1.59-6.18,5.87-7.21,6.91-2.96,3-7.34,7.19-10.53,9.85-1.77,1.48-9.43,5.88-9.72,6.38-.4.69-.08,1.7-.15,2.48,1.94,1.96,15.74-9.56,17.75-11.49,1.79-1.72,11.7-12.18,9.85-14.14ZM156.51,471.33c-3.74-1.31-2.75,3.39-3.81,6.18-3.59,9.41-11.09,12.24-14.61,20.23-.77,1.74-4.88,13.66-1.53,13.58,2.88-4.94,2.92-11.13,6.34-15.99,1.5-2.13,5.86-5.5,7.78-8,1.69-2.21,9.04-13.94,5.83-15.98Z" fill="#fff"/>
  <path d="M259.43,399.33c7.62,12.76,8.41,35.47,4.02,49.56-9.66,31.05-50.51,36.09-74.29,17.73-2.56-1.97-10.89-12.02-12.65-12.38-2.04-.41-5.33,3.29-11.17,1.36-6.57-2.18-16.27-17.53-6.73-22.13,5.47-2.63,7.99,1.27,12.61.14,7.89-1.93,12.38-18.34,16.95-23.82,4.03-4.83,11.5-10.01,15.79-15.1,5.44-6.45,9.73-14.61,11.81-22.71,14.22,12.18,33.46,10.3,43.64,27.35ZM255.13,398.36c-1.92-2.71-15.65-5.26-14.36,1.87,5.36-1.95,9.1-1.26,14.46,0-.06-.59.19-1.46-.1-1.87ZM196.57,415.86c.48-.28,2.41-4.04,3.76-5.1,3.1-2.43,7.23-1.95,10.18-4.27-3.5-5.99-20.23,7.1-16.36,9.47.43.26,1.91.2,2.42-.1ZM257.19,414.05c-2.04-1.32-3.51,3.32-5.05,3.81-1.65.53-9.29-.67-9.39,1.11,3,4.82,14.13,2.89,14.99-2.12.09-.54-.43-2.73-.55-2.81ZM237.37,419.41c-.74-.43-2.25,0-3.18-.11.79,8.04,14.58,13.25-.35,17.72-2.83,4.54,9.07,3.11,10.18-3.63.28-1.71.05-3.09-.47-4.71-.17-.53-5.7-8.99-6.18-9.26ZM200,427.19c.42,8.01,18.05,6.19,16.15-2.01-3.04-2.31-3.42,1.27-4.97,2.33-3.88,2.64-7.03-.96-11.17-.32ZM167.39,440.75c-2.88-3.57-7.55-4-8.13,1.19l1.62,1.03c2.82-3.65,4.7-1.27,5.56,2.34l2.67.29c.69-3.34-.4-3.22-1.71-4.85ZM246.68,444.94c-1.65-1.05-5.61,4.39-7.41,5.4-5.73,3.19-11,1.82-15.92-2.02-5.18,5.04,7.95,7.42,11.67,6.96,3.96-.48,13.87-5.29,11.67-10.34Z" fill="#fff"/>
  <path d="M228.87,481.15c-.92,2.2,1.95,15.42,5.32,12.42.47-.42-1.03-2.78-.65-3.28l4.51,2.05c.99,27.59-33.43,19.63-48.51,9.39-4.07-2.76-7.19-6.76-11.23-9.48l.4-1.36c6.69-3.38,11.25-10.78,11.43-18.35,3.64-.02,6.41,2.96,9.88,4.26,9.49,3.57,18.71,4.71,28.85,4.35Z" fill="#fff"/>
  <path d="M271.24,474.95c1.8,3.36,5.8,7.64,7.58,11.8,5.08,11.91,2.95,25.13-2.88,36.4-5.94-15.14-18.18-26.15-32.75-32.99-3.44-1.61-10.47-1.64-11.03-6.77s4.47-4.03,8.18-5.7c10.56-4.74,18.68-11.57,24.43-21.59,1.49,6.53,3.3,12.9,6.48,18.84ZM265.64,499.38c1.59-2.71-2.42-21.14-8.43-20.26-.44,4.17,3.68,7.31,4.56,10.89s.41,6.69,1.36,10.15c.26.16,2.37-.53,2.51-.77Z" fill="#fff"/>
  <path d="M265.1,645.41c0-4.82-18.75-17.25-21.04-15.11-.49,3.23,3.56,3.25,5.6,4.58,3.94,2.59,14.35,10.41,14.17,15.48-.07,2.07-.84,2.53-2.89,2.29-5.49-6.61-11-13.45-20.17-14.46-.14,1.11-.1,1.47.66,2.29,1.52,1.62,7.96,4.12,10.5,6.59,1.29,1.26,6.18,8.07,5.26,9.51-4.3,1.89-4.93-2.95-7.21-4.94-4.43-3.87-11-9.05-17.11-8.19.19,3.29,4.14,2.86,6.14,4.04,3.88,2.31,9.48,6.01,8.98,11.07-5.8-.9-9.46-6.52-15.42-8.57-8.73-2.99-20.23-1.69-25.88-11.36.07-3.15,11.9-17.86,14.82-18.72,6.02-1.76,27.51,5.61,33.27,9.18,4.09,2.54,16.15,11.41,10.32,16.31Z" fill="#fff"/>
  <path d="M127.68,662.5c1.2,5.61,3.23,10.75,6.51,15.37-5.98,4.88-7.36,13.46-9.29,20.62-9.62,1.66-19.19,5.91-29.16,3.51-1.91-1.51-.54-5.3.15-7.21,1.87-5.17,18.59-24.48,23.3-27.98.93-.69,8.01-4.64,8.49-4.31Z" fill="#fff"/>
  <path d="M283.5,628.99c-.63,2.5-10.51,16.91-13.14,14.45-1-10.37-11.93-15.67-19.71-20.71,6.64-6.07,18.41-4.55,25.57.06,3.19,2.05,4.24,4.53,7.29,6.2Z" fill="#fff"/>
  <path d="M59.96,600.72c-9.32-7.54-22.63-16.59-23.66-29.57,12.14,3.48,21.81,17.38,23.66,29.57Z" fill="#fff"/>
  <path d="M88.24,571.14c1.47,1.45-4.08,10.07-5.11,11.65-4.64,7.15-11.15,12.74-16.58,19.24.35-12.61,8.33-28.98,21.69-30.89Z" fill="#fff"/>
  <path d="M456.04,575.45c1.69,2.57,5.39,8.7,5.99,11.44.28,1.3.63,1.72-.69,2.64-7.51-8.23-19.25-14.51-22.68-25.62,8.72-.55,13.12,5.06,17.38,11.54Z" fill="#fff"/>
  <path d="M549.11,588.23c1.17,1.25-5.03,10.77-6.29,12.44-4,5.29-9.32,9.28-14.08,13.85,1.91-11.23,8.08-24.2,20.37-26.29Z" fill="#fff"/>
  <path d="M483.37,559.31c.07,1.79.1,3.53-.29,5.29-.67,3.11-11.53,20.36-13.88,22.93-.84.91-1.74,1.6-2.92,2.01,4.05-10.33,5.36-25.9,17.08-30.23Z" fill="#fff"/>
  <path d="M410.39,557.34c1.41,1.53-4.31,9.05-5.58,10.52-4.03,4.67-9.95,9.26-14.79,13.14,2.74-9.62,9.69-21.95,20.37-23.66Z" fill="#fff"/>
  <path d="M521.49,624.38c-6.74-5.81-14.41-12.63-14.45-22.34,9.44,2.07,14.18,13.43,14.45,22.34Z" fill="#fff"/>
  <path d="M384.09,583.63c-5.19-5.38-14.24-8.78-17.33-15.86-.35-.8-1.49-2.27-.44-2.89,9.26-.29,16.75,10.26,17.77,18.75Z" fill="#fff"/>
  <path d="M522.77,567.25c.47,4.62-3.66,14.92-9.62,10.92-5.16-3.47,3.55-16.23,9.62-10.92Z" fill="#fff"/>
  <path d="M514.2,558.06l.69,5.81c-4.61,1.25-9.92,4.26-13.66-.41-1.09-7.07,8.13-6.7,12.97-5.4Z" fill="#fff"/>
  <path d="M529.88,563.35c3.37-.04,9.79,3.26,9.86,6.92-2.56,9.51-19.07-1.71-9.86-6.92Z" fill="#fff"/>
  <path d="M56.68,534.33c-.51,1.37.75,4.03.54,4.88-.49,1.98-11.11,5.78-13.56,1.88-3.73-5.92,9.44-7.46,13.02-6.76Z" fill="#fff"/>
  <path d="M57.58,543.12c2.27-1.95,3.07-1.24,5.35.41,1.24,19.9-18.03,10.43-5.35-.41Z" fill="#fff"/>
  <path d="M462.81,526.61c3.31,3.53,1.19,9.83-5.41,9.05-10.04-1.18-.67-15.54,5.41-9.05Z" fill="#fff"/>
  <path d="M65.65,529.97c7.9-.29,7.05,10.92-.74,10.32-7.18-.55-6.47-10.05.74-10.32Z" fill="#fff"/>
  <path d="M75.55,546.35c7.34,11.86-11.12,12.21-8.02-2.15.8-1.01,2.5-2.23,3.82-1.89.28.07,4.05,3.8,4.21,4.05Z" fill="#fff"/>
  <path d="M542.37,557.17c-1.15,1.36-10.76,3.71-11.66,2.8-3.11-6.96,7.87-12.27,12.37-7.42.39,1.26.15,3.6-.71,4.62Z" fill="#fff"/>
  <path d="M328.41,611.08l1.11.8c-3.12-.42-10.15-6.22-12.25-8.77-.68-.83-4.04-6.54-3.52-6.99,7.51-.33,14.13,7.96,14.66,14.96Z" fill="#fff"/>
  <path d="M510.15,543.65c4.81-1.33,12.56,8.22,5.46,11.35-5.53,1.36-11.43-9.7-5.46-11.35Z" fill="#fff"/>
  <path d="M467.14,533.86c2.33-1.59,9.38,1.56,10.18,4.23,2.38,7.98-11.5,4.7-12.96-.71.98-.62,2.22-3.14,2.78-3.52Z" fill="#fff"/>
  <path d="M479.9,522.02c3.55,3.94-7.75,8.38-10.67,7.77-1.33-.09-3.38-3.3-2.66-4.65,3.1-2.41,9.86-6.97,13.33-3.12Z" fill="#fff"/>
  <path d="M74.57,535.78c1.8-1.58,10.47-1.35,11.56,2.31,2.3,7.72-10.02,5.87-12.92,1.74.36-.76,1.09-3.81,1.36-4.04Z" fill="#fff"/>
  <path d="M57.85,531.55c-3.34,1.62-12.77-4.41-10.06-9.05,2.31-3.95,11.39,2.2,12.08,5.7.02.42-1.84,3.27-2.02,3.35Z" fill="#fff"/>
  <path d="M459.7,538.93c.7,3.66-7.7,12.65-10.58,8.93-2-4.13.51-7.8,3.35-10.62l7.24,1.69Z" fill="#fff"/>
  <path d="M82.16,522c3.5,3.45-4.96,11.18-8.37,9.38-7.24-3.83,4.82-12.87,8.37-9.38Z" fill="#fff"/>
  <path d="M449.84,528.41l.53,5.54c-2.22,3.55-13.78,3.92-12.12-1.61,2.42-3.94,7.38-4.24,11.59-3.93Z" fill="#fff"/>
  <path d="M67.76,527c-9.04,3.03-8.34-13.61-1.03-11.63,3.65.99,2.6,9.05,1.03,11.63Z" fill="#fff"/>
  <path d="M526.59,555.53c2.81,2.68.58,8.68-4.74,8.41-9.24-.47-1.63-14.49,4.74-8.41Z" fill="#fff"/>
  <path d="M342.67,590.86c1.55,1.75-7.24,18.79-9.85,20.37.63-6.49,2.3-18.96,9.85-20.37Z" fill="#fff"/>
  <path d="M387.12,543.75c-.11-.27-1.67-.03-1.05-1.53l5.93-2.33c2.2,2.05,5.7,5.5,4.25,8.87l-2.12,1.88c-5.29.79-5.57-3.29-7-6.89Z" fill="#fff"/>
  <path d="M525.27,541.04c.99-.3,2-.27,3,0,3.42.87,1.52,10.34-.62,10.97-7.56,2.2-6.61-9.69-2.38-10.96Z" fill="#fff"/>
  <path d="M464.24,523.1c-.44.27-5.59-.57-5.87-1.03-.97-3.02-.21-10.18,3.8-10.66,5.33-.63,3.35,10.9,2.08,11.69Z" fill="#fff"/>
  <path d="M404.31,531.86c5.83,6.03-14.21,9.97-10.89.94.88-2.41,9.09-2.8,10.89-.94Z" fill="#fff"/>
  <path d="M378.01,540.37c1.51-.39,2.88,0,4.13.85,2.5,2.66-2.61,10.29-7.44,8.76-5.12-2.19.25-8.82,3.31-9.62Z" fill="#fff"/>
  <path d="M445.73,516.05c3.8-.79,7.98,3.59,7.94,7.3-1.65,7.21-16.56-5.5-7.94-7.3Z" fill="#fff"/>
  <path d="M370.7,529.3c1.21-.14,6.52.61,7.18,1.74,1.42,14.42-19.3-.37-7.18-1.74Z" fill="#fff"/>
  <path d="M336.86,550.86c3.62-1.56,7.57-2.59,10.46.85,3.88,6.65-13.16,7.63-10.46-.85Z" fill="#fff"/>
  <path d="M328.03,548.92c9.67-2.07,5.78,13.04-2.05,7.68-3.2-2.19-1.4-6.94,2.05-7.68Z" fill="#fff"/>
  <path d="M396.42,518.72c3,4.98-2.28,12.71-7.7,8.98.72-4.18,1.88-11.8,7.7-8.98Z" fill="#fff"/>
  <path d="M340.32,564.31c.19.35,1.33-.11,1.05,1.24-5.35,9.66-15.66-5.85-5.25-6.64,1.84.49,3.36,3.83,4.2,5.41Z" fill="#fff"/>
  <path d="M382.61,518.73c1.73,1.46,1.31,6.05,1.92,8.08l-3.95,2.14c-5.91-2.48-4.27-15.53,2.03-10.22Z" fill="#fff"/>
  <path d="M311.97,550.96c1.73-1.29,7.53-1.2,9.04.14.72.64-.27,3.69.28,4.96-3.31,2.92-8.6,1.19-10.75-2.44-.08-.49,1.03-2.37,1.43-2.66Z" fill="#fff"/>
  <path d="M320.11,538.36c4.86-1.67,9.93,8.48,3.64,9.65-4.56.85-6.98-8.5-3.64-9.65Z" fill="#fff"/>
  <path d="M385.23,530.52c10.06-2.18,2.85,15.97-4.28,4.69-.14-1.81,2.6-4.33,4.28-4.69Z" fill="#fff"/>
  <path d="M330.85,545.47c.47-2.08,1.49-5.57,3.29-6.84,7.49-5.31,6.77,14.16-3.29,6.84Z" fill="#fff"/>
  <path d="M327.43,560.74c.61,2.89-.58,6.75-3.64,7.63-7.17,2.05-3.78-9.17.08-9.07l3.56,1.44Z" fill="#fff"/>
  <path d="M205.59,643.45l3.59,3.55-5.57,4.31c-1.85-.09,1.06-7.83,1.98-7.86Z" fill="#fff"/>
  <path d="M530.7,599.4c-.33.49-1.11-.6-.64-1.31.33-.49,1.11.6.64,1.31Z" fill="#fff"/>
  <path d="M279.89,231.97c-9.32-1.09-19.51-6.97-14.14-17.74-12.6-.77-31.62-8.56-19.73-23.65-7.09-3.17-17.11-9.79-18.34-18.15-3.26-22.19,24.71-13.55,36.75-10.13-1.69-2.94.33-8.76-.11-10.71-.53-2.38-6.23-3.75-7.06-10.71-1.02-8.58,1.22-14.02,6.83-20,.95-1.01,4.04-2.53,4.15-2.75,1.04-2.12-.05-8.91,2.56-13.48,5.98-10.46,13.18-7.94,21.23-11.05,1.37-.53,5.49-4.97,7.56-6.25,6.06-3.75,12.59-5.18,19.73-4.57,3.3.28,10.06,3.39,11.71,3.15,1.14-.16,6.49-4.64,9.53-5.62,10.14-3.27,21.73-1.93,29.08,6.06.78.84,1.35,2.99,1.93,3.3.33.18,4.22-.55,5.65-.37,12.02,1.55,22.22,8.37,20.3,21.75,12.89,4.45,17.71,9.17,16.76,23.24-.13,1.95-2.43,4.1-.26,5.64,12.62-9.72,24.95-21.08,40.58-25.8,23.23-7.02,31.88,11.49,15.97,27.79-1.97,2.02-4.57,2.51-6.25,4.92,18.91,7.89,4.26,25.32-9.22,28.6,1.32,2.62,4.14,4.26,4.57,7.61,1.64,12.78-23.94,21.14-33.5,22.94,5.8,5.53,12.23,11.55,14.56,19.62,2.65,9.18-1.01,17.24-3.08,26.03,3.41,6.39,25.61,15.83,27.89,20.15,2.4,4.54-.4,11.61-1.28,16.23,10.01,5.58,12.37,15.95,14.55,26.27.11.52,1.16.51,1.25.96,1.21,6.78-4.4,9.46-7.17,15.01-13.52,10.93-18.75-5.29-24.69-14.81l-10.75,10.33c2.15,5.98,7.6,25.75,2.37,30.24-.85.73-2.59.63-3.74,1.2-4.08,2.02-6.97,3.14-12.15,2.84-8.9-.51-11.33-11.87-15.91-17.73-10.13,2.88-20.86,5.98-31.49,5.96-3.87,0-16.48-.99-19.01-3.33-4.35-4.02-14.7-23.45-17.41-29.41-7.44-16.37-13.47-35.32-17.82-52.7l-15.45,16.43c-12.19,8.6-27.77,15.68-37.56-.05-6.6,2-12.71-.59-19.04-1.84-2.48-.49-6.43,1-7.8-2.06-.55-1.25-.12-2.74-.69-3.91s-2.47-1.87-2.84-3.79c-.31-1.65.5-2.83.41-4.3-.06-1.02-1.04-2.03-.98-3.33.19-4.58,5.85-4.5,6.3-5.11.58-.79-.69-3.66,2.02-6.2,6.67-6.26,14.53-2.55,21.36-2.97,6.36-.39,19.85-8.58,24.04-13.75-3.88-.32-8.37.44-12.16,0ZM274.3,166.24v-22.68c0-.21-1.96-1.09-1.03-2.96,6.39-3.5,7.37-9.1,10.41-14.92,6.34,2.22,14.71.19,17.47-6.54.75-1.83.43-6.45,2.39-6.14.94.15,3.69,7.37,4.92,8.89,5.29,6.46,21.78,9.68,23.33-1.03,4.99-2.58,3.36,1.65,4.82,4.44,4.04,7.7,14.95,8.53,21.5,3.47,1.32-1.02,1.58-3.7,3.93-3.28,1.98,5.21,3.59,12.54,9.87,14.5,2.37.74,3.45-.38,5.31.58,1.47,2.06-2.55,7.05-2.4,8.25s1.14.89,1.33,1.49c.81,2.65.19,5.2,3.37,7.08,5.22-.53,5.77-5.28,12.24-5.36,10.93-.13,15.3,11.1,11.09,20.13-1.02,2.19-3.48,3.31-3.62,5.9,4.98.5,9.2-3.2,9.25-8.21.02-1.67-1.31-4.15-1.03-4.95.44-1.26,3.35-2.01,4.57-3.29,6.15-6.42,3.68-18.26-4.15-22.08,8.43-11.89-1.25-23.64-13.99-25.51,3.05-16.05-10.33-23.05-24.47-20.14-6.22-15.46-27.6-14.77-37.67-3.35-10.34-5.56-24.21-5.83-33.42,2.1-1.66,1.42-1.99,3.6-3.43,4.47s-6.89.49-9.42,1.1c-9.96,2.38-14.4,11.23-11.87,20.96-10.53,2.69-15.38,16.7-10.6,25.85,1.15,2.2,5.8,5.06,5.96,5.86.18.92-1.77,3.26-1.92,5.19-.35,4.56,2.96,8.93,7.27,10.18ZM448.62,151.86c.26-.48,7.56-3.89,8.77-4.7,7.82-5.17,19.51-13.7,17.28-24.48-.63-3.06-3.88-5.68-6.9-6.24-16.56-3.11-38.73,16.33-50.84,25.94,2.64,7.02,3.27,12.8-.73,19.48-.87,1.45-3.41,3.04-3.73,4.21-.46,1.72.69,3.18.43,4.92-1.6,10.84-12.78,8.81-18.27,15.96,5.44,2.97,11.21,5.33,16.63,8.34,2.59,1.44,8.61,6.68,10.68,7.07,7.45,1.41,34.76-8.98,33.82-18.63-.75-7.67-9.7-4.07-11.44-5.58-3.38-2.93,5.86-4.1,7.68-4.82,5.81-2.31,17.46-8.15,17.63-15.29.14-5.67-5.64-8.44-10.76-7.41-.77.15-13.35,7.07-10.25,1.24ZM363.26,138.43c-.98-1.01-3.38-6.29-3.81-6.35-8.3,5.97-19.93,3.74-25.73-4.53-10.47,6.83-22.49,3.91-30.16-5.33-4.07,5.72-10.14,8.62-17.31,7.99.22,4.38-7.23,8.73-7.86,10.87-.85,2.89-.56,25.86-.12,30.08,4.69,45.7,72.97,53.6,97.96,20.22,1.7-2.27,5.65-11.48,6.21-12,1.05-.97,7.63-.4,11.48-2.98,10.84-7.28,7.76-23.07-3.92-20.35-3.16.74-5.67,4.61-8.27,4.93-8.61,1.07-12.17-11.32-8.81-17.73-2.4.28-8.16-3.25-9.66-4.81ZM283.24,194.11c-6.13-8.25-6.78-14.02-9.31-23.88-8.3-3.87-49.19-18.85-42.57,2.47,1.75,5.65,8.71,11.26,13.88,13.73,2.32,1.11,14.95,4.27,15.28,5.23.18.54-.12,1.51-.02,2.19-1.32,1.33-14.23-4.22-14.54,4.92-.28,8.09,13.2,11.45,19.48,12.16,3.43.39,8.07-1.06,10.81,1.05,1.49,4.1-10.45.34-8.38,9.66,1.54,6.94,22.94,8.46,28.28,6.21,2.31-.98,12.41-16.15,11.69-16.9-10.06-2.45-18.45-8.58-24.59-16.84ZM396.58,179.39l-11.72,3.39c-3.65,7.21,10.91.91,11.72-3.39ZM433.17,218.4c-4.66-6.51-15.49-15.14-22.43-19.31-5.97-3.58-21.8-11.49-28.32-10.24-3.73,4.02-7.03,9.24-11.12,12.9-2.5,2.24-7.55,4.71-9.27,6.51-1.61,1.68-2.6,5.85-4.21,8.28-5.57,8.41-15.92,9.9-24.3,4.54-1.44-.92-5.56-5.77-6.39-6.07-4.08-1.45-11.54-.44-15.97-2.75-4.86,11.57-16.05,24.19-26.9,30.64-3.08,1.83-7.67,3.02-10.43,4.7-.52.32-1.09-.2-.82,1.12,10.23,9.1,15.18,22.21,15.12,35.83.54.6,7.8-2.52,8.99-3.16,2.31-1.24,8.18-5.3,10.1-7,2.14-1.89,12.19-14.01,12.75-16.18,1.51-5.86-4.89-16.97-4.92-23.33-.01-2.37,1.2-4.57,3.28-2.55,1.48,1.44,8.09,34.39,9.81,40.13,3.38,11.28,8.63,23.54,13.19,34.31,4.21,9.94,11.04,27.06,18.16,34.94,2.2,2.43,8.9,2.53,12.43,2.69,35.19,1.65,75.38-21.45,87.82-54.9,1.26-3.38,4.29-12.24,2.93-15.45-1.21-2.85-23.65-13.97-26.38-19.02-7.82,8.04-15.39,24.1-29.17,18.03-1.73-.76-5.07-4.27-6.22-4.28-5.02,2.07-8.06,8.46-14.36,6.45-1.37-.44-1.49-2.12-1.95-2.32-1.35-.59-3.37-.35-4.6-.99-1.32-.69-1.36-2.11-2.46-2.8-.86-.55-2.46-.12-3.66-.95-1.95-1.34-1.19-4.27-1.94-5.95-1.67-3.75-4.31-2.8-1.94-9.21,3.4-9.2,11.46-9.13,17.4-13.5,2.18-1.61,5.22-6.77,7.85-8.63.29-2.03-11.55-8.73-11.12-12.37,1.52-5.38,12.14,9.88,14.62,9.76,2.78.57,9.15-7.41,12.99-3.19.27,1.2-18.76,9.71-19.06,14.11,13.85,2.49,23.96,14.7,25.98,28.26,1.7,2.33,7.44-5.23,8.47-6.62,9.31-12.49,16.14-28.37,6.07-42.43ZM332.81,214.89c5.2,9.7,21.83,6.73,23.66-3.95-7.63,2.46-15.51,4.48-23.66,3.95ZM410.16,255.19c-6.41-11.03-19.38-15.65-30.32-8.08-2.5,1.73-10.37,9.17-6.26,11.5,2.59-2.27,5.38-7.36,7.93-9.17,1.07-.75,1.63-1.46,2.58-.03-1.58,5.64-8.49,8.87-7.9,15.76.87,2.77,8.03-8.17,8.85-8.9,1.58-1.42,8.05-5.48,5.95-.62-.68,1.58-10.74,7.8-10.19,12.8,1.11,1.66,1.6.7,2.87.27,4.6-1.56,6.74-8.58,12.24-8.46l-7.87,10.85c3.4,3.1,7.4-3.87,9.9-5.21,3.48-1.87,16.29-3.66,12.21-10.69ZM245.37,274.03c10.76.35,20.05,5.22,30.68.12,7.06-3.39,5.64-6.9,2.73-12.82-5.63-11.43-20.87-19.02-30.77-8.35,4.71,2.97,8.86-1.03,11.69,5.93,1.7,3.1,12.2,2.75,5.86,5.78-5.86.1-9.51-6.67-11.3-7.1-2.57-.6-11.58-.43-12.16,3.29,1.45-.15,10.4-.21,9.85,2.29-.74,1.63-12.45.13-9.59,4.3,1.87,2.72,9.79-1.18,12.22,1.63.81,3.52-9.38,1.35-9.2,4.91ZM415,270.75l-1.33-9.2-8.54,5.27c1.94,3.46,6.22,4.22,9.86,3.94ZM283.49,274.04l-9.14,5c-.58,2.34,7.31,7.72,9.85,5.9l-.71-10.89ZM467.19,295.48c-.87-.95-2.7-4.4-4.55-3.1-1.3.91-3.56,7.85-4.76,9.77-1.39,2.23-6.55,6.84-6.72,9.73-.19,3.21,9.03,18.06,12.18,18.67.69.13,2.12.33,1.62-.96l-1.96-6.26c2.89-1.87,4.59,5.84,6.89,4.59,3.04-1.65-4.62-13.93,4.94-5.25,2.91-7.76-2.21-21.27-7.62-27.2ZM438,352.91c2.27-3.27-1.6-23.66-3.92-24.69l-20.75,12.2c-1.21,2.4,5.87,17.3,10.87,16.43-1.19-15.7,2.44,2.07,7.26-.96l-1.33-6.92c4.49-1.29,3.94,4.2,7.88,3.94Z"/>
  <path d="M186.86,280.61c14.1-6.69,32.57,1.33,33.54,17.74,9.27-1.98,20.3,5.08,20.95,14.89.98,14.74-13.57,17.95-25.2,18.67-47.56,2.95-98.13-2.29-146.01-.01-30.7-2.62-20.16-38.44,6.27-32.22-.28-16.22,17.29-21.42,30.24-15.78-1.35-20.39,21.37-35.96,39.87-37.38,20.88-1.6,39.9,12.51,40.35,34.09ZM178.59,265.21c-19.17-29.67-70.87-12.68-68.1,22.52-2.8,1.94-4.1-.88-6.49-1.52-14.05-3.76-26.21,1.91-24.38,17.98-.66,1.23-7.84-1.97-10.12-1.94-10.98.11-19.14,13.24-11.2,21.77,5.39,5.79,16.25,3.8,23.01,3.88,41.8.52,83.8.46,125.64,0,8.67-.1,19.57,1.73,26.91-4.58,5.34-4.58,5.27-10.76,1.01-16.11-4.82-6.05-9.86-6.5-17.13-4.55-1.01-15.82-12.73-25.39-28.38-19.24-1.69.67-2.96,3.22-5.16,2.16-.62-8.53-1.02-13.29-5.6-20.38Z"/>
  <path d="M132.55,98.94c.14.25.9.39,1.41,1.52,1.75,3.9,1.8,8.01,3.26,11.85,14.66-7.24,32.21,2.15,33.22,18.43,27.57-7.37,37.23,27.09,4.29,29.6-40.54,3.09-86.31-1.49-127.14-1.11-31.64-6.99-17.37-51.01,11.73-42.3-.17-39.92,53.81-53.77,73.25-18ZM132.39,117.49c2.09-31.8-36.61-46.87-58.96-25.54-6.47,6.18-11.18,17.37-10.23,26.02.12,1.11,2.33,1.29,1.29,3.51-3.2,1.3-5.55-1.29-8.98-1.73-24.47-3.14-32.88,33.59-3.11,36.62l126.72-.15c9.33-1.99,18.01-11.59,8.7-19.55-4.36-3.73-10-4.77-15.45-2.98-1.95.64-2.69,3.3-5.25,2-1.79-.9-1.34-7.52-2.16-10.35-2.86-9.97-14.66-13.72-23.94-10.51-3.05,1.05-5.37,4.65-8.64,2.66Z"/>
  <path d="M545.17,394.98c7.46-1.19,15.58-.17,21.02,5.61,15.75,16.73.21,35.55-20,37.14-40.41,3.18-86.43-1.54-127.13-1.14-25.31-10.19-6.63-35.86,14.99-29.14,2.88-17.43,23.26-22.92,37.48-15.11,3.05-42.97,76.52-44.14,73.64,2.63ZM537.05,376.14c-12.95-18.76-47.23-15.61-58.26,3.56-3.78,6.57-2.08,9.65-3.33,15.58-1.02,4.82-7.8-.83-11.38-1.72-13.11-3.28-27.06,3.89-26.82,18.41-2.7,1.47-5.42-1.28-8.29-1.71-10.36-1.57-20.37,5.42-16.64,16.63,1.81,5.44,10.37,7.12,15.46,7.55,36.97,3.15,78.33-2.42,115.76,0,7.39-.55,18.19-3.23,22.14-10.08,7.58-13.16-3.05-28.34-18.06-25.94-1.57.25-5.41,3.16-6.78,1.19.57-8.21,1.1-16.37-3.81-23.48Z"/>
  <path d="M328.08,46.81c8.07-.58,38.36-2.15,40.63,8.31,1.36,6.28-5.05,9.44-9.81,11.33-13.67,5.43-52.9,9.26-65.23,1.21-4.06-2.65-4.91-7-1.31-10.55,6.33-6.24,26.94-9.67,35.72-10.3ZM294.17,63.57c5.17,8.53,49.7,4.02,59,1.09,2.4-.75,13-5.49,12.42-8.44-1.13-1.53-3.23-2.87-4.97-3.56-11.84-4.69-45.38-1.9-57.38,2.83-2.28.9-10.94,5-9.07,8.08Z"/>
  <path d="M201.6,73.28c1.34,1.41,3.11,5.45,3.46,5.56,2.5.81,7.75-1.52,10.73-.68,1.16,4.12-5.78,4.51-6.48,7.7-.57,2.56,4.18,6.08,3.08,8.91-1.05,4.01-7.44-1.8-9.77-1.23s-6.51,7.58-8.52,6.31l-.33-10.52c-17.7-7.04-1.32-5.93,1.62-8.88,2.77-2.78-.26-13.98,6.21-7.17Z"/>
  <path d="M201.58,198.2c4.75,5.03,5.12,1.69,9.93,2.88,5.24,1.3-2.08,7.24-2.32,8.91-.36,2.46,3.42,7.69,1.7,10.18s-7.53-3.12-10.51-2.68c-2.55.37-6.24,7.4-10.23,5.94-.51-4.31.36-7.79,1.35-11.43-3.34-1.33-8.3-3.72-8.59-7.62.4-.5,8.67-1.06,10.08-1.93,1.85-1.14,1.8-7.66,4.07-9.26,1.61-.35,3.56,4,4.52,5.01ZM208.55,205.03c-5.79.76-7.43-1.04-10.51-5.26-1.41,4.13-1.46,7.4-6.91,6.59l-.99,1.29,4.94,2.64-.34,6.56c5.57-4.51,6.42-3.55,12.48-.66-1.81-6.06-4.2-6.29,1.32-11.16Z"/>
  <path d="M249.31,119.59c1.35,1.76-7.65,4.47-8.48,4.65l.6,9.14c-3.41,1.47-6.22-4.71-7.67-5.19-2.5-.84-6.42,3.9-9.32,1.81-1.54-2.56,3.79-6.08,4.45-8.68-13.27-12.67.21-5.6,3.61-6.46,1.66-.42,3.01-6.91,5.88-6.35s1.84,7.29,2.67,8.49c.52.74,6.83,1.26,8.26,2.6Z"/>
  <path d="M492.58,220.8c1.04,4.52-6.01,4.29-6.89,6.52-.47,1.19,1.62,8.55-.7,9.24l-7.38-5.79c-16.26,7.4-4.88-3.57-5.49-6.23-.18-.78-4.38-5.18-5.18-6.37,2.88-3.05,8.67.59,9.78-.06.35-.2,2.17-6.4,4.97-5.9l1.54,1.16c.31,7.23,3.08,6.82,9.34,7.43Z"/>
  <path d="M432.34,86.46c1.02,1.25,1.59,2.79,1.73,2.88.31.2,5.94-2.11,7.22.33.66,2.13-3.76,3.11-4.32,5.56s2.59,5.25,1.03,7.91c-.71.45-5.18-2.71-6.93-2.59-2.23.16-3.7,5-6.87,3.91,1.59-8.89-.6-7.49-6.56-12.16,1.86-2.59,5.64-.77,7.86-2.65,1.75-1.48,1.38-6.31,3.03-6.86,2.18-.73,2.88,2.53,3.81,3.67Z"/>
  <path d="M498.97,163.11c5.3-.5,6.93,4.19,7.81,4.4.97.23,6.55-3.48,9.49.35,5.64,7.34-10.45,20.25-15.98,18.64-4.16-1.21-11.24-22.44-1.32-23.38ZM502.9,168.4c-.2-.28-2.98-2.18-3.34-2.13-4.56.65-.18,14.49,1.98,16.46,5.69-.98,9.12-6.3,12.74-10.28l-.14-1.49c-4.49-3.78-5.31,1.99-9.32,1.82-1.36-.53-1.01-3.06-1.92-4.37Z"/>
  <path d="M290.95,318.29c4.13-3.84,9.82.76,10.29.44,1.02-6.57,11.56-7.71,13-.83.79,3.75-1.91,16.28-4.76,18.58-5.01,4.05-26.78-10.51-18.53-18.19ZM294.24,326.41c1.29,1.77,10.19,8.13,12.49,7.37,2.56-2.69,7.67-17.1,1.44-17.43-3-.16-4.73,4.36-4.28,6.98-1.38,1.38-10.62-6.72-11.17-.4.32,1.22.79,2.45,1.53,3.47Z"/>
  <path d="M476.13,627.01c4.73-10.73,21.77-3.41,15.16,7.41-.62,1.01-3,1.18-2.65,3.1,17.45-1.15,15.62,17.96-.66,15.13,6.47,11.56-3.94,21.22-13.8,11.83l1.31,28.92c1.54.36,1.07-.25,1.48-.84,2.63-3.74,5.51-9.18,8.69-12.32,3.42-3.37,18.16-12.39,18.11-2.98-.04,8.28-19.47,25.95-25,33.74-1.18,1.66-1.53,5.79-4.25,5.46-1.53-.18-3.82-4.67-5.24-6-5.42-5.09-22.23-16.05-21.98-23.97.15-4.74,7.72-3.9,10.98-3.15,5.82,1.33,10.65,7.47,13.92,12.04l-1.97-32.2c-2.97.76-4.9,3.75-8.23,3.98-4.27.29-8.97-3.68-8.82-8.2.11-3.21,2.81-5.07,3.9-7.61-16.77.42-13.34-18.84,2.63-15.78-5.47-15.57,7.71-23.03,16.43-8.54ZM464.12,622.51c-5.06,3.84-1.85,10.9,1.18,15l1.91.69c10.07-1.53,4.56-17.94-3.09-15.69ZM476.17,636.17c2.14-.28,3.95,2.58,5.55,2.63,3.36.12,9.34-9.37,5.63-12.82-4.99-4.65-11.84,5.34-11.18,10.19ZM479.08,642.48c-6.36-10.06-17.14,2.79-9.05,6.74,4.91,2.4,9.99-1.24,10.04-5.95-.15-.54-.85-.57-.98-.79ZM463.57,647.31l.67-6.05c-17.74-9.83-21.62,12.41-.67,6.05ZM482.83,647.92c4.77,2.41,14.43,3.79,14.9-3.33-.97-6.29-14.69-3.26-15.05-2.03-.17.59-.1,4.91.15,5.36ZM470.08,652.78l-4.79-2.75c-18.92,11.51,2.13,21.92,4.79,2.75ZM474.27,653.4c-1.64,15.38,19.71,14.18,10.04.6-3.71-5.21-5.14-2.49-10.04-.6ZM499.8,676.97c-13.68,1.66-21.27,17.33-23.01,29.57.36.38,3.91-2.86,4.29-3.24,3.96-4.01,13.27-14.48,15.77-19.09.53-.97,3.45-6.79,2.95-7.24ZM467.19,695.77c-4.51-7.13-7.01-10.78-16.69-9.6-3.04,2.51,19.8,21.51,22.03,23,.08-5.09-2.78-9.36-5.33-13.39Z"/>
  <path d="M547.15,703.25c14.17-4.48,17.76,11.77,3.94,15.13,11.17,11.01-1.93,23.44-12.49,11.82v32.86c5.53-8,12.98-19.54,24.32-17.42,6.53,3.31-8,20.9-10.85,24-2.49,2.72-11.86,12.02-14.46,13.8-1.09.74-3.04,1.92-4.36,1.65-1.44-.3-18.68-18.84-20.3-21.23-5.19-7.64-8.34-21.57,5.46-13.82,7.18,4.03,9.8,10.84,14.09,16.78.4.56-.07,1.22,1.48.84l.65-34.18c-9.49,9.34-20.15,1.05-13.8-10.51-6.82,1.75-15.84-2.56-11.47-10.49,2.36-4.28,9.25-3.83,9.51-4.98-6.22-11,3.78-17.59,12.8-9.51,5.28-11.37,18.33-7.26,15.47,5.25ZM534.69,705.85l4.91,1.34c3.18-.13,6.01-9.77,2.95-12.15-6.74-1.71-8.64,5.38-7.86,10.81ZM531.22,707.06c1.57-4.25-7.16-13.01-10.42-8.13-3.14,4.7,5.96,14.63,10.42,8.13ZM555.53,706.7c-2.68-2.17-12.08.07-12.3,3.42l1.35,4.89c5.76.91,14.42-.69,10.95-8.31ZM530.92,710.69c-6.41,6.94,4.58,12.79,9,6.7,4.31-5.93-4.95-11.08-9-6.7ZM526.01,712.55c-4.57-2.04-10.29-1.66-14.05,1.88-3.21,7.59,12.55,5.85,14.07,3.87.2-.26.23-5.36-.01-5.75ZM539.4,721.8c-2.05,4.18,7.55,14.22,11.98,7.7,3.04-4.48-5.6-11.15-7.86-10.93-.26.03-4,3-4.12,3.23ZM533.94,723.03l-6.53-1.74c-14.44,13.61,6.13,19.69,6.53,1.74ZM560.95,748.61c-2.73-2.32-12.71,6.75-14.46,8.87-4.33,5.23-8.08,14.01-8.54,20.7,9.41-8.45,19.34-16.95,23-29.57ZM525.05,761.5c-3.47-4.56-6.73-9.07-12.75-10.26.56,11.54,12.32,20.24,19.71,28.26.64-7.49-2.8-12.54-6.96-18Z"/>
  <path d="M415.66,672.36c14.79-6.5,19.97,10.9,5.26,14.47,13.62,7.14,5.93,22.18-7.89,14.46v34.83c4.88-9.68,13.86-23.34,26.3-22.02l1.17,1.45c1.71,5.4-3.64,14.25-6.83,18.53-2.84,3.81-15.83,16.67-19.75,18.37-.89.39-1.35.81-2.49.74-2.7-.16-23.53-18.22-25.99-21.35s-7-10.13-4.96-14.14c6.65-4.38,17.58,4.45,22.04,9.52,2.49,2.84,3.72,6.48,6.55,8.89.21-2.17-.3-4.65.03-6.76.79-5.05,1.92-10.67,1.34-16.65-.16-1.7-2.58-3.77-1.37-6.82-8.7,8.27-19.11,1.34-14.46-9.86-14.22,3.68-18.86-9.84-4.6-14.8-11.4-7.74-1.36-18.53,9.45-11.54,1.76-.59.99-6.82,6.04-7.81,7.41-1.46,11.14,3.45,10.16,10.47ZM404.57,677.53c10.87,4.16,9.51-16.75,1.52-12.44-4.08,2.21-2.9,8.92-1.52,12.44ZM391.8,670.52c-6.85,1.05.84,13.78,7.41,10.72,5.31-2.48-3.51-11.31-7.41-10.72ZM419.42,674.49c-2.42.51-4.89,2.95-6.31,4.91l2.31,5.38c5.25.18,14.64-4.1,9.44-10.13-1.2-.66-4.05-.46-5.44-.17ZM410.2,681.75c-7.2-6.4-13.7,8.86-4.08,8.91,5.04.03,7.58-5.81,4.08-8.91ZM397.16,684.94c-1.45-1.96-15.07.43-12.1,6.49,2.13,3.31,12,2.04,12.74-1.11.06-.26-.48-5.16-.64-5.38ZM414.43,688.19c-9.1,8.48,9.91,17.56,10.42,8.11.22-4.05-6.97-7.56-10.42-8.11ZM407.11,693.39l-6.51-.61c-.93,3.86-6.38,7.17-2.65,11.41,5.94,6.76,11.23-5.48,9.16-10.81ZM438,717.06c-13.98,1.51-22.32,18.39-24.32,30.89,10.49-7.06,21.99-18.06,24.32-30.89ZM407.1,746.64c-.2-11.92-11.83-25.82-23.66-26.94,2.8,12.2,14.98,19.03,23.66,26.94Z"/>
  <path d="M93.5,799.55c.04.3.64,1.87,1.31,1.64,2.14-6.41,8.26-14.86,13.9-18.65,3.26-2.19,15.87-8.61,16.41-1.4.77,10.21-22.2,28.9-31.34,32.55-10.77-5.97-23.99-14.68-28.58-26.59-.92-2.39-.02-3.95-1.94-5.95,2.34-1.6,1.6-4.03,5.43-3.51,8.36,1.15,18.21,16.09,22.19,22.89l-.66-29.57c-11.25,8.73-21.57-3.03-11.17-12.48-15.19-.58-14.47-19.28,1.31-15.13-4.81-12.61,8.99-19.33,14.48-7.23,8.63-10.44,23.03-.93,13.81,9.53.29,1.46,9.09-.07,10.24,6.88,1.07,6.53-6.03,9.3-11.57,8.57.52,1.66,3.58,6.75,3.35,8.2-.16.97-4,5.67-5.07,6.17-5.03,2.35-8.05-1.08-12.08-3.2.91,8.35-1.22,19.25,0,27.28ZM92.06,745.2c.65-3.37.11-10.78-3.79-12.09-9.34-3.15-4.91,18.59,3.79,12.09ZM103.78,746.39c9.27-7.6-.82-17.46-6.32-7.15-3.29,6.16,2.62,10.18,6.32,7.15ZM85.6,748.64c-4.2-1.62-9.21-4.61-13.44-1.32-5.12,5.8,8.13,9.45,12.01,7.08l1.43-5.76ZM98.56,750.11c-4.11-5.21-12.67,1.18-9.6,5.99,3.51,5.49,13.72-.76,9.6-5.99ZM102.07,756.45c1.19,1.82,14.32,2.66,13.81-2.87-.42-4.54-10.11-4.74-12.83-2.32-.31.48-1.15,4.93-.98,5.19ZM85.38,757.95c-3.64,2.06-8.23,5.93-6.86,10.56,2.47,8.37,20.44-7.55,6.86-10.56ZM94.93,761.21c-1.18,5.59,3.05,13.64,9.46,11.1,6.02-3.43-2.47-18.13-9.46-11.1ZM86.54,800.92c-4.32-8.26-9.39-16.47-18.37-20.09-3.44.42,3.6,12,4.91,13.48,1.81,2.06,13.41,12.13,15.49,12.78.34.1,1.07.18.97-.31-.95-1.99-1.99-3.93-3-5.86ZM121.58,783.3c2.15-6.53-12.95,3.12-14.64,4.71-4.66,4.4-9.79,14.13-10.81,20.41.72.93,14.6-10.27,15.8-11.48,3.99-4.02,6.58-9,9.65-13.65Z"/>
  <path d="M75.55,631.14c3.3,4.03-.2,9.96.2,10.32,15.91-2.46,17.4,14.11,1.31,15.13,8.39,11.05-.93,20.68-11.83,11.83l-2.63,27.61c.71,1,6.31-8.43,7.25-9.51,3.08-3.53,10.66-10.38,15.03-5.87,2.84,4.44-4.87,15.37-7.83,19-1.84,2.25-14.6,15.17-16.62,14.71-8.48-10.36-22.85-19.15-24.86-33.13l1.14-2.86c8.42-3.28,19.47,10.75,21.92,17.65l1.97-25.63c-8.71,8.04-19.28-.2-13.15-10.51-15.31-.15-15.43-15.29,0-15.78-6.55-12,3.86-20.19,13.47-9.84,1.69-5.39,10.92-7.6,14.6-3.11ZM69.06,644.65c1.99-3.43,5.81-7.07,3.32-11.33-4.45-7.64-16.68,11.2-3.32,11.33ZM51.9,632.38c-4.81.68-3.16,8.38-.77,11.03,4.38,4.86,9.71,1.25,7.35-5.37-.78-2.19-4.04-6.02-6.57-5.66ZM83.47,645.57c-1.89-1.89-12.25-.63-12.83,2.21l.58,4.78c5.22,1.57,16.03.96,12.25-6.99ZM61.11,646.17c-4.72.81-5.65,9.02-.64,10.24,9.72,2.38,9.68-11.8.64-10.24ZM54.01,648.73c-19.52-5.82-19,13.14-.05,5.47l.05-5.47ZM75.54,660.07c-.3-.41-4.33-3.33-4.88-3.39-10.68,1.5-.32,16.32,5.43,11.1,1.76-1.6.7-5.99-.55-7.71ZM61.27,659.91c-6.79-5.43-13.69,1.35-11.23,8.9,6.5,4.66,9.93-3.63,11.23-8.9ZM51.7,691.14c-3.13-4.48-6.88-9.52-12.77-10.23,2.55,10.2,11.05,18.87,19.06,25.63-.76-6.09-2.88-10.53-6.29-15.4ZM82.32,682.88c-2.2-2.03-10.04,5.56-11.44,7.28-1.75,2.16-6.99,11.86-7.59,14.23-.26,1.05.06,2.35-.03,3.46,1.01.22,1.52-.14,2.33-.63.66-.39,9.56-10.1,10.44-11.25,1.22-1.59,7.52-11.96,6.29-13.09Z"/>
  <path d="M244.06,768.32c3.63.31,6.36-1.18,9.86.35,7.41,3.23,3.13,13.43-3.94,13.47,9.77,9.9-1.95,18.69-11.17,10.51-2.86,11.33-18.87,10.54-15.13-2.62-11.88,2.2-17.73-9.21-4.6-13.16-7.8-9.87.37-17.86,10.19-10.52,3.15-11.09,17.24-9.96,14.79,1.98ZM233.69,772.11c.42.46,3.88,1.37,4.49,1.14,3.04-3.09,5.07-7.73,1.27-11.17-5.64-2.65-8.17,7.38-5.76,10.03ZM227.46,776.05c.18-.08,1.84-2.55,2.74-2.86-1.16-3.6-3.68-6.49-7.7-6.68-7.7-.36-.22,11.88,4.95,9.53ZM242.86,779.38c2.91,1.66,13.87-.72,11.24-6.29-2.17-4.59-11.91-.79-12.58,2.28-.16.74,1.01,3.82,1.34,4.01ZM232.71,775.67c-5.04.97-5.33,10.17,1.75,9.08,6.4-.99,5.95-10.56-1.75-9.08ZM222.19,779c-2.39.35-6.22,2.1-6.42,4.84-.14,4.62,8.54,2.83,10.91.95l-.68-5.31c-.78-1.05-2.68-.64-3.82-.47ZM249.1,786.28c-.72-.8-5.82-3.41-6.71-3.28-7.8,4.81,3.85,13.37,7.48,7.87.83-1.45.31-3.4-.77-4.59ZM235.51,788.05c-7.34-2.12-10.53,1.41-7.63,8.61,5.11,2.58,7.53-4.54,7.63-8.61Z"/>
  <path d="M343.8,740.92c2.08,1.58,2.92,8.92,3.81,8.99,8.33-9,17.3-6.47,11.51,6.58,17.3-1.69,5.73,13.16-3.94,13.15-2.39-2.3,11.12-7.4,9.16-9.81-3.6-3.65-11.83,5.58-13.06,2.18-.87-2.39,1.77-2.8,2.75-4.35,1.79-2.83,4.04-6.26,3.77-9.7-4.77-.15-7.3,3.68-9.32,7.44-1.36,2.52-.78,6.83-4.4,5.61-.77-.49.99-16.37-3.13-17.62-6.32-1.9-1.29,16.91-3.87,17.7-3.33-.89-3.9-4.52-7.1-6.7-5.31-3.62-11.49-4.39-5.07,3.1,2.62,3.05,10.5,6.52,7.56,10.17-2.16.61-19.18-14.51-12.52-18.45,5.1-2.16,10.18,1.21,14.17,3.99-1.39-5.32,2.48-17.76,9.68-12.29Z"/>
  <path d="M426.17,605.97c3.61-1.57,7.68-4.98,10.82-.64,2.2,1.75-3.38,11.68-4,11.86-7.85,2.2,3.33-10.02.06-10.56-7.3.52-6.18,9.93-12.15,9.21-1.01-1.01,4.25-13.37.92-14.51-7.2-2.46-3.54,13.13-5.86,13.84-2.52.78-4.68-8.72-9.96-9.1-6.08,1.42,5.23,10.88,4.38,11.72-3.67,2.64-9.72-6.83-9.9-9.53-.76-11.26,12.52-1.72,13.18-2.29,1-10.67,12.96-12.21,12.5,0Z"/>
  <path d="M381.44,626.37l-3.69,19.6-2.47.14c-.64-.22-1.08-3.55-1.11-4.33-.08-2.69,3.33-17.56,7.26-15.41Z"/>
  <path d="M468.02,752.11c1.6,2.58,6.03,18.9-.96,14.77-.58-6.12-1.35-11.37-4.73-16.66.19-4.01,5.01.78,5.7,1.89Z"/>
  <path d="M482.05,746.64c1.68,1.64-3.24,5.4-3.78,6.37-2.18,3.94-2.81,9.52-2.79,14-5.45,1.56-2.57-9.62-1.63-12.48.65-1.98,5.44-10.59,8.2-7.9Z"/>
  <path d="M372.26,646.07c-2.09,2.28-5.43-9-6.33-10.43-1.82-2.89-4.69-3.8-5.5-7.02-.07-.67.48-1.38,1.06-1.57,3.81-1.23,12.56,14.96,10.77,19.02Z"/>
  <path d="M541.88,666.45l-2.7-.39c-.91-2.92-.61-6.47-1.7-9.32-.17-.43-5.99-6.65-2.48-7.39,6.56,2.22,7.11,11.21,6.89,17.09Z"/>
  <path d="M310.45,784.76c1.17,1.16-4.48,8.83-5.19,10.39-.59,1.31-.18,6.27-3.02,5.37s2.16-17.65,8.21-15.76Z"/>
  <path d="M552.4,650.67c.62.61-3.82,15.07-6.23,15.77-3-.58.35-17.39,6.23-15.77Z"/>
  <path d="M164.5,773.26l-2.62.98c.1-2.19-3.27-18.4.31-17.74,1.06.85,2.31,4.56,2.31,5.58v11.17Z"/>
  <path d="M298.61,801.19c-3.03,1.91-2.93-5.14-3.33-6.06-.57-1.31-6.38-7.93-5.21-9.05,5.75-1.91,10.95,13.59,8.53,15.11Z"/>
  <path d="M391.98,632.93c1.54,1.73-4.66,8.71-5.86,10.39-.53.74-.97,4.79-3.34,3.41-2.62-1.53,4.71-14.82,9.19-13.8Z"/>
  <path d="M105.89,619c-5.5,2.41-1.92-8.52-.88-11.05.62-1.52,1.44-4.6,3.27-3.95,3.09,1.64-3.35,11.77-2.39,14.99Z"/>
  <path d="M156.4,768.54c1.41,1.9,3.92,8.68-.7,6.96-.64-.24-6.07-10.05-7.64-11.43.64-3.17,7.77,3.7,8.33,4.47Z"/>
  <path d="M97.72,609.65c.9,1.44,4.24,8.59,1.33,9.46-3.23.97-4.17-9.43-6.22-11.53,1.88-4.09,3.77.29,4.88,2.07Z"/>
  <path d="M363.34,643.83c.95,2,2.72,4-1.6,3.93l-7.23-11.21c3.04-3.03,7.64,4.77,8.83,7.28Z"/>
  <path d="M170.92,774.08l-3.66-.6c-.91-1.77.83-1.73,1.12-2.39.78-1.79,3.91-10.16,6.27-9.32,3.58,1.29-4.47,9.52-3.72,12.31Z"/>
  <path d="M488.63,756.5c.16,2.61-2.66,4.05-4.23,5.96-.79.96-3.02,7.12-5.63,4.55-1.09-1.08,5.68-12.91,9.86-10.51Z"/>
  <path d="M458.85,757.36c1.56,1.09,6.42,10.23,3.14,10.96-2.61-.61-2.39-3.95-3.7-6.16-.83-1.4-2.4-1.41-2.92-2.98-1.11-3.39.98-3.57,3.47-1.83Z"/>
  <path d="M534.65,666.45l-2.54-.1c1-3.22-7.36-8.25-4.7-10.11,2.98-2.09,8.63,7.35,7.24,10.21Z"/>
  <path d="M109.54,615.43c1.37-1.9,4.86-6.95,6.97-3.86l-5.26,7.91-3.21-1.44c-.13-.79,1.03-1.96,1.5-2.61Z"/>
  <path d="M284.82,712.45c.49-4.9,1.87-8.99,1.25-14.07-.13-1.05-3.41-8.06-.92-7.63,3.3.57,4.4,10.29,4.3,12.85s-.89,9.15-4.63,8.84Z"/>
  <path d="M156.51,471.33c3.2,2.05-4.15,13.78-5.83,15.98-1.91,2.51-6.28,5.87-7.78,8-3.42,4.86-3.47,11.06-6.34,15.99-3.35.09.76-11.84,1.53-13.58,3.52-7.99,11.03-10.81,14.61-20.23,1.06-2.79.07-7.48,3.81-6.18Z"/>
  <path d="M190.14,391.04c1.85,1.95-8.06,12.42-9.85,14.14-2.01,1.94-15.82,13.45-17.75,11.49.07-.78-.26-1.79.15-2.48.29-.5,7.95-4.9,9.72-6.38,3.19-2.66,7.57-6.85,10.53-9.85,1.03-1.05,5.71-8.5,7.21-6.91Z"/>
  <path d="M246.68,444.94c2.19,5.06-7.71,9.86-11.67,10.34-3.72.45-16.84-1.93-11.67-6.96,4.93,3.84,10.2,5.21,15.92,2.02,1.8-1.01,5.77-6.44,7.41-5.4Z"/>
  <path d="M237.37,419.41c.48.28,6.01,8.73,6.18,9.26.52,1.62.75,3,.47,4.71-1.11,6.75-13.01,8.17-10.18,3.63,14.94-4.47,1.14-9.68.35-17.72.93.11,2.43-.32,3.18.11Z"/>
  <path d="M200,427.19c4.14-.65,7.29,2.95,11.17.32,1.55-1.05,1.94-4.63,4.97-2.33,1.91,8.2-15.73,10.03-16.15,2.01Z"/>
  <path d="M196.57,415.86c-.51.29-1.99.36-2.42.1-3.87-2.36,12.86-15.45,16.36-9.47-2.95,2.32-7.08,1.84-10.18,4.27-1.35,1.06-3.28,4.83-3.76,5.1Z"/>
  <path d="M257.19,414.05c.12.08.64,2.27.55,2.81-.85,5.01-11.99,6.94-14.99,2.12.1-1.78,7.74-.58,9.39-1.11,1.54-.5,3.01-5.13,5.05-3.81Z"/>
  <path d="M255.13,398.36c.29.42.04,1.28.1,1.87-5.36-1.26-9.1-1.95-14.46,0-1.3-7.13,12.44-4.59,14.36-1.87Z"/>
  <path d="M167.39,440.75c1.31,1.62,2.41,1.51,1.71,4.85l-2.67-.29c-.85-3.61-2.74-5.99-5.56-2.34l-1.62-1.03c.58-5.19,5.25-4.76,8.13-1.19Z"/>
  <path d="M265.64,499.38c-.15.25-2.25.93-2.51.77-.96-3.46-.49-6.57-1.36-10.15s-5-6.72-4.56-10.89c6.01-.88,10.03,17.54,8.43,20.26Z"/>
  <path d="M433.17,218.4c10.07,14.06,3.24,29.94-6.07,42.43-1.04,1.39-6.77,8.96-8.47,6.62-2.02-13.56-12.12-25.77-25.98-28.26.3-4.4,19.33-12.91,19.06-14.11-3.84-4.22-10.21,3.76-12.99,3.19-2.48.12-13.09-15.14-14.62-9.76-.43,3.65,11.41,10.34,11.12,12.37-2.63,1.86-5.66,7.02-7.85,8.63-5.93,4.37-13.99,4.29-17.4,13.5-2.37,6.41.27,5.46,1.94,9.21.75,1.68,0,4.6,1.94,5.95,1.2.82,2.8.4,3.66.95,1.09.69,1.14,2.11,2.46,2.8,1.23.64,3.25.4,4.6.99.46.2.57,1.88,1.95,2.32,6.3,2.01,9.34-4.38,14.36-6.45,1.15.01,4.49,3.52,6.22,4.28,13.78,6.07,21.35-10,29.17-18.03,2.73,5.05,25.17,16.17,26.38,19.02,1.36,3.21-1.67,12.07-2.93,15.45-12.44,33.45-52.63,56.55-87.82,54.9-3.53-.17-10.23-.26-12.43-2.69-7.12-7.89-13.95-25-18.16-34.94-4.56-10.77-9.82-23.03-13.19-34.31-1.72-5.74-8.33-38.68-9.81-40.13-2.07-2.02-3.29.18-3.28,2.55.03,6.36,6.43,17.47,4.92,23.33-.56,2.17-10.62,14.29-12.75,16.18-1.92,1.7-7.79,5.76-10.1,7-1.2.64-8.45,3.76-8.99,3.16.06-13.62-4.89-26.73-15.12-35.83-.27-1.32.31-.8.82-1.12,2.76-1.68,7.35-2.87,10.43-4.7,10.84-6.45,22.04-19.07,26.9-30.64,4.44,2.31,11.89,1.3,15.97,2.75.84.3,4.96,5.15,6.39,6.07,8.37,5.37,18.73,3.87,24.3-4.54,1.61-2.43,2.6-6.6,4.21-8.28,1.72-1.8,6.77-4.27,9.27-6.51,4.1-3.67,7.4-8.89,11.12-12.9,6.52-1.25,22.36,6.66,28.32,10.24,6.94,4.17,17.77,12.8,22.43,19.31Z" fill="#fff"/>
  <path d="M363.26,138.43c1.5,1.56,7.26,5.09,9.66,4.81-3.36,6.41.2,18.8,8.81,17.73,2.6-.32,5.11-4.19,8.27-4.93,11.67-2.72,14.76,13.07,3.92,20.35-3.85,2.59-10.43,2.01-11.48,2.98-.56.52-4.51,9.73-6.21,12-24.98,33.39-93.27,25.48-97.96-20.22-.43-4.22-.72-27.19.12-30.08.63-2.15,8.08-6.49,7.86-10.87,7.17.63,13.24-2.26,17.31-7.99,7.66,9.25,19.68,12.16,30.16,5.33,5.8,8.27,17.44,10.5,25.73,4.53.43.07,2.83,5.34,3.81,6.35ZM302.57,145.2c-.08-7.16-16.18.05-15.11,4.27,1.58,2,4.17-1.71,5.98-2.55,2.97-1.37,5.83-2.04,9.13-1.71ZM344.46,142.07c-7.33,2.23,4.08,3.25,4.82,3.44,2.01.51,9.37,5.08,9.83,2.65.73-3.88-11.08-7.17-14.65-6.09ZM391.15,160.46c-2.25.49-5.25,4.52-2.77,5.13,1.97.48,3.05-2.41,3.92-2.47,1.24-.09,2.87,3.35,4.24.77.67-3.32-2.97-3.95-5.39-3.43ZM341.05,171.14c.96,1.88,1.37,3.29,3.73,3.89,10.48,1.35,7.12-17.89-1.5-11.8-2.94,2.08-3.6,5.24-2.23,7.9ZM301.74,164.44c-2.01-2.19-6.47-1.35-8.31.87-4.87,19.51,16.97,8.55,8.31-.87ZM314.37,178.7c1.4-5.75,5.94-5.73,10.78-4.64,5.3-1.9-6.05-7.33-11.38-1.57-2.02,2.18-3.7,6.42.61,6.2ZM314.57,191.07c1.8,3.22,11.85,3.94,15.13,3.28,6.56-1.3,11.31-11.22,6.14-9.64-1.97.6-2.85,6.61-11.08,6.33-2.03-.07-13.19-5.33-10.2.03Z" fill="#fff"/>
  <path d="M274.3,166.24c-4.31-1.25-7.62-5.61-7.27-10.18.15-1.92,2.1-4.26,1.92-5.19-.16-.8-4.81-3.66-5.96-5.86-4.77-9.16.07-23.16,10.6-25.85-2.53-9.73,1.92-18.58,11.87-20.96,2.53-.61,8.05-.27,9.42-1.1,1.44-.87,1.77-3.04,3.43-4.47,9.21-7.92,23.09-7.65,33.42-2.1,10.07-11.42,31.45-12.11,37.67,3.35,14.14-2.91,27.52,4.09,24.47,20.14,12.75,1.87,22.43,13.61,13.99,25.51,7.83,3.82,10.3,15.66,4.15,22.08-1.22,1.28-4.13,2.03-4.57,3.29-.28.8,1.05,3.28,1.03,4.95-.05,5.01-4.27,8.71-9.25,8.21.14-2.59,2.6-3.71,3.62-5.9,4.22-9.04-.16-20.27-11.09-20.13-6.46.08-7.02,4.83-12.24,5.36-3.18-1.88-2.56-4.43-3.37-7.08-.18-.6-1.17-.3-1.33-1.49s3.87-6.19,2.4-8.25c-1.86-.97-2.94.16-5.31-.58-6.28-1.96-7.89-9.29-9.87-14.5-2.35-.43-2.62,2.26-3.93,3.28-6.55,5.06-17.46,4.23-21.5-3.47-1.47-2.8.17-7.02-4.82-4.44-1.55,10.71-18.04,7.49-23.33,1.03-1.24-1.51-3.99-8.74-4.92-8.89-1.96-.31-1.64,4.3-2.39,6.14-2.76,6.73-11.14,8.76-17.47,6.54-3.04,5.82-4.02,11.42-10.41,14.92-.94,1.86,1.03,2.74,1.03,2.96v22.68Z" fill="#fff"/>
  <path d="M448.62,151.86c-3.1,5.83,9.48-1.09,10.25-1.24,5.12-1.04,10.9,1.74,10.76,7.41-.17,7.14-11.82,12.99-17.63,15.29-1.82.72-11.07,1.89-7.68,4.82,1.74,1.51,10.7-2.09,11.44,5.58.94,9.65-26.36,20.04-33.82,18.63-2.07-.39-8.08-5.64-10.68-7.07-5.43-3-11.19-5.37-16.63-8.34,5.5-7.15,16.67-5.11,18.27-15.96.26-1.74-.89-3.2-.43-4.92.31-1.17,2.86-2.76,3.73-4.21,4-6.68,3.37-12.46.73-19.48,12.11-9.61,34.28-29.05,50.84-25.94,3.02.57,6.27,3.19,6.9,6.24,2.23,10.78-9.46,19.31-17.28,24.48-1.21.8-8.51,4.21-8.77,4.7Z" fill="#fff"/>
  <path d="M283.24,194.11c6.14,8.25,14.53,14.39,24.59,16.84.72.75-9.38,15.93-11.69,16.9-5.34,2.26-26.74.73-28.28-6.21-2.07-9.33,9.87-5.57,8.38-9.66-2.73-2.11-7.37-.66-10.81-1.05-6.28-.71-19.76-4.07-19.48-12.16.31-9.14,13.22-3.59,14.54-4.92-.11-.68.2-1.65.02-2.19-.33-.96-12.96-4.12-15.28-5.23-5.17-2.47-12.12-8.07-13.88-13.73-6.61-21.32,34.27-6.34,42.57-2.47,2.53,9.86,3.18,15.63,9.31,23.88Z" fill="#fff"/>
  <path d="M245.37,274.03c-.19-3.56,10-1.4,9.2-4.91-2.43-2.82-10.35,1.09-12.22-1.63-2.86-4.17,8.85-2.68,9.59-4.3.55-2.5-8.4-2.44-9.85-2.29.59-3.71,9.6-3.89,12.16-3.29,1.8.42,5.44,7.2,11.3,7.1,6.34-3.02-4.15-2.68-5.86-5.78-2.83-6.96-6.97-2.96-11.69-5.93,9.9-10.67,25.14-3.08,30.77,8.35,2.92,5.92,4.34,9.42-2.73,12.82-10.63,5.1-19.92.23-30.68-.12Z" fill="#fff"/>
  <path d="M410.16,255.19c4.08,7.03-8.73,8.82-12.21,10.69-2.5,1.35-6.5,8.31-9.9,5.21l7.87-10.85c-5.5-.11-7.64,6.9-12.24,8.46-1.27.43-1.76,1.39-2.87-.27-.55-5,9.5-11.21,10.19-12.8,2.1-4.86-4.37-.79-5.95.62-.81.73-7.98,11.68-8.85,8.9-.6-6.88,6.32-10.12,7.9-15.76-.95-1.43-1.52-.72-2.58.03-2.56,1.81-5.34,6.89-7.93,9.17-4.11-2.33,3.76-9.76,6.26-11.5,10.94-7.57,23.91-2.95,30.32,8.08Z" fill="#fff"/>
  <path d="M467.19,295.48c5.41,5.93,10.53,19.44,7.62,27.2-9.56-8.68-1.9,3.6-4.94,5.25-2.3,1.25-3.99-6.47-6.89-4.59l1.96,6.26c.5,1.29-.92,1.09-1.62.96-3.15-.61-12.37-15.46-12.18-18.67.17-2.89,5.33-7.5,6.72-9.73,1.2-1.92,3.46-8.86,4.76-9.77,1.85-1.3,3.68,2.15,4.55,3.1Z" fill="#fff"/>
  <path d="M438,352.91c-3.93.27-3.38-5.23-7.88-3.94l1.33,6.92c-4.82,3.04-8.45-14.73-7.26.96-5,.87-12.08-14.04-10.87-16.43l20.75-12.2c2.32,1.03,6.2,21.42,3.92,24.69Z" fill="#fff"/>
  <path d="M332.81,214.89c8.15.53,16.03-1.49,23.66-3.95-1.83,10.68-18.46,13.65-23.66,3.95Z" fill="#fff"/>
  <path d="M283.49,274.04l.71,10.89c-2.54,1.82-10.43-3.56-9.85-5.9l9.14-5Z" fill="#fff"/>
  <path d="M415,270.75c-3.64.28-7.92-.48-9.86-3.94l8.54-5.27,1.33,9.2Z" fill="#fff"/>
  <path d="M396.58,179.39c-.81,4.3-15.38,10.6-11.72,3.39l11.72-3.39Z" fill="#fff"/>
  <path d="M178.59,265.21c4.58,7.09,4.98,11.85,5.6,20.38,2.21,1.06,3.47-1.49,5.16-2.16,15.66-6.15,27.37,3.42,28.38,19.24,7.26-1.95,12.3-1.5,17.13,4.55,4.27,5.35,4.33,11.52-1.01,16.11-7.34,6.3-18.25,4.48-26.91,4.58-41.84.46-83.84.52-125.64,0-6.76-.08-17.62,1.91-23.01-3.88-7.94-8.53.22-21.66,11.2-21.77,2.29-.02,9.47,3.18,10.12,1.94-1.83-16.07,10.33-21.74,24.38-17.98,2.39.64,3.7,3.45,6.49,1.52-2.77-35.2,48.93-52.18,68.1-22.52Z" fill="#fff"/>
  <path d="M132.39,117.49c3.27,1.99,5.6-1.6,8.64-2.66,9.29-3.21,21.08.53,23.94,10.51.81,2.83.37,9.45,2.16,10.35,2.56,1.29,3.3-1.36,5.25-2,5.45-1.79,11.09-.75,15.45,2.98,9.32,7.96.63,17.56-8.7,19.55l-126.72.15c-29.77-3.03-21.36-39.76,3.11-36.62,3.42.44,5.77,3.03,8.98,1.73,1.03-2.22-1.17-2.4-1.29-3.51-.95-8.65,3.75-19.84,10.23-26.02,22.34-21.33,61.05-6.26,58.96,25.54Z" fill="#fff"/>
  <path d="M537.05,376.14c4.9,7.11,4.38,15.27,3.81,23.48,1.37,1.97,5.21-.94,6.78-1.19,15.01-2.4,25.64,12.78,18.06,25.94-3.94,6.85-14.75,9.53-22.14,10.08-37.43-2.42-78.79,3.14-115.76,0-5.09-.43-13.65-2.11-15.46-7.55-3.73-11.21,6.27-18.2,16.64-16.63,2.87.43,5.59,3.18,8.29,1.71-.24-14.52,13.71-21.69,26.82-18.41,3.58.9,10.36,6.54,11.38,1.72,1.25-5.93-.45-9.01,3.33-15.58,11.02-19.18,45.31-22.32,58.26-3.56Z" fill="#fff"/>
  <path d="M294.17,63.57c-1.87-3.08,6.79-7.18,9.07-8.08,12-4.73,45.54-7.52,57.38-2.83,1.74.69,3.84,2.03,4.97,3.56.58,2.95-10.02,7.68-12.42,8.44-9.31,2.92-53.83,7.43-59-1.09Z" fill="#fff"/>
  <path d="M208.55,205.03c-5.52,4.87-3.13,5.1-1.32,11.16-6.07-2.9-6.92-3.85-12.48.66l.34-6.56-4.94-2.64.99-1.29c5.45.81,5.5-2.46,6.91-6.59,3.08,4.23,4.72,6.02,10.51,5.26Z" fill="#fff"/>
  <path d="M502.9,168.4c.91,1.31.56,3.84,1.92,4.37,4.02.17,4.83-5.61,9.32-1.82l.14,1.49c-3.62,3.99-7.05,9.31-12.74,10.28-2.16-1.97-6.54-15.8-1.98-16.46.37-.05,3.15,1.85,3.34,2.13Z" fill="#fff"/>
  <path d="M294.24,326.41c-.74-1.02-1.21-2.25-1.53-3.47.55-6.32,9.79,1.78,11.17.4-.45-2.63,1.28-7.14,4.28-6.98,6.24.32,1.12,14.74-1.44,17.43-2.3.75-11.2-5.6-12.49-7.37Z" fill="#fff"/>
  <path d="M499.8,676.97c.51.44-2.42,6.26-2.95,7.24-2.51,4.61-11.81,15.08-15.77,19.09-.38.38-3.93,3.62-4.29,3.24,1.73-12.24,9.33-27.9,23.01-29.57Z" fill="#fff"/>
  <path d="M467.19,695.77c2.55,4.04,5.41,8.3,5.33,13.39-2.23-1.49-25.07-20.48-22.03-23,9.68-1.18,12.18,2.47,16.69,9.6Z" fill="#fff"/>
  <path d="M464.12,622.51c7.65-2.25,13.16,14.16,3.09,15.69l-1.91-.69c-3.03-4.11-6.24-11.16-1.18-15Z" fill="#fff"/>
  <path d="M474.27,653.4c4.9-1.89,6.34-4.61,10.04.6,9.66,13.58-11.68,14.78-10.04-.6Z" fill="#fff"/>
  <path d="M463.57,647.31c-20.95,6.36-17.07-15.88.67-6.05l-.67,6.05Z" fill="#fff"/>
  <path d="M476.17,636.17c-.66-4.85,6.19-14.83,11.18-10.19,3.71,3.45-2.27,12.94-5.63,12.82-1.6-.06-3.41-2.91-5.55-2.63Z" fill="#fff"/>
  <path d="M470.08,652.78c-2.66,19.17-23.72,8.76-4.79-2.75l4.79,2.75Z" fill="#fff"/>
  <path d="M482.83,647.92c-.25-.45-.32-4.77-.15-5.36.36-1.24,14.08-4.27,15.05,2.03-.47,7.12-10.13,5.74-14.9,3.33Z" fill="#fff"/>
  <path d="M479.08,642.48c.14.22.83.24.98.79-.04,4.71-5.12,8.36-10.04,5.95-8.08-3.96,2.7-16.8,9.05-6.74Z" fill="#fff"/>
  <path d="M560.95,748.61c-3.66,12.63-13.59,21.13-23,29.57.46-6.7,4.22-15.47,8.54-20.7,1.75-2.12,11.73-11.2,14.46-8.87Z" fill="#fff"/>
  <path d="M525.05,761.5c4.16,5.46,7.6,10.52,6.96,18-7.39-8.03-19.15-16.72-19.71-28.26,6.02,1.19,9.28,5.7,12.75,10.26Z" fill="#fff"/>
  <path d="M539.4,721.8c.12-.24,3.86-3.21,4.12-3.23,2.25-.22,10.9,6.45,7.86,10.93-4.42,6.52-14.03-3.52-11.98-7.7Z" fill="#fff"/>
  <path d="M533.94,723.03c-.4,17.95-20.97,11.87-6.53-1.74l6.53,1.74Z" fill="#fff"/>
  <path d="M526.01,712.55c.24.39.22,5.49.01,5.75-1.51,1.97-17.28,3.72-14.07-3.87,3.76-3.54,9.48-3.92,14.05-1.88Z" fill="#fff"/>
  <path d="M530.92,710.69c4.04-4.38,13.31.77,9,6.7-4.42,6.08-15.4.23-9-6.7Z" fill="#fff"/>
  <path d="M555.53,706.7c3.48,7.62-5.19,9.22-10.95,8.31l-1.35-4.89c.22-3.36,9.62-5.59,12.3-3.42Z" fill="#fff"/>
  <path d="M531.22,707.06c-4.46,6.5-13.56-3.42-10.42-8.13,3.26-4.89,11.99,3.88,10.42,8.13Z" fill="#fff"/>
  <path d="M534.69,705.85c-.79-5.43,1.12-12.52,7.86-10.81,3.06,2.38.24,12.01-2.95,12.15l-4.91-1.34Z" fill="#fff"/>
  <path d="M438,717.06c-2.32,12.82-13.83,23.83-24.32,30.89,2-12.49,10.34-29.37,24.32-30.89Z" fill="#fff"/>
  <path d="M407.1,746.64c-8.68-7.91-20.86-14.74-23.66-26.94,11.82,1.13,23.46,15.02,23.66,26.94Z" fill="#fff"/>
  <path d="M414.43,688.19c3.45.55,10.64,4.06,10.42,8.11-.51,9.45-19.51.37-10.42-8.11Z" fill="#fff"/>
  <path d="M407.11,693.39c2.07,5.33-3.22,17.56-9.16,10.81-3.73-4.24,1.72-7.56,2.65-11.41l6.51.61Z" fill="#fff"/>
  <path d="M419.42,674.49c1.39-.29,4.23-.49,5.44.17,5.21,6.03-4.19,10.3-9.44,10.13l-2.31-5.38c1.42-1.97,3.89-4.4,6.31-4.91Z" fill="#fff"/>
  <path d="M404.57,677.53c-1.38-3.52-2.56-10.23,1.52-12.44,7.99-4.32,9.35,16.59-1.52,12.44Z" fill="#fff"/>
  <path d="M397.16,684.94c.16.22.7,5.11.64,5.38-.74,3.15-10.6,4.43-12.74,1.11-2.97-6.07,10.64-8.45,12.1-6.49Z" fill="#fff"/>
  <path d="M391.8,670.52c3.91-.6,12.72,8.24,7.41,10.72-6.57,3.07-14.26-9.67-7.41-10.72Z" fill="#fff"/>
  <path d="M410.2,681.75c3.49,3.1.96,8.94-4.08,8.91-9.62-.05-3.12-15.31,4.08-8.91Z" fill="#fff"/>
  <path d="M121.58,783.3c-3.07,4.64-5.66,9.62-9.65,13.65-1.2,1.21-15.08,12.41-15.8,11.48,1.02-6.28,6.15-16.01,10.81-20.41,1.69-1.6,16.79-11.25,14.64-4.71Z" fill="#fff"/>
  <path d="M86.54,800.92c1.01,1.94,2.05,3.87,3,5.86.1.5-.63.42-.97.31-2.08-.64-13.68-10.72-15.49-12.78-1.31-1.48-8.35-13.07-4.91-13.48,8.98,3.61,14.05,11.83,18.37,20.09Z" fill="#fff"/>
  <path d="M94.93,761.21c6.99-7.03,15.48,7.67,9.46,11.1-6.41,2.53-10.64-5.51-9.46-11.1Z" fill="#fff"/>
  <path d="M85.38,757.95c13.58,3-4.39,18.92-6.86,10.56-1.37-4.63,3.23-8.5,6.86-10.56Z" fill="#fff"/>
  <path d="M85.6,748.64l-1.43,5.76c-3.88,2.37-17.13-1.27-12.01-7.08,4.23-3.29,9.24-.3,13.44,1.32Z" fill="#fff"/>
  <path d="M103.78,746.39c-3.7,3.03-9.61-1-6.32-7.15,5.5-10.31,15.59-.45,6.32,7.15Z" fill="#fff"/>
  <path d="M92.06,745.2c-8.7,6.5-13.13-15.24-3.79-12.09,3.9,1.31,4.44,8.72,3.79,12.09Z" fill="#fff"/>
  <path d="M102.07,756.45c-.17-.26.67-4.71.98-5.19,2.72-2.42,12.42-2.23,12.83,2.32.51,5.54-12.62,4.69-13.81,2.87Z" fill="#fff"/>
  <path d="M98.56,750.11c4.13,5.23-6.08,11.48-9.6,5.99-3.08-4.81,5.49-11.2,9.6-5.99Z" fill="#fff"/>
  <path d="M82.32,682.88c1.23,1.13-5.07,11.5-6.29,13.09-.89,1.15-9.78,10.86-10.44,11.25-.8.48-1.32.84-2.33.63.08-1.11-.24-2.41.03-3.46.59-2.37,5.84-12.06,7.59-14.23,1.4-1.73,9.24-9.32,11.44-7.28Z" fill="#fff"/>
  <path d="M51.7,691.14c3.4,4.87,5.53,9.31,6.29,15.4-8-6.76-16.51-15.43-19.06-25.63,5.89.71,9.64,5.75,12.77,10.23Z" fill="#fff"/>
  <path d="M54.01,648.73l-.05,5.47c-18.95,7.67-19.47-11.29.05-5.47Z" fill="#fff"/>
  <path d="M61.27,659.91c-1.3,5.27-4.73,13.56-11.23,8.9-2.46-7.55,4.44-14.33,11.23-8.9Z" fill="#fff"/>
  <path d="M51.9,632.38c2.53-.36,5.79,3.46,6.57,5.66,2.37,6.62-2.96,10.24-7.35,5.37-2.39-2.65-4.03-10.35.77-11.03Z" fill="#fff"/>
  <path d="M83.47,645.57c3.78,7.95-7.03,8.56-12.25,6.99l-.58-4.78c.58-2.85,10.94-4.1,12.83-2.21Z" fill="#fff"/>
  <path d="M75.54,660.07c1.25,1.72,2.31,6.11.55,7.71-5.75,5.22-16.11-9.6-5.43-11.1.55.07,4.58,2.98,4.88,3.39Z" fill="#fff"/>
  <path d="M69.06,644.65c-13.36-.12-1.13-18.97,3.32-11.33,2.48,4.26-1.33,7.9-3.32,11.33Z" fill="#fff"/>
  <path d="M61.11,646.17c9.04-1.56,9.08,12.62-.64,10.24-5.01-1.23-4.07-9.43.64-10.24Z" fill="#fff"/>
  <path d="M242.86,779.38c-.33-.19-1.5-3.27-1.34-4.01.67-3.08,10.41-6.87,12.58-2.28,2.63,5.58-8.33,7.95-11.24,6.29Z" fill="#fff"/>
  <path d="M233.69,772.11c-2.42-2.65.12-12.68,5.76-10.03,3.8,3.44,1.77,8.08-1.27,11.17-.6.24-4.07-.68-4.49-1.14Z" fill="#fff"/>
  <path d="M227.46,776.05c-5.17,2.35-12.65-9.89-4.95-9.53,4.02.19,6.54,3.08,7.7,6.68-.91.3-2.56,2.77-2.74,2.86Z" fill="#fff"/>
  <path d="M232.71,775.67c7.71-1.49,8.15,8.09,1.75,9.08-7.08,1.09-6.79-8.1-1.75-9.08Z" fill="#fff"/>
  <path d="M249.1,786.28c1.08,1.19,1.6,3.14.77,4.59-3.64,5.5-15.28-3.06-7.48-7.87.89-.13,5.99,2.48,6.71,3.28Z" fill="#fff"/>
  <path d="M222.19,779c1.14-.17,3.03-.57,3.82.47l.68,5.31c-2.37,1.89-11.05,3.68-10.91-.95.19-2.74,4.03-4.49,6.42-4.84Z" fill="#fff"/>
  <path d="M235.51,788.05c-.1,4.06-2.52,11.19-7.63,8.61-2.9-7.2.3-10.73,7.63-8.61Z" fill="#fff"/>
  <path d="M301.74,164.44c8.66,9.42-13.18,20.38-8.31.87,1.84-2.22,6.29-3.06,8.31-.87Z"/>
  <path d="M341.05,171.14c-1.37-2.66-.72-5.82,2.23-7.9,8.62-6.1,11.98,13.15,1.5,11.8-2.37-.6-2.77-2.01-3.73-3.89Z"/>
  <path d="M314.57,191.07c-3-5.36,8.17-.1,10.2-.03,8.23.28,9.11-5.73,11.08-6.33,5.17-1.58.42,8.34-6.14,9.64-3.29.65-13.34-.07-15.13-3.28Z"/>
  <path d="M314.37,178.7c-4.31.22-2.63-4.02-.61-6.2,5.34-5.76,16.68-.33,11.38,1.57-4.84-1.1-9.37-1.11-10.78,4.64Z"/>
  <path d="M344.46,142.07c3.57-1.08,15.38,2.21,14.65,6.09-.46,2.43-7.82-2.14-9.83-2.65-.74-.19-12.15-1.21-4.82-3.44Z"/>
  <path d="M302.57,145.2c-3.3-.33-6.17.34-9.13,1.71-1.81.84-4.4,4.55-5.98,2.55-1.07-4.22,15.03-11.42,15.11-4.27Z"/>
  <path d="M391.15,160.46c2.43-.52,6.07.11,5.39,3.43-1.37,2.58-3-.87-4.24-.77-.87.06-1.95,2.96-3.92,2.47-2.48-.61.52-4.64,2.77-5.13Z"/>
</svg>