<?xml version="1.0" encoding="UTF-8"?>
<svg id="Camada_1" xmlns="http://www.w3.org/2000/svg" version="1.1" viewBox="0 0 595.28 841.89">
  <!-- Generator: Adobe Illustrator 29.0.0, SVG Export Plug-In . SVG Version: 2.1.0 Build 186)  -->
  <path d="M.14,841.29V-.06h595v841.34H.14ZM27.09,3.89H4.08v310.9c20.32-6.07,57.86.6,62.82,24.95,4.95,24.33-8.95,32.09-30.91,33.58-10.13.69-22.11.39-31.91-2v32.21c1.77-.77,3.62-1.21,5.57-1.34,5.57-.35,17.91,1.68,21.48.98,1.2-.24,16.89-11.67,19.95-13.47,10.75-6.33,22.13-11.24,33.91-15.4,3.4-1.2,13.26-2.95,15.35-4.37,1.4-.95,5.98-10.73,8.29-13.4,5.04-5.82,12.11-8.06,16.77-12.16,2.03-1.79,3.55-5.59,5.55-7.59,19.47-19.47,40.22-26.32,67.99-23.88,8.51.75,13.96,5.34,20.75,6.87,3.73.84,8.11-.05,12.04.45,11.74,1.51,22.62,11.46,20.34,24.04,12.9,4.9,17.39,15.48,13.32,28.38l12.55,7.19,2.91-3.57c-24.15-24.43,15.85-47.06,34.22-25.64,8.17,9.53,5.38,17.92-3.92,24.98.91.89,1.76,1.75,2.3,2.93,4.71,10.22,1.5,32.79,1.59,45.08.1,14.53-.88,36.28.75,49.87.42,3.55,4.98,12.02,6.19,16.82,1.83,7.22,2.63,15.14,3.77,22.52,15.39,11.33,28.54,25.13,41.26,39.26v-10.19c0-.16.68-.53.67-.97-2.77-.78-10.79-2.64-11.71-5.74-.84-2.82-1.26-15.04.67-17.13l58.36-8.04c-.92-5.31-1.3-9.95,1.17-14.92,3.09-6.22,19.33-14.33,17.23-21.41-.23-.77-2.38-.9-2.62-3.51-.68-7.21,10.69-8.1,15.77-7.49-.56-3.29-5.23-2.93-8.11-4.7-1.53-.94-6.18-6.25-6.6-7.84-1.93-7.41.58-14.23,4.56-20.27,4.29-6.51,11.01-10.11,10.89-19.02,2.08-1.31,11.01,6.57,12.68,8.51,3.21,3.74,7.67,14.91,8.33,19.29s-1.82,12.18-4.75,15.71c-4.27,5.15-13.86,5.73-14.36,6.36-.15.19.09,1.42,0,1.96h9.53c1.95,0,6.28,4.61,6.61,6.56.75,4.34-7.73,13.84,4.16,16.39,13.22-21.33,42.84-4.35,28.48,18.26-1.35,2.12-3.62,3.43-4.73,5.13-.44.66-1.05.49,0,1.33l52.61,11.49,2.02-367.15c.16-1.9-1.15-3.34-2.26-4.64-5.94-6.96-15.29-12.34-22.14-18.29-27.17-23.64-53.07-48.83-81.32-71.2-51.6-.72-103.49-1.26-154.98-1.49-85.05-.39-170.44,1.34-255.27-1.13-3.34-1.81-4.74-4.08-5.27-7.88-1.17-8.41-1.13-22.7-.86-31.41.14-4.74,1.27-9.96,1.35-14.76ZM590.54,3.89H29.72v20.05c1.26,1.53,3.73,1.04,5.58.97,20.7-.82,41.54-6.62,63.09-6.59,127.6.2,255.22,1.15,382.64.66,35.25-.14,71.42-.9,106.58,0,1.11.03,1.94.24,2.92.7V3.89ZM590.54,22.29c-10.59.72-21.38-.69-31.88-.71-89.84-.16-179.78.28-269.54.68-60.97.27-121.94-.13-182.78-1.31-25.92-.5-50.37,4.55-75.96,5.94v14.13l88.1,2.96-.97,1.31c-15.92.64-32.29,0-47.97-.64-2.11-.09-4.48-1.23-6.63-1.32-10.89-.44-21.66-.45-32.53-.02,0,4.47-.05,10.72,5.08,12.34l555.07,2.13v-22.35c-23.45,1.58-46.91-.04-70.34-.66.15-.57,4.05-1.31,4.27-1.31h66.07v-11.17ZM467.92,60.42h-20.71c6.49,6.24,14.05,11.41,20.82,17.32,15.97,13.96,31.66,28.25,47.59,42.13,3.13,2.72,37.61,35.07,39.41,33.22.2-2.98,1.61-7.28.05-10.05-.98-1.73-7.12-5.28-8.61-6.68-7.05-6.62-15.91-15.25-22.32-22.38-3.01-3.35-6.58-7.43-8.55-11.49l40.1,38.78v-35.82l-41.75-45.02h-43.06c5.48,7.47,11.5,15.13,18.4,21.37,2.72,2.46,15.62,14.08,11.23,1.92-1.12-3.09-10.39-12.28-10.57-13.1-.25-1.2.52-1.35,1.33-.66,3.04,3.11,17.4,15.98,12.17,20.73-3.41,3.1-11.39-3.3-14.17-5.59-8.36-6.9-14.38-16.5-21.35-24.67ZM546.81,60.42h-29.26l29.91,30.24-.65-30.24ZM566.87,60.42h-15.78l-.62,32.49c.51,2.99,4.93,6.03,6.43,8.69,3.33,5.92,2.18,18.99,2.11,26.22-.05,5.34.09,20.72-.83,24.8-1.28,5.63-6.98,1.7-7.09,2.12,1.21,128.88-3.86,258.79.52,387.01-4.98,11.63-1.78,27.8-2.44,40.93-.06,1.17-1.33.71-1.42,1.89-.21,2.84-.25,7.8,0,10.6.13,1.49,1.38.63,1.38,1.27s-1.26-.22-1.38,1.27c-.7,8.14.68,17.34.02,25.6l21.73,9.61,1.27-63.47,2.68-4.23-.68,68.56,17.77,7.68V60.42h-20.71l-1.31,64.42-1.65-64.42ZM63.5,342.84c-1.95-9.72-4.86-15.23-13.72-20.16-13.26-7.39-31.1-8.93-45.66-5.22l1.05,51.13c2.87,1.96,27.31,1.83,32.14,1.44,16.49-1.34,29.92-7.03,27.31-26.03-.15-1.08-1.09-.99-1.12-1.17ZM248.3,365.1c-1.13-2-6.16-10.42-8.01-10.8-4.45,1.13-8.8,5.52-13.72,3.25-1.2-1.64,5.32-14.29-.93-15.81.77,10.72-8.35,22.59-19.56,24.15-13.24,1.85-6.8-13.71-9.7-13.63-3.22,11.75-12.7,25.95-26.8,23.49-7.61-1.33-5.4-5.11-4.69-10.29.13-.95.86-1.59-.72-1.37-5.83,10.93-13.24,23.53-27.95,19.06,3.65,7.98,10.38,16.2,10.36,25.3,0,3.39-2.32,8.15-1.67,11,.26,1.14,9.16,18.87,10.39,21.03s4.89,7.35,6.57,9.36c6.43,7.69,18.46,13.15,28.25,14.82,2.05-12.14,12.07-21.3,24.45-23.88,6.11-1.27,13.73,1.1,18.65-4.36,9.41-10.47-10.54-22.34-15.1-29.65-.74-1.18-2.62-3.97-.05-4.39,1.42-.23,18.47,18.28,19.84,20.73,2.54,4.53,2.55,8.29,1.53,13.28,3.75-.07,7.53-.15,11.17,1,4.93,1.56,7.67,6.61,12.42,7.46,7.03-12.4,5.1-24.69.4-37.37-.91-2.47-3.48-5.88-4.17-7.79-4.38-12.15-3.78-21.85-10.96-34.59ZM293.23,345.2c-12.36.98-20.97,12.4-14.58,24.07,5.55,10.15,34.98,9.72,37.01-4.92,1.82-13.12-10.83-20.07-22.42-19.15ZM99.41,373.95c-23.71,3.99-45.33,16.62-64.4,30.63,2.91,3.12,2.83,6.02,3.27,10.12,8.27-6.17,15.61-12.91,24.63-18.42,4.97-3.04,34.98-17.06,35.78-18.93.46-1.07.75-2.22.73-3.4ZM286.12,395.64c1.26-6.96-7.02-11.94-12.28-15-4.34-2.53-12.69-8.36-13.35-.13,9.54,3.13,17.86,8.98,25.63,15.13ZM313.08,465.97c-.04-1.26-.65-2.25-.69-3.57-.69-23.81,1.8-49.62.62-72.93-.77-15.1-4.71-10.56-14.69-10.24-5.64.18-16.51-4.08-17.16,2.63,1.78,1.57,5.07,3.57,6.29,5.56,3.34,5.48.37,23.88,1.09,31.06,11.52,6.14,4.4,15.55,8.41,23.86,1.93,4,7.14,8.69,9.57,12.31s3.61,8.18,6.57,11.32ZM38.93,418.32v27.94c3.04.19,5.86-1.21,8.85-1.33,3.42-.14,8.98,1.5,11.32.86,1.68-.46,8.93-6.08,11.6-7.52,4.04-2.18,8.95-4.87,13.14-6.58,3.2-1.31,18.79-5.4,19.52-6.12.51-.49,1.34-5.7,1.27-6.55-.36-4.56-6.97-11.88-8.2-17.44-1.41-6.36-.87-12.05-.65-18.43-20.71,8.65-40.12,20.18-56.86,35.18ZM285.47,416.67v-17.42c-7.68-6.81-16.34-12.59-25.96-16.11-1.49,1.44.79,1.98.92,2.48,2.26,8.87,2.97,17.33,7.64,25.77l17.4,5.28ZM4.08,406.16v374l17.02-4.02c.24-1.17.59-2.35.72-3.55.58-5.41.24-27-.69-32.16-.54-2.99-4.37-5.22-4.6-6.59-1.12-6.65-.65-30.79,0-38.19.1-1.14,1.27-.93,1.34-1.41.4-2.84-.49-5.47.63-8.46.82-2.18,3.98-3.67,4.04-4,.16-.88-1.29-3.91-1.39-5.78-.75-14.78-.88-34.62,0-49.35.46-7.66,1.04-16.35,7.35-21.57,1.92-1.59,6.52-2.55,7.13-5.37-.28-25.85.41-51.73.04-77.57-.16-10.73-1.68-21.11-1.37-32.22.09-3.25,1.69-8.36,1.41-11.15-.22-2.21-6.6-10.17-7.4-13.06-1.5-5.41-1.32-11.79,3.04-15.54,2.52-2.17,4.53-.64,4.99-4.88.58-5.38-.25-21.62-.67-27.67-.66-9.47-.99-11.25-10.89-12.12-2.52-.22-20.16-.26-20.7.64ZM456.83,420.86c-1.81-2.02-5.38-4.5-7.64-6.16-1.44,12.7-14.35,15.02-14.48,29.95-.04,4.29,3.53,12.31,8.26,12.75,2.34.22-.39-5.98-.38-7.5.03-3.6,3.06-9.41,6.8-10.4,6.99-1.86,6.21,15.97,2.75,15.94-2.11-.02,1.61-11.7-1.99-13.13-4.95,1.2-4.23,14.78-1,16.11,19.8-2.35,18.07-25.97,7.68-37.56ZM295.08,445.19c-6.32-9.06-1.64-8.47-3.08-16.97-1.3-7.66-15.66-11.92-22.3-12.86l3.27,17.43c1.24,15.95-1.61,36.91-12.23,49.54-1.91,2.27-5.92,4.37-7.48,7.3,25-1.92,48.49,7.12,69.03,20.38-1.72-13.9-5.83-28.51-11.71-41.2-3.92-8.46-10.19-16-15.51-23.61ZM102.63,429.22c-2.54-1.58-24.44,8.27-28.12,10.22-3.2,1.7-11.47,8.15-13.71,8.65-9.84,2.2-32.47-4.56-29.48,14.64.83,5.35,7.42,13.28,7.6,14.76.64,5.33-2.25,19.16-2.02,26.28.77,24.45,11.47,60.97,26.12,81,1.64,2.25,6.58,5.85,7.52,8.34,2.4,6.4-.69,23.67,9.53,25.31,7.72,1.24,18.25-4.98,25.62-7.16-.4-20.99-.34-42.8,8.29-62.04,9.28-20.69,34.6-38.18,54.51-47.47l-2.63-11.84c-8.26.76-10.64,3.13-17.15-3.22-1-.97-2.53-4.04-2.75-4.15-1.14-.62-4.86.82-7.27.38-5.8-1.06-9.28-10.17-8.49-15.52-7.31-2.68-10.8-5.29-14.71-11.91-1.16-1.97-1.35-4.94-2.62-6.59-1.14-1.48-3.03-1.7-4.28-2.95-5.5-5.55-4.8-9.4-5.97-16.72ZM133.37,434c-7.86-7.57-18.28-.93-17.92,9.85.46,13.56,12.33,22.32,25.55,19.99,9.98-1.75,4.1-4.69,2.26-7.92-3.6-6.33-5.31-17.5-9.89-21.92ZM228.6,457.43c-3.46.48-8.76,0-12.49,0-1.86,0-1.07,2.06,1.78,2.86,5.53,1.56,16.05-.92,21.15-3.6,1.81-.95,6.25-3.04,3.37-5.17-3.81,1.77-9.77,5.34-13.81,5.9ZM438.49,465.47c-1.9.4-4.23,1.92-4.37,4.05.98,3.96,23.35,3.78,26.42,2.22,3.47-1.76-.03-5.68-2.62-6.28-2.41-.56-16.91-.51-19.43.01ZM460.36,475.18c-7.96-.22-15.86,1.88-23.66-.67-.37,12.99-21.46,16.81-19.69,30.51,2.69,20.84,63.55,22.77,59.5-3.6-2.13-13.82-19.07-12.44-16.15-26.25ZM157.93,476.49c-.23.21,3.63,4.43,4.59,4.27-.92-.44-3.44-5.31-4.59-4.27ZM478.77,510.01c10.66-.01,19.09-6.17,19.49-17.33.6-16.55-19.02-17.35-26.48-5.69l3.37,3.98c13.76-11.48,24.35,3.8,8.03,11.97-.93.46-2.97.41-3.07.53-.21.26-1.28,5.76-1.34,6.55ZM237.19,519.6c1.85-4.27,7.16-7.42,7.5-11.3.18-2.05-3.09-11.45-5.02-12.01-25.11,6.68-48.32.46-70.57-11.25-.89.92,6,19.29-1.57,19.67l-.39,1.35c8.97,8.91,20.72,14.89,33.39,16.3,6.28.7,13.61-.74,19.49-.53,2.74.1,7.6.91,9.2,3.34l8.93,15.73c3.11-6.69-1.29-14.23-1.94-20.55.13-.48.91-.56.99-.75ZM478.93,499.98c3.17,3.7,11.98-5.81,8.12-9.75-2.59-2.02-10.46,1.31-10.15,4.17.03.3,1.84,5.36,2.03,5.58ZM205.92,696.35c.04-3.5,0-7.01,0-10.52,0-2.5,3.86-13.08,5.15-15.89,5.2-11.4,16.54-25.8,29.7-27.49-7.92-3.79-16.01-7.4-24.14-10.7-10.78-4.38-34.37-14.74-45.06-13.13-6.16.92-11.28,6.01-15.84,7.19-2.5.65-1.98-1.36-.78-2.77,4.54-5.31,19.16-8.74,25.98-7.88-3.47-15.22-5.54-32.01-12.11-46.74-.52-1.16-1.53-1.29-1.89-2.07-.76-1.6-6.94-13.74-6.38-14.29,1.35-.26,1.74.19,2.64.97,4.08,3.52,10.8,19.99,12.65,25.47,2.51,7.44,3.47,16.35,5.75,23.18.22.67-.53,1.21.97.98,33.32-30.96,76.85-47.84,122.62-47.32.85-.76-7.94-18.76-9.05-20.87-1.69-3.18-6.65-9.05-7.74-12.62-.34-1.12-.95-2.13.7-2.02s7.14,8.75,8.32,10.75c4.62,7.82,8.44,17.11,12.5,25.3,4.46,3.05,19.51-6.25,24.86-2.17.53,2.43-6.57,2.26-7.92,2.58-11.58,2.76-23.12,6.93-32.84,13.84,23.12,1.14,40.15,24.82,42.75,46.34,25.38-10.01,49.58-23.63,32.55-54.57-13.67-24.83-56.96-59.03-84.5-66.04-12.98-3.31-29.31-5.68-42.07-1.64,3.05,5.82,6.54,11.61,3.54,18.32-1.39,3.12-5.72,4.77-6.15,7.69.36,8.87,3.48,18.06,1.23,26.82l-1.59,1.09c-3.56-.09-10.11-19.2-13.64-21.95-6.66-1.55-13.63-.05-20.53-.46-16.49-.97-30.21-6.98-42.08-18.38-20.79,11.32-43.77,28.5-50.12,52.43-9.33,35.14-6.48,94.17,27.88,115.04,11.39,6.92,51.82,22.49,64.35,23.1,2.05.1.28-1.17.29-1.61ZM549.11,526.46c-.23-.28-5.54-2.21-6.43-2.45-10.46-2.77-46.97-11.96-55.76-11.95-1.92,0-3.88.99-5.88,1.27-1.42.19-3.67-.83-4.13-.61-.33.16-3.33,5.04-4.69,5.55-.17.96,7.9,6.08,1.91,11.1-6.6,5.53-27.97,5.5-36.28,4.15-6.14-1-26.08-6.63-13.4-13.58l.41-1.36c-3.42-.99-5.85-2.97-7.69-5.97l-58.72,7.6,79.21,24.99,110.47-17.45c1.1.47,1.36-.84.99-1.28ZM427.95,520.63l-3.58,4.17c7.59,6.48,23.12,7.77,32.86,6.73,3.84-.41,21.28-3.33,14.33-9.39-3.95-3.44-8.37.57-13.48,1.04-9.49.89-21.06.24-30.13-2.55ZM549.12,529.73l-110.14,17.75-80.1-24.27-.95,1.43c1.55,3.94-1.45,8.98,3.35,11.14l74.51,26.08c1.3.32.75-.09.9-.9.33-1.77.07-11.32,1.32-12.17l1.96.98v11.5l109.14-19.72v-11.83ZM39.83,541.96c-.43-.7.21-1.91-.89-1.71-.58,19.74-1.16,39.47.33,59.16l23.99-8.9-12.02-20.21c-5.25-8.23-6.52-20.42-11.41-28.34ZM370.29,542.22v15.45c0,.53,4.21,7.38,5.02,8.12,1.05.97,16.07,8.5,17.02,8.62,2.04.26.46-6.12,1.01-7.58l-.13-.87c-13.61-2.43-11.25-8.05-11.17-19.7l-11.75-4.04ZM537.28,547.47v76.9l7.92-1.75c.19-21.22-.34-42.46-.06-63.68.03-2.31,2.08-11.87-.38-12.73l-7.48,1.25ZM424.86,574.42v-12.82l-40.1-14.13v11.5l40.1,15.45ZM533.99,548.13l-12.41,2.05c-.6,4.3,1.12,9.56-1.5,13.3-2.8,4-8.91,2.22-9.67,4.14l-.71,63.07,1.45,1.74,22.83,9.05v-93.34ZM454.44,574.42l61.17-11.48c4.24-1.65,3.49-7.94,2.97-11.56l-64.13,10.55v12.49ZM307.82,558.66c-34.43-.87-66.18,7.39-95.41,25.22-4.77,2.91-28.21,19.28-29.37,23.23-.71,2.42.78,6.15.84,8.74l37.29,14.67,3.18.17c3.1-4.13,19.7-13.09,21.34-16.17,2.36-4.44-2.69-4.39-3.46-7.04-5.07-17.39,20.98-31.55,34.57-34.82,3.61-.87,9.34-.75,12.15-1.65,1.53-.49,3.24-3.46,4.75-4.45,4.5-2.97,9.58-5.04,14.12-7.89ZM427.49,561.94v24.65c0,.25-.77.85-.58,1.83l.87,1.16c6.28,2.39,13.34,5.96,17.78,11.15,2.43,2.85,2.42,6.16,5.28,7.87l.98-46.01c-8.73,1.48-15.83,3.13-24.33-.65ZM424.76,577.15l-28.17-9.95-.03,9.55,27.63,11.48.57-11.08ZM507.7,567.85l-36.21,7.54.37,41.1,34.84,13.81.99-62.45ZM444.22,605.06c-7.04-12.09-24.28-14.21-36.25-19.34-10.55-4.52-20.39-11.01-31.1-15.24,4.7,11.49,1.25,21.55-6.57,30.22,17.92.62,36.85-3.34,54.61-.36,6.07,1.02,12.85,3.81,18.86,5.48,3.51.97,1.05.24.46-.77ZM271.02,625.68c8.46,5.46,15.78-3.73,23.33-7.22,10.27-4.75,20.09-4.53,29.27-12.8,2.03-1.83,5.13-4,4.32-6.92-1.72-6.15-14.24-18.41-19.88-21.57-15.57-8.73-44.79.1-56.76,12.71-2.63,2.77-10.93,17.99-3.69,17.44.87-.07,8.18-11.05,10.91-13.5,1.11-.99,7.73-5.98,8.72-6.39,2.85-1.19,4.89-.2,2.46,2.46s-8.32,5.63-11.2,8.52c-4.37,4.39-16.05,20.92-2.6,19.75,1.1-5.39,20.54-22.38,24.63-21.36.81.7,1.26.81.7,1.99-.34.7-10.93,7.14-12.85,8.85-2.19,1.94-9.84,10.63-9.19,13.01,6.38,8.87,14.34-4.78,20.41-9.02,1.16-.81,10.44-6.26,11.13-5.62-5.22,7.8-16.14,10.14-19.71,19.7ZM468.25,575.08l-13.19,2.4.03,32.78c3.45.21,9.94,4.89,12.84,4.92,2.36.02.32-2.88.32-3.62v-36.48ZM109.54,630.7c-.72-2.72-2.5-15.42-3.53-15.86-20.85,6.73-34.44,16.11-37.49-13.15-.21-2.04.82-7.37-1.09-8.11-3.17-.73-5.6.39-8.46,1.21-6.54,1.89-27.81,10.76-31.4,15.93s-3.91,36.59-3.8,44.91c.08,6.01.08,15.33.7,20.99.82,7.46,8.27,10.91,14.24,14.68,13.15,8.31,27.82,15.41,41.63,22.47,1.84-12.88,5.2-26.36,10.93-38.05,5.52-11.28,14.08-20.3,23.83-28.1-2.29-5.18-3.16-10.71-4.58-16.14-.12-.44-.93-.62-.97-.79ZM137.55,837.34h85.47c.62-9.76.35-20.28,1.26-29.95,2.19-23.19,6.15-54.55,19.5-74.51.97-1.45,2-3.56,3.88-4.01,1.62.3-4.62,11.09-5.04,12.05-3.99,9.27-7.27,17.52-9.43,27.38-4.93,22.5-5.16,46.1-6.89,69.03h89.41c.21-3.81.62-8.28,1.36-12,.1-.53,1.15-.49,1.25-.96,2.42-12.33,2.35-26.4,9.88-37l-8.54,49.95h112.43c21.38-47.84,66.72-89.42,115.73-108.11,13.66-5.21,27.96-9.31,42.73-9.54l-.61-45.08c-23.11-14.37-47.96-26.09-73.04-36.75-22.5-9.56-47.65-19.95-70.66-27.96-28.66-9.97-49.65-7.9-79.55-5.89-14.3,8.31-32.46,24.89-47.73,8.81-8.34,4.6-17.36,5.28-25.8,9.7-6.41,3.36-13.7,11.82-21.72,7.01-1.36-.82-2.55-3.18-2.84-3.24-1.98-.36-4.46,2.44-8.96-.09-2.54-1.43-2.19-4.13-2.52-4.38-.42-.32-4.24.07-5.87-.38s-4.53-3.72-5.47-3.59l-18.83,15.06c4.12,1.47,8.37,3.21,12.29,5.14,2.55,1.25,6.02,4.3,8.08,5.07,5.41,2.01,15.06,1.99,21.7,3.94,10.73,3.14,30.87,15.26,31.38,27.77.18,4.44-1.9,9.13-7.05,8.04-.6.56,1.97,7.86-3.9,10.23-1.23.5-3.3,0-3.89.38-1.33.84.76,6.53-7.09,6.91-1.64.08-4.02-1.16-5.12-.95s-2.26,4.35-6.18,4.76c-9.34.97-17.24-7.52-25.39-10.17-3.16-1.03-17.54-3.83-19.79-2.63-2.02,1.08-5.13,5.98-7.59,7.53-5.21,3.27-11.89,1.35-17.71.08-8.36-1.82-20.01-7.63-27.44-8.76-3.58-.54-6.87,4.72-8.58,7.55-14.28,23.57-10.98,55.29-17.27,80.68l-5.86,58.87ZM333.47,616.49c.25-4.34-1.14-8.62-2.96-12.49l-8.2,6.9c2.98,3.5,6.18,6.17,11.16,5.59ZM580.67,640.82c-8.05-3.17-16.16-6.34-24.11-9.75-7-3.01-11.43-8.56-19.17-2.31l.22,14.02c.46.98,10.75,6.13,12.15,6.31,1.52.21,26.6-6.01,29.93-6.98.91-.26,1.19.5.98-1.3ZM590.54,671.05v-25.96c-7.58-3.96-17.84,2.39-25.92,3l-10.24,3.56,36.16,19.4ZM295.12,669.28c-9.1-16.24-39.17-25.36-56.59-23.15-8.96,1.14-21.94,18.27-25.32,26.09-4.2,9.74-4.25,11.31,5.86,14.27,8.83,2.59,17.01,2.06,25.99,5.57,7.1,2.77,18.55,13.57,24.54,6.15-1.27-4.17-4.85-6.92-8.23-9.31-2.76-1.95-13.61-6.61-14.67-7.68-.79-.8-.77-1.22-.65-2.3,2.01-1.88,17.84,8.18,20.38,10.18,3.29,2.58,9.18,11.9,14.24,6.69,3.02-3.1-1.72-8.89-4.11-11.59s-6.82-5.79-9.94-7.79c-2.69-1.73-7.57-3.34-9.24-4.55-.83-.6-1.13-.14-.81-1.82.63-.99,1.07-.95,2.12-.88,3.64.23,15.64,8.36,18.51,11.14,1.38,1.34,7.7,10.45,8.61,10.51,2.49.15,4.55-2.19,4.82-4.51,1.18-10.06-16.28-22.17-24.2-26.11,1.54-5,15.33,5.65,17.39,7.58,3.73,3.48,6.59,7.88,8.67,12.51,6.9.05,4.99-6.83,2.64-11.01ZM116.5,651.33c-9.8,6.28-19.78,18.58-24.16,29.4-9.85,24.36-14.23,62.67-17.88,88.72-1.1,7.87-4.46,27.95-3.27,34.66,1.26,7.12,15.56,11.32,21.21,14.95,7.79,5.01,13.54,16.79,22.52,18.24,2.27.37,16.46.49,18.37.04,1.07-.25,1.59-.4,1.64-1.64,3.99-33.46,5.64-67.99,11.27-100.47,1.9-10.98,3.88-24.48,8.93-34.42,1-1.97,8.78-11.58,8.07-12.66-19.19-6.82-39.01-16.79-46.69-36.82ZM19.86,701.28v30.56c0,.37.99,2.79,1.3,3.3l51.29,31.86,7.19-49.03-55-33.02c-4.94-1.24-4.15,11.18-3.98,14.21,9.58,5.71,23.12,10.56,32.01,16.96.81.58,1.61,1.05,1.36,2.24l-34.18-17.09ZM218.41,689.46l-9.2-3.3.3,11.2c.79,1.03.78.32,1.45.1,1.54-.51,8.18-6.94,7.45-8ZM590.54,722.32c-41.89,3.29-83,27.24-112.77,55.85-17.06,16.4-32.65,37.31-41.73,59.17h154.5v-115.03ZM50.1,803.16v-45.68l-25.63-16.1.14,45.54c.79,3.46,7.88,6.46,11.03,7.7v-25.96c0-.63.99-3.62,1.65-4.27l1.11,32.4,11.7,6.38ZM54.05,759.78v43.05c1.15,2.19,13.06-2.38,13.48-2.96l4.23-28.66-17.71-11.43ZM4.08,783.45v46.01l66.4-19.07-2.64-7.22c-12.72,6.02-19.42,3.21-30.7-3.15-8.6-4.85-19.25-10.06-15.31-21.83l-17.75,5.25ZM4.08,837.34h103.22c-10.63-10.14-19.72-19.95-34.5-24.31l-68.34,19.63-.38,4.68Z"/>
  <rect x=".14" y="841.29" width="595" height=".66" fill="#fff"/>
  <path d="M27.09,3.89c-.08,4.8-1.2,10.02-1.35,14.76-.26,8.71-.31,23,.86,31.41.53,3.8,1.93,6.07,5.27,7.88,84.83,2.47,170.23.74,255.27,1.13,51.49.24,103.38.77,154.98,1.49,28.25,22.36,54.14,47.56,81.32,71.2,6.85,5.96,16.2,11.33,22.14,18.29,1.11,1.31,2.43,2.74,2.26,4.64l-2.02,367.15-52.61-11.49c-1.04-.83-.43-.66,0-1.33,1.12-1.7,3.38-3.01,4.73-5.13,14.36-22.61-15.26-39.59-28.48-18.26-11.88-2.54-3.41-12.04-4.16-16.39-.34-1.96-4.67-6.56-6.61-6.56h-9.53c.09-.54-.15-1.77,0-1.96.5-.63,10.09-1.21,14.36-6.36,2.93-3.54,5.41-11.33,4.75-15.71s-5.12-15.56-8.33-19.29c-1.66-1.94-10.6-9.83-12.68-8.51.12,8.91-6.6,12.51-10.89,19.02-3.98,6.04-6.49,12.85-4.56,20.27.41,1.59,5.07,6.9,6.6,7.84,2.88,1.77,7.55,1.41,8.11,4.7-5.08-.61-16.45.28-15.77,7.49.24,2.61,2.39,2.74,2.62,3.51,2.11,7.08-14.14,15.19-17.23,21.41-2.47,4.97-2.09,9.62-1.17,14.92l-58.36,8.04c-1.94,2.09-1.51,14.31-.67,17.13.92,3.1,8.94,4.95,11.71,5.74.02.45-.67.81-.67.97v10.19c-12.73-14.13-25.88-27.93-41.26-39.26-1.14-7.38-1.94-15.3-3.77-22.52-1.21-4.8-5.77-13.27-6.19-16.82-1.63-13.59-.64-35.33-.75-49.87-.09-12.29,3.12-34.86-1.59-45.08-.54-1.18-1.39-2.05-2.3-2.93,9.3-7.06,12.1-15.45,3.92-24.98-18.37-21.42-58.37,1.21-34.22,25.64l-2.91,3.57-12.55-7.19c4.07-12.89-.42-23.48-13.32-28.38,2.28-12.58-8.6-22.53-20.34-24.04-3.93-.51-8.31.39-12.04-.45-6.79-1.53-12.24-6.12-20.75-6.87-27.76-2.44-48.52,4.41-67.99,23.88-2.01,2.01-3.52,5.81-5.55,7.59-4.66,4.09-11.72,6.34-16.77,12.16-2.31,2.67-6.9,12.45-8.29,13.4-2.09,1.42-11.95,3.17-15.35,4.37-11.78,4.16-23.16,9.07-33.91,15.4-3.06,1.8-18.75,13.23-19.95,13.47-3.56.7-15.9-1.34-21.48-.98-1.95.12-3.79.57-5.57,1.34v-32.21c9.8,2.39,21.79,2.69,31.91,2,21.95-1.49,35.86-9.24,30.91-33.58-4.96-24.35-42.5-31.02-62.82-24.95V3.89h23.01ZM179.39,104.04c-22.2-23.91-53.05-31.18-84.59-23.59-26.64,6.4-57.07,38.64-59.14,66.42-1.16,15.62-3.95,32.89-2.63,48.61.3,3.6,3.23,11.42,3.22,13.17-.01,1.54-1.82,5.78-1.94,8.52-.38,8.52,1.65,26.67.03,33.55-.45,1.91-2.95,2.17-3.87,4.02-3,6.04-2.18,12.03-.76,17.81.3,1.24-.19,2.68.32,4.17,1.17,3.45,5.39,4.28,8.56,4.58,18.25,1.75,40.64-.61,59.17-.7,35.14-.17,70.13-.2,105.23-.62,8.88.34,6.39-23.11,3.92-26.29-1.34-1.72-3.69-1.46-4.26-3.63-.77-10.57,1.02-22.51.05-32.9-.11-1.15-1.29-.94-1.34-1.41-4.34-42.34,11.51-75.65-21.96-111.69ZM433.17,104.03c-.2-.35-4.17-5.05-4.66-5.52-9.44-8.94-25.71-10.57-36.17-2.6-15.38-17.63-51.11-5.5-53.89,17.13-9.07,1.98-15.74,5.04-19.59,13.94-2.37,5.48-2.04,6.8-.53,12.13.93,3.29-3,3.53-3.76,7.24-1.7,8.21,2.44,14.65,9.24,18.71,1.15.69,5.25,1.44,5.6,1.96.72,1.05.57,6.83.95,8.58,2.05,9.6,2.4,17.05,3.98,26.26,1.96,11.47,7.4,15.54,15.58,22.87-11.71-.5-23.87-5.49-33.18-12.5-4.39-3.3-7.57-9.39-12.84-8.53-.42-6.45,8.59-14.38,2.9-20.31-6.61-6.89-14.3,4.18-15.38,3.23-2.9-11.5-27.96-30.15-24.34-5.26-3.38-.14-7.13-2.09-9.76,1.08-3.21,3.86.53,6.45-.06,8.96-.1.44-2.64,1.63-3.15,3.6-3.57,13.85,19.41,29.81,31.37,32.03-1.89,4.59-6.17,8.21-5.11,13.66,1.16,5.94,19.01,16.35,24.68,18.72,16.98,7.11,38.27,9.19,56.05,4.1.44.38,1.6,9.17,2.05,10.65,8.08,26.7,30.58,85.03,56.92,98.35,12.64,6.39,23.1,2.25,35.05-3.17,3.42,5.83,4.86,24.15,12.83,25,4.63.49,13.31-1.66,16.42-5.3,4.46-5.23,2.67-31.05-2.77-37.12l12.01-10.17c1.08-.34,2.34,2.84,2.85,3.7,3.4,5.68,8.1,22.24,13.78,24.34,6.63,2.46,6.38-1.28,9.51-3.55.74-.54,2.45-.16,3.75-1.19.44-.35,6.97-8.13,7.09-8.68.76-3.25-.13-8-.97-11.23s-9.59-23.01-11.39-24.77c-2.69-2.63-5.63-2.57-9.2-2.97,2.18-5.96,1.5-12.6-2.35-17.69-4.39-3.51-31.58-16.76-31.81-21.4-.11-2.09,5.75-11.6,5.95-16.46.08-1.88-1.21-3.76-.59-5.77s11.03-6.18,6.46-13.61c8.36-.79,20.89-5.68,19.03-16.07-.63-3.51-3.2-3.02-3.9-5.62,12.4.04,28.58-20.04,10.53-25.97,13-7.21,16.4-37.06-4.98-29.94-9.35,3.11-44.34,23.65-51.89,30.29-6.12,5.38-10.75,12.18-15.48,18.75l-13.14-2.34c5.43-6.98,9.84-13.03,10.62-22.24,4.17-.22,7.43.46,11.31-1.51,1.61-.82,10.83-11.24,11.88-13.1,4.07-7.22-.54-10.44-.08-15.31.17-1.86,2.76-4.76,3.09-7.97.77-7.63-3.56-16.55-11.83-17.43,4.42-12.52-2.73-23.72-16.34-23.08-.82-2.13-1.16-4.95-2.3-6.92ZM322.13,112.18c2.21-2.44-1.21-6.27-1.13-8.07.1-2.09,5.81-4.4,2.97-6.9-2.17-1.91-5.58-.7-7.6-1.62-1.52-.69-2.38-4.92-4.26-4.97-2.59-.04-3.76,5.38-4.42,5.82-1,.66-5.95.24-6.82,1.4-1.68,2.82,3.22,5.54,3.56,7.08.4,1.8-1.93,5.63.76,7.78,2.53,1.49,5.04-2.16,6.89-2.27,2.32-.14,7.61,4.18,10.04,1.75ZM251.39,111.58c-7.96-15.35-13.21-8.92-13.97,5.3-16.51,2.06-12.66,12.52,1.38,13.2-.37,4.29-.08,16.36,6.76,14.33,4.1-1.22,5.52-8.47,7.5-8.96,3.5,0,13.99,4.64,15.01-.69.32-4.03-5.06-8.88-4.99-12.25.07-3.18,6.23-7.66,3.4-11.89-3.13-3.4-13.08,2.15-15.08.95ZM491.07,134.87c-.17-.19-4.15-2.47-4.39-2.54-3.61-1.08-5.56,2.24-7.93,4.16-3.73,8.51,1.74,17.48,6.38,24.43,5.48-.41,18.86-9.64,19.8-14.89,1.17-6.54-6.59-11.82-12-7.38-1.33-.83-.99-2.82-1.85-3.77ZM256.37,239.37c-2.32-2.05-7.27.66-9.69-.49-2.27-1.09-2.64-7.95-6.21-7.6-4.75.47-4.84,7.73-6.58,9.27-2.57,2.27-11.31.15-7.24,6.52,1.2,1.88,5.02,3.14,5.46,4.42.92,2.64-2.19,6.8.45,10.04,3.65,4.48,8.12-4.44,10.48-4.56,1.85-.09,7.75,4.38,10.91,2.32,2.18-1.52-1.59-7.83-1.36-9.88s7.28-6.94,3.78-10.04ZM524.13,264.19c13.72-4.83.87-5.74-1.29-7.58-1.43-1.21-1.18-5.82-3.71-6.85-1.94-.3-3.5,4.54-4.71,5.2-2.22,1.21-7.19-.21-7.96,1.75-1.37,2.45,2.92,5.43,3.01,6.47.11,1.22-3.03,5.27-1.01,7.47,2.16.99,5.8-1.36,7.38-1.06.82.15,2.6,2.38,4.35,2.82,5.81,1.46,5.22-4.21,3.95-8.23ZM300.43,288.66c-2.17-2.01-6.45.01-7.99-.32-1.27-.27-2.81-4.08-4.35-4.79-3.97-1.62-3.07,5.57-4.24,6.93-1.39,1.61-8.24-.69-4.98,4.95,1.02,1.76,4.39,2.79,4.52,3.03.66,1.16-.52,5.31.86,7.04,3.31,1.52,5.55-2.97,7.48-3.2,1.79-.21,5.97,2.16,7.46,1.23,2.19-2.56-1.21-6.39-.99-8.14.14-1.08,4.67-4.47,2.23-6.73ZM329.24,332.83c3.87,5.41,17.35,13.94,23.94,11.2,5.22-2.17,13.33-34.94-4.2-32.46-3.88.55-7.55,4.32-6.97,8.48-9.69-4.65-20.15,2.46-12.77,12.78ZM361.61,395.18c-16.22,1.18-29.61,4.88-26.76,24.39,2.51,17.24,35.29,15.17,48.29,14.22,10.74-.79,19.66-3.59,21.17-15.64,3.02-24.19-25.96-24.18-42.69-22.96ZM490.16,457.21c7.25,10,38.41,10.22,48.02,4.72,7.65-4.38,7.9-21.16,1.42-26.22-8.3-6.48-36.42-6.23-45.01-.26-6.2,4.31-9.01,15.44-4.43,21.76Z" fill="#fff"/>
  <path d="M137.55,837.34l5.86-58.87c6.28-25.39,2.98-57.11,17.27-80.68,1.71-2.83,5-8.09,8.58-7.55,7.43,1.13,19.08,6.94,27.44,8.76,5.81,1.26,12.49,3.19,17.71-.08,2.46-1.54,5.57-6.45,7.59-7.53,2.25-1.2,16.64,1.6,19.79,2.63,8.15,2.65,16.05,11.14,25.39,10.17,3.92-.41,5.03-4.54,6.18-4.76s3.48,1.03,5.12.95c7.84-.38,5.76-6.06,7.09-6.91.59-.37,2.66.12,3.89-.38,5.87-2.37,3.31-9.67,3.9-10.23,5.15,1.08,7.23-3.6,7.05-8.04-.51-12.51-20.65-24.63-31.38-27.77-6.64-1.95-16.3-1.93-21.7-3.94-2.06-.76-5.52-3.81-8.08-5.07-3.92-1.93-8.17-3.67-12.29-5.14l18.83-15.06c.93-.13,3.85,3.14,5.47,3.59s5.45.06,5.87.38c.32.25-.02,2.95,2.52,4.38,4.5,2.53,6.98-.27,8.96.09.29.05,1.48,2.42,2.84,3.24,8.02,4.81,15.3-3.64,21.72-7.01,8.44-4.43,17.47-5.1,25.8-9.7,15.27,16.08,33.43-.5,47.73-8.81,29.9-2.01,50.89-4.09,79.55,5.89,23,8,48.16,18.4,70.66,27.96,25.08,10.66,49.93,22.37,73.04,36.75l.61,45.08c-14.77.23-29.07,4.33-42.73,9.54-49.01,18.69-94.35,60.27-115.73,108.11h-112.43l8.54-49.95c-7.52,10.6-7.46,24.67-9.88,37-.09.47-1.14.43-1.25.96-.74,3.72-1.15,8.18-1.36,12h-89.41c1.73-22.93,1.96-46.53,6.89-69.03,2.16-9.86,5.44-18.11,9.43-27.38.41-.96,6.65-11.75,5.04-12.05-1.89.44-2.91,2.55-3.88,4.01-13.34,19.96-17.31,51.32-19.5,74.51-.91,9.67-.64,20.19-1.26,29.95h-85.47ZM538.59,692.09c-29.63-11.16-50.8-35.83-78.03-51.15-24.49-13.77-49.81-20.03-78.09-17.2-4.59.46-29.5,4.96-31.24,8.21-.66,1.24.92.96,1.57.91,6.48-.5,15.88-4.12,23.17-5.1,35.47-4.78,62.48,2.56,92.19,21.36,18.34,11.61,34.84,28.99,54.21,38.48,4.22,2.07,11.76,6.04,16.22,4.49ZM317.28,703.01c-.42-.72-.63-3.57-1.57-2.71,1.65,27.91,32.46,51.79,56.85,60.83,7.95,2.95,18.23,6.05,26.65,4.56-7.99-2.67-16.36-3.97-24.31-6.91-18.93-7-42.96-23.59-51.86-42.15-2.27-4.73-3.21-9.24-5.76-13.62ZM179.36,755.59c.95-4.91,2.53-9.75,2.23-14.87-4.82,7.99-6.29,18.23-7.67,27.49-1.88,12.6-2.94,25.51-2.83,38.24,1.33-.27,1.08-1.38,1.3-2.31,3.34-14.78,4-33.2,6.98-48.55Z" fill="#fff"/>
  <path d="M205.92,696.35c0,.45,1.77,1.71-.29,1.61-12.53-.61-52.96-16.18-64.35-23.1-34.36-20.87-37.21-79.9-27.88-115.04,6.36-23.93,29.33-41.11,50.12-52.43,11.87,11.4,25.59,17.4,42.08,18.38,6.9.41,13.87-1.09,20.53.46,3.53,2.76,10.08,21.86,13.64,21.95l1.59-1.09c2.25-8.76-.87-17.96-1.23-26.82.43-2.93,4.76-4.57,6.15-7.69,2.99-6.72-.5-12.51-3.54-18.32,12.77-4.04,29.09-1.67,42.07,1.64,27.54,7.01,70.83,41.21,84.5,66.04,17.02,30.93-7.17,44.56-32.55,54.57-2.59-21.51-19.62-45.2-42.75-46.34,9.72-6.91,21.27-11.08,32.84-13.84,1.35-.32,8.45-.15,7.92-2.58-5.35-4.08-20.4,5.22-24.86,2.17-4.07-8.18-7.89-17.47-12.5-25.3-1.18-2-6.64-10.63-8.32-10.75s-1.04.9-.7,2.02c1.09,3.57,6.05,9.44,7.74,12.62,1.12,2.1,9.91,20.11,9.05,20.87-45.77-.52-89.3,16.37-122.62,47.32-1.5.23-.74-.31-.97-.98-2.28-6.83-3.24-15.74-5.75-23.18-1.85-5.48-8.58-21.95-12.65-25.47-.9-.78-1.29-1.23-2.64-.97-.56.55,5.62,12.68,6.38,14.29.36.77,1.37.9,1.89,2.07,6.57,14.73,8.63,31.52,12.11,46.74-6.82-.87-21.44,2.57-25.98,7.88-1.21,1.41-1.73,3.42.78,2.77,4.56-1.18,9.68-6.27,15.84-7.19,10.69-1.6,34.28,8.75,45.06,13.13,8.13,3.3,16.22,6.91,24.14,10.7-13.16,1.69-24.49,16.09-29.7,27.49-1.28,2.81-5.15,13.38-5.15,15.89,0,3.5.04,7.01,0,10.52Z" fill="#fff"/>
  <path d="M566.87,60.42l1.65,64.42,1.31-64.42h20.71v581.05l-17.77-7.68.68-68.56-2.68,4.23-1.27,63.47-21.73-9.61c.66-8.27-.72-17.46-.02-25.6.13-1.49,1.38-.63,1.38-1.27s-1.26.22-1.38-1.27c-.24-2.81-.2-7.77,0-10.6.09-1.18,1.36-.73,1.42-1.89.67-13.13-2.53-29.29,2.44-40.93-4.39-128.22.69-258.13-.52-387.01.11-.42,5.81,3.51,7.09-2.12.93-4.08.78-19.46.83-24.8.07-7.22,1.22-20.29-2.11-26.22-1.5-2.66-5.92-5.7-6.43-8.69l.62-32.49h15.78ZM580.67,265.49l.65-140.66c-1.21.25-1.2,1.3-1.33,2.28-2.49,18.91.2,41.27.05,60.52-.19,25.59-2.07,51.34-.69,76.89l1.32.97ZM564.89,251.03l.34-79.54c-1.05,6.04-1.59,13.77-1.68,20.02-.23,16.85-1.05,38.19,0,54.61.07,1.15.23,4.31,1.33,4.9ZM566.86,352.91l1.32-78.21c-1.72,2.46-1.8,8.75-1.95,12.17-.87,19.27-2.46,44.23-.67,63.09.07.78.19,2.94,1.31,2.95ZM581.98,306.91l-1.29.99c-2.26,20.52-1.53,41.18-1.97,61.81-.41,19.33-2.42,38.94-.35,58.15l3.61-120.95ZM560.95,379.86h-1.97c-.72,18.12-1.8,36.6.99,54.57l1.71-2.96-.73-51.61ZM566.87,500.15l2.29-90.71c-3.25,29.84-3.17,60.61-2.29,90.71ZM580.01,565.88l2.31-111.75c-.93,1.73-1.46,4.31-1.63,6.27-2.48,28.51-4.52,69.04-2.67,97.29.14,2.16.36,6.93,1.99,8.19ZM559.85,511.79c-.36-2.17.23-5.45-1.52-7.04l-.66,98.59,1.32-.97c1.31-10.71.14-21.52.6-32.26.83-19.15,3.43-38.99.27-58.32Z" fill="#fff"/>
  <path d="M590.54,22.29v11.17h-66.07c-.22,0-4.12.73-4.27,1.31,23.44.63,46.9,2.25,70.34.66v22.35l-555.07-2.13c-5.13-1.61-5.09-7.87-5.08-12.34,10.87-.43,21.64-.42,32.53.02,2.15.09,4.53,1.23,6.63,1.32,15.68.65,32.04,1.28,47.97.64l.97-1.31-88.1-2.96v-14.13c25.6-1.39,50.04-6.44,75.96-5.94,60.85,1.18,121.81,1.58,182.78,1.31,89.76-.39,179.7-.84,269.54-.68,10.49.02,21.28,1.43,31.88.71ZM251.94,34.79c-33.26-3.95-67.61,1.25-100.94-.64-7.41-.42-14.83-2.39-22.3-2.69-12.58-.5-25.28,1.56-37.84,1.68.14,1.46,4.52,1.59,5.57,1.66,11.81.82,23.72-1.1,35.55-.71,5.94.2,12.48,1.73,18.36,1.96,31.79,1.23,63.51-1.14,95.38-.65,2.07.03,5.05,1.9,6.22-.62ZM447.87,34.79c-11.06-.25-22.22-3.14-33.17-1.95-35.36-3.15-69.97,4.99-105.25,3.94-6.15-.18-12.6-2.83-18.72-.35,16.51,2.54,35.53,3.36,52.3,2.33,9.86-.61,20.88-3.42,30.85-4,16.29-.94,36.19-.48,52.65,0,5.98.17,12.38,1.98,18.42,1.37,1.14-.12,2.53.13,2.92-1.34ZM320.98,46.62l-76.27-.33,8.19,1.67c20.12-.75,40.44.88,60.54,0,1.84-.08,6.53-.1,7.54-1.33ZM564.24,47.92c-.25-1.21-1.3-1.2-2.28-1.33-4.88-.64-13.63-.53-19.06-.66-30.18-.75-60.63,1.09-90.79,1.37-5.25.05-11.25-.93-16.75.3l128.87.32Z" fill="#fff"/>
  <path d="M102.63,429.22c1.17,7.33.47,11.17,5.97,16.72,1.24,1.26,3.14,1.47,4.28,2.95,1.27,1.65,1.46,4.62,2.62,6.59,3.9,6.63,7.4,9.23,14.71,11.91-.79,5.35,2.69,14.46,8.49,15.52,2.4.44,6.13-1,7.27-.38.22.12,1.75,3.18,2.75,4.15,6.51,6.35,8.88,3.98,17.15,3.22l2.63,11.84c-19.91,9.29-45.23,26.78-54.51,47.47-8.63,19.24-8.69,41.05-8.29,62.04-7.37,2.18-17.9,8.39-25.62,7.16-10.22-1.64-7.13-18.9-9.53-25.31-.93-2.48-5.87-6.09-7.52-8.34-14.65-20.04-25.35-56.55-26.12-81-.22-7.12,2.66-20.95,2.02-26.28-.18-1.48-6.76-9.41-7.6-14.76-2.99-19.2,19.64-12.45,29.48-14.64,2.24-.5,10.51-6.95,13.71-8.65,3.67-1.95,25.57-11.8,28.12-10.22ZM127.68,481.08c3.26-3.54-15.34-12.12-17.57-12.99-8.03-3.12-17.94-5.72-26.47-4.09.27,1.3,1.34,1.12,2.3,1.3,5.01.95,9.99,1.43,14.93,2.82,9.76,2.74,18.25,7.74,26.81,12.95ZM63.49,484.14c-2.63-2.91-6.03-7.44-9.72-9.01-.8-.34-3.24-1.63-3,.37,20.66,16.38,28.85,39.77,35.56,64.23,4.83,17.61,4.81,27.84,7.15,45.57.13.98.12,2.03,1.33,2.28,2.4-25.06-3.99-50.94-13.31-73.78-4.63-11.34-9.82-20.61-18.01-29.65Z" fill="#fff"/>
  <path d="M590.54,722.32v115.03h-154.5c9.08-21.87,24.67-42.78,41.73-59.17,29.77-28.61,70.88-52.57,112.77-55.85Z" fill="#fff"/>
  <path d="M116.5,651.33c7.68,20.03,27.49,30,46.69,36.82.72,1.08-7.07,10.69-8.07,12.66-5.05,9.94-7.03,23.44-8.93,34.42-5.63,32.48-7.28,67.01-11.27,100.47-.06,1.24-.58,1.39-1.64,1.64-1.9.45-16.1.32-18.37-.04-8.98-1.45-14.73-13.23-22.52-18.24-5.65-3.63-19.95-7.83-21.21-14.95-1.19-6.71,2.17-26.79,3.27-34.66,3.65-26.05,8.04-64.36,17.88-88.72,4.38-10.82,14.36-23.13,24.16-29.4ZM121.5,710.89c1.9-6.73,3.71-13.49,6.82-19.8-1.75-2.29-3.88,2.77-4.49,4.04-9.16,19.18-12.12,48.24-14.61,68.88-.61,5.07-.47,11.01-.6,16.14.45,0,1.89-1.68,1.92-1.81,5.09-21.87,4.69-45.24,10.95-67.45Z" fill="#fff"/>
  <path d="M590.54,3.89v15.78c-.98-.46-1.81-.67-2.92-.7-35.16-.89-71.33-.13-106.58,0-127.42.5-255.04-.46-382.64-.66-21.56-.03-42.39,5.77-63.09,6.59-1.85.07-4.32.56-5.58-.97V3.89h560.81Z" fill="#fff"/>
  <path d="M4.08,406.16c.53-.9,18.17-.87,20.7-.64,9.9.87,10.22,2.65,10.89,12.12.42,6.05,1.26,22.29.67,27.67-.46,4.24-2.47,2.71-4.99,4.88-4.36,3.75-4.54,10.13-3.04,15.54.8,2.89,7.18,10.85,7.4,13.06.28,2.78-1.32,7.89-1.41,11.15-.3,11.11,1.22,21.49,1.37,32.22.37,25.84-.32,51.72-.04,77.57-.61,2.81-5.21,3.78-7.13,5.37-6.31,5.22-6.89,13.91-7.35,21.57-.88,14.72-.75,34.57,0,49.35.09,1.87,1.55,4.91,1.39,5.78-.06.33-3.22,1.82-4.04,4-1.13,2.99-.23,5.61-.63,8.46-.07.49-1.24.27-1.34,1.41-.64,7.4-1.11,31.54,0,38.19.23,1.37,4.06,3.59,4.6,6.59.93,5.16,1.26,26.75.69,32.16-.13,1.2-.48,2.38-.72,3.55l-17.02,4.02v-374Z" fill="#fff"/>
  <path d="M248.3,365.1c7.18,12.73,6.58,22.44,10.96,34.59.69,1.91,3.26,5.33,4.17,7.79,4.7,12.68,6.62,24.97-.4,37.37-4.75-.85-7.49-5.9-12.42-7.46-3.63-1.15-7.41-1.07-11.17-1,1.02-4.99,1.01-8.74-1.53-13.28-1.37-2.45-18.42-20.96-19.84-20.73-2.57.41-.69,3.21.05,4.39,4.57,7.3,24.52,19.18,15.1,29.65-4.91,5.46-12.53,3.09-18.65,4.36-12.38,2.58-22.4,11.74-24.45,23.88-9.79-1.67-21.82-7.13-28.25-14.82-1.68-2.01-5.32-7.15-6.57-9.36s-10.13-19.89-10.39-21.03c-.66-2.84,1.66-7.61,1.67-11,.01-9.1-6.71-17.32-10.36-25.3,14.71,4.47,22.11-8.13,27.95-19.06,1.57-.22.85.42.72,1.37-.71,5.19-2.92,8.96,4.69,10.29,14.09,2.47,23.57-11.74,26.8-23.49,2.9-.08-3.54,15.48,9.7,13.63,11.21-1.57,20.33-13.43,19.56-24.15,6.24,1.53-.28,14.17.93,15.81,4.92,2.27,9.27-2.12,13.72-3.25,1.85.38,6.88,8.8,8.01,10.8ZM247.34,381.18c1.57-11.57-31.37-11.31-25.97-.66,1.32,2.61,10.71-.39,13.83-.48,2.02-.06,11.66,1.62,12.14,1.14ZM191.3,385.28c-5.25-5.48-23.12,5.33-26.69,10.8-1.72,2.64-4.42,10.48,1.09,9.29,2.73-3.41,7.82-7.73,11.7-9.64,2.78-1.37,13.38-3.69,14.06-4.34,1.15-1.09.86-5.03-.16-6.1ZM250.53,399.02c-4-2.32-3.52,3.37-4.59,5.41-3.8,7.28-12.29,2.73-16.03-2.2-3.35,6.86,7.36,10.82,13,9.69s10.95-10.96,7.62-12.9ZM177.21,421.04c-.45-.26-.41-1.63-1.86-1.79-5.55-.6.39,5.54,2.5,6.74,10.15,5.79,23.63.3,20.19-12.3-3.54-.44-2.2,4.56-3.95,7.24-4.15,6.32-12.01,2.9-16.88.1Z" fill="#fff"/>
  <path d="M109.54,630.7c.05.17.86.35.97.79,1.42,5.42,2.29,10.96,4.58,16.14-9.75,7.8-18.31,16.81-23.83,28.1-5.72,11.69-9.09,25.17-10.93,38.05-13.81-7.06-28.47-14.16-41.63-22.47-5.97-3.77-13.42-7.22-14.24-14.68-.63-5.66-.62-14.98-.7-20.99-.11-8.32.05-39.49,3.8-44.91s24.86-14.04,31.4-15.93c2.86-.83,5.29-1.95,8.46-1.21,1.91.73.88,6.07,1.09,8.11,3.05,29.26,16.64,19.88,37.49,13.15,1.03.44,2.81,13.14,3.53,15.86ZM97.73,652.4c-4.83-6.05-28.52-14.89-37.12-19.79s-16.15-11.16-24.96-15.46c-1.23,1.47,8.47,8.42,9.91,9.47,15.79,11.48,34.06,17.92,51.15,27.02l2.04-.35c.26-.97-.69-.48-1.02-.9Z" fill="#fff"/>
  <path d="M467.92,60.42c6.97,8.17,12.99,17.76,21.35,24.67,2.78,2.29,10.75,8.69,14.17,5.59,5.24-4.76-9.12-17.62-12.17-20.73-.81-.69-1.58-.54-1.33.66.17.82,9.45,10.01,10.57,13.1,4.39,12.16-8.51.55-11.23-1.92-6.9-6.24-12.92-13.9-18.4-21.37h43.06l41.75,45.02v35.82l-40.1-38.78c1.98,4.06,5.54,8.14,8.55,11.49,6.41,7.13,15.26,15.76,22.32,22.38,1.5,1.4,7.64,4.95,8.61,6.68,1.56,2.77.16,7.08-.05,10.05-1.8,1.85-36.29-30.5-39.41-33.22-15.93-13.88-31.62-28.17-47.59-42.13-6.77-5.92-14.32-11.08-20.82-17.32h20.71ZM551.74,115.63c.1-1.26-.83-2.43-1.61-3.31-6.43-7.18-16.06-16.25-23.36-22.66-5.99-5.26-12.41-10.37-19.07-14.78l44.04,40.75Z" fill="#fff"/>
  <path d="M307.82,558.66c-4.54,2.85-9.63,4.92-14.12,7.89-1.51,1-3.22,3.96-4.75,4.45-2.81.91-8.55.79-12.15,1.65-13.59,3.27-39.65,17.43-34.57,34.82.77,2.65,5.82,2.6,3.46,7.04-1.64,3.08-18.24,12.04-21.34,16.17l-3.18-.17-37.29-14.67c-.07-2.59-1.55-6.32-.84-8.74,1.16-3.95,24.6-20.33,29.37-23.23,29.23-17.83,60.98-26.08,95.41-25.22Z" fill="#fff"/>
  <path d="M295.12,669.28c2.35,4.19,4.26,11.06-2.64,11.01-2.08-4.62-4.94-9.03-8.67-12.51-2.07-1.93-15.86-12.58-17.39-7.58,7.92,3.95,25.38,16.05,24.2,26.11-.27,2.32-2.33,4.66-4.82,4.51-.91-.06-7.23-9.17-8.61-10.51-2.87-2.78-14.87-10.91-18.51-11.14-1.05-.07-1.49-.11-2.12.88-.32,1.68-.01,1.23.81,1.82,1.67,1.2,6.55,2.81,9.24,4.55,3.12,2,7.54,5.09,9.94,7.79s7.13,8.48,4.11,11.59c-5.06,5.2-10.95-4.12-14.24-6.69-2.54-2-18.38-12.06-20.38-10.18-.11,1.07-.14,1.5.65,2.3,1.06,1.07,11.92,5.72,14.67,7.68,3.38,2.39,6.96,5.14,8.23,9.31-5.99,7.42-17.44-3.38-24.54-6.15-8.97-3.51-17.16-2.99-25.99-5.57-10.11-2.96-10.06-4.54-5.86-14.27,3.38-7.83,16.36-24.96,25.32-26.09,17.42-2.21,47.49,6.91,56.59,23.15Z" fill="#fff"/>
  <path d="M63.5,342.84c.03.17.97.08,1.12,1.17,2.61,19-10.82,24.69-27.31,26.03-4.83.39-29.27.52-32.14-1.44l-1.05-51.13c14.56-3.71,32.4-2.17,45.66,5.22,8.85,4.93,11.76,10.45,13.72,20.16Z" fill="#fff"/>
  <path d="M19.86,701.28l34.18,17.09c.24-1.2-.55-1.66-1.36-2.24-8.89-6.39-22.43-11.25-32.01-16.96-.17-3.04-.97-15.45,3.98-14.21l55,33.02-7.19,49.03-51.29-31.86c-.31-.51-1.3-2.93-1.3-3.3v-30.56ZM34.33,728.24c7.92,6.97,18.52,13.58,28.06,18.28.99.49,10.82,5.62,10.71,3.08l-38.78-21.35Z" fill="#fff"/>
  <path d="M295.08,445.19c5.31,7.61,11.59,15.15,15.51,23.61,5.88,12.69,9.99,27.3,11.71,41.2-20.54-13.26-44.03-22.3-69.03-20.38,1.57-2.93,5.57-5.03,7.48-7.3,10.62-12.63,13.47-33.59,12.23-49.54l-3.27-17.43c6.64.94,21,5.2,22.3,12.86,1.44,8.49-3.25,7.91,3.08,16.97Z" fill="#fff"/>
  <path d="M271.02,625.68c3.57-9.56,14.49-11.9,19.71-19.7-.69-.64-9.97,4.81-11.13,5.62-6.07,4.24-14.04,17.9-20.41,9.02-.65-2.39,7-11.07,9.19-13.01,1.92-1.7,12.51-8.14,12.85-8.85.56-1.17.11-1.28-.7-1.99-4.08-1.02-23.53,15.97-24.63,21.36-13.45,1.17-1.77-15.36,2.6-19.75,2.88-2.89,8.75-5.83,11.2-8.52s.39-3.66-2.46-2.46c-.99.42-7.62,5.4-8.72,6.39-2.73,2.45-10.04,13.43-10.91,13.5-7.24.56,1.06-14.67,3.69-17.44,11.97-12.62,41.18-21.44,56.76-12.71,5.64,3.16,18.17,15.41,19.88,21.57.81,2.92-2.29,5.1-4.32,6.92-9.18,8.28-19,8.05-29.27,12.8-7.54,3.49-14.87,12.68-23.33,7.22Z" fill="#fff"/>
  <path d="M549.11,526.46c.38.45.12,1.75-.99,1.28l-110.47,17.45-79.21-24.99,58.72-7.6c1.84,3,4.27,4.98,7.69,5.97l-.41,1.36c-12.68,6.94,7.26,12.58,13.4,13.58,8.3,1.35,29.68,1.38,36.28-4.15,5.99-5.01-2.08-10.14-1.91-11.1,1.36-.51,4.36-5.4,4.69-5.55.46-.22,2.71.81,4.13.61,2-.27,3.97-1.26,5.88-1.27,8.79,0,45.3,9.18,55.76,11.95.89.24,6.2,2.17,6.43,2.45Z" fill="#fff"/>
  <path d="M549.12,529.73v11.83l-109.14,19.72v-11.5l-1.96-.98c-1.25.85-.99,10.4-1.32,12.17-.15.81.4,1.22-.9.9l-74.51-26.08c-4.8-2.16-1.79-7.21-3.35-11.14l.95-1.43,80.1,24.27,110.14-17.75Z" fill="#fff"/>
  <path d="M38.93,418.32c16.74-15,36.15-26.53,56.86-35.18-.23,6.39-.76,12.08.65,18.43,1.23,5.56,7.84,12.88,8.2,17.44.07.85-.76,6.06-1.27,6.55-.73.71-16.32,4.81-19.52,6.12-4.19,1.71-9.1,4.41-13.14,6.58-2.67,1.44-9.92,7.06-11.6,7.52-2.34.64-7.91-1-11.32-.86-2.99.13-5.82,1.53-8.85,1.33v-27.94ZM84.29,408.79c-9.59.25-17.49,6.31-25.29,11.18l-7.57,8.52c10.4-7.63,20.98-14.57,32.87-19.71Z" fill="#fff"/>
  <path d="M460.36,475.18c-2.93,13.81,14.02,12.42,16.15,26.25,4.06,26.36-56.81,24.43-59.5,3.6-1.77-13.7,19.32-17.52,19.69-30.51,7.8,2.55,15.69.45,23.66.67Z" fill="#fff"/>
  <polygon points="507.7 567.85 506.7 630.3 471.86 616.49 471.49 575.39 507.7 567.85" fill="#fff"/>
  <path d="M237.19,519.6c-.08.19-.86.27-.99.75.66,6.32,5.06,13.86,1.94,20.55l-8.93-15.73c-1.6-2.44-6.46-3.25-9.2-3.34-5.87-.21-13.2,1.23-19.49.53-12.67-1.41-24.42-7.39-33.39-16.3l.39-1.35c7.57-.37.68-18.75,1.57-19.67,22.25,11.71,45.46,17.94,70.57,11.25,1.93.56,5.21,9.96,5.02,12.01-.35,3.88-5.65,7.03-7.5,11.3Z" fill="#fff"/>
  <path d="M533.99,548.13v93.34l-22.83-9.05-1.45-1.74.71-63.07c.76-1.91,6.87-.13,9.67-4.14,2.61-3.73.9-9,1.5-13.3l12.41-2.05ZM520.85,614.52c1.27-.27,1.15-1.32,1.32-2.29.52-3.03,1.43-35.19-.34-35.18-1.17,12.43-1.65,25.04-.98,37.47Z" fill="#fff"/>
  <path d="M4.08,783.45l17.75-5.25c-3.94,11.77,6.71,16.98,15.31,21.83,11.28,6.36,17.98,9.16,30.7,3.15l2.64,7.22-66.4,19.07v-46.01Z" fill="#fff"/>
  <path d="M313.08,465.97c-2.96-3.14-4.17-7.75-6.57-11.32s-7.64-8.31-9.57-12.31c-4-8.31,3.11-17.72-8.41-23.86-.72-7.18,2.25-25.58-1.09-31.06-1.21-1.99-4.51-3.99-6.29-5.56.65-6.71,11.52-2.45,17.16-2.63,9.98-.33,13.92-4.86,14.69,10.24,1.19,23.3-1.31,49.12-.62,72.93.04,1.32.66,2.31.69,3.57Z" fill="#fff"/>
  <path d="M4.08,837.34l.38-4.68,68.34-19.63c14.79,4.36,23.88,14.17,34.5,24.31H4.08Z" fill="#fff"/>
  <path d="M50.1,803.16l-11.7-6.38-1.11-32.4c-.65.65-1.65,3.63-1.65,4.27v25.96c-3.15-1.24-10.25-4.24-11.03-7.7l-.14-45.54,25.63,16.1v45.68Z" fill="#fff"/>
  <path d="M444.22,605.06c.58,1,3.04,1.74-.46.77-6.01-1.67-12.79-4.45-18.86-5.48-17.75-2.99-36.69.98-54.61.36,7.82-8.67,11.27-18.73,6.57-30.22,10.72,4.22,20.56,10.72,31.1,15.24,11.97,5.13,29.21,7.25,36.25,19.34Z" fill="#fff"/>
  <path d="M293.23,345.2c11.59-.92,24.24,6.04,22.42,19.15-2.03,14.63-31.46,15.07-37.01,4.92-6.38-11.67,2.23-23.09,14.58-24.07Z" fill="#fff"/>
  <path d="M427.49,561.94c8.49,3.79,15.6,2.14,24.33.65l-.98,46.01c-2.86-1.71-2.85-5.02-5.28-7.87-4.43-5.19-11.5-8.76-17.78-11.15l-.87-1.16c-.19-.97.58-1.58.58-1.83v-24.65Z" fill="#fff"/>
  <path d="M454.44,574.42v-12.49l64.13-10.55c.52,3.62,1.27,9.91-2.97,11.56l-61.17,11.48Z" fill="#fff"/>
  <path d="M456.83,420.86c10.39,11.6,12.12,35.22-7.68,37.56-3.22-1.33-3.94-14.91,1-16.11,3.6,1.43-.12,13.11,1.99,13.13,3.46.04,4.24-17.8-2.75-15.94-3.74.99-6.78,6.8-6.8,10.4-.01,1.53,2.72,7.73.38,7.5-4.73-.45-8.3-8.46-8.26-12.75.13-14.93,13.05-17.24,14.48-29.95,2.27,1.66,5.84,4.14,7.64,6.16Z" fill="#fff"/>
  <path d="M39.83,541.96c4.89,7.92,6.16,20.11,11.41,28.34l12.02,20.21-23.99,8.9c-1.49-19.7-.91-39.42-.33-59.16,1.1-.2.46,1.01.89,1.71Z" fill="#fff"/>
  <path d="M133.37,434c4.58,4.42,6.3,15.59,9.89,21.92,1.84,3.23,7.72,6.17-2.26,7.92-13.22,2.32-25.09-6.43-25.55-19.99-.36-10.78,10.05-17.42,17.92-9.85ZM126.11,440.38l-.41,1.61c3.38.87,9.06,7.62,11.18,8.54,1.18.51,1.22.19,1.96-.66-.97-3.99-8.83-10.47-12.73-9.49Z" fill="#fff"/>
  <path d="M537.28,547.47l7.48-1.25c2.46.85.41,10.42.38,12.73-.28,21.22.25,42.46.06,63.68l-7.92,1.75v-76.9Z" fill="#fff"/>
  <path d="M54.05,759.78l17.71,11.43-4.23,28.66c-.42.58-12.33,5.15-13.48,2.96v-43.05Z" fill="#fff"/>
  <path d="M580.67,640.82c.2,1.8-.07,1.03-.98,1.3-3.33.97-28.41,7.18-29.93,6.98-1.4-.19-11.69-5.33-12.15-6.31l-.22-14.02c7.74-6.25,12.16-.7,19.17,2.31,7.95,3.42,16.07,6.58,24.11,9.75Z" fill="#fff"/>
  <path d="M99.41,373.95c.02,1.18-.27,2.32-.73,3.4-.8,1.87-30.8,15.89-35.78,18.93-9.02,5.51-16.36,12.25-24.63,18.42-.44-4.09-.36-7-3.27-10.12,19.07-14.01,40.69-26.64,64.4-30.63Z" fill="#fff"/>
  <path d="M590.54,671.05l-36.16-19.4,10.24-3.56c8.09-.62,18.35-6.96,25.92-3v25.96Z" fill="#fff"/>
  <polygon points="424.86 574.42 384.75 558.98 384.75 547.47 424.86 561.61 424.86 574.42" fill="#fff"/>
  <path d="M468.25,575.08v36.48c0,.74,2.04,3.64-.32,3.62-2.9-.03-9.39-4.71-12.84-4.92l-.03-32.78,13.19-2.4Z" fill="#fff"/>
  <path d="M285.47,416.67l-17.4-5.28c-4.66-8.44-5.38-16.9-7.64-25.77-.13-.5-2.41-1.04-.92-2.48,9.62,3.52,18.28,9.3,25.96,16.11v17.42Z" fill="#fff"/>
  <polygon points="546.81 60.42 547.47 90.66 517.56 60.42 546.81 60.42" fill="#fff"/>
  <path d="M478.77,510.01c.07-.79,1.13-6.29,1.34-6.55.1-.12,2.15-.06,3.07-.53,16.32-8.16,5.72-23.44-8.03-11.97l-3.37-3.98c7.46-11.67,27.08-10.86,26.48,5.69-.4,11.16-8.83,17.32-19.49,17.33Z" fill="#fff"/>
  <path d="M427.95,520.63c9.08,2.79,20.64,3.44,30.13,2.55,5.1-.48,9.53-4.48,13.48-1.04,6.95,6.06-10.49,8.98-14.33,9.39-9.74,1.04-25.27-.25-32.86-6.73l3.58-4.17Z" fill="#fff"/>
  <path d="M370.29,542.22l11.75,4.04c-.08,11.66-2.43,17.28,11.17,19.7l.13.87c-.55,1.45,1.03,7.84-1.01,7.58-.95-.12-15.97-7.65-17.02-8.62-.81-.75-5.02-7.6-5.02-8.12v-15.45Z" fill="#fff"/>
  <polygon points="424.76 577.15 424.19 588.22 396.57 576.74 396.59 567.19 424.76 577.15" fill="#fff"/>
  <path d="M438.49,465.47c2.52-.53,17.02-.58,19.43-.01,2.59.6,6.08,4.52,2.62,6.28-3.07,1.56-25.44,1.74-26.42-2.22.15-2.13,2.48-3.65,4.37-4.05Z" fill="#fff"/>
  <path d="M286.12,395.64c-7.77-6.15-16.09-12-25.63-15.13.66-8.23,9.01-2.4,13.35.13,5.25,3.06,13.54,8.04,12.28,15Z" fill="#fff"/>
  <path d="M478.93,499.98c-.19-.23-2-5.29-2.03-5.58-.31-2.86,7.57-6.19,10.15-4.17,3.86,3.94-4.95,13.45-8.12,9.75Z" fill="#fff"/>
  <path d="M228.6,457.43c4.04-.56,10-4.13,13.81-5.9,2.89,2.13-1.55,4.21-3.37,5.17-5.1,2.68-15.62,5.16-21.15,3.6-2.85-.81-3.64-2.86-1.78-2.86,3.73,0,9.03.48,12.49,0Z" fill="#fff"/>
  <path d="M333.47,616.49c-4.99.58-8.19-2.09-11.16-5.59l8.2-6.9c1.81,3.87,3.2,8.15,2.96,12.49Z" fill="#fff"/>
  <path d="M218.41,689.46c.73,1.06-5.91,7.5-7.45,8-.67.22-.66.92-1.45-.1l-.3-11.2,9.2,3.3Z" fill="#fff"/>
  <path d="M157.93,476.49c1.15-1.04,3.67,3.83,4.59,4.27-.95.16-4.82-4.06-4.59-4.27Z" fill="#fff"/>
  <path d="M179.39,104.04c33.46,36.05,17.62,69.36,21.96,111.69.05.47,1.23.26,1.34,1.41.97,10.4-.82,22.33-.05,32.9.57,2.17,2.92,1.91,4.26,3.63,2.48,3.18,4.96,26.63-3.92,26.29-35.1.42-70.09.45-105.23.62-18.53.09-40.92,2.45-59.17.7-3.17-.3-7.4-1.13-8.56-4.58-.5-1.49-.02-2.93-.32-4.17-1.41-5.78-2.24-11.77.76-17.81.92-1.85,3.42-2.11,3.87-4.02,1.62-6.88-.41-25.03-.03-33.55.12-2.74,1.93-6.97,1.94-8.52.01-1.74-2.92-9.56-3.22-13.17-1.33-15.72,1.46-32.99,2.63-48.61,2.07-27.78,32.5-60.02,59.14-66.42,31.55-7.58,62.39-.32,84.59,23.59ZM39.91,155.07h15.12c6.26-20.79,15.81-39.65,36.71-48.75,31.32-13.63,69.97.06,83.39,31.88,2.19,5.2,2.65,10.61,5.8,15.28l16.4.89c.1-30.06-24.84-58.78-51.91-69.29-42.9-16.65-95.86,12.7-105.79,56.69-.49,2.17-1.65,12.59.28,13.3ZM115.19,120.23c.37-.35.06-3.6-1.63-3.28-2.98.57-.38,5.16,1.63,3.28ZM142.8,132.72c-1.62-1.61-2.33,5.58-2.69,5.84-.79.59-4.25-.79-5.19,1.07,3.1,3.51,2.86,5.03,1.97,9.52,5.66-3.61,6.73-3.78,12.48,0-1.49-4.79-1.53-6.06.66-10.51-4.03,1.14-5.95-2.76-7.24-5.92ZM128.34,183.33c-19.79-1.17-32.08-14.43-27.41-34.97,1.56-6.87,5.13-8.23,7.43-12.95.37-.75,1.43-.88.27-1.72-9.86-1.18-23.01,8.57-26.79,17.28-10.01,23.1,9.65,42.93,32.94,40.17,2.39-.28,16.16-4.16,13.55-7.81ZM180.94,203.71h14.79c.38,0,1.95-.8,1.69-1.63l-.15-43.96-.98-.99h-15.25s-.1,46.58-.1,46.58ZM55.21,159.18l-16.36-1.09c-3.59,6.17-3.59,47.23.49,48.81l14.32-.7,1.41-1.82.14-45.21ZM158.26,166.25c-1.75.53-1.32,4.72,1.3,3.93,1.75-.53,1.32-4.72-1.3-3.93ZM150.83,210.8c-.7-.45-2.13-5.84-2.43-5.78-2.71,5.33-2.89,5.97-8.86,7.56,5.29,2.88,3.58,4.57,2.62,9.53,5.07-2.73,6.56-2.77,11.82-.66l-1.21-6.12,4.5-3.73c-1.32-.21-5.62-.27-6.44-.8ZM197.38,250.38c.45-11.79,1.61-25.47.69-37.17s-7.41-4.74-16-6.23c-.45.13-1.12,1.44-1.12,1.66v40.75l.99.99h15.45ZM86.53,212.66c-.85-1.78-.22-4.59-2.23-5.67l-1.42,9.1-6.47.77c4.57,3.63,4.51,4.94,2.63,10.5,5.22-2.36,7.53-3.78,13.14-.65-4.16-7.24,1.18-5.73,2.63-11.17-.7-.71-5.28,3.4-8.28-2.88ZM55.36,251.03v-39.77c0-2.81-14.16-1.62-16.46-.68-1.74,1.39-1.97,38.73-.31,40.45,2.01,2.09,13.42-.95,16.77,0ZM119.13,211.6c-.59-.55-5.27-.08-3.64,2.65,1.91,3.19,4.82-1.54,3.64-2.65ZM155.77,238c-2.99.83-1.39,4.31,1.04,3.76s2.58-4.77-1.04-3.76ZM128.87,253.86c-30.9.14-61.84.73-92.75.6-5.88.32-4.06,20.88-2.45,22.53l3.59,1.01,163.56-.86c1.02-.33,2.74-.4,3.51-1.09,1.35-1.2,2.81-21.75-3.11-21.96-24.09-.93-48.24-.34-72.35-.24Z"/>
  <path d="M433.17,104.03c1.14,1.97,1.48,4.78,2.3,6.92,13.62-.63,20.76,10.57,16.34,23.08,8.27.88,12.61,9.8,11.83,17.43-.33,3.22-2.92,6.11-3.09,7.97-.46,4.86,4.15,8.09.08,15.31-1.05,1.86-10.27,12.28-11.88,13.1-3.88,1.97-7.14,1.29-11.31,1.51-.78,9.21-5.19,15.27-10.62,22.24l13.14,2.34c4.73-6.57,9.36-13.37,15.48-18.75,7.55-6.64,42.54-27.17,51.89-30.29,21.38-7.11,17.98,22.73,4.98,29.94,18.05,5.92,1.87,26.01-10.53,25.97.69,2.6,3.27,2.11,3.9,5.62,1.87,10.4-10.66,15.28-19.03,16.07,4.58,7.42-5.85,11.65-6.46,13.61s.67,3.89.59,5.77c-.2,4.86-6.05,14.36-5.95,16.46.24,4.64,27.42,17.89,31.81,21.4,3.86,5.08,4.54,11.72,2.35,17.69,3.56.4,6.51.35,9.2,2.97,1.8,1.76,10.54,21.51,11.39,24.77s1.73,7.98.97,11.23c-.13.55-6.65,8.33-7.09,8.68-1.3,1.03-3.01.65-3.75,1.19-3.14,2.26-2.88,6-9.51,3.55-5.68-2.1-10.37-18.66-13.78-24.34-.51-.86-1.77-4.04-2.85-3.7l-12.01,10.17c5.44,6.07,7.23,31.89,2.77,37.12-3.11,3.64-11.79,5.8-16.42,5.3-7.97-.85-9.4-19.17-12.83-25-11.95,5.42-22.41,9.56-35.05,3.17-26.34-13.32-48.84-71.64-56.92-98.35-.45-1.48-1.61-10.27-2.05-10.65-17.78,5.09-39.06,3.01-56.05-4.1-5.67-2.37-23.52-12.78-24.68-18.72-1.06-5.45,3.22-9.07,5.11-13.66-11.96-2.22-34.94-18.18-31.37-32.03.51-1.98,3.04-3.16,3.15-3.6.59-2.51-3.14-5.1.06-8.96,2.63-3.17,6.38-1.22,9.76-1.08-3.62-24.89,21.44-6.24,24.34,5.26,1.09.95,8.78-10.11,15.38-3.23,5.69,5.93-3.32,13.87-2.9,20.31,5.27-.86,8.45,5.24,12.84,8.53,9.32,7,21.47,12,33.18,12.5-8.18-7.33-13.62-11.4-15.58-22.87-1.57-9.21-1.93-16.66-3.98-26.26-.37-1.75-.23-7.53-.95-8.58-.36-.52-4.46-1.27-5.6-1.96-6.8-4.07-10.94-10.5-9.24-18.71.77-3.7,4.7-3.95,3.76-7.24-1.51-5.33-1.83-6.65.53-12.13,3.84-8.91,10.52-11.96,19.59-13.94,2.78-22.63,38.51-34.76,53.89-17.13,10.46-7.97,26.73-6.34,36.17,2.6.5.47,4.46,5.16,4.66,5.52ZM389.77,97.46c-3.02-2.22-5.32-3.95-9-5.13-15.74-5.06-39.14,5.21-38.09,23.96-15.98-.66-26.21,12.32-19.73,27.6-2.81-2.11-6.11,5.15-5.99,6.93.2,3.01,8.25,14.67,12.47,12.04l.79-13.66,11.86-3.59c1.95-1.7-2.75-7.29.27-8.27,2.41-.78,2.6,3.75,3.72,5.47,5.12,7.89,15.82,2.11,18.3-4.46-1.98-.64-2.59-6.91-.5-7.83,6.94-3.05,3.58,8.73,5.31,11.21,4.85,6.96,20.01.44,21.24-7.01.14-.86-1.67-10.38,2.21-7.91,1.66,1.06-1.95,10.38,5.62,13.13,4.69,1.7,9.25.57,13.42-1.66,2.38-1.28,2.95-3.95,5.96-3.58.85,2.99-1.3,5.68-1.36,8.88-.15,7.65,5.64,13.24,13.2,12.81,1.22,3.87-3.99,7.23-.98,10.51l4.04-5.81c10.34-8.6,21.68,1.58,24.88,11.73,5.33-3.4-1.91-13.03-1.71-14.11.23-1.22,2.94-2.34,3.82-4.81,2.41-6.8-.68-14.45-7.61-16.86-1.04-.36-3.31,1.13-4.39-1.01,5.69-13.03-1.19-24.8-16.08-21.7-.46-20.49-25.31-25.32-39.79-14.62-.89-.1-1.25-1.78-1.87-2.24ZM413.67,140.61c-6.25,4.28-16.4,5.23-21.36-1.3-4.68,5.9-11.6,9.82-19.43,8.24-2.11-.43-6.39-3.65-6.77-3.6-.9.13-6.55,5.11-10.12,5.7-6.42,1.06-8.77-2.49-10.36-2.49-.65,0-9.33,5.69-12.03,4.75-.48,1.32-.69,2.72-.81,4.12-1.1,12.91,2.47,26.37,3.91,38.8,1.16,10.02,2.81,17.15,11,23.86,26.9,22.04,83.8,3.76,86.99-33.1,23.38,8.1,24.07-27.76,3.69-23.91-5.53,1.04-3.54,9.64-9.83,9.16s-3.37-10.02-3.99-11.16c-.46-.86-4.04-2.13-5.32-3.27-4.66-4.12-7.18-9.66-5.57-15.8ZM499.14,197.14c18.69.33,33.75-40.99,3.14-26.77-11.96,5.56-40.03,21.69-48.84,30.71-1.11,1.14-11.51,14.46-10.84,15.12,1.49-.12,2.68.28,3.98.96,9.8,5.12,22.31,17.07,28.11,26.45,1.04,1.69,3.61,8.71,4.95,8.68,3.46-1.51,5.05-4.21,4.24-8-.28-1.34-3.22-3.99-1.85-4.76,7.03.01,20.41-2.48,19.78-11.8-.41-6.13-8.57-4.55-7.93-7.23,7.67-1.74,25.23-7.8,22.87-18.27-1.9-8.39-16.17-.25-17.51-2.55l-.1-2.53ZM288.76,204.36c-7.38-3.53,2.21-12.6.98-16.39-1.4-4.33-17.75-23.23-20.26-13.07-1.46,5.91,5.3,11.45,5.47,16.97-5.74-1.95-8.71-12.52-15.64-6.46-.33.49,1.74,4.77,2.05,5.27,1.12,1.88,7.32,7.81,7.03,8.75-3.36,1.49-9.47-9.01-11.5-3.59-2.3,6.18,7.92,17.42,12.71,20.77,2.99,2.09,14.63,7.86,17.84,6.51,1.68-5.02,11.78-13.41,13-17.27.45-1.41-.06-3.24.44-4.82,1.5-4.8,4.34-10.19,3.32-15.08-2.63-5.67-10.85,4.63-12.45,7.27-1.91,3.16-3.48,7.42-3,11.13ZM385.08,252.35c3.78-.8,10.04.59,14.14,0-3.69-2.45,1.04-6.94,4.28-7.26,6.13-.6,12.82,5.46,17.23,9.16l12.68-4.54c-2.95-2.74-5.38-6.41-5.91-10.5l8.98,9.77c4.46-.37,8.09-3.56,12.71-1.88.2,1.31-.17,2.14-1.29,2.87-.75.49-14.42,2.73-17.41,3.74-1.12.38-6.79,2.35-6.98,3.03,2.29,7.89,4.97,15.3,5.94,23.56.33,2.81-1.04,13.65,1.75,14.68,23.24.02,52.5-15.93,43.94-43.27-5.05-16.11-32.09-37.79-49.34-37.5-9.54.16-10.07,11.45-14.18,17.35-7.54,10.82-22.11,12.84-32.11,4.02-1.1-.97-1.81-3.72-3.08-4.15-1.92-.65-9.14-.88-12.29-1.51-8.47-1.69-11.98-1.74-20.38-2.63-10.61-1.12-25.9-9.78-33.97-16.65-3.95-3.37-2.97-6.33-8.86-.36-4.87,4.94-17.95,23.6-16.5,30.27,1.14,5.24,13.97,12.57,18.82,14.74,17.57,7.88,38.46,10.24,57.11,5.52.81-1.26-2.62-14.13.72-16.35,2.79,15.54,5.78,31.86,11,47.18,7.31,21.46,31.88,75.86,56.03,80.7,15.42,3.09,40.47-13.98,52.3-23.38,10.72-8.52,31.1-29.07,25.64-44.02-1.96-5.38-13.02-9.05-18.03-12.21s-11.34-7.09-14.52-11.46c-4.99,3.43-9.44,7.63-14.96,10.33-5.83,2.86-21.91,8.03-27.95,6.61-6.72-1.58-3.02-11.6-5.47-12.31-8.51,3.45-22.95,5.34-31.61,2.06-4.78-1.81-5.34-4.83-8.41-8-1.78-1.84-4.19-1.12-4.94-5.01-.24-1.24.58-2.7.29-3.58-.31-.95-2.51-1.61-2.91-3.6-1.03-5.07,3.47-5.14,3.82-6.6.29-1.22-1.48-3.94.07-6.41.12-.19,3.45-2.37,3.67-2.41ZM413.02,222.12c-6.51,1.96-12.26,6.11-18.93,7.69-4.02.95-7.78.71-11.62,1.54-.87.19-1.95-.67-1.66.95,11.84,11.96,27.03,3.34,32.21-10.17ZM396.91,263.52h-13.81c-.28,0-2.32,2.15-2.32,2.96-.02,4.74,19.09,4.45,19.07,5.91-2.04,2.71-15.69-.38-16.42.33-.69,3.9,3.98,5.28,6.96,5.85,1.63.32,9.91-.14,10.12,1.04-1.94,3.68-7.77,1.93-11.16,1.65,3.5,8.18,32.45,5.83,35.43.25,3.37-6.31-3.71-22.33-8.83-27.18-2.6-2.47-16.79-11.83-14.01-2.46.72,2.44,5.79,2.17,4.5,5.72-7.38-1.2-16.19-5.23-23.01-.3.52,5.21,14.05,3.59,14.46,4.26l-.98,1.97ZM525.06,344.11c-1.98-5.42-6.62-21.54-11.83-23.35-6.91-2.39-6.54,3.76-9.6,8.07-2.28,3.2-5.69,6.49-7.67,10.08-.08.73,6.32,9.67,7.08,11.26,2.03,4.24,4.86,20.27,11.9,16.88,4.01-1.93-2.55-8.25-.65-12.16l3.57,6.61c9.88,5.77-1.45-11.27,2.67-11.2,1.81,2.02,1.78,6.67,5.26,6.62,3.18.21,2.49-3.82,2.14-6.15-.39-2.61-2.17-4.8-2.85-6.66ZM480,354.32c-.72-.43-1.77-.05-2.51.27-4.8,2.07-13.53,10.66-19.03,13.22,3.43,6.83,2.61,22.88,11.76,23.88l-1.31-8.53c1.87-1.62,2.05,8.03,6.93,7.87l1.59-.97c-2.38-2.34-2.85-5.69-2.61-8.87,2.65.36,1.41,4.96,3.94,6.23,6.77,3.42,4.92-14.89,4.59-18.39-.47-4.99-1.24-10.15-3.36-14.71Z"/>
  <path d="M361.61,395.18c16.73-1.22,45.72-1.23,42.69,22.96-1.51,12.06-10.43,14.85-21.17,15.64-13,.95-45.78,3.02-48.29-14.22-2.84-19.51,10.54-23.21,26.76-24.39ZM399,405.71c-8.55-10.69-42.72-9.54-53.91-4.04-10.68,5.26-10.97,21.97.21,26.5,9.39,3.81,42.33,4.76,50.87-.41,6-3.63,6.88-17,2.83-22.06Z"/>
  <path d="M251.39,111.58c2,1.19,11.95-4.35,15.08-.95,2.83,4.23-3.33,8.71-3.4,11.89-.08,3.37,5.31,8.21,4.99,12.25-1.02,5.33-11.5.69-15.01.69-1.98.49-3.4,7.75-7.5,8.96-6.83,2.03-7.12-10.04-6.76-14.33-14.04-.69-17.89-11.14-1.38-13.2.76-14.22,6.01-20.65,13.97-5.3ZM249.06,112.59c-1.24-1.18-5.2-6.94-6.31-6.16-1.39,2.89-1.22,9.59-2.96,11.83-3.27,4.2-21.19,1.5,1.58,10.91l2.04,12.09c1.45,1,6.17-8.42,8.35-9.1,2.67-.84,9.18,3.17,12.68,1.87l-5.8-11.53c.08-2.14,2.62-3.22,3.7-5.36,4.44-8.74-6.13-2.6-10.71-2.16-1.59-.05-1.75-1.61-2.57-2.39Z"/>
  <path d="M490.16,457.21c-4.58-6.32-1.77-17.45,4.43-21.76,8.59-5.97,36.71-6.22,45.01.26,6.48,5.06,6.23,21.84-1.42,26.22-9.61,5.5-40.77,5.28-48.02-4.72ZM512.17,433.96c-11.54.65-21.5,2.54-20.28,16.59s23.22,12.29,33.25,11.5c11.18-.87,17.4-3.65,16.08-16.14s-19.3-12.51-29.06-11.96Z"/>
  <path d="M329.24,332.83c-7.38-10.32,3.08-17.43,12.77-12.78-.58-4.16,3.1-7.93,6.97-8.48,17.53-2.48,9.42,30.29,4.2,32.46-6.59,2.74-20.07-5.79-23.94-11.2ZM352.95,338.87c1.67-2.88,3.61-11.82,3.58-15.19-.11-13.6-13.55-11.04-11.89.97-.54.63-10.74-7.18-13.46-.64-3.54,8.53,12.84,16.97,19.38,17.44.33-.9,2.12-2.11,2.38-2.58Z"/>
  <path d="M256.37,239.37c3.5,3.1-3.56,8.06-3.78,10.04s3.55,8.36,1.36,9.88c-3.16,2.06-9.06-2.41-10.91-2.32-2.35.11-6.82,9.04-10.48,4.56-2.64-3.24.47-7.4-.45-10.04-.44-1.28-4.26-2.54-5.46-4.42-4.07-6.36,4.67-4.25,7.24-6.52,1.74-1.54,1.83-8.79,6.58-9.27,3.57-.35,3.94,6.51,6.21,7.6,2.41,1.15,7.37-1.56,9.69.49ZM251.28,256.29c.33-.3-2.39-6.67-1.87-8.72.42-1.66,7.76-6.06,2.21-6.45-6.69-.47-7.53,3.1-10.86-6.52-3.61,5.67-2.87,9.76-11.16,9.87-1.11,1.62,5.43,4.73,5.8,6.37.34,1.49-1.3,5.95-.54,8.08.77.94,6.88-4.92,8.33-5.11,1.33-.17,5.87,3.11,8.1,2.48Z"/>
  <path d="M491.07,134.87c.86.95.52,2.94,1.85,3.77,5.42-4.44,13.17.84,12,7.38-.94,5.25-14.32,14.48-19.8,14.89-4.64-6.95-10.12-15.92-6.38-24.43,2.37-1.92,4.32-5.23,7.93-4.16.24.07,4.22,2.36,4.39,2.54ZM490.08,142.44c.16-4.97-4.47-11.15-8.16-4.93-3.05,5.14,1.46,15.01,3.43,20.18,6.2-2.02,21.73-10.75,13.48-17.81-4.19-1.58-5.19,4.53-8.76,2.56Z"/>
  <path d="M322.13,112.18c-2.43,2.43-7.73-1.89-10.04-1.75-1.84.11-4.35,3.76-6.89,2.27-2.7-2.15-.37-5.98-.76-7.78-.34-1.54-5.24-4.26-3.56-7.08.87-1.16,5.82-.74,6.82-1.4.66-.43,1.83-5.86,4.42-5.82,1.88.04,2.74,4.27,4.26,4.97,2.01.92,5.42-.3,7.6,1.62,2.84,2.5-2.87,4.81-2.97,6.9-.08,1.79,3.34,5.63,1.13,8.07ZM314.6,97.68c-.61-.42-2.24-3.82-2.49-3.74-2.06,4-2.79,6.87-8.22,5.92,3.77,3.18,4.8,4.75,3.29,9.85,5.2-3.16,7.22-.24,12.48,0-1.69-5.8-1.55-6.5,1.97-11.17-2.29-.14-4.95.55-7.03-.87Z"/>
  <path d="M300.43,288.66c2.44,2.26-2.1,5.65-2.23,6.73-.22,1.75,3.18,5.59.99,8.14-1.49.94-5.67-1.44-7.46-1.23-1.93.23-4.17,4.72-7.48,3.2-1.37-1.72-.19-5.87-.86-7.04-.14-.24-3.51-1.27-4.52-3.03-3.26-5.64,3.59-3.34,4.98-4.95,1.18-1.36.28-8.55,4.24-6.93,1.54.71,3.08,4.52,4.35,4.79,1.54.33,5.82-1.69,7.99.32ZM297.96,290.48c-4.49.06-7.74.87-10.51-3.29-.38,4.91-1.65,5.48-5.92,6.91-.42,1.79,3.58,1.74,4.28,2.93,1.13,1.94-.9,6.13.65,6.58,3.21-4.14,5.04-5.44,10.18-3.29-1.98-4.85-1.44-5.78,1.32-9.85Z"/>
  <path d="M524.13,264.19c1.27,4.03,1.86,9.7-3.95,8.23-1.75-.44-3.53-2.67-4.35-2.82-1.58-.3-5.22,2.04-7.38,1.06-2.02-2.2,1.12-6.25,1.01-7.47-.09-1.04-4.38-4.02-3.01-6.47.77-1.96,5.74-.54,7.96-1.75,1.21-.66,2.77-5.5,4.71-5.2,2.54,1.03,2.28,5.63,3.71,6.85,2.16,1.84,15.01,2.75,1.29,7.58ZM526.76,260.24c-4.67-.35-7.33-1.6-7.9-6.58-2.73,3.22-4.68,4.5-9.19,3.95,3.49,4.49,2.45,5.35,1.32,10.51,5.55-2.54,6.51-.04,11.17,1.97-.29-6-.84-7.1,4.61-9.85Z"/>
  <path d="M538.59,692.09c-4.47,1.55-12-2.42-16.22-4.49-19.37-9.49-35.87-26.87-54.21-38.48-29.71-18.8-56.71-26.15-92.19-21.36-7.3.98-16.7,4.6-23.17,5.1-.65.05-2.23.33-1.57-.91,1.73-3.25,26.65-7.75,31.24-8.21,28.29-2.82,53.6,3.43,78.09,17.2,27.24,15.32,48.4,39.99,78.03,51.15Z"/>
  <path d="M317.28,703.01c2.55,4.38,3.49,8.9,5.76,13.62,8.89,18.56,32.93,35.15,51.86,42.15,7.94,2.94,16.32,4.23,24.31,6.91-8.42,1.49-18.7-1.62-26.65-4.56-24.38-9.03-55.19-32.92-56.85-60.83.94-.86,1.15,2,1.57,2.71Z"/>
  <path d="M179.36,755.59c-2.98,15.35-3.63,33.77-6.98,48.55-.21.93.04,2.04-1.3,2.31-.11-12.73.95-25.64,2.83-38.24,1.38-9.26,2.85-19.49,7.67-27.49.29,5.11-1.28,9.95-2.23,14.87Z"/>
  <path d="M580.67,265.49l-1.32-.97c-1.38-25.55.5-51.3.69-76.89.14-19.26-2.55-41.62-.05-60.52.13-.98.12-2.03,1.33-2.28l-.65,140.66Z"/>
  <path d="M581.98,306.91l-3.61,120.95c-2.06-19.22-.05-38.82.35-58.15.43-20.62-.29-41.28,1.97-61.81l1.29-.99Z"/>
  <path d="M559.85,511.79c3.17,19.33.56,39.17-.27,58.32-.46,10.74.71,21.55-.6,32.26l-1.32.97.66-98.59c1.75,1.59,1.17,4.87,1.52,7.04Z"/>
  <path d="M580.01,565.88c-1.63-1.26-1.85-6.03-1.99-8.19-1.85-28.25.19-68.78,2.67-97.29.17-1.95.7-4.54,1.63-6.27l-2.31,111.75Z"/>
  <path d="M566.87,500.15c-.87-30.1-.96-60.88,2.29-90.71l-2.29,90.71Z"/>
  <path d="M564.89,251.03c-1.1-.59-1.26-3.76-1.33-4.9-1.06-16.42-.24-37.76,0-54.61.09-6.25.63-13.99,1.68-20.02l-.34,79.54Z"/>
  <path d="M566.86,352.91c-1.12,0-1.23-2.17-1.31-2.95-1.79-18.86-.2-43.82.67-63.09.16-3.43.23-9.71,1.95-12.17l-1.32,78.21Z"/>
  <path d="M560.95,379.86l.73,51.61-1.71,2.96c-2.79-17.96-1.71-36.45-.99-54.57h1.97Z"/>
  <path d="M251.94,34.79c-1.17,2.52-4.15.65-6.22.62-31.88-.49-63.6,1.88-95.38.65-5.88-.23-12.42-1.76-18.36-1.96-11.83-.4-23.74,1.52-35.55.71-1.05-.07-5.43-.2-5.57-1.66,12.56-.13,25.26-2.18,37.84-1.68,7.46.29,14.88,2.27,22.3,2.69,33.34,1.89,67.69-3.31,100.94.64Z"/>
  <path d="M447.87,34.79c-.39,1.47-1.78,1.23-2.92,1.34-6.04.61-12.43-1.2-18.42-1.37-16.45-.48-36.36-.94-52.65,0-9.97.58-20.99,3.39-30.85,4-16.77,1.03-35.79.21-52.3-2.33,6.12-2.47,12.57.17,18.72.35,35.28,1.06,69.89-7.09,105.25-3.94,10.95-1.19,22.11,1.69,33.17,1.95Z"/>
  <path d="M564.24,47.92l-128.87-.32c5.5-1.23,11.5-.26,16.75-.3,30.15-.28,60.61-2.12,90.79-1.37,5.42.14,14.18.02,19.06.66.98.13,2.03.12,2.28,1.33Z"/>
  <path d="M320.98,46.62c-1,1.23-5.69,1.25-7.54,1.33-20.1.88-40.42-.74-60.54,0l-8.19-1.67,76.27.33Z"/>
  <path d="M63.49,484.14c8.19,9.05,13.38,18.31,18.01,29.65,9.32,22.84,15.71,48.71,13.31,73.78-1.21-.25-1.2-1.3-1.33-2.28-2.34-17.73-2.32-27.96-7.15-45.57-6.71-24.46-14.9-47.85-35.56-64.23-.24-1.99,2.2-.71,3-.37,3.69,1.57,7.09,6.11,9.72,9.01Z"/>
  <path d="M127.68,481.08c-8.56-5.21-17.05-10.21-26.81-12.95-4.94-1.39-9.93-1.87-14.93-2.82-.96-.18-2.03,0-2.3-1.3,8.53-1.63,18.44.97,26.47,4.09,2.24.87,20.83,9.45,17.57,12.99Z"/>
  <path d="M121.5,710.89c-6.26,22.21-5.86,45.59-10.95,67.45-.03.13-1.48,1.8-1.92,1.81.13-5.14-.02-11.08.6-16.14,2.49-20.63,5.46-49.7,14.61-68.88.61-1.27,2.73-6.33,4.49-4.04-3.12,6.32-4.93,13.07-6.82,19.8Z"/>
  <path d="M191.3,385.28c1.02,1.07,1.31,5.01.16,6.1-.68.65-11.28,2.97-14.06,4.34-3.89,1.92-8.97,6.23-11.7,9.64-5.5,1.19-2.81-6.65-1.09-9.29,3.57-5.47,21.44-16.28,26.69-10.8Z"/>
  <path d="M247.34,381.18c-.48.48-10.13-1.19-12.14-1.14-3.12.09-12.51,3.09-13.83.48-5.4-10.65,27.54-10.92,25.97.66Z"/>
  <path d="M177.21,421.04c4.87,2.8,12.73,6.22,16.88-.1,1.76-2.68.41-7.68,3.95-7.24,3.44,12.6-10.04,18.08-20.19,12.3-2.11-1.2-8.05-7.35-2.5-6.74,1.44.16,1.4,1.53,1.86,1.79Z"/>
  <path d="M250.53,399.02c3.33,1.94-2.26,11.82-7.62,12.9-5.63,1.13-16.35-2.83-13-9.69,3.74,4.93,12.23,9.49,16.03,2.2,1.06-2.04.59-7.74,4.59-5.41Z"/>
  <path d="M97.73,652.4c.33.42,1.28-.08,1.02.9l-2.04.35c-17.09-9.09-35.36-15.54-51.15-27.02-1.44-1.05-11.15-8-9.91-9.47,8.82,4.3,16.42,10.59,24.96,15.46s32.29,13.74,37.12,19.79Z"/>
  <path d="M551.74,115.63l-44.04-40.75c6.66,4.41,13.07,9.53,19.07,14.78,7.3,6.4,16.93,15.48,23.36,22.66.79.88,1.72,2.05,1.61,3.31Z"/>
  <path d="M34.33,728.24l38.78,21.35c.11,2.55-9.72-2.59-10.71-3.08-9.54-4.7-20.14-11.3-28.06-18.28Z"/>
  <path d="M84.29,408.79c-11.88,5.13-22.47,12.08-32.87,19.71l7.57-8.52c7.8-4.88,15.7-10.93,25.29-11.18Z"/>
  <path d="M520.85,614.52c-.67-12.43-.19-25.04.98-37.47,1.77,0,.86,32.16.34,35.18-.17.97-.05,2.02-1.32,2.29Z"/>
  <path d="M126.11,440.38c3.9-.97,11.77,5.5,12.73,9.49-.75.85-.78,1.18-1.96.66-2.13-.93-7.8-7.68-11.18-8.54l.41-1.61Z"/>
  <path d="M128.87,253.86c24.1-.11,48.25-.69,72.35.24,5.92.22,4.46,20.76,3.11,21.96-.78.69-2.49.76-3.51,1.09l-163.56.86-3.59-1.01c-1.62-1.65-3.43-22.21,2.45-22.53,30.91.13,61.86-.47,92.75-.6Z" fill="#fff"/>
  <path d="M39.91,155.07c-1.93-.71-.77-11.13-.28-13.3,9.92-43.99,62.88-73.35,105.79-56.69,27.07,10.51,52.01,39.23,51.91,69.29l-16.4-.89c-3.16-4.67-3.61-10.07-5.8-15.28-13.42-31.82-52.06-45.51-83.39-31.88-20.9,9.1-30.45,27.96-36.71,48.75h-15.12Z" fill="#fff"/>
  <path d="M128.34,183.33c2.61,3.65-11.15,7.53-13.55,7.81-23.3,2.77-42.95-17.07-32.94-40.17,3.78-8.72,16.93-18.46,26.79-17.28,1.16.84.1.97-.27,1.72-2.3,4.72-5.87,6.08-7.43,12.95-4.68,20.53,7.62,33.79,27.41,34.97Z" fill="#fff"/>
  <path d="M55.21,159.18l-.14,45.21-1.41,1.82-14.32.7c-4.08-1.58-4.08-42.64-.49-48.81l16.36,1.09Z" fill="#fff"/>
  <path d="M180.94,203.71l.1-46.56h15.25s.98.98.98.98l.15,43.96c.25.83-1.31,1.63-1.69,1.63h-14.79Z" fill="#fff"/>
  <path d="M197.38,250.38h-15.45l-.99-.99v-40.75c0-.22.67-1.53,1.12-1.66,8.59,1.5,15.05-5.76,16,6.23s-.24,25.37-.69,37.17Z" fill="#fff"/>
  <path d="M55.36,251.03c-3.35-.94-14.76,2.09-16.77,0-1.66-1.72-1.43-39.06.31-40.45,2.3-.94,16.46-2.13,16.46.68v39.77Z" fill="#fff"/>
  <path d="M86.53,212.66c3.01,6.28,7.58,2.17,8.28,2.88-1.45,5.44-6.79,3.93-2.63,11.17-5.61-3.13-7.92-1.71-13.14.65,1.88-5.56,1.94-6.87-2.63-10.5l6.47-.77,1.42-9.1c2.01,1.08,1.37,3.89,2.23,5.67Z" fill="#fff"/>
  <path d="M150.83,210.8c.82.53,5.11.59,6.44.8l-4.5,3.73,1.21,6.12c-5.26-2.1-6.76-2.07-11.82.66.95-4.96,2.66-6.65-2.62-9.53,5.98-1.59,6.16-2.22,8.86-7.56.31-.06,1.74,5.32,2.43,5.78Z" fill="#fff"/>
  <path d="M142.8,132.72c1.29,3.15,3.21,7.06,7.24,5.92-2.19,4.45-2.15,5.73-.66,10.51-5.75-3.78-6.82-3.61-12.48,0,.89-4.49,1.13-6.01-1.97-9.52.94-1.86,4.4-.48,5.19-1.07.36-.27,1.07-7.45,2.69-5.84Z" fill="#fff"/>
  <path d="M155.77,238c3.62-1.01,3.45,3.21,1.04,3.76s-4.03-2.93-1.04-3.76Z" fill="#fff"/>
  <path d="M119.13,211.6c1.18,1.11-1.73,5.83-3.64,2.65-1.63-2.73,3.05-3.2,3.64-2.65Z" fill="#fff"/>
  <path d="M158.26,166.25c2.62-.79,3.05,3.4,1.3,3.93-2.62.79-3.05-3.4-1.3-3.93Z" fill="#fff"/>
  <path d="M115.19,120.23c-2.01,1.88-4.61-2.71-1.63-3.28,1.69-.32,2,2.93,1.63,3.28Z" fill="#fff"/>
  <path d="M385.08,252.35c-.21.05-3.55,2.22-3.67,2.41-1.54,2.47.23,5.18-.07,6.41-.35,1.46-4.84,1.53-3.82,6.6.4,1.99,2.6,2.66,2.91,3.6.29.89-.52,2.34-.29,3.58.75,3.9,3.16,3.17,4.94,5.01,3.07,3.17,3.63,6.19,8.41,8,8.66,3.28,23.1,1.38,31.61-2.06,2.45.72-1.25,10.73,5.47,12.31,6.04,1.42,22.12-3.75,27.95-6.61,5.52-2.7,9.97-6.9,14.96-10.33,3.17,4.37,9.71,8.42,14.52,11.46s16.07,6.83,18.03,12.21c5.46,14.95-14.92,35.5-25.64,44.02-11.83,9.4-36.88,26.47-52.3,23.38-24.16-4.84-48.72-59.24-56.03-80.7-5.22-15.31-8.21-31.64-11-47.18-3.35,2.22.09,15.09-.72,16.35-18.65,4.72-39.54,2.36-57.11-5.52-4.85-2.18-17.68-9.51-18.82-14.74-1.45-6.67,11.63-25.33,16.5-30.27,5.88-5.97,4.9-3.01,8.86.36,8.06,6.87,23.36,15.54,33.97,16.65,8.41.89,11.91.93,20.38,2.63,3.15.63,10.38.86,12.29,1.51,1.27.43,1.98,3.19,3.08,4.15,10.01,8.82,24.58,6.79,32.11-4.02,4.11-5.9,4.65-17.19,14.18-17.35,17.25-.29,44.29,21.39,49.34,37.5,8.57,27.34-20.7,43.29-43.94,43.27-2.79-1.02-1.43-11.87-1.75-14.68-.97-8.26-3.65-15.67-5.94-23.56.19-.68,5.86-2.65,6.98-3.03,2.99-1.01,16.66-3.26,17.41-3.74,1.11-.73,1.49-1.55,1.29-2.87-4.62-1.68-8.25,1.51-12.71,1.88l-8.98-9.77c.53,4.09,2.96,7.77,5.91,10.5l-12.68,4.54c-4.41-3.7-11.09-9.76-17.23-9.16-3.24.32-7.97,4.81-4.28,7.26-4.09.59-10.36-.8-14.14,0ZM460.68,320.72l-.68,1.97c2.08,4.32,25.33,9.67,25.32,6.22-1.9-2.43-4.91-1.23-7.38-1.81-5.8-1.37-12.26-3.18-17.27-6.39ZM457.73,348.98c-15.27-3.69-29.36-10.33-38.79-23.35-2.84.24.29,4.51,1.34,5.93,6.74,9.13,24.47,18.55,35.82,18.72,1.36.02,1.88.44,1.63-1.3Z" fill="#fff"/>
  <path d="M413.67,140.61c-1.62,6.15.9,11.68,5.57,15.8,1.28,1.14,4.86,2.41,5.32,3.27.61,1.14-2.29,10.68,3.99,11.16s4.3-8.11,9.83-9.16c20.39-3.84,19.69,32.01-3.69,23.91-3.19,36.85-60.09,55.14-86.99,33.1-8.19-6.71-9.84-13.84-11-23.86-1.44-12.43-5.01-25.89-3.91-38.8.12-1.41.33-2.8.81-4.12,2.7.93,11.38-4.75,12.03-4.75,1.59,0,3.94,3.55,10.36,2.49,3.57-.59,9.21-5.57,10.12-5.7.38-.05,4.66,3.17,6.77,3.6,7.83,1.59,14.75-2.33,19.43-8.24,4.96,6.53,15.11,5.58,21.36,1.3ZM405.79,160.98c1.27-7.06-15.53-8.95-15.69-3.51-.03.87.33,1.04.94,1.53,5.92-2.71,9.55-.93,14.76,1.97ZM342.01,168.87c.02-3.46,3.33-6.1,6.4-7.08,1.17-.37,5.96.48,5.43-1.78-1.2-5.16-19.07,2.19-13.83,8.56l1.99.3ZM393.29,177.42c-2.21-1.58-3.67,6.11,2.05,8.79s14.7-1.5,10.12-7.47c-2.67,6.98-11.63,6.73-12.17-1.33ZM357.58,190.34c1.97-1.53,4.57-7.79,1.19-8.32-2.27-.36-1.32,5.43-4.2,6.28-6.89,2.05-7.6-4.25-8.28-4.3-5.45,6.56,6.24,10.28,11.29,6.34ZM371.6,198.45c.19-3.02-3.99-5.52-1.61-8.49,2.75-3.44,5.75,2.06,8.17-.38-7.89-10.93-18.78,4.73-6.56,8.87ZM386.35,200.72c-6.39,5.83-9.2,8.83-18.38,3.66l-2.17,2.17c5.78,17.2,29.56,14.58,26.13-5.09-.34-1.96-1.16-3.55-3.47-2.92-.75.72-1.35,1.48-2.11,2.18Z" fill="#fff"/>
  <path d="M389.77,97.46c.62.46.98,2.14,1.87,2.24,14.48-10.7,39.32-5.87,39.79,14.62,14.88-3.11,21.76,8.66,16.08,21.7,1.08,2.14,3.35.65,4.39,1.01,6.93,2.41,10.02,10.06,7.61,16.86-.87,2.47-3.59,3.59-3.82,4.81-.2,1.08,7.04,10.71,1.71,14.11-3.2-10.15-14.54-20.32-24.88-11.73l-4.04,5.81c-3.01-3.28,2.2-6.64.98-10.51-7.56.43-13.35-5.16-13.2-12.81.06-3.2,2.22-5.89,1.36-8.88-3.01-.38-3.57,2.3-5.96,3.58-4.17,2.24-8.73,3.37-13.42,1.66-7.56-2.75-3.95-12.07-5.62-13.13-3.89-2.47-2.07,7.04-2.21,7.91-1.22,7.45-16.38,13.97-21.24,7.01-1.73-2.48,1.63-14.26-5.31-11.21-2.09.92-1.48,7.18.5,7.83-2.49,6.56-13.18,12.34-18.3,4.46-1.12-1.72-1.31-6.25-3.72-5.47-3.03.97,1.67,6.57-.27,8.27l-11.86,3.59-.79,13.66c-4.22,2.63-12.27-9.02-12.47-12.04-.12-1.78,3.18-9.03,5.99-6.93-6.48-15.28,3.75-28.25,19.73-27.6-1.05-18.75,22.36-29.02,38.09-23.96,3.68,1.18,5.99,2.91,9,5.13Z" fill="#fff"/>
  <path d="M499.14,197.14l.1,2.53c1.35,2.3,15.62-5.85,17.51,2.55,2.37,10.47-15.19,16.52-22.87,18.27-.64,2.68,7.51,1.1,7.93,7.23.63,9.32-12.75,11.81-19.78,11.8-1.36.77,1.57,3.42,1.85,4.76.8,3.79-.78,6.49-4.24,8-1.34.04-3.91-6.99-4.95-8.68-5.79-9.38-18.3-21.33-28.11-26.45-1.3-.68-2.49-1.08-3.98-.96-.67-.66,9.73-13.98,10.84-15.12,8.81-9.02,36.88-25.15,48.84-30.71,30.6-14.22,15.55,27.1-3.14,26.77ZM471.54,218.83c.54,4.36,7.89.64,9.89-.96,3.38-2.71,5.29-7.92,4.26-12.21h-2.01c.08,6.62-5.71,12.53-12.14,13.17Z" fill="#fff"/>
  <path d="M288.76,204.36c-.48-3.71,1.1-7.96,3-11.13,1.59-2.64,9.82-12.94,12.45-7.27,1.02,4.89-1.82,10.28-3.32,15.08-.49,1.58.01,3.41-.44,4.82-1.23,3.86-11.32,12.25-13,17.27-3.21,1.35-14.85-4.42-17.84-6.51-4.79-3.36-15.02-14.59-12.71-20.77,2.02-5.43,8.14,5.08,11.5,3.59.29-.94-5.91-6.88-7.03-8.75-.3-.5-2.37-4.78-2.05-5.27,6.93-6.05,9.9,4.52,15.64,6.46-.17-5.52-6.93-11.07-5.47-16.97,2.51-10.15,18.86,8.74,20.26,13.07,1.23,3.78-8.36,12.86-.98,16.39Z" fill="#fff"/>
  <path d="M396.91,263.52l.98-1.97c-.41-.67-13.94.95-14.46-4.26,6.82-4.92,15.63-.89,23.01.3,1.29-3.55-3.78-3.28-4.5-5.72-2.77-9.37,11.41,0,14.01,2.46,5.11,4.85,12.2,20.87,8.83,27.18-2.98,5.58-31.93,7.93-35.43-.25,3.39.28,9.22,2.03,11.16-1.65-.21-1.19-8.49-.73-10.12-1.04-2.98-.58-7.66-1.95-6.96-5.85.74-.71,14.39,2.38,16.42-.33.02-1.46-19.09-1.17-19.07-5.91,0-.81,2.04-2.96,2.32-2.96h13.81Z" fill="#fff"/>
  <path d="M525.06,344.11c.68,1.86,2.46,4.05,2.85,6.66.35,2.33,1.04,6.36-2.14,6.15-3.48.05-3.44-4.6-5.26-6.62-4.13-.07,7.2,16.97-2.67,11.2l-3.57-6.61c-1.9,3.9,4.67,10.23.65,12.16-7.04,3.38-9.87-12.64-11.9-16.88-.76-1.59-7.16-10.52-7.08-11.26,1.98-3.59,5.4-6.88,7.67-10.08,3.07-4.31,2.69-10.46,9.6-8.07,5.21,1.81,9.85,17.92,11.83,23.35Z" fill="#fff"/>
  <path d="M480,354.32c2.12,4.56,2.89,9.71,3.36,14.71.33,3.49,2.18,21.8-4.59,18.39-2.53-1.28-1.29-5.88-3.94-6.23-.24,3.18.23,6.53,2.61,8.87l-1.59.97c-4.89.16-5.06-9.5-6.93-7.87l1.31,8.53c-9.15-1-8.33-17.04-11.76-23.88,5.5-2.56,14.23-11.15,19.03-13.22.74-.32,1.79-.7,2.51-.27Z" fill="#fff"/>
  <path d="M413.02,222.12c-5.18,13.51-20.37,22.13-32.21,10.17-.3-1.61.78-.76,1.66-.95,3.84-.82,7.6-.58,11.62-1.54,6.67-1.58,12.41-5.73,18.93-7.69Z" fill="#fff"/>
  <path d="M399,405.71c4.05,5.06,3.17,18.42-2.83,22.06-8.53,5.17-41.48,4.22-50.87.41-11.18-4.53-10.89-21.25-.21-26.5,11.19-5.51,45.35-6.65,53.91,4.04Z" fill="#fff"/>
  <path d="M249.06,112.59c.82.78.99,2.34,2.57,2.39,4.57-.44,15.15-6.58,10.71,2.16-1.09,2.14-3.62,3.22-3.7,5.36l5.8,11.53c-3.5,1.3-10.01-2.71-12.68-1.87-2.18.68-6.89,10.1-8.35,9.1l-2.04-12.09c-22.77-9.41-4.85-6.71-1.58-10.91,1.74-2.24,1.57-8.94,2.96-11.83,1.11-.78,5.07,4.99,6.31,6.16Z" fill="#fff"/>
  <path d="M512.17,433.96c9.76-.55,27.74-.51,29.06,11.96s-4.9,15.26-16.08,16.14c-10.03.78-32.07,2.12-33.25-11.5s8.74-15.94,20.28-16.59Z" fill="#fff"/>
  <path d="M352.95,338.87c-.27.46-2.05,1.67-2.38,2.58-6.54-.48-22.92-8.92-19.38-17.44,2.72-6.54,12.91,1.28,13.46.64-1.66-12.01,11.78-14.57,11.89-.97.03,3.37-1.92,12.31-3.58,15.19Z" fill="#fff"/>
  <path d="M251.28,256.29c-2.22.63-6.77-2.65-8.1-2.48-1.45.19-7.56,6.05-8.33,5.11-.76-2.13.88-6.59.54-8.08-.37-1.64-6.91-4.75-5.8-6.37,8.29-.1,7.56-4.2,11.16-9.87,3.33,9.62,4.17,6.05,10.86,6.52,5.55.39-1.79,4.79-2.21,6.45-.52,2.05,2.19,8.41,1.87,8.72Z" fill="#fff"/>
  <path d="M490.08,142.44c3.57,1.98,4.56-4.14,8.76-2.56,8.25,7.06-7.28,15.8-13.48,17.81-1.97-5.18-6.48-15.04-3.43-20.18,3.69-6.23,8.31-.04,8.16,4.93Z" fill="#fff"/>
  <path d="M314.6,97.68c2.08,1.42,4.74.73,7.03.87-3.52,4.67-3.66,5.36-1.97,11.17-5.27-.24-7.29-3.16-12.48,0,1.51-5.1.48-6.67-3.29-9.85,5.43.95,6.17-1.92,8.22-5.92.25-.09,1.88,3.32,2.49,3.74Z" fill="#fff"/>
  <path d="M297.96,290.48c-2.76,4.07-3.3,5-1.32,9.85-5.14-2.15-6.98-.85-10.18,3.29-1.55-.46.48-4.64-.65-6.58-.69-1.19-4.7-1.15-4.28-2.93,4.27-1.43,5.54-2,5.92-6.91,2.77,4.16,6.01,3.35,10.51,3.29Z" fill="#fff"/>
  <path d="M526.76,260.24c-5.44,2.75-4.89,3.85-4.61,9.85-4.66-2.01-5.61-4.51-11.17-1.97,1.13-5.16,2.17-6.02-1.32-10.51,4.51.56,6.46-.73,9.19-3.95.57,4.98,3.23,6.23,7.9,6.58Z" fill="#fff"/>
  <path d="M457.73,348.98c.25,1.74-.27,1.32-1.63,1.3-11.35-.17-29.08-9.59-35.82-18.72-1.05-1.42-4.18-5.69-1.34-5.93,9.43,13.02,23.52,19.67,38.79,23.35Z"/>
  <path d="M460.68,320.72c5,3.21,11.47,5.01,17.27,6.39,2.46.58,5.48-.62,7.38,1.81,0,3.45-23.24-1.9-25.32-6.22l.68-1.97Z"/>
  <path d="M386.35,200.72c.77-.7,1.36-1.46,2.11-2.18,2.31-.63,3.13.96,3.47,2.92,3.42,19.67-20.36,22.28-26.13,5.09l2.17-2.17c9.18,5.17,11.99,2.18,18.38-3.66ZM387.13,210.69c1.06-1.7,1.62-3.66,1.55-5.67-5.09,3.57-10.73,6.5-17.09,4.61,2.77,5.52,12.19,6.43,15.53,1.06Z"/>
  <path d="M357.58,190.34c-5.05,3.94-16.74.22-11.29-6.34.68.05,1.39,6.36,8.28,4.3,2.88-.86,1.93-6.64,4.2-6.28,3.38.53.78,6.79-1.19,8.32Z"/>
  <path d="M393.29,177.42c.54,8.06,9.5,8.31,12.17,1.33,4.59,5.96-4.44,10.13-10.12,7.47s-4.26-10.37-2.05-8.79Z"/>
  <path d="M371.6,198.45c-12.22-4.13-1.33-19.79,6.56-8.87-2.42,2.44-5.42-3.06-8.17.38-2.38,2.97,1.8,5.47,1.61,8.49Z"/>
  <path d="M342.01,168.87l-1.99-.3c-5.24-6.37,12.63-13.73,13.83-8.56.52,2.27-4.27,1.41-5.43,1.78-3.07.98-6.38,3.62-6.4,7.08Z"/>
  <path d="M405.79,160.98c-5.2-2.9-8.84-4.68-14.76-1.97-.61-.49-.96-.66-.94-1.53.17-5.45,16.96-3.55,15.69,3.51Z"/>
  <path d="M471.54,218.83c6.43-.65,12.22-6.55,12.14-13.17h2.01c1.02,4.29-.89,9.5-4.26,12.21-1.99,1.6-9.35,5.32-9.89.96Z"/>
  <path d="M387.13,210.69c-3.34,5.37-12.76,4.46-15.53-1.06,6.35,1.89,11.99-1.04,17.09-4.61.06,2.02-.5,3.97-1.55,5.67Z" fill="#fff"/>
</svg>