<?xml version="1.0" encoding="UTF-8"?>
<svg id="Camada_1" xmlns="http://www.w3.org/2000/svg" version="1.1" viewBox="0 0 595.28 841.89">
  <!-- Generator: Adobe Illustrator 29.0.0, SVG Export Plug-In . SVG Version: 2.1.0 Build 186)  -->
  <path d="M.14,841.29V-.06h595v841.34H.14ZM590.54,3.89H4.08v259.63l3.94.66c1.88-16.58,19.56-23.03,34.18-18.4,5.92-29.91,54.48-29.52,59.84,0,18.03-7.26,39.28,4.01,32.87,24.97,7.72.46,13.4,5.32,14.48,13.15,13.38-8.56,26.19-19.49,39.87-27.5,6.5-3.81,21.06-11.48,28.14-12.27,19.89-2.23,38.06,14.5,54.57,23.33,1.49-5.27,3.58-11.09,4.64-16.41,6.85-34.24-12.03-64.29,15.41-93.05,33.99-35.63,101.93-24.18,118.3,23.89l16.84,63.22c16.1-12.4,31.76-26.87,48.75-38.01,43.26-28.35,61.22-9.57,94.56,17.63,6.44,5.25,13.25,10.33,20.05,15.12V3.89ZM414.99,317.09c-.81,2.65.59,9.02,0,12.16,12.35-3.09,22.31-10.61,23.65-24.01,1.65-16.52-7.43-32.15-12.14-47.64-13.94-45.85-12.47-109.98-74.38-116.91-29.68-3.32-66.87,14.68-71.72,46.45-2.72,17.87,2.61,36.1,1.1,54.34s-16.92,40.31,7.9,50.3c4.96-13.16,14.04-25.85,26.96-32.22.35-1.69-.31-1.02-.92-1.37-11.61-6.62-20.29-8.25-24.38-23.59-2.75-10.3-.36-24.98-2.3-31.73-.76-2.64-4.37-3.72-4.63-11.3-1.29-37.45,44.66-40.79,70.16-27.42,34.54,18.12,33.32,47.04,39.22,80.42,4.28,24.23,8.71,21.88,23.13,38,6.46,7.21,11.08,17.96,5.79,27.43-.88,1.58-7.29,6.59-7.44,7.08ZM370.62,199.76c3.16.29,6.66-.21,9.86,0,.59-.51.79-.52.73-1.37-.38-5.37-12.17-19.87-16.52-23.6-15.73-13.5-40.52-18.87-60.13-11.49-13.73,5.17-19.84,22.92-15.79,36.46,10.35-4.71,22.32-10.5,29.59-19.57,1.35-1.68,3.58-8.03,4.91-8.07,2.82,1.01,2.89,4.8,4.67,7.2,8.09,10.89,29.5,19.22,42.67,20.44ZM328.45,185.06c-1.12-1.12-4.14-6.56-5.16-6.33-7.71,11-19.05,17.27-30.91,23-1.46,14.62-.55,38.39,12.5,47.98,7.85,5.77,22.58,8.81,32.24,8.58,7.28-.17,27.09-3.89,31.49-9.93,1.26-1.72,4.7-22.48,4.95-25.94.24-3.23.42-17.76-1.22-19.65-14.92-1.86-32.96-6.86-43.89-17.71ZM590.54,243.8c-22.87-13.57-45.24-45.5-73.32-47.31-20.12-1.3-35.28,9.93-50.59,21.03-13.53,9.81-26.26,20.93-38.88,31.84,4.39,20.75,19.08,40.51,12.57,62.8-3.15,10.78-14.88,17.41-25.01,20.35-1.07,5.79-2.16,11.6-4.72,16.94-.73,1.52-4.4,5.25-4.68,7.21-.2,1.38,2.25,8.28,2.5,11.05.91,10.34-1.61,18.41-7.22,26.93,8.85,1.46,18.22,5.72,24.31,12.52,6.87,7.67,7.07,14.05,11.3,21.57,1.77,3.16,6.74,7.57,8.63,11.13,2.17,4.08,3.16,8.67,4.75,12.96l15.45-13.13c-19.11-3.9-28.19-13.98-32.04-32.71-1.81-8.8-1.22-11.86-.19-20.35,1.41-11.64,2.9-23.15,5.33-34.63-7.19-2.24-10.1-8.22-6.8-15.34,1.43-3.09,7.38-4.96,8.55-6.28.73-.83,1.3-4.37,2.8-6.07,5.59-6.32,21.4-15.94,29.62-18.37,40.95-12.11,90.83,6.53,97.89,51.94.86,5.53-2.1,7.5-2.25,10.87-.24,5.37,2.77,17.4,3.62,23.26,2.57,17.82,5.41,35.56,9.32,53.13,1.08,2.37,6.96.67,9.08.45v-201.79ZM382.71,202.46l-6.51.59c7.09,23.29-14.43,50.28,3.3,71.29,7.86,9.32,18.65,8.89,25.96,17.43,4.84,5.65,7.29,13,8.73,20.22l1.12.82c18.98-22.48-12.92-33.12-20.36-49.96-5.47-12.38-6.19-30.38-8.83-43.22-1.18-5.7-2-11.51-3.41-17.17ZM4.08,266.81v20.38h141.02c4.07-7.73-7.37-15.4-14.71-13.22-1.49-2.19.58-3.26.95-5.15,4.04-21.01-14.89-26.98-30.93-18.44-1.72-5.43-3.44-11.78-7.65-16.03-11.42-11.53-36.47-10.01-44.75,4.4-2.32,4.03-1.98,6.95-3.56,10.94-16.06-7.04-32.04.48-34.41,18.16l-5.96-1.04ZM271.32,272.43c-3.48-5.83-37.41-24.49-44.68-25.34-17.23-2-34.54,12.35-48.63,20.4l-81.28,59.41c-2.17,3.07,3.97,7.74,3.35,11.55,15.7-7.92,32.08,9.63,22.49,24.79-.97,1.53-2.79,1.66-2.77,3.47,23.31,4.61,19.47,37.61-3.95,38.13,9.12,21.24-13.43,33.98-31.55,25.63l1.92,28.63c38.33,3.61,74.71,18.26,107.41,37.88,12.16,7.3,23.21,16.16,35.29,23.53l1.68-7.21c-20.5-13.04-36.05-31.24-47.36-52.58-6.53,4.85-11.67,6.01-19.67,5.84-4.87-.1-10.8-.18-15.86-.58-12.06-.95-25.1-11.75-27.23-23.5-.92-5.08,2.71-14.07,5.12-19.03,2.1-4.33,6.36-9.06,8.18-12.88,6.95-14.53,8.56-28.79,19-42.76,2.38-3.19,5.18-5.17,7.71-8.14.46-1.99-4.12-5.04-5.18-6.62-7.04-10.41-11.05-28.82-9.88-41.25.31-3.27.57-8.44,4.86-8.18,10.71.66,26.47,22.13,28,32.56l21.07,1.61c.78-10.74,18.85-35.74,29.33-36.79,6.22-.63,9.17,11.34,9.5,16.05.52,7.62-.53,14.68-2.3,21.43-1.01,3.85-2.76,8.09-4.31,11.78,4.62.16,8.14,7.71,10.26,9.15,1.97,1.34,6.2,1.87,9.14,4.01s5.43,5.9,7.24,9.18c6.27-7.53,13.46-14.13,22.44-18.31,2.28-1.06,10.74-1.84,8.64-5.21-.28-.44-7.29-4.19-8.67-5.45-15.93-14.58-4.23-35.96,6.85-49.23-5.47-2.16-11.2-6.97-13.48-12.5-1.4-3.41-1.07-6.86-2.65-9.5ZM368.97,252.35c-.2-.26-6.16,2.35-4.59,3.94,2.37.47,6.68-1.26,4.59-3.94ZM343.66,260.89c-4.07.41-8.69-.3-12.82,0,1.43,18.61,28.04,8.31,29.56-2.98.16-1.16.08-.98-.95-.95-3.09.08-11.28,3.49-15.8,3.94ZM369.6,258.96c-8.36-.67-6.25,1.64-9.55,5.83-2.81,3.57-6.29,6.33-10.64,7.77-13.16,4.36-18.21-.68-22.93-12.24-19.42,1.07-27.46,21.02-36.13,35.35-4.21,6.96-10.19,12.93-12.79,20.73-4.31,12.95.1,22.55,11.53,29.27.94-4.33,2.23-8.17,4.36-12.07,2.46-4.5,1.26-2.31,2.69-7.17,1.85-6.29,5.28-11.34,9.06-16.58-3.95-1.89-13.81,8.69-14.81,8.86-.84.15-1.16-.52-1.63-1-.79-3.01,11.09-10.65,14.46-10.84-5.9-10.61,2.22-22.83,8.23-31.54.6-.17,1.49.57,1.63,1.02.51,1.65-8.34,16.26-8.53,21.03-.16,3.86,1.25,7.92,4.23,10.14,7.7-2.91,15.27-3.72,23.07-.66,1.74.68,9.53,5.42,10.53,6.57,5.68,6.51-5.56,17.5-11.78,17.06-2.84-.2-7.59-2.68-9.91-2.55-2.04.12-5.45,3-8.13,3.73-4.42,1.2-10.46-.33-12.61.53-3.12,1.26-7.78,11.17-7.83,14.51-.09,6,3.55,7.97,4.66,12.29,1.91,7.4-6.77-.98-6.1-4.77-20.7,4.69-37.12,23.06-38.77,44.32-.8,10.36,2.17,36.93,4.76,47.21.36,1.44,1.37,2.53,2.55,3.37,3.37,2.39,15.52,6.31,19.97,7.64,27.61,8.23,58.43,10.56,85.62-.56,4.74-1.94,23.03-12.47,24.71-16.75,1.48-3.78-14.13-26.53-12.7-32.98,4.21-4.38,10.46-5.44,15.74-9.28,12.26-8.91,15.97-22.78,11.23-37.07-7.39,5.54-13.38,11.39-22.11,15.02-11.25,4.67-20.02,6.88-31.59,2.2-1.71-.69-4.07-3.22-4.57-3.31-.69-.12-10.87,3.02-13.69,3.2-5.06.32-20.4-1.94-23.73-5.89-2.05-2.43-.72-4.32-1.27-5.28-.59-1.05-2.56-.83-2.95-3.71-.61-4.56,2.09-4.03,3.59-6.19,1.18-1.69.98-3.98,3.38-5.17,2.87-1.43,8.8-1.17,12.08-1.41-9.31-7.49-.21-9.73,7.58-9.21,2.58.17,8.8,2.3,10.35,1.89.99-.26,1.58-1.69,2.51-2.14,5.7-2.81,24.39-12.05,26.58-17.47,3.11-7.72-.18-23.9.35-32.52,1.95-3.72,3.19-3.36,3.54.63.9,10.15,1.5,23.95-1.57,33.54.15,1.09,11.96,3.17,12.44,6.57-.58,3.1-12.42-4.29-14.79-3.37-7.8,6.57-16.79,11.45-25.93,15.85,6.59,10.06,13.73,20.59,13.89,33.1,14.82,1.64,33.5-7.5,43.32-18.62,13.29-15.06,14.19-41.48,5.35-58.63-6.25-12.14-12.24-10.03-22.02-16.1-8.04-4.99-14.62-14.6-14.93-24.17ZM140.83,290.47H4.08v176.16c14.86-5.18,30.68-7.35,46.34-8.5,2.27-.17,9.37.76,10.1-1.13,2.13-5.52.61-17.65,2.07-23.89-12.66,7.18-32.11.38-29.58-16.44-26.62,4.54-37.29-34.8-9.87-40.76-16.34-10.89-1.03-34.68,15.78-30.23v-9.53c0-.57,3.93-8,4.44-8.71,11.93-16.59,36.93-17.16,50.45-2.26l47.02-34.71ZM319.66,507.38v9.2c23.78.15,49.29-6.03,68.87-19.46-1.46-3.34-1.46-20.61,1.17-21.93l1.66.37c1.19,1.37-.82,10.56-.75,13.07.22,8.4,3.97,17.67,7.37,25.23.69.41,1.79-.03,2.55-.23,2.26-.59,20.07-10.77,21.48-12.38,1.94-2.19,4.94-13.28,5.93-16.75,6.65-23.23,12.13-48.61-1.26-70.67-4.59-7.56-19.55-17.52-28.54-16.85-1.07.08-1.53.56-1.62,1.61,5.48,9.14,8.53,20.39,9.8,30.98.65,5.41,2.05,21.34-.64,25.44-3.44,5.23-28.87,7.55-35.4,9.65,1.54,6.03.69,10.4-2.52,15.55-5.35,8.58-20.13,20.92-30.34,22.26-25.75,3.37-15.63-22.38-7.93-35.19l-26.95-1.98c3.84,9.46,7.39,13.04.26,22.28-8.47,10.99-31.81,20.25-43.15,9.27-2.92-2.83-3.6-8.87-3.11-12.75.66-5.15,9.31-13.92,11.93-19.01,1.19-2.31,1.91-4.76,2.38-7.3-.62-2.42-14.79-4.62-16.68-9.57-1.67-4.38-4.51-26.92-4.89-32.57-.63-9.25,0-18.78,1.01-27.92-1.94-4.69-23.18-26.48-26.68-24.67-.72,3.73-10.88,10.03-6.9,3.62,7.67-12.33,13.35-16.11,16.57-32.07,1.88-9.32,3.29-23.19-4.04-30.34-22.32,10.59-30.35,36.77-30.6,59.79l-3.27-3.28c-6,9.96-33.39,16.94-21.71-3.28-15.62,1.57-23.22,19.42-28.75,32.02-.29.66-1.17.73-1.43,1.37-2.59,6.16-4.04,13.86-6.64,20.17,23.28.14,46.5,11.82,53.62,35.17,10.72-5.21,22.02-10.81,29.87-20.06.92-1.09,4.73-6.32,5.27-7.37,2.13-4.2,2.11-8.99,3.43-12.2,1.21-2.93,3.37-.97,2.87,2.86-1.55,11.84-11.7,22.97-21.33,29.18,4.97,16.73,10.14,34.88,19.77,49.86,11.29,17.58,29.9,26.76,50.49,28.72.74-.79-2.73-10.26.33-10.49.15-.01,2.13,1.46,2.28,1.8,1.64,3.63,1.8,16.57,4.3,19.2,3.15,1.77,25.06,6.97,26.55,5.84l1.83-25.42,3.5-.79ZM559.91,336.2c-17.96-29.81-65.87-38.73-95.85-23.29-1.4.72-9.99,6.13-10.27,6.82-.57,1.37.93.89,1.63.98,4.27.51,9.43-.33,13.84-.03,32.96,2.27,68.02,12.79,95.97,30.26-.11-5.72-2.52-10.09-5.31-14.74ZM167.39,321.78c-4.51-6.33-9.05-12.49-16.97-14.81-4.41,1.27-.1,25.29,1.13,29.65s6.79,16.42,10.31,19.27c1.88,1.53,2.44.88,4.62.31-6.71-8.94-.03-15.84,8.6-18.83-.53-6.3-4.32-10.87-7.69-15.59ZM340.04,320.05c1.43-7.53-11.41-11.65-17.38-11.86-15.22-.52-20.15,7.8-24.03,21.06,3.86-.91,7.36.52,11.34-.15,3.62-.61,7.47-4.51,10.69-4.46,2.98.05,8.89,3.71,12.8,2.65,2.59-2.33-10.44-6.46-11.86-6.22l-.63-2.98c6.11.48,11.51,3.2,16.43,6.57,1.9-2.35-4.86-7.89-6.75-8.69-2.34-.99-11.52-.97-7.93-4.37,7.2.16,12.58,3.42,17.3,8.47ZM120.76,348.68c-2.63-6.29-8.06-9.76-14.94-8.74-2.64.39-6.91,3.98-8.43,2.84-3.76-37.03-61.94-31.78-54.13,6.22-2.04,1.91-4.21-.5-6.01-.64-8.11-.64-16.15,4.33-17.32,12.83-1.29,9.41,4.32,11.51,11.1,15.72-2.34,3.27-6.36,1.71-9.37,2.45-12.92,3.17-14.58,21.37-5.39,29.41,6.31,5.52,11.96,4.6,19.76,4.56,1.77,1.35-.32,4.51-.3,6.37.21,15.51,25.21,15.73,26.86,7.8.82-3.96.13-10.9.63-15.14.14-1.15,1.2-.88,1.34-1.42,1.01-3.91-1.56-3.65-3.59-6.1-2.39-2.88-15.48-16.55-15.3-18.64,4.93-10.09,13.76,2.65,20.23,4.17,1.08-4.76-1.13-37.25,10.58-28.64,2.53,1.86,4.24,18.68,4.55,22.73.78.95,10.87-8.83,11.64-9.06,3.78-1.13,8.68,1.73,6.1,5.96l-16.16,20.85c1.7,5.21-.67,22.58,3.18,25.13,11.55,7.63,34.19-1.75,28.42-17.89-1.09-3.06-3.97-4.06-3.61-7.24,16.3,3.28,28.13-16.07,17.1-28.41-3.83-4.29-8.43-3.33-13.11-5.52-.24-.81-.04-1.47.29-2.21.58-1.3,6.44-6.37,6.86-8.39.65-3.07.08-6.48-.97-9.01ZM443.93,329.91c42.15.83,87.19,9.57,121.98,34.17,4.8-5.01.19-8.68-4.1-11.69-23.39-16.42-72.07-28.93-100.45-29.09-6.5-.04-14.83-.34-17.43,6.6ZM352.14,365.18c-1.4-3.96-6.38-16.3-9.41-18.56-2.54-1.9-20.3-4.54-20.42-1.92.8,2.75,12.98,3.93,8.79,6.83-1.07.74-24.94.88-19.59,5.38,1.77.26,3.67,1.54,5.36,1.75s12.3-1.16,7.77,2.17c-3.75,2.76-15.24-1.93-16.65-.55-4.98,4.87,16.24,7.14,18.91,5.11-1.13,7.39-12.06,2.54-17.09,2.63,11.73,9.44,31.09,6.54,43.34-.72.82-1.59-.93-1.93-1-2.14ZM521.5,356.2c-7.96,3.22-17.16,1.48-22.02-5.9-7.06,6.56-20.42,10.91-26.32.64-7.01,5.4-20.29,8.14-24.3-1.97-3.69,4.43-6.16,2.26-8.02,8.41-3.13,10.3-8.55,39.27.14,46.79,8.22,7.12,11.02-.63,18.49-.59,3.14.02,7.97,2.55,11.75,2.54,4.01,0,7.64-1.7,12.48-1.28,8.04.7,16.69,9.26,23.18,6.72.48-.19,7.11-6.13,7.66-6.8,2.98-3.6,9.72-18.59,10.01-22.93.1-1.45-3.84-7.96-4.28-11.58-.57-4.72.07-9.52,1.23-14.06ZM559.87,421.07c-3.8-19.85-5.95-40.91-6.93-61.13l-13.67-7.69c2.57,29.98,3.16,61.98,8.59,91.53.09.51,1.12.48,1.22.99,1.82,9.28,1.48,16.13,7.94,24.19,5.89,1.32,9.71-5.37,13.61-6.8,3.5-1.29,10.32.31,10.77-4.4-3.68-15.2-6.63-30.43-9.32-45.83-.09-.5-1.14-.53-1.22-.99-2.38-14-2.63-29.03-5.47-43.05-.67-1.55-7.44-6.22-8.71-6.41-1.69-.26-1,3.04-.96,4.25.67,19.99,5.47,44.5,9.38,64.24.67,3.37,6.59,23.89,5.73,24.83-2.27.31-2.78-.97-3.49-2.74-3.28-8.12-5.87-22.73-7.45-30.98ZM74.73,366.42c-.75-1.2-1.96-4.38-3.44-1.2-1.8,3.87-1.23,27.09-2.74,28.15-3.5,3.6-18.04-10.78-19.11-7.27l18.29,21.18c-1.51,16.29-1.16,32.94-3.11,49.18-.14,1.16-1.28.93-1.35,1.41-.77,6.01-1.1,12.15-2.02,18.16,7.38,3.15,15.41,2.36,23.04,1.1l-5.15-76.44,16.96-21.83c-.97-1.32-1.17-.97-2.44-.48-1.45.55-13.59,13.77-15.23,10.6-1.39-6.24-.96-16.02-2.76-21.76-.16-.52-.8-.56-.95-.81ZM354.5,370.66c-.32-.37-6.45,1.79-5.25,3.28l5.25,1.98v-5.26ZM527.51,407.37c3.74,2.02,9.18,2.39,12.06-1.23.43-2.92.25-17.12-1.63-18.06-1.15-.58-4.7-.74-5.61.32-1.08,1.26-3.6,16.04-4.83,18.98ZM398.17,410.5c-.71-1.72-3.12-9.12-4.63-9.56l-13.31,5.96c-2.57,4.01,13.19,25.86,12.73,31.55s-18.82,17.02-24.53,19.08c-.43.73-.24,3.01.5,3.55,2.01,1.47,30.3-5.16,34.29-7.38,3.33-5.26-.5-30.35-2.36-37.04-.71-2.57-1.86-4.15-2.69-6.17ZM456.79,417.59c.98,2.6,1.64,5.07,3.88,6.98,6.73,5.71,26.03,4.4,26.04-6.25.01-8.54-9.72-5.24-14.09-5.64-4.01-.36-11.36-3.91-14.62-1.3-.15.12-2.17,2.97-2.22,3.15-.71,2.67.87,2.7,1,3.05ZM540.56,410.1c-4.69,2.96-8.79,2.25-13.79.65-.04,4.06-5.32,8.94-6.28,12.46-1.28,4.7.66,9.7,1.15,14.35,9.05,3.25,16.86,8.58,24.18,14.6l-5.26-42.06ZM164.5,463.99c8.02.91,23.43-6.84,22.96-15.99-.4-7.83-9.47-18.19-15.43-22.75-10.33-7.91-23.54-11.47-36.47-10.87-9.9,11.61-17.46,27.57-4.94,40.45,10.71,11.02,26.94,11.1,38.82,1.96.52-.4,6.99-9.37,7.39-4.29.2,2.55-10.23,9.74-12.33,11.5ZM518.21,437.05l-.98-9.86c-2.24,2.99-6.66,2.81-6.29,7.51l7.27,2.35ZM444.2,445.98c-1.79-4.31-3.73-8.68-6.85-12.22,2.15,14.09-1.16,27.45-1.97,41.41l11.71-18.91c.58-3.93-1.56-7.08-2.89-10.28ZM486.99,440.99c-3.16.39-6.95-.28-10.19,0-.02,8.67,1.06,13.91,10.86,13.84,11.73-.09,20.26-8.8,20.69-20.4-6.8,2.74-14.01,5.67-21.36,6.57ZM548.88,460.94c-4.13-5.7-10.33-11.27-16.4-14.82-2.93-1.71-19.65-9.58-22.09-7.69-6.73,20.66-12.17,40.03-13.24,62.02-1.53,31.74,1.7,64.72,3.97,96.32.96.98,12.49-6.69,14.11-7.92,2.88-2.2,5.5-4.55,7.94-7.23-1.04-7.8,1.2-15.24,4.9-22l-3.98-1.39c.69-6.07.27-12.29.65-18.36.45-7.29,1.91-15.41,1.42-23.66-.66-10.9-4.55-24.71-4.65-36.13-.01-1.51-.47-3.17.99-4.25,2.86.47,1.82,3.86,2.33,5.43,2.84,8.76,4.17,26.14,4.55,36.32.49,13.11-.91,25.99-1.26,39.06,12.54,2.36,26.49,2.93,38-3.01,1.44-18.12,1.17-36.39-2.08-54.27-2.11-11.6-8.18-28.77-15.16-38.42ZM213.43,459.79c-2.29-6.4-3.5-13.09-5.86-19.45l-15.4,8.94c7.67,21.6,24,39.43,42.67,52.18.18-1.21-.03-1.94-.62-2.99-2.1-3.75-7.67-9.27-10.08-13.62-4.15-7.5-7.83-17-10.72-25.06ZM474.17,440.99c-27.5,6.39-34.19,39.74-48.63,60.15.11.94,12.91,5.84,10.83,8.87-1.71,2.5-8.84-5.96-12.85-5.65-4.07.31-17.99,12.02-23.64,12.89l5.6,3.92c7.64,6.83,11.63,16.65,10.84,26.96,10.97-6.51,20.93-14.69,29.47-24.1,1.37-16.56,3.26-34.04,7.78-50.06.35-1.25,5.06-17.89,6.68-10.82-3.43,12.36-7,23.99-8.89,36.88-4.1,28.02-4.97,56.73-9.6,84.4-.93,5.56-3.68,10.69-4.41,16.29,25.75-18.38,23.4-55.54,26.3-83.79,1.76-17.11,3.66-31.84,6.87-48.35,1.86-9.57,5.38-17.47,3.64-27.59ZM590.54,448.88l-7.88.67c4.55,5.97,4.09,13.23-4.43,14.96-2.28.46-4.92-.29-6.94.29-1.45.42-3.72,3.94-5.51,5.01-2.53,1.51-5.2,1.31-7.42,3.06,8.9,15.3,10.29,34.78,11.43,52.31l20.75,3.9v-80.19ZM190.11,453.53l-1.34.36c-3.13,4.33-2.69,5.08-.51,9.69,6.23,13.18,21.73,30.08,33.14,39.17,40.31,32.12,103.14,51.6,153.49,34.85-.59-.68-3.76-2.36-4.34-2.43-4.15-.53-19.52,3.42-25.55,3.78-36.86,2.22-78.46-11.46-108.74-32-19.69-13.36-36.65-31.45-46.15-53.43ZM493.89,511.33c-.12-19.59,2.9-38.99,7.88-57.85-8.1,4.65-16.33,6.29-24.97,1.97l-8.6,52.83,25.69,3.04ZM294.23,482.19c2.97,2.45,7.96-7.32,7.56-10.46-.05-.4-2.21-6.53-2.45-6.8-1.17-1.34-21.61-4.94-25.04-6.19.53,4.62-3.18,6.13-4.6,9.85,8.78-.19,14.97,2.91,21.05,8.87,1.29,1.26,2.45,3.88,3.48,4.73ZM365.65,459.43c-7.04,1.71-13.68,4.37-20.86,5.7-5.43,1.01-13.34-1.33-13.29,6.09,9.21-2.29,19.13,2.41,25.31,9.19,3.98-6.18,12.12-13.11,8.84-20.99ZM4.08,470.24v161.37l34.13-18.8c-.53-4.59-4.75-1.48-8.16-1.52-15.33-.17-27.93-16.27-14.15-27.99-17.42-7.76-12.7-34.09,5.93-35.17-9.37-20.08,7.3-35.74,27.24-27.65,2.42-6.13,6.24-13.38,12.62-16.3,12.23-5.6,28.49-1.21,31.15,13.06,13.23-8.74,32.44-3.03,31.56,14.46,18.02-8.18,36.96,9.2,26.3,26.94,5.25.98,10.6,3.88,10.52,9.87l57.18-14.8,9.22-28.89-.96-1.69c-41.08-30.89-88.42-55.59-140.4-61.1.39,5.17,2.17,10.26,1.87,15.99-1.6,4.37-26.8,4.19-29.53.17-1.85-2.72,1.6-13.67,1.36-17.47-18.84,1.41-38.28,2.09-55.88,9.53ZM364.11,480.18c1.65-2.38,5.12-7.38,3.56-10.26-4.99,10.62-18.99,26.01-31.3,27.54-3.6.45-7.23-.25-10.79-.27,12.64,8.64,31.46-6.82,38.53-17.01ZM291.95,486.23c-1.22-10.5-22.19-20.91-28.16-9.41,9.68.54,15.9,5.48,21.48,12.86l6.68-3.45ZM326.24,481.09c8.19-2.15,17.12.29,22.77,6.52l5.4-4.31c-4.6-8.76-24.72-15.12-28.17-2.22ZM261.81,493.58c-2.24,2.03,8.68,5.08,9.6,5.18,11.46,1.15,30.89-8.18,32.46-20.96-9.11,13.18-25.98,23.53-42.07,15.78ZM433.11,481.48c.14-.34.96-1.2.93-1.38l-1.95-.98-.66,3.93c.4.09,1.63-1.47,1.68-1.57ZM282.19,491.6c-3.06-8.5-25.51-19.19-20.7-2.62.58-2.21,2.72-7.17,5.58-4.26l-2.7,5.91,3.04,2.29c.84-2.94,3.84-10.67,6.87-5.62-1.15,1.95-4.07,3.05-3.17,5.53,1.19,1.73,9.08-.62,11.08-1.23ZM346.62,490.28c-3.44-8.64-29.79-11.05-20.71,3.28,1.59.04-.08-7.72,4.59-6.55,2.07.52-1.24,4.02-.66,5.33l2.66,2.54c1.89-.47.69-4.07,1.27-5.94.52-1.69,2.41-3.7,3.65-1.59l-1.32,6.88,10.51-3.95ZM430.78,483.72l-.34,1.95c.76-.46,1.79-1.96.34-1.95ZM390,501.47l-12.16,5.87,2.31,15.15,15.74-4.97-5.88-16.05ZM238.15,502.78c-.96,1.06,6.76,6.05,7.87,6.25l-7.87-6.25ZM86.52,511.73c-12.18-14.47-34.87-4.65-33.13,14.06-4.15.11-6.69-3.54-11.14-4.3-12.06-2.08-21.23,6.1-19.75,18.43.52,4.33,3.16,6.75,4.6,10.5-1.52,1.81-3.53.08-6.07.48-11.28,1.77-16.64,17.56-9.05,25.82,3.46,3.76,7.64,3.13,11.16,5.92-21.54,10.05-4.43,29.17,13.17,24.65-2.15-19.67,25.52-30.42,35.48-12.8l1.32.3c3.6-5.69,12.06-10.78,19.25-9.7,2.99.45,7.83,4.49,9.19,4.35,18.71-7.35,37.61-14.36,57.04-19.63,1.23-7.3-11.94-7.54-12.42-9.66-.33-1.44,2.56-3.76,3.35-5.66,5.27-12.76-6.64-23.53-19.36-21.33-3.84.66-5.98,4.39-9.62,3.06-.69-3.33,2.15-3.53,1.2-7.34-.1-.38-3.18-6.37-3.62-7.01-4.72-6.86-14.58-6.81-21.24-2.92-2.1,1.22-2.89,4.24-5.99,3.54.18-4.81-1.46-7.35-4.35-10.77ZM374.23,508.69c-17.24,7.25-35.78,10.8-54.49,11.25l-1.39,15.04c16.96,1.56,33.87-2.12,50.85-2.74.51-3.08,7.93-7.12,8.23-8.25,1-3.66-3.44-11.27-3.2-15.3ZM258.52,514.62l-9.19-3.63c2.07,1.08,5.41,3.81,7.43,4.42,1.08.32,1.26.68,1.76-.79ZM493.89,513.95h-14.79c-2.68,0-8.09-1.74-10.84-2.63-.68,3.22-2.1,5.8-1.22,9.76,8.61,2.97,17.92,1.85,26.86,2.07v-9.2ZM249.07,539.35c.79-2.06,4.53-11.5,3.9-12.89l-19.42-11.19-9.31,30.5c-3.55,15.2-9.04,29.3-17.39,42.43-.35,3.61,18.57,6.66,21.67,6.38,7.31-.66,6.26-12.82,7.71-18.31,3.24-12.28,8.3-25.06,12.83-36.92ZM282.49,522.21c-.47-.76-.43-1.87-1.37-2.25-3.99-1.61-15.08-1.28-19.97-3.37,1.48,2.59,21.54,10.78,22.35,9.85.54-2.61-.14-2.82-1.01-4.23ZM409.34,531.44c-7.5-12.64-13.87-12.87-26.99-6.43-2.5,1.23-12.06,6.24-7.67,9.2,4.86,3.28,16.23-5.15,18.22-4.46,2.34.82.15,4.75.42,5.18.14.23,4.39,2.04,4.92,2.08,2.38.15,4.8-2.39,6.92-1.07,2.61,1.62-3.5,3.67-4.62,3.64,1.88,3.3,2.1,4.77,1.65,8.55,11.86-2.61,12.99-6.86,7.15-16.7ZM494.55,538.93v-11.5l-28.27-2.96-.57,10.76,1.02.95c9.13,2.14,18.42,3.2,27.82,2.75ZM286.79,539.6l-29.94-11.18-3.58,8.29c.02,2.54,6.69,8.63,9.52,8.84,1.73.13,21.1-3.78,23.09-4.57.87-.35,1.14.22.91-1.38ZM590.46,531.77l-20.33-3.04c-1.13.67.09,21.95-1.44,26.17-.78,2.15-6.84,4.25-9.06,4.42-.28,1.07,1.1.28,1.3,1.1,1.88,7.72.37,20.67-4.31,27.11-1.31,1.8-4.84,3.29-4.95,4.31l11.62,42.97,27.15-4.28.02-98.76ZM445.23,529.73l-13.6,11.47,9.99,18.11c1.24.05,1.96-22.61,2.25-24.69.11-.84,2.55-2.26,1.36-4.89ZM374.89,544.84l3.63-.64,9.51-9.22c-5.44,1.17-11.47,4.21-13.14,9.86ZM389.73,545.21c1.41-1.44,5.28-5.48,3.58-7.29-1.42-.98-11.56,6.68-12.72,8.19-.56.73-.6,1.05-.41,1.98,4.75,1.84,6.54.19,9.54-2.88ZM494.55,542.21l-29.58-3.28c-1.51,19.5-3.56,41.64-17.12,56.83-2.34,2.62-6.8,5.07-8.53,7.24-.59.74-.94.55.02,1.32,19.09,8.02,40.38,4.87,58.39-4.38l-3.17-57.73ZM256.54,546.81l-5.25-5.91-1.97,7.23,7.22-1.32ZM313.71,545.54l-24.28-4.63c1.47,11.56,5.24,25.53,3.93,37.12-.89,7.88-6.8,14.36-8.48,21.97,5.38,1.94,19.33,5.68,24.22,2.97,5.76-3.2,3.16-23.88,3.32-30.21.23-9.02,1.27-18.18,1.3-27.22ZM4.08,635.88v201.46h81.52c25.63-29.18,56.66-54.75,89.33-76,7.99-5.2,16.66-9.42,24.4-15.03-47.97-15.69-100.75-5.65-145.6,14.79-3.35-2.75,3.65-5.03,5.79-6.03,11.54-5.39,24.26-8.06,35.94-13.03-7.5-1.5-15.78-5.45-22.18-9.71-5.87-3.91-25.48-21.94-25.19-28.78s18.2-2.34,22.39-1.29c9.6,2.41,22.23,8.55,29.91,14.79,2.66,2.17,4.59,5.63,7.56,7.22l-7.23-34.17c-3.72,2.09-6.61,5.68-11.02,6.4-12.66,2.06-22.14-6.76-15.94-19.19-22.94-4.71-15.74-31.05,5.92-24.68v-10.19c0-1.19,3.76-5.41,5.03-6.15,8.72-5.04,21.05-.3,21.28,10.42,16.06-11.22,34.34,7.95,18.39,21.37,15.21,15.72-4.68,33.77-21.04,21.69l5.99,28.72,3.21,6.44c1.61-10.09,7.24-20.2,14.14-27.61,2.69-2.89,13.05-12.55,16.78-11.57,4.44,1.97,3.59,10.27,3.3,14.55-.57,8.62-6.99,23.46-12.23,30.52-1.25,1.69-4.5,3.73-5.54,5.93,12.69-1.32,25.47-1.87,38.13,0-7.11-9.59-13.2-22.46-9.4-34.7,4.98-16.04,16.13,4.66,18.63,11.34,1.38,3.69.74,8.64,3.91,10.87.7-5.63,5.44-13.6,5.81-18.91.19-2.72-1.73-5.58-1.21-9.69.3-2.37,1.91-4.09,1.93-6.47-9.63-3.95-29.77-15.63-23.23-28.62,5.14-10.21,21.83.64,24.93,7.83,1.08-.5-.33-1.52-.33-1.64v-11.17c0-5.71,6.44-13.2,12.63-12.67,10.56.91,13.2,15.93,9.73,24.17,7.08-3.62,13.38-10.19,21.9-5.78,10.85,5.61,2.07,17.01-5.65,21.06-.96.5-2.05.51-3.1.52,2.78,1.84,6.21,2.4,8.86,4.61,4.76,3.96,7.28,10.74,2.27,15.38-8.25,7.64-22.21,1.7-28.87-5.54.28,4.34-5.04,8.98-9.03,9.7-2.53.46-7.46-1.02-8.41.15l-6.89,23.67c8.26-8.52,21.01-15.18,33.22-13.83,1.38.15,3.63.22,4.15,1.8,2.45,7.34-18.9,19.51-24.89,21.25-.31,1.69.22,1.02.92,1.37.79.4,7.31,2.6,7.95,2.6,68.26-39.03,143.35-62.99,218.79-84.13l5.62-12.32-4.91-6.45,8.23-27.5c-.15-.45-7.32-5.27-7.78-5.41-2.83-.86-6.01.55-9.4.19-12.12-1.27-8.71-8.97-7.22-17.77l-11.03-25.78-6.43,13.3c-.89,12.3-12.73,14.93-23.39,13.89-22.31-2.16-1.66-23.22,3.8-31.51,2.29-3.48,3.98-8.97,6.94-11.13v-1.29c-3.79-.52-5.18-3.83-3.94-7.24-14.95,6.67-31.62,6.23-47.68,5.94-1.84-.03-6.74-1.72-7.91-.07l-1.1,50.82c-4.72,8.91-1.89,16.38-13.62,19.25-5.16,1.26-23.6,2.35-25-4.65-1.78-8.92,12.5-24.92,13.71-35.56.8-7.03-1.73-24.07-3.2-31.46-.15-.76-.3-1.19-.98-1.62l-39.16,7.5c-2.65,7.67-4.89,15.47-6.9,23.34-2.78,10.93-1.77,11.6-7.01,21.92-2.34,4.62-1.21,9-7.77,11.3-4.77,1.67-27.04,2.32-27.92-4.57-.39-3.07,2.04-8.45,3.41-11.35,3.39-7.17,10.15-16.34,13.29-23.69,1.21-2.84,2.55-8.15,3.01-11.31-38.64,9.72-77.01,20.6-114.1,35.15l.69,11.51c16.25-7.97,32,10.64,17.94,23.56-17.8-3.97-35.33-11.38-53.43-14.05-18.94-2.8-25.34.78-41.47,9.19-7.88,4.11-15.45,9.12-22.98,13.83ZM399.11,542.98c-2.34-3.75-6.91,4.58-8.09,5.83-.67.71-5.23,3.53-4.95,3.91,1.46.07,2.29,1.85,3.64,2,3.34.38,10.76-9.56,9.4-11.74ZM429.45,543.53c-9.51,4.08-11.63,9.18-11.19,19.42.15,3.47,2,8.04,1.92,11.09-.17,6.31-7.71,11.98,2.44,16.75,6.27,2.94,13.83,3.23,15.75-4.49,1.45-5.84-.42-8.77-.28-12.88.09-2.69,3.28-6.51,2.54-10.46-.54-2.87-12.22-13.74-11.18-19.43ZM411.05,550.1c.2.25,1.39-.07,1.64-.65l.32-2.63-1.84.78c-.24.43-.23,2.37-.12,2.5ZM383.25,552.91c-1.14-.95-3.73-1.75-5.07-2.81-3.32,9.21-9.94,17.15-15.78,24.97,5.79.35,20.89,5.44,24.76.45,1.3-1.67,7.06-17.8,6.13-18.84-2.87,1.19-6.12,1.26-8.58-.95-.78-.7-.88-2.33-1.46-2.81ZM416.31,552.08c-4.31,2.07-5.87,1.43-9.51-1.3l-2.99,2.27c2.08,9.68,6.15,18.66,10.86,27.27,4.99-8.11-1.61-18.92,1.64-28.25ZM409.32,578.13c-4.07-8.19-6.38-17.8-9.41-26.42l-1.92-.18c-3.13,3.36-1.49,6.78-.2,10.81,11.5,35.89,33.58,59.7,74.63,54.72,16.61-2.02,42.54-15.3,54.33-27.19,2.76-2.78,3.44-4.9,2.96-8.87-11.88,9.61-24.17,19.4-38.49,25.28-32.59,13.37-66,3.87-81.91-28.15ZM557,559.96c-8.6,1.74-17.7,2.07-26.27,0-1.86,6.27-4.67,12.27-3.96,19.06.77-.72,4.12-3.61,4.4-4.12.89-1.58-.23-6.97,3.42-3.33.62,1.73-2.54,14.65-2.53,17.75,0,4.25,4.09.45,5.45-1.27,2.36-3,4.18-13.96,6.97-8.76l-4.57,12.87c7.29-1.92,10.77-10.81,10.52-17.74h2.62s-1.96,13.8-1.96,13.8c7.63-.56,7.49-27.02,5.9-28.26ZM98.54,591.72c-7.36-8.7-22.31.18-25.41,8.69l-1.59.93c-2.85-3.27-2.01-7.91-6.61-10.52-14.21-8.06-31.07,7.38-23.37,21.07,26.43-8.16,53.85,7.29,79.72,11.86,8.87-10.7-2.84-22.51-14.63-18.09-2.1.79-6.23,5.58-6.44.86s2.43-9.93-1.68-14.79ZM548.95,593l-2.16-.79c-4.21,4.59-7.28,1.3-10.39,1.42-.94.04-2.13,1.36-4.06,1.23-2.21-.14-2.74-2.36-4.45-1.96-2.77.64-18.25,14.97-23.16,16.35-.97,2.02,1.84,17.16,2.51,20.5,1.35,6.69,3.68,17.38,5.78,23.66.14.4,1.58,1.37,1.62,2.56,15.84-2.69,34.72-4.35,46.29-16.5l-11.98-46.48ZM502,622.87c-.45-2.05-.69-11.43-1.86-11.61-20.5,11.07-44.42,12.83-66.08,3.92-.36,6.22-8.46,20.57-7.78,25.82.37,2.83,10.64,7.15,13.52,8.2,21.94,8.03,48.11,8.2,71.18,6.72-3.42-10.6-5.57-21.47-7.95-32.35-.11-.49-1-.57-1.03-.71ZM590.54,634.24c-6.29,1.55-20.54,1.11-25.86,3.39-.86.37-3.33,9.26-7.61,9.17,3.59,5.86,5.96,12.57,9.24,18.56,3.64,6.62,7.01,8.44,8.97,17.32,2.22,10.04-16.64,25.9-25.05,29.24-7.39,2.93-32.26,6.92-35.45-2.93-.89-2.75.7-11.29,2.23-13.84,2.76-4.58,7.33-4.24,10.06-6.38,1-.79,6.74-10.08,6.91-11.55.24-2.17-6.29-17.04-7.84-18.85-.66-.77-1.3-.99-2.3-1.01-20.97,3.9-42.7,3.1-63.68-.02-5.99,9.16-8.25,19.93-12.04,30.12.69,3.53-1.01,16.79-3.13,18.84-7.72,7.44-38.88.56-48.6-3.2-5.23-2.02-18.22-7-15.25-14.3.4-.98,10.29-9.08,11.6-9.43,3.6-.99,7.19.02,10.66-.52,10.12-1.57,15.05-3.86,15.86-15.03-19.12,6.37-38.82,10.9-58.06,16.88-96.23,29.92-194.49,76.04-265.12,149.05-1.99,2.05-4.34,5.15-5.89,7.59h392.5c-4-8.97-8.57-18.12-13.68-26.77-6.82-11.55-20.39-27.51-25.3-39.14-.97-2.31-2.55-7.67.52-8.38,25.27,5.37,40.01,31.23,50.27,52.59l-.65-45.35c-8.9.65-28.05-12.85-28.96-21.36-.13-1.19.01-3.94.85-4.77,7.2-2.91,14.1,4.02,19.56,7.73-7.93-27.06,9.45-28.89,13.16-3.29l6.55-7.58c6.82-8.11,13-7.21,11.84,4.61-.51,5.22-7.58,18.72-11.96,21.54-2.67,1.72-5.79,1.91-8.44,3.56l1.35,31.11c6.4-12.02,14.45-26.88,26.07-34.73,13.27-8.96,8.06,3.62,5.66,10.92-5.28,16.03-12.52,31.48-16.55,48-.9,3.68-.56,7.72-2.04,11.3h79.55v-203.11ZM117.82,670.39c.69-4.77,7.36-4.23,8.9-9.83,4.08-14.84-14.31-17.73-22.38-8.59-1.44-.18.21-13.14-9.92-14.38-12.76-1.57-13.57,9.48-10.79,19-2.77.54-4.42-1.52-6.96-1.91-11.98-1.82-18.85,10.8-8.49,17.03,3.71,2.24,7.95,1.04,11.51,2.97-13.62,22.03,14.25,25.83,22.04,6.89,3.46,3.48,2.26,5.55,7.39,7.72,16.8,7.12,25.5-15.84,8.71-18.9ZM211.32,683.66c.72-.45,6.73-1.15,8.4-1.77,4.97-1.86,15.29-6.94,14.35-13.63-.75-5.34-6.96-5.7-11.1-4.81-6.29,1.36-15.68,13.08-16.71,12.85-2.33-.52,1.1-7.76,1.43-9.73.99-5.92,2.51-16.02-3.94-19.32-7.43-3.8-11.07,2.39-11.66,8.97-.53,5.82,1.19,13.55.75,18.44-.08.89-.05,1.75-1.03,2.18-1.87.61-6.98-8.74-8.88-10.75-13.61-14.39-24.69-2.15-11.22,10.56,5.45,5.14,12.73,8.06,19.82,9.94,1.33,3.06-1.59,3.53-2.43,5.42-6.11,13.67,8.63,15.98,13.75,6.45,1.59-2.95.47-8.25,4.28-6.93,1.22,8.58,18.66,15.19,24.78,9.76,6.76-6.01-3.06-14.02-9.4-14.97-3.07-.46-9.71.8-10.9.41-1.49-.49-1-2.65-.3-3.09ZM455.76,656.59l-26.3-7.9-7.29,20.51-5.85,8.74c8.25,5.6,10.89,15,10.51,24.65,4.36-7.74,10.85-12.48,18.69-16.47l10.23-29.53ZM554.95,649.44l-25.53,8.08c-.07,5.99,12.64,17.44,6.55,23.38,11.03-.68,20.53,3.88,27.28,12.48,3.18-2.87,0-7.15-.32-10.84-.48-5.42,1.42-11.5.6-16.38s-7.64-11.4-8.59-16.72ZM567.51,688.13c2.89-5.52,4.23-13.4-1.3-17.74-.15,6.13-2.52,12.1,1.3,17.74ZM409.33,690.52c-4.63-7.61-11.31-12.21-19.32-5.33-.8,2.89,5.87-3.07,6.85-2.28l1.03,2.58c-10.35,4.21-2.21,5.12,2.97.68,2.51,2.09-.44,4.1-2.56,4.54l-.4,1.35,12.94,5.82c3.19.07-.91-6.38-1.51-7.37ZM142.81,689.45c-18.04,7.64-29.48,30-28.92,49.29l2.66-1.13,14.29-30.88c2.23-3.22,3.98-1.26,2.87,2.18-1.84,5.68-8.79,19.71-11.75,25.72-.41.84-1.79,1.34-2.15,2.48,3.58,1.44,5.4-1.03,7.65-3.2,6.57-6.37,15.36-22.42,15.36-31.64v-12.82ZM445.03,695.82c4.05-9.76-5.29-3.62-8.69-.48-1.88,1.73-3.78,5.19-5.56,7.25,4,.3,8.57-.91,11.61-3.5.16-.14,2.56-3.07,2.64-3.27ZM552.97,703.17c2.47-4.13-13.96-10.05-17.34-10.42-2.52-.28-9.23-.34-11.52.29-5.05,1.4-8.25,9.36-1.95,11.53-.66-4.25,1.31-8.41,5.92-8.54,1.09,2.85-2.52,3.54-3.22,5.13-2.08,4.68.41,4.95,4.54,5.38-2.14-3.22,6.2-13.24,4.98-7.21-.83,4.12-5.38,8.63,3.57,7.86-.82-2.17,1-9.39,3.62-9.19,2.27.17-2.64,7.25-.99,9.18l12.39-4.02ZM168.19,704.16c-.87-1.12-4.94-5.74-6.3-4.84-3.61,9.03-2.07,19.63,2.5,28.04,1.12,2.06,8.78,12.28,11.29,10.08,2.02-10.28-1.02-24.96-7.49-33.27ZM109.58,733.2c-7.06-13.92-25.01-23.91-39.61-27.78-6.15-1.63-12.93-3.3-19.21-2.16,6.74,12.66,18.02,23.86,30.89,30.57,6.94,3.62,18.03,8.69,25.65,5.91-9.26-9.33-20.98-15.84-32.79-21.45l-.06-1.86c1.3-1.78,12.31,4.4,14.4,5.59,7.29,4.15,14.49,9.86,20.76,15.4,2.79-.74.32-3.53-.04-4.23ZM215.78,719.69c-13.75-.59-28.28,6.25-35.48,18.07,5.76,3.58,11.13.41,16.43-1.96,7.04-3.16,16.38-8.79,19.05-16.11ZM491.05,735.67c-.54-.62-2.5-1.86-3.39-2.18-3.87.83.46,18.13,1.3,21.04.58,2,.72,2.59,2.3,3.93-3.92,2.89-8.05-4.43-10.85-6.56-6.92-5.26-18.69-10.14-8.49,3.23,6.43,8.43,22.33,16.54,31.85,8.95,3.63-2.89,9.6-15.21,10.46-19.23.49-2.29.71-6.9-2.79-5.99-3.9,1.01-12.02,15.06-12.31,19.62l-1.92-.03c-1.35-6.15-1.96-17.9-6.17-22.77ZM485.34,837.34h11.18c-3.03-25.21-21.65-57.45-44.91-69.14-1.87-.94-3.87-1.51-5.7-2.51,10.31,25.08,31.39,45.4,39.44,71.65ZM499.15,837.34h9.2c1.25-14.28,5.81-27.76,10.51-41.09,3.39-9.63,8.15-18.69,10.52-28.58-17.23,10.46-31.1,33.25-31.54,53.58-.12,5.74,1.59,10.44,1.3,16.09Z"/>
  <rect x=".14" y="841.29" width="595" height=".66" fill="#fff"/>
  <path d="M590.54,3.89v235.97c-6.8-4.78-13.61-9.86-20.05-15.12-33.34-27.2-51.31-45.98-94.56-17.63-16.99,11.13-32.66,25.61-48.75,38.01l-16.84-63.22c-16.37-48.07-84.31-59.52-118.3-23.89-27.44,28.76-8.56,58.81-15.41,93.05-1.06,5.32-3.15,11.14-4.64,16.41-16.51-8.83-34.68-25.57-54.57-23.33-7.08.79-21.65,8.46-28.14,12.27-13.68,8.01-26.5,18.94-39.87,27.5-1.08-7.83-6.76-12.69-14.48-13.15,6.42-20.96-14.84-32.23-32.87-24.97-5.37-29.52-53.92-29.91-59.84,0-14.62-4.63-32.3,1.82-34.18,18.4l-3.94-.66V3.89h586.45ZM514.01,58.7c-19.01-26.99-72.13-15.03-66.15,21.43-16.09-5.04-33.41,3.87-35.51,21.04-25.64-6.07-33.3,28.23-5.6,29.6,48.89-2.41,100.75,3.13,149.3.01,28.76-1.85,28.2-29.77,1.61-30.93,6.89-23.93-19.51-38.33-39.44-28.26-.18-4.58-1.59-9.17-4.21-12.89ZM159.9,79.15c1.49-5.13-1.11-17.68,0-23.66-1.01-1.39-2.27-1.39-3.29,0v21.36c0,.07-1.09-.2-1.33.35-.61,1.39,3.6,5.47,4.62,1.95ZM120.71,79.23c-1.71-2.63-7.05-13.03-9.7-12.92l-1.73,1.35,14,20.16,2.42.86c1.39-3.77-3.33-6.89-5-9.45ZM202.38,76.6c1.89-2.86,3.75-5.73,5.44-8.73l-.99-1.47-2.1.05-12.96,19.63c-.6,1.86,1.85,3.56,3,1.62,1.74-4.11,5.32-7.62,7.62-11.11ZM201.6,110.09c-21.09-33.84-76.24-29.63-89.5,8.69-11.61,33.54,15.73,64.65,51.41,61.91,34.51-2.65,57.13-40.06,38.1-70.6ZM80.73,98.58c-1.08.65-1.43,1.47-.73,2.61.59.97,19.27,9.49,20.57,9.69.94.14,3.38.37,3.44-.84.09-1.78-20.25-10.41-23.28-11.46ZM213.16,110.36c1.75.62,2.74.8,4.6.37,1.42-.32,18.63-8.13,19.91-9.05,2.59-1.86.87-3.51-2.17-2.85-1.74.38-16.11,7.26-18.42,8.55-1.2.67-3.14,1.86-3.91,2.97ZM65.88,143.89l26.61-1.33c2.91-.68,3.07-3.29.05-3.61-2.32-.25-25.62,1.18-26.37,2.27l-.29,2.67ZM219.19,142.47c7.11-.73,16.48,2.07,23.25,1.47,3.11-.28,4.57-1.84,1.28-3.33-3.74.86-24.26-3.15-25.26-.27l.73,2.13ZM206.03,169.44c.64,1.2,21.33,14.31,22.93,14.87,2.58.91,3.45-.85,1.54-2.86-.88-.93-20.17-13.52-21.47-14.04-.82-.33-1.59-.85-2.47-.2-.72.51-.92,1.53-.53,2.24ZM109.27,168.22c-.3-.29-2.55.04-3.27.34-1.08.46-18.25,12.46-19.26,13.42-2.59,2.47.35,3.7,3.67,1.88,1.83-1.01,17.52-11.82,18.2-12.7.56-.73,1.08-2.54.66-2.95ZM133.34,189.65c2.21-3.88-1.02-5.13-3.31-1.67l-10.88,22.94,2.2.54,11.99-21.81ZM190.4,197.54c-.5-.89-5.92-13.84-7.44-9.19-.45,1.4,5.76,13.73,7,15.83.79,1.33,4.76,7.62,5.76,7.41,3.47-.72-4.53-12.65-5.32-14.05ZM157.27,193.52v25.63c1.01,1.39,2.27,1.39,3.29,0v-25.63c-1.01-1.39-2.27-1.39-3.29,0Z" fill="#fff"/>
  <path d="M4.08,635.88c7.53-4.71,15.1-9.72,22.98-13.83,16.13-8.41,22.53-11.99,41.47-9.19,18.09,2.67,35.63,10.08,53.43,14.05,14.07-12.92-1.69-31.54-17.94-23.56l-.69-11.51c37.1-14.55,75.46-25.43,114.1-35.15-.47,3.16-1.8,8.47-3.01,11.31-3.14,7.36-9.9,16.52-13.29,23.69-1.37,2.9-3.81,8.28-3.41,11.35.88,6.89,23.15,6.24,27.92,4.57,6.56-2.29,5.42-6.68,7.77-11.3,5.24-10.31,4.23-10.99,7.01-21.92,2-7.87,4.24-15.67,6.9-23.34l39.16-7.5c.68.44.83.86.98,1.62,1.47,7.39,4,24.43,3.2,31.46-1.2,10.64-15.49,26.64-13.71,35.56,1.4,7.01,19.84,5.92,25,4.65,11.73-2.87,8.9-10.34,13.62-19.25l1.1-50.82c1.16-1.65,6.06.03,7.91.07,16.06.29,32.73.73,47.68-5.94-1.25,3.41.15,6.72,3.95,7.24v1.29c-2.98,2.16-4.66,7.66-6.95,11.13-5.46,8.29-26.11,29.35-3.8,31.51,10.66,1.03,22.5-1.6,23.39-13.89l6.43-13.3,11.03,25.78c-1.49,8.8-4.9,16.49,7.22,17.77,3.38.35,6.56-1.05,9.4-.19.46.14,7.64,4.96,7.78,5.41l-8.23,27.5,4.91,6.45-5.62,12.32c-75.45,21.15-150.53,45.1-218.79,84.13-.64,0-7.16-2.2-7.95-2.6-.7-.35-1.22.32-.92-1.37,5.99-1.74,27.35-13.91,24.89-21.25-.53-1.58-2.77-1.64-4.15-1.8-12.22-1.35-24.96,5.31-33.22,13.83l6.89-23.67c.94-1.16,5.88.31,8.41-.15,4-.72,9.31-5.37,9.03-9.7,6.66,7.24,20.63,13.17,28.87,5.54,5.01-4.64,2.49-11.42-2.27-15.38-2.65-2.21-6.07-2.77-8.86-4.61,1.05-.01,2.14-.01,3.1-.52,7.72-4.04,16.49-15.44,5.65-21.06-8.52-4.41-14.82,2.16-21.9,5.78,3.47-8.24.83-23.26-9.73-24.17-6.19-.53-12.63,6.97-12.63,12.67v11.17c0,.12,1.41,1.14.33,1.64-3.1-7.19-19.79-18.04-24.93-7.83-6.54,12.99,13.6,24.67,23.23,28.62-.03,2.38-1.64,4.1-1.93,6.47-.52,4.11,1.4,6.97,1.21,9.69-.37,5.31-5.11,13.29-5.81,18.91-3.17-2.23-2.53-7.18-3.91-10.87-2.5-6.68-13.65-27.38-18.63-11.34-3.8,12.24,2.29,25.11,9.4,34.7-12.67-1.87-25.45-1.32-38.13,0,1.04-2.2,4.29-4.24,5.54-5.93,5.24-7.06,11.66-21.9,12.23-30.52.29-4.28,1.14-12.58-3.3-14.55-3.73-.98-14.09,8.68-16.78,11.57-6.9,7.41-12.53,17.52-14.14,27.61l-3.21-6.44-5.99-28.72c16.36,12.08,36.24-5.97,21.04-21.69,15.95-13.42-2.33-32.59-18.39-21.37-.22-10.71-12.56-15.46-21.28-10.42-1.27.74-5.03,4.95-5.03,6.15v10.19c-21.66-6.37-28.86,19.96-5.92,24.68-6.2,12.43,3.28,21.26,15.94,19.19,4.41-.72,7.3-4.31,11.02-6.4l7.23,34.17c-2.98-1.6-4.9-5.06-7.56-7.22-7.68-6.25-20.31-12.39-29.91-14.79-4.19-1.05-22.11-5.41-22.39,1.29s19.32,24.87,25.19,28.78c6.4,4.26,14.68,8.21,22.18,9.71-11.68,4.97-24.39,7.64-35.94,13.03-2.14,1-9.14,3.28-5.79,6.03,44.85-20.44,97.63-30.48,145.6-14.79-7.73,5.61-16.41,9.83-24.4,15.03-32.67,21.26-63.7,46.82-89.33,76H4.08v-201.46ZM146.1,609.27c-.37.58,0,2.33,1.11,2.49,2.35,1,9.42.46,5.68-3.04-1.11-.41-6.43,0-6.79.55ZM155.74,615.29c-4.9,1.8,4.72,5.57,6.79,2.18.98-2.9-5.26-2.74-6.79-2.18ZM332.15,631.62c-.62-.94-8.31-1.34-8.54,1.62.78,1.7,8.98,1.89,8.54-1.62ZM344.64,636.22c-.6-.9-7.69-1.19-7.88,1.62.36,1.65,8.43,1.86,7.88-1.62ZM130.15,764.88c.34-.3.36-1.13.81-1.49l-1.63-1c-10.47-.03-3.25,6.13.83,2.49Z" fill="#fff"/>
  <path d="M590.54,634.24v203.11h-79.55c1.48-3.58,1.15-7.62,2.04-11.3,4.02-16.53,11.26-31.97,16.55-48,2.41-7.3,7.61-19.87-5.66-10.92-11.62,7.85-19.67,22.71-26.07,34.73l-1.35-31.11c2.64-1.65,5.77-1.84,8.44-3.56,4.38-2.82,11.45-16.33,11.96-21.54,1.16-11.82-5.02-12.72-11.84-4.61l-6.55,7.58c-3.71-25.61-21.09-23.78-13.16,3.29-5.46-3.71-12.36-10.63-19.56-7.73-.83.83-.98,3.58-.85,4.77.92,8.52,20.06,22.02,28.96,21.36l.65,45.35c-10.26-21.36-25.01-47.22-50.27-52.59-3.08.71-1.5,6.08-.52,8.38,4.9,11.62,18.47,27.59,25.3,39.14,5.11,8.65,9.67,17.8,13.68,26.77H90.21c1.55-2.44,3.9-5.54,5.89-7.59,70.63-73.01,168.89-119.13,265.12-149.05,19.24-5.98,38.94-10.51,58.06-16.88-.81,11.18-5.74,13.47-15.86,15.03-3.48.54-7.06-.47-10.66.52-1.31.36-11.2,8.45-11.6,9.43-2.97,7.3,10.02,12.28,15.25,14.3,9.72,3.76,40.88,10.65,48.6,3.2,2.12-2.05,3.82-15.31,3.13-18.84,3.79-10.19,6.04-20.96,12.04-30.12,20.98,3.12,42.7,3.92,63.68.02.99.02,1.64.24,2.3,1.01,1.55,1.81,8.08,16.67,7.84,18.85-.16,1.47-5.9,10.76-6.91,11.55-2.73,2.14-7.3,1.79-10.06,6.38-1.53,2.55-3.12,11.1-2.23,13.84,3.18,9.85,28.05,5.86,35.45,2.93,8.41-3.33,27.27-19.2,25.05-29.24-1.96-8.88-5.33-10.7-8.97-17.32-3.29-5.98-5.65-12.7-9.24-18.56,4.28.09,6.75-8.81,7.61-9.17,5.33-2.28,19.57-1.85,25.86-3.39ZM275.45,736.29c-10.52,1.21-22.47,15.67-4.02,17.48,4.79.47,19.56.53,20.58-5.55,1.52-9.06-9.17-12.78-16.56-11.94ZM547.14,744c1.5.52,7.87.54,7.88-1.64.01-2.38-8.94-2.36-7.88,1.64ZM562.26,749.93l-4.82.1c-4.3,3.82,5.66,4.12,4.82-.1ZM308.94,758c-3.9-4.45-19.53-1.55-16.81,5.31,1.02,2.58,16.12,3.63,17.56-1.38l-.74-3.93ZM416.96,778.86c-.39-.63-9.18-1.73-9.68.96l.92,1.69c1.7-.04,10.93.85,8.76-2.65ZM420.74,786.87c-.97.22-1.8.74-2.44,1.5,5.57,5.62,10.11-3.24,2.44-1.5Z" fill="#fff"/>
  <path d="M369.6,258.96c.31,9.58,6.9,19.18,14.93,24.17,9.78,6.07,15.77,3.97,22.02,16.1,8.84,17.15,7.94,43.57-5.35,58.63-9.81,11.12-28.5,20.26-43.32,18.62-.16-12.5-7.29-23.04-13.89-33.1,9.14-4.4,18.13-9.28,25.93-15.85,2.38-.92,14.22,6.47,14.79,3.37-.49-3.4-12.3-5.48-12.44-6.57,3.06-9.59,2.46-23.38,1.57-33.54-.35-3.98-1.6-4.35-3.54-.63-.52,8.62,2.77,24.8-.35,32.52-2.18,5.42-20.87,14.66-26.58,17.47-.93.46-1.52,1.88-2.51,2.14-1.55.41-7.78-1.72-10.35-1.89-7.8-.52-16.89,1.73-7.58,9.21-3.28.24-9.21-.02-12.08,1.41-2.4,1.19-2.2,3.48-3.38,5.17-1.5,2.15-4.2,1.62-3.59,6.19.39,2.87,2.36,2.66,2.95,3.71.54.96-.78,2.84,1.27,5.28,3.33,3.95,18.66,6.21,23.73,5.89,2.81-.18,13-3.32,13.69-3.2.5.09,2.86,2.62,4.57,3.31,11.57,4.69,20.34,2.48,31.59-2.2,8.73-3.63,14.72-9.48,22.11-15.02,4.74,14.3,1.02,28.16-11.23,37.07-5.28,3.84-11.53,4.9-15.74,9.28-1.43,6.45,14.18,29.2,12.7,32.98-1.68,4.27-19.97,14.81-24.71,16.75-27.19,11.11-58.01,8.79-85.62.56-4.45-1.33-16.6-5.25-19.97-7.64-1.18-.83-2.19-1.93-2.55-3.37-2.59-10.28-5.57-36.85-4.76-47.21,1.65-21.26,18.08-39.63,38.77-44.32-.67,3.79,8.01,12.17,6.1,4.77-1.12-4.32-4.76-6.29-4.66-12.29.05-3.35,4.71-13.26,7.83-14.51,2.15-.86,8.19.67,12.61-.53,2.68-.73,6.09-3.61,8.13-3.73,2.31-.13,7.06,2.35,9.91,2.55,6.22.44,17.45-10.55,11.78-17.06-1-1.15-8.79-5.88-10.53-6.57-7.8-3.06-15.37-2.25-23.07.66-2.97-2.22-4.39-6.27-4.23-10.14.2-4.76,9.04-19.38,8.53-21.03-.14-.45-1.02-1.19-1.63-1.02-6.01,8.71-14.13,20.93-8.23,31.54-3.37.19-15.26,7.83-14.46,10.84.47.47.79,1.14,1.63,1,1-.17,10.86-10.76,14.81-8.86-3.78,5.24-7.21,10.29-9.06,16.58-1.43,4.85-.23,2.67-2.69,7.17-2.13,3.9-3.42,7.73-4.36,12.07-11.43-6.72-15.84-16.32-11.53-29.27,2.6-7.81,8.58-13.78,12.79-20.73,8.67-14.33,16.71-34.28,36.13-35.35,4.73,11.56,9.78,16.6,22.93,12.24,4.35-1.44,7.83-4.2,10.64-7.77,3.3-4.2,1.19-6.5,9.55-5.83ZM306.5,388.44c-2.86-3.67-7.49,8.05-8.07,9.97-2.71,8.95-2.25,19.12-.13,28.13.54,2.31,5.31,16.45,7.22,16.49,1.17.02,2.23-.22,2.31-1.66.04-.64-4.76-9.39-5.46-11.67-2.82-9.2-4.3-19.29-1.29-28.63-.39-2.17,5.84-12.08,5.41-12.62Z" fill="#fff"/>
  <path d="M590.54,243.8v201.79c-2.12.22-8,1.91-9.08-.45-3.91-17.56-6.75-35.31-9.32-53.13-.84-5.86-3.86-17.89-3.62-23.26.15-3.37,3.1-5.34,2.25-10.87-7.05-45.41-56.93-64.05-97.89-51.94-8.23,2.43-24.04,12.05-29.62,18.37-1.5,1.7-2.07,5.24-2.8,6.07-1.16,1.32-7.11,3.19-8.55,6.28-3.3,7.12-.39,13.1,6.8,15.34-2.43,11.47-3.92,22.98-5.33,34.63-1.03,8.48-1.62,11.55.19,20.35,3.85,18.74,12.94,28.81,32.04,32.71l-15.45,13.13c-1.58-4.29-2.58-8.88-4.75-12.96-1.89-3.56-6.86-7.97-8.63-11.13-4.22-7.52-4.43-13.9-11.3-21.57-6.09-6.8-15.46-11.05-24.31-12.52,5.61-8.51,8.13-16.58,7.22-26.93-.24-2.77-2.69-9.67-2.5-11.05.28-1.97,3.95-5.69,4.68-7.21,2.56-5.34,3.66-11.14,4.72-16.94,10.13-2.94,21.86-9.57,25.01-20.35,6.51-22.29-8.18-42.06-12.57-62.8,12.61-10.91,25.35-22.04,38.88-31.84,15.31-11.1,30.47-22.33,50.59-21.03,28.08,1.81,50.46,33.74,73.32,47.31Z" fill="#fff"/>
  <path d="M319.66,507.38l-3.5.79-1.83,25.42c-1.5,1.13-23.4-4.08-26.55-5.84-2.5-2.63-2.66-15.57-4.3-19.2-.16-.34-2.14-1.82-2.28-1.8-3.06.23.41,9.7-.33,10.49-20.59-1.96-39.2-11.14-50.49-28.72-9.63-14.99-14.8-33.13-19.77-49.86,9.63-6.21,19.78-17.34,21.33-29.18.5-3.83-1.66-5.79-2.87-2.86-1.32,3.22-1.3,8-3.43,12.2-.53,1.05-4.34,6.28-5.27,7.37-7.86,9.25-19.15,14.85-29.87,20.06-7.12-23.35-30.34-35.03-53.62-35.17,2.6-6.3,4.05-14.01,6.64-20.17.27-.63,1.14-.7,1.43-1.37,5.53-12.6,13.12-30.45,28.75-32.02-11.68,20.23,15.71,13.25,21.71,3.28l3.27,3.28c.24-23.02,8.28-49.2,30.6-59.79,7.33,7.14,5.93,21.02,4.04,30.34-3.22,15.96-8.91,19.74-16.57,32.07-3.98,6.4,6.18.1,6.9-3.62,3.51-1.81,24.74,19.99,26.68,24.67-1.01,9.15-1.63,18.67-1.01,27.92.38,5.65,3.22,28.19,4.89,32.57,1.89,4.95,16.06,7.15,16.68,9.57-.48,2.54-1.2,5-2.38,7.3-2.62,5.09-11.27,13.86-11.93,19.01-.5,3.88.18,9.92,3.11,12.75,11.34,10.98,34.68,1.72,43.15-9.27,7.12-9.24,3.57-12.82-.26-22.28l26.95,1.98c-7.7,12.81-17.82,38.55,7.93,35.19,10.2-1.33,24.98-13.68,30.34-22.26,3.21-5.14,4.06-9.52,2.52-15.55,6.53-2.1,31.96-4.42,35.4-9.65,2.7-4.1,1.29-20.04.64-25.44-1.27-10.59-4.32-21.84-9.8-30.98.09-1.05.55-1.53,1.62-1.61,8.99-.68,23.95,9.28,28.54,16.85,13.39,22.06,7.9,47.44,1.26,70.67-.99,3.47-4,14.55-5.93,16.75-1.42,1.6-19.23,11.79-21.48,12.38-.76.2-1.85.64-2.55.23-3.41-7.56-7.16-16.83-7.37-25.23-.06-2.52,1.94-11.71.75-13.07l-1.66-.37c-2.63,1.32-2.63,18.59-1.17,21.93-19.58,13.43-45.1,19.6-68.87,19.46v-9.2ZM225.64,322.03c-.77,0-1.62-.69-2.32-.62-6.77.74-17.37,34.48-14.39,41.4l1.61.31c1.7-.83,1.95-12.39,2.56-15.17.67-3.04,3.79-8.92,4.34-12.78l8.2-13.15ZM180.95,396.96c-3.33,8.62,3.28,15.8,11.99,12.98,4.5-1.46,7.87-10.28,4.76-11-3.45-.8-.4,10.05-9.8,8.5-7.23-1.19-1.55-9.15-6.94-10.48Z" fill="#fff"/>
  <path d="M271.32,272.43c1.58,2.64,1.25,6.09,2.65,9.5,2.28,5.53,8.01,10.34,13.48,12.5-11.08,13.27-22.78,34.64-6.85,49.23,1.38,1.26,8.39,5.01,8.67,5.45,2.1,3.37-6.36,4.14-8.64,5.21-8.98,4.18-16.17,10.78-22.44,18.31-1.8-3.29-4.16-6.94-7.24-9.18s-7.16-2.67-9.14-4.01c-2.11-1.44-5.64-8.99-10.26-9.15,1.55-3.69,3.3-7.93,4.31-11.78,1.77-6.76,2.82-13.82,2.3-21.43-.32-4.71-3.28-16.68-9.5-16.05-10.48,1.06-28.56,26.06-29.33,36.79l-21.07-1.61c-1.53-10.43-17.29-31.89-28-32.56-4.29-.27-4.56,4.91-4.86,8.18-1.16,12.43,2.85,30.84,9.88,41.25,1.07,1.58,5.64,4.63,5.18,6.62-2.53,2.96-5.32,4.95-7.71,8.14-10.44,13.97-12.05,28.24-19,42.76-1.83,3.82-6.08,8.55-8.18,12.88-2.4,4.96-6.04,13.95-5.12,19.03,2.14,11.75,15.17,22.55,27.23,23.5,5.06.4,10.99.48,15.86.58,8,.17,13.15-.99,19.67-5.84,11.31,21.34,26.86,39.54,47.36,52.58l-1.68,7.21c-12.09-7.37-23.14-16.23-35.29-23.53-32.7-19.62-69.08-34.27-107.41-37.88l-1.92-28.63c18.12,8.34,40.67-4.39,31.55-25.63,23.41-.52,27.25-33.53,3.95-38.13-.02-1.8,1.8-1.94,2.77-3.47,9.6-15.16-6.79-32.72-22.49-24.79.62-3.81-5.52-8.49-3.35-11.55l81.28-59.41c14.08-8.05,31.39-22.41,48.63-20.4,7.27.85,41.2,19.51,44.68,25.34Z" fill="#fff"/>
  <path d="M4.08,470.24c17.6-7.44,37.04-8.12,55.88-9.53.24,3.8-3.21,14.75-1.36,17.47,2.73,4.02,27.93,4.2,29.53-.17.31-5.73-1.47-10.82-1.87-15.99,51.98,5.51,99.31,30.21,140.4,61.1l.96,1.69-9.22,28.89-57.18,14.8c.07-5.99-5.28-8.89-10.52-9.87,10.67-17.74-8.27-35.12-26.3-26.94.89-17.49-18.33-23.2-31.56-14.46-2.67-14.28-18.92-18.66-31.15-13.06-6.38,2.92-10.2,10.17-12.62,16.3-19.94-8.09-36.61,7.57-27.24,27.65-18.63,1.08-23.35,27.41-5.93,35.17-13.78,11.72-1.18,27.82,14.15,27.99,3.41.04,7.63-3.08,8.16,1.52l-34.13,18.8v-161.37Z" fill="#fff"/>
  <path d="M86.52,511.73c2.88,3.43,4.53,5.97,4.35,10.77,3.1.7,3.9-2.31,5.99-3.54,6.67-3.89,16.52-3.94,21.24,2.92.44.64,3.53,6.62,3.62,7.01.95,3.82-1.89,4.01-1.2,7.34,3.63,1.33,5.78-2.39,9.62-3.06,12.72-2.2,24.63,8.57,19.36,21.33-.78,1.9-3.68,4.22-3.35,5.66.49,2.12,13.65,2.36,12.42,9.66-19.43,5.27-38.34,12.28-57.04,19.63-1.36.14-6.21-3.9-9.19-4.35-7.19-1.09-15.64,4.01-19.25,9.7l-1.32-.3c-9.96-17.62-37.63-6.87-35.48,12.8-17.59,4.51-34.71-14.6-13.17-24.65-3.52-2.8-7.7-2.16-11.16-5.92-7.59-8.26-2.23-24.05,9.05-25.82,2.54-.4,4.55,1.32,6.07-.48-1.44-3.76-4.08-6.18-4.6-10.5-1.48-12.33,7.69-20.51,19.75-18.43,4.46.77,7,4.42,11.14,4.3-1.73-18.71,20.96-28.53,33.13-14.06ZM97.65,559.76c-.93-.89-1.05-3.68-3.1-3.7-5.08,11.2-21.41,16.55-30.87,7.75-2.56-2.39-2.59-5.97-5.35-6.46-1.98.63,1.15,9.97-6.09,14.29-4.68,2.79-10.42,2.56-14.86-.58-2.02-1.43-2.95-5.37-5.69-4.18,2.05,13.8,26.19,12.86,28.28-.99,11.24,7.66,26.15,7.66,34.58-3.91,7.43,5.95,14.22,8,23.08,3.4,2.04-1.06,8.95-5.58,5.76-8.03-8.66,6.67-16.37,11.4-25.74,2.42Z" fill="#fff"/>
  <path d="M120.76,348.68c1.06,2.52,1.62,5.93.97,9.01-.43,2.01-6.28,7.09-6.86,8.39-.33.74-.53,1.4-.29,2.21,4.68,2.18,9.28,1.23,13.11,5.52,11.03,12.35-.8,31.69-17.1,28.41-.36,3.17,2.51,4.18,3.61,7.24,5.78,16.15-16.87,25.53-28.42,17.89-3.86-2.55-1.48-19.92-3.18-25.13l16.16-20.85c2.58-4.23-2.32-7.1-6.1-5.96-.77.23-10.86,10.01-11.64,9.06-.31-4.05-2.02-20.87-4.55-22.73-11.7-8.61-9.5,23.88-10.58,28.64-6.47-1.52-15.3-14.26-20.23-4.17-.18,2.09,12.9,15.76,15.3,18.64,2.03,2.44,4.6,2.19,3.59,6.1-.14.53-1.2.26-1.34,1.42-.5,4.23.2,11.18-.63,15.14-1.65,7.93-26.65,7.71-26.86-7.8-.02-1.86,2.07-5.02.3-6.37-7.8.04-13.45.96-19.76-4.56-9.19-8.04-7.53-26.25,5.39-29.41,3.01-.74,7.03.82,9.37-2.45-6.78-4.2-12.39-6.31-11.1-15.72,1.17-8.5,9.21-13.47,17.32-12.83,1.81.14,3.97,2.55,6.01.64-7.81-38,50.37-43.25,54.13-6.22,1.52,1.14,5.79-2.45,8.43-2.84,6.88-1.02,12.3,2.46,14.94,8.74Z" fill="#fff"/>
  <path d="M548.88,460.94c6.98,9.64,13.05,26.81,15.16,38.42,3.25,17.88,3.52,36.15,2.08,54.27-11.51,5.95-25.46,5.37-38,3.01.36-13.07,1.75-25.95,1.26-39.06-.38-10.18-1.71-27.56-4.55-36.32-.51-1.57.53-4.96-2.33-5.43-1.46,1.08-1.01,2.74-.99,4.25.09,11.43,3.99,25.24,4.65,36.13.5,8.25-.96,16.37-1.42,23.66-.38,6.07.04,12.29-.65,18.36l3.98,1.39c-3.7,6.76-5.94,14.19-4.9,22-2.44,2.68-5.06,5.04-7.94,7.23-1.61,1.23-13.14,8.89-14.11,7.92-2.27-31.6-5.51-64.59-3.97-96.32,1.06-21.99,6.5-41.36,13.24-62.02,2.44-1.89,19.16,5.98,22.09,7.69,6.08,3.55,12.28,9.12,16.4,14.82Z" fill="#fff"/>
  <path d="M414.99,317.09c.15-.49,6.56-5.51,7.44-7.08,5.29-9.46.67-20.21-5.79-27.43-14.42-16.12-18.85-13.77-23.13-38-5.9-33.38-4.67-62.31-39.22-80.42-25.5-13.37-71.45-10.03-70.16,27.42.26,7.58,3.87,8.65,4.63,11.3,1.94,6.75-.45,21.42,2.3,31.73,4.09,15.34,12.77,16.98,24.38,23.59.62.35,1.28-.33.92,1.37-12.92,6.37-22,19.06-26.96,32.22-24.82-9.99-9.39-32.28-7.9-50.3s-3.83-36.47-1.1-54.34c4.84-31.77,42.04-49.78,71.72-46.45,61.91,6.93,60.44,71.07,74.38,116.91,4.71,15.49,13.79,31.12,12.14,47.64-1.34,13.39-11.3,20.92-23.65,24.01.59-3.14-.81-9.51,0-12.16Z" fill="#fff"/>
  <path d="M140.83,290.47l-47.02,34.71c-13.52-14.9-38.52-14.33-50.45,2.26-.51.71-4.44,8.14-4.44,8.71v9.53c-16.82-4.46-32.12,19.33-15.78,30.23-27.42,5.96-16.75,45.3,9.87,40.76-2.53,16.82,16.91,23.62,29.58,16.44-1.46,6.24.06,18.37-2.07,23.89-.73,1.89-7.83.96-10.1,1.13-15.66,1.16-31.48,3.32-46.34,8.5v-176.16h136.75Z" fill="#fff"/>
  <path d="M4.08,266.81l5.96,1.04c2.37-17.68,18.35-25.2,34.41-18.16,1.58-3.99,1.25-6.91,3.56-10.94,8.28-14.41,33.33-15.93,44.75-4.4,4.21,4.25,5.94,10.6,7.65,16.03,16.04-8.54,34.97-2.57,30.93,18.44-.36,1.89-2.44,2.96-.95,5.15,7.35-2.18,18.79,5.48,14.71,13.22H4.08v-20.38Z" fill="#fff"/>
  <path d="M328.45,185.06c10.93,10.85,28.97,15.85,43.89,17.71,1.63,1.89,1.46,16.42,1.22,19.65-.26,3.46-3.7,24.22-4.95,25.94-4.4,6.04-24.21,9.76-31.49,9.93-9.66.22-24.39-2.82-32.24-8.58-13.05-9.59-13.97-33.36-12.5-47.98,11.86-5.74,23.2-12,30.91-23,1.03-.23,4.04,5.22,5.16,6.33ZM345.12,200.57c-1.69.5-3.59,3.17-1.44,4.46,3.86-2.75,8.02-.82,11.28,1.86,4.86-.71.82-3.74-1.63-4.95s-5.45-2.18-8.21-1.36ZM298.63,208.96c4.4-1.02,7.3-5.92,12.14-2.62l.93-2.23c-3.85-4.06-13.31-1.01-13.07,4.85ZM356.26,223.87c1.03-1.26,2.54-4.64.54-5.69s-2.57,3.47-3.81,4.39c-4.15,3.07-8.25.52-10-3.74-3.37-.74-1.34,9.74,7.06,8.4,1.28-.2,5.4-2.37,6.2-3.36ZM302.56,220.14c-4.51-.44-2.35,5.37.03,6.88,5.15,3.25,12.31-.2,13.79-5.89-1.81-3.51-4.12,2.33-6.1,3.12-3.91,1.56-7.66.55-7.73-4.1ZM326.89,222.12c-11.09,1.35-3.1,22.13,4.6,10.52-12.99,1.83-3.7-9.68-4.6-10.52ZM340.04,238.55c-1.89-1.89-7.5,7.99-14.42,3.57-1.71-1.09-2.46-5.36-4.63-2.57,1.32,10.28,18.23,7.96,19.06-1Z" fill="#fff"/>
  <path d="M474.17,440.99c1.74,10.12-1.78,18.02-3.64,27.59-3.21,16.51-5.11,31.24-6.87,48.35-2.9,28.25-.55,65.41-26.3,83.79.73-5.6,3.48-10.73,4.41-16.29,4.63-27.67,5.49-56.38,9.6-84.4,1.89-12.89,5.46-24.51,8.89-36.88-1.62-7.08-6.33,9.57-6.68,10.82-4.53,16.02-6.41,33.5-7.78,50.06-8.54,9.41-18.5,17.59-29.47,24.1.8-10.31-3.2-20.13-10.84-26.96l-5.6-3.92c5.65-.87,19.57-12.58,23.64-12.89,4.01-.31,11.14,8.15,12.85,5.65,2.08-3.03-10.72-7.93-10.83-8.87,14.44-20.41,21.12-53.77,48.63-60.15Z" fill="#fff"/>
  <path d="M521.5,356.2c-1.17,4.54-1.8,9.34-1.23,14.06.44,3.62,4.37,10.14,4.28,11.58-.29,4.34-7.03,19.33-10.01,22.93-.55.67-7.18,6.61-7.66,6.8-6.49,2.54-15.14-6.02-23.18-6.72-4.85-.42-8.48,1.28-12.48,1.28-3.78,0-8.61-2.52-11.75-2.54-7.47-.05-10.27,7.7-18.49.59-8.69-7.52-3.26-36.49-.14-46.79,1.87-6.15,4.34-3.98,8.02-8.41,4.01,10.11,17.29,7.36,24.3,1.97,5.9,10.27,19.27,5.92,26.32-.64,4.86,7.38,14.06,9.13,22.02,5.9ZM462.11,364.31c-3.38-3.01-19.83-2.29-15.79,5.09,2.87-.21,4.76-1.96,7.78-2.07,3.8-.13,7.18,3.2,9.46-.38.09-.53-1-2.25-1.46-2.65ZM493.08,366.24c-2.22.36-4.18.71-4.35,3.35,2.27,3.37,5.79,1.53,9.53,2.29,2.07.42,11,6.33,8.96.29-1.46-4.31-10.08-6.58-14.14-5.93ZM449.49,378.23c-6.41.45-3.95,11.41,1.31,10.85,4.11-.44,6.47-11.4-1.31-10.85ZM470.82,381.24c-2.55-1.54-10.62,9.53-11.07,12.15-1.99,11.42,7.75,11.76,16.39,10.13.06-6.18-12.15,1.46-13.69-6.4-1.46-7.44,9.47-9.47,8.38-15.88ZM490.96,390.67c2.73,4.12,7.74,3.13,8.22-1.94,1.01-10.58-13.35-5.79-8.22,1.94Z" fill="#fff"/>
  <path d="M590.46,531.77l-.02,98.76-27.15,4.28-11.62-42.97c.11-1.02,3.64-2.51,4.95-4.31,4.69-6.44,6.19-19.39,4.31-27.11-.2-.82-1.58-.03-1.3-1.1,2.22-.17,8.28-2.27,9.06-4.42,1.53-4.22.31-25.5,1.44-26.17l20.33,3.04ZM574.76,590.19c.61.94,5.37.7,5.25-1.62l-4.16-.89c-1.07.21-1.47,1.93-1.09,2.51Z" fill="#fff"/>
  <path d="M502,622.87c.03.14.93.22,1.03.71,2.38,10.88,4.53,21.75,7.95,32.35-23.06,1.47-49.24,1.31-71.18-6.72-2.87-1.05-13.15-5.37-13.52-8.2-.68-5.25,7.42-19.61,7.78-25.82,21.65,8.91,45.58,7.15,66.08-3.92,1.17.18,1.42,9.56,1.86,11.61Z" fill="#fff"/>
  <path d="M559.87,421.07c1.58,8.25,4.17,22.86,7.45,30.98.71,1.77,1.23,3.05,3.49,2.74.86-.94-5.06-21.46-5.73-24.83-3.91-19.74-8.71-44.25-9.38-64.24-.04-1.21-.73-4.51.96-4.25,1.27.19,8.04,4.87,8.71,6.41,2.85,14.02,3.09,29.05,5.47,43.05.08.47,1.13.5,1.22.99,2.69,15.4,5.64,30.63,9.32,45.83-.45,4.71-7.27,3.12-10.77,4.4-3.9,1.44-7.72,8.13-13.61,6.8-6.46-8.06-6.12-14.91-7.94-24.19-.1-.51-1.13-.48-1.22-.99-5.42-29.54-6.02-61.55-8.59-91.53l13.67,7.69c.99,20.22,3.13,41.27,6.93,61.13Z" fill="#fff"/>
  <path d="M548.95,593l11.98,46.48c-11.57,12.15-30.45,13.81-46.29,16.5-.04-1.19-1.48-2.16-1.62-2.56-2.1-6.29-4.43-16.97-5.78-23.66-.67-3.33-3.49-18.47-2.51-20.5,4.91-1.38,20.39-15.72,23.16-16.35,1.71-.39,2.24,1.82,4.45,1.96,1.94.12,3.12-1.2,4.06-1.23,3.1-.12,6.17,3.16,10.39-1.42l2.16.79Z" fill="#fff"/>
  <path d="M494.55,542.21l3.17,57.73c-18.02,9.25-39.3,12.4-58.39,4.38-.96-.77-.61-.58-.02-1.32,1.74-2.17,6.2-4.62,8.53-7.24,13.57-15.19,15.61-37.33,17.12-56.83l29.58,3.28Z" fill="#fff"/>
  <path d="M164.5,463.99c2.09-1.76,12.53-8.95,12.33-11.5-.4-5.09-6.86,3.88-7.39,4.29-11.88,9.14-28.1,9.06-38.82-1.96-12.52-12.87-4.96-28.84,4.94-40.45,12.94-.59,26.15,2.97,36.47,10.87,5.96,4.56,15.03,14.92,15.43,22.75.47,9.15-14.94,16.9-22.96,15.99ZM156.43,446.06c1.74-1.83,2.17-7.85.79-9.95-11.77-10.16-16.6,12.62-6.21,12.15,1.02-.05,4.81-1.57,5.42-2.21Z" fill="#fff"/>
  <path d="M370.62,199.76c-13.18-1.22-34.58-9.55-42.67-20.44-1.78-2.4-1.85-6.19-4.67-7.2-1.33.05-3.56,6.39-4.91,8.07-7.27,9.07-19.24,14.86-29.59,19.57-4.05-13.54,2.06-31.29,15.79-36.46,19.61-7.38,44.41-2,60.13,11.49,4.35,3.73,16.14,18.23,16.52,23.6.06.85-.14.85-.73,1.37-3.21-.21-6.71.29-9.86,0Z" fill="#fff"/>
  <path d="M117.82,670.39c16.79,3.07,8.09,26.02-8.71,18.9-5.12-2.17-3.93-4.24-7.39-7.72-7.78,18.95-35.66,15.15-22.04-6.89-3.56-1.93-7.79-.74-11.51-2.97-10.36-6.23-3.49-18.85,8.49-17.03,2.54.39,4.18,2.44,6.96,1.91-2.78-9.51-1.97-20.56,10.79-19,10.13,1.25,8.48,14.2,9.92,14.38,8.07-9.14,26.46-6.25,22.38,8.59-1.54,5.6-8.22,5.06-8.9,9.83ZM95.29,658.72c-11.76,2.17-10.26,22.23,5.98,17.81,10.63-2.9,8.71-20.52-5.98-17.81Z" fill="#fff"/>
  <path d="M211.32,683.66c-.7.44-1.19,2.6.3,3.09,1.18.39,7.83-.87,10.9-.41,6.33.95,16.16,8.96,9.4,14.97-6.12,5.44-23.57-1.18-24.78-9.76-3.81-1.33-2.69,3.97-4.28,6.93-5.12,9.53-19.86,7.21-13.75-6.45.84-1.89,3.76-2.35,2.43-5.42-7.09-1.88-14.37-4.8-19.82-9.94-13.47-12.7-2.39-24.95,11.22-10.56,1.9,2.01,7.02,11.35,8.88,10.75.98-.44.95-1.3,1.03-2.18.45-4.89-1.27-12.62-.75-18.44.6-6.58,4.23-12.77,11.66-8.97,6.45,3.3,4.93,13.39,3.94,19.32-.33,1.97-3.76,9.21-1.43,9.73,1.04.23,10.42-11.49,16.71-12.85,4.13-.89,10.35-.53,11.1,4.81.94,6.69-9.38,11.77-14.35,13.63-1.67.62-7.68,1.32-8.4,1.77Z" fill="#fff"/>
  <path d="M559.91,336.2c2.8,4.65,5.2,9.02,5.31,14.74-27.94-17.47-63.01-27.99-95.97-30.26-4.41-.3-9.57.54-13.84.03-.69-.08-2.19.4-1.63-.98.29-.69,8.87-6.1,10.27-6.82,29.98-15.43,77.89-6.52,95.85,23.29Z" fill="#fff"/>
  <path d="M74.73,366.42c.16.25.79.29.95.81,1.8,5.74,1.37,15.52,2.76,21.76,1.64,3.17,13.78-10.04,15.23-10.6,1.27-.49,1.46-.84,2.44.48l-16.96,21.83,5.15,76.44c-7.64,1.26-15.67,2.06-23.04-1.1.93-6,1.26-12.15,2.02-18.16.06-.48,1.21-.25,1.35-1.41,1.95-16.25,1.6-32.89,3.11-49.18l-18.29-21.18c1.08-3.51,15.61,10.87,19.11,7.27,1.51-1.06.94-24.29,2.74-28.15,1.48-3.19,2.69,0,3.44,1.2Z" fill="#fff"/>
  <path d="M249.07,539.35c-4.53,11.85-9.59,24.63-12.83,36.92-1.45,5.5-.4,17.65-7.71,18.31-3.1.28-22.02-2.77-21.67-6.38,8.35-13.13,13.84-27.24,17.39-42.43l9.31-30.5,19.42,11.19c.63,1.39-3.11,10.84-3.9,12.89Z" fill="#fff"/>
  <path d="M590.54,448.88v80.19l-20.75-3.9c-1.14-17.52-2.53-37-11.43-52.31,2.22-1.75,4.89-1.55,7.42-3.06,1.79-1.07,4.06-4.59,5.51-5.01,2.02-.59,4.66.17,6.94-.29,8.53-1.72,8.98-8.98,4.43-14.96l7.88-.67Z" fill="#fff"/>
  <path d="M382.71,202.46c1.41,5.66,2.24,11.46,3.41,17.17,2.65,12.84,3.36,30.84,8.83,43.22,7.44,16.85,39.34,27.48,20.36,49.96l-1.12-.82c-1.43-7.22-3.89-14.57-8.73-20.22-7.31-8.54-18.09-8.11-25.96-17.43-17.73-21.01,3.79-48-3.3-71.29l6.51-.59Z" fill="#fff"/>
  <path d="M98.54,591.72c4.11,4.86,1.46,9.97,1.68,14.79s4.34-.07,6.44-.86c11.79-4.42,23.5,7.39,14.63,18.09-25.87-4.57-53.3-20.02-79.72-11.86-7.71-13.69,9.15-29.13,23.37-21.07,4.6,2.61,3.77,7.25,6.61,10.52l1.59-.93c3.09-8.51,18.05-17.39,25.41-8.69Z" fill="#fff"/>
  <path d="M493.89,511.33l-25.69-3.04,8.6-52.83c8.64,4.32,16.87,2.68,24.97-1.97-4.98,18.86-8,38.25-7.88,57.85Z" fill="#fff"/>
  <path d="M313.71,545.54c-.03,9.04-1.08,18.19-1.3,27.22-.16,6.33,2.45,27-3.32,30.21-4.88,2.71-18.84-1.03-24.22-2.97,1.68-7.61,7.59-14.09,8.48-21.97,1.31-11.59-2.46-25.56-3.93-37.12l24.28,4.63Z" fill="#fff"/>
  <path d="M190.11,453.53c9.51,21.98,26.47,40.07,46.15,53.43,30.28,20.54,71.88,34.22,108.74,32,6.03-.36,21.39-4.31,25.55-3.78.58.07,3.74,1.75,4.34,2.43-50.34,16.75-113.18-2.73-153.49-34.85-11.41-9.09-26.91-25.99-33.14-39.17-2.18-4.61-2.62-5.36.51-9.69l1.34-.36Z" fill="#fff"/>
  <path d="M455.76,656.59l-10.23,29.53c-7.84,3.99-14.33,8.73-18.69,16.47.38-9.65-2.27-19.05-10.51-24.65l5.85-8.74,7.29-20.51,26.3,7.9Z" fill="#fff"/>
  <path d="M485.34,837.34c-8.05-26.24-29.13-46.56-39.44-71.65,1.83,1,3.84,1.57,5.7,2.51,23.27,11.69,41.88,43.93,44.91,69.14h-11.18Z" fill="#fff"/>
  <path d="M374.23,508.69c-.23,4.03,4.2,11.64,3.2,15.3-.31,1.13-7.72,5.18-8.23,8.25-16.97.62-33.88,4.3-50.85,2.74l1.39-15.04c18.7-.45,37.24-4.01,54.49-11.25Z" fill="#fff"/>
  <path d="M398.17,410.5c.83,2.02,1.98,3.6,2.69,6.17,1.85,6.69,5.69,31.78,2.36,37.04-4,2.21-32.28,8.85-34.29,7.38-.74-.54-.93-2.82-.5-3.55,5.71-2.06,24.06-13.2,24.53-19.08s-15.3-27.54-12.73-31.55l13.31-5.96c1.51.45,3.92,7.84,4.63,9.56Z" fill="#fff"/>
  <path d="M109.58,733.2c.35.7,2.82,3.49.04,4.23-6.27-5.54-13.47-11.25-20.76-15.4-2.09-1.19-13.1-7.37-14.4-5.59l.06,1.86c11.8,5.61,23.52,12.12,32.79,21.45-7.62,2.78-18.71-2.29-25.65-5.91-12.87-6.71-24.15-17.91-30.89-30.57,6.28-1.14,13.06.52,19.21,2.16,14.6,3.88,32.55,13.87,39.61,27.78Z" fill="#fff"/>
  <path d="M443.93,329.91c2.61-6.94,10.93-6.64,17.43-6.6,28.38.15,77.05,12.67,100.45,29.09,4.29,3.01,8.9,6.68,4.1,11.69-34.79-24.6-79.83-33.34-121.98-34.17Z" fill="#fff"/>
  <path d="M409.32,578.13c15.91,32.02,49.33,41.51,81.91,28.15,14.32-5.87,26.61-15.66,38.49-25.28.48,3.97-.2,6.09-2.96,8.87-11.79,11.89-37.72,25.17-54.33,27.19-41.05,4.98-63.13-18.83-74.63-54.72-1.29-4.03-2.93-7.45.2-10.81l1.92.18c3.04,8.63,5.34,18.23,9.41,26.42Z" fill="#fff"/>
  <path d="M554.95,649.44c.95,5.32,7.8,11.97,8.59,16.72s-1.09,10.96-.6,16.38c.33,3.69,3.5,7.97.32,10.84-6.75-8.61-16.25-13.16-27.28-12.48,6.09-5.93-6.63-17.38-6.55-23.38l25.53-8.08Z" fill="#fff"/>
  <path d="M429.45,543.53c-1.04,5.68,10.64,16.55,11.18,19.43.75,3.95-2.44,7.77-2.54,10.46-.14,4.11,1.72,7.04.28,12.88-1.91,7.72-9.48,7.43-15.75,4.49-10.16-4.77-2.62-10.44-2.44-16.75.08-3.05-1.77-7.62-1.92-11.09-.44-10.23,1.68-15.33,11.19-19.42Z" fill="#fff"/>
  <path d="M352.14,365.18c.07.21,1.83.54,1,2.14-12.25,7.27-31.61,10.16-43.34.72,5.03-.09,15.96,4.76,17.09-2.63-2.67,2.03-23.89-.24-18.91-5.11,1.41-1.38,12.9,3.3,16.65.55,4.54-3.33-6.02-1.95-7.77-2.17s-3.59-1.49-5.36-1.75c-5.35-4.51,18.52-4.65,19.59-5.38,4.2-2.9-7.99-4.08-8.79-6.83.12-2.62,17.87.02,20.42,1.92,3.03,2.27,8.01,14.6,9.41,18.56Z" fill="#fff"/>
  <path d="M499.15,837.34c.29-5.65-1.42-10.35-1.3-16.09.43-20.33,14.3-43.12,31.54-53.58-2.37,9.89-7.13,18.95-10.52,28.58-4.7,13.33-9.26,26.81-10.51,41.09h-9.2Z" fill="#fff"/>
  <path d="M167.39,321.78c3.37,4.72,7.16,9.29,7.69,15.59-8.63,2.99-15.32,9.88-8.6,18.83-2.18.58-2.73,1.22-4.62-.31-3.52-2.85-9.05-14.78-10.31-19.27s-5.54-28.38-1.13-29.65c7.92,2.32,12.46,8.47,16.97,14.81Z" fill="#fff"/>
  <path d="M213.43,459.79c2.89,8.06,6.57,17.55,10.72,25.06,2.41,4.35,7.97,9.87,10.08,13.62.59,1.05.8,1.78.62,2.99-18.68-12.76-35-30.58-42.67-52.18l15.4-8.94c2.35,6.36,3.56,13.06,5.86,19.45Z" fill="#fff"/>
  <path d="M540.56,410.1l5.26,42.06c-7.32-6.02-15.13-11.35-24.18-14.6-.49-4.65-2.43-9.65-1.15-14.35.96-3.52,6.24-8.4,6.28-12.46,5.01,1.6,9.1,2.31,13.79-.65Z" fill="#fff"/>
  <path d="M557,559.96c1.58,1.24,1.73,27.71-5.9,28.26l1.96-13.81h-2.62c.25,6.93-3.23,15.83-10.52,17.75l4.57-12.87c-2.79-5.2-4.61,5.76-6.97,8.76-1.35,1.72-5.44,5.52-5.45,1.27,0-3.1,3.15-16.02,2.53-17.75-3.65-3.64-2.53,1.75-3.42,3.33-.29.51-3.63,3.41-4.4,4.12-.71-6.79,2.1-12.79,3.96-19.06,8.57,2.07,17.66,1.74,26.27,0Z" fill="#fff"/>
  <path d="M142.81,689.45v12.82c0,9.22-8.79,25.27-15.36,31.64-2.24,2.18-4.06,4.64-7.65,3.2.36-1.15,1.73-1.65,2.15-2.48,2.96-6,9.91-20.03,11.75-25.72,1.11-3.44-.63-5.4-2.87-2.18l-14.29,30.88-2.66,1.13c-.56-19.29,10.88-41.66,28.92-49.29Z" fill="#fff"/>
  <path d="M491.05,735.67c4.21,4.87,4.82,16.62,6.17,22.77l1.92.03c.29-4.56,8.41-18.61,12.31-19.62,3.5-.9,3.28,3.7,2.79,5.99-.86,4.02-6.83,16.34-10.46,19.23-9.52,7.58-25.42-.53-31.85-8.95-10.2-13.37,1.57-8.49,8.49-3.23,2.8,2.13,6.93,9.45,10.85,6.56-1.58-1.34-1.72-1.93-2.3-3.93-.84-2.92-5.17-20.21-1.3-21.04.89.33,2.85,1.56,3.39,2.18Z" fill="#fff"/>
  <path d="M340.04,320.05c-4.72-5.04-10.1-8.3-17.3-8.47-3.59,3.41,5.58,3.39,7.93,4.37,1.89.8,8.66,6.34,6.75,8.69-4.92-3.36-10.32-6.08-16.43-6.57l.63,2.98c1.42-.25,14.45,3.88,11.86,6.22-3.91,1.07-9.82-2.6-12.8-2.65-3.22-.05-7.08,3.85-10.69,4.46-3.98.67-7.48-.75-11.34.15,3.88-13.25,8.81-21.58,24.03-21.06,5.97.21,18.81,4.33,17.38,11.86Z" fill="#fff"/>
  <path d="M383.25,552.91c.58.49.68,2.11,1.46,2.81,2.46,2.21,5.71,2.15,8.58.95.93,1.05-4.83,17.17-6.13,18.84-3.87,4.99-18.97-.09-24.76-.45,5.85-7.82,12.47-15.77,15.78-24.97,1.34,1.06,3.93,1.86,5.07,2.81Z" fill="#fff"/>
  <path d="M409.34,531.44c5.84,9.83,4.71,14.09-7.15,16.7.44-3.78.23-5.24-1.65-8.55,1.12.03,7.23-2.02,4.62-3.64-2.12-1.32-4.54,1.22-6.92,1.07-.53-.03-4.78-1.85-4.92-2.08-.27-.43,1.92-4.36-.42-5.18-1.99-.7-13.36,7.74-18.22,4.46-4.39-2.96,5.17-7.97,7.67-9.2,13.13-6.44,19.49-6.22,26.99,6.43Z" fill="#fff"/>
  <path d="M486.99,440.99c7.35-.9,14.56-3.83,21.36-6.57-.44,11.6-8.96,20.32-20.69,20.4-9.8.07-10.88-5.16-10.86-13.84,3.24-.28,7.03.39,10.19,0Z" fill="#fff"/>
  <path d="M168.19,704.16c6.46,8.32,9.51,23,7.49,33.27-2.5,2.21-10.16-8.01-11.29-10.08-4.57-8.41-6.12-19.01-2.5-28.04,1.37-.89,5.43,3.72,6.3,4.84Z" fill="#fff"/>
  <path d="M294.23,482.19c-1.03-.85-2.19-3.47-3.48-4.73-6.09-5.96-12.27-9.06-21.05-8.87,1.43-3.72,5.13-5.23,4.6-9.85,3.43,1.25,23.87,4.85,25.04,6.19.24.27,2.4,6.4,2.45,6.8.4,3.14-4.59,12.91-7.56,10.46Z" fill="#fff"/>
  <path d="M494.55,538.93c-9.39.45-18.69-.62-27.82-2.75l-1.02-.95.57-10.76,28.27,2.96v11.5Z" fill="#fff"/>
  <path d="M456.79,417.59c-.13-.35-1.72-.38-1-3.05.05-.19,2.07-3.03,2.22-3.15,3.27-2.62,10.61.93,14.62,1.3,4.36.39,14.1-2.91,14.09,5.64-.02,10.66-19.31,11.96-26.04,6.25-2.25-1.91-2.91-4.38-3.88-6.98ZM464.05,416.28c-3.28-1.94-3.91.74-2.02,3,4.04,4.83,16.86,4.31,19.86-1.63-2.25-3.6-3.4-.21-5.38.4-6.35,1.94-7.37,1.24-12.47-1.77Z" fill="#fff"/>
  <path d="M365.65,459.43c3.28,7.88-4.86,14.81-8.84,20.99-6.17-6.78-16.1-11.48-25.31-9.19-.05-7.42,7.87-5.08,13.29-6.09,7.18-1.33,13.82-4,20.86-5.7Z" fill="#fff"/>
  <path d="M215.78,719.69c-2.67,7.32-12.01,12.96-19.05,16.11-5.3,2.38-10.67,5.55-16.43,1.96,7.2-11.82,21.73-18.66,35.48-18.07Z" fill="#fff"/>
  <path d="M286.79,539.6c.23,1.6-.04,1.03-.91,1.38-1.99.79-21.37,4.71-23.09,4.57-2.83-.21-9.5-6.31-9.52-8.84l3.58-8.29,29.94,11.18Z" fill="#fff"/>
  <path d="M552.97,703.17l-12.39,4.02c-1.65-1.93,3.26-9.01.99-9.18-2.62-.2-4.44,7.01-3.62,9.19-8.95.77-4.41-3.74-3.57-7.86,1.22-6.04-7.12,3.99-4.98,7.21-4.13-.44-6.61-.7-4.54-5.38.7-1.59,4.31-2.29,3.22-5.13-4.61.13-6.58,4.29-5.92,8.54-6.29-2.17-3.1-10.13,1.95-11.53,2.29-.63,9-.57,11.52-.29,3.37.37,19.81,6.29,17.34,10.42Z" fill="#fff"/>
  <path d="M493.89,513.95v9.2c-8.93-.22-18.25.9-26.86-2.07-.88-3.97.54-6.54,1.22-9.76,2.75.89,8.16,2.63,10.84,2.63h14.79Z" fill="#fff"/>
  <path d="M343.66,260.89c4.52-.45,12.71-3.86,15.8-3.94,1.03-.03,1.1-.2.95.95-1.53,11.3-28.14,21.6-29.56,2.98,4.13-.3,8.75.41,12.82,0Z" fill="#fff"/>
  <polygon points="390 501.47 395.89 517.52 380.15 522.49 377.84 507.34 390 501.47" fill="#fff"/>
  <path d="M444.2,445.98c1.33,3.21,3.47,6.36,2.89,10.28l-11.71,18.91c.81-13.95,4.13-27.31,1.97-41.41,3.12,3.53,5.06,7.91,6.85,12.22Z" fill="#fff"/>
  <path d="M291.95,486.23l-6.68,3.45c-5.58-7.38-11.81-12.32-21.48-12.86,5.98-11.5,26.94-1.09,28.16,9.41Z" fill="#fff"/>
  <path d="M416.31,552.08c-3.25,9.32,3.35,20.14-1.64,28.25-4.71-8.6-8.78-17.59-10.86-27.27l2.99-2.27c3.64,2.72,5.2,3.36,9.51,1.3Z" fill="#fff"/>
  <path d="M527.51,407.37c1.23-2.94,3.74-17.71,4.83-18.98.91-1.06,4.46-.89,5.61-.32,1.88.95,2.06,15.14,1.63,18.06-2.88,3.62-8.32,3.25-12.06,1.23Z" fill="#fff"/>
  <path d="M445.23,529.73c1.19,2.62-1.25,4.04-1.36,4.89-.28,2.08-1.01,24.74-2.25,24.69l-9.99-18.11,13.6-11.47Z" fill="#fff"/>
  <path d="M326.24,481.09c3.45-12.9,23.57-6.55,28.17,2.22l-5.4,4.31c-5.65-6.23-14.58-8.68-22.77-6.52Z" fill="#fff"/>
  <path d="M282.19,491.6c-2,.62-9.89,2.96-11.08,1.23-.9-2.48,2.02-3.58,3.17-5.53-3.03-5.05-6.03,2.68-6.87,5.62l-3.04-2.29,2.7-5.91c-2.86-2.92-5,2.05-5.58,4.26-4.81-16.57,17.65-5.88,20.7,2.62Z" fill="#fff"/>
  <path d="M409.33,690.52c.6.99,4.7,7.44,1.51,7.37l-12.94-5.82.4-1.35c2.11-.43,5.07-2.45,2.56-4.54-5.17,4.44-13.31,3.53-2.97-.68l-1.03-2.58c-.97-.79-7.65,5.16-6.85,2.28,8.01-6.88,14.69-2.29,19.32,5.33Z" fill="#fff"/>
  <path d="M346.62,490.28l-10.51,3.95,1.32-6.88c-1.25-2.11-3.13-.09-3.65,1.59-.58,1.87.62,5.47-1.27,5.94l-2.66-2.54c-.58-1.31,2.73-4.81.66-5.33-4.67-1.17-3,6.59-4.59,6.55-9.08-14.33,17.26-11.92,20.71-3.28Z" fill="#fff"/>
  <path d="M261.81,493.58c16.09,7.76,32.95-2.6,42.07-15.78-1.58,12.77-21,22.11-32.46,20.96-.92-.09-11.84-3.15-9.6-5.18Z" fill="#fff"/>
  <path d="M364.11,480.18c-7.07,10.18-25.89,25.64-38.53,17.01,3.56.02,7.19.72,10.79.27,12.31-1.53,26.3-16.92,31.3-27.54,1.56,2.88-1.9,7.88-3.56,10.26Z" fill="#fff"/>
  <path d="M445.03,695.82c-.08.19-2.48,3.13-2.64,3.27-3.04,2.59-7.61,3.8-11.61,3.5,1.79-2.06,3.68-5.52,5.56-7.25,3.4-3.14,12.74-9.28,8.69.48Z" fill="#fff"/>
  <path d="M282.49,522.21c.87,1.42,1.55,1.62,1.01,4.23-.81.93-20.87-7.26-22.35-9.85,4.89,2.09,15.98,1.75,19.97,3.37.93.38.9,1.5,1.37,2.25Z" fill="#fff"/>
  <path d="M389.73,545.21c-3,3.06-4.79,4.71-9.54,2.88-.2-.92-.16-1.25.41-1.98,1.16-1.5,11.3-9.17,12.72-8.19,1.69,1.81-2.17,5.85-3.58,7.29Z" fill="#fff"/>
  <path d="M399.11,542.98c1.36,2.18-6.06,12.12-9.4,11.74-1.35-.15-2.17-1.93-3.64-2-.28-.38,4.28-3.2,4.95-3.91,1.18-1.25,5.75-9.58,8.09-5.83Z" fill="#fff"/>
  <path d="M567.51,688.13c-3.82-5.64-1.44-11.61-1.3-17.74,5.53,4.34,4.19,12.22,1.3,17.74Z" fill="#fff"/>
  <path d="M374.89,544.84c1.67-5.65,7.7-8.69,13.14-9.86l-9.51,9.22-3.63.64Z" fill="#fff"/>
  <path d="M518.21,437.05l-7.27-2.35c-.37-4.69,4.05-4.52,6.29-7.51l.98,9.86Z" fill="#fff"/>
  <polygon points="256.54 546.81 249.32 548.13 251.3 540.9 256.54 546.81" fill="#fff"/>
  <path d="M354.5,370.66v5.26s-5.25-1.98-5.25-1.98c-1.19-1.48,4.94-3.65,5.25-3.28Z" fill="#fff"/>
  <path d="M368.97,252.35c2.08,2.67-2.23,4.4-4.59,3.94-1.57-1.59,4.39-4.2,4.59-3.94Z" fill="#fff"/>
  <path d="M411.05,550.1c-.11-.13-.12-2.07.12-2.5l1.84-.78-.32,2.63c-.25.59-1.44.9-1.64.65Z" fill="#fff"/>
  <path d="M258.52,514.62c-.5,1.46-.68,1.11-1.76.79-2.02-.61-5.36-3.34-7.43-4.42l9.19,3.63Z" fill="#fff"/>
  <path d="M433.11,481.48c-.04.11-1.28,1.66-1.68,1.57l.66-3.93,1.95.98c.03.18-.79,1.04-.93,1.38Z" fill="#fff"/>
  <path d="M238.15,502.78l7.87,6.25c-1.11-.2-8.83-5.19-7.87-6.25Z" fill="#fff"/>
  <path d="M430.78,483.72c1.44,0,.42,1.5-.34,1.95l.34-1.95Z" fill="#fff"/>
  <path d="M514.01,58.7c2.62,3.72,4.03,8.31,4.21,12.89,19.93-10.07,46.34,4.34,39.44,28.26,26.59,1.15,27.15,29.08-1.61,30.93-48.54,3.12-100.41-2.43-149.3-.01-27.7-1.37-20.04-35.66,5.6-29.6,2.1-17.18,19.43-26.08,35.51-21.04-5.98-36.46,47.13-48.43,66.15-21.43ZM513.23,66.06c-11.9-29.33-60.02-21.94-62.73,5.87-.23,2.36.98,11.19.03,11.87-5.2.04-8.57-2.06-14.16-1.67-8.47.59-17.77,7.23-19.91,15.58-.53,2.06.69,6.08-1.48,7.11-21.48-7.63-34.05,19.86-8.23,22.66,48.77-2.82,101.66,3.67,149.95.01,3.25-.25,7.35-.81,10.3-2.19,8.88-4.14,9.56-14.62,1.13-19.82-5.44-3.36-8.91-1.95-14.79-2.31,1.12-7.42,4.21-11.16.69-19.09-5.8-13.07-26.3-15.76-37.44-7.9-1.42-.43-1.63-7.25-2.23-8.95-.27-.78-1.06-.96-1.14-1.17Z"/>
  <path d="M201.6,110.09c19.04,30.54-3.59,67.95-38.1,70.6-35.67,2.74-63.01-28.37-51.41-61.91,13.26-38.32,68.41-42.52,89.5-8.69ZM201.6,118.64c-19.3-47.12-93.57-31.81-88.3,20.89,1.57,15.65,13.87,30.04,28.49,35.28,35.84,12.84,74.89-19.35,59.81-56.17Z"/>
  <path d="M206.03,169.44c-.38-.72-.18-1.74.53-2.24.88-.65,1.64-.13,2.47.2,1.3.52,20.58,13.11,21.47,14.04,1.91,2.02,1.04,3.77-1.54,2.86-1.6-.56-22.28-13.66-22.93-14.87Z"/>
  <path d="M65.88,143.89l.29-2.67c.75-1.09,24.04-2.52,26.37-2.27,3.02.32,2.86,2.93-.05,3.61l-26.61,1.33Z"/>
  <path d="M133.34,189.65l-11.99,21.81-2.2-.54,10.88-22.94c2.28-3.46,5.52-2.21,3.31,1.67Z"/>
  <path d="M157.27,193.52c1.01-1.39,2.27-1.39,3.29,0v25.63c-1.01,1.39-2.27,1.39-3.29,0v-25.63Z"/>
  <path d="M109.27,168.22c.42.41-.1,2.22-.66,2.95-.68.88-16.36,11.7-18.2,12.7-3.32,1.82-6.25.59-3.67-1.88,1.01-.96,18.18-12.96,19.26-13.42.71-.3,2.97-.64,3.27-.34Z"/>
  <path d="M202.38,76.6c-2.3,3.49-5.88,7-7.62,11.11-1.15,1.94-3.6.23-3-1.62l12.96-19.63,2.1-.05.99,1.47c-1.68,2.99-3.55,5.87-5.44,8.73Z"/>
  <path d="M190.4,197.54c.79,1.4,8.79,13.33,5.32,14.05-1,.21-4.97-6.07-5.76-7.41-1.24-2.11-7.45-14.44-7-15.83,1.51-4.65,6.93,8.3,7.44,9.19Z"/>
  <path d="M159.9,79.15c-1.02,3.53-5.23-.56-4.62-1.95.24-.55,1.33-.29,1.33-.35v-21.36c1.01-1.39,2.27-1.39,3.29,0-1.11,5.98,1.49,18.54,0,23.66Z"/>
  <path d="M219.19,142.47l-.73-2.13c1.01-2.87,21.52,1.13,25.26.27,3.28,1.49,1.83,3.05-1.28,3.33-6.76.6-16.14-2.2-23.25-1.47Z"/>
  <path d="M213.16,110.36c.77-1.11,2.72-2.31,3.91-2.97,2.31-1.29,16.68-8.17,18.42-8.55,3.04-.66,4.77.99,2.17,2.85-1.28.92-18.48,8.72-19.91,9.05-1.86.42-2.85.24-4.6-.37Z"/>
  <path d="M120.71,79.23c1.67,2.56,6.39,5.68,5,9.45l-2.42-.86-14-20.16,1.73-1.35c2.64-.11,7.98,10.29,9.7,12.92Z"/>
  <path d="M80.73,98.58c3.03,1.06,23.36,9.69,23.28,11.46-.06,1.21-2.5.98-3.44.84-1.29-.2-19.97-8.72-20.57-9.69-.7-1.14-.35-1.96.73-2.61Z"/>
  <path d="M155.74,615.29c1.52-.56,7.77-.72,6.79,2.18-2.06,3.39-11.68-.38-6.79-2.18Z"/>
  <path d="M146.1,609.27c.36-.56,5.67-.96,6.79-.55,3.74,3.5-3.33,4.03-5.68,3.04-1.12-.16-1.49-1.9-1.11-2.49Z"/>
  <path d="M332.15,631.62c.45,3.51-7.75,3.33-8.54,1.62.23-2.96,7.92-2.56,8.54-1.62Z"/>
  <path d="M344.64,636.22c.54,3.48-7.52,3.27-7.88,1.62.19-2.81,7.28-2.53,7.88-1.62Z"/>
  <path d="M130.15,764.88c-4.08,3.64-11.29-2.51-.83-2.49l1.63,1c-.45.36-.46,1.19-.81,1.49Z"/>
  <path d="M275.45,736.29c7.38-.85,18.08,2.88,16.56,11.94-1.02,6.08-15.79,6.02-20.58,5.55-18.45-1.82-6.49-16.27,4.02-17.48ZM265.15,749.2c3.88,1.67,23.93,3.08,24.02-2.89-3.46-10.97-23.53-8.35-24.02,2.89Z"/>
  <path d="M308.94,758l.74,3.93c-1.44,5.01-16.53,3.96-17.56,1.38-2.72-6.86,12.92-9.76,16.81-5.31ZM307.17,759.79c-4.47-1.33-8.47-2.33-11.84,1.95,3.59.53,10.41,2.23,11.84-1.95Z"/>
  <path d="M416.96,778.86c2.17,3.5-7.06,2.61-8.76,2.65l-.92-1.69c.49-2.69,9.29-1.59,9.68-.96Z"/>
  <path d="M547.14,744c-1.06-4,7.89-4.02,7.88-1.64,0,2.18-6.38,2.16-7.88,1.64Z"/>
  <path d="M420.74,786.87c7.67-1.74,3.13,7.12-2.44,1.5.64-.76,1.47-1.28,2.44-1.5Z"/>
  <path d="M562.26,749.93c.84,4.22-9.12,3.93-4.82.1l4.82-.1Z"/>
  <path d="M306.5,388.44c.42.54-5.8,10.45-5.41,12.62-3.02,9.34-1.54,19.43,1.29,28.63.7,2.28,5.49,11.03,5.46,11.67-.08,1.44-1.14,1.68-2.31,1.66-1.91-.03-6.68-14.18-7.22-16.49-2.11-9.02-2.57-19.19.13-28.13.58-1.92,5.21-13.64,8.07-9.97Z"/>
  <path d="M225.64,322.03l-8.2,13.15c-.55,3.85-3.67,9.73-4.34,12.78-.61,2.78-.86,14.34-2.56,15.17l-1.61-.31c-2.98-6.92,7.62-40.66,14.39-41.4.7-.08,1.56.62,2.32.62Z"/>
  <path d="M180.95,396.96c5.39,1.33-.29,9.28,6.94,10.48,9.41,1.55,6.35-9.3,9.8-8.5,3.11.72-.26,9.54-4.76,11-8.7,2.82-15.31-4.36-11.99-12.98Z"/>
  <path d="M97.65,559.76c9.37,8.98,17.08,4.24,25.74-2.42,3.19,2.45-3.72,6.97-5.76,8.03-8.86,4.6-15.65,2.55-23.08-3.4-8.43,11.57-23.34,11.58-34.58,3.91-2.1,13.85-26.23,14.78-28.28.99,2.74-1.2,3.67,2.75,5.69,4.18,4.44,3.14,10.18,3.37,14.86.58,7.24-4.31,4.11-13.65,6.09-14.29,2.76.49,2.79,4.08,5.35,6.46,9.46,8.8,25.79,3.45,30.87-7.75,2.04.02,2.17,2.81,3.1,3.7Z"/>
  <path d="M356.26,223.87c-.81.99-4.93,3.15-6.2,3.36-8.41,1.34-10.44-9.14-7.06-8.4,1.75,4.26,5.85,6.81,10,3.74,1.24-.92,1.8-5.45,3.81-4.39s.49,4.43-.54,5.69Z"/>
  <path d="M340.04,238.55c-.83,8.96-17.74,11.28-19.06,1,2.18-2.79,2.92,1.48,4.63,2.57,6.92,4.41,12.53-5.46,14.42-3.57Z"/>
  <path d="M302.56,220.14c.07,4.65,3.82,5.67,7.73,4.1,1.97-.79,4.28-6.62,6.1-3.12-1.48,5.69-8.65,9.14-13.79,5.89-2.38-1.51-4.54-7.32-.03-6.88Z"/>
  <path d="M326.89,222.12c.9.84-8.39,12.35,4.6,10.52-7.7,11.62-15.69-9.17-4.6-10.52Z"/>
  <path d="M345.12,200.57c2.76-.82,5.75.15,8.21,1.36s6.5,4.25,1.63,4.95c-3.26-2.68-7.42-4.61-11.28-1.86-2.15-1.29-.26-3.96,1.44-4.46Z"/>
  <path d="M298.63,208.96c-.24-5.85,9.22-8.91,13.07-4.85l-.93,2.23c-4.85-3.29-7.74,1.6-12.14,2.62Z"/>
  <path d="M470.82,381.24c1.1,6.42-9.84,8.44-8.38,15.88,1.55,7.86,13.75.22,13.69,6.4-8.64,1.63-18.38,1.29-16.39-10.13.46-2.62,8.53-13.69,11.07-12.15Z"/>
  <path d="M493.08,366.24c4.06-.65,12.68,1.62,14.14,5.93,2.05,6.03-6.89.12-8.96-.29-3.74-.75-7.26,1.08-9.53-2.29.17-2.64,2.12-2.99,4.35-3.35Z"/>
  <path d="M462.11,364.31c.45.4,1.54,2.12,1.46,2.65-2.28,3.58-5.66.24-9.46.38-3.02.11-4.91,1.86-7.78,2.07-4.04-7.39,12.41-8.11,15.79-5.09Z"/>
  <path d="M490.96,390.67c-5.13-7.73,9.23-12.52,8.22-1.94-.48,5.07-5.49,6.06-8.22,1.94Z"/>
  <path d="M449.49,378.23c7.78-.55,5.42,10.41,1.31,10.85-5.26.56-7.71-10.4-1.31-10.85Z"/>
  <path d="M574.76,590.19c-.38-.58.02-2.31,1.09-2.51l4.16.89c.12,2.32-4.65,2.56-5.25,1.62Z"/>
  <path d="M156.43,446.06c-.61.64-4.4,2.16-5.42,2.21-10.39.46-5.56-22.32,6.21-12.15,1.38,2.1.95,8.12-.79,9.95ZM151.17,436.47c-4.66,2.5-3.89,11.29,2.2,7.52,2.22-2.65,1.81-7.24-2.2-7.52Z"/>
  <path d="M95.29,658.72c14.69-2.71,16.61,14.91,5.98,17.81-16.24,4.43-17.74-15.64-5.98-17.81ZM96.61,661.34c-8.51,1.65-8.32,15.67,4.01,11.9,6.94-2.12,4.86-13.63-4.01-11.9Z"/>
  <path d="M464.05,416.28c5.09,3,6.11,3.71,12.47,1.77,1.98-.6,3.13-3.99,5.38-.4-3.01,5.94-15.82,6.45-19.86,1.63-1.89-2.26-1.26-4.93,2.02-3Z"/>
  <path d="M513.23,66.06c.08.21.87.4,1.14,1.17.6,1.7.81,8.52,2.23,8.95,11.14-7.86,31.64-5.18,37.44,7.9,3.52,7.93.43,11.67-.69,19.09,5.87.36,9.35-1.05,14.79,2.31,8.43,5.2,7.75,15.68-1.13,19.82-2.95,1.38-7.06,1.94-10.3,2.19-48.29,3.66-101.18-2.83-149.95-.01-25.81-2.8-13.25-30.3,8.23-22.66,2.17-1.03.95-5.05,1.48-7.11,2.14-8.35,11.44-15,19.91-15.58,5.59-.39,8.96,1.71,14.16,1.67.95-.68-.26-9.51-.03-11.87,2.71-27.81,50.83-35.19,62.73-5.87Z" fill="#fff"/>
  <path d="M201.6,118.64c15.08,36.82-23.97,69.01-59.81,56.17-14.62-5.24-26.92-19.62-28.49-35.28-5.27-52.7,69-68.02,88.3-20.89Z" fill="#fff"/>
  <path d="M265.15,749.2c.49-11.24,20.57-13.86,24.02-2.89-.09,5.97-20.14,4.56-24.02,2.89Z" fill="#fff"/>
  <path d="M307.17,759.79c-1.42,4.19-8.24,2.48-11.84,1.95,3.37-4.28,7.37-3.28,11.84-1.95Z" fill="#fff"/>
  <path d="M151.17,436.47c4.01.28,4.42,4.87,2.2,7.52-6.09,3.77-6.86-5.01-2.2-7.52Z" fill="#fff"/>
  <path d="M96.61,661.34c8.87-1.72,10.95,9.78,4.01,11.9-12.33,3.77-12.52-10.25-4.01-11.9Z" fill="#fff"/>
</svg>