<?xml version="1.0" encoding="UTF-8"?>
<svg id="Camada_1" xmlns="http://www.w3.org/2000/svg" version="1.1" viewBox="0 0 595.28 841.89">
  <!-- Generator: Adobe Illustrator 29.0.0, SVG Export Plug-In . SVG Version: 2.1.0 Build 186)  -->
  <path d="M.14,841.29V-.06h595v841.34H.14ZM486,3.89H4.08v263.58l18.96-1.42c1.55-7.84.14-15.93,1.51-23.8,4.91-28.26,51.32-31.1,61.79-5.11l1.5.07c24.16-14.85,52.17-40.16,82.74-35.31,19.34,3.07,37.47,18.11,53.42,28.53,19.56-16.22,35.98-36.16,56.66-50.92,25-15.34,45.12,14.34,63.75,26.78,5.49-4.8,8.11-7.86,15.37-10.13,2.75-.86,5.62-.47,7.41-.99.45-.13,4.56-5.18,6.83-6.47,10.52-5.97,23.56-5.8,34.41-.76v-62.77l-1.31-.67c-4.93,4.05-10.52,9.25-17.39,8.89-10.7-.56-16.5-14.86-16.17-24.03.31-8.76,6.73-12.98,12.77-18.45,23.13-20.97,47.97-40.61,71.44-61.03,9.62-8.37,18.94-17.27,28.24-25.99ZM562.92,3.89h-71.33l-111.43,96.96c-4.95,6.39-2.27,22.89,4.26,27.27,9.71,6.52,18.08-5.48,25.93-9.58L562.92,3.89ZM590.54,3.89h-22.02l-156.15,117.33v40.75c4.87,1.97,11.03-.39,16.71.39,9.62,1.32,11.28,8.91,11.6,17.33.85,22.48-8.22,21.39-27.65,22.05l.66,85.45h17.42c9.63,0,11.58,18.76,5.62,24.03-1.26,1.11-6.85,2.92-8.25,2.92h-14.46l-1.03,123.16c6.49,2.47,14.01.66,20.32-1.66,1.27-2.38-1.16-3.19-1.26-4.14-.81-7.65,1.16-15.76,1.42-22.35,1.71-43.94-.86-88.38,30.52-123.29,2.69-3,6.32-5.06,8.88-8.21-4.46-.82-8.62-3.77-6.95-8.91.63-1.93,2.57-1.46,2.36-2.91-.07-.46-1.13-.24-1.29-.82-3.37-12.87-4.69-27.28-6.73-40.47-14.17-7.97,2.19-15.57,8.68-21.78,5.47-5.24,9.97-12.68,17.73-15.48-.28-1.98-1.94-2.64-2.02-4.94-.07-2.07,1.6-3.86,1.29-5.11-.43-1.72-7.96-5.23-8.97-12.12-2.25-15.35,7.1-26.52,22.5-27.8,18.3-1.51,37.63,11.74,43.4,28.95,3.38,10.09,6.74,40.67,2.64,49.95-.7,1.58-1.97,3.39-3.88,3.29-7.04-.25-3.79-22.53-4.29-27.98-.34-3.66-2.84-15.22-4.18-19.49-4.35-13.92-22.85-27.78-37.65-22.24-8.14,3.04-12.68,16.18-1.65,17.74,5.52-14.95,22.2,1.74,6.7,9,1.5,3.27,2.27,7.06-.73,9.77l33.37,29.06c2.42,8.02-5.37,7.65-5.8,8.5-.88,1.76-.78,10.12-1.32,12.91-.1.5-1.16.45-1.25.95-.69,3.66-4.55,27.74-3.66,29.13,5.42,1.99,12.37,3.43,17.41,6.25,39.56,22.2,47.48,79.67,48.72,120.22,1.45,47.65-.11,96.84,0,144.61.14,64.55-.16,129.7-.05,193.93l3.31,1.65v-435.13c-16.7-.24-25.93-.63-24.35-20.08,1.24-15.34,13.28-10.16,24.35-12.13v-17.75c-7.66,1.36-33.92,1.67-37.62-6.1-1.86-3.9-1.54-16.48.3-20.38,3.59-7.63,29.88-5.27,37.33-3.76v-30.24h-20.05c-10.14,0-14.9-23.16-1.53-27.16.76-.23,4.99-1.1,5.47-1.1h16.11V3.89ZM536.22,160.73c-9-15-29.75-26-46.72-16.95-8.98,4.79-11.45,16.73-6.82,25.44,5.63,10.58,23.13,3.99,20.97-2.53-7.36-5.89-5.41,2.85-9.31,4.33-8.86,3.36-15.52-14.8-3.55-22.66,11.32-7.42,27.02-.61,35.97,7.68,9.7,8.99,12.93,24.67,13.79,37.49.39,5.85-1.07,16.06.02,21.01.25,1.12.65,1.85,1.96,1.65,2.17-17.51,3.05-39.86-6.31-55.46ZM590.54,162.96h-19.4c-9.29,0-9.55,21.69-.66,21.69h20.05v-21.69ZM429.13,165.58c-4.71-.7-10.88.51-15.78,0l-.33,32.87c11.95-1.42,23.14,3.37,24.36-12.13.56-7.09.81-19.4-8.25-20.74ZM490.41,177.56c-1.08.32-2.88,2.57-3.01,3.63-.65,5.2,15.61,6.74,10.45-2.8-1.09-1.2-5.9-1.29-7.44-.82ZM378.18,311.5v-14.46c-7.8,1.04-17.95-.21-20.47-9.12-14.98,3.6-28.4-4.96-24.32-21.34-17.54-7.84-18.36-31.14-2.1-41.06,1.66-1.01,7.01-2.63,7.28-2.91.49-.49,2.28-11.18,4.02-13.19-6.99-5.83-14.1-12.72-21.31-18.18-21.96-16.63-29.37-18.43-50.94.3-14.78,12.83-28.16,28.26-43.37,40.76,29.06,20.88,58.98,42.39,89.62,60.91,6.44,3.89,24.72,15.59,30.72,17.27,4.54,1.27,13.52.15,18.72.34,4.02.15,8.21,2.06,12.14.68ZM409.3,229.15c-.35-12.2.07-24.43-.54-36.63-9.46-6.91-25.37-6.71-34.74.12-1.92,1.4-3.24,4.09-4.42,4.78-2.05,1.21-6.91,1.08-9.8,2.03-11.25,3.7-16.68,13.72-17.7,25.03-21.04,3.7-28.02,32.11-5.42,39.13-4.16,16.64,5.63,25.5,22.01,20.35,3.66,8.48,10.49,11.02,19.5,10.45l-1.78-18.25-13.15-18.07c-.29-14.81,13.41-.02,18.21,4.12,1.86-5.81-.07-19.07,2.15-23.82,4.72-10.07,9.63,14.05,9.7,16.58,2.64-2.14,3.99-5.64,7.7-6.41,12.46-2.6.73,13.19-1,18.06-.47,1.32-2.03,4.97-2.09,5.26-.46,2.38-1.46,22.33-.68,23.19,2.33.12,12.76-4.69,13.11-6.4-.37-19.43.59-38.95.09-58.38-.03-1.04-1.14-1.02-1.14-1.14ZM523.47,212.91c.27-1.13-.4-1.32-1-1.95-3.69-3.92-20.42-20.52-24.15-21.87-8.27-3-14.58,3.22-20.22,8.37-5.15,4.7-9.88,10.42-15.12,15.12l60.49.33ZM342.02,312.15c-12.07-8.25-25.2-14.79-37.57-22.58-11.27-7.1-22.67-14.71-33.74-22.14-24.68-16.56-78.42-61.67-105.89-63.06-26.69-1.35-55.02,23.15-76.5,36.57l1.23,24.55,14.09,1.32c13.01-33.36,51.09-46.75,83.66-33,37.44,15.81,29.94,44.47,37.1,77.14.1.46,1.16.62,1.49,1.91,1.93,7.65,1.38,16.48.41,24.26l9.2.66c-.13-8.09-2.85-38.59.63-44.22.75-1.21,9.35-7.63,11.12-8.78,10.68-6.88,17.36-9.29,29.7-3.87,10.45,4.59,21.14,12.4,20.4,24.98l-.03,38.46c1.6-4.48,6.76-6.32,9.48-9.25,1.75-1.88,3.04-5.24,5-7.49,6.97-7.95,20.06-13.17,30.22-15.48ZM459.37,220.14h69.03c.38,0,1.97-.81,1.71-1.64l-.36-2.34-69.06-1.27c-2.69.82-3.65,3.43-1.32,5.26ZM590.54,245.77v-23.99c-5.14-2.45-31.32-2.65-34.22.63-1.76,1.99-1.82,15.43-.79,17.94,1.24,3.01,10.8,5.42,13.64,5.42h21.37ZM30.05,240.52c18.02-.76,36.21.57,54.24,0-7.01-20.62-37.62-24.39-51.26-8.2-.96,1.14-5.41,7.88-4.61,8.85.7.24,1.39-.64,1.64-.65ZM470.14,223.51l-6.5-.08c.27,14.58,5.2,28.38,7.27,42.69l5.22.03-5.99-42.64ZM514.27,223.43h-40.76l5.4,41.91,7.75.81c.42-10.82-6.95-15.56-1.86-26.51.85-1.83,7.05-10.8,8.77-11.02,2.72-.34,11.53,13.16,11.98,16.32.33,2.3.22,3.73-.28,5.97-.54,2.4-3.4,5.52-3.48,5.85-.58,2.58.48,6.48-.67,9.38l6.26.05,6.88-42.77ZM523.48,223.43h-6.58c.15,9.73-1.07,19.5-2.69,29.06-.09.51-1.15.54-1.23.99-.7,3.95-.31,8.66-1.34,12.67l5.88-.04,5.96-42.68ZM213.43,264.57c-16.11-40.28-75.98-43.8-99.83-8.88-9.17,13.43-9.58,22.61-14.92,36.87-10.23,27.3-48.1,57.7-16.04,86.66.66.6,1.27,1.88,2.33,1,3.36-8.05,7.11-16.89,12.7-23.79,1.65-2.03,8.95-8,9.67-9.23,1.23-2.11.99-6.86,1.99-9.53,6.26-16.78,18.19-29.81,24.37-48.76,1.07-3.28,1.34-6.82,1.94-10.2,12.98-1.99,32.62-8.91,39.26-20.9,1.47-2.65,1.3-6.25,3.74-7.47,1.94,0,3.55,6.67,4.64,8.54,5.1,8.73,13.36,14.32,23.15,16.62,5.38,23.19,3.13,53.31-21.54,63.94,6.2,3.49,13,6.27,18,11.58,5.72,6.08,8.62,15.47,13.39,22.08.4.56-.08,1.21,1.47.85,2.22-3.1-.68-19.74.05-24.6.6-3.95,4.11-9.86,5.01-14.71,2.6-13.92-1.6-19.69-3.66-32.09-2.12-12.77-.94-26-5.73-37.98ZM499.72,254.88c5.07-8.22-.19-15.9-5.51-22.24-6.66,7.28-12.4,15.1-4.6,24.3-.26-2.77,3-7.1,5.95-5.32,1.47.88,1.7,4.13,4.16,3.26ZM387.38,241.17c-1.69-.63-1.75,2.57-1.88,3.7-.39,3.44-.31,23.41-2.39,24.56-1.91,1.05-2.17-2.69-3.26-3.97-1.39-1.65-12.03-11.65-13.5-10.48,3.11,9.55,11.17,12.14,13.48,22.34,2.44,10.76,1.36,22.56,1.65,33.52.19.22,4.55-1.23,5.65-1.23,1.79,0,6.96,2.05,7.45.18-.55-19.25-3.95-41.35,9.24-57.13.48-3.17-6.34,3-6.93,3.59-1.13,1.15-1.45,2.86-2.55,4.02-.7.66-1.53.91-2.39.32-1.07-.73-4.22-16.85-4.57-19.44ZM26.76,320.71h11.18l.99-.99v-9.86c0-1.45,2.67-7.55,3.65-8.84,7.43-9.84,20.02-1.48,20.02,7.53v13.47c4.85-.14,11.32,3.92,15.11.32,2.35-2.23,12.83-19.5,14.38-23.09,2.48-5.78,4.61-12.82,6.61-18.51,1.22-3.47,1.98-7.17,3.99-10.32l-16.26-2.45-1.47-24.17H27.09s-.33,76.91-.33,76.91ZM495.2,256.94c.24-.22-.62-2.69-.98-2.62-2.39,1.58-.28,3.77.98,2.62ZM203.85,277.42c-8.84-1.33-16.04-6.93-21.21-13.96-.82-1.11-2.81-6.86-4.32-5.85-6.81,14.47-25.37,20.88-40.06,23.72-1.56,12.01-6.61,22.93-12.27,33.46,8.63,25.26,52.05,34.02,69.4,13.47,11.73-13.9,11.8-33.8,8.47-50.83ZM498.49,259.58c-3.53.84-6.34.42-9.85,0l1.4,6.48,8.46.09v-6.58ZM4.08,320.71h18.08l.99-.99v-49.3l-1.66-1.02-17.4.69v50.61ZM469.56,269.44c-1.43,2.68,1.02,4.75,3.66,5.22,6.19,1.1,35.38.91,42.08.08,3.36-.41,5.43-2.37,2.59-5.3h-48.32ZM590.54,269.44c-6.48.94-13.45-.38-19.53,2.16-3.12,5.1-3.46,19.13,2.51,21.74,4.75,2.08,11.72.7,17.02,1.73v-25.63ZM537.02,287.58c1.67-2.15,3.27-4.41,5.23-6.33.61-.76.04-1.08-.32-1.66-1.42-2.3-19-9.81-19.77-8.84,1.62,9.79-9.16,5.84-11.73,7.34-.36.21-2.01,4.91-4.76,6.74-6.03,4.01-16.78,3.94-22.63-.29-2.18-1.58-3.65-5.86-6.92-5-2.05.53-13.96,12.29-13.74,13.79,5.34,5.08,10.31,10.44,14.08,16.85,12.92-13.62,33.11-14.72,49.84-7.97,3.31-5.15,6.98-9.82,10.72-14.64ZM507.04,277.98h-24.98c3.16,9.05,21.67,8.77,24.98,0ZM293.36,347.66c1.37-7.05,0-14.23-.03-21.33-.02-7.99,1.61-22.32-.96-29.27-2.57-6.91-21.18-16.71-28.24-16.47-5.74.19-24.07,10.99-25.28,16.83-2.53,12.09.25,28.57-.05,41.04l54.56,9.2ZM559.87,298.79c-4.34-6.25-7.96-12.45-14.96-16.18l-15.56,21.94c10.23,5.66,17.28,14.97,23.49,24.64l19.3-8.82c-2.28-4.32-4.04-9-6.48-13.25-1.78-3.1-3.82-5.48-5.79-8.33ZM413.02,290.47v19.39c0,2.14,14.16,1.19,16.1.97,7.44-.83,7.94-4.58,7.6-11.52-.64-12.89-14.48-9-23.7-8.84ZM410.39,293.76l-12.86,4.56-.34,13.56c4.9,3.31,7.88,8.65,11.24,13.43,1.34.08.3-1.96.64-2.85.27-.71,1.32-.37,1.32-.44v-28.26ZM467.97,323.06c1.07-2.08,6.2-9.2,5.94-10.89-.73-2.59-12.73-16.66-14.19-15.77l-15.79,31.54,19.06,7.9c.15-4.7,3.02-8.96,4.98-12.77ZM59.96,322.02c-.68-6.81.93-23.73-10.12-22.31-8.11,1.04-7.64,14.98-6.89,20.92l17.01,1.39ZM506.38,302.29c.1-.12-.04-.9,0-1.3-7.97.93-14.84,1.52-21.63,6.3-28.04,19.73-24.94,72.73-29.04,102.44-.29,2.08.3,4.76.05,6.94,14.19-9.13,9.54-30.98,11.2-45.54,2.67-23.44,11.25-51.55,32.37-65.69,1.64-1.1,6.8-2.85,7.05-3.14ZM523.47,680.9c.89-116-1.16-232.07-.03-348.07.08-8.03,1.91-17.7.73-25.64-.46-3.11-6.12-4.31-8.91-4.28-2.47.02-12.13,3.15-13.48,4.99-2.81,21.69-.64,43.85-1.34,65.73.36,2.06,3.05,1.61,4.01,3.22,3.15,5.29-4.93,17.61-3.99,18.78,19.23-10.64,8.58,17.54,1.08,23.16-1.93,80.49-1.45,161.56-.37,242.07.03,2.45-1.94,9.6-.07,11.17l22.36,8.86ZM550.43,690.44v-168.93c-2.57-2.37-4.4,1.88-8.21,2.31-19.13,2.17-19.46-31.13,1.15-26.81,2.77.58,4.26,3.49,7.06,3.79v-169.25c-5.78-9.69-12.45-17.74-22.04-23.98l-.98,1v373.99c.72.91,20.26,8.93,21.42,8.85.8-.05,1.14-.36,1.59-.97ZM497.83,374.61v-63.76c-8.23,5.74-13.98,14.19-17.56,23.49-7.85,11.07-1.56,28.36-3.47,41.58,2.89-2.91,6.49-1.19,8.9-1.59,1.16-.19,3.65-3.17,7.24-2.91,2.96.22,2.48,2.93,4.9,3.18ZM407.71,402.93c-5.45-2.97-8.28-6.74-14.96-7.58-14.09-1.77-16.57,1.61-27.12,7.79-8.67,5.08-12.75,5.54-21.2-.39-16.16-11.33-9.83-23.71-11.63-39.64-.33-2.93-4.09-10-2.99-11.55,1.66-2.35,7.04,3.24,11.16.62,3.48-2.21-.07-8.59,3.42-11.06,7.13,4.27,16.81,5.58,24.58,2.24,3.3-1.42,4.87-4.56,8.35-5.43,16.09,11.01,41.48-1.09,22.16-19.79-3.96-3.83-8.09-5.85-13.76-5.36-3,.26-4.25,1.69-6.52,2.02-7.39,1.08-17.92-1.78-26.23-1.21-23.01,1.55-33.65,11.47-48.09,26.82-9.08,9.65-9.88,21.34-6.2,33.8.33,1.1,2.73,8.82,4.54,7.61,3.49-10.34,18.93-12.24,22.57-.54,3.09,9.93,1.98,17.9,7.8,28.36,14.92,26.8,67.46,27.46,74.13-6.72ZM124.39,318.74l-1.36.4c-4.39,7.62-9.94,14.83-11.12,23.91,4.16-1.84,8.06-5.01,12.51-6.22,3.1-.84,13.41-.29,11.53-4.29-.17-.36-4.92-3.49-6.27-4.95-1.94-2.1-4.41-6.06-5.29-8.85ZM4.08,323.99v174.18l36.66-.16c1.45-4.26,2.92-8.37,5.07-12.34,3.21-5.91,12.25-15.2,17.17-20.3,5.78-5.99,10.9-9.98,18.34-13.88,1.03-8.52,2.77-16.91,6.67-24.55-7.83-12.86-8.41-28.38-4.47-42.68-18.34-14.95-20.8-36.72-9.09-56.98-23.11-4.05-46.9-4.83-70.35-3.29ZM581.89,367.28c.93-1.48-3.86-28.33-4.82-32.14-.5-1.98-2.96-11.75-4.5-11.73-2.74,3.29-15.9,7.04-17.57,8.77-.74.77-.79,1.48-.52,2.47,4.02,11.82,7.18,23.07,8.73,35.37l18.67-2.75ZM461.68,338.46l-18.4-7.24-5.83,43.29,17.37,2.76,6.87-38.81ZM409.08,358.17v-23.01l-5.81,7.65,5.81,15.35ZM174.36,342.4h-14.14c-1.56,0-6.86-1.31-8.73-1.79-3.65-.94-15.66-8.35-13.82-1.32,2.47,9.46,33.08,15.81,36.69,3.11ZM134.84,339.2c-2.25-1.71-12.3,1.56-15.03,2.89-29.79,14.54-48.88,64.72-23.39,91.05,5.86,6.06,14.18,9.9,22.34,11.73,2.89-11.55,10.14-21.28,21.4-26.55-14.43-10.05-23.95-15.55-19.74-34.84.25-1.13,1.16-1,1.28-1.5,1.1-4.44,2.01-8.91,3.36-13.29l2.59,1.03c-2.34,10.66-9.79,25.93.35,34.5,3.99-2.69,8.43-6.32,12.83-8.25,3.32-1.45,16.25-3.89,16.94-4.42,1.59-1.22.18-6.32,5.25-8.23,9.37-3.52,21.89,3.65,31.72,1.14.85-6.59-1.53-11.99-3.3-18.08l1.63-.96c3.9,5.71,5.77,12.89,4.56,19.72,2.66.87,13.86,4.71,14.22,7.52.35,1.27-1.35,1.48-2.06,1.32-2.99-.67-14.2-8.75-17.68-6.23,5.48,6.52,9.14,15.51,4.01,23.34,6.65,3.65,12.71,7.84,16.43,14.75,10.43-2.65,12.63-13.85,11.76-23.29-1.15-12.47-18.2-45.11-27.91-52.94-4.75-3.83-11.87-6.58-17.72-8.44-1.7,2.08-2.14,5.04-4.03,7.1-7.22,7.87-31.17,4.08-37.77-4.22-1.16-1.46-1.83-4.7-2.04-4.85ZM294.25,372.43c-1.51-6.12-1.11-13.58-.2-19.82-.07-1.04-.67-1.41-1.51-1.83-4.29-2.18-23.96-5.23-29.93-6.22-5.27-.87-35.77-5.45-38.3-3.82-5.7,9.45-1.45,19.35-2.61,28.94-.32,2.65-2.51,6.19-2.55,7.87-.08,3.25,5.56,11.52,6.6,14.4,3.92,10.91,3.42,24.52-4.93,33.03-1.11,1.14-5.02,2.4-5.09,3.83l6.31,16.1c8.87-5.54,18.66-6.03,28.83-4.66,2.95-6.65,4.52-13.71,8.15-20.1,4.38-7.73,19.24-25.9,28.34-14.23,7.34,9.41,1.57,32.98-3.65,42.78-.76,1.43-6.5,8.35-6.56,9.04-.12,1.25,3.05,5.97,3.43,7.55,1.96,8.25-3.13,8.75-3.41,10.85-.16,1.18,2.92,8.54,3.41,10.84.81,3.82,2.49,10.83,2.91,13.64,1.03,6.98.22,16.9,1.38,22.82.33,1.71,3.3,5.51,4.2,8.29,1.93,5.92,1.58,10.36,1.35,16.41,2.8-6.34,2.81-12.11,3.64-18.61.06-.49,1.26-.26,1.36-1.44.13-1.71-1.93-2.41-2.82-4.48-3.86-9.04,1.27-18.27.82-26.39-.15-2.62-2.02-5.86-2.46-8.77-3.74-24.93,1.84-45.45,25.19-57.89,4.39-2.34,10.1-4.02,14.93-5.28l1.8-6.88c-4.71-1.46-6.95-3.58-10.22-7.02-.61-.64-.74-2.2-1.14-2.46-.62-.41-6.36-1.08-9.08-2.43-10.37-5.14-8.88-11.74-11.78-20.43-1.29-3.86-5.37-9.5-6.39-13.64ZM409.33,374.38c-2.14-10.44-4.54-20.89-9.17-30.57-4.5,1.13-9.76,1.73-14.41,1.21-2.82-.32-7.99-3.21-8.44-3.16-.67.07-6.4,4.08-8.35,4.81-7.68,2.85-16.15,2.04-23.65-.97.98,9.57-3.11,11.38-11.83,9.2,6.65,17.18-4.95,32.44,12.84,45.33,13.76,9.98,17.45-3.5,28.59-6.87,5.95-1.8,11.56.05,17.1-1.96,3.7-3.99-7.18-14.34-7.9-18.09,3.95-3.54,13.82,15.1,11.46,19.06l11.88,7.21c4.92-7.36,4.54-15.98,2.89-24.44-.09-.47-.97-.59-1-.75ZM559.85,373.1c-1.03-7.7-1.85-15.38-3.71-22.94l-2.43-6.78-.71,159.74c6.03,4.43,8.48,13.22.01,16.5v171.51c.61,4.09,7.05,3.53,9.89,5.55-.17-70.88.27-141.78-.03-212.67-.15-36.61,1.78-75.07-3.03-110.91ZM470.87,389.06c.13-2.89,2.25-4.66,2.65-7.54.69-5.02,1.14-18.04.68-23.05-.1-1.11.07-2.18-1.03-2.92l-2.94,22.03.64,11.49ZM566.54,422.59h17.42c-.66-13.32,1.04-27.94.05-41.12-.09-1.14-1.28-.93-1.34-1.41-.32-2.67.36-5.88-.02-8.43-.18-1.18.38-.88-1-.99-1.55-.13-17.49,2.62-18.08,3.32l2.96,48.63ZM493.89,374.61c-8.73-3.09-12.23,19.16-15.55,18.96-.77-.04-1.25-.23-1.49-.98-.95-2.98,6.45-12.08,6.54-15.03.05-1.6-.87-1.12-2.06-.72-5.23,1.75-13.67,28.81-16.34,34.94l-.02.93c8.82,1.53,14.5,9.44,21.36,14.47,7.38-.96,25.81-24.53,21.74-30.27-1.44-2.04-5.72,1.19-6.92,2.35-1.93,1.87-3.82,8.48-6.55,5.2.71-4.75,8.1-21.99,7.09-25.43-.23-.8-.9-1.41-1.67-1.71-3.33-.81-8.61,8.58-10.24,11.25-1.38,2.27-1.27,6.74-5.06,6.4l9.2-20.37ZM326.83,404.11c-2.66-7.72-1.69-35.48-16.59-26.11-7.07,4.45-6.95,13.15-2.71,19.57,4.62,7,11.18,10.07,19.3,6.54ZM454.37,381.24l-17.1-2.97-1.23,56.14c6.5-3.22,11.76-8.08,16.29-13.61l2.04-39.57ZM176.01,390.38c-1.35.45-8.35,0-10.52,0-1.57,0-6.46,2.1-5.58,4.6l14.44-2.3,1.33,1.96c-.45,1.97-13.46.54-14.35,4.76-1.75,6.63,12.7-3.51,16.33-.47l-.39,2.03c-.81.67-14.18,1.95-10.14,5.51,1.42,1.25,10.01.11,12.81.35,4.42.39,8.71,2.45,13.18,2.67l.91-.13c6.8-18.78-13.5-25.72-28.49-23.55-.94.14-4.22,1-3.66,2.58,4.93-1.54,9.47-1.63,14.48-.34,1.14.69.48,2.04-.35,2.32ZM157.13,395.1c-10.12.26-18.94,5.53-27.06,10.99l-.41,1.36c4.6,2.6,9.59,5.65,13.17,9.55.54.59.52,2.05.73,2.19.52.35,3.47.02,5.05.55,8.34,2.82,15.38,9.45,17.14,18.37,1.47,7.44-1.33,5.61-3.91,9.25-.6.84-.44,2.61-1.25,3.84-.69,1.06-2.61,1.58-2.98,2.27-1.86,3.56,4.89,29.6,6.57,34.82,1.09,3.4,2.28,8.32,4.92,10.52,5.23-13.57,15.98-23.46,25.67-33.85-3.56-3.7-6.99-5.93-10.16-10.24-6.85-9.29-13.61-22.55-9.44-34.31,1.81-5.09,4.72-6.21,8.4-9.67-1.23-1.5-14.13.15-17.07-1.01-1.97-.78-2.45-3.82-2.8-4.1-.56-.43-2.09-.12-2.95-.65-5.29-3.28-.95-5.9-3.61-9.9ZM283.26,442.07c3.67-7.12,9.22-37.36-3.95-36.54-11,.68-23.61,25.75-24.79,35.72l9.29,3.4c3.27-8.94,4.72-20.01,12.78-26.02,1.85.4-3.58,11.1-4.09,12.31-.29.68-1.23.83-1.44,1.37-1.84,4.57-2.8,9.63-4.43,14.28,1.38,1.52,8.3,8.97,9.6,8.18l7.02-12.7ZM329.35,407.65c-.78-.73-1.96-.86-2.92-.37-4.73,1.95,4.87,8.6,6.38,7.41-1.2-1.44-2.42-6.08-3.46-7.05ZM409.08,437.05v-26.29c-4.83,7.21-8.81,12.95-16.65,17.21l-6.37,2.83,23.02,6.25ZM213.41,432.88c-4.92-8.45-11.11-16.16-20.62-19.83,8.11,5.7,16.06,12.11,20.38,21.36,3.39-.33.31-1.41.24-1.53ZM213.41,440.08c-6.22-11.14-15.06-21.77-27.27-26.38-19.61,9.43-2.86,37.77,8.95,46.98,2.44,1.9,15.43,8.86,15.45,10.2.04,2.81-3.31.61-3.95,1-1.18,8.95-1.81,20.09-8.01,27.17-3.94,4.5-7.15,2.04-9.01,3.15-.5.3-3.31,8.26-5.06,10.39s-4.43,3.27-6.2,5.28c4.28,3.15,7.01,8.4,11.17,12.18,8.29,7.55,20.79,13.67,32.22,13.46-8.59-8.83-18.72-19.16-17.79-32.46l1.66-.37,3.98,12.46c4.34,8.27,11.3,15.01,18.41,21.04l7.96-14.38c12.22-10.75,30.4-13.09,45.62-7.97-.72-7.29-2.78-40.52-7.54-44.71-1.42-1.25-8.97-1.96-10.54-5.23-3.19,10.15-15.59,5.87-21.05,0-1.33-.57-1.05,2.7-1.96,3.94-5.12,6.92-15.62-2.86-17.74-8.56-3.78-10.17-3.39-16.64-9.28-27.19ZM479.84,453.24c2.56-2.97,7.93-10.09,7.99-13.88.15-9.72-16.23-21.47-24.64-24.55-9.35,7.91-16.18,19-28.02,23.69-19.12,7.56-36.06-1-54.37-6.05,3.88,21.05-2.37,39.55-10.41,58.28-1.57,3.65-3.74,7.1-5.37,10.73,5.24,1.56,10.58,1.56,15.95,2.13,1.42.15,3.01,1.51,4.1,1.54,2.21.06,8.42-3.71,11.59-3.39,1.65-15.26-1.95-30.48-3.36-45.62,3.43-3.6,4.46,12.43,4.63,13.33.1.5,1.17.47,1.26.94.5,2.57-.56,5.91.82,8.6,29.15,5.61,60.3-3.06,79.83-25.74ZM377.52,432.45h-11.51c-9.94,0-23.54-7.79-30.56-14.46.01,8.38-4.54,11.87,3.33,18.03,9.72,7.61,35.87,12.77,38.74-3.57ZM156.4,427.4c-10.74-9.83-25-4.15-30.8,7.89-4.98,10.33,2.99,9.08,9.8,13.42,3.37,2.14,5.74,5.29,9.08,7.41,7.87-2.45-5.78-9.59-5.6-11.53,4.78-2.62,10.56,5.85,11.17,10.19,9.57-3.46-4.39-11.59-6.57-14.15-3.03-3.56,2.26-2.67,5.18-.58,3.1,2.22,7.26,11.03,9.26,9.84,7.17-4.25-10.06-14.47-10.51-17.15-.21-1.29-.41-1.58.99-1.65,3.15-.17,12.3,9.64,13.13,13.17,5.2-1-2.87-14.79-5.14-16.87ZM497.83,670.39v-247.14c-3.21,2.24-5.76,6.01-9.86,6.58-.51,1.99,3.13,6.53,3.26,7.05,1.22,5.11-4.53,12.43-7.59,16.55-3.28,4.43-7.42,5.54-7.55,11.57-.04,1.65.75,3.34.74,5.22-.34,63.73.21,127.47-.06,191.2l21.07,8.98ZM584.62,425.87h-19.07v51.93s18.41.65,18.41.65v-50.94c0-.22.89-.95.66-1.64ZM363.05,446.25c-11.55.27-29.66-4.4-32.19-17.48-27.46,5.81-44.27,32.16-36.77,59.67,8.42,30.92,33.76,48.53,64.86,53.61,3.78.62,15.95,2.26,18.56-.17,2.92-2.71,8.26-30.71,6.27-33.86-12.32-3.13-26.35-2.83-36.51-11.48-9.8-8.34-15.63-25.35-15.77-37.8,1.26-.25,1.63.6,2.11,1.5,2.7,5.15,3.28,15.13,6.5,21.62.84,1.7,5.16,7.77,6.53,9.39,3.78,4.46,9.53,7.93,15.34,8.95,9.01-16.8,17.53-38.27,17.37-57.57,0-.57-.51-3.68-.84-3.61-2.72,3.68-7.56,5.77-11.89,7.19.67,1.83.22,11.43-1.33,11.81-.37-.18-2.23-.49-2.23-.6v-11.17ZM143.76,461.08c-2.58-4.75-14.02-13.36-19.2-14.06-2.02-.27-4.81.74-7.65.46-9.24-.88-21.3-8.66-26.06-16.66-1.32-1.2-3.09,7.53-3.35,8.31-8.66,26.51,4.16,29.19,9.65,51.11,1.96,7.83,1.44,9.69.11,17.28-1,5.72-6.92,25.63-5.39,29.41,1.64,4.05,14.83,7.56,19.03,7.92,20.93,1.82,38.92-10.7,51.99-25.68l-3.66-8.52c-1.21-.81-7.91,7.13-10.51,5.91-1.94-1.82,8.18-7.46,8.42-9.39-3.22-5.44-5.06-11.44-6.77-17.56-2.14-7.63-3.62-23.03-6.61-28.55ZM272.09,456.34c-7.14-8.61-20.49-14.46-31.64-14.02-3.41.14-18.25,3.31-18.76,6.92-.45,3.19,4.06,16.6,5.8,19.81,2.26,4.18,7.34,8.21,11.2,3.66,1.51-2.35-5.9-12.67.47-8.76,2.21,1.36,4.19,5.73,7.84,7.94,2.14,1.29,7.63,3.76,10.02,2.79,5.89-2.39-3.03-12.65.52-12.65,5.37,4.56,9.82,12.11,17.9,11.36,5.94-2.62-.63-13.8-3.33-17.06ZM87.52,534.93l2.58-9.41c-20.94-8.44-12.93-40.46-6.42-56.6l-2.66-12.8c-9.5,17.75-17.63,38.95-11.85,59.49,2.43,8.64,8.9,17.91,18.36,19.32ZM155.53,468.39c-.47-1.82-1.23-10.01-2.16-10.68-1.77-.73-6.38-.49-6.6,1.97,4.76,29.55,16.07,63.92,41.56,82.04,11.38,8.09,25.84,13.15,39.86,10.93l.04-5.14c-20.69.05-37.59-8.61-49.92-24.88-12.25-16.14-17.89-35.4-22.78-54.25ZM75.47,460.45c.36-.58,1.62-1.73.6-2.36-21.25,13.11-24.99,44.49-21.94,67.28,1.89,14.15,8.51,28.74,7.06,43.38-.65,6.59-4.38,13.5-4.99,19.99-1.12,11.98,4.9,25.96,8.3,36.82.96,3.08,1.6,7.34,2.1,10.59,7.51.85,15.71,2.93,22.82-.9-3.66-12.81-5.28-25.99-7.8-39.46l11.07-24.89-11.01-10.61,1.63-1c21.23,17.57,48.76,33.14,77.25,27.63l1.36,72.27c3.75.93,21.59,3.08,22.34-1.63-2.93-26.16,2.55-52.14,4.5-78.14,6.03-2.44,1.29,7.18,4.94,7.47,16.47-2.35,34.5-13.67,35.89-31.51-26.87,4.97-50.61-13-64.75-34.17-.59-.03-6.62,7.77-7.79,8.96s-5.51,3-6.47,5.09c-1.25,2.74-3.03,18.12-2.54,21.14.83,5.11,7.73,7.21,4.46,15.57-6.71,17.2-38.31,2.39-47.19-6.38-6.62-6.54-5.82-10.9-3.35-19.32l-24.17-12.31c-21.68-15.27-14.19-54.24-2.31-73.49ZM474.16,464c-6.59,1.84-5.66,9.51-5.93,15.42-2.38,51.27,1.78,104.38.07,155.84-3.04,3.07-.23,2.7-.09,2.94,1.07,1.79-3.31,1.12.06,2.27.53,1.87-1.23,1.23-1.38,2.6-.48,4.35.43,9.67.09,14.14l6.2,2.01.99-195.22ZM202.38,481.52c.78-3.77.88-7.42,1.41-11.2l-5.8-3.41c-2.72,3.13-6.37,5.63-9.19,8.56-4.1,4.26-18.14,21.75-18.3,26.97-.04,1.27,4.65,10.35,5.48,10.93,5.35,3.7,12.43-14.65,12.82-18.21,5.16-.66.13,5.1,5.32,3.38s6.21-11.87,7.27-16.27c.11-.48.97-.59,1-.75ZM465.61,470.57l-10.37,5.65-.8,181.68c3.7-1.19,9.82,1.18,9.87-4.26.25-40.54-.27-81.27.03-121.62.15-20.4.73-41.05,1.27-61.44ZM86.54,474.88c-.39-.39-1.21-2.01-1.59-1.68-4.36,13.49-11.71,42.04,5.51,48.69.6-.14,3.08-8.88,2.92-9.52-.21-.81-2.28-1.44-3.08-2.79-3-5.01-3.07-9.96-2.71-15.66.49-7.83,5.19-12.67-1.05-19.04ZM436.03,481.75v34.18l15.78,1.32c.64-13.34.8-26.71.65-40.1l-16.43,4.6ZM52.49,490.72c1.02-4.11,1.88-8.22,3.21-12.25-8.35,6.53-11.47,17.6-13.83,27.57-3.58,15.1-2.22,34.17-12.14,47.49-3.18,4.26-15.37,13.06-11.22,19.3,2.07,3.14,9.87.23,11.84-1.41s1.33-5.82,5.3-4.88c-.08,4.84-4.78,9.88-.91,14.43,9.03-1.85,12.12-13.01,13.87-20.87,5.52-24.79-2.14-45.1,3.9-69.37ZM583.96,481.75l-17.75-.66c.27,16.45-.39,32.87-.66,49.3l18.41,1.31v-49.95ZM409.08,483.06l-9.21-.66.67,7.23c3.46-1.95,9.41-1.44,8.54-6.57ZM432.09,483.06l-19.73.65c-.9,4.8,3.12,5.05,3.77,9.71.41,2.88-.96,6.64-.5,8.22.53,1.83,8.12,2.59,7.88,9.93-.12,3.67.05,5.18.07,8.63.03,4.27-2.46,4.59-2.7,5.29-.58,1.72,1.15,1.48,1.31,2.07,1.34,5.01-5.06,6.22-6.21,8.1-.69,1.13-.17,3.05-1.32,4.6-1.01,1.35-3.41,1.08-3.64,2.94-.26,2.06,1.97,5.67.68,8.23,7.1.55,13.4.8,15.47,8.53,3.33,12.4-.18,18.37-13.5,17.11l4.74,67.24,13.67,6.38v-167.61ZM92.83,485.03c-1.6-.11-1.13-.17-1.31.97-.87,5.42-2.54,19.25,2.63,22.03,1.17-7.94.86-15.3-1.32-23ZM412.36,501.47c.2-2.95,2.16-9.35-1.32-10.83-8.11-1.14-12.05,2.59-10.51,10.83h11.83ZM548.09,505.79c-6.86-12.64-20.69-4.27-16.39,8.81s22.88,3.15,16.39-8.81ZM4.08,501.46v335.88h586.45v-101.22c-9.37-2.13-17.68-7.2-26.07-11.69-8.5,3.36-20.2,9.67-29.49,9.57-12.55-.13-52.53-22.66-65.84-29.33-7.74-3.88-35.39-14.7-38.2-21.63-1.24-3.07-1.98-11.67-1.44-14.9,1.25-7.38,10.44-6.67,15.73-8.91l-26.95-9.86c2.84,13.38.14,18.21-12.84,21.66l1.14,13.69c10.09,3.01,31.61,8.84,29.97,22.63-2.04,17.08-36.63,13.58-48.14,10.43-3.87,8.15-12.38,8.76-15.7-.18-.41-1.1-.33-3.67-.47-3.8-.38-.38-7.42-1.08-10.08-3.4-6.59-5.73,2.45-20.98,3.33-27.38.15-1.12,1.14-5.21-.12-5.36-15.94,2.53-32.32,1.18-48.34-.04-1.22,5.51,2.39,7.9,5.53,11.9,2.95,3.74,4.69,4.93,7.23,7.89,6.81,7.9,3.74,17.32-5.73,21.11-23.33,9.33-43.15-6.94-55.18-25.29-6.38-9.73-6.52-21.14,3.43-28.09v-1.29c-3.85-2.02-7.46-6.72-7.17-11.43.6-9.86,8.65-28.33,11.33-39.32,5.18-21.22,8.49-43.03,13.59-64.29-1.56,4.25-2.36,8.35-5.55,11.86-9.46,10.38-25.49,9.53-37.87,6.25-5.19-1.37-10.28-3.56-14.42-6.94l-5.14,11.37c4.68,16.02,15.67,28.45,12.16,45.94-2.04,10.15-16.75,36.02-24.14,43.57-6.58,6.72-11.81,7.59-18.38,0-4.93-5.7-7.43-13.11-2.63-19.68,6.38-8.75,11.95-8.96,15.78-22.35,2.2-7.68.22-10.14-2.74-17.02-.9-2.08-5.4-11.14-6.79-12.26-1.81-1.46-6.44-.02-8.61.62-.74,1.49.07,3.41-.3,4.84-3.55,13.61-5.25,31.92-5.26,46.77,0,7.42,3.42,30.73.82,35.66-3.01,5.7-24.64,4.94-26.93-2.94l-2.14-82.98-22.28-1.23c-.76,3.47-1.58,6.27-1.22,9.94,1.14,11.71,7.41,25.27,10.45,36.25,1.82,6.59,4.26,13.11-3.99,15.24-7.26,1.87-18.65,1.27-21.86-6.51-3.41-8.27-6.82-19.04-9.7-27.26-4.78-13.65-8.81-24.34-2.73-38.83l-10.28-5.91c-1.72-.13-7.42,14.97-8.55,17.48-.4.88-1.56.99-2.09,2.5-1.32,3.75-.45,9.77,1.86,12.63l7.81,47.01c-2.01,9.19-26.04,6.81-28.46-2.16-2.07-17.74-15.39-44.15-13.96-61.27,1.59-19.05,8.55-20.14,2.79-43.26-.29-1.14-.28-2.88-1.66-3.27v9.53c0,3.9-6.68,22.19-9.21,25.63-4.92,6.68-15.24,9.16-14.46-2.3-8.81,2.7-19.49,1.94-15.71-10.12,7-8.33,15.34-15.45,18.52-26.19,3.63-12.27,2.73-25.53,5.75-37.96H4.08ZM306.25,518.15c-4.53-5.38-7.04-9.78-10.25-16.03.19,6-2.68,17.23,1.13,22.19,3.44,4.49,16.42,5.51,21.87,5.4-5.05-2.94-9.01-7.14-12.75-11.57ZM405.13,511.98l13.84,1.04c6.11-14.13-30.19-7.68-31.53-5.58.84,8.44-1.25,15.99-3.12,24.15-.52,2.27-1.57,4.43-2.2,6.67,6.44,3.13,11.86-.27,17.43-.66,2.87-.2,11.22,2.58,12.52.71,3.32-4.72-5.46-6.12-8.17-6.7-1.54-4.06,3.81-2.36,6.51-1.58,2.84.81,5.18,4.21,7.76.56,2.84-7.73-9.42-5.72-12.6-6.89-1.29-.48-1.18-1.37-1.09-2.52l14.67,1.36c2.69-3.67.07-6-3.46-6.99-1.41-.4-13.41-.9-10.57-3.57ZM553.06,515.92c4.18-.93,2.66-6.3.32-8.54-1.02,2.85-.88,5.62-.32,8.54ZM451.81,520.53l-15.78-1.31v44.37l15.78,3.62v-46.67ZM283.27,527.33c-11.03-11.79-43.58-3.06-50.04,12.27s1.33,19.65,13.8,24.95c-2.02-2.29-8.67-11.99-6.3-14.71,2.21-2.53,4.27,7.04,5.95,9.15,7.93,9.93,24.85,8.53,33.88.97,7.86-6.58,9.92-24.93,2.72-32.63ZM344.64,541.57c-2.56-.9-5.36-1.29-7.88-2.32-7.98-3.27-7.84-4.7-16.78-5.58-7.48-.74-14.73-2.15-22.02-3.94-1.71,6.55,1.92,7.29,7.21,8.89,9.15,2.77,26.41,4.78,35.88,4.28.93-.05,3.4-.05,3.58-1.33ZM565.55,533.67v52.26l18.03,4.18,1.07-2.84-.77-52.21-18.33-1.39ZM146.75,538.28l-10.5,5.58c1.55,1.18,6.93,10.62,7.54,10.87.26.1,1.72.24,1.66-.4l1.3-16.04ZM330.84,545.51c-11.59-.66-23.36-2.31-34.18-6.58l-6.92,25.63c-5.26,29.97-11.78,59.19-21.73,88.06-1.05,10.81,25.22,17.13,33.12,18.89,25.21,5.61,51.51,5.15,77.05,2.18l15.72-129.74c-1.14-.61-11.9-2.6-12.63-2.43s-1.18,2.34-2.01,3.1c-3.95,3.62-18.44.7-23.76-.28l-21.96,1.9c-2.47,14.53-10.67,30.16-23.94,37.52-5.42,3-11.55,4.56-17.77,3.71l-1.09-2.52c22.83,1.01,36.11-19.76,40.1-39.44ZM407.73,541.59c-3.75-.36-7.68-2.86-11.04.4-3.15,28.44-5.73,56.98-9.27,85.37-.15,1.2-1.26.91-1.33,1.43-3.54,28.35-6.23,57.06-11.26,84.63-.51,2.78,3.63,9.04,7.29,7.25,2.79-1.37,3.34-11.77,4-14.94,5.98-28.62,7.96-59.36,11.72-88.96,2.79-21.97,8.71-47,9.9-69.64.1-1.84.03-3.71-.02-5.54ZM140.18,554.7c.38-.37-5.76-8.29-6.2-8.58-1.76-1.18-14.79,2-18.46,2.07-2.75.06-6.3-1.04-9.14-1.25-9.69,11.12,2.72,17.77,11.44,22.89,3.45-8.58,13-14.85,22.36-15.13ZM412.79,554.8l-.81,1.25c1.42,3.55.09,14.54,1.37,17.06,1.44,2.83,11.85,1.55,12.2-4.29.52-8.57-3.33-15.16-12.76-14.03ZM119.79,571.79c6.28,1.98,13.12,5.64,19.95,5.23,7.88-.48,13.03-7.06,8.62-14.39-5.04-8.36-15.7-4.21-21.64.65-1.31,1.07-7.75,7.47-6.93,8.51ZM409.3,568.32c-.38-2.32.41-5.28-.87-7.04l-13.81,109.11,20.18-6.76c1.41-1.86.96-12.83.88-15.94-.63-24.52-2.54-55.94-6.38-79.37ZM436.03,567.19v42.72l15.77,3.28.7-41.77-.46-.99-16.02-3.25ZM224.58,575.47c-.41-.58.02-1.81-.57-1.7-4.88,7.03-12.6,11.53-20.71,13.81,2.32,5.42,6.18,10.95,8.21,16.43,1.3,3.5,1.02,5.59,1.65,8.75.13.64,1.16.18,1.32.77.4,1.4-1.15.73-1.31,1.44-1.86,8.2-3.68,15.77-9.71,22.22,3.35,6.46,8.02,14.85,16.61,12.17,7.24-13.41,17.49-27.61,16.08-43.7-.53-6.05-8-25.11-11.57-30.19ZM132.29,588.89l-23.67-7.9c-2.19,10.12-3.03,17.47.47,27.44.24.69,1.25.81,1.44,1.36,1,2.89,7.1,22.56,8.37,23.04,3.35.34,18.7.51,19.88-2.99-1.43-14.05-11.55-26.57-6.49-40.95ZM584.62,593.49l-19.07-3.94v48.97l19.07,4.93v-49.95ZM436.03,612.55v40.1l15.12,5.26.56-41.31-15.68-4.04ZM129.33,636.21c-2.99.35-6.48-.25-9.53,0,3.5,7.83,1.74,12.54,12.13,13.17,3.41.21,7,.15,10.06-1.51,1.67-1.87-.82-12.37-1.82-14.95-3.29,1.66-7.19,2.86-10.84,3.29ZM90.21,638.84c-7.55,2.33-14.61,1.95-22.35.66.25,10.18,3.37,15.77,14.15,16.43,14.58.88,9.27-7.52,8.19-17.09ZM201.6,641.17c-.51-.48-.71-1.21-1.26-1.67-8.15,4.71-6.64,15.21-.37,20.73,8.84,7.79,10.81-2.02,17.12-6.61-3.35-1.42-5.88-1.85-8.84-4.29s-4.05-5.71-6.64-8.16ZM584.62,691.75v-44.04c-4.21-1-14.41-5.64-18.11-5.57-2.2.04-.31,5.4-.28,6.86.31,12.79-.34,25.62.05,38.4,4.31-.3,13.74,5.24,16.83,5.23.83,0,1.02-.3,1.51-.89ZM434.72,665.8c-.31,1.37.71,1.5,1.51,2.09,4.95,3.59,23.78,11.39,30.7,14.66,22.24,10.5,44.94,20.13,67.57,29.78,3.59.59,27.89-9.2,28.37-10.77.23-.76.17-1.49-.63-1.9-24.99-9.15-49.56-19.44-74.07-29.8-7.2-3.05-18.19-10.06-25.54-10.03-3.41.01-26.8,4.09-27.91,5.97ZM162.53,662.5v10.19c0,5.11,19.37,8.2,21.87,2.8,1.46-3.15.11-9.53-.18-12.99-7.36,1.48-14.35,1.78-21.69,0ZM314.36,677c-13.33-2.17-26.86-4.88-39.11-10.56l-6.75,7.67,10.08,14c9.65-8.2,23.93-8.06,35.83-5.88l-.04-5.22ZM433.41,670.39c.31,4.79-.85,12.02,3.72,15.01,28.12,13.1,56.4,30.26,85.04,41.84,1.46.59,10.18,4.14,10.86,3,.33-3.22,2.39-13.1-.08-15.1l-99.55-44.75ZM402.5,672.36l-8.22,1.97-2.29,14.46c4.06-1.79,7.1-3.9,11.83-3.95l-1.32-12.48ZM377.52,676.96l-8.47.74c1.39,8.29-11.82,25.3,3.53,24.24l1.55-1.09,3.39-23.89ZM271.27,684.6c-1.3-1.76-2.16-4.8-4.21-5.34,5.73,21.82,30.29,46.32,55.02,36.59,1.37-.54,7.15-4.07,7.46-5.05,1.19-3.82-6.11.86-7.37,1.19-26.8,7.12-37.29-8.96-50.89-27.39ZM300.27,692.08c5.33-.69,13.38,0,19.07,0,.11,0,1.15,1.41,1.64.33-8.26-12.92-30.17-9.16-41.37-1.99l6.28,7.52c3.97-2.12,9.95-5.3,14.38-5.87ZM414.99,690.12c-6.38-2.3-12.36-3.39-18.65.08-6.29,3.47-5.69,10.96-6.72,17.03l9.17.69c1.67-5.14,4.51-10.3,9.01-13.49,1.91-1.35,4.51-1.9,6.25-2.94.59-.35,1.29.34.93-1.37ZM583.96,730.2l.58-33.1-18.32-6.34-.32,30.23,18.06,9.21ZM432.08,703.25c.65-5.39-9.92-10.7-13.98-10.37-5.64.46-17.22,9.53-16.26,16.28h19.07c.46-2.18-4.41-3.85-4.6-4.94-.68-3.89,9.37.23,7.89,4.28,2.91.08,6.03-2.18,3.73-5.06s-7.22-1.16-9.64-3.81c4.71-4.06,10.28.03,13.78,3.61ZM328.49,702.33c-3.57-6.51-8.61-7.32-15.71-7.65-7.83-.36-18.71,1.18-25.32,5.61,3.89,4.11,8.69,7.19,14.13,8.86-1.25-11.06,4.03-8.06,3.68.6l5.84.73.33-8.53c2.94,1.93,2.91,4.77,3.32,7.89l5.94-1.31c1.08-1.67-3.74-6.81-1.36-7.25,3.34.13,4.3,3.91,4.26,6.57,3.85-1.72,7.07-1.54,4.88-5.52ZM372.82,705.97c-.24-.38-7.41-1.83-8.45-3.38-1.24,5.79,2.46,8.39,7.93,7.61.76-.55.94-3.58.52-4.23ZM562.92,720.67v-14.79l-24.33,8.86c-.57.54-1.3,8.33-1.34,9.84s-.65,6.22.97,6.24c2.89.04,23.99-7.89,24.7-10.16ZM388.76,714.37c7.89,2.12,16.93,3.86,25.16,3.26,5.77-.43,17.04-2.36,18.16-9.11-12.56,7.6-27.95,3.75-41.72,2.61-1.76.14-1.92,1.7-1.6,3.24Z"/>
  <rect x=".14" y="841.29" width="595" height=".66" fill="#fff"/>
  <path d="M4.08,501.46h34.85c-3.02,12.44-2.12,25.69-5.75,37.97-3.17,10.74-11.52,17.85-18.52,26.19-3.78,12.06,6.9,12.82,15.71,10.12-.78,11.46,9.55,8.98,14.46,2.3,2.53-3.44,9.21-21.74,9.21-25.63v-9.53c1.38.38,1.38,2.12,1.66,3.27,5.76,23.12-1.2,24.21-2.79,43.26-1.43,17.12,11.89,43.53,13.96,61.27,2.42,8.97,26.45,11.35,28.46,2.16l-7.81-47.01c-2.31-2.87-3.17-8.88-1.86-12.63.53-1.52,1.69-1.62,2.09-2.5,1.13-2.51,6.84-17.61,8.55-17.48l10.28,5.91c-6.07,14.5-2.04,25.18,2.73,38.83,2.87,8.22,6.29,18.99,9.7,27.26,3.21,7.78,14.61,8.38,21.86,6.51,8.26-2.13,5.81-8.66,3.99-15.24-3.03-10.98-9.31-24.54-10.45-36.25-.36-3.67.46-6.47,1.22-9.94l22.28,1.23,2.14,82.98c2.29,7.88,23.92,8.63,26.93,2.94,2.61-4.93-.83-28.24-.82-35.66.01-14.85,1.71-33.16,5.26-46.77.37-1.43-.43-3.35.3-4.84,2.17-.64,6.81-2.08,8.61-.62,1.39,1.12,5.89,10.18,6.79,12.26,2.96,6.88,4.94,9.34,2.74,17.02-3.83,13.39-9.4,13.6-15.78,22.35-4.8,6.58-2.3,13.99,2.63,19.68,6.57,7.6,11.8,6.73,18.38,0,7.39-7.55,22.1-33.42,24.14-43.57,3.51-17.49-7.49-29.92-12.16-45.94l5.14-11.37c4.13,3.38,9.23,5.56,14.42,6.94,12.38,3.28,28.41,4.13,37.87-6.25,3.19-3.5,3.99-7.61,5.55-11.86-5.1,21.26-8.41,43.07-13.59,64.29-2.68,10.98-10.73,29.46-11.33,39.32-.29,4.71,3.32,9.41,7.17,11.43v1.29c-9.95,6.95-9.81,18.36-3.43,28.09,12.03,18.36,31.84,34.62,55.18,25.29,9.47-3.78,12.54-13.21,5.73-21.11-2.55-2.95-4.29-4.14-7.23-7.89-3.15-4-6.75-6.38-5.53-11.9,16.02,1.22,32.4,2.57,48.34.04,1.26.14.28,4.24.12,5.36-.88,6.41-9.93,21.65-3.33,27.38,2.66,2.31,9.7,3.02,10.08,3.4.14.14.06,2.71.47,3.8,3.32,8.94,11.83,8.33,15.7.18,11.51,3.15,46.1,6.66,48.14-10.43,1.65-13.79-19.87-19.63-29.97-22.63l-1.14-13.69c12.99-3.46,15.68-8.29,12.84-21.66l26.95,9.86c-5.29,2.24-14.48,1.54-15.73,8.91-.55,3.23.19,11.84,1.44,14.9,2.81,6.92,30.46,17.75,38.2,21.63,13.31,6.68,53.29,29.2,65.84,29.33,9.29.1,20.99-6.21,29.49-9.57,8.39,4.49,16.7,9.56,26.07,11.69v101.22H4.08v-335.88ZM11.97,527.1c.59.58,11.22.77,11.82-1.64,0-2.19-12.88-3.26-11.82,1.64ZM254.39,589.69c-.97.22-1.8.72-2.44,1.49,0,1.9,11.9,2.89,13.12,0-.09-2.06-9-1.88-10.68-1.49ZM21,607.44c-2.2.56-3.75,2.96-1.37,3.73.71.23,13.26-.69,14.7-1.59.74-3.2-11.49-2.61-13.32-2.14ZM264.33,621.2c-.61-.97-13.79-2.28-12.39,2.52h12.49s-.11-2.52-.11-2.52ZM33.54,647.59c-4.57.34-14.82,1.45-12.61,8.24s25.42,7.34,28.79,1.37c5.57-9.85-10.73-10.01-16.18-9.61ZM102.57,668.62c-4.94.45-17.11,2.09-14.86,9.84.27.92,3.05,3.49,3.99,3.91,5.42,2.46,32.48,2.8,34.52-3.91,3.52-11.56-17.29-10.43-23.65-9.85ZM234.19,676.96h11.51c.23,0,1.14-1,.98-1.63-.38-1.57-13.75-3.79-12.49,1.63ZM26.91,679.08c-2.21.56-3.75,2.96-1.37,3.73.49.16,9.22-.65,10.1-1.59.67-2.91-7.16-2.54-8.72-2.14ZM56.68,757.81h12.82c3.62,0,15.36-6.01,18.41-8.55,4.59-3.82,14.57-16.98,3.79-18.9-13.72-2.44-24.39,5.53-33.69,14.3l3.97-20.35c3.49-.32,4.73,3.18,8.5,3.66,8.1,1.03,13.98-6.55,11.21-14.16,10.98-2.14,14.19-14.11,2.01-17.51-1.73-.48-5.16.06-5.87-.37-.26-.16-1.36-4.4-2.28-5.61-5.24-6.97-15.37-5.89-17.55,3.08-5.32-2.73-14.24-1.74-15.61,5.08-1.5,7.45,5.06,9.81,5.14,10.42.12.96-1.98,4.56-2.03,6.54-.2,7.06,6.75,10.95,13.18,9.51l-3.29,17.08c-4.3-10.12-12.65-22.71-24.72-24.24-6.64-.84-9.71-.86-9.93,6.35-.32,10.31,7.99,20.06,16.92,24.13,5.21,2.38,11.37,2.74,16.37,4.7l-1.27,27.19c-3.27-1.97-4.59-6.18-7.88-8.87-4.46-3.64-11.99-6.16-17.13-2.66-4.81,5.38,6.32,15.65,10.75,18.23,2.52,1.47,13.67,4.6,14.05,5.97l.83,13.99,2.67.29-.66-15.78c7.28,2.8,33.52-12.2,24.01-19.72-6.19-4.9-20.32,3.56-24,9.21l1.31-23.01ZM128.54,696.21c-9.47,11.05,26.71,15.09,26.74,3.35.02-8.49-23.31-7.35-26.74-3.35ZM206.45,694.25c-27.12,1.25-24.18,18.01-.22,18.89,6.35.23,30.25-.99,29.28-10.8-.87-8.71-22.8-8.37-29.05-8.08ZM224.53,731.06c-4.53,6.64,6.29,10.44,11.32,10.96,6.09.64,31.27.26,26.77-10.99-3.06-7.63-33.37-6.9-38.08.02ZM467.46,729.09c-4.53.32-15.39,1.7-14.79,7.93.57,5.9,14.56,6.94,19.01,6.8,4-.13,19.33-2.24,15.27-8.97-3.37-5.6-13.69-6.17-19.49-5.76ZM148.16,740.62c-1.52-.88-1.16-8.58-10.2-7.76-6.18.56-7.46,7.23-8.37,7.81-.49.31-7.28-1.89-11.06,1.75-4.23,4.07-1.38,12.44,4.55,12.77-.99,5.22-4.29,7-.31,11.8,3.46,4.17,6.38,4.45,11.48,3.32l-6.58,18.4c-1.69.3-1.02-.23-1.38-.92-1.63-3.19-2.33-7.58-4.53-11.06-3.15-4.98-10.97-12-17.35-11.65-5.23.29-4.46,3.33-6.96,6.35,1.39,3.87,2,8.07,3.81,11.81,3.97,8.2,13.8,15.55,22.47,17.97l-3.29,11.15,3.26.66,2.74-10.42c11.68.98,26.84-1.42,34.37-11.32,11.56-15.19-7.43-14.25-17.29-10.05-5.05,2.15-8.82,6.39-13.22,9.45l7.86-22.05c4.17,1.6,7.25,3.32,12.04,2.19,1.46-.35,6.45-5.19,6.76-6.36.81-3.09-.71-5.75-.27-7.48.72-2.83,6.55-3.47,4.86-10.36-2.12-8.61-11.47-4.88-13.4-6ZM197.05,732.83c-1.59-.46-7.61,0-9.86,0-.62,0-2.09,2.3-1.64,3.29h11.51c.1,0,1.64-.72,1.65-1,.14-.69-1.3-2.19-1.65-2.29ZM358.32,737.63c-20.08,1.74-22.45,14.5-.84,16.22,4.88.39,21.93-.15,24.14-5.41,4.51-10.71-17.39-11.33-23.31-10.82ZM309.14,747.94c2.84-4.51-14.87-4.01-16.42-.32.09,1.65,14.5.55,16.42.32ZM437.68,747.29c-1.26-.46-9.59,0-11.83,0-1.39,1.01-1.39,2.27,0,3.29h11.18c1.87,0,2.36-2.67.66-3.29ZM536.25,756.23c-4.85-10.03-10.27-7.53-10.22,2.82-1.26,2.43-6.45-4.96-10.46-.27-5.59,6.54,8.28,21.39,16.38,18.83l2.04,22.27-6.6-6.21c-16.47-10.2-24.19,2.06-7.81,13.07,2.63,1.76,14.01,6.94,16.73,6.88s13.3-5.31,15.75-7.17c15.43-11.75,9.54-26.64-7.1-14.99-3.31,2.32-4.55,5.72-7.67,7.77,1.16-7.84-1.45-14.2-1.98-21.69,7.14,1.88,21.59-15.92,12.89-19.79-4.9-2.18-6.81.78-10.91,2.04.85-2.37-.71-2.9-1.03-3.56ZM224.34,779.5c1.13-21.65-14.46-19.95-14.48,0-3.22-4.43-10.34-10.78-16.27-8.05-7.57,3.48,6.17,22.19,9.05,19.23,1.66-1.71-2.21-3.57-2.97-4.58-2.6-3.44-5.47-7.18-4.92-11.85,9.67-1.04,11.76,8.78,17.75,13.14.17-5.15-.06-15.77,3.92-19.41,4.05-3.7,5.22,6.61,5.29,9.26.05,1.86-1.75,9.18-.33,9.49,3.93-1.24,5.86-6.24,9.31-8.43,1.65-1.05,7.85-4.05,8.09-.49-.31,1.14-.6,2.42-1.12,3.48-.57,1.16-8.38,8.72-5.09,9.38,5.08-1.16,13.36-14.84,6.13-17.32s-13.75,6.86-14.36,6.14ZM411.58,764.58c-24.98,2.24-25.62,17.59.47,19.5,6.6.48,28.52-.05,30.92-7.84,3.93-12.78-24.47-12.29-31.39-11.66ZM488.64,775.56c-1.45-13.72-13.44-13.02-11.84,1.31-3.81-1.33-8.09-6.01-11.48-1.29-3.48,2.88,6.83,15.83,6.89,10.19.02-1.78-5.54-6.15-2.95-8.89,4.59-.81,8.07,9.24,10.88,6.95,1.67-1.37-.37-11.9,1.22-14.45,5.5-1.73,4.63,14.58,6.31,15.38l5.86-8.58,4.01-1.3c1.95,3.35-3.53,8.29-.68,11.18,4.03-3.81,7.8-15.42-1.24-14.42-3.5.39-3.85,3.6-6.97,3.92ZM318.14,779.95c2.39-2.02,2.46-7.03.18-9.29-6.11-6.07-34.41-5.29-40.76.6-3.67,3.41-3.59,7.17.47,10.11,7.24,5.24,33.17,4.47,40.11-1.41ZM364.17,795.75c8.78-11.48-31.86-13.93-26.93.69,4.62,5.45,22.78,4.73,26.93-.69ZM402.5,802.5c.23-5.16-18.97-3.21-15.12.66l15.12-.66ZM443.13,799.42c-20.21,1.57-25.58,14.48-1.5,15.56,5.29.24,20.56-.19,22.4-6.54,2.43-8.38-16.08-9.39-20.9-9.02ZM268.38,805.8c-2.48-1.95-18.45-2.16-17.75,1.62.33,1.76,8.49-.22,10.17-.36,2.01-.16,7.33,1.71,7.57-1.27ZM96.13,807.77c-.15-4.05-14.42-3.98-14.46,0h14.46ZM189.48,808.42c3.79-3.5-14.24-5.18-14.47-.33-.06,1.34-.03.88,1,1.01,3.51.46,9.47-1.61,13.47-.68Z" fill="#fff"/>
  <path d="M486,3.89c-9.31,8.72-18.62,17.62-28.24,25.99-23.47,20.42-48.31,40.06-71.44,61.03-6.04,5.47-12.45,9.69-12.77,18.45-.33,9.17,5.46,23.47,16.17,24.03,6.87.36,12.47-4.84,17.39-8.89l1.31.67v62.77c-10.85-5.03-23.89-5.21-34.41.76-2.27,1.29-6.38,6.34-6.83,6.47-1.78.51-4.65.13-7.41.99-7.25,2.27-9.88,5.33-15.37,10.13-18.63-12.44-38.75-42.12-63.75-26.78-20.69,14.77-37.11,34.7-56.66,50.92-15.95-10.42-34.08-25.46-53.42-28.53-30.57-4.85-58.58,20.46-82.74,35.31l-1.5-.07c-10.47-26-56.89-23.15-61.79,5.11-1.37,7.87.05,15.96-1.51,23.8l-18.96,1.42V3.89h481.92ZM73.94,52.36c-1.45-1.24-1.46-8.83-5.08-8.43-2.86.32-2.58,6.73-4.31,8.24-2.01,1.74-7.21.23-9.54,2.29-2.17,3.65,5.07,4.63,5.51,6.33-5.21,17.39,4.63,5.31,8.88,5.67,2.21.19,6.52,5.94,10.02,3.18,1.11-1.53-1.57-6.25-.97-8.13.42-1.32,5.75-3.36,5.12-5.91-.76-3.12-8.07-1.9-9.63-3.25ZM235.42,44.74h-2.45c-.69.46-1.8,7.26-3.05,8.44-1.55,1.47-7.77.79-8.16,3.71-.36,2.68,6.61,3.22,7.66,4.35,1.38,1.48,1.68,8.77,4.42,9.02,4.27.38,4.35-7.42,5.09-8.39.45-.59,6.95-2.23,7.74-4.42-.9-2.94-7.09-3.15-7.75-3.74-.37-.32-1.73-7.6-3.5-8.98ZM340.18,60.27c-.33-1.96-2.27-9.71-4.4-9.74-4.49,1.62-3.21,6.93-4.36,10.47l-9.48,2.04c-2.5,4.89,5.44,6.53,5.66,7.67.4,2.06-4.3,7.96-.7,9.78,3.23,1.63,7.2-4.24,9.41-4.16,1.98.07,7.97,5.83,10.23,4.4,2.13-2.83-1.53-7.78-1.08-10.04.63-3.25,16.42-8.22-5.28-10.42ZM156.58,59.8c-28.4-5.02-52.26,24.49-36.56,50.69,9.98,16.65,37.59,20.73,50.98,5.98.8-3.44-12.05-4.45-15.18-5.64-19.12-7.26-19.13-29.58-6.45-43.54,1.32-1.46,8.44-5.99,7.22-7.5ZM271.26,105.52c-1.19-2-.9-6.41-4.44-6.28-1.96.58-2.23,6.88-3.72,8.15-2.53,2.16-17.18.49-2.62,8.91l-.11,1.21c-1.91.1-2.41,7.52-1.25,8.35,3.3,2.37,7.22-4.29,8.93-4.15,1.87,1.47,7.19,5.6,9.48,4.38,1.32-2.76-1.31-7.03-.94-9.26.28-1.68,5.52-3.33,4.67-6.49-1.1-4.07-7.64-.85-10.01-4.83ZM63.44,137.13c-.75-1.13-1.05-8.08-3.73-7.66-2.44.38-3.51,8.33-4.31,8.88-1.46,1-8.34-.17-9.76,3.24.61,3.98,8.15,3.6,9.4,4.93,1.46,1.56.82,8.65,4.64,9.23,4.55.69,4.13-6.42,5.89-8.55,1.36-1.65,6.97-1.97,7.58-5.61-.03-3.05-8.23-2.24-9.7-4.45ZM353.02,141.45c-4.52-4.1-4.56,5.22-6.02,6.44-1.15.97-5.53,1.4-6.98,2.91-.89,2.28,4.97,3.48,6.24,4.95,1.65,1.9,1.73,8.19,5.32,8.55,3.73.37,2.79-6.08,3.92-7.9,1.06-1.7,10.93-3.44,5.15-7.16-1.39-.9-4.8-1-5.35-1.55s-1.06-5.12-2.3-6.24ZM220.55,158.85c-1.6-1.34-.8-8.27-4.43-7.78-4.52,4.61-3.78,8.92-11.55,10.31-.71,4.11,4.69,3.36,6.3,4.86,1.5,1.4,1.81,8.22,4.7,9.1,5.13,1.55,3.9-5.92,5.85-8.39,1.17-1.48,3.83-1.55,5.22-2.66,5.9-4.69-4.75-4.3-6.09-5.43ZM106.76,175.98c-1.36-2.22-2.04-8.85-5.68-8.47-2.36.25-3.75,7.28-5.25,8.62-1.73,1.55-7.03,1.18-7.96,2.57-2.31,3.45,5.83,6.31,6.08,7.55.81,4.11-7.96,15.37,8.42,5.19,1.85,0,6.44,6.64,9.88,4.41,1.65-2.78-1.25-8.09-.84-10.15.64-3.22,16.09-9.61-4.66-9.72Z" fill="#fff"/>
  <path d="M590.54,3.89v155.78h-16.11c-.49,0-4.71.87-5.47,1.1-13.37,4.01-8.61,27.16,1.53,27.16h20.05v30.24c-7.45-1.5-33.74-3.86-37.33,3.76-1.83,3.89-2.16,16.48-.3,20.38,3.71,7.77,29.96,7.46,37.62,6.1v17.75c-11.07,1.97-23.12-3.21-24.35,12.13-1.57,19.45,7.65,19.83,24.35,20.08v435.13l-3.31-1.65c-.11-64.24.2-129.39.05-193.93-.11-47.76,1.45-96.96,0-144.61-1.24-40.55-9.16-98.02-48.72-120.22-5.04-2.83-11.98-4.27-17.41-6.25-.89-1.39,2.98-25.47,3.66-29.13.09-.5,1.16-.45,1.25-.95.54-2.79.44-11.15,1.32-12.91.43-.86,8.22-.48,5.8-8.5l-33.37-29.06c3-2.71,2.23-6.5.73-9.77,15.49-7.26-1.18-23.95-6.7-9-11.03-1.56-6.49-14.7,1.65-17.74,14.81-5.54,33.3,8.32,37.65,22.24,1.34,4.28,3.84,15.84,4.18,19.49.5,5.45-2.75,27.73,4.29,27.98,1.92.1,3.18-1.7,3.88-3.29,4.09-9.28.74-39.86-2.64-49.95-5.77-17.22-25.11-30.46-43.4-28.95-15.4,1.27-24.75,12.45-22.5,27.8,1.01,6.89,8.54,10.41,8.97,12.12.31,1.25-1.36,3.04-1.29,5.11.08,2.3,1.74,2.95,2.02,4.94-7.76,2.8-12.26,10.24-17.73,15.48-6.49,6.21-22.85,13.81-8.68,21.78,2.04,13.2,3.36,27.6,6.73,40.47.15.59,1.22.36,1.29.82.21,1.46-1.73.99-2.36,2.91-1.67,5.14,2.49,8.09,6.95,8.91-2.56,3.16-6.18,5.22-8.88,8.21-31.38,34.91-28.8,79.35-30.52,123.29-.26,6.59-2.22,14.7-1.42,22.35.1.95,2.53,1.76,1.26,4.14-6.31,2.31-13.83,4.13-20.32,1.66l1.03-123.16h14.46c1.4,0,6.99-1.81,8.25-2.92,5.96-5.27,4.01-24.03-5.62-24.03h-17.42l-.66-85.45c19.43-.66,28.5.43,27.65-22.05-.32-8.42-1.98-16.01-11.6-17.33-5.68-.78-11.83,1.59-16.71-.39v-40.75L568.51,3.89h22.02ZM554.24,41.56c-6.23.31-19.81,1.35-20.92,9.32-2.49,17.85,5.36,20.44,21.37,19.39s22.64-4.47,20-21.28c-1.3-8.27-14.02-7.74-20.45-7.42ZM513.24,87.74c-5.51-5.91-28.05-3.89-34.94-.52s-7.59,20.4-.66,23.28c6.21,2.59,32.25,2.36,36.92-3.47,3.23-4.04,2.18-15.54-1.32-19.3ZM542.41,113.86c-4.45.36-13.91.97-15.81,5.88-1.64,4.24-.36,15.6,2.79,19.23,5.34,6.16,24.33,5.11,31.73,3.45,10.7-2.4,12.06-13.65,8.4-22.53-3.21-7.8-19.76-6.61-27.11-6.02ZM467.24,132.42c-.55-.83-1.82-2.52-2.6-2.99-3.58-2.18-22.93-1.75-27.29-.33-8.4,2.73-9.25,15.63-1.77,18.87,4.67,2.03,20.88,1.54,25.99.08,7-1.99,9.74-9.46,5.68-15.64ZM421.96,245.37c2.23,6.01,5.6,5.98,11.74,6.36,10.82.66,21.71-.47,18.49-14.54-1.88-8.2-17.76-9.06-24.18-6.99-5.13,1.66-8,9.09-7.15,13.97.19,1.08,1.01.97,1.09,1.2Z" fill="#fff"/>
  <path d="M330.84,545.51c-3.99,19.68-17.27,40.45-40.1,39.44l1.09,2.52c6.22.85,12.34-.71,17.77-3.71,13.28-7.35,21.47-22.99,23.94-37.52l21.96-1.9c5.32.98,19.81,3.9,23.76.28.83-.76,1.3-2.93,2.01-3.1s11.5,1.81,12.63,2.43l-15.72,129.74c-25.54,2.98-51.85,3.43-77.05-2.18-7.89-1.76-34.17-8.08-33.12-18.89,9.96-28.87,16.47-58.09,21.73-88.06l6.92-25.63c10.83,4.27,22.6,5.92,34.18,6.58ZM352.95,612.97c2.79-6.23,5.42-14.59,6.64-21.31.19-1.05,2.98-18.51-.79-13.28-2.58,17.24-7.62,33.36-16.9,48.21-3.7,5.92-10.97,12.67-14.27,17.91-.56.9-.86,1.81-.73,2.88,1.57.32,2.15-.21,3.32-.94,5.65-3.55,19.77-26.86,22.73-33.47Z" fill="#fff"/>
  <path d="M4.08,323.99c23.44-1.53,47.23-.76,70.35,3.29-11.71,20.26-9.24,42.03,9.09,56.98-3.94,14.3-3.36,29.82,4.47,42.68-3.9,7.65-5.64,16.03-6.67,24.55-7.43,3.9-12.56,7.89-18.34,13.88-4.92,5.1-13.96,14.39-17.17,20.3-2.16,3.97-3.63,8.09-5.07,12.34l-36.66.16v-174.18ZM38.1,345.86c-4.86-2.92-6.87,3.06-6.41,7.05-.57.64-7.71-3.25-9.16-.27-1.98,2.51,3.92,14.9,7.18,9.49l-4.59-7.24c2.18-1.12,7.68,3.36,8.56,2.99,2.29-.98.1-6.59,1.31-8.91,3.87.03,3.04,9.27,3.95,9.85l8.53-5.91-2.62,10.51c7.58-3.19,7.92-20.1-2.98-11.21l-3.77-6.36ZM55.36,398.26c1.36-3.34,1.35-8.13-2.94-8.59-5.56-.16-7.19,9.13-7.9,9.24-7.6-5.61-12.4,1.14-7.46,8.13,2.45,3.46,8.72,4.03,9.03,4.45.6.8-.82,8.99,3.25,4.76.48-1.26-.21-5.13.11-5.47,1.76-1.87,8.32,2.28,13.84-8.71.35-.69,1.23-.45,1.27-.51.15-.19-2.73-3.71-3.09-3.82-1.97-.65-4.12.75-6.11.54ZM38.27,443.62c-.36-3.01-.98-7.52-3.92-8.93-4.22-1.15-7.43,6.95-6.61,10.24-5.63-2.69-11.32-3.09-8.77,5.16.55,1.78,5.4,7.8,6.13,3.73l-3.93-7.57c4.56-.79,5.37,4.97,9.86,3.94-.46-1.65.68-12.44,2.3-12.48l2.96,12.48c1.53,1.55,6.61-6.91,9.2-5.92,1.38,1.51-5.73,11.75-.43,9.09,2.49-1.25,4.03-8.73,2.74-11.07-3.08-3.04-6.37.78-9.53,1.31Z" fill="#fff"/>
  <path d="M75.47,460.45c-11.89,19.25-19.38,58.22,2.31,73.49l24.17,12.31c-2.46,8.42-3.27,12.79,3.35,19.32,8.88,8.77,40.47,23.58,47.19,6.38,3.26-8.36-3.64-10.45-4.46-15.57-.49-3.02,1.29-18.39,2.54-21.14.96-2.09,5.32-3.94,6.47-5.09s7.2-8.99,7.79-8.96c14.14,21.16,37.89,39.14,64.75,34.17-1.39,17.84-19.42,29.16-35.89,31.51-3.65-.28,1.09-9.91-4.94-7.47-1.94,26-7.42,51.98-4.5,78.14-.76,4.71-18.59,2.56-22.34,1.63l-1.36-72.27c-28.49,5.51-56.02-10.06-77.25-27.63l-1.63,1,11.01,10.61-11.07,24.89c2.52,13.46,4.14,26.65,7.8,39.46-7.11,3.82-15.3,1.75-22.82.9-.5-3.25-1.14-7.5-2.1-10.59-3.4-10.86-9.42-24.84-8.3-36.82.61-6.49,4.34-13.39,4.99-19.99,1.44-14.64-5.17-29.24-7.06-43.38-3.05-22.79.7-54.17,21.94-67.28,1.01.63-.24,1.78-.6,2.36Z" fill="#fff"/>
  <path d="M523.47,680.9l-22.36-8.86c-1.87-1.57.1-8.73.07-11.17-1.08-80.51-1.56-161.59.37-242.07,7.5-5.62,18.15-33.8-1.08-23.16-.94-1.17,7.13-13.49,3.99-18.78-.96-1.62-3.65-1.16-4.01-3.22.7-21.88-1.47-44.04,1.34-65.73,1.35-1.84,11-4.97,13.48-4.99,2.79-.03,8.44,1.18,8.91,4.28,1.18,7.93-.65,17.61-.73,25.64-1.13,116,.92,232.07.03,348.07Z" fill="#fff"/>
  <path d="M378.18,311.5c-3.93,1.38-8.11-.54-12.14-.68-5.2-.19-14.19.93-18.72-.34-6.01-1.68-24.29-13.38-30.72-17.27-30.64-18.53-60.56-40.03-89.62-60.91,15.21-12.5,28.6-27.93,43.37-40.76,21.57-18.72,28.98-16.93,50.94-.3,7.21,5.46,14.33,12.35,21.31,18.18-1.74,2.01-3.53,12.7-4.02,13.19-.28.28-5.62,1.89-7.28,2.91-16.26,9.92-15.44,33.23,2.1,41.06-4.08,16.37,9.34,24.93,24.32,21.34,2.52,8.92,12.67,10.16,20.47,9.12v14.46Z" fill="#fff"/>
  <path d="M550.43,690.44c-.45.61-.8.92-1.59.97-1.16.08-20.7-7.94-21.42-8.85v-373.99s.98-1,.98-1c9.59,6.24,16.26,14.29,22.04,23.98v169.25c-2.79-.3-4.29-3.21-7.06-3.79-20.61-4.33-20.28,28.98-1.15,26.81,3.81-.43,5.63-4.69,8.21-2.31v168.93Z" fill="#fff"/>
  <path d="M213.43,264.57c4.79,11.97,3.61,25.2,5.73,37.98,2.05,12.4,6.26,18.18,3.66,32.09-.91,4.85-4.42,10.76-5.01,14.71-.73,4.87,2.17,21.5-.05,24.6-1.55.36-1.07-.29-1.47-.85-4.77-6.62-7.66-16-13.39-22.08-5-5.31-11.8-8.09-18-11.58,24.68-10.63,26.93-40.74,21.54-63.94-9.79-2.3-18.05-7.89-23.15-16.62-1.09-1.86-2.7-8.54-4.64-8.54-2.45,1.22-2.28,4.81-3.74,7.47-6.63,11.98-26.28,18.91-39.26,20.9-.6,3.37-.87,6.92-1.94,10.2-6.18,18.95-18.11,31.98-24.37,48.76-1,2.68-.76,7.42-1.99,9.53-.72,1.23-8.03,7.2-9.67,9.23-5.59,6.9-9.33,15.74-12.7,23.79-1.06.88-1.67-.4-2.33-1-32.06-28.95,5.82-59.35,16.04-86.66,5.34-14.26,5.75-23.44,14.92-36.87,23.85-34.92,83.73-31.4,99.83,8.88Z" fill="#fff"/>
  <path d="M294.25,372.43c1.02,4.13,5.1,9.78,6.39,13.64,2.9,8.69,1.41,15.29,11.78,20.43,2.72,1.35,8.46,2.02,9.08,2.43.4.26.53,1.82,1.14,2.46,3.27,3.43,5.5,5.55,10.22,7.02l-1.8,6.88c-4.83,1.26-10.54,2.94-14.93,5.28-23.35,12.44-28.94,32.96-25.19,57.89.44,2.91,2.32,6.16,2.46,8.77.45,8.11-4.67,17.34-.82,26.39.89,2.08,2.95,2.77,2.82,4.48-.09,1.19-1.29.95-1.36,1.44-.83,6.5-.84,12.26-3.64,18.61.24-6.05.58-10.49-1.35-16.41-.9-2.78-3.87-6.58-4.2-8.29-1.16-5.92-.36-15.84-1.38-22.82-.41-2.81-2.1-9.82-2.91-13.64-.49-2.3-3.56-9.66-3.41-10.84.28-2.1,5.36-2.61,3.41-10.85-.37-1.57-3.54-6.3-3.43-7.55.06-.69,5.8-7.61,6.56-9.04,5.22-9.8,10.99-33.37,3.65-42.78-9.1-11.67-23.96,6.49-28.34,14.23-3.62,6.39-5.2,13.45-8.15,20.1-10.17-1.37-19.97-.87-28.83,4.66l-6.31-16.1c.07-1.43,3.98-2.7,5.09-3.83,8.36-8.51,8.86-22.12,4.93-33.03-1.04-2.88-6.67-11.16-6.6-14.4.04-1.68,2.24-5.22,2.55-7.87,1.15-9.59-3.1-19.5,2.61-28.94,2.53-1.63,33.03,2.94,38.3,3.82,5.97.99,25.64,4.05,29.93,6.22.83.42,1.44.8,1.51,1.83-.91,6.24-1.3,13.7.2,19.82ZM256.55,371.98c.57-11.09-8.68-13-10.53-1.97-3.97-1.96-6.57-4.76-9.91.32-.63,1.61,3.59,11.43,5.31,9.54l-1.31-9.2,6.76,5.14c4.32-.35,1.26-9.46,5.72-10.4v12.48c3.68-.45,5.35-5.07,9.86-4.59.31,4.44-5.31,5.54-4.59,9.85,3.53,3.54,15.65-19.8-1.31-11.17Z" fill="#fff"/>
  <path d="M134.84,339.2c.21.16.88,3.39,2.04,4.85,6.6,8.3,30.55,12.09,37.77,4.22,1.89-2.06,2.34-5.02,4.03-7.1,5.85,1.86,12.97,4.61,17.72,8.44,9.71,7.83,26.76,40.47,27.91,52.94.87,9.44-1.33,20.64-11.76,23.29-3.72-6.9-9.78-11.1-16.43-14.75,5.13-7.83,1.47-16.82-4.01-23.34,3.49-2.52,14.69,5.56,17.68,6.23.71.16,2.42-.05,2.06-1.32-.36-2.82-11.56-6.66-14.22-7.52,1.21-6.83-.67-14-4.56-19.72l-1.63.96c1.77,6.09,4.16,11.49,3.3,18.08-9.82,2.51-22.35-4.67-31.72-1.14-5.07,1.91-3.66,7.01-5.25,8.23-.7.53-13.63,2.97-16.94,4.42-4.4,1.93-8.85,5.56-12.83,8.25-10.13-8.57-2.69-23.84-.35-34.5l-2.59-1.03c-1.35,4.38-2.25,8.85-3.36,13.29-.12.49-1.03.37-1.28,1.5-4.21,19.29,5.31,24.8,19.74,34.84-11.26,5.27-18.51,15.01-21.4,26.55-8.15-1.83-16.47-5.67-22.34-11.73-25.49-26.33-6.41-76.51,23.39-91.05,2.73-1.33,12.78-4.59,15.03-2.89Z" fill="#fff"/>
  <path d="M562.92,3.89l-152.58,114.65c-7.85,4.11-16.22,16.1-25.93,9.58-6.53-4.38-9.21-20.88-4.26-27.27L491.59,3.89h71.33Z" fill="#fff"/>
  <path d="M363.05,446.25v11.17c0,.12,1.85.42,2.23.6,1.56-.39,2-9.99,1.33-11.81,4.33-1.42,9.17-3.51,11.89-7.19.33-.06.83,3.04.84,3.61.17,19.3-8.35,40.77-17.37,57.57-5.81-1.02-11.56-4.49-15.34-8.95-1.37-1.62-5.69-7.69-6.53-9.39-3.22-6.49-3.8-16.47-6.5-21.62-.47-.9-.85-1.75-2.11-1.5.14,12.44,5.97,29.46,15.77,37.8,10.16,8.65,24.19,8.35,36.51,11.48,1.99,3.15-3.35,31.15-6.27,33.86-2.61,2.43-14.78.78-18.56.17-31.1-5.08-56.43-22.69-64.86-53.61-7.49-27.51,9.31-53.86,36.77-59.67,2.53,13.08,20.64,17.75,32.19,17.48Z" fill="#fff"/>
  <path d="M342.02,312.15c-10.16,2.31-23.25,7.53-30.22,15.48-1.97,2.24-3.26,5.6-5,7.49-2.71,2.92-7.88,4.77-9.48,9.25l.03-38.46c.74-12.58-9.95-20.39-20.4-24.98-12.33-5.41-19.02-3.01-29.7,3.87-1.77,1.14-10.37,7.57-11.12,8.78-3.48,5.63-.75,36.13-.63,44.22l-9.2-.66c.97-7.77,1.52-16.6-.41-24.26-.33-1.29-1.38-1.45-1.49-1.91-7.16-32.67.34-61.33-37.1-77.14-32.57-13.75-70.65-.36-83.66,33l-14.09-1.32-1.23-24.55c21.48-13.42,49.81-37.92,76.5-36.57,27.47,1.39,81.21,46.5,105.89,63.06,11.07,7.43,22.47,15.04,33.74,22.14,12.36,7.79,25.5,14.33,37.57,22.58Z" fill="#fff"/>
  <path d="M409.3,229.15c0,.12,1.12.1,1.14,1.14.51,19.43-.45,38.95-.09,58.38-.35,1.71-10.78,6.52-13.11,6.4-.78-.86.22-20.81.68-23.19.06-.29,1.62-3.94,2.09-5.26,1.72-4.87,13.46-20.66,1-18.06-3.71.78-5.07,4.27-7.7,6.41-.07-2.54-4.98-26.66-9.7-16.58-2.22,4.75-.29,18-2.15,23.82-4.8-4.14-18.5-18.92-18.21-4.12l13.15,18.07,1.78,18.25c-9.01.57-15.85-1.97-19.5-10.45-16.39,5.14-26.17-3.71-22.01-20.35-22.59-7.02-15.62-35.43,5.42-39.13,1.02-11.3,6.45-21.33,17.7-25.03,2.9-.95,7.75-.82,9.8-2.03,1.18-.69,2.5-3.38,4.42-4.78,9.37-6.83,25.28-7.03,34.74-.12.61,12.2.19,24.42.54,36.63Z" fill="#fff"/>
  <path d="M213.41,440.08c5.89,10.55,5.5,17.02,9.28,27.19,2.12,5.7,12.62,15.48,17.74,8.56.92-1.24.63-4.5,1.96-3.94,5.46,5.87,17.86,10.16,21.05,0,1.57,3.26,9.12,3.98,10.54,5.23,4.76,4.19,6.82,37.42,7.54,44.71-15.21-5.12-33.39-2.78-45.62,7.97l-7.96,14.38c-7.11-6.03-14.07-12.77-18.41-21.04l-3.98-12.46-1.66.37c-.93,13.3,9.2,23.63,17.79,32.46-11.44.21-23.93-5.91-32.22-13.46-4.15-3.78-6.89-9.04-11.17-12.18,1.77-2.02,4.47-3.18,6.2-5.28s4.57-10.09,5.06-10.39c1.86-1.11,5.07,1.35,9.01-3.15,6.2-7.08,6.83-18.22,8.01-27.17.64-.39,3.99,1.81,3.95-1-.02-1.34-13.02-8.3-15.45-10.2-11.82-9.21-28.56-37.55-8.95-46.98,12.21,4.6,21.05,15.23,27.27,26.38ZM202.4,438.59c-1.34-1.91-10.76-14.8-12.91-12.71l.43,2.46c4.45,5.43,9.45,11.14,13.25,17.02,1.67,2.59,7.87,15.68,8.6,16.25,2.74,2.12,4.07.17,2.64-2.99-2.83-6.29-8-14.31-12.02-20.02ZM275.43,500.32c-11.12-3.77-5.32,16.39.19,9.36,2.21-2.82,1.59-6.5-.19-9.36ZM235.27,502.29c-5.11.54-5.76,12.78.57,12.39,6.66-.41,6.04-13.08-.57-12.39Z" fill="#fff"/>
  <path d="M143.76,461.08c2.99,5.52,4.47,20.92,6.61,28.55,1.72,6.12,3.56,12.12,6.77,17.56-.24,1.93-10.35,7.57-8.42,9.39,2.6,1.23,9.29-6.72,10.51-5.91l3.66,8.52c-13.08,14.98-31.06,27.5-51.99,25.68-4.19-.36-17.38-3.88-19.03-7.92-1.53-3.78,4.39-23.69,5.39-29.41,1.33-7.6,1.85-9.46-.11-17.28-5.49-21.91-18.31-24.6-9.65-51.11.26-.78,2.03-9.5,3.35-8.31,4.76,7.99,16.82,15.78,26.06,16.66,2.84.27,5.63-.74,7.65-.46,5.19.7,16.63,9.31,19.2,14.06Z" fill="#fff"/>
  <path d="M407.71,402.93c-6.66,34.18-59.21,33.52-74.13,6.72-5.82-10.46-4.71-18.43-7.8-28.36-3.65-11.71-19.08-9.8-22.57.54-1.82,1.21-4.22-6.5-4.54-7.61-3.68-12.46-2.88-24.15,6.2-33.8,14.44-15.36,25.08-25.27,48.09-26.82,8.31-.56,18.84,2.3,26.23,1.21,2.27-.33,3.52-1.75,6.52-2.02,5.66-.5,9.8,1.53,13.76,5.36,19.32,18.7-6.07,30.81-22.16,19.79-3.47.87-5.05,4.01-8.35,5.43-7.77,3.34-17.44,2.03-24.58-2.24-3.49,2.47.05,8.85-3.42,11.06-4.12,2.62-9.49-2.97-11.16-.62-1.1,1.55,2.67,8.62,2.99,11.55,1.79,15.94-4.54,28.31,11.63,39.64,8.45,5.93,12.53,5.47,21.2.39,10.55-6.18,13.03-9.56,27.12-7.79,6.69.84,9.51,4.61,14.96,7.58ZM391.19,405.63c-1.57,0-4.06,1.11-6.11,1.22-1.82.1-8.66-1.82-8.22.94s11.84,1.98,14.09,1.61c4.08-.67,3.61-3.77.24-3.77Z" fill="#fff"/>
  <path d="M479.84,453.24c-19.53,22.68-50.68,31.35-79.83,25.74-1.38-2.69-.32-6.03-.82-8.6-.09-.47-1.16-.44-1.26-.94-.17-.9-1.2-16.93-4.63-13.33,1.41,15.14,5.01,30.36,3.36,45.62-3.17-.32-9.38,3.45-11.59,3.39-1.09-.03-2.68-1.39-4.1-1.54-5.37-.57-10.71-.57-15.95-2.13,1.63-3.63,3.8-7.07,5.37-10.73,8.05-18.73,14.29-37.23,10.41-58.28,18.31,5.05,35.25,13.61,54.37,6.05,11.83-4.68,18.66-15.78,28.02-23.69,8.41,3.07,24.79,14.83,24.64,24.55-.06,3.79-5.43,10.91-7.99,13.88Z" fill="#fff"/>
  <path d="M497.83,670.39l-21.07-8.98c.27-63.73-.28-127.47.06-191.2.01-1.88-.77-3.57-.74-5.22.13-6.03,4.26-7.14,7.55-11.57,3.06-4.12,8.81-11.44,7.59-16.55-.12-.52-3.77-5.05-3.26-7.05,4.1-.57,6.66-4.34,9.86-6.58v247.14Z" fill="#fff"/>
  <path d="M203.85,277.42c3.33,17.03,3.26,36.93-8.47,50.83-17.35,20.56-60.76,11.8-69.4-13.47,5.67-10.53,10.71-21.45,12.27-33.46,14.69-2.84,33.25-9.25,40.06-23.72,1.51-1.01,3.51,4.74,4.32,5.85,5.17,7.03,12.37,12.63,21.21,13.96ZM159.24,286.52c-1.19-6.36-15.36-1.71-13.14,4.6,4.82-2.5,6.73-5.97,13.14-4.6ZM202.48,287.33c-.71-1.22-9.95-6.43-11.02-3.09-.87,2.71,3.05,2.09,4.41,2.81s9.88,5.89,6.61.29ZM146.1,300.33c-1.22,11.14,17.73,6.47,16.43.34-.75-3.57-4.18,1.62-4.63,1.93-7.17,4.88-10.1-4.17-11.8-2.27ZM186.86,300.33c-.76,7.76,14.68,7.3,14.26.98-.28-4.22-4.12,1.2-4.39,1.32-3.65,1.7-6.36-2.29-9.88-2.3ZM171.73,317.42c7.15,1.28,14.9-4.31,9.22-11.51-.92-1.16-7.37-7.13-7.9-4.58l7.21,9.18c-1.57,3.18-5.38,3.76-8.44,4.36l-.09,2.55ZM161.54,321.38l-1,1.62c0,5.16,17.45,6.94,20.38,2.6,1.25-3.69-8.5-.71-11.41-1.04s-5.54-1.66-7.97-3.19Z" fill="#fff"/>
  <path d="M26.76,320.71l.33-76.91h57.86s1.47,24.17,1.47,24.17l16.26,2.45c-2.01,3.15-2.77,6.85-3.99,10.32-2,5.69-4.12,12.73-6.61,18.51-1.54,3.6-12.03,20.86-14.38,23.09-3.79,3.6-10.27-.46-15.11-.32v-13.47c0-9.01-12.58-17.36-20.02-7.53-.98,1.3-3.65,7.39-3.65,8.84v9.86l-.99.99h-11.18ZM47.8,278.64h17.09c3.79,0,2.12-18.34-.38-21.31-11.62-13.79-25.15,11.52-16.71,21.31Z" fill="#fff"/>
  <path d="M409.33,374.38c.03.16.91.28,1,.75,1.65,8.46,2.03,17.08-2.89,24.44l-11.88-7.21c2.36-3.97-7.51-22.61-11.46-19.06.72,3.75,11.6,14.1,7.9,18.09-5.54,2.02-11.15.16-17.1,1.96-11.14,3.37-14.83,16.85-28.59,6.87-17.78-12.89-6.18-28.16-12.84-45.33,8.73,2.18,12.82.36,11.83-9.2,7.51,3.02,15.98,3.82,23.65.97,1.95-.72,7.68-4.74,8.35-4.81.45-.04,5.62,2.84,8.44,3.16,4.65.53,9.9-.08,14.41-1.21,4.63,9.68,7.03,20.13,9.17,30.57ZM391.33,357.52h11.18l-.38-2.04c-1.35-1.07-12-2.24-10.79,2.04ZM365.03,362.11c.84-8.63-14.64,1.78-13.8,4.24.94,2.76,7.27-2.89,9.38-3.73,1.5-.6,2.85-.6,4.43-.51ZM397.68,368.81c-3.47,1.25-1.87,11.74,3.68,10.3,5.22-1.35,3.9-13.03-3.68-10.3ZM360.6,373.47c-2.8,2.37-2.64,12.89,4.46,10.71s1.16-15.46-4.46-10.71Z" fill="#fff"/>
  <path d="M559.85,373.1c4.81,35.84,2.88,74.3,3.03,110.91.3,70.89-.14,141.79.03,212.67-2.84-2.02-9.28-1.45-9.89-5.55v-171.51c8.46-3.28,6.02-12.07-.01-16.5l.71-159.74,2.43,6.78c1.86,7.56,2.68,15.24,3.71,22.94Z" fill="#fff"/>
  <path d="M293.36,347.66l-54.56-9.2c.3-12.47-2.48-28.95.05-41.04,1.22-5.84,19.55-16.64,25.28-16.83,7.06-.24,25.67,9.56,28.24,16.47,2.58,6.94.94,21.28.96,29.27.02,7.1,1.4,14.29.03,21.33ZM262.95,298.52c-10.5,1.92-8.33,17.85-8.25,25.67.98,3.04,16.52,3.13,19.13,2.3,4.1-1.3,2.94-18.87,1.64-22.41-1.82-4.97-7.86-6.41-12.52-5.56Z" fill="#fff"/>
  <path d="M434.72,665.8c1.12-1.88,24.51-5.96,27.91-5.97,7.35-.03,18.34,6.98,25.54,10.03,24.51,10.37,49.08,20.65,74.07,29.8.8.41.86,1.14.63,1.9-.48,1.56-24.78,11.36-28.37,10.77-22.63-9.65-45.33-19.28-67.57-29.78-6.92-3.27-25.75-11.07-30.7-14.66-.8-.58-1.82-.71-1.51-2.09Z" fill="#fff"/>
  <path d="M432.09,483.06v167.61l-13.67-6.38-4.74-67.24c13.33,1.26,16.83-4.71,13.5-17.11-2.08-7.73-8.37-7.98-15.47-8.53,1.29-2.55-.94-6.17-.68-8.23.23-1.85,2.64-1.59,3.64-2.94,1.15-1.55.63-3.47,1.32-4.6,1.15-1.88,7.55-3.09,6.21-8.1-.16-.59-1.89-.35-1.31-2.07.24-.7,2.73-1.02,2.7-5.29-.02-3.44-.19-4.96-.07-8.63.24-7.34-7.35-8.1-7.88-9.93-.46-1.58.91-5.34.5-8.22-.66-4.66-4.68-4.91-3.77-9.71l19.73-.65Z" fill="#fff"/>
  <path d="M157.13,395.1c2.66,4-1.68,6.61,3.61,9.9.86.53,2.4.22,2.95.65.35.27.83,3.31,2.8,4.1,2.94,1.17,15.84-.48,17.07,1.01-3.68,3.46-6.59,4.57-8.4,9.67-4.18,11.77,2.59,25.02,9.44,34.31,3.17,4.3,6.6,6.54,10.16,10.24-9.69,10.38-20.45,20.28-25.67,33.85-2.64-2.2-3.83-7.12-4.92-10.52-1.68-5.23-8.43-31.27-6.57-34.82.36-.7,2.29-1.21,2.98-2.27.81-1.24.65-3,1.25-3.84,2.58-3.64,5.38-1.81,3.91-9.25-1.76-8.92-8.8-15.55-17.14-18.37-1.58-.53-4.52-.21-5.05-.55-.21-.14-.19-1.6-.73-2.19-3.57-3.9-8.56-6.95-13.17-9.55l.41-1.36c8.12-5.46,16.94-10.73,27.06-10.99Z" fill="#fff"/>
  <path d="M407.73,541.59c.06,1.83.12,3.7.02,5.54-1.19,22.64-7.11,47.68-9.9,69.64-3.76,29.6-5.74,60.34-11.72,88.96-.66,3.17-1.21,13.57-4,14.94-3.66,1.79-7.79-4.48-7.29-7.25,5.03-27.57,7.72-56.28,11.26-84.63.06-.51,1.18-.23,1.33-1.43,3.54-28.4,6.12-56.93,9.27-85.37,3.35-3.26,7.29-.76,11.04-.4Z" fill="#fff"/>
  <path d="M465.61,470.57c-.54,20.39-1.11,41.04-1.27,61.44-.31,40.36.22,81.08-.03,121.62-.05,5.44-6.17,3.08-9.87,4.26l.8-181.68,10.37-5.65Z" fill="#fff"/>
  <path d="M224.58,575.47c3.57,5.08,11.04,24.14,11.57,30.19,1.41,16.09-8.84,30.29-16.08,43.7-8.59,2.68-13.27-5.71-16.61-12.17,6.04-6.44,7.86-14.02,9.71-22.22.16-.7,1.71-.04,1.31-1.44-.17-.59-1.2-.13-1.32-.77-.64-3.17-.35-5.25-1.65-8.75-2.03-5.48-5.88-11.01-8.21-16.43,8.12-2.27,15.83-6.78,20.71-13.81.59-.11.16,1.12.57,1.7Z" fill="#fff"/>
  <path d="M433.41,670.39l99.55,44.75c2.47,2,.41,11.88.08,15.1-.68,1.13-9.4-2.41-10.86-3-28.64-11.58-56.92-28.74-85.04-41.84-4.57-2.99-3.41-10.22-3.72-15.01Z" fill="#fff"/>
  <path d="M537.02,287.58c-3.74,4.82-7.41,9.49-10.72,14.64-16.72-6.75-36.92-5.65-49.84,7.97-3.77-6.41-8.74-11.77-14.08-16.85-.21-1.5,11.7-13.26,13.74-13.79,3.28-.86,4.74,3.43,6.92,5,5.85,4.23,16.6,4.3,22.63.29,2.75-1.83,4.4-6.53,4.76-6.74,2.57-1.5,13.34,2.45,11.73-7.34.77-.96,18.35,6.54,19.77,8.84.36.58.93.9.32,1.66-1.97,1.91-3.56,4.17-5.23,6.33Z" fill="#fff"/>
  <path d="M52.49,490.72c-6.03,24.28,1.63,44.58-3.9,69.37-1.75,7.86-4.84,19.02-13.87,20.87-3.87-4.55.83-9.59.91-14.43-3.97-.94-3.33,3.25-5.3,4.88s-9.77,4.55-11.84,1.41c-4.15-6.23,8.05-15.03,11.22-19.3,9.92-13.32,8.56-32.39,12.14-47.49,2.37-9.97,5.49-21.04,13.83-27.57-1.34,4.02-2.19,8.14-3.21,12.25Z" fill="#fff"/>
  <path d="M272.09,456.34c2.7,3.26,9.28,14.44,3.33,17.06-8.07.75-12.53-6.8-17.9-11.36-3.55,0,5.37,10.27-.52,12.65-2.39.97-7.88-1.5-10.02-2.79-3.65-2.21-5.62-6.58-7.84-7.94-6.37-3.91,1.04,6.41-.47,8.76-3.86,4.54-8.94.51-11.2-3.66-1.74-3.21-6.25-16.62-5.8-19.81.51-3.61,15.35-6.78,18.76-6.92,11.15-.44,24.5,5.4,31.64,14.02Z" fill="#fff"/>
  <path d="M493.89,374.61l-9.2,20.37c3.79.34,3.68-4.12,5.06-6.4,1.63-2.68,6.92-12.06,10.24-11.25.77.3,1.44.91,1.67,1.71,1.01,3.44-6.38,20.68-7.09,25.43,2.73,3.28,4.62-3.33,6.55-5.2,1.2-1.16,5.48-4.39,6.92-2.35,4.07,5.75-14.36,29.32-21.74,30.27-6.86-5.02-12.54-12.93-21.36-14.47l.02-.93c2.67-6.13,11.11-33.19,16.34-34.94,1.19-.4,2.11-.89,2.06.72-.09,2.95-7.49,12.05-6.54,15.03.24.75.73.93,1.49.98,3.32.19,6.82-22.05,15.55-18.96Z" fill="#fff"/>
  <path d="M409.3,568.32c3.84,23.43,5.74,54.85,6.38,79.37.08,3.11.53,14.08-.88,15.94l-20.18,6.76,13.81-109.11c1.28,1.76.49,4.72.87,7.04Z" fill="#fff"/>
  <path d="M132.29,588.89c-5.06,14.38,5.06,26.9,6.49,40.95-1.18,3.49-16.53,3.32-19.88,2.99-1.27-.47-7.38-20.15-8.37-23.04-.19-.55-1.2-.67-1.44-1.36-3.5-9.97-2.66-17.32-.47-27.44l23.67,7.9Z" fill="#fff"/>
  <path d="M497.83,374.61c-2.42-.26-1.94-2.96-4.9-3.18-3.59-.27-6.07,2.71-7.24,2.91-2.41.4-6.01-1.32-8.9,1.59,1.92-13.22-4.38-30.51,3.47-41.58,3.58-9.3,9.33-17.75,17.56-23.49v63.76Z" fill="#fff"/>
  <path d="M506.38,302.29c-.25.29-5.42,2.05-7.05,3.14-21.12,14.14-29.69,42.25-32.37,65.69-1.66,14.56,2.99,36.41-11.2,45.54.25-2.18-.34-4.86-.05-6.94,4.1-29.71,1-82.71,29.04-102.44,6.79-4.78,13.66-5.37,21.63-6.3-.03.4.11,1.18,0,1.3Z" fill="#fff"/>
  <path d="M474.16,464l-.99,195.22-6.2-2.01c.34-4.47-.57-9.79-.09-14.14.15-1.37,1.92-.73,1.38-2.6-3.36-1.15,1.01-.48-.06-2.27-.14-.24-2.95.13.09-2.94,1.71-51.46-2.45-104.57-.07-155.84.27-5.91-.65-13.58,5.93-15.42Z" fill="#fff"/>
  <polygon points="565.55 533.67 583.88 535.06 584.65 587.28 583.58 590.11 565.55 585.93 565.55 533.67" fill="#fff"/>
  <path d="M559.87,298.79c1.98,2.85,4.02,5.23,5.79,8.33,2.44,4.25,4.2,8.94,6.48,13.25l-19.3,8.82c-6.21-9.67-13.26-18.98-23.49-24.64l15.56-21.94c6.99,3.73,10.61,9.93,14.96,16.18Z" fill="#fff"/>
  <polygon points="4.08 320.71 4.08 270.09 21.49 269.41 23.15 270.42 23.15 319.72 22.16 320.71 4.08 320.71" fill="#fff"/>
  <path d="M405.13,511.98c-2.85,2.67,9.15,3.17,10.57,3.57,3.53.99,6.15,3.32,3.46,6.99l-14.67-1.36c-.09,1.15-.21,2.04,1.09,2.52,3.18,1.18,15.44-.84,12.6,6.89-2.57,3.64-4.92.25-7.76-.56s-8.05-2.48-6.51,1.58c2.71.58,11.49,1.98,8.17,6.7-1.31,1.86-9.65-.91-12.52-.71-5.58.39-10.99,3.79-17.43.66.63-2.24,1.68-4.4,2.2-6.67,1.87-8.16,3.96-15.71,3.12-24.15,1.34-2.1,37.64-8.55,31.53,5.58l-13.84-1.04Z" fill="#fff"/>
  <polygon points="584.62 593.49 584.62 643.44 565.55 638.51 565.55 589.54 584.62 593.49" fill="#fff"/>
  <path d="M566.54,422.59l-2.96-48.63c.59-.7,16.53-3.45,18.08-3.32,1.37.12.82-.19,1,.99.38,2.55-.3,5.75.02,8.43.06.48,1.25.28,1.34,1.41.99,13.18-.71,27.8-.05,41.12h-17.42Z" fill="#fff"/>
  <path d="M584.62,425.87c.24.69-.66,1.42-.66,1.64v50.94l-18.41-.65v-51.93h19.07Z" fill="#fff"/>
  <path d="M283.26,442.07l-7.02,12.7c-1.3.79-8.22-6.66-9.6-8.18,1.63-4.65,2.59-9.71,4.43-14.28.21-.53,1.15-.69,1.44-1.37.51-1.21,5.94-11.91,4.09-12.31-8.06,6-9.51,17.08-12.78,26.02l-9.29-3.4c1.18-9.97,13.79-35.04,24.79-35.72,13.17-.82,7.62,29.42,3.95,36.54Z" fill="#fff"/>
  <path d="M155.53,468.39c4.89,18.85,10.53,38.1,22.78,54.25,12.34,16.26,29.24,24.93,49.92,24.88l-.04,5.14c-14.03,2.22-28.48-2.84-39.86-10.93-25.49-18.12-36.8-52.49-41.56-82.04.22-2.46,4.83-2.71,6.6-1.97.93.67,1.69,8.85,2.16,10.68Z" fill="#fff"/>
  <path d="M583.96,481.75v49.95l-18.41-1.31c.27-16.43.93-32.85.66-49.3l17.75.66Z" fill="#fff"/>
  <path d="M514.27,223.43l-6.88,42.77-6.26-.05c1.16-2.9.1-6.8.67-9.38.07-.33,2.94-3.44,3.48-5.85.5-2.24.62-3.66.28-5.97-.46-3.16-9.26-16.66-11.98-16.32-1.72.22-7.92,9.19-8.77,11.02-5.1,10.95,2.28,15.68,1.86,26.51l-7.75-.81-5.4-41.91h40.76Z" fill="#fff"/>
  <path d="M590.54,245.77h-21.37c-2.84,0-12.4-2.41-13.64-5.42-1.03-2.51-.97-15.95.79-17.94,2.9-3.28,29.08-3.07,34.22-.63v23.99Z" fill="#fff"/>
  <path d="M523.47,212.91l-60.49-.33c5.25-4.69,9.97-10.41,15.12-15.12,5.64-5.15,11.95-11.37,20.22-8.37,3.73,1.35,20.46,17.95,24.15,21.87.6.64,1.27.82,1,1.95Z" fill="#fff"/>
  <path d="M387.38,241.17c.35,2.59,3.5,18.7,4.57,19.44.86.59,1.69.33,2.39-.32,1.1-1.17,1.42-2.88,2.55-4.02.59-.6,7.41-6.77,6.93-3.59-13.19,15.78-9.79,37.88-9.24,57.13-.49,1.87-5.66-.17-7.45-.18-1.1,0-5.46,1.45-5.65,1.23-.29-10.96.79-22.77-1.65-33.52-2.31-10.2-10.37-12.79-13.48-22.34,1.47-1.17,12.11,8.83,13.5,10.48,1.08,1.28,1.35,5.01,3.26,3.97,2.08-1.14,2.01-21.12,2.39-24.56.13-1.13.19-4.33,1.88-3.7Z" fill="#fff"/>
  <path d="M581.89,367.28l-18.67,2.75c-1.56-12.31-4.72-23.56-8.73-35.37-.28-.98-.22-1.7.52-2.47,1.67-1.73,14.83-5.48,17.57-8.77,1.54-.03,4.01,9.75,4.5,11.73.95,3.8,5.75,30.66,4.82,32.14Z" fill="#fff"/>
  <path d="M454.37,381.24l-2.04,39.57c-4.53,5.54-9.79,10.39-16.29,13.61l1.23-56.14,17.1,2.97Z" fill="#fff"/>
  <path d="M584.62,691.75c-.48.59-.67.89-1.51.89-3.09,0-12.52-5.53-16.83-5.23-.4-12.78.26-25.62-.05-38.4-.04-1.46-1.92-6.82.28-6.86,3.7-.07,13.9,4.57,18.11,5.57v44.04Z" fill="#fff"/>
  <polygon points="461.68 338.46 454.81 377.27 437.44 374.51 443.27 331.22 461.68 338.46" fill="#fff"/>
  <path d="M429.13,165.58c9.05,1.34,8.81,13.65,8.25,20.74-1.22,15.5-12.41,10.72-24.36,12.13l.33-32.87c4.9.51,11.07-.7,15.78,0Z" fill="#fff"/>
  <path d="M30.05,240.52c-.25.01-.94.9-1.64.65-.79-.97,3.66-7.72,4.61-8.85,13.64-16.19,44.25-12.43,51.26,8.2-18.03.57-36.23-.76-54.24,0Z" fill="#fff"/>
  <path d="M156.4,427.4c2.27,2.08,10.34,15.87,5.14,16.87-.82-3.53-9.98-13.34-13.13-13.17-1.4.07-1.2.37-.99,1.65.44,2.69,17.67,12.9,10.51,17.15-2,1.19-6.16-7.63-9.26-9.84-2.92-2.09-8.21-2.98-5.18.58,2.18,2.55,16.14,10.69,6.57,14.15-.61-4.34-6.39-12.81-11.17-10.19-.18,1.94,13.47,9.08,5.6,11.53-3.33-2.12-5.71-5.27-9.08-7.41-6.81-4.34-14.78-3.09-9.8-13.42,5.8-12.04,20.06-17.72,30.8-7.89Z" fill="#fff"/>
  <polygon points="451.81 520.53 451.81 567.19 436.03 563.58 436.03 519.21 451.81 520.53" fill="#fff"/>
  <path d="M202.38,481.52c-.03.16-.89.27-1,.75-1.06,4.4-2.09,14.56-7.27,16.27s-.16-4.04-5.32-3.38c-.39,3.55-7.47,21.91-12.82,18.21-.84-.58-5.52-9.66-5.48-10.93.16-5.22,14.2-22.71,18.3-26.97,2.82-2.93,6.48-5.44,9.19-8.56l5.8,3.41c-.53,3.79-.63,7.43-1.41,11.2Z" fill="#fff"/>
  <path d="M87.52,534.93c-9.46-1.41-15.93-10.69-18.36-19.32-5.78-20.54,2.35-41.74,11.85-59.49l2.66,12.8c-6.51,16.15-14.52,48.16,6.42,56.6l-2.58,9.41Z" fill="#fff"/>
  <polygon points="436.03 567.19 452.05 570.44 452.51 571.43 451.81 613.2 436.03 609.92 436.03 567.19" fill="#fff"/>
  <path d="M536.22,160.73c9.36,15.6,8.48,37.95,6.31,55.46-1.31.21-1.71-.53-1.96-1.65-1.09-4.95.37-15.16-.02-21.01-.86-12.82-4.09-28.5-13.79-37.49-8.94-8.29-24.65-15.1-35.97-7.68-11.98,7.85-5.31,26.01,3.55,22.66,3.9-1.48,1.95-10.22,9.31-4.33,2.16,6.52-15.34,13.11-20.97,2.53-4.64-8.71-2.16-20.65,6.82-25.44,16.97-9.06,37.72,1.95,46.72,16.95Z" fill="#fff"/>
  <path d="M467.97,323.06c-1.96,3.81-4.83,8.07-4.98,12.77l-19.06-7.9,15.79-31.54c1.46-.88,13.46,13.18,14.19,15.77.26,1.69-4.87,8.81-5.94,10.89Z" fill="#fff"/>
  <polygon points="436.03 612.55 451.71 616.59 451.15 657.9 436.03 652.64 436.03 612.55" fill="#fff"/>
  <polygon points="583.96 730.2 565.89 720.99 566.21 690.76 584.53 697.1 583.96 730.2" fill="#fff"/>
  <path d="M436.03,481.75l16.43-4.6c.15,13.39,0,26.76-.65,40.1l-15.78-1.32v-34.18Z" fill="#fff"/>
  <path d="M590.54,162.96v21.69h-20.05c-8.89,0-8.64-21.69.66-21.69h19.4Z" fill="#fff"/>
  <path d="M176.01,390.38c.83-.28,1.48-1.63.35-2.32-5-1.29-9.55-1.19-14.48.34-.56-1.58,2.72-2.45,3.66-2.58,14.99-2.18,35.28,4.77,28.49,23.55l-.91.13c-4.46-.23-8.76-2.29-13.18-2.67-2.8-.25-11.39.9-12.81-.35-4.04-3.57,9.32-4.85,10.14-5.51l.39-2.03c-3.63-3.04-18.08,7.1-16.33.47.88-4.22,13.9-2.78,14.35-4.76l-1.33-1.96-14.44,2.3c-.87-2.5,4.01-4.6,5.58-4.6,2.17,0,9.17.45,10.52,0Z" fill="#fff"/>
  <path d="M377.52,432.45c-2.87,16.33-29.02,11.18-38.74,3.57-7.87-6.15-3.31-9.65-3.33-18.03,7.03,6.67,20.63,14.46,30.56,14.46h11.51Z" fill="#fff"/>
  <path d="M590.54,269.44v25.63c-5.3-1.03-12.27.35-17.02-1.73-5.98-2.62-5.64-16.65-2.51-21.74,6.08-2.54,13.05-1.22,19.53-2.16Z" fill="#fff"/>
  <path d="M140.18,554.7c-9.37.28-18.91,6.55-22.36,15.13-8.72-5.12-21.13-11.77-11.44-22.89,2.84.21,6.39,1.31,9.14,1.25,3.67-.08,16.7-3.25,18.46-2.07.44.3,6.58,8.22,6.2,8.58Z" fill="#fff"/>
  <path d="M326.83,404.11c-8.12,3.53-14.68.47-19.3-6.54-4.24-6.43-4.36-15.13,2.71-19.57,14.9-9.37,13.93,18.39,16.59,26.11Z" fill="#fff"/>
  <path d="M413.02,290.47c9.22-.16,23.06-4.05,23.7,8.84.34,6.94-.16,10.69-7.6,11.52-1.94.22-16.1,1.16-16.1-.97v-19.39Z" fill="#fff"/>
  <path d="M314.36,677l.04,5.22c-11.9-2.17-26.18-2.31-35.83,5.88l-10.08-14,6.75-7.67c12.25,5.68,25.78,8.38,39.11,10.56Z" fill="#fff"/>
  <path d="M328.49,702.33c2.19,3.98-1.03,3.8-4.88,5.52.04-2.66-.92-6.44-4.26-6.57-2.38.44,2.44,5.58,1.36,7.25l-5.94,1.31c-.41-3.11-.38-5.96-3.32-7.89l-.33,8.53-5.84-.73c.35-8.66-4.93-11.66-3.68-.6-5.44-1.67-10.24-4.76-14.13-8.86,6.61-4.43,17.49-5.97,25.32-5.61,7.1.33,12.14,1.14,15.71,7.65Z" fill="#fff"/>
  <path d="M119.79,571.79c-.83-1.04,5.61-7.44,6.93-8.51,5.94-4.86,16.6-9.01,21.64-.65,4.41,7.32-.73,13.91-8.62,14.39-6.83.41-13.67-3.24-19.95-5.23Z" fill="#fff"/>
  <path d="M562.92,720.67c-.71,2.27-21.81,10.2-24.7,10.16-1.62-.02-1.01-4.75-.97-6.24s.77-9.3,1.34-9.84l24.33-8.86v14.79Z" fill="#fff"/>
  <path d="M86.54,474.88c6.24,6.37,1.54,11.21,1.05,19.04-.35,5.7-.28,10.65,2.71,15.66.8,1.34,2.88,1.98,3.08,2.79.16.64-2.32,9.38-2.92,9.52-17.22-6.65-9.88-35.2-5.51-48.69.38-.33,1.2,1.28,1.59,1.68Z" fill="#fff"/>
  <path d="M459.37,220.14c-2.32-1.83-1.36-4.44,1.32-5.26l69.06,1.27.36,2.34c.26.83-1.33,1.64-1.71,1.64h-69.03Z" fill="#fff"/>
  <path d="M90.21,638.84c1.07,9.57,6.39,17.98-8.19,17.09-10.78-.65-13.9-6.25-14.15-16.43,7.73,1.28,14.8,1.67,22.35-.66Z" fill="#fff"/>
  <path d="M59.96,322.02l-17.01-1.39c-.75-5.94-1.22-19.88,6.89-20.92,11.05-1.42,9.45,15.51,10.12,22.31Z" fill="#fff"/>
  <path d="M548.09,505.79c6.49,11.96-11.96,22.28-16.39,8.81s9.53-21.45,16.39-8.81Z" fill="#fff"/>
  <path d="M162.53,662.5c7.34,1.78,14.33,1.48,21.69,0,.28,3.47,1.64,9.84.18,12.99-2.5,5.4-21.87,2.31-21.87-2.8v-10.19Z" fill="#fff"/>
  <path d="M300.27,692.08c-4.44.57-10.41,3.75-14.38,5.87l-6.28-7.52c11.19-7.17,33.11-10.94,41.37,1.99-.49,1.07-1.53-.33-1.64-.33-5.69,0-13.73-.69-19.07,0Z" fill="#fff"/>
  <path d="M271.27,684.6c13.6,18.43,24.09,34.52,50.89,27.39,1.26-.34,8.57-5.01,7.37-1.19-.31.98-6.09,4.52-7.46,5.05-24.72,9.73-49.29-14.77-55.02-36.59,2.05.53,2.91,3.58,4.21,5.34Z" fill="#fff"/>
  <path d="M410.39,293.76v28.26c0,.07-1.06-.28-1.32.44-.34.89.7,2.93-.64,2.85-3.35-4.78-6.34-10.12-11.24-13.43l.34-13.56,12.86-4.56Z" fill="#fff"/>
  <path d="M432.08,703.25c-3.5-3.58-9.07-7.68-13.78-3.61,2.42,2.65,7.27.83,9.64,3.81s-.82,5.15-3.73,5.06c1.47-4.05-8.57-8.18-7.89-4.28.19,1.09,5.06,2.75,4.6,4.94h-19.07c-.96-6.75,10.62-15.82,16.26-16.28,4.06-.33,14.63,4.97,13.98,10.37Z" fill="#fff"/>
  <path d="M344.64,541.57c-.18,1.28-2.65,1.28-3.58,1.33-9.47.5-26.73-1.51-35.88-4.28-5.29-1.6-8.92-2.34-7.21-8.89,7.28,1.79,14.53,3.2,22.02,3.94,8.93.88,8.8,2.32,16.78,5.58,2.52,1.03,5.31,1.42,7.88,2.32Z" fill="#fff"/>
  <path d="M201.6,641.17c2.6,2.45,3.8,5.81,6.64,8.16s5.49,2.87,8.84,4.29c-6.31,4.59-8.28,14.4-17.12,6.61-6.27-5.52-7.77-16.02.37-20.73.55.45.75,1.18,1.26,1.67Z" fill="#fff"/>
  <path d="M129.33,636.21c3.64-.42,7.55-1.63,10.84-3.29.99,2.58,3.48,13.07,1.82,14.95-3.05,1.66-6.65,1.72-10.06,1.51-10.39-.63-8.64-5.34-12.13-13.17,3.05-.25,6.55.35,9.53,0Z" fill="#fff"/>
  <path d="M470.14,223.51l5.99,42.64-5.22-.03c-2.07-14.3-7-28.11-7.27-42.69l6.5.08Z" fill="#fff"/>
  <path d="M414.99,690.12c.36,1.71-.35,1.02-.93,1.37-1.74,1.04-4.35,1.58-6.25,2.94-4.5,3.19-7.34,8.35-9.01,13.49l-9.17-.69c1.04-6.07.44-13.56,6.72-17.03,6.28-3.47,12.27-2.38,18.65-.08Z" fill="#fff"/>
  <path d="M409.08,437.05l-23.02-6.25,6.37-2.83c7.83-4.25,11.82-10,16.65-17.21v26.29Z" fill="#fff"/>
  <path d="M469.56,269.44h48.32c2.84,2.93.78,4.88-2.59,5.3-6.7.83-35.89,1.02-42.08-.08-2.63-.47-5.08-2.54-3.66-5.22Z" fill="#fff"/>
  <path d="M124.39,318.74c.88,2.8,3.35,6.75,5.29,8.85,1.36,1.47,6.1,4.59,6.27,4.95,1.88,4-8.43,3.45-11.53,4.29-4.45,1.2-8.35,4.38-12.51,6.22,1.18-9.08,6.73-16.29,11.12-23.91l1.36-.4Z" fill="#fff"/>
  <path d="M174.36,342.4c-3.6,12.7-34.21,6.35-36.69-3.11-1.84-7.03,10.18.38,13.82,1.32,1.87.48,7.17,1.79,8.73,1.79h14.14Z" fill="#fff"/>
  <path d="M523.48,223.43l-5.96,42.68-5.88.04c1.03-4.01.64-8.72,1.34-12.67.08-.45,1.14-.48,1.23-.99,1.62-9.57,2.84-19.34,2.69-29.06h6.58Z" fill="#fff"/>
  <path d="M499.72,254.88c-2.46.87-2.69-2.37-4.16-3.26-2.95-1.78-6.2,2.55-5.95,5.32-7.8-9.2-2.06-17.03,4.6-24.3,5.32,6.34,10.58,14.02,5.51,22.24Z" fill="#fff"/>
  <path d="M306.25,518.15c3.74,4.43,7.7,8.63,12.75,11.57-5.45.11-18.43-.92-21.87-5.4-3.81-4.96-.94-16.19-1.13-22.19,3.21,6.25,5.71,10.65,10.25,16.03Z" fill="#fff"/>
  <path d="M377.52,676.96l-3.39,23.89-1.55,1.09c-15.35,1.06-2.14-15.95-3.53-24.24l8.47-.74Z" fill="#fff"/>
  <path d="M412.79,554.8c9.43-1.13,13.29,5.45,12.76,14.03-.36,5.83-10.77,7.12-12.2,4.29-1.28-2.52.06-13.51-1.37-17.06l.81-1.25Z" fill="#fff"/>
  <path d="M388.76,714.37c-.33-1.54-.17-3.11,1.6-3.24,13.78,1.13,29.16,4.99,41.72-2.61-1.12,6.75-12.39,8.69-18.16,9.11-8.22.61-17.27-1.13-25.16-3.26Z" fill="#fff"/>
  <path d="M402.5,672.36l1.32,12.48c-4.73.04-7.77,2.16-11.83,3.95l2.29-14.46,8.22-1.97Z" fill="#fff"/>
  <path d="M507.04,277.98c-3.31,8.77-21.82,9.05-24.98,0h24.98Z" fill="#fff"/>
  <path d="M412.36,501.47h-11.83c-1.54-8.24,2.39-11.97,10.51-10.83,3.49,1.47,1.52,7.88,1.32,10.83Z" fill="#fff"/>
  <path d="M146.75,538.28l-1.3,16.04c.06.64-1.4.51-1.66.4-.61-.25-5.99-9.69-7.54-10.87l10.5-5.58Z" fill="#fff"/>
  <path d="M470.87,389.06l-.64-11.49,2.94-22.03c1.1.74.92,1.8,1.03,2.92.46,5.02.01,18.03-.68,23.05-.4,2.88-2.52,4.65-2.65,7.54Z" fill="#fff"/>
  <path d="M490.41,177.56c1.54-.46,6.35-.38,7.44.82,5.15,9.55-11.1,8-10.45,2.8.13-1.06,1.94-3.3,3.01-3.63Z" fill="#fff"/>
  <path d="M92.83,485.03c2.18,7.71,2.49,15.06,1.32,23-5.16-2.78-3.49-16.61-2.63-22.03.18-1.14-.29-1.09,1.31-.97Z" fill="#fff"/>
  <polygon points="409.08 358.17 403.27 342.82 409.08 335.17 409.08 358.17" fill="#fff"/>
  <path d="M498.49,259.58v6.58s-8.45-.09-8.45-.09l-1.4-6.48c3.52.41,6.33.83,9.85,0Z" fill="#fff"/>
  <path d="M409.08,483.06c.87,5.13-5.08,4.62-8.54,6.57l-.67-7.23,9.21.66Z" fill="#fff"/>
  <path d="M372.82,705.97c.41.65.24,3.68-.52,4.23-5.47.79-9.17-1.82-7.93-7.61,1.04,1.55,8.2,2.99,8.45,3.38Z" fill="#fff"/>
  <path d="M329.35,407.65c1.05.97,2.26,5.61,3.46,7.05-1.51,1.19-11.11-5.46-6.38-7.41.96-.49,2.13-.36,2.92.37Z" fill="#fff"/>
  <path d="M213.41,432.88c.07.12,3.15,1.2-.24,1.53-4.32-9.26-12.27-15.66-20.38-21.36,9.51,3.67,15.7,11.38,20.62,19.83Z" fill="#fff"/>
  <path d="M553.06,515.92c-.56-2.92-.7-5.69.32-8.54,2.33,2.23,3.86,7.61-.32,8.54Z" fill="#fff"/>
  <path d="M495.2,256.94c-1.26,1.15-3.37-1.05-.98-2.62.36-.07,1.22,2.4.98,2.62Z" fill="#fff"/>
  <path d="M283.27,527.33c7.2,7.7,5.14,26.05-2.72,32.63-9.03,7.56-25.94,8.96-33.88-.97-1.68-2.11-3.74-11.68-5.95-9.15-2.37,2.72,4.28,12.42,6.3,14.71-12.47-5.29-19.96-10.32-13.8-24.95s39.01-24.06,50.04-12.27ZM281.37,544.03c2.3-2.29.24-7.37-3.78-5.43-4.54,2.18-.07,9.27,3.78,5.43ZM259.47,541.29c-7.47-9.48-10.75,12.52,1.02,1.85.47-1.66-.65-1.38-1.02-1.85Z" fill="#fff"/>
  <path d="M56.68,757.81l-1.31,23.01c3.68-5.65,17.81-14.11,24-9.21,9.51,7.52-16.73,22.52-24.01,19.72l.66,15.78-2.67-.29-.83-13.99c-.38-1.37-11.53-4.5-14.05-5.97-4.43-2.58-15.56-12.86-10.75-18.23,5.14-3.5,12.67-.98,17.13,2.66,3.29,2.69,4.61,6.9,7.88,8.87l1.27-27.19c-5-1.95-11.16-2.32-16.37-4.7-8.93-4.07-17.23-13.82-16.92-24.13.22-7.21,3.28-7.18,9.93-6.35,12.07,1.52,20.42,14.12,24.72,24.24l3.29-17.08c-6.42,1.44-13.38-2.45-13.18-9.51.06-1.98,2.15-5.58,2.03-6.54-.07-.61-6.64-2.98-5.14-10.42,1.37-6.82,10.29-7.81,15.61-5.08,2.18-8.97,12.31-10.05,17.55-3.08.91,1.22,2.02,5.46,2.28,5.61.72.43,4.14-.11,5.87.37,12.19,3.4,8.97,15.37-2.01,17.51,2.77,7.61-3.11,15.19-11.21,14.16-3.77-.48-5.01-3.98-8.5-3.66l-3.97,20.35c9.3-8.77,19.97-16.74,33.69-14.3,10.78,1.92.8,15.08-3.79,18.9-3.04,2.53-14.79,8.55-18.41,8.55h-12.82ZM87.37,701.49c-2.19-3.19-9.59-3.05-12.59-.86-1.66-.37-.07-8.23-4.35-10.79-5.2-3.11-10.59,1.97-10.49,7.49-13.77-6.55-22.23,5.19-6.56,10.86-6.52,3.09-5.89,14.3,2.25,14.1,2.83-.07,4.89-3.29,7.16-3.16,1.77.11,2.79,3.06,4.45,4.13,7.75,5.01,15.72-2.58,10.52-10.39.57-1.93,14.45-4.35,9.62-11.39ZM51.7,742.43c-4.65-11.63-13.63-23.48-27.6-21.47-2.68,16.62,15.23,27.94,29.94,27.99-.39-2.42-1.59-4.64-2.34-6.52ZM87.37,745.77c2.89-2.75,10.01-11.55,2.47-12.89-12.4-2.21-28.72,10.1-33.16,21.3,8.95,2.91,23.79-1.84,30.69-8.4ZM57.67,745.32v.66l.33-.33-.33-.33ZM51.42,788.04c-3.28-9.88-9.04-19.27-21.04-17.75,0,10.02,12.12,16.57,21.04,17.75ZM78.36,774.27c-9.73-2.57-18.76,4.05-22.32,12.79,4.53,5,24.89-8.79,22.32-12.79Z"/>
  <path d="M148.16,740.62c1.94,1.12,11.28-2.61,13.4,6,1.7,6.89-4.14,7.53-4.86,10.36-.44,1.73,1.08,4.39.27,7.48-.31,1.17-5.29,6.01-6.76,6.36-4.79,1.13-7.88-.59-12.04-2.19l-7.86,22.05c4.4-3.07,8.16-7.31,13.22-9.45,9.86-4.19,28.85-5.13,17.29,10.05-7.54,9.9-22.69,12.29-34.37,11.32l-2.74,10.42-3.26-.66,3.29-11.15c-8.66-2.42-18.5-9.78-22.47-17.97-1.81-3.74-2.42-7.93-3.81-11.81,2.51-3.02,1.74-6.06,6.96-6.35,6.37-.35,14.2,6.67,17.35,11.65,2.2,3.48,2.9,7.87,4.53,11.06.36.69-.32,1.22,1.38.92l6.58-18.4c-5.1,1.13-8.02.85-11.48-3.32-3.98-4.8-.68-6.58.31-11.8-5.92-.33-8.77-8.7-4.55-12.77,3.78-3.63,10.57-1.43,11.06-1.75.91-.58,2.19-7.25,8.37-7.81,9.04-.82,8.68,6.88,10.2,7.76ZM144.57,738.95c-.13-.21-3.65-2.9-3.91-3-5.57-2.17-7.2,5.25-9.4,8.69-4.11-1.78-8.47-2.16-11.82,1.34-2.37,5.02,8.07,7.52,8.24,8.23-1.81,3.77-6.21,8.47-1.56,12.05,5.98,4.61,9.95-2.78,12.36-2.57,1.55.14,2.84,2.64,4.5,3.45,8.63,4.23,13.8-5.12,7.7-11.63.31-1.25,9.15-2.07,8.44-7.75-.78-6.16-12.25-3.43-13.08-4.04-.92-.67-.71-3.55-1.49-4.78ZM120.71,782.54c-2.81-5.39-7.35-12.86-13.9-14.05s-5.68,3.82-4.58,8.52c2.18,9.29,12.85,18.85,22.16,20.89.83-6.37-1.05-10.32-3.68-15.37ZM161.13,782.22c-13.02-3.21-26.55,6.22-32.78,16.99,11.95,2.53,31.01-3.59,32.78-16.99Z"/>
  <path d="M536.25,756.23c.32.66,1.88,1.19,1.03,3.56,4.1-1.26,6.01-4.21,10.91-2.04,8.7,3.87-5.74,21.66-12.89,19.79.53,7.48,3.14,13.84,1.98,21.69,3.12-2.05,4.36-5.45,7.67-7.77,16.64-11.65,22.53,3.23,7.1,14.99-2.45,1.87-13.05,7.12-15.75,7.17s-14.1-5.11-16.73-6.88c-16.38-11.01-8.66-23.26,7.81-13.07l6.6,6.21-2.04-22.27c-8.09,2.56-21.97-12.29-16.38-18.83,4.01-4.69,9.2,2.7,10.46.27-.06-10.36,5.37-12.86,10.22-2.82ZM532.01,753.21c-5.4-.85-1.85,10.86-3.34,11.76-4.5.64-6.3-5.27-11.1-4.54-.39,12.35,15.38,18.68,24.66,11.19,2.37-1.92,7.5-9.48,3.32-11.84-3.31.18-8.5,6.69-10.82,5.2l-2.71-11.77ZM538.6,809.08c8.14-1.54,19.41-8.52,18.78-17.79-9.55-2.11-18.48,8.97-18.78,17.79ZM533.33,809.08c1.71-7.45-15.66-21.43-20.37-14.44,4.53,7.66,11.23,13.34,20.37,14.44Z"/>
  <path d="M224.34,779.5c.61.72,7.42-8.53,14.36-6.14s-1.06,16.16-6.13,17.32c-3.29-.67,4.52-8.22,5.09-9.38.52-1.06.81-2.34,1.12-3.48-.24-3.56-6.44-.56-8.09.49-3.45,2.19-5.38,7.19-9.31,8.43-1.42-.31.38-7.63.33-9.49-.08-2.65-1.24-12.96-5.29-9.26-3.99,3.64-3.76,14.25-3.92,19.41-5.99-4.36-8.08-14.19-17.75-13.14-.55,4.67,2.31,8.41,4.92,11.85.76,1.01,4.63,2.87,2.97,4.58-2.87,2.96-16.62-15.75-9.05-19.23,5.93-2.73,13.06,3.62,16.27,8.05.02-19.95,15.61-21.65,14.48,0Z"/>
  <path d="M411.58,764.58c6.92-.62,35.32-1.11,31.39,11.66-2.4,7.79-24.32,8.32-30.92,7.84-26.09-1.91-25.45-17.26-.47-19.5ZM408.93,767.85c-10.5,1.24-20.98,8.23-4.49,12.01,5.75,1.32,33.61,2.28,35.44-4.79.4-1.54-.43-3.12-1.53-4.14-4.15-3.84-23.68-3.76-29.42-3.09Z"/>
  <path d="M206.45,694.25c6.25-.29,28.19-.63,29.05,8.08.97,9.81-22.93,11.04-29.28,10.8-23.95-.88-26.89-17.64.22-18.89ZM191.21,704.13c4.05,6.6,15.7,6.2,22.95,5.72,3.61-.24,24.72-2.97,16.32-9.79-5.25-4.26-34.83-4.44-40.33,2.55-.8,1.42.91,1.28,1.05,1.52Z"/>
  <path d="M318.14,779.95c-6.94,5.88-32.87,6.65-40.11,1.41-4.06-2.94-4.15-6.7-.47-10.11,6.35-5.89,34.65-6.67,40.76-.6,2.28,2.27,2.21,7.27-.18,9.29ZM278.39,778.05c5.64,3.34,13.42,4.33,19.9,4.06,3.8-.16,18.03-1.86,18.03-6.89-.77-4.3-7.74-5.28-11.43-5.61-4.04-.36-30.75-.01-26.5,8.43Z"/>
  <path d="M488.64,775.56c3.11-.32,3.47-3.54,6.97-3.92,9.05-1,5.28,10.62,1.24,14.42-2.86-2.9,2.63-7.84.68-11.18l-4.01,1.3-5.86,8.58c-1.68-.8-.8-17.11-6.31-15.38-1.59,2.55.46,13.08-1.22,14.45-2.81,2.29-6.29-7.75-10.88-6.95-2.59,2.74,2.97,7.11,2.95,8.89-.06,5.64-10.36-7.31-6.89-10.19,3.39-4.72,7.67-.04,11.48,1.29-1.59-14.33,10.39-15.03,11.84-1.31Z"/>
  <path d="M224.53,731.06c4.72-6.92,35.02-7.66,38.08-.02,4.51,11.25-20.68,11.63-26.77,10.99-5.02-.53-15.84-4.32-11.32-10.96ZM260.49,732.85c-6.93-5.66-19.3-5.31-27.57-2.94-2.02.58-5.88,1.96-5.78,4.46.98,6.77,24.61,4.65,29.59,2.26,1.26-.61,1.91-2.06,3.35-2.42l.42-1.36Z"/>
  <path d="M358.32,737.63c5.92-.51,27.81.11,23.31,10.82-2.21,5.26-19.26,5.8-24.14,5.41-21.62-1.72-19.24-14.48.84-16.22ZM346.15,747.78c3.74,3.99,25.49,3.43,30.52.97,12.14-5.93-13.65-8.26-17.25-8.05-2.52.15-17.78,2.27-13.27,7.08Z"/>
  <path d="M443.13,799.42c4.82-.37,23.33.64,20.9,9.02-1.84,6.36-17.11,6.78-22.4,6.54-24.08-1.08-18.71-13.99,1.5-15.56ZM442.48,802.71c-4.94.34-10.63,1.1-13.66,5.39,3.39,5.8,31.4,4.47,32.13-.75.63-4.47-15.51-4.83-18.48-4.63Z"/>
  <path d="M102.57,668.62c6.36-.59,27.18-1.71,23.65,9.85-2.04,6.7-29.11,6.36-34.52,3.91-.95-.43-3.73-2.99-3.99-3.91-2.25-7.75,9.93-9.38,14.86-9.84ZM90.99,678.16c1.68,3.14,17.73,3.07,21.23,2.73,2.75-.27,15.78-2.35,10.58-7.26-4.13-3.9-29.08-2.96-31.58,2.04-.37.74-.63,1.71-.22,2.49Z"/>
  <path d="M467.46,729.09c5.8-.41,16.12.16,19.49,5.76,4.05,6.73-11.28,8.84-15.27,8.97-4.45.15-18.44-.9-19.01-6.8-.6-6.23,10.25-7.61,14.79-7.93ZM455.89,737.33c2.82,4.4,24.64,4.61,28.8-.24-2.34-7.62-26.01-5.37-28.85-1.55-.13.55-.24,1.34.05,1.8Z"/>
  <path d="M33.54,647.59c5.45-.4,21.75-.24,16.18,9.61-3.37,5.97-26.6,5.34-28.79-1.37s8.04-7.9,12.61-8.24ZM23.9,652.73c-3.77,6.56,22.61,7.57,23.6,2.19.12-1,.06-1.85-.67-2.63-2.59-2.76-19.1-1.96-22.93.44Z"/>
  <path d="M128.54,696.21c3.43-4.01,26.77-5.15,26.74,3.35-.03,11.74-36.21,7.7-26.74-3.35ZM141.27,696.29c-2.22.02-10.52.63-10.9,3.45-.57,4.22,18.83,4.94,21.62,1.16-.38-4.62-7.05-4.65-10.72-4.61Z"/>
  <path d="M364.17,795.75c-4.15,5.42-22.31,6.14-26.93.69-4.93-14.62,35.71-12.17,26.93-.69ZM360.88,794.42c2.79-3.34-3.35-4.86-6.01-5.08-5.2-.45-11.55.71-15.48,4.3,2.6,5.26,18.66,4.16,21.49.78Z"/>
  <path d="M309.14,747.94c-1.91.23-16.33,1.33-16.42-.32,1.55-3.69,19.26-4.19,16.42.32Z"/>
  <path d="M21,607.44c1.83-.47,14.06-1.06,13.32,2.14-1.44.9-13.99,1.83-14.7,1.59-2.37-.77-.83-3.17,1.37-3.73Z"/>
  <path d="M268.38,805.8c-.24,2.97-5.57,1.1-7.57,1.27-1.68.14-9.84,2.11-10.17.36-.7-3.78,15.27-3.57,17.75-1.62Z"/>
  <path d="M189.48,808.42c-4-.93-9.96,1.14-13.47.68-1.03-.13-1.06.33-1-1.01.23-4.85,18.26-3.17,14.47.33Z"/>
  <path d="M402.5,802.5l-15.12.66c-3.85-3.87,15.35-5.82,15.12-.66Z"/>
  <path d="M437.68,747.29c1.7.61,1.21,3.29-.66,3.29h-11.18c-1.39-1.01-1.39-2.27,0-3.29,2.24,0,10.57-.46,11.83,0Z"/>
  <path d="M197.05,732.83c.36.1,1.79,1.6,1.65,2.29-.01.27-1.56,1-1.65,1h-11.51c-.44-.98,1.03-3.29,1.64-3.29,2.25,0,8.27-.46,9.86,0Z"/>
  <path d="M264.33,621.2l.11,2.52h-12.49c-1.4-4.8,11.78-3.49,12.39-2.52Z"/>
  <path d="M234.19,676.96c-1.26-5.42,12.1-3.2,12.49-1.63.16.63-.75,1.63-.98,1.63h-11.51Z"/>
  <path d="M254.39,589.69c1.68-.39,10.59-.56,10.68,1.49-1.22,2.89-13.12,1.9-13.12,0,.63-.77,1.46-1.27,2.44-1.49Z"/>
  <path d="M11.97,527.1c-1.05-4.9,11.82-3.83,11.82-1.64-.61,2.41-11.23,2.22-11.82,1.64Z"/>
  <path d="M96.13,807.77h-14.46c.04-3.98,14.31-4.05,14.46,0Z"/>
  <path d="M26.91,679.08c1.57-.4,9.39-.77,8.72,2.14-.87.94-9.61,1.75-10.1,1.59-2.37-.77-.83-3.17,1.37-3.73Z"/>
  <path d="M156.58,59.8c1.22,1.51-5.9,6.04-7.22,7.5-12.68,13.96-12.67,36.28,6.45,43.54,3.13,1.19,15.98,2.19,15.18,5.64-13.38,14.75-41,10.67-50.98-5.98-15.7-26.2,8.17-55.71,36.56-50.69ZM150.04,61.74c-20.19,1.53-37.02,20.46-30.11,40.97.58,1.73,5.18,9.16,6.45,10.6,9.22,10.38,28.12,11.88,39.42,3.96-12.4-3.61-23.63-7.62-27.41-21.22-4.13-14.85,1.59-24.15,11.65-34.31Z"/>
  <path d="M340.18,60.27c21.7,2.19,5.91,7.16,5.28,10.42-.44,2.27,3.21,7.22,1.08,10.04-2.26,1.43-8.26-4.34-10.23-4.4-2.21-.08-6.19,5.79-9.41,4.16-3.6-1.82,1.1-7.72.7-9.78-.22-1.14-8.16-2.78-5.66-7.67l9.48-2.04c1.15-3.55-.13-8.85,4.36-10.47,2.13.03,4.07,7.78,4.4,9.74ZM347.93,64.37c-9.29,1.08-9.34-.68-12.16-8.55l-2.46,7.73c-1.53,1.56-9.32-.1-8.39,1.79l6.48,4.76-1.88,6.75c6.77-4.93,7.29-4.22,14.12.01-2.63-7.46-1.15-7.73,4.28-12.49Z"/>
  <path d="M106.76,175.98c20.74.11,5.29,6.5,4.66,9.72-.41,2.06,2.49,7.37.84,10.15-3.44,2.23-8.04-4.41-9.88-4.41-16.39,10.18-7.61-1.07-8.42-5.19-.25-1.25-8.38-4.1-6.08-7.55.93-1.39,6.23-1.02,7.96-2.57,1.5-1.34,2.89-8.37,5.25-8.62,3.65-.38,4.32,6.25,5.68,8.47ZM113.87,179.4c-1.93-.59-8.07-.24-9.22-.97s-1.62-6.05-3.25-6.92c-.56,1.58-1.57,5.91-2.65,6.89-1.21,1.09-8.64,1.28-7.22,2.95,7.35,2.88,5.67,3.98,3.95,10.53l6.9-3.89,6.9,4.55-1.19-8.73,5.79-4.4Z"/>
  <path d="M73.94,52.36c1.56,1.34,8.87.13,9.63,3.25.62,2.55-4.7,4.59-5.12,5.91-.6,1.88,2.08,6.6.97,8.13-3.5,2.76-7.81-2.99-10.02-3.18-4.25-.36-14.09,11.72-8.88-5.67-.45-1.71-7.69-2.69-5.51-6.33,2.33-2.06,7.54-.55,9.54-2.29,1.74-1.51,1.45-7.92,4.31-8.24,3.62-.4,3.63,7.18,5.08,8.43ZM79.69,57.12c-1.41-2.5-5.68-.48-7.86-2.31-1.41-1.18-1.89-6.56-2.99-6.87-1.37,6.45-2.16,8.66-9.53,7.89l5.26,3.67-1.96,6.84c6.72-4.23,7.44-3.56,13.79.66l-2-6.87,5.3-3Z"/>
  <path d="M271.26,105.52c2.37,3.98,8.91.76,10.01,4.83.85,3.16-4.38,4.81-4.67,6.49-.38,2.23,2.25,6.5.94,9.26-2.29,1.22-7.61-2.91-9.48-4.38-1.71-.14-5.62,6.52-8.93,4.15-1.17-.84-.67-8.25,1.25-8.35l.11-1.21c-14.57-8.42.09-6.75,2.62-8.91,1.5-1.28,1.77-7.57,3.72-8.15,3.54-.12,3.24,4.28,4.44,6.28ZM274.96,122.2c-2.49-5.52-1.55-7.71,3.27-10.84-.03-1.67-6.31-.19-7.88-1.32-1.4-1-1.18-5.35-3.28-6.24-.6,6.48-2.45,6.98-8.56,7.23l5.17,4.39-1.88,6.77c.94.81,4.94-3.75,6.36-3.84,1.22-.08,4.52,4.32,6.79,3.84Z"/>
  <path d="M63.44,137.13c1.47,2.21,9.67,1.4,9.7,4.45-.61,3.64-6.22,3.96-7.58,5.61-1.76,2.13-1.34,9.24-5.89,8.55-3.81-.58-3.17-7.67-4.64-9.23-1.25-1.33-8.79-.96-9.4-4.93,1.42-3.4,8.3-2.23,9.76-3.24.8-.55,1.87-8.49,4.31-8.88,2.68-.42,2.98,6.53,3.73,7.66ZM69.17,141.93c-5.71,0-8.05-.93-9.53-6.59-1.33,4.32-1.87,6.52-6.91,6.91,5.66.77,4.72,5.1,6.51,8.61.36.69-.32,1.22,1.37.92,0-6.94,3.86-6.86,8.55-9.85Z"/>
  <path d="M235.42,44.74c1.77,1.38,3.13,8.66,3.5,8.98.66.59,6.85.8,7.75,3.74-.79,2.19-7.28,3.83-7.74,4.42-.75.96-.82,8.77-5.09,8.39-2.74-.25-3.04-7.54-4.42-9.02-1.05-1.13-8.02-1.66-7.66-4.35.39-2.93,6.61-2.24,8.16-3.71,1.25-1.18,2.36-7.98,3.05-8.45h2.45ZM236.33,56.31c-1.14-.97-1.24-5-1.81-6.4-2.22,3.11-1.24,7.05-6.24,7.24,4.83,2.05,3.98,5.31,6.24,9.19.63-6.34,1.85-6.09,6.9-8.87.06-.52-4.18-.38-5.09-1.15Z"/>
  <path d="M220.55,158.85c1.34,1.12,11.99.74,6.09,5.43-1.4,1.11-4.05,1.18-5.22,2.66-1.95,2.47-.71,9.95-5.85,8.39-2.9-.88-3.21-7.7-4.7-9.1-1.6-1.5-7.01-.75-6.3-4.86,7.77-1.39,7.03-5.7,11.55-10.31,3.63-.49,2.83,6.44,4.43,7.78ZM218.57,161.48c-.93-.88-1.45-5.83-1.8-5.75-1.63,3.99-2.06,5.99-6.9,6.58,6.1,2.21,4.63,4.55,6.9,9.85,1.12-4.83,1.34-7.31,6.24-9.53.06-.56-3.39-.15-4.44-1.14Z"/>
  <path d="M353.02,141.45c1.23,1.12,1.75,5.7,2.3,6.24s3.96.65,5.35,1.55c5.78,3.72-4.1,5.46-5.15,7.16-1.13,1.82-.2,8.27-3.92,7.9-3.59-.35-3.68-6.65-5.32-8.55-1.27-1.47-7.13-2.67-6.24-4.95,1.45-1.51,5.82-1.94,6.98-2.91,1.46-1.23,1.5-10.54,6.02-6.44ZM352.13,148.25c-.8-1.22-.28-3.34-1.56-3.69-.19,3.81-.58,6.98-5.27,6.58,3.79,2.34,4.85,4.67,5.27,9.19,2.01-.61.87-3.08,1.5-4.42.44-.94,4.89-4.11,6.38-4.13-2.28-1.32-4.62-.96-6.32-3.53Z"/>
  <path d="M542.41,113.86c7.35-.59,23.9-1.78,27.11,6.02,3.66,8.89,2.3,20.13-8.4,22.53-7.4,1.66-26.39,2.71-31.73-3.45-3.14-3.62-4.43-14.98-2.79-19.23,1.9-4.91,11.36-5.53,15.81-5.88ZM539.13,117.15c-11.26,1.18-13.14,6.44-8.91,17.05,3.73,9.36,32.1,7.69,36,2.15,2.29-3.25,2.16-15.24-1.35-17.73s-20.86-1.98-25.74-1.47Z"/>
  <path d="M554.24,41.56c6.43-.32,19.16-.85,20.45,7.42,2.63,16.82-4.73,20.28-20,21.28s-23.86-1.54-21.37-19.39c1.11-7.96,14.69-9.01,20.92-9.32ZM537.05,59.97c1.09,3.91.83,6.17,5.89,6.96,5.48.85,26.08.79,27.74-6.32.66-2.82.82-13.32-1.99-14.82-4.05-2.17-22.18-1.19-26.79.51-5.03,1.86-6.76,7.57-5.98,12.52.17,1.1,1.08.97,1.13,1.16Z"/>
  <path d="M513.24,87.74c3.5,3.76,4.56,15.26,1.32,19.3-4.66,5.83-30.7,6.05-36.92,3.47-6.93-2.89-6.29-19.88.66-23.28s29.43-5.39,34.94.52ZM489.82,87.57c-3.73.39-11.65,1.97-13.18,5.88-1.11,2.82-1.15,12.47,1.76,14.33,4.03,2.58,29.39,1.73,32.6-2.32,2.21-2.79,1.74-14.52-.99-16.8-2.46-2.05-16.45-1.49-20.2-1.1Z"/>
  <path d="M467.24,132.42c4.06,6.18,1.32,13.65-5.68,15.64-5.11,1.45-21.32,1.95-25.99-.08-7.48-3.25-6.63-16.14,1.77-18.87,4.37-1.42,23.71-1.85,27.29.33.78.47,2.06,2.16,2.6,2.99ZM435.53,144.39c2.54,2.54,24.82,1.85,27.8-.48s2.99-9.19.3-11.51c-3.24-2.78-25.86-1.89-28.29,1.27-1.64,2.13-1.67,8.85.19,10.72Z"/>
  <path d="M421.96,245.37c-.08-.23-.91-.12-1.09-1.2-.85-4.88,2.02-12.32,7.15-13.97,6.41-2.07,22.3-1.21,24.18,6.99,3.22,14.07-7.66,15.2-18.49,14.54-6.14-.37-9.51-.35-11.74-6.36ZM431.28,232.8c-6.46,1-7.48,5.97-6.38,11.94,1.04,5.59,16.15,4.56,20.53,3.52,4.92-1.17,5.72-10.04,2.13-13.03-3.08-2.57-12.42-3.03-16.28-2.44Z"/>
  <path d="M352.95,612.97c-2.96,6.61-17.08,29.92-22.73,33.47-1.17.74-1.76,1.26-3.32.94-.13-1.07.17-1.98.73-2.88,3.3-5.24,10.57-11.99,14.27-17.91,9.28-14.85,14.32-30.96,16.9-48.21,3.77-5.23.98,12.23.79,13.28-1.22,6.72-3.85,15.08-6.64,21.31Z"/>
  <path d="M55.36,398.26c1.99.21,4.14-1.19,6.11-.54.35.12,3.24,3.63,3.09,3.82-.04.05-.92-.18-1.27.51-5.52,10.99-12.07,6.85-13.84,8.71-.33.35.36,4.21-.11,5.47-4.07,4.24-2.65-3.95-3.25-4.76-.31-.41-6.58-.99-9.03-4.45-4.94-6.98-.15-13.74,7.46-8.13.71-.11,2.34-9.39,7.9-9.24,4.29.46,4.31,5.25,2.94,8.59ZM52.47,397.36c2.82-8.04-4.33-3.05-4.86,2.71-.58,6.42,3.99-.25,4.86-2.71ZM46.16,408.78c2.03-4.17-7.89-12.62-7.93-6.91-.03,4.17,4.41,6.11,7.93,6.91ZM60.62,400.24c-.57-.6-12.76,5.21-10.51,7.22,4.64.47,10.25-2.1,10.51-7.22Z"/>
  <path d="M38.27,443.62c3.17-.54,6.45-4.35,9.53-1.31,1.29,2.34-.24,9.82-2.74,11.07-5.3,2.65,1.81-7.59.43-9.09-2.59-1-7.67,7.47-9.2,5.92l-2.96-12.48c-1.62.04-2.76,10.83-2.3,12.48-4.49,1.02-5.3-4.73-9.86-3.94l3.93,7.57c-.74,4.06-5.58-1.96-6.13-3.73-2.55-8.25,3.14-7.85,8.77-5.16-.82-3.29,2.39-11.38,6.61-10.24,2.94,1.41,3.56,5.91,3.92,8.93Z"/>
  <path d="M38.1,345.86l3.77,6.36c10.9-8.89,10.56,8.02,2.98,11.21l2.62-10.51-8.53,5.91c-.91-.58-.08-9.82-3.95-9.85-1.2,2.32.99,7.93-1.31,8.91-.87.37-6.38-4.11-8.56-2.99l4.59,7.24c-3.26,5.41-9.16-6.97-7.18-9.49,1.45-2.98,8.59.91,9.16.27-.47-3.99,1.55-9.97,6.41-7.05Z"/>
  <path d="M256.55,371.98c16.96-8.63,4.84,14.71,1.31,11.17-.72-4.31,4.9-5.41,4.59-9.85-4.51-.48-6.18,4.15-9.85,4.59v-12.48c-4.47.94-1.41,10.05-5.73,10.4l-6.76-5.14,1.31,9.2c-1.72,1.89-5.94-7.93-5.31-9.54,3.34-5.08,5.93-2.28,9.91-.32,1.85-11.02,11.1-9.12,10.53,1.97Z"/>
  <path d="M202.4,438.59c4.01,5.71,9.18,13.73,12.02,20.02,1.43,3.16.09,5.11-2.64,2.99-.73-.56-6.93-13.66-8.6-16.25-3.8-5.88-8.8-11.59-13.25-17.02l-.43-2.46c2.15-2.09,11.57,10.8,12.91,12.71Z"/>
  <path d="M235.27,502.29c6.61-.69,7.23,11.98.57,12.39s-5.67-11.85-.57-12.39Z"/>
  <path d="M275.43,500.32c1.79,2.86,2.41,6.55.19,9.36-5.52,7.03-11.31-13.13-.19-9.36Z"/>
  <path d="M391.19,405.63c3.37,0,3.84,3.1-.24,3.77-2.25.37-13.64,1.21-14.09-1.61s6.4-.85,8.22-.94c2.05-.11,4.53-1.22,6.11-1.22Z"/>
  <path d="M171.73,317.42l.09-2.55c3.06-.6,6.87-1.18,8.44-4.36l-7.21-9.18c.53-2.56,6.98,3.42,7.9,4.58,5.69,7.2-2.07,12.79-9.22,11.51Z"/>
  <path d="M161.54,321.38c2.43,1.53,5.06,2.86,7.97,3.19s12.65-2.65,11.41,1.04c-2.93,4.33-20.37,2.56-20.38-2.6l1-1.62Z"/>
  <path d="M146.1,300.33c1.7-1.9,4.64,7.15,11.8,2.27.45-.31,3.88-5.5,4.63-1.93,1.3,6.13-17.66,10.8-16.43-.34Z"/>
  <path d="M186.86,300.33c3.51,0,6.23,4,9.88,2.3.27-.13,4.11-5.55,4.39-1.32.41,6.33-15.03,6.78-14.26-.98Z"/>
  <path d="M159.24,286.52c-6.41-1.37-8.32,2.1-13.14,4.6-2.22-6.32,11.95-10.96,13.14-4.6Z"/>
  <path d="M202.48,287.33c3.27,5.6-5.27.42-6.61-.29s-5.28-.1-4.41-2.81c1.07-3.34,10.31,1.87,11.02,3.09Z"/>
  <path d="M47.8,278.64c-8.44-9.79,5.1-35.1,16.71-21.31,2.5,2.97,4.18,21.31.38,21.31h-17.09ZM55.36,275.35v-18.4c-2.88.83-6.57,5.36-6.57,8.22v10.19h6.57ZM57.99,257.93v17.42h5.26c.56-.55-.51-13.92-1.16-15.61-.55-1.42-3.31-4.12-4.11-1.81Z"/>
  <path d="M360.6,373.47c5.62-4.75,11.62,8.52,4.46,10.71s-7.25-8.35-4.46-10.71Z"/>
  <path d="M397.68,368.81c7.58-2.73,8.9,8.95,3.68,10.3-5.54,1.44-7.15-9.05-3.68-10.3Z"/>
  <path d="M365.03,362.11c-1.57-.09-2.93-.08-4.43.51-2.11.84-8.44,6.48-9.38,3.73-.84-2.46,14.64-12.87,13.8-4.24Z"/>
  <path d="M391.33,357.52c-1.2-4.27,9.44-3.11,10.79-2.04l.38,2.04h-11.18Z"/>
  <path d="M262.95,298.52c4.66-.85,10.7.59,12.52,5.56,1.3,3.54,2.46,21.11-1.64,22.41-2.62.83-18.16.73-19.13-2.3-.08-7.82-2.25-23.75,8.25-25.67ZM264.43,301.65c-4.27.2-7.21,5.03-6.57,9.2l6.29-.62.28-8.58ZM267.07,301.65v9.2h6.58c.64-4.8-1.43-8.83-6.58-9.2ZM257.2,313.47l.29,9.25,5.66,1,1.01-8.96-6.95-1.28ZM273.64,314.13h-6.58c.62,6.83-3.75,12.11,6.58,9.2v-9.2Z"/>
  <path d="M259.47,541.29c.37.47,1.49.19,1.02,1.85-11.77,10.67-8.49-11.33-1.02-1.85Z"/>
  <path d="M281.37,544.03c-3.85,3.84-8.32-3.25-3.78-5.43,4.02-1.93,6.08,3.14,3.78,5.43Z"/>
  <path d="M87.37,701.49c4.84,7.04-9.05,9.46-9.62,11.39,5.2,7.81-2.77,15.39-10.52,10.39-1.66-1.07-2.68-4.03-4.45-4.13-2.27-.13-4.33,3.09-7.16,3.16-8.13.19-8.77-11.01-2.25-14.1-15.67-5.67-7.21-17.41,6.56-10.86-.09-5.52,5.3-10.6,10.49-7.49,4.28,2.56,2.69,10.41,4.35,10.79,3-2.18,10.4-2.33,12.59.86ZM70.27,702.81c-6.65-6.7-17.21,4.62-10.1,10.75,6.53,5.63,16.73-4.08,10.1-10.75Z" fill="#fff"/>
  <path d="M51.7,742.43c.75,1.87,1.95,4.1,2.34,6.52-14.71-.05-32.62-11.37-29.94-27.99,13.97-2.01,22.96,9.84,27.6,21.47Z" fill="#fff"/>
  <path d="M87.37,745.77c-6.9,6.56-21.74,11.31-30.69,8.4,4.44-11.19,20.76-23.5,33.16-21.3,7.54,1.34.43,10.14-2.47,12.89Z" fill="#fff"/>
  <path d="M51.42,788.04c-8.92-1.17-21.05-7.72-21.04-17.75,12-1.53,17.76,7.87,21.04,17.75Z" fill="#fff"/>
  <path d="M78.36,774.27c2.57,4.01-17.78,17.79-22.32,12.79,3.55-8.74,12.59-15.36,22.32-12.79Z" fill="#fff"/>
  <polygon points="57.67 745.32 57.99 745.65 57.67 745.98 57.67 745.32" fill="#fff"/>
  <path d="M144.57,738.95c.77,1.23.56,4.11,1.49,4.78.83.61,12.3-2.12,13.08,4.04.72,5.68-8.13,6.5-8.44,7.75,6.1,6.5.94,15.86-7.7,11.63-1.67-.82-2.96-3.32-4.5-3.45-2.41-.21-6.38,7.18-12.36,2.57-4.65-3.58-.25-8.28,1.56-12.05-.18-.71-10.61-3.21-8.24-8.23,3.34-3.5,7.71-3.13,11.82-1.34,2.2-3.45,3.83-10.86,9.4-8.69.26.1,3.78,2.79,3.91,3ZM133.32,749.65c-7.11,8.94,9.46,15,12.93,6.69,3.02-7.24-7.37-13.68-12.93-6.69Z" fill="#fff"/>
  <path d="M120.71,782.54c2.63,5.05,4.52,8.99,3.68,15.37-9.31-2.04-19.98-11.59-22.16-20.89-1.1-4.7-2-9.72,4.58-8.52s11.09,8.66,13.9,14.05Z" fill="#fff"/>
  <path d="M161.13,782.22c-1.78,13.4-20.84,19.53-32.78,16.99,6.23-10.77,19.77-20.21,32.78-16.99Z" fill="#fff"/>
  <path d="M532.01,753.21l2.71,11.77c2.32,1.49,7.52-5.02,10.82-5.2,4.18,2.36-.94,9.93-3.32,11.84-9.28,7.5-25.05,1.17-24.66-11.19,4.8-.73,6.61,5.18,11.1,4.54,1.49-.91-2.05-12.62,3.34-11.76Z" fill="#fff"/>
  <path d="M538.6,809.08c.3-8.82,9.23-19.89,18.78-17.79.63,9.27-10.64,16.24-18.78,17.79Z" fill="#fff"/>
  <path d="M533.33,809.08c-9.14-1.1-15.84-6.78-20.37-14.44,4.71-6.99,22.08,6.99,20.37,14.44Z" fill="#fff"/>
  <path d="M408.93,767.85c5.74-.68,25.27-.76,29.42,3.09,1.1,1.02,1.93,2.59,1.53,4.14-1.83,7.07-29.68,6.11-35.44,4.79-16.49-3.79-6.01-10.77,4.49-12.01Z" fill="#fff"/>
  <path d="M191.21,704.13c-.14-.23-1.85-.1-1.05-1.52,5.5-6.99,35.08-6.81,40.33-2.55,8.4,6.82-12.71,9.55-16.32,9.79-7.25.47-18.9.88-22.95-5.72Z" fill="#fff"/>
  <path d="M278.39,778.05c-4.24-8.44,22.46-8.79,26.5-8.43,3.69.33,10.66,1.31,11.43,5.61,0,5.03-14.23,6.73-18.03,6.89-6.48.26-14.26-.73-19.9-4.06Z" fill="#fff"/>
  <path d="M260.49,732.85l-.42,1.36c-1.44.36-2.09,1.81-3.35,2.42-4.98,2.39-28.61,4.51-29.59-2.26-.1-2.5,3.76-3.88,5.78-4.46,8.28-2.37,20.64-2.73,27.57,2.94Z" fill="#fff"/>
  <path d="M346.15,747.78c-4.51-4.81,10.75-6.93,13.27-7.08,3.6-.22,29.39,2.11,17.25,8.05-5.04,2.46-26.78,3.02-30.52-.97Z" fill="#fff"/>
  <path d="M442.48,802.71c2.97-.2,19.11.16,18.48,4.63-.74,5.23-28.74,6.56-32.13.75,3.03-4.29,8.72-5.05,13.66-5.39Z" fill="#fff"/>
  <path d="M90.99,678.16c-.42-.78-.15-1.75.22-2.49,2.5-4.99,27.45-5.93,31.58-2.04,5.2,4.91-7.83,6.99-10.58,7.26-3.49.34-19.55.41-21.23-2.73Z" fill="#fff"/>
  <path d="M455.89,737.33c-.29-.46-.18-1.24-.05-1.8,2.84-3.82,26.51-6.06,28.85,1.55-4.16,4.86-25.98,4.64-28.8.24Z" fill="#fff"/>
  <path d="M23.9,652.73c3.83-2.4,20.34-3.2,22.93-.44.73.78.79,1.63.67,2.63-1,5.38-27.37,4.37-23.6-2.19Z" fill="#fff"/>
  <path d="M141.27,696.29c3.67-.04,10.34-.01,10.72,4.61-2.79,3.78-22.19,3.06-21.62-1.16.38-2.83,8.68-3.43,10.9-3.45Z" fill="#fff"/>
  <path d="M360.88,794.42c-2.83,3.38-18.89,4.48-21.49-.78,3.92-3.59,10.28-4.75,15.48-4.3,2.66.23,8.8,1.75,6.01,5.08Z" fill="#fff"/>
  <path d="M150.04,61.74c-10.06,10.16-15.77,19.46-11.65,34.31,3.78,13.6,15.01,17.61,27.41,21.22-11.29,7.92-30.2,6.42-39.42-3.96-1.28-1.44-5.87-8.87-6.45-10.6-6.91-20.52,9.92-39.45,30.11-40.97Z" fill="#fff"/>
  <path d="M347.93,64.37c-5.43,4.75-6.91,5.03-4.28,12.49-6.84-4.23-7.36-4.94-14.12-.01l1.88-6.75-6.48-4.76c-.93-1.89,6.86-.23,8.39-1.79l2.46-7.73c2.82,7.87,2.87,9.63,12.16,8.55Z" fill="#fff"/>
  <path d="M113.87,179.4l-5.79,4.4,1.19,8.73-6.9-4.55-6.9,3.89c1.73-6.55,3.4-7.65-3.95-10.53-1.42-1.67,6.01-1.86,7.22-2.95,1.08-.98,2.09-5.31,2.65-6.89,1.64.87,2.1,6.19,3.25,6.92s7.29.38,9.22.97Z" fill="#fff"/>
  <path d="M79.69,57.12l-5.3,3,2,6.87c-6.35-4.22-7.08-4.89-13.79-.66l1.96-6.84-5.26-3.67c7.37.76,8.15-1.44,9.53-7.89,1.1.31,1.58,5.7,2.99,6.87,2.19,1.83,6.45-.18,7.86,2.31Z" fill="#fff"/>
  <path d="M274.96,122.2c-2.27.48-5.57-3.92-6.79-3.84-1.42.09-5.42,4.66-6.36,3.84l1.88-6.77-5.17-4.39c6.11-.26,7.96-.76,8.56-7.23,2.1.89,1.87,5.24,3.28,6.24,1.57,1.12,7.85-.35,7.88,1.32-4.83,3.13-5.76,5.32-3.27,10.84Z" fill="#fff"/>
  <path d="M69.17,141.93c-4.69,2.99-8.54,2.91-8.55,9.85-1.69.3-1.02-.23-1.37-.92-1.79-3.51-.85-7.84-6.51-8.61,5.04-.39,5.58-2.58,6.91-6.91,1.48,5.66,3.82,6.59,9.53,6.59Z" fill="#fff"/>
  <path d="M236.33,56.31c.91.77,5.14.63,5.09,1.15-5.05,2.78-6.27,2.53-6.9,8.87-2.26-3.88-1.41-7.14-6.24-9.19,5-.18,4.03-4.12,6.24-7.24.56,1.41.67,5.44,1.81,6.4Z" fill="#fff"/>
  <path d="M218.57,161.48c1.05.99,4.5.59,4.44,1.14-4.9,2.22-5.12,4.7-6.24,9.53-2.27-5.29-.8-7.64-6.9-9.85,4.84-.59,5.27-2.59,6.9-6.58.35-.08.86,4.87,1.8,5.75Z" fill="#fff"/>
  <path d="M352.13,148.25c1.69,2.57,4.04,2.2,6.32,3.53-1.49.02-5.93,3.19-6.38,4.13-.63,1.34.52,3.81-1.5,4.42-.42-4.53-1.48-6.86-5.27-9.19,4.69.4,5.08-2.77,5.27-6.58,1.28.35.76,2.47,1.56,3.69Z" fill="#fff"/>
  <path d="M539.13,117.15c4.89-.51,22.23-1.03,25.74,1.47s3.64,14.49,1.35,17.73c-3.9,5.54-32.27,7.21-36-2.15-4.23-10.61-2.35-15.87,8.91-17.05Z" fill="#fff"/>
  <path d="M537.05,59.97c-.05-.19-.95-.06-1.13-1.16-.78-4.95.95-10.65,5.98-12.52,4.61-1.7,22.73-2.68,26.79-.51,2.81,1.5,2.64,12,1.99,14.82-1.66,7.12-22.26,7.18-27.74,6.32-5.06-.79-4.8-3.05-5.89-6.96Z" fill="#fff"/>
  <path d="M489.82,87.57c3.75-.39,17.74-.95,20.2,1.1,2.73,2.27,3.2,14.01.99,16.8-3.21,4.05-28.57,4.91-32.6,2.32-2.91-1.86-2.87-11.51-1.76-14.33,1.53-3.92,9.45-5.49,13.18-5.88Z" fill="#fff"/>
  <path d="M435.53,144.39c-1.86-1.87-1.83-8.59-.19-10.72,2.43-3.16,25.05-4.05,28.29-1.27,2.69,2.31,2.6,9.24-.3,11.51s-25.26,3.02-27.8.48Z" fill="#fff"/>
  <path d="M431.28,232.8c3.86-.6,13.2-.13,16.28,2.44,3.59,2.99,2.79,11.86-2.13,13.03-4.38,1.04-19.49,2.07-20.53-3.52-1.11-5.97-.08-10.95,6.38-11.94Z" fill="#fff"/>
  <path d="M46.16,408.78c-3.53-.81-7.97-2.74-7.93-6.91.05-5.7,9.96,2.74,7.93,6.91Z" fill="#fff"/>
  <path d="M60.62,400.24c-.27,5.13-5.87,7.7-10.51,7.22-2.25-2.02,9.94-7.82,10.51-7.22Z" fill="#fff"/>
  <path d="M52.47,397.36c-.87,2.47-5.44,9.13-4.86,2.71.52-5.77,7.67-10.75,4.86-2.71Z" fill="#fff"/>
  <path d="M55.36,275.35h-6.57v-10.19c0-2.86,3.69-7.38,6.57-8.22v18.4Z" fill="#fff"/>
  <path d="M57.99,257.93c.79-2.31,3.56.39,4.11,1.81.65,1.69,1.71,15.06,1.16,15.61h-5.26v-17.42Z" fill="#fff"/>
  <polygon points="257.2 313.47 264.15 314.75 263.14 323.72 257.49 322.72 257.2 313.47" fill="#fff"/>
  <path d="M273.64,314.13v9.2c-10.33,2.91-5.96-2.37-6.58-9.21h6.58Z" fill="#fff"/>
  <path d="M267.07,301.65c5.15.38,7.22,4.4,6.58,9.21h-6.58v-9.21Z" fill="#fff"/>
  <path d="M264.43,301.65l-.28,8.58-6.29.62c-.64-4.17,2.31-9,6.57-9.2Z" fill="#fff"/>
  <path d="M70.27,702.81c6.63,6.68-3.57,16.39-10.1,10.75-7.11-6.14,3.45-17.45,10.1-10.75ZM63.74,704.03c-2.61.73-4.32,5.74-.99,7.28,8.01,3.7,8.61-9.43.99-7.28Z"/>
  <path d="M133.32,749.65c5.56-6.99,15.95-.55,12.93,6.69-3.47,8.31-20.04,2.25-12.93-6.69ZM136.43,750.13c-2.71,2.15-1.46,6.71,2.1,7.08,8.22.85,3.58-11.59-2.1-7.08Z"/>
  <path d="M63.74,704.03c7.63-2.14,7.02,10.98-.99,7.28-3.33-1.54-1.62-6.55.99-7.28Z" fill="#fff"/>
  <path d="M136.43,750.13c5.68-4.51,10.32,7.93,2.1,7.08-3.56-.37-4.81-4.93-2.1-7.08Z" fill="#fff"/>
</svg>