<?xml version="1.0" encoding="UTF-8"?>
<svg id="Camada_1" xmlns="http://www.w3.org/2000/svg" version="1.1" viewBox="0 0 595.28 841.89">
  <!-- Generator: Adobe Illustrator 29.0.0, SVG Export Plug-In . SVG Version: 2.1.0 Build 186)  -->
  <path d="M594.41-.06v841.27s-594.27,0-594.27,0V-.06h594.27ZM589.3,4.33H5.25v544.78c1.79.05,9.71,1.99,10.22-.38-1.48-2.68-4.3-3.73-5.86-6.54-3.96-7.14-5.71-29.4,6.8-26.53,7.29,1.67,6.58,15.31,15.13,16.28l.74-271.6-5.75-.53c-1.46-.89-1.28-32.41.08-34.03.69-.82,4.52-1.58,4.92-3.83-22.89,11.55-34.69,4.8-12.79-14.63,7.11-6.31,15.32-10.89,23.01-16.04-1.36-.7-3.58,1.45-4.02,1.45h-10.95c-3.72,0-4.92-2.73-3.28-6.05,2.14-4.33,53.12-28.44,61.34-32.27,2.98-1.39,6.16-2.84,9.47-3.31l-6.09-.83c-1.98-.75-1.27-2.53-.52-3.94,2.25-4.17,38.22-21.12,45.04-24.32,8.16-3.83,16.5-7.52,25.08-10.34.34-1.88-.25-1.13-1.02-1.52-2.72-1.38-11.56-1.86-6.94-6.8,4.48-4.8,39.15-17.59,47.4-20.5s17.04-5.25,25.54-7.68c-3.07-2.03-6.25-2.03-3.65-6.94l77.77-31.78,74.74,31.86c4.67,3.26,1.13,4.95-2.11,6.86l39.98,16.96c1.46,5.71-5.39,6.27-9.32,7.16,19.8,10.86,40.99,19.77,59.68,32.74,2.31.78,4.6-4.61,6.37-4.27,3.4.65-1.73,6.03-1.47,6.58l15.36,8.75c-1.27-9.14-3.5-17.62-6.96-25.9-5.28-2.55-38.84-9.9-40.53-12.77-.41-.69-.44-1.43-.33-2.19l42.41-10.54c3.22-5.55,12.47-50.52,14.99-51.46.79-.3,2.56-.27,3.24.23,2.15,1.58,10.17,45.82,13.43,51.55,4.43,2.05,44.98,8.42,44.96,11.29-.02,2.14-7.47,4.37-9.55,5.1-11.31,3.95-23.38,6.45-34.66,10.61l-9.53,34.33,69.3,32.96c3.44,1.7,1.51,7.2-1.36,7.2h-12.78c-.43,1.76.4,1.21.95,1.64,3.54,2.75,9.68,5.42,13.59,8.28s26.15,20.12,9.92,20.82c-5.41.24-11.19-2.75-16.44-3.71l5.8,9.91c.17,1.95-4.34,2.63-4.34,3.59v22.64c-1.52,2.09-3.86.7-5.83.37l-.05,1.87,2.19,240.88c5.62.83,4.83,2.36,6.1,6.82.09.33,1.25.11,1.25.17v12.41c3.38-5.32,15.86-18.59,21.95-10.64.98,1.27.02,3.27,1.41,3.34V4.33ZM367.36,70.06c-24.5-7.13-46.98-19.42-70.44-29.13l-72.65,29.13c1.15,2.03,15.16,1.93,9.77,5.75-26.96,8.75-54.96,16.63-79.86,30.01l17.52,4.04-.75,1.42c-27.22,8.84-52.22,22.78-78.08,34.72.02,1.4,3.03.71,3.91.62,7.2-.71,20.88-6.04,26.43-5.76.8.04,2.46.27,2.5,1.12.06,1.5-24.35,9.33-27.88,10.8-18.54,7.77-47.26,21.08-63.91,31.74-1.49.95-3.47,2.43-4.57,3.82,6.52.25,13.51-.89,19.85-2.41,1.74-.42,11.47-5.49,10.81-1.62-.48,2.83-20.35,13.04-23.98,15.46-5.44,3.62-21.6,15.67-24.54,20.73-.55.94-.43,1.88-.39,2.9,12.03-.62,22.98-8.09,33.26-13.87.97-.09,1.97.9,1.79,1.82-.28,1.41-12.59,11.37-12.41,14.59.64,2.83,11.4-1.92,13.31-2.73,21.7-9.28,41.22-26.73,59.45-41.34l1.62,1.12-5.02,14.12c1.48,1.44,15.83-7.13,18.06-8.58,7.11-4.6,15.46-11.11,22.44-16.25,11.85-8.73,23-18.52,34.67-27.46l2.82,2.14c-1.15,1.07-6.89,10.8-4.63,11.47,9.01-2.32,17.37-7.83,25.11-12.86,13.06-8.46,28.79-20.81,39.84-31.71,2.18-2.15,4.07-8.01,7.67-6.21,4.93,2.45-6.64,11.55-5.09,15.72,13.85-7.73,27.19-17.08,37.94-28.86,1.94-2.12,9.08-13.59,11.34-13.54,15.08,15.37,32.66,29.84,52.17,39.13l-4.99-12.43c1.25-1.86,2.16-2.1,4.24-1.45,1.81.57,13.48,11.91,16.48,14.22,19.46,15.04,41.91,30.03,64.6,39.44,2.54-2.92-9.6-13.07-2.2-13.55,15.93,15.5,32.6,32.08,50.76,44.95,2.88,2.04,23.34,15.8,25.18,13.88.87-4.16-1.45-6.45-2.77-10l2.6-1.96c18.79,13.81,39.06,27.65,61.49,34.59,1.46-1.3-12.31-13.03-13.14-15.32,9.53-.11,18.54,8.06,28.84,7.3,1.04-.14,1.26.39,1.08-1.09-.63-5.05-33.41-25.49-39.81-28.1l-1.06-2.95c6.12.16,12.56,1.86,18.58,2.21,1.98.12,6.13.51,7.69-.75l-66.07-32.15c-1.68-.26-.82.41-1.07,1.1-.94,2.59-2.56,16.37-7.34,13.91-2.74-3.45-2.36-8.58-3.7-12.96-.18-.57-1.15-.55-1.33-1.14-.95-3.09-.47-7.77-3.02-10.71-.65-.75-16.12-9.46-17.29-9.77-2.72-.72-3.27,2.6-6.37,2.79-3.04-1.7,1.14-4.66,1.05-5.49-.43-3.68-58.57-29.27-65.34-34.65l-.33-2.21,12.41-4.38-43.01-17.23c-5.89-3.58,8.49-4.32,5.79-6.14ZM491.8,53.66c-.53-.94-.61-2.35-1.78-2.6l-11.32,43.82-36.88,9.12,35.38,10.62,12.45,48.17,13.81-46.08,39.13-12.72-39.25-8.58c-1.73-2.35-1.61-5.5-2.45-8-3.09-9.16-4.77-26.05-9.09-33.77ZM30.07,255.54L306.76,100.37l-13.51-12.77c-7.98,10.07-17.67,20.51-28.16,28.05-3.8,2.73-21.59,13.85-25.54,11.06l-1.04-4.79c-13.89,11.84-30.17,26.3-46.46,34.58-5.72,2.91-22.46,11.96-20.7-.98-12.05,8.97-23.51,19.1-35.79,27.73-6.71,4.72-27.35,19.79-34.89,17.39l-3.42-7.15c-.16,1.1-.94,2.29-1.78,2.98-11.51,9.44-41.85,30.88-55.72,33.35-2.39.43-7.71,1.18-8.21-1.66-.41-.72-1.47.65-1.47.74v26.65ZM558.63,252.62v-20.45c-18.9-7.78-37.46-17.41-53.66-29.94.08,5.94-3.55,7.46-9.18,6.25-6.78-1.45-30.31-18.65-36.81-23.78-3.81-3.01-26.53-24.48-28.4-24.15-.64.11-.75,3.44-6.56,2.93-8.38-.74-37.92-19.5-46.14-25.08-9.31-6.32-18.37-13.56-26.96-20.87-2.58.61.19,4.82-2.1,6.64-2.7,2.14-9.76-1.6-12.49-2.99-4.42-2.25-23.71-17.23-25.67-17.35l-11.91,6.76c57.36,30.04,114.74,59.82,171.05,91.78,26.48,15.03,58.45,37.77,85.63,49.45,1.06.46,1.97,1.02,3.21.81ZM522,237.41c-74.97-43.85-151.29-85.34-229.11-123.98-75.9,40.71-151.02,82.69-225.66,125.62l.08,166.93c5.59-8.38,6.76-19.05,9.54-28.65,17.09-59.17,22.05-119.89,96.79-130.43,51.11-7.21,97.5,20.74,106.16,72.37,3.49,20.83-7.2,37.51-8.84,57.84-1.82,22.54,9.02,41.82,8.1,64.33-.62,15.08-7.8,24.15-18.8,33.55,2.36,8.43,6.16,15.45,6.99,24.21,1.68,17.82-3.17,31.24-20.45,38.5-2.42,1.01-5.25,2.09-7.92,1.94,2.77,3.14,7.52,5.08,10.69,7.55,1.05.82,2.43,3.91,3.94,4.51,3.29,1.32,11.17-7.21,15.22-7.77-4.78-13.96,3.99-29.8,16.14-36.45-5.86-5.04,2.51-10.8,5.06-15.21,18.51-32.12,25.3-65.12,40.2-97.76,5.03-11.02,9.28-19.12,19.69-26.16l-13.37-11.48c-7.16-11.92-11.14-25.2-15.71-38.39-1.16-3.35-3-13.93-4.53-15.76s-8.92-4.39-12.24-8.94c-4.1-5.64-2.8-11.81-4.89-15.56-1.16-2.08-9.19-6.84-11.22-12.1-8-20.68,8.91-26.72,20.06-36.81,3.23-2.92,6.52-10.8,10.17-14.66,13.85-14.68,25.8-12.9,43.47-16.4,23.65-4.69,35.35-15.31,61.54-2.45,2.84,1.39,11.26,8.35,11.98,8.53,1.67.41,3.25-.83,4.9-.65,18.62,2.07,39.84,14.4,39.81,35.44,0,2.22-1.85,7.81-1.37,9.36.18.57,6.52,5.84,8.06,8.78,3.54,6.77,5.04,15.86,4.19,23.4-.38,3.38-2.81,8.11-2.84,11.02-.09,8.79,6.56,19.77-2.16,28.51-3.27,3.28-10.24,4.41-11.53,5.63-1.02.96-1.4,5.25-2.22,6.9-3.67,7.36-15.17,13.13-22.76,8.26-1.83,2.39-2.69,9.97-.28,11.75.9.67,10.7,2.68,13.07,3.55,30.59,11.3,45.19,29.85,55.76,59.76,2.34,6.62,3.37,13.92,5.54,20.6l-1.22-199.25ZM462.04,215.62c-10.98-7.82-19.9-4.82-29.91-7.71-.58-.17-7.32-5.85-9.64-7.15-23.59-13.17-35.78-3.87-57.86,1.29-15.2,3.55-24.52.37-38.49,11.15-7.74,5.97-9.59,13.95-15.68,19.37-4.17,3.71-10.42,6.01-14.19,10.63-8.47,10.35-5.28,27.73,8.23,31.42-2.23,7.83,2.49,19.88,10.3,22.54,1.03-2.8-2.04-6.49-2.3-7.58-1.95-8.11-2.64-17.17-2.76-25.56l-6.98-3.38c-.67-6.58,5.22-.85,6.6-.7,2.37.26,11.04-4.09,13.09-5.89,3.36-2.94,3.62-7.58,8.33-6.46,4.23,19.75,31.27,5.13,41.23-2.42,1.78-1.35,7.45-8.35,8.9-8.6,3.09-.54-.72,7.59,4.31,10.24,8.4,4.43,21.91-6.53,27.41-12.1,1.74-1.77,3.48-7.69,7.35-5.14.66.44-.41,12.69.3,15.76,1.91,8.22,11.31,12.35,18.5,14.71-.63,8.93-3.12,19.64,8.41,21.84,12.57-22.04,43.2-2.76,29.97,18.85-4.11,6.7-12.48,8.68-19.13,11.53-2.1,7.36-2.33,16.27-5.16,23.32-.44,1.09-1.06,1.7-2.27,1.75,5.39,3.17,11.57-.05,15.33-4.02,3.52-3.72,3.09-8.59,4.36-10.23s6.24-1.74,8.24-2.71c4.88-2.38,7.68-8.9,7.85-14.06.23-6.93-4.1-12.07-2.91-17.38.12-.55,1.34-.58,1.54-1.54,2.66-12.72,2.38-21.98-5.66-32.52-1.35-1.77-4.86-3.71-5.26-4.95-.98-3.01.74-8.53.57-12.26-.38-8.14-6.13-17.42-12.62-22.05ZM418.77,252.3c-2.88-4.24-3.99-8.43-4.32-13.56-6.89,7.19-18.56,14.41-29.05,12.25-4.16-.86-5.54-6.62-7.36-6.36-9.56,9.82-28.39,19.58-42.29,15.85-3.14-.84-6.2-5.91-8.08-5.56-3.63,4.09-7.73,6.06-12.75,8.03-2.13,3.66,3.04,30.24,4.46,35.81.52,2.05,2.39,4.72,2.64,5.54,3.82,12.86,5.9,29.01,22.22,31.46,4.78-4.41,6.19-11.99,13.6-13.1-.56-2.91-.87-5.25-.6-8.27.23-2.65,3.48-24.19,4.67-24.55,6.26-1.86,1.47,16.28,1,19.13-.09.52-1.25.39-1.44,1.64-.52,3.38.48,8.01.03,11.58,7.87,5.84,16.27-1.43,23.32-3.42,18.03-5.08,31.94,9.72,45.26,4.22,9.65-3.98,14.06-29.31,11.59-37.75-.46-1.56-6.53-6.41-7.54-9.23-1.7-4.75-.82-8.91-1.2-13.81-5.47-1.96-10.84-5.04-14.17-9.93ZM542.57,249.7v18.62c0,.59-1.2,2.15-.74,3.29l-2.14-.03-1.14-24.07-11.31-6.57c.22,46.42.25,92.72.69,139.15.33,35.22-.27,66.26,4.47,101.29,1.42,10.51,3.24,22.31,2.91,33.81-.05,1.55-.81,10.82-1.11,11.3-.86,1.35-6.88,2.3-7,3.96l.77,28.88c.68-5.44.65-10.78,1.69-16.2,2.08-10.85,11.01-27.52,18.04-36,1.3-1.57,4.56-3.05,5.87-5.08l-1.48-247.62-9.51-4.72ZM49.78,274.16c-1.49-5.81,1.11-17.93,0-24.46l-13.93,8.38-.68,272.78c4.29-1.13,8.56,1.08,12.1,1.4,1.61.15,3.54-.93,5.76-.69,3.36.36,6.5,1.98,9.89,2.21v-17.89c-11.13-6.9-20.54-21.43-21.89-34.33-2.64-25.11,13.91-45.54,22.62-67.17l-.74-171.97-8.62,4.89c-1.17,9.77-.18,19.1-3.07,27.97-.28.17-1.39-.84-1.45-1.09ZM244.39,267.54c-33.77-25.1-87.28-22.35-119.02,4.82-30.43,26.05-35.27,83.05-47.19,119.87-9.92,30.61-39.49,62.9-30.96,96.28,2.22,8.7,11.33,22.26,20.06,25.21.97.33,1.93.44,2.94.33-4.39-9.23-4.13-24.73-1.58-34.78,5.3-20.88,16.9-29.65,28.33-46.18,30.49-44.11,15.19-111.81,60.91-147.92,25.13-19.84,66.92-24.12,95.23-9.2-2.03-3.34-5.67-6.16-8.73-8.43ZM259.06,285.01c-8.66-7.76-23.62-12.5-35.13-13.42-43.85-3.53-77.62,17.67-91.24,59.2-2.4,7.31-3.8,15.11-5.51,22.6,6.44-2.76,12.7-7.78,17.12-13.18,6.43-7.84,8.71-17.05,13.57-24.96,5.55-9.03,10.17-8.83,4.36,2.36,11.08.18,23.05-2.8,33.13-7.39s20.56-11.38,24.89-21.11c.86-1.93,2.27-11.41,5.52-9.18,3.55,11.48,8.22,18.19,17.56,25.56,17.7,13.95,26.82,16.11,22.24,42.87-3.88,22.7-9.65,46.27-30.84,58.94-4.39,2.62-9.35,4.49-14.1,6.35,20.1,11.18,29.32,35.85,37.89,56.16l1.82.45c28.6-25.12,4.8-57.83,6.25-89.51,1.48-32.5,24.9-66.69-7.52-95.74ZM455.15,308.3c7-1.2,15.45-4.08,18.43-11.14,3.74-8.84.89-19.72-9.67-21-10.86-1.32-8.08,8.82-17.62,9.4.35,13.04-.87,36.72-15.73,41.59-15.52,5.08-25.16-7.14-38.74-5.88-6.18.57-12.16,5.69-18.32,6.5-4.86.64-11.03.3-15.64-1.13-11.18,5.99-5.16,17.92-21.65,10.82-1.48-.64-3-2.01-4.26-3.04,6.46,47.51,80.23,45.95,106.19,16.21,4.54-5.2,12.23-19.38,13.83-25.58,1.42-5.51.26-11.66,3.18-16.75ZM225.71,290.6l-1.42.56c-11.98,21.39-40.95,30.01-64.31,30.46-7.65,15.44-16.74,31.34-34.69,36.12-3.41,12.12,5.09,14.69,15.06,11.3,9.53,38.78,60.23,55.08,93.17,34.16,19.55-12.42,31.98-52.19,27.65-73.94-3.17-15.95-32.17-20.87-35.46-38.66ZM396.2,375.3c-5.21.52-11.13-.38-16.43,0,3.5,8.85,15.3,9.99,23.64,9.41,11.14-.76,26.19-9.35,33.69-17.42.9-.97,7.9-10.3,8.1-10.95.55-1.85-.67-3.65-1.56-5.15-11.33,12.85-30.3,22.41-47.45,24.11ZM492.66,379.22c-10.23-11.21-29.23-18.8-43.82-22.23-5.96,15.45-28.82,30.05-44.81,32.05-7.53.94-22.41-2.71-27.19-8.98-1.34-1.75-1.35-4.46-1.55-4.66-.72-.75-17.67-2.95-20.16-5.09-3.02-.16-6.55,5.01-8.49,6.94-25.14,24.97-27.88,79.4-48.67,109.91l-10.6,16.67,11.34,5.82c2.06-20.27,22.78-33.48,41.57-36.57,1.87-20.16.53-41.9,5.12-61.67.26-1.11,1.3-1.03,1.47-1.61.91-3.17.17-7.66,3.34-10.38l-5.48,73.01c9.07.21,19.05,1.86,27.54,4.95,12.45,4.54,12.1,8.13,27.56,8.95,23.24,1.22,46.8-2.09,69.03-8.41,1.38-1.18.28-10.05-.04-12.28-2.15-15.16-6.85-32.99-9.52-48.31-.39-2.25-1.83-11.81,1.85-10.6,2.04.67,5.52,25.53,6.27,29.38.1.53,1.25.54,1.35,1.1,5.33,28.95,5.69,57.69,3.1,86.95,18.36,6.13,39.63,6.16,58.1.65,2.55-2.43-.52-40.34-1.28-46.17-3.38-26-18.3-80-36.03-99.43ZM137.37,373.84c-5.03,1.8-10.31-.21-14.57-2.92l-9.49,40.89c6.3-4.08,16.64-4.49,22.55-7.74,4.33-2.38,9.55-10.68,8.56-15.65-.52-2.59-7.72-9.86-7.04-14.58ZM150.98,395.32c-.97-.71-2.38-.99-3.36-1.76-.08,7.35-4.76,11.21-10.23,14.98,10.55,17.19,48.04,34.84,56.94,7.66-13.53-1.65-26.55-6.58-37.49-14.75-1.92-1.43-3.97-4.75-5.87-6.13ZM132.84,410.54c-2.95-1.34-21.23,6.43-23.69,8.8-1.55,1.49-4.47,9.78-6.19,12.47-8.41,13.08-20.24,21.43-26.25,36.54-8.48,21.32-8.99,53.08,14.2,64.82,21.63,10.96,70.61,10.22,74.04-21.13.99-9.07-4.15-29.2-16.04-27.77-9.84,1.19-31.8,8.7-41.22,12.84-2.38,1.05-3.35,4.13-6.79,2.32-.49-.55,2.79-3.78,3.18-4.11,5.83-4.95,14.54-6.38,21.51-9.15-.99-2.87,1.53-4.45,1.64-5.31.69-5.51.57-20.72,0-26.38-.1-.94-4.67-5.32.95-6.06,3,.83,3.5,21.42,3.41,25.13-.04,1.49-1.76,11.17-1.12,11.29,7.78-1.63,16.47-5.71,24.42-3.67,7.52-15.47,13.41-32.55,33.26-34.3,7.94-.7,11.19,1.35,17.07,6.26,3.85,3.21,8.2,10.73,10.97,15.47.69,1.17.37,3.47,1.16,4.53,1.32,1.76,6.31,1.5,8.38,1.47l-6.57-35.06c2.4-2.66,6.66,10.58,6.95,11.66,2.14,7.92,2.64,16,2.85,24.17,6.58,1.9,15.66,3.48,20.48,8.72,1.44,1.57,2.88,3.97-.39,3.33-2.08-.41-8.13-4.24-11.5-5.31-5.99-1.91-12.46-2.49-18.4-4.59,6.36,12.54,6.03,21.72,1.49,34.72-2.04,5.83-4.15,11.26-9.89,14.19-3.14-2.15,3.94-7.39,2.54-9.44-6.09-.98-9.64-5.86-14.58-8.79l1.46,1.21c-2.45,32.2,51.44,36,60.8,9.59,8.29-23.37-17.45-81.18-35.51-97.44-1.43-1.28-8.37-6.66-9.68-6.82-4.37-.55-12.56,3.01-17.82,1.44.61,8.91-8.7,15.91-16.75,17.2-13.81,2.22-29.56-3.65-39.7-12.9-2.04-1.86-7.3-9.33-8.69-9.97ZM179.74,461.47c-3-2.84,12.91-8.98,14.83-8.89l.51-1.71c-22.32-2.69-28.04,15.26-35.82,31.23-.27.55-.87.63-1.41.56,5.11,3.35,6.21,7.65,8.27,12.89.11.28,1.18.43,1.41,1.16,1.16,3.65,1.52,6.94,1.26,10.77.42.51,7.88-4.19,8.7-4.8,4.57-3.39,27.61-27.17,28.48-31.4.17-.85.51-3.14-1.04-2.5-2.44,1.01-13.32,12.18-16.43,9.48-.82-3.55,19.71-13.3,16.78-16.06-3.47,0-7.23,1.08-10.42,2.35-2.15.85-9.76,6.79-10.74,3.82-1.36-4.11,16.71-10.68,20.43-9.83-2.65-10.01-22.94,4.7-24.82,2.93ZM210.38,466.59l-1.29.91c.58,1.7.81,3.52.6,5.31-.32,2.79-13.45,17.46-16.44,20.82-1.48,1.66-4.75,2.47-4.77,5.08.9,1.01,10.56,1.99,11.67,2.57.44.23,4.6,6.27,6.24,7.64,1.26,1.05,8.7,6.33,9.83,5.13l2.86-22.21-8.7-25.26ZM394.83,496.07c-7.98-8.03-26.27-16.65-37.39-18.46-23.37-3.8-47.08,7.17-55.05,29.87l10.29-10.51c3.23-1.39,6.25-3.1,9.58-4.29,2.06-.73,9.53-1.81,9.96-2.08.68-.45.65-5.38,3.4-6.47,2.57-1.01-.37,7.55-.39,8.42-.24,9.13,9.54,13.57,17.23,9.87-.29-4.21-2.45-13.19,3.95-12.46-1.15,10.44,3.64,22.38,15.31,22.62.75-.65-.06-11.32,3.3-9.46,3.05,1.68-2.81,14.89,8.02,20.46,2.54,1.31,4.87.97,6.95,2.57-3.96,6.82-7.98,13.65-5.08,22.21,8.35-2.12,13.47,2.05,14.93,10.25,14.81-18.17,11.2-46.22-5.01-62.53ZM469.57,481.92c-25.06,6.74-51.44,10.38-77.39,7.67,5.83,3.16,10.9,9.45,14.38,15,21.23-.72,42.55-2.4,63.02-8.06v-14.61ZM380.5,553.49v-17.16c0-1.43,4.23-7.48,3.65-8.39-2.63-.67-5.81-2.45-7.7-4.36-2.02-2.04-3.61-6.79-3.94-7.01-.77-.52-7.53-.78-10.93-2.94-2.19-1.39-6.15-7.23-7.16-7.52-1.75-.49-4.93,2.03-7.79,2.02-7.92-.03-14.8-5.57-14.69-13.8-8.62,1.26-14.6,3.87-20.82,9.84s-24.12,34.4-24.11,42.38c0,3.69,2.9,9.45,5.85,11.72,12.23,9.41,28.71,12.94,43.1,16.76,3.24.86,8.16,3.7,10.56,4.04,7.73,1.1,19.56-5.65,23.53-12.38,2.42-.61,3.13,3.01,5.06,4.22,8.1,5.09,25.68-5.93,19.78-15.76-.22-.36-4.73-3.62-5.41-3.72-2.84-.44-6.01,2.46-8.98,2.05ZM195.69,504.67l-8.46-3.67c-2.08,1.49-17.8,10.06-18.29,11.02-1.02,1.99.79,7.96-3.07,10.06,9.84.98,20.05-.39,29.49-3.56l.33-13.85ZM469.56,500.91c-20.07,4.62-40.64,7.7-61.32,7.3,2.87,7.2,5.68,13.08,5.45,21.2.75,1.2,14.2,2.15,17.5,8.79.74,1.48.55,4.76,1.31,5.62,2.01,2.28,13.43,1.96,13.77,10.02.21,4.87-2.56,3.63-5.02,6.57.39.69,1.22,1.42,1.26,2.24,1.04,21.48-14.28,51.39-24.68,69.42-4.8,8.32-8.38,16.47-17.61,21.1,3.28,1.6,5.53,7.25,8.21,8.57,4.86,2.39,33.67,2.45,40.31,2,4.42-.3,32.31-4.9,33.18-8.46-10.27-14.19-6.51-22.9,1.6-36.91,3.26-5.62,14.45-18.54,15.81-23.79,1.52-5.89-1.61-14.4-.57-20.65l-14.25,1.52c-6.13-3.63-12.31.11-12.67-9.98-.11-3.15,1.8-6.01,2.1-9.06-18.13,4.42-6.07-19.67-1.58-26.79.03-2.63-3.83-2.32-4.82-3.32-3.26-3.31,1.79-15.03,2.01-19.2.11-2.06-.02-4.13.01-6.19ZM557.64,529.86c3.51-5.21,4.92-15.62,3.84-21.93s-3.96-4.82-7.69-1.63c-9.99,8.56-18.77,30.88-21.5,43.15-.62,2.79-.85,5.58-.67,8.43l13.92-.3c1.88-8.86,5.04-18.17,9.88-25.94.63-1.01,1.87-1.25,2.22-1.77ZM298,514.06l-9.69-4.28c-10.97,6.32-17.73,19.53-17.32,32.01,10.15-1.62,4.5-15.4,12.81-21.14l1.8.34-4.38,15.69,4.9-1.66,11.88-20.96ZM588.57,684.57v16.43s.73.04.73,0v-94.57c-6.29-10.51-14.83-19.88-24.78-27.1l-2.59,1.91c-5.66-2.76,2.48-7.87,4.02-10.06,9.68-13.84,21.59-39.14,19.75-56.08-.47-4.29-1.94-6.05-6.17-3.88-5.06,2.6-20.77,21.52-23.51,26.84-4.91,9.53-6.7,22.69-6.13,33.3.18,3.29,3.97,8.78-1.72,8.45-2.65-4.96-3.66.41-6.38,2.46-3.62,2.73-8.32,5.17-12.77,2.65-1.04-.59-4.71-5.84-5.14-5.87-1.73-.11-6.5,1.65-9.04,1.08l-24.11,34.69c18.3-1.17,38.27,14.34,39.43,32.87,12.57-5.07,26.23-12.61,31.76-25.55,1-2.34-.16-6.59,3.63-7.31,3.84,7.12-4.92,19.32-11.26,22.7l.06.88c6.7,10.2,10.81,23.32,18.87,32.82,2.42,2.85,15.03,11.52,15.34,13.34ZM66.57,518.8c.03,4.75-.02,9.5,0,14.24l7.35-9.19c-.89-4.45-3.81-4.71-7-6.86-2.31-.3-.35,1.48-.35,1.82ZM20.13,527.65c-1.99-2.94-2.45-9.09-6.35-8.49-.18.03-2.45,2.55-2.51,2.72-2.46,6.44-.51,15.51,3.88,20.61,2.08,2.41,6.42,6.92,9.4,2.93.29-.38,3.28-8.51,3.2-8.98-.1-.57-6.54-7.18-7.62-8.78ZM197.98,521.35c-10.76,4.21-21.58,4.71-33.07,4.53-5.24,7.11-12.45,11.55-20.95,14.09.68,2.8,23.78,2.76,27.4,2.59,12.58-.59,25.59-3.28,36.84-8.78-4.65-1.07-9.81-7.77-10.22-12.43ZM589.3,578.32v-54.77l-6.17,25.62c-4.39,5.25-5.04,13.69-10.6,17.83,6.28,2.91,11.95,6.37,16.78,11.32ZM78.09,527.37c-4.2-2.15-3.36,2.75-5.37,5.61-1.12,1.59-2.58,3.11-4.69,2.99l7.74,12.35c6.2-1.74,8.24-10.35,6.19-15.7-.2-.53-3.58-5.1-3.87-5.25ZM515.46,531.69c-12.51.76-25.85,1.6-37.85-2.3-2.07,4.32-5.18,7.9-6.73,12.64-5.64,17.27,5.27,12.36,7.82.52.77-1.04.68-.71,1.46-.03,3.64,3.17-6.57,21.46-2.56,27.04,7.28.74,11.74-21.47,14.24-21.9l1.84,1.85c-.22,6.51-6.66,14.55-8.19,20.3-.26.98-.99.85.52,1.94,5.28-1.84,8.11-4.1,10.7-9,.69-1.31,5.65-17.99,7.17-11.06s-4.54,14.06-8.03,19.33c15.21-4.65,22.62-24.54,19.61-39.32ZM523.59,530.85l-3.54,1.2c1.76,12.03-2.24,25.8-10.34,34.94-1.21,1.37-6.02,4.07-6.43,5.25-1.21,3.48.57,10.97.61,14.85,1.86-2.02,7.5-6.7,8.23-8.99.64-2.01-.46-3.84-.17-5.9,1.14-7.87,10.02-9.24,10.91-11.22,2.64-5.93-.47-23,.73-30.13ZM69.97,545.7c-5.2-10.04-14.52-8.82-23.4-9.81-5.34-.59-5.85-4.46-12.36.18-3.29,2.35-7,11.44-6.36,14.89.1.56,3.45,5.17,4.02,5.48,4.36,2.38,9.24-.64,9.83-5.44l2.25-.44c-3.26,8.51,8.53,15.68,13.07,7.58,1.62-2.89-1.22-4.69,1.17-6.82,5.61,8.83,17.67,5.75,11.79-5.61ZM179.73,596.57h-10.59c-2.71,0-16.56,5.3-16.27,8.41,2.74,4.88,11.89.78,12.98,6.19-6.38.06-27.22,6.9-28.36,13.7-1.43,8.54,24.81.26,26.17,2.38,2.05,3.2-11.61,6.24-8.43,12.41,2.83,5.48,25.47-1.24,31.06,0,2.42,2.02-10.49,6.56-6.5,12.69,3.76,5.78,26.37-2.56,32.34-3.9,3.72,1.15-3.23,8.14-2.52,10.53l1.19,1.81c6.57,4.67,21.75-7.41,26.12-5.7,3.05,1.19-1.74,11.06,5.45,14.99,11.39,6.23,10.64-8.01,12.24-8.57,5.72.95,13.12,8.03,19.61,6.6,9.15-2.01-6.71-15.35-6.9-16.42-.16-.91.53-1.33,1.17-1.77,3.94-1.37,12.6,12.05,19.01,12.35,7.19.34,1.37-9.16,4.36-10.16,3.77,1.64,26.56,10.68,26.56,2.53-3.68-8.3-12.69-13.47-21.48-14.91l-.43-2.26c10.49-3.57,17.49,9.87,25.97,5.84-1.65-9.19,6.94-2.09,11.84-.94,13.17,3.1,13.38-3.3,5.57-11.43l.41-1.9c3.38-2.2,30.46,11.03,23.42-3.51l-10.24-7.44-.74-2.54c1.88-1.73,30.29,7.68,34.32,1.06,2.21-2.81-6.33-8.75-9.04-9.04l-.45-2.24c9.05,0,18.15,4.1,27.69,1.4,1.32-10.64-13.25-17.19-22.21-16.02l-.36-1.82c11.17-6.55,23.29,8.58,32.11,9.57,12.54,1.4-.48-15.17-6.96-15.02l-.34-2.94c1.17-1.17,17.57,3.01,20.81,2.97,8.54-.12,10.99-4.44,4.25-10.15-5.53-4.68-10.2-4.91-16.31-7.07-.93-.33-1.76-.09-1.43-1.44,1.56-5.08,23.27-4.93,26.92-10.37,1.57-5.08-16.18-9.22-19.95-6.13-3.28-2.98,3.38-4.98,6.17-4.33.37-6.81-7.69-9.24-13.42-10.18-1.57.47-1.84,8.5-2.52,10.63-9.32,28.98-32.21,31.1-51.93,48.13-2.68,2.31-2.48,5.57-4.39,8.02-3.81,4.9-26.12,17.92-32.63,21.4-22,11.75-45.95,18.29-70.14,24.08-28.98-5.32-55.67-18.04-84.13-25.05l-.4-1.84,8.42-.72c-1.84-7.59-.72-15.11,2.92-21.9ZM94.07,544.51c.42-1.85.35-3.81.66-5.67l-6.98-2.87c.95,6.44-3.41,9.48-5.84,14.6l10.21,1.47c.16-2.08.26-4.77.8-6.74.16-.56,1.11-.63,1.14-.79ZM239.26,545.07c-7.88-4.71-10.22-3.95-18.65-5.81-1.94-.43-8.41-3.29-9.15-3.29-.69,0-9.79,4.94-12.43,5.79-18.89,6.09-38.8,5.08-58.18,2.79-12.35-1.46-22.88-.18-35.04-2.2-1.3-.22-6.59-2.36-7.11-2.01l-2.06,13.45c14.51,7.6,17.69,23-2.28,24.57-1.25,19.91,8.82,37.56,23.6,50.05,1.24,1.04,12.9,7,10.66,9.06-1.04.06-2.08.06-3.11-.17-6.57-1.47-22.11-17.13-25.98-22.94-3.34-5.03-4.9-11.07-7.77-16.34l-4.75-.71c1.57,10.94,7.54,21.16,4.41,32.53-2.37,8.62-14.71,15.32-22.66,17.84,24.97,18.02,56.52,24,86.87,24.84.56-.55-1.81-9.29-2.39-10.39-1.19-2.24-3.1-2.39-4.04-3.99-3.09-5.24-5.24-18.81-5.29-25.02-23.74-3.65-2.49-20.78,9.52-22.68-13.18-7.11,3.36-14.75,10.81-16.56,5.33-1.3,15.51-.89,18.94-2.23,2.15-.84,5.54-5.6,7.79-7.18,6.19-4.34,16.69-10.15,23.62-13.25,5.16-2.3,15.02-4.42,18.95-6.6,2.13-1.18,2.69-3.99,4.6-5.62,2.42-2.05,8.44-4.93,11.65-5.52-3.21-3.06-6.75-6.14-10.56-8.41ZM284.86,540.35l-22.63,11.67c7.74-.13,15.36,1.11,22.62,3.66-1.25-5.12-2.74-10.29,0-15.33ZM5.25,580.14v17.16l.73-4.38c4.7-.57,2.48,6.38,3.01,9.76,1.18,7.55,4.83,15.72,9.8,21.59,1.84,2.18,5.47,4.02,7.26,6.61-2.15-29.51,38.28-33.8,58.77-24.1-6.68-15.37.31-33.94-11.39-47.41-3.82,3.7-10.87-.5-12.95-.1-.98.19-2.4,6.41-10.32,5.92-6.14-.38-8.9-5.53-9.47-5.64-.71-.14-4.06,1.31-5.88,1.29-5.68-.06-11.52-4.97-9.86-11l-7.28,2.55,3.63,2.57-.41,1.46c-2.12,1.56-11.81-4.82-15.65-2.94l.08,8.69c.51.67,10.18.93,7.52,4.47l-7.61-.02v8.77s10.6-4.36,10.6-4.36l1.11,1.81c-.02,3.52-9.48,5.2-11.7,7.3ZM84.1,575.4c4.68-1.25,19.87.26,21.01-6.4,1.5-8.78-22.01-17.95-29.25-14.8-2.64,3.38.7,3.84,2.39,5.7.75.82,2.08,3.62,2.28,3.71.58.26,10.3-2.08,12.31,1.19l-10.93,1.1,2.2,9.49ZM320.9,582.44c-18.33-19.86-56.75-37.36-81.3-19.44l13.28,1.67c15.89,3.04,35.05,13.72,45.84,25.71,7.9,8.78,12.57,19.57,17.19,30.3l19.94-11.46c-1.13-10.81-7.89-19.13-14.95-26.78ZM438.9,561.52c-1.1.34-14.86,2.1-13.86,3.64,1.58.29,3.22.79,4.61,1.6.96.56,8.19,6.1,8.52,5.71l.73-10.95ZM545.49,562.25c-6.08-4.24-31.75,4.63-29.8,11.98,1.46,5.51,12.83-2.18,15.2-3.94.9.98-6.59,12.65,3.2,11.65,2.7-.28,11.4-7.28,11.4-9.09v-10.59ZM297.74,595.37c-20.66-25.69-59.85-37.22-88.08-16.68,33.45,2.07,64.98,22.02,75.93,54.4l25.49-9.95c-2.05-9.81-7.07-19.96-13.35-27.77ZM589.3,599.5v-15.7c0-2.84-15.43-14.04-19.57-12.65l-3.08,5.33c9,5.94,16.7,14.04,22.66,23.02ZM379.04,575.41c-3.42,1.2-5.84-3-8.64-2.48-2,.37-13.43,11.12-19.09,9.4l6.93,6.95,20.81-13.88ZM337.9,599.01c1.07,2.33.45,5.81,2.81,7.77,31.99-18.35-3.48-28.61-21.53-32.11,3.69,3.64,8.57,7.9,11.54,12.14,1.93,2.75,5.83,9.27,7.18,12.2ZM84.82,578.32v14.61c0,.28,4.16,2.52,5.16,1.14l-.04-15.75h-5.11ZM272.9,616.57c-11.5-17.73-39.67-33.18-60.69-34.58-16.47-1.1-35.03,15.9-32.3,33.03.15.92,1.68,5.02,2.21,5.46,16.77,4.38,33.35,12.52,50.01,16.79,1.99.51,12.63,3.1,13.58,2.93,3-.55,13.08-11.88,19.43-7.83.4,1.82-.46,1.29-1.36,1.89-2.6,1.76-6.32,2.59-9.09,4.07-1.15.61-4.43,1.92-4.14,3.52l30.65-7.32c-2.53-6.08-4.68-12.36-8.31-17.96ZM434.52,586.35h-13.87c8.37,11.55.37,20.25-12.41,13.88,3.13,3.08-.33,10.95-4.02,10.95h-13.14c-.16,0-.89-1.09-1.82-.72,7.47,16.57-15.88,12.66-24.82,10.22,12.64,16.38-4.23,17.9-16.78,13.14,8.24,16.74-11.22,13.58-21.16,10.56-1.53,3.41-3.63,3.57-6.57,5.14,6.7,6.99-.23,13.08-8.32,12.73-2.66-.12-15.75-5.14-16.52-4.34.13,9.03-6.97,9.24-13.87,6.58,1.78,7.09-8.4,6.68-9.88,8.01-1.71,1.54-3.76,13.11-4.36,16.08,32.75-14.81,65.82-28.88,96.98-46.85,17.99-10.38,43.4-25.15,59.56-37.55,7.28-5.58,8.8-8.81,11.01-17.83ZM5.25,605.34v52.58l21-21.53-15.45-15.76-5.54-15.29ZM83.84,610.72c-13.35-10.47-52.87-5.78-53.79,15.48-1.09,25.05,45.82,24.8,56.79,4.19,3.24-6.09,2.63-15.25-3-19.67ZM419.63,621.85c2.14-4.43,4.48-9.38,5.04-14.32-35.3,24.17-71.87,46.42-110.7,64.54-12.79,5.97-36.44,13.27-46.9,20.27-1.31.87-2.02,2.46-3.34,3.37l-3.7,19.89c2.95,3.01,55.71-20.72,62.55-23.97,16.37-7.78,33.71-16.76,49.4-25.81,14.86-8.57,31.65-16.96,40.81-31.45,1.86-2.94,5.31-9.36,6.84-12.53ZM524.62,641.57c-5.03-12.6-20.61-26.2-34.95-23.06-3.72.81-9.43,14.15-9.81,17.93-1.56,15.28,15.73,27.77,29.78,20.3,3.63-1.93,7.85-9.99,9.59-8.72,1.34.97.63,3.32.2,4.62-.64,1.92-7.76,5.48-8.24,8.21,8.38-1.96,16.05-5.05,15.31-14.96-.23-3.12-1.42-3.17-1.88-4.31ZM153.45,632.37c-1.44.5-6.46-1.23-6.57,1.07-.08,1.69,1.9,10.85,2.51,12.87.39,1.3,1.53,1.24,1.81,1.97,1.08,2.84.55,7.24,3.91,9.08,20.43,7.32,41.02,14.54,61.86,20.64,10.58,3.1,30.75,9.97,40.7,11.15,6.91.82,4.49-4.28,6.09-8.74.23-.65,1.22-.65,1.51-1.59.68-2.25.87-4.67,1.97-6.81l-10.11-5.32c-5.1,15.28-24.55,9.08-22.64-6.58-8.07,1.14-14.69,7.16-23.41,4.81-6.5-1.76-6.4-5.72-4.68-11.36-7.07,4.12-35.48,9.3-31.74-5.33.15-.57,2.85-1.61,2.16-3.44-9.68.28-33.11,4.57-23.36-12.41ZM5.25,664.12v172.71h584.05v-71.57c-5.4,1.96-13.48-.29-12.41-7.3-11.52-.29-18.3-1.9-14.38-14.75,1.91-6.28,4.78-8.53,6.14-16.5,2.71-15.93,2.05-32.76,4.51-48.75-7.96-11.11-15.2-22.52-20.54-35.18-3.86-2.72-6.87,1.97-10.27,3.58-2.28,1.08-11.49,4.15-12.46,4.9-.78.6-.39,2.76-1.26,4.01-5.88,8.55-19.88,9.61-29.29,8.3-4.05-.56-10.96-4.86-13.24-4.87-2.94-.02-12.13,4.21-16.06,5.16-19.32,4.65-37.68,5-57.4,2.83l15.32,22.62c-1.51,1.97-16.12,10.51-18.66,10.91s-18.09-1.25-20.25-2.28c-3.38-1.62-13.91-19.94-18.3-23.68-.94-.8-2.19-1.86-3.56-1.62l-84.92,41.51c6.24,11.55,13.81,22.11,20.59,33.51,1.76,2.97,8.67,8.33,3.87,12.09-1.02.8-16.42,6.99-17.83,7.05-2.33.1-23.67-5.09-25-6.1-1.81-1.38-12.43-22.83-14.59-26.63-2.79-4.89-6.28-9.83-8.45-15.31l-28.04-8.09c-2.79.17-16.53,24.82-24.32,28.66-1.85.91-20.39,7-21.52,7s-19.36-6.9-20.1-7.68c-2.17-2.31.17-5.93,1.59-7.96,5.66-8.09,13.82-16.51,19.36-24.03,2.13-2.9,3.74-7.17,6.8-9.66-8.09-5.6-12.18-12.9-17.32-20.77-17,.24-34.06-1.74-50.4-6.4-14.15-4.04-30.79-10.31-40.81-21.31-12.44,2.04-27.11.39-35.73-9.47-4.03-.77-20.97,21.91-25.1,25.09ZM397.88,655.87c-2.08-1.09-14.52,7.29-14.41,8.18l24.43,31.12c2.29,2.09,14.78-6.11,14.65-7.34l-24.67-31.95ZM256.87,711c1.52-5.11,1.64-11.32,3.8-16.36l-1.12-1.55-101.71-30.07c4.19,14.68,9.07,25.48,23.45,32.41,21.78,10.49,50.11,16.03,73.6,21.6.92-1.56.38-3.91.82-5.27.19-.57,1.1-.59,1.16-.77ZM381.11,666.05l-7.84,4.06c-.62,2.59,4.62,6.57,5.78,8.1,1.56,2.07,10.95,15.6,11.84,16.05,2.11,1.08,10.91,1.57,13.7,1.63l-23.49-29.83ZM583.2,683.73c-.25-.24-6.09-3.45-6.31-3.17l-2.14,36.19c-3.69,5.53-1.01,14.45-4.99,20.41.18,1.8,11.64,5.03,12.92,3.96,1.33-15.51,4.17-32.19,2.95-47.77-.21-2.65-.65-7.9-2.43-9.62ZM193.6,703.93l-15.33-5.54-28.47,37.65c4.31.05,14.01,6.59,17.51,4.74l26.29-36.85ZM589.3,748.47v-46.74l-.74,22.26c.09,6.14-3.28,15.61-2.96,21.23.08,1.35,2.74,2.32,3.71,3.25ZM208.2,709.05l-11.56-2.81-24.19,33.85c8.27-1.93,14.55-3.02,20.32-9.61,5.31-6.07,9.91-15.28,15.43-21.42ZM278.15,715.73c-5.55.06-10.72,2.36-15.95,3.93l27.32,43.42,14.31-6.93-25.69-40.41ZM263.98,731.39c-2.01-3.35-3.36-6.97-5.4-10.31l-13.15-1.45c7.62,12.78,13.55,26.96,22.81,38.53l14.43,3.45c-5.9-10.25-12.61-20.09-18.69-30.22ZM579.81,744.82l-11.22-2.87c-6.1,8.05-.28,13.37,8.56,12.26l2.65-9.39ZM589.3,751.39l-5.84-1.46c.31,4.35-3.63,6.12-2.1,10.87l7.94,2.28v-11.68Z"/>
  <polygon points="594.41 -.06 595.14 -.06 595.14 841.94 .14 841.94 .14 841.21 594.41 841.22 594.41 -.06" fill="#fff"/>
  <path d="M5.25,664.12c4.13-3.18,21.07-25.86,25.1-25.09,8.62,9.85,23.29,11.51,35.73,9.47,10.02,11,26.66,17.27,40.81,21.31,16.34,4.67,33.4,6.64,50.4,6.4,5.14,7.87,9.23,15.17,17.32,20.77-3.06,2.49-4.66,6.76-6.8,9.66-5.54,7.52-13.7,15.94-19.36,24.03-1.42,2.03-3.76,5.65-1.59,7.96.74.78,19.02,7.68,20.1,7.68,1.13,0,19.67-6.09,21.52-7,7.79-3.84,21.53-28.49,24.32-28.66l28.04,8.09c2.17,5.48,5.67,10.42,8.45,15.31,2.16,3.79,12.78,25.25,14.59,26.63,1.33,1.01,22.67,6.2,25,6.1,1.41-.06,16.81-6.25,17.83-7.05,4.81-3.76-2.11-9.13-3.87-12.09-6.77-11.4-14.35-21.95-20.59-33.51l84.92-41.51c1.37-.24,2.62.81,3.56,1.62,4.39,3.74,14.92,22.07,18.3,23.68,2.16,1.03,17.62,2.7,20.25,2.28s17.15-8.94,18.66-10.91l-15.32-22.62c19.71,2.16,38.08,1.82,57.4-2.83,3.93-.95,13.12-5.17,16.06-5.16,2.28.01,9.19,4.31,13.24,4.87,9.41,1.31,23.41.25,29.29-8.3.86-1.26.47-3.41,1.26-4.01.97-.75,10.18-3.82,12.46-4.9,3.4-1.61,6.41-6.3,10.27-3.58,5.34,12.66,12.58,24.07,20.54,35.18-2.46,15.99-1.79,32.82-4.51,48.75-1.36,7.97-4.23,10.22-6.14,16.5-3.91,12.85,2.87,14.47,14.38,14.75-1.07,7.02,7.01,9.26,12.41,7.3v71.57H5.25v-172.71ZM35.91,659.37c2.98-4.23-17.7-1.27-13.87,2.2l13.87-2.2ZM66.37,663.97c-5.79-4.55-19.3,3.49.93,1.98.09-.06-.74-1.82-.93-1.98ZM545.33,673.46c-3.61-.08-9.3.57-11.5,3.8,1.06,1.66,1.56.72,2.78.62,2.07-.17,12.32-1.4,13.28-2.07v-1.48c-1.5-.54-2.95-.84-4.56-.87ZM37.37,712.32c-.54,4.93.4,10.68,0,15.7-7.45-3.29-11.45-10.61-21.18-6.95-11.31,4.26.76,13.17,6.83,15.82,3.59,1.57,13.25,3.24,14.35,3.9,2.06,1.26,1.17,10.29,5.46,9.13,2.63-.71-1.28-4.96-.05-6.61,10.38-3.17,22.01-7.22,27.42-17.29-.59-6.22-7.93-6.98-13.33-5.89-5.93,1.19-10.99,8.2-15.84,11.53l1.45-22.64h12.78c.39,0,6.66-1.74,7.45-2.04,13.13-5.13,10.24-16.47-3.43-15.49,1.63-3.67,3.02-11.55-1.18-13.79-7.21-3.84-10.36,4.71-11.95,3.57-7.33-14.54-17.05-3.99-14.62,8.76-4.72-1.48-15.55-2.05-15.84,4.86-.38,9.18,15.99,13.41,23.15,13.4.33,1.42-1.35,3.04-1.46,4.01ZM510.46,698.81c2.31-18.44-9.93-16.36-13.89-2.19-5.38-3.47-9.65-8.72-16.78-7.31-.59,6.54,4.12,11.24,7.68,16.06,1.86.4,1.12-2.23.91-3.11-.43-1.8-5.48-9.48-4.93-10.03,4.96,2.36,10.9,5.07,12.49,10.87l2.1.08c-.2-2.14,5.54-15.87,8.03-13.88,2.21,2.46-1.37,14.84.42,15.32,2.23.6,11.19-6.6,14.92-5.82l-6.56,7.67c.22,2.62,12.53-5.65,9.13-9.14-4.1-3.94-9.22.1-13.51,1.46ZM543.3,687.86h11.32c.26,0,1.25-1.1,1.09-1.81-.42-1.9-10.14-1.23-11.98-.45l-.43,2.26ZM115.49,693.34v13.51c4.97.07,8.17-4.89,13.87-4.38l-1.83,7.29c2.76-1.31,7.56-7.9,4.45-10.29-4.32-2.07-8.45.22-12.11,2.26,2.42-11.31-6.36-17.98-12.8-6.56-3.85-2.34-7.68-8.2-12.81-5.4-.28,5.65.15,11.46,3.34,16.33,1.78.41,1.14-2.3,1.11-3.3-.11-3.51-2.14-6.85-1.48-10.56,4.73,1.72,7.41,6.34,8.77,10.95l8.02-10.59,1.46.74ZM358.25,700.66c1.44-2.27,4.22-3.16.08-4.7-4.73,4.2-8.97,9.36-9.24,16l-10.21-5.84,10.58,14.58c1.47-.08,2.39-9,3.03-10.85.84-2.44,4.23-6.8,5.76-9.19ZM371.74,703.2c-2-2.01-14.92,5.87-13.13,10.22,5.11.11,6.4-7.06,12.42-6.92l.72-3.29ZM436.35,707.58c3.72.56,8.54-.4,12.41,0l1.09-2.18c-4.92-1.05-10.76-1.64-15.32.73-.43.6,1.5,1.4,1.82,1.45ZM339.25,719.65c-3.33-4.01-10.68-5.26-15.7-4.76v2.91c6.03-.42,10.69,2.35,15.71,5.1l1.1-2.46c-.04-.42-.86-.48-1.11-.78ZM379.04,714.88c-4.03-.17-11.19.22-12.4,5.1.94.77,7.85-1.56,9.15-2.17,1.16-.54,3.7-1.18,3.26-2.94ZM544.03,722.18h-11.32c-1.16.99-2.21,3.41,0,3.68,1.42.18,14.41-.86,11.31-3.68ZM420.65,724.38c-2.55-.75-16.47-3.04-15.32,1.81.2.85,10.35.87,11.99,1.06l3.33-2.87ZM475.6,738.77c-1.52-1.4-3.01-5.8-6.1-7.4-9.41-4.86-16.66,2.95-12.35,11.98-17.23-6.41-31.14,10.48-8.76,16.08-.49,2.33-5.26,4.72-5.96,6.84-4.33,13.17,10.7,15.53,19.82,10.68-.5,6.34,4.53,9.46,10.23,10.23l-2.94,16.06c-6.97-6.67-12.42-16.11-23.74-16.8-14.7-.89-14.41,8.14-4.75,15.73,11,8.64,40.15,10.78,53.18,6.4,13.18-4.43,27.83-21.95,3.44-19.93-9.34.77-16.7,7.35-23.37,13.13-.67,0,.78-11.98,1.18-13.28.9-2.9,6.73-7.99,6.5-12.28,11.17,9.69,27.71-.36,14.59-12.41,16.97-1.2,18.34-19.19-.73-17.54,6.62-16.42-10.7-17.3-17.98-6.66-.55.17-1.8-.42-2.27-.85ZM223.13,745.25c-1.31-3.88-3.98-10.69-9.08-9.92.85,3.13,3.32,4.87,4.59,8.18.79,2.06,1.52,4.69,1.89,6.87.61,3.58-1.82,10.34,4.43,7.92l12.97-7.98-.6-1.79c-5.08-.47-9.3,2.87-13.06,5.78-.42-.58.3-6.15.04-7.7-.21-1.23-1.12-1.15-1.19-1.36ZM215.07,754.06c-1.94-4.05-3.88-9.16-9.51-9.22-7.42-.09,2.87,4.95,3.77,5.79,2.56,2.36,2.56,6.65,6.9,5.87.76-2.05-.99-2.09-1.16-2.44ZM113.29,747.74c-8.03-.21-10.52,8.52-14.23,13.85-3.35-5.79-11.96-13.15-19.07-12.35s7.85,5.88,8.85,6.52c5.58,3.55,7.09,9.82,11.67,13.9,3.15-3.87,3.17-9.84,6.33-14.13,2.43-3.31,7.1-3.85,6.45-7.78ZM370.74,760.41c-1.33-1.83-5.78-6.12-7.84-7.11-1.08-.52-5.29-2.5-5.05-.07,1.35,3.32,4.84,3.76,7.31,6.57,1.58,1.8,6.43,12.98,7.66,12.77,3.38-3.35,5.57-7.31,9.52-10.2,1.62-1.19,9.59-4.12,7.65-5.86-6.85-.79-12.2,4.95-16.43,9.47-1.54-1.56-1.52-3.79-2.82-5.57ZM111.85,768.19c3.92-4.12,8.66-6.24,13.87-8.39,2.01-.83,5.99-.12,6.56-2.92-.98-4.5-22.61,4.27-20.43,11.31ZM89.2,771.84c1.1-5.89-17.84-14.74-18.98-9.12-.44,2.16,7.57,2.85,9.41,3.72,1.73.81,8.06,7.77,9.56,5.4ZM343.76,763.2c-6.5,2.56,8.42,4.97,10.12,5.7,2.85,1.23,3.54,2.85,5.09,3.68.87.47,1.61.98,1.83-.39.8-5.06-13.31-10.46-17.03-8.99ZM402.4,766.74c-1.8-2.81-19.53,1.91-18.98,6.91.29,2.61,7.55-2.54,8.76-2.91,1.97-.6,12.44-.55,10.22-4ZM120.6,773.3c2.9-.43,6.22-1.36,9.12-1.51,1.73-.09,9.83,2.18,9.13-1.03-.76-3.46-19.91-4.53-18.24,2.54ZM540.72,779.53c-2.62-3.46-3.83-9.06-9.09-8.42.67,3.07,3.42,4.8,5.01,7.76,1.35,2.52,3.74,11.86,6.21,11.13,4.26-8.41,8.6-13.54,17.23-17.8-6.06-3.84-14.06,5.29-16.06,10.58-1.05.64-2.63-2.37-3.3-3.25ZM556.76,787.49c2.4-1.54,12.34-5.4,12.09-6.51-.87-3.8-17.59,2.32-14.59,8.39,1.21,0,1.94-1.51,2.5-1.87ZM260.77,787.17c2.36-3.56-15.52-2.27-17.23-1.59-1.91.76-1.54,2.18-.94,3.72l18.17-2.13ZM182.94,796.38c-3.17-3.98-4.41-10.8-11.24-10.66-.6,3.72,3.83,5.09,5.42,7.33,1.74,2.45,5.21,11.43,7.49,11.54,2.01.09,4.91-6.21,6.33-7.67,3.04-3.15,7.37-5.77,10.68-8.65-5.84-3.48-13.41,6.04-16.41,10.57-.45-1.07-1.62-1.66-2.27-2.46ZM322.82,785.72c-9.32-.03-16.84,10.4-19.72,18.25-2.19-2.27-2.97-5.02-6.05-6.71-.78-.43-6.67-2.77-5.62-.23l12.03,12.06c1.46-.31,7.03-12.48,9.12-14.77.81-.88,11.41-7.65,10.23-8.59ZM51.97,790.83c.14-7.23-26.89-2.67-18.49.61,1.69,1.01,4.07-.61,4.99-.61h13.51ZM162.68,800.59c.39.31,6.9,8.67,6.72,3.16s-17.17-15.01-23.25-12.18l.02,2.89c7.02.19,11.19,1.89,16.51,6.13ZM335.23,794.48c-7.68-.03-16.33,3.66-18.98,11.3l1.98.56c2.48-1.79,5.13-4.73,7.73-6.17,1.43-.79,11.73-3.37,9.27-5.69ZM389.63,801.05c1.78.61,13.03,0,16.06,0,.11,0,1.65-.74,1.82-1.09-.6-3.08-18.59-2.4-18.97-.72-.15.67.63,1.65,1.09,1.81ZM78.98,801.06c-6.93-1.14-14.09-2.18-20.85-.06l-.32,2.96,20.09-1.45,1.08-1.45ZM211.12,800.32c-5.83-.71-15.84,1.71-16.05,8.75,3.43-2.77,12.13-4.68,14.86-6.67.84-.62,1.47-.82,1.2-2.08Z" fill="#fff"/>
  <path d="M589.3,4.33v507.54c-1.38-.07-.43-2.07-1.41-3.34-6.1-7.95-18.57,5.32-21.95,10.64v-12.41c0-.06-1.15.16-1.25-.17-1.26-4.47-.48-5.99-6.1-6.82l-2.19-240.88.05-1.87c1.98.33,4.32,1.73,5.83-.37v-22.64c0-.96,4.5-1.64,4.34-3.59l-5.8-9.91c5.25.96,11.02,3.94,16.44,3.71,16.23-.71-5.88-17.86-9.92-20.82s-10.05-5.52-13.59-8.28c-.55-.43-1.39.13-.95-1.64h12.78c2.86,0,4.79-5.5,1.36-7.2l-69.3-32.96,9.53-34.33c11.28-4.15,23.35-6.66,34.66-10.61,2.08-.72,9.53-2.96,9.55-5.1.03-2.87-40.52-9.25-44.96-11.29-3.27-5.73-11.29-49.97-13.43-51.55-.67-.49-2.45-.52-3.24-.23-2.52.95-11.77,45.91-14.99,51.46l-42.41,10.54c-.11.76-.08,1.5.33,2.19,1.69,2.88,35.25,10.23,40.53,12.77,3.46,8.29,5.68,16.76,6.96,25.9l-15.36-8.75c-.26-.55,4.87-5.93,1.47-6.58-1.77-.34-4.06,5.05-6.37,4.27-18.69-12.97-39.88-21.89-59.68-32.74,3.93-.89,10.78-1.44,9.32-7.16l-39.98-16.96c3.24-1.91,6.78-3.6,2.11-6.86l-74.74-31.86-77.77,31.78c-2.6,4.91.58,4.91,3.65,6.94-8.5,2.43-17.2,4.74-25.54,7.68s-42.92,15.7-47.4,20.5c-4.62,4.95,4.22,5.42,6.94,6.8.77.39,1.36-.35,1.02,1.52-8.58,2.82-16.92,6.51-25.08,10.34-6.82,3.2-42.79,20.15-45.04,24.32-.76,1.41-1.47,3.19.52,3.94l6.09.83c-3.3.48-6.49,1.92-9.47,3.31-8.22,3.84-59.2,27.95-61.34,32.27-1.64,3.32-.44,6.05,3.28,6.05h10.95c.44,0,2.65-2.15,4.02-1.45-7.7,5.15-15.91,9.73-23.01,16.04-21.9,19.43-10.09,26.18,12.79,14.63-.4,2.25-4.23,3.01-4.92,3.83-1.36,1.62-1.54,33.14-.08,34.03l5.75.53-.74,271.6c-8.54-.97-7.84-14.61-15.13-16.28-12.51-2.87-10.76,19.39-6.8,26.53,1.56,2.81,4.38,3.85,5.86,6.54-.5,2.37-8.42.43-10.22.38V4.33h584.05ZM423.57,39.38c-5.12-.73-2.97,5.5-3.72,6.5-.19.26-5.24.65-5.76,2.64-.62,2.02,5.01,1.68,5.71,2.67,1.02,1.46,2.68,17.29,4.5-.86l5.11-1.1c-1.74-4.8-7.37-1.53-5.84-9.85ZM558.63,60.55c.27-3.01-4.42-1.82-5.48-3.64-1.15-1.98.5-8.25-4.75-6.16.46,4.35-.37,7.24-5.1,7.63-.82,3.63,2.97,2.16,4.34,4.04s.07,8.29,4.49,6.47l.99-6.91,5.51-1.42ZM68.19,69.17c-.75-.59-2.26-7.83-2.72-9.34l-2.54-.73c-2.93,7.86-1.93,13.05-12.43,12.42-.9,3.7,5.85,4.64,6.46,7.06.43,1.73-3.27,10.5-.24,11.18.9.2,7.45-6.46,8.76-6.42.67.02,6.47,5.91,9.11,4.23.15-3.56-2.47-7.59-1.31-11.17.64-1.99,6.2-3.43,4.96-4.88-2.02-1.61-8.94-1.47-10.06-2.36ZM168.77,73.7c.02-3.52,1.55-5.21,4.37-6.94-5.67-1.14-2.41-7.73-7.28-7.67.43,5.04-.61,6.15-4.38,8.75,4.98.02,2.85,5.96,7.29,5.85ZM469.57,79.54c1.94-1.91-10.07-11.59-12.21-12.25-1.23-.38-2.6-.15-3.86-.16.08.88-.28,1.94.18,2.75.35.62,10.46,8.65,11.1,8.97,1.07.53,4.25,1.22,4.79.68ZM512.65,86.11c1.59.2,2.84-.62,4.15-1.31s9.47-6.76,10.49-7.76c1.46-1.42,2.68-4.99-.42-4.1-2.65.76-16.82,10.41-14.22,13.17ZM108.14,103.67c-.27-.21-1.53.06-2.14-.04.28,4.2-.66,6.13-5.12,5.85-1.13,3.58,3.21,1.71,4.45,3.38.56.76.56,6.11,2.85,3.92.15-.15-.14-2.96.93-4.2.74-.86,3.89-1.21,4.21-2.01,1.15-2.87-3.39-1.73-4.25-2.71-.46-.52-.37-3.77-.92-4.2ZM526.44,138.63c.53-.31.81-2.27.15-3.24-.79-1.15-11.12-9.83-12.48-8.37-1.34,3.5,10.58,12.66,12.34,11.61ZM39.56,136.5c-6.54.68-.65,7.89-8.75,9.15-.49,1.96,3.94,1.94,4.76,3.27.73,1.18.35,4.43,2.91,5.85,2.2-.41.54-4.09,1.76-6.08.47-.77,4.06-2.2,5.16-2.69-3.72-3.6-6.49-2.49-5.84-9.49ZM558.6,149.69l-3.62-.05c3.02,7.44-6.07,7.97-6.58,9.13-1.36,3.08,5.26,1.8,6.27,3.23,1.06,1.51-.97,5.64,2.15,5.94,5.23-1.38.7-6.89,7.65-8.46-3.02-3.77-6.34-3.63-5.88-9.8Z" fill="#fff"/>
  <path d="M522,237.41l1.22,199.25c-2.17-6.68-3.2-13.98-5.54-20.6-10.57-29.91-25.17-48.47-55.76-59.76-2.37-.87-12.16-2.89-13.07-3.55-2.42-1.78-1.56-9.37.28-11.75,7.59,4.87,19.09-.9,22.76-8.26.83-1.66,1.2-5.94,2.22-6.9,1.29-1.22,8.26-2.35,11.53-5.63,8.72-8.74,2.07-19.72,2.16-28.51.03-2.92,2.46-7.64,2.84-11.02.84-7.54-.65-16.64-4.19-23.4-1.54-2.94-7.88-8.21-8.06-8.78-.48-1.55,1.36-7.14,1.37-9.36.03-21.04-21.19-33.38-39.81-35.44-1.66-.18-3.24,1.06-4.9.65-.72-.18-9.14-7.13-11.98-8.53-26.19-12.86-37.89-2.24-61.54,2.45-17.67,3.51-29.62,1.73-43.47,16.4-3.64,3.86-6.94,11.74-10.17,14.66-11.15,10.09-28.05,16.13-20.06,36.81,2.03,5.26,10.06,10.02,11.22,12.1,2.09,3.74.79,9.92,4.89,15.56,3.31,4.55,10.66,7.05,12.24,8.94s3.37,12.42,4.53,15.76c4.57,13.19,8.55,26.47,15.71,38.39l13.37,11.48c-10.41,7.04-14.66,15.14-19.69,26.16-14.9,32.64-21.69,65.64-40.2,97.76-2.54,4.41-10.92,10.18-5.06,15.21-12.15,6.64-20.92,22.49-16.14,36.45-4.04.56-11.93,9.09-15.22,7.77-1.52-.61-2.89-3.69-3.94-4.51-3.17-2.47-7.92-4.41-10.69-7.55,2.67.15,5.51-.93,7.92-1.94,17.28-7.26,22.13-20.68,20.45-38.5-.83-8.76-4.63-15.77-6.99-24.21,11.01-9.4,18.18-18.47,18.8-33.55.93-22.51-9.91-41.79-8.1-64.33,1.64-20.34,12.33-37.02,8.84-57.84-8.66-51.63-55.05-79.58-106.16-72.37-74.74,10.54-79.7,71.26-96.79,130.43-2.77,9.61-3.95,20.27-9.54,28.65l-.08-166.93c74.64-42.93,149.76-84.91,225.66-125.62,77.81,38.64,154.14,80.13,229.11,123.98ZM310.41,147.47l-8.07-1.06-2.11-6.68c-5.72-1.19-2.37,3.77-5.14,6.65l-6.57,1.1c-1.35,1.42,3.81,2.62,4.29,4.14.66,2.1-1.93,5.9-1.03,8.27,1.36,2.09,6.08-2.8,7.34-2.74.89.04,4.67,5.72,7.64,4.19l-2.18-9.48c1.18-.27,6.95-2.69,5.83-4.39ZM245.5,176.61c-.45-.41.15-6.19-3.71-5.05.89,4.65-1.61,6.08-5.84,6.59-.4,4.36,7.78,1.9,6.57,8.75,5.65-.2.09-7.78,7.99-7.35,1.35-3.75-4.25-2.24-5.02-2.94ZM349.09,172.29c-.21-.17-1.57.09-2.17,0l-.08,5.04-5.01,1.9c2.49-.02,7.22,9.2,8.02,6.55-.71-4.22,1.22-5.65,5.1-6.2l-.9-1.65-4.14-.61c-.22-.84-.62-4.88-.82-5.04ZM195.22,199.89c-.67-1.36.65-3.75-1.25-4.95-.5,4.02-9.01,5.75-6.16,8.33.45.41,1.61.29,2.44,1.25,1.46,1.69,1.5,5.18,4.08,4.29-.42-3.2.36-4.68,3.63-5.15,1.03-2.58-2.45-3.2-2.74-3.77ZM291.59,210.12c-.97-.71-.52-3.95-1.26-4.96-2.96-4.03-3.4,4.53-4.12,5-.83.54-3.36-.53-4.26,1.21-.46,2,4,1.94,4.76,3.26s-.17,4.61,1.46,5.12c3.21,1,2.79-4.55,4.32-5.91.82-.73,4.42-.46,2.29-2.9-.79-.9-2.6-.41-3.17-.83ZM138.85,232.17c-6.33.12-4.9-1.77-6.57-5.47-2.69-5.94-3.28,3.92-3.99,4.76-1,1.17-5.26.23-4.76,2.53.32,1.46,4.8,1.87,5.67,2.74,1.37,1.37.7,6.55,4.55,5.67-1.55-6.77,2.35-5.87,5.11-10.22ZM251.19,225.69c-.4-.29-2.98-.27-3.45.02-1.18,5.54-.08,6.02-5.22,9.02,4.97.92,5.71,3.51,7.67,7.66,3.08-.5.98-4.2,2.47-6.27.92-1.28,4.15-1.2,5.17-2.85l-5.83-1.09c.13-1.11-.32-6.12-.81-6.48ZM504.61,244.58c-4.15-.34-1.02,4.85-7.29,4.4-.36,4.38,5.21,1.95,3.64,7.3l3.61-.05c-.17-3.25,1.17-4.65,4.42-4.34.69-3.74-5.45-2.2-4.39-7.3ZM92.14,262.1c-.25-.25.42-6.32-2.93-5.82l-.11,5.73-5,.85.09,2.82c5.93.15,3.85,2.78,6.12,6.66,2.7.65,1.41-5.1,1.9-5.76.17-.23,4.49-.75,5.01-2.64-.69-2.26-4.85-1.62-5.08-1.84ZM501.62,336.68c-.33-.24-2.36-.24-2.75.02-.94,5.16-1.5,5.37-5.94,7.57-.45,2.15,4.08,2.34,4.29,2.63.87,1.17-1.42,8.24,3.58,6.32,1.49-1.38,1.48-4.75,2.28-5.91.74-1.08,3.23-1,3.66-2.37.92-2.95-2.94-2-3.97-3.22-.74-.88-.78-4.75-1.16-5.04ZM299.3,347.71c1.35,1.02.11,5.18,1.99,6.4,1.72-4.84,2.39-5.42,6.93-7.66.44-2.09-3.4-1.54-4.06-2.5-.87-1.26.44-4.72-2.14-5.87-2.64,3.98-.65,7.08-6.93,7.3-.66,2.6,3.18,1.56,4.21,2.34ZM300.23,395.71l-1.85-7.2c-4.2,2.65-1.82,7.53-8.4,9.08-.46,1.92,3.55,1.95,4.4,2.89,1.66,1.83.03,7.41,4.69,7.71,1.42-.24.81-6,1.48-7.34.85-1.71,5.68-1.43,3.61-4.42l-3.92-.71Z" fill="#fff"/>
  <path d="M367.36,70.06c2.7,1.82-11.68,2.57-5.79,6.14l43.01,17.23-12.41,4.38.33,2.21c6.77,5.37,64.91,30.97,65.34,34.65.1.83-4.09,3.79-1.05,5.49,3.1-.19,3.65-3.5,6.37-2.79,1.18.31,16.64,9.02,17.29,9.77,2.56,2.95,2.08,7.63,3.02,10.71.18.59,1.15.57,1.33,1.14,1.35,4.37.96,9.51,3.7,12.96,4.78,2.45,6.4-11.32,7.34-13.91.25-.69-.61-1.36,1.07-1.1l66.07,32.15c-1.56,1.26-5.71.86-7.69.75-6.02-.35-12.47-2.05-18.58-2.21l1.06,2.95c6.4,2.61,39.18,23.05,39.81,28.1.18,1.48-.04.95-1.08,1.09-10.3.75-19.31-7.41-28.84-7.3.83,2.29,14.6,14.02,13.14,15.32-22.44-6.94-42.71-20.78-61.49-34.59l-2.6,1.96c1.32,3.55,3.64,5.84,2.77,10-1.83,1.91-22.3-11.84-25.18-13.88-18.16-12.87-34.83-29.44-50.76-44.95-7.4.47,4.74,10.62,2.2,13.55-22.69-9.41-45.14-24.4-64.6-39.44-2.99-2.31-14.67-13.65-16.48-14.22-2.08-.66-2.99-.42-4.24,1.45l4.99,12.43c-19.51-9.28-37.09-23.76-52.17-39.13-2.26-.05-9.4,11.42-11.34,13.54-10.75,11.78-24.09,21.13-37.94,28.86-1.55-4.17,10.02-13.26,5.09-15.72-3.6-1.8-5.49,4.06-7.67,6.21-11.05,10.91-26.78,23.25-39.84,31.71-7.75,5.02-16.11,10.53-25.11,12.86-2.27-.67,3.48-10.4,4.63-11.47l-2.82-2.14c-11.68,8.94-22.83,18.73-34.67,27.46-6.98,5.15-15.34,11.66-22.44,16.25-2.23,1.44-16.59,10.01-18.06,8.58l5.02-14.12-1.62-1.12c-18.23,14.61-37.75,32.06-59.45,41.34-1.91.81-12.67,5.56-13.31,2.73-.18-3.22,12.13-13.18,12.41-14.59.18-.92-.82-1.91-1.79-1.82-10.28,5.77-21.23,13.25-33.26,13.87-.04-1.02-.16-1.95.39-2.9,2.94-5.06,19.1-17.1,24.54-20.73,3.63-2.42,23.5-12.63,23.98-15.46.66-3.88-9.06,1.2-10.81,1.62-6.34,1.52-13.33,2.66-19.85,2.41,1.09-1.39,3.08-2.87,4.57-3.82,16.65-10.66,45.36-23.97,63.91-31.74,3.53-1.48,27.94-9.3,27.88-10.8-.04-.84-1.69-1.08-2.5-1.12-5.55-.28-19.23,5.05-26.43,5.76-.88.09-3.89.78-3.91-.62,25.86-11.95,50.87-25.89,78.08-34.72l.75-1.42-17.52-4.04c24.9-13.38,52.9-21.26,79.86-30.01,5.39-3.82-8.62-3.73-9.77-5.75l72.65-29.13c23.46,9.71,45.94,22,70.44,29.13ZM338.06,75.98c-.29-.42-7.85-3.45-9.31-4.2-.82-.42-5.69-5.63-6.66-2.09-1.06,3.87,12.75,9.95,16.06,8.37-.07-.65.21-1.66-.09-2.09ZM310,77.79c-.93-.85-3.42-4.65-4.35-4.81-4.21.64.58,6.14,2.18,8.05,1.46,1.74,9.27,8.89,10.95,9.56,2.12.86,4.57-.03,2.82-2.34-1.96-2.59-8.78-7.88-11.6-10.47ZM283.4,76.63c-1.3-1.58-11.68,10.68-12.4,12.41,2.25,1.92,14.95-9.3,12.4-12.41ZM238.14,97.07c1.88.22,3.58-.25,5.32-.88,2.95-1.06,18.81-11.84,18.04-14.8l-2.19-.75c-3.73,1.92-6.51,5.35-9.87,7.66-1.39.96-13.56,6.67-11.3,8.77ZM212.58,94.15c-1.29-1.14-18.32,7.3-18.23,9.12.26,4.98,20.22-7.38,18.23-9.12ZM356.79,94.15c-3.25.46,3.75,6.79,4.37,7.3.89.72,15.21,9.81,14.94,5.49-2.5-1.47-18.13-12.95-19.31-12.78ZM219.46,120.01c1.02-1.22,2.55-1.18,1.87-3.96l-27.72,17.89c.82,1.18,1.1,1.04,2.36.94,4.41-.33,20.41-11.23,23.48-14.88ZM391.85,122.22c-.75-.48-1.99-1.94-2.94-1.79l-1.01,1.73c4,5.68,10.63,12.29,18.15,11.41-.29-.79-.61-1.65-1.27-2.21-2.71-2.31-9.75-7.12-12.93-9.15ZM184.84,123.36c-.99-.94-17.7,7.4-19.19,8.76-.87.79-.51,1.22-.52,2.19,1.63,1.48,16.66-6.04,18.5-8.14.83-.94,1.64-.94,1.2-2.81ZM448.39,145.99c2.29-2.11-6.71-4.89-7.93-5.57-2.07-1.14-13.63-8.66-14.69-7.57-.04,1-.17,1.98.38,2.9,1.69,2.86,19.7,12.58,22.25,10.23ZM151.99,148.19c-1.32-.25-2.19.15-3.34.67-2.16.98-21.46,14.42-21.46,15.76,1,1.42,1.48,1.14,2.94.77,2.72-.68,10.89-5.87,13.45-7.75,1.39-1.03,9.78-8.14,8.41-9.45ZM111.83,163.53c-1.87-1.72-18.65,9.39-19.7,13.14,3.77.3,7.85-2.63,11.04-4.65,1.29-.82,10.39-6.9,8.66-8.49ZM472.17,170.41c-.9-.76-9.37-7.53-9.9-6.88-1.85,4.52,11.47,12.93,14.22,12.41.19-.04,1.44-1.06.76-1.47-1.98-1.02-3.43-2.67-5.08-4.06ZM527.11,197.24c-6.67-1.68-13.04-8.34-18.68-10.89-4.86-2.2-4.7,1.03-1.32,3.88,2.3,1.94,18.17,11.76,20.13,9.8.1-.1.14-2.32-.14-2.79ZM68.32,195.95c1.22-1.3,4.27-1.17,3.35-5.41-3.98.66-6.33,4.4-9.03,6.29-1.42,1-11.9,5.56-9.21,8.31,5.74-.52,11.11-5.17,14.88-9.19Z" fill="#fff"/>
  <path d="M492.66,379.22c17.73,19.42,32.65,73.43,36.03,99.43.76,5.83,3.83,43.74,1.28,46.17-18.47,5.51-39.74,5.48-58.1-.65,2.59-29.26,2.24-58-3.1-86.95-.1-.56-1.25-.57-1.35-1.1-.75-3.85-4.24-28.71-6.27-29.38-3.68-1.21-2.24,8.36-1.85,10.6,2.68,15.31,7.37,33.15,9.52,48.31.32,2.23,1.42,11.1.04,12.28-22.23,6.32-45.79,9.63-69.03,8.41-15.46-.81-15.11-4.41-27.56-8.95-8.48-3.09-18.47-4.74-27.54-4.95l5.48-73.01c-3.17,2.71-2.43,7.2-3.34,10.38-.17.58-1.21.51-1.47,1.61-4.59,19.77-3.26,41.52-5.12,61.67-18.78,3.09-39.5,16.3-41.57,36.57l-11.34-5.82,10.6-16.67c20.79-30.51,23.53-84.94,48.67-109.91,1.94-1.93,5.47-7.1,8.49-6.94,2.5,2.14,19.44,4.35,20.16,5.09.2.2.21,2.91,1.55,4.66,4.78,6.27,19.66,9.93,27.19,8.98,15.99-2.01,38.85-16.6,44.81-32.05,14.59,3.43,33.59,11.01,43.82,22.23ZM393.91,451.72c-1.14-2-1.23-5.54-3.92-5.58-2.9,3.64,7.76,22.01,10.64,25.5,1.97,2.39,10.36,11,13.47,9.2,2.54-1.47-3.35-4.29-3.57-4.52-8.36-8.41-10.93-14.66-16.61-24.6Z" fill="#fff"/>
  <path d="M132.84,410.54c1.4.63,6.65,8.1,8.69,9.97,10.14,9.24,25.89,15.12,39.7,12.9,8.05-1.3,17.36-8.29,16.75-17.2,5.26,1.56,13.45-1.99,17.82-1.44,1.31.17,8.25,5.54,9.68,6.82,18.06,16.27,43.8,74.07,35.51,97.44-9.37,26.41-63.26,22.61-60.8-9.59l-1.46-1.21c4.93,2.92,8.48,7.81,14.58,8.79,1.4,2.06-5.68,7.3-2.54,9.44,5.74-2.93,7.86-8.35,9.89-14.19,4.54-13,4.87-22.18-1.49-34.72,5.93,2.1,12.41,2.69,18.4,4.59,3.37,1.07,9.42,4.91,11.5,5.31,3.26.64,1.83-1.76.39-3.33-4.82-5.24-13.91-6.82-20.48-8.72-.21-8.17-.71-16.25-2.85-24.17-.29-1.08-4.55-14.32-6.95-11.66l6.57,35.06c-2.07.02-7.06.28-8.38-1.47-.79-1.06-.48-3.35-1.16-4.53-2.77-4.74-7.12-12.26-10.97-15.47-5.88-4.91-9.13-6.96-17.07-6.26-19.85,1.75-25.74,18.83-33.26,34.3-7.95-2.05-16.64,2.04-24.42,3.67-.64-.12,1.08-9.81,1.12-11.29.09-3.7-.41-24.3-3.41-25.13-5.62.74-1.04,5.11-.95,6.06.57,5.66.69,20.87,0,26.38-.11.87-2.64,2.44-1.64,5.31-6.97,2.77-15.68,4.2-21.51,9.15-.39.33-3.68,3.55-3.18,4.11,3.44,1.81,4.41-1.27,6.79-2.32,9.42-4.14,31.38-11.66,41.22-12.84,11.89-1.43,17.03,18.7,16.04,27.77-3.43,31.35-52.41,32.09-74.04,21.13-23.19-11.74-22.69-43.5-14.2-64.82,6.01-15.12,17.85-23.47,26.25-36.54,1.73-2.69,4.64-10.97,6.19-12.47,2.46-2.37,20.75-10.14,23.69-8.8Z" fill="#fff"/>
  <path d="M239.26,545.07c3.81,2.28,7.34,5.35,10.56,8.41-3.21.58-9.23,3.47-11.65,5.52-1.92,1.62-2.48,4.44-4.6,5.62-3.93,2.18-13.8,4.3-18.95,6.6-6.93,3.1-17.43,8.91-23.62,13.25-2.26,1.58-5.65,6.34-7.79,7.18-3.43,1.34-13.61.94-18.94,2.23-7.45,1.81-24,9.46-10.81,16.56-12.01,1.91-33.26,19.03-9.52,22.68.05,6.21,2.2,19.78,5.29,25.02.94,1.6,2.85,1.75,4.04,3.99.58,1.1,2.95,9.84,2.39,10.39-30.35-.84-61.91-6.82-86.87-24.84,7.95-2.52,20.29-9.22,22.66-17.84,3.12-11.37-2.85-21.59-4.41-32.53l4.75.71c2.87,5.27,4.42,11.31,7.77,16.34,3.86,5.81,19.4,21.46,25.98,22.94,1.03.23,2.07.23,3.11.17,2.24-2.06-9.43-8.01-10.66-9.06-14.78-12.49-24.85-30.14-23.6-50.05,19.97-1.56,16.8-16.97,2.28-24.57l2.06-13.45c.52-.34,5.8,1.8,7.11,2.01,12.16,2.01,22.69.74,35.04,2.2,19.39,2.29,39.29,3.3,58.18-2.79,2.65-.85,11.75-5.79,12.43-5.79.74,0,7.2,2.86,9.15,3.29,8.43,1.86,10.77,1.1,18.65,5.81ZM164.4,559.33l.46,2.82c13.64-.15,25.95,5.18,37.85,11.06,2.37-1.57-.02-3.25-1.55-4.28-3.15-2.11-20.9-9.6-23.98-9.6h-12.78ZM122.05,647.69l-.73-2.55c-3.71-.13-18.73-13.05-20.44-11.32-.61,2.99,5.07,7.06,7.64,8.78,3.82,2.55,8.79,5.57,13.52,5.09Z" fill="#fff"/>
  <path d="M462.04,215.62c6.5,4.63,12.24,13.9,12.62,22.05.18,3.72-1.54,9.25-.57,12.26.4,1.24,3.91,3.18,5.26,4.95,8.04,10.54,8.32,19.8,5.66,32.52-.2.96-1.42.99-1.54,1.54-1.18,5.31,3.14,10.45,2.91,17.38-.17,5.15-2.97,11.68-7.85,14.06-2,.98-6.95,1.05-8.24,2.71s-.84,6.51-4.36,10.23c-3.76,3.97-9.94,7.19-15.33,4.02,1.21-.05,1.83-.66,2.27-1.75,2.83-7.06,3.05-15.97,5.16-23.32,6.65-2.86,15.02-4.83,19.13-11.53,13.24-21.6-17.4-40.89-29.97-18.85-11.53-2.2-9.05-12.91-8.41-21.84-7.19-2.36-16.6-6.49-18.5-14.71-.71-3.06.36-15.32-.3-15.76-3.87-2.55-5.61,3.37-7.35,5.14-5.5,5.57-19.01,16.53-27.41,12.1-5.03-2.66-1.21-10.78-4.31-10.24-1.45.25-7.12,7.26-8.9,8.6-9.96,7.56-37,22.17-41.23,2.42-4.71-1.12-4.97,3.51-8.33,6.46-2.05,1.8-10.72,6.15-13.09,5.89-1.38-.15-7.27-5.88-6.6.7l6.98,3.38c.12,8.39.81,17.45,2.76,25.56.26,1.08,3.33,4.78,2.3,7.58-7.82-2.66-12.53-14.71-10.3-22.54-13.51-3.69-16.7-21.07-8.23-31.42,3.78-4.62,10.02-6.92,14.19-10.63,6.1-5.42,7.94-13.39,15.68-19.37,13.97-10.79,23.29-7.6,38.49-11.15,22.08-5.16,34.27-14.45,57.86-1.29,2.33,1.3,9.07,6.98,9.64,7.15,10.02,2.88,18.94-.12,29.91,7.71Z" fill="#fff"/>
  <path d="M225.71,290.6c3.29,17.79,32.29,22.71,35.46,38.66,4.33,21.74-8.1,61.52-27.65,73.94-32.94,20.92-83.64,4.62-93.17-34.16-9.97,3.39-18.47.82-15.06-11.3,17.95-4.78,27.04-20.68,34.69-36.12,23.36-.45,52.33-9.07,64.31-30.46l1.42-.56ZM200.06,323.56c-5.29-2.44-11.68-1.87-17.15-.22-2.8.85-11.76,4.64-8.54,8.19,3.99-.08,6.6-2.85,10.59-3.95,5.69-1.57,9.66-.42,15.16-1.26l-.07-2.76ZM255.33,331.81c-3.17-3.11-17.83-10.37-19.15-3.61-.56,2.89,9.82,2.99,12.83,4.46,2.12,1.04,5.35,5.28,5.72,5.41,5,1.71,3.55-3.36.59-6.26ZM224.19,346.17c-3.4-2.06-5.07,5.4-5.04,7.6.06,4.75,4.47,10.47,5.08,13.3,1.93,9.06-6.59,10.5-12.72,6.04-4.01,9.17,15.22,8.53,16.98.93,2.01-8.65-3-11.75-4.04-18.27-.34-2.09.81-8.96-.26-9.61ZM191.02,353.71c-1.21.93-1.99,2.98-4.02,3.66-8.11,2.71-9.1-8.48-13.38-6.84-5.75,2.21,5.96,12.02,10.22,12.33,4.83.34,13.86-6.07,11.95-11.65-2.63-.46-3.24,1.34-4.77,2.51ZM235.58,354.14c-.25,0-1.58,1.47-1.71,1.99.61,8.11,6.58,12.13,14.27,8.37,2.14-1.05,7.9-6.34,2.91-7.32-2.83.5-5.06,4.43-7.99,4.12-4.39-.46-6.11-7.17-7.48-7.16ZM193.49,380.54c-.7-.41-2.89-.24-3.57.22-3.42,2.32,6.43,10.87,8.65,11.85,5.26,2.31,13.83,2.53,18.9-.36,1.2-.68,5.35-4.21,2.04-4.55-5.01-.52-7.99,4.35-16.57,2-7.64-2.1-7.58-8.05-9.45-9.15Z" fill="#fff"/>
  <path d="M469.56,500.91c-.03,2.05.1,4.13-.01,6.19-.22,4.17-5.27,15.88-2.01,19.2.98,1,4.85.69,4.82,3.32-4.49,7.12-16.56,31.21,1.58,26.79-.3,3.06-2.21,5.91-2.1,9.06.36,10.09,6.54,6.35,12.67,9.98l14.25-1.52c-1.04,6.25,2.1,14.76.57,20.65-1.36,5.25-12.55,18.17-15.81,23.79-8.12,14.01-11.87,22.72-1.6,36.91-.86,3.56-28.75,8.16-33.18,8.46-6.64.44-35.45.39-40.31-2-2.68-1.32-4.93-6.97-8.21-8.57,9.23-4.63,12.82-12.78,17.61-21.1,10.4-18.03,25.72-47.94,24.68-69.42-.04-.81-.87-1.54-1.26-2.24,2.46-2.94,5.23-1.71,5.02-6.57-.34-8.06-11.76-7.74-13.77-10.02-.76-.87-.58-4.14-1.31-5.62-3.3-6.64-16.74-7.59-17.5-8.79.23-8.11-2.58-13.99-5.45-21.2,20.68.4,41.25-2.68,61.32-7.3Z" fill="#fff"/>
  <path d="M179.73,596.57c-3.65,6.79-4.76,14.32-2.92,21.9l-8.42.72.4,1.84c28.46,7.02,55.16,19.73,84.13,25.05,24.19-5.79,48.14-12.32,70.14-24.08,6.51-3.48,28.82-16.5,32.63-21.4,1.91-2.45,1.71-5.71,4.39-8.02,19.72-17.03,42.61-19.16,51.93-48.13.69-2.13.95-10.16,2.52-10.63,5.73.94,13.79,3.37,13.42,10.18-2.79-.66-9.45,1.35-6.17,4.33,3.78-3.08,21.52,1.06,19.95,6.13-3.65,5.44-25.36,5.28-26.92,10.37-.32,1.35.5,1.11,1.43,1.44,6.11,2.17,10.79,2.4,16.31,7.07,6.74,5.7,4.29,10.03-4.25,10.15-3.24.04-19.64-4.14-20.81-2.97l.34,2.94c6.48-.15,19.5,16.43,6.96,15.02-8.83-.99-20.95-16.11-32.11-9.57l.36,1.82c8.96-1.17,23.53,5.38,22.21,16.02-9.54,2.7-18.64-1.39-27.69-1.4l.45,2.24c2.71.3,11.25,6.23,9.04,9.04-4.03,6.62-32.44-2.79-34.32-1.06l.74,2.54,10.24,7.44c7.04,14.54-20.04,1.31-23.42,3.51l-.41,1.9c7.81,8.13,7.61,14.53-5.57,11.43-4.89-1.15-13.48-8.25-11.84.94-8.48,4.02-15.48-9.42-25.97-5.84l.43,2.26c8.79,1.44,17.79,6.61,21.48,14.91,0,8.15-22.79-.89-26.56-2.53-3,1,2.82,10.5-4.36,10.16-6.4-.3-15.07-13.72-19.01-12.35-.63.44-1.32.87-1.17,1.77.19,1.08,16.05,14.42,6.9,16.42-6.49,1.42-13.9-5.66-19.61-6.6-1.6.56-.86,14.79-12.24,8.57-7.19-3.93-2.41-13.8-5.45-14.99-4.37-1.71-19.55,10.37-26.12,5.7l-1.19-1.81c-.71-2.39,6.24-9.38,2.52-10.53-5.97,1.33-28.58,9.67-32.34,3.9-3.99-6.13,8.91-10.66,6.5-12.69-5.59-1.24-28.22,5.48-31.06,0-3.19-6.17,10.48-9.2,8.43-12.41-1.35-2.12-27.6,6.17-26.17-2.38,1.14-6.81,21.98-13.65,28.36-13.7-1.1-5.41-10.25-1.31-12.98-6.19-.29-3.11,13.57-8.41,16.27-8.41h10.59Z" fill="#fff"/>
  <path d="M418.77,252.3c3.33,4.89,8.7,7.98,14.17,9.93.38,4.9-.5,9.05,1.2,13.81,1.01,2.82,7.08,7.67,7.54,9.23,2.47,8.44-1.94,33.77-11.59,37.75-13.33,5.5-27.23-9.3-45.26-4.22-7.05,1.99-15.45,9.26-23.32,3.42.45-3.57-.54-8.2-.03-11.58.19-1.25,1.35-1.12,1.44-1.64.48-2.85,5.26-20.99-1-19.13-1.2.36-4.44,21.9-4.67,24.55-.27,3.02.05,5.36.6,8.27-7.41,1.11-8.82,8.69-13.6,13.1-16.32-2.45-18.4-18.6-22.22-31.46-.24-.82-2.12-3.49-2.64-5.54-1.42-5.58-6.59-32.15-4.46-35.81,5.03-1.97,9.12-3.94,12.75-8.03,1.88-.34,4.94,4.72,8.08,5.56,13.91,3.72,32.73-6.04,42.29-15.85,1.82-.27,3.19,5.5,7.36,6.36,10.49,2.16,22.16-5.06,29.05-12.25.33,5.13,1.44,9.32,4.32,13.56ZM394.21,262.99c-3.05.17-9.78,2.19-9.75,6.06.21,4.34,12.19,1.55,16.1,1.84,2.47.18,18.44,5.27,12.09-1.87-3.01-3.39-14.04-6.27-18.43-6.03ZM346.73,277.26c.31-.34.9-2.59.78-3.02-5.37-6.99-25.93,6.31-24.57,12.17,1.08,4.65,10.79-4.19,13.25-5.44,2-1.02,9.37-2.41,10.53-3.7ZM403.65,291.54c-1.29-1.06-4.68-1.94-6.38-1.38-6.2,4.34-3.04,13.29,2.35,16.78,8.09.89,8.61-11.62,4.02-15.39ZM337.86,312.07c1.23,1.24,1.81,2.93,4.15,2.5,5.69-.8,4.19-16.61-.73-17.28-7.83-1.06-8.44,9.72-3.42,14.79Z" fill="#fff"/>
  <path d="M259.06,285.01c32.42,29.05,9,63.24,7.52,95.74-1.45,31.68,22.36,64.39-6.25,89.51l-1.82-.45c-8.57-20.3-17.8-44.98-37.89-56.16,4.75-1.86,9.71-3.73,14.1-6.35,21.19-12.66,26.96-36.23,30.84-58.94,4.57-26.75-4.54-28.91-22.24-42.87-9.34-7.37-14.02-14.08-17.56-25.56-3.25-2.24-4.66,7.25-5.52,9.18-4.33,9.73-15.33,16.75-24.89,21.11-10.08,4.58-22.04,7.57-33.13,7.39,5.82-11.19,1.2-11.39-4.36-2.36-4.86,7.91-7.15,17.12-13.57,24.96-4.42,5.39-10.68,10.41-17.12,13.18,1.71-7.49,3.11-15.29,5.51-22.6,13.63-41.54,47.39-62.73,91.24-59.2,11.51.93,26.47,5.66,35.13,13.42ZM256,420.23c-1.28-1.36-1.42-3.01-3.26-.73,1.37,4.49,2.16,9.32,2.83,13.95.51,3.56-1.46,8.39,2.64,9.76,4.06-1.96.8-19.78-2.21-22.98Z" fill="#fff"/>
  <path d="M588.57,684.57c-.32-1.82-12.92-10.49-15.34-13.34-8.06-9.49-12.17-22.62-18.87-32.82l-.06-.88c6.34-3.38,15.1-15.58,11.26-22.7-3.79.72-2.63,4.97-3.63,7.31-5.53,12.94-19.19,20.47-31.76,25.55-1.16-18.53-21.13-34.04-39.43-32.87l24.11-34.69c2.54.57,7.31-1.19,9.04-1.08.43.03,4.09,5.28,5.14,5.87,4.45,2.51,9.15.08,12.77-2.65,2.72-2.05,3.73-7.42,6.38-2.46,5.69.34,1.89-5.16,1.72-8.45-.57-10.61,1.23-23.77,6.13-33.3,2.74-5.32,18.45-24.24,23.51-26.84,4.23-2.17,5.71-.42,6.17,3.88,1.84,16.94-10.07,42.24-19.75,56.08-1.53,2.19-9.68,7.3-4.02,10.06l2.59-1.91c9.95,7.21,18.49,16.59,24.78,27.1v94.57s-.73.04-.73,0v-16.43ZM573.23,530.85c-1.37-.29-1.76.7-2.49,1.51-4.53,5.04-12.45,24.12-14.21,30.48-.67,2.42-.97,4.91-.81,7.43,2.98,3.33,6.51-13.55,6.94-14.59,1.42-3.54,12.05-23.11,10.58-24.83ZM533.61,602.62c-7.61-3.29-6.03,4.18-9.26,7.62,3.91,13.6,16.43,2.3,9.26-7.62Z" fill="#fff"/>
  <path d="M542.57,249.7l9.51,4.72,1.48,247.62c-1.31,2.03-4.57,3.51-5.87,5.08-7.02,8.48-15.96,25.15-18.04,36-1.04,5.42-1.01,10.76-1.69,16.2l-.77-28.88c.13-1.66,6.14-2.61,7-3.96.31-.48,1.07-9.75,1.11-11.3.34-11.49-1.49-23.3-2.91-33.81-4.74-35.03-4.14-66.08-4.47-101.29-.43-46.43-.46-92.72-.69-139.15l11.31,6.57,1.14,24.07,2.14.03c-.47-1.14.74-2.7.74-3.29v-18.62ZM540.38,297.89c-1.78-.7-2.92,3.7-2.92,4.75v14.61c0,.19.84.73,1.1,1.08.4-.01,1.83-2.85,1.83-3.27v-17.16ZM541.84,398.67c-.31-12.55,2.67-26.67,1.49-39.09-1-10.55-3.83-6.1-4.43,1.46-.46,5.83-.76,31.52.8,35.77.43,1.17.52,2.14,2.14,1.86ZM541.84,437.37c-.76.04-1.59-.23-2.23.32-1.1.96-.86,16.32-.67,19.02.8,11.39,3.54,14.58,4.39.77.42-6.76-.74-13.46-1.49-20.11Z" fill="#fff"/>
  <path d="M49.78,274.16c.06.25,1.17,1.26,1.45,1.09,2.89-8.88,1.91-18.2,3.07-27.97l8.62-4.89.74,171.97c-8.71,21.63-25.26,42.07-22.62,67.17,1.35,12.9,10.76,27.44,21.89,34.33v17.89c-3.39-.22-6.53-1.84-9.89-2.21-2.22-.24-4.15.84-5.76.69-3.54-.32-7.81-2.53-12.1-1.4l.68-272.78,13.93-8.38c1.11,6.54-1.49,18.66,0,24.46ZM43.21,305.93v30.31c0,.51,1.71,1.83,2.58.39,1.73-10.1,1.31-20.52.33-30.7h-2.91ZM51.97,368c-1.93-.22-1.99,1.05-2.22,2.52-1.33,8.54,1.32,19.42.77,28.15l2.94-1.23c.28-9.8,2.19-20.21-1.49-29.43Z" fill="#fff"/>
  <path d="M380.5,553.49c2.97.41,6.14-2.48,8.98-2.05.67.1,5.19,3.36,5.41,3.72,5.9,9.83-11.68,20.85-19.78,15.76-1.93-1.21-2.64-4.84-5.06-4.22-3.97,6.73-15.8,13.48-23.53,12.38-2.4-.34-7.31-3.18-10.56-4.04-14.39-3.82-30.88-7.35-43.1-16.76-2.95-2.27-5.85-8.03-5.85-11.72,0-7.98,17.71-36.23,24.11-42.38s12.21-8.58,20.82-9.84c-.11,8.23,6.77,13.76,14.69,13.8,2.87.01,6.04-2.5,7.79-2.02,1.01.28,4.98,6.12,7.16,7.52,3.4,2.16,10.15,2.42,10.93,2.94.33.23,1.92,4.97,3.94,7.01,1.89,1.91,5.06,3.69,7.7,4.36.57.9-3.65,6.96-3.65,8.39v17.16ZM312.6,512.59c2.68-1.34,14.33,1.09,13.86-1.8-3.76-4.82-9.05-3.69-13.73-.99l-.14,2.79ZM309.68,522.81l-2.23.32c-4.06,11.84,8.05,12.49,14.67,5.85-.25-4.91-4.37-.71-6.27-.36-4.92.91-6.48-.95-6.17-5.81ZM368.81,532.31c1.72-6.26-6.22-12.07-11.67-8.38-.5,2.26,5.75,3.09,6.97,3.97,2.13,1.53,1.42,5.09,4.7,4.42ZM326.47,544.72l-2.91-6.18,7.3-2.21c3.39-2.7-9.3-4.12-10.82.13-1.03,5.41.76,8.37,6.44,8.27ZM346.68,538.39c-.33-.44-1.98-1.53-2.68-1.38-5,2.09,2.73,13.74,11.3,12.07,2.29-.45,6.73-4.29,3.65-6.55-9.77,5.66-8.5.94-12.27-4.14ZM313.87,547.13c-.49-.45-1.13-.63-1.74-.83-4.99,2.01,3.09,9.78,5.79,11.01,4.32,1.98,15.67,2.05,15.13-4.55-6.09.82-8.36,4.07-14.67.43-2.83-1.64-3.17-4.85-4.51-6.06Z" fill="#fff"/>
  <path d="M455.15,308.3c-2.92,5.08-1.76,11.24-3.18,16.75-1.6,6.19-9.29,20.38-13.83,25.58-25.96,29.74-99.73,31.31-106.19-16.21,1.25,1.03,2.78,2.41,4.26,3.04,16.5,7.1,10.48-4.83,21.65-10.82,4.61,1.43,10.78,1.77,15.64,1.13,6.15-.82,12.13-5.93,18.32-6.5,13.58-1.25,23.22,10.97,38.74,5.88,14.87-4.87,16.09-28.55,15.73-41.59,9.54-.58,6.76-10.72,17.62-9.4,10.56,1.28,13.41,12.16,9.67,21-2.98,7.05-11.43,9.94-18.43,11.14ZM396.49,331.55c-2.72-1.46-6.36,3.18-8.93,4.44-9.5,4.62-18.48,3.39-27.8-.76-4.04,3.59,5.51,7.14,8.29,7.63,10.91,1.92,21.24-1.34,28.89-9.16.22-.42-.35-2.09-.44-2.14Z" fill="#fff"/>
  <path d="M272.9,616.57c3.63,5.59,5.78,11.88,8.31,17.96l-30.65,7.32c-.29-1.6,3-2.91,4.14-3.52,2.77-1.47,6.49-2.31,9.09-4.07.9-.61,1.76-.07,1.36-1.89-6.35-4.06-16.44,7.27-19.43,7.83-.95.18-11.6-2.42-13.58-2.93-16.67-4.28-33.25-12.41-50.01-16.79-.53-.44-2.06-4.53-2.21-5.46-2.73-17.13,15.82-34.13,32.3-33.03,21.02,1.4,49.19,16.85,60.69,34.58ZM217.3,615.21c-1.56-1.85-12.11-13.6-13.88-9.14-1.02,2.56,3.9,3.91,5.17,5.12,1.77,1.69,6.51,6.4,7.67,7.79.53.64,7.66,13.84,8.75,10.08-.62-4.61-4.64-10.21-7.71-13.85Z" fill="#fff"/>
  <path d="M558.63,252.62c-1.24.21-2.14-.35-3.21-.81-27.18-11.68-59.15-34.42-85.63-49.45-56.31-31.96-113.69-61.74-171.05-91.78l11.91-6.76c1.96.11,21.25,15.1,25.67,17.35,2.73,1.39,9.79,5.13,12.49,2.99,2.29-1.82-.47-6.02,2.1-6.64,8.59,7.31,17.65,14.55,26.96,20.87,8.22,5.58,37.76,24.34,46.14,25.08,5.8.51,5.92-2.82,6.56-2.93,1.87-.33,24.6,21.15,28.4,24.15,6.5,5.14,30.03,22.33,36.81,23.78,5.63,1.21,9.26-.31,9.18-6.25,16.21,12.53,34.76,22.16,53.66,29.94v20.45Z" fill="#fff"/>
  <path d="M5.25,580.14c2.22-2.11,11.69-3.78,11.7-7.3l-1.11-1.81-10.58,4.36v-8.77s7.6.02,7.6.02c2.66-3.54-7.01-3.8-7.52-4.47l-.08-8.69c3.84-1.88,13.53,4.49,15.65,2.94l.41-1.46-3.63-2.57,7.28-2.55c-1.66,6.03,4.18,10.94,9.86,11,1.82.02,5.18-1.43,5.88-1.29.57.11,3.33,5.26,9.47,5.64,7.92.49,9.34-5.73,10.32-5.92,2.08-.39,9.13,3.8,12.95.1,11.7,13.47,4.71,32.04,11.39,47.41-20.49-9.7-60.92-5.4-58.77,24.1-1.79-2.59-5.42-4.44-7.26-6.61-4.97-5.88-8.63-14.04-9.8-21.59-.53-3.38,1.69-10.33-3.01-9.76l-.73,4.38v-17.16ZM68.95,593.46c6.77,5.67,10.38-8.45,5.16-12.11-7.19-2.59-8.44,9.36-5.16,12.11ZM34.99,582.1c-4.72,1.36-4.8,14.58.56,14.54,6.29-.04,6.77-16.65-.56-14.54Z" fill="#fff"/>
  <path d="M419.63,621.85c-1.53,3.17-4.98,9.59-6.84,12.53-9.16,14.5-25.95,22.88-40.81,31.45-15.69,9.05-33.03,18.03-49.4,25.81-6.83,3.25-59.59,26.98-62.55,23.97l3.7-19.89c1.31-.91,2.03-2.5,3.34-3.37,10.47-7,34.11-14.3,46.9-20.27,38.82-18.12,75.4-40.37,110.7-64.54-.56,4.94-2.9,9.89-5.04,14.32ZM397.62,638.51c1.08-1.24,3.75-1.86.05-3.22-6.91,5.12-16.52,8.33-21.55,15.33,2.04,1.76,19.34-9.64,21.49-12.1ZM354.94,665.22c-1.26-.14-2.44,0-3.66.34s-15.45,7.44-16.57,8.25c-1.34.97-2.02,1.02-1.66,3.08l14.51-5.56,7.38-6.12ZM309.68,684.21l-32.1,14.24c1.06,1.66,1.56.71,2.77.62,4.58-.37,24.07-8.76,27.7-11.75,1.22-1,2.01-1.07,1.63-3.11Z" fill="#fff"/>
  <path d="M394.83,496.07c16.21,16.31,19.82,44.36,5.01,62.53-1.46-8.2-6.59-12.36-14.93-10.25-2.9-8.56,1.11-15.39,5.08-22.21-2.08-1.61-4.41-1.27-6.95-2.57-10.83-5.57-4.97-18.78-8.02-20.46-3.36-1.85-2.55,8.81-3.3,9.46-11.67-.24-16.47-12.18-15.31-22.62-6.41-.73-4.24,8.25-3.95,12.46-7.7,3.7-17.47-.74-17.23-9.87.02-.87,2.96-9.43.39-8.42-2.75,1.08-2.72,6.02-3.4,6.47-.43.28-7.9,1.35-9.96,2.08-3.33,1.19-6.35,2.9-9.58,4.29l-10.29,10.51c7.97-22.71,31.69-33.67,55.05-29.87,11.12,1.81,29.42,10.44,37.39,18.46Z" fill="#fff"/>
  <path d="M297.74,595.37c6.28,7.8,11.29,17.96,13.35,27.77l-25.49,9.95c-10.96-32.38-42.48-52.33-75.93-54.4,28.23-20.54,67.42-9.01,88.08,16.68Z" fill="#fff"/>
  <path d="M491.8,53.66c4.31,7.72,5.99,24.61,9.09,33.77.84,2.49.72,5.64,2.45,8l39.25,8.58-39.13,12.72-13.81,46.08-12.45-48.17-35.38-10.62,36.88-9.12,11.32-43.82c1.17.24,1.26,1.65,1.78,2.6Z" fill="#fff"/>
  <path d="M256.87,711c-.05.18-.97.19-1.16.77-.45,1.37.1,3.71-.82,5.27-23.49-5.57-51.83-11.11-73.6-21.6-14.37-6.92-19.26-17.72-23.45-32.41l101.71,30.07,1.12,1.55c-2.15,5.04-2.28,11.25-3.8,16.36ZM179.98,681.05c1.51,1.71,20.98,8.43,23.82,8.68,1.34.12,1.92.8,2.94-.78l-27.72-10.58c-.13,1.02.32,1.95.97,2.68ZM249.81,706.84c.34-1.71-.83-1.61-1.85-2.15-1.72-.9-15.87-4.9-17.7-4.96-.8-.03-3.04-.37-3.06.91-.03,2.13,19.5,6.46,22.61,6.2Z" fill="#fff"/>
  <path d="M320.9,582.44c7.06,7.65,13.82,15.97,14.95,26.78l-19.94,11.46c-4.61-10.72-9.29-21.52-17.19-30.3-10.79-11.99-29.95-22.67-45.84-25.71l-13.28-1.67c24.55-17.92,62.97-.42,81.3,19.44Z" fill="#fff"/>
  <path d="M434.52,586.35c-2.21,9.02-3.74,12.24-11.01,17.83-16.16,12.4-41.56,27.17-59.56,37.55-31.16,17.97-64.23,32.05-96.98,46.85.6-2.97,2.66-14.55,4.36-16.08,1.48-1.33,11.67-.93,9.88-8.01,6.9,2.66,14,2.46,13.87-6.58.78-.8,13.86,4.22,16.52,4.34,8.09.35,15.01-5.75,8.32-12.73,2.94-1.57,5.04-1.73,6.57-5.14,9.94,3.02,29.4,6.18,21.16-10.56,12.56,4.76,29.43,3.25,16.78-13.14,8.95,2.44,32.3,6.35,24.82-10.22.94-.37,1.66.72,1.82.72h13.14c3.68,0,7.15-7.87,4.02-10.95,12.78,6.36,20.78-2.34,12.41-13.88h13.87Z" fill="#fff"/>
  <path d="M153.45,632.37c-9.76,16.98,13.68,12.69,23.36,12.41.7,1.83-2.01,2.87-2.16,3.44-3.75,14.63,24.66,9.46,31.74,5.33-1.72,5.63-1.82,9.6,4.68,11.36,8.72,2.36,15.34-3.66,23.41-4.81-1.91,15.66,17.54,21.86,22.64,6.58l10.11,5.32c-1.09,2.14-1.28,4.56-1.97,6.81-.28.94-1.27.94-1.51,1.59-1.6,4.46.82,9.56-6.09,8.74-9.95-1.18-30.12-8.05-40.7-11.15-20.84-6.1-41.43-13.32-61.86-20.64-3.36-1.85-2.82-6.24-3.91-9.08-.28-.73-1.42-.66-1.81-1.97-.61-2.02-2.59-11.18-2.51-12.87.11-2.3,5.13-.57,6.57-1.07Z" fill="#fff"/>
  <path d="M83.84,610.72c5.63,4.41,6.24,13.58,3,19.67-10.97,20.61-57.87,20.86-56.79-4.19.92-21.25,40.44-25.95,53.79-15.48ZM50.94,618.8c-.62-.28-1.1-1.13-2.26-1.01-6.29,2.5-.31,11.41,5.01,9.36,3.37-1.29.09-7.06-2.75-8.35ZM72.45,627.22c1.42.93,7.68-3.2,7.26-5.52-1.97-7.93-11.33,2.85-7.26,5.52ZM43.05,631.82c-.76-.8-2.4-1.11-2.73.23-1.48,5.98,11,10.17,15.47,9.64,1.91-.22,8.77-2.31,6.76-4.96-6.56.94-12.88,1.92-18.43-2.37-.56-.43-.48-1.92-1.07-2.54Z" fill="#fff"/>
  <path d="M179.74,461.47c1.87,1.77,22.16-12.94,24.82-2.93-3.72-.85-21.8,5.72-20.43,9.83.99,2.97,8.59-2.96,10.74-3.82,3.19-1.27,6.95-2.34,10.42-2.35,2.92,2.76-17.61,12.51-16.78,16.06,3.11,2.69,14-8.47,16.43-9.48,1.55-.64,1.21,1.65,1.04,2.5-.87,4.22-23.91,28.01-28.48,31.4-.82.61-8.29,5.3-8.7,4.8.27-3.83-.09-7.11-1.26-10.77-.23-.73-1.3-.88-1.41-1.16-2.07-5.23-3.17-9.53-8.27-12.89.54.07,1.14-.01,1.41-.56,7.78-15.98,13.5-33.93,35.82-31.23l-.51,1.71c-1.91-.09-17.83,6.05-14.83,8.89Z" fill="#fff"/>
  <path d="M524.62,641.57c.45,1.14,1.64,1.19,1.88,4.31.74,9.91-6.92,13-15.31,14.96.49-2.73,7.61-6.29,8.24-8.21.43-1.3,1.14-3.65-.2-4.62-1.74-1.26-5.97,6.8-9.59,8.72-14.05,7.47-31.35-5.03-29.78-20.3.39-3.78,6.09-17.11,9.81-17.93,14.34-3.14,29.92,10.47,34.95,23.06ZM492.75,639.09c-2.74-5.03-9.62,1.54-3.11,5.62l3.11-2.29c.41-.76.41-2.57,0-3.33ZM508.75,646.74c4.11-5.73-7.99-7.29-7.86-.14.08,4.43,6.13,2.55,7.86.14Z" fill="#fff"/>
  <path d="M515.46,531.69c3.02,14.78-4.4,34.67-19.61,39.32,3.48-5.27,9.62-12.11,8.03-19.33s-6.48,9.75-7.17,11.06c-2.59,4.91-5.42,7.16-10.7,9-1.51-1.1-.78-.96-.52-1.94,1.53-5.76,7.97-13.8,8.19-20.3l-1.84-1.85c-2.5.43-6.95,22.64-14.24,21.9-4-5.58,6.2-23.86,2.56-27.04-.78-.68-.69-1.01-1.46.03-2.56,11.84-13.46,16.75-7.82-.52,1.55-4.74,4.66-8.32,6.73-12.64,12,3.89,25.34,3.06,37.85,2.3Z" fill="#fff"/>
  <path d="M150.98,395.32c1.9,1.39,3.95,4.7,5.87,6.13,10.94,8.17,23.97,13.1,37.49,14.75-8.91,27.17-46.39,9.53-56.94-7.66,5.46-3.77,10.15-7.63,10.23-14.98.98.78,2.39,1.05,3.36,1.76Z" fill="#fff"/>
  <path d="M469.57,481.92v14.61c-20.47,5.66-41.79,7.34-63.02,8.06-3.48-5.55-8.55-11.84-14.38-15,25.95,2.71,52.34-.92,77.39-7.67Z" fill="#fff"/>
  <path d="M278.15,715.73l25.69,40.41-14.31,6.93-27.32-43.42c5.23-1.57,10.4-3.86,15.95-3.93Z" fill="#fff"/>
  <path d="M557.64,529.86c-.35.52-1.59.76-2.22,1.77-4.84,7.77-8,17.09-9.88,25.94l-13.92.3c-.18-2.86.05-5.64.67-8.43,2.74-12.26,11.51-34.59,21.5-43.15,3.73-3.19,6.66-4.37,7.69,1.63,1.08,6.31-.33,16.73-3.84,21.93Z" fill="#fff"/>
  <path d="M69.97,545.7c5.88,11.36-6.18,14.45-11.79,5.61-2.39,2.14.46,3.93-1.17,6.82-4.54,8.1-16.34.94-13.07-7.58l-2.25.44c-.58,4.8-5.47,7.82-9.83,5.44-.57-.31-3.92-4.92-4.02-5.48-.64-3.45,3.07-12.54,6.36-14.89,6.51-4.64,7.02-.78,12.36-.18,8.88.98,18.21-.24,23.4,9.81Z" fill="#fff"/>
  <path d="M193.6,703.93l-26.29,36.85c-3.5,1.85-13.2-4.69-17.51-4.74l28.47-37.65,15.33,5.54Z" fill="#fff"/>
  <path d="M197.98,521.35c.41,4.66,5.57,11.35,10.22,12.43-11.25,5.5-24.26,8.19-36.84,8.78-3.62.17-26.72.21-27.4-2.59,8.49-2.54,15.71-6.98,20.95-14.09,11.49.18,22.31-.32,33.07-4.53Z" fill="#fff"/>
  <path d="M137.37,373.84c-.68,4.72,6.53,11.99,7.04,14.58.99,4.97-4.23,13.27-8.56,15.65-5.91,3.25-16.25,3.66-22.55,7.74l9.49-40.89c4.27,2.71,9.54,4.72,14.57,2.92Z" fill="#fff"/>
  <path d="M397.88,655.87l24.67,31.95c.13,1.23-12.36,9.43-14.65,7.34l-24.43-31.12c-.11-.88,12.33-9.27,14.41-8.18Z" fill="#fff"/>
  <path d="M210.38,466.59l8.7,25.26-2.86,22.21c-1.13,1.19-8.57-4.08-9.83-5.13-1.64-1.38-5.8-7.42-6.24-7.64-1.11-.58-10.77-1.56-11.67-2.57.02-2.61,3.29-3.42,4.77-5.08,2.99-3.36,16.12-18.03,16.44-20.82.2-1.79-.03-3.61-.6-5.31l1.29-.91Z" fill="#fff"/>
  <path d="M396.2,375.3c17.14-1.7,36.11-11.26,47.45-24.11.89,1.5,2.11,3.3,1.56,5.15-.19.65-7.19,9.98-8.1,10.95-7.5,8.07-22.55,16.66-33.69,17.42-8.34.57-20.14-.56-23.64-9.41,5.3-.38,11.21.52,16.43,0Z" fill="#fff"/>
  <path d="M583.2,683.73c1.79,1.71,2.23,6.97,2.43,9.62,1.22,15.57-1.63,32.26-2.95,47.77-1.27,1.08-12.73-2.15-12.92-3.96,3.98-5.97,1.3-14.88,4.99-20.41l2.14-36.19c.22-.27,6.05,2.93,6.31,3.17Z" fill="#fff"/>
  <path d="M263.98,731.39c6.08,10.13,12.78,19.97,18.69,30.22l-14.43-3.45c-9.26-11.57-15.19-25.75-22.81-38.53l13.15,1.45c2.03,3.33,3.39,6.95,5.4,10.31Z" fill="#fff"/>
  <polygon points="5.25 605.34 10.79 620.62 26.24 636.39 5.25 657.92 5.25 605.34" fill="#fff"/>
  <path d="M337.9,599.01c-1.35-2.93-5.25-9.44-7.18-12.2-2.97-4.24-7.85-8.5-11.54-12.14,18.05,3.5,53.53,13.76,21.53,32.11-2.37-1.96-1.74-5.44-2.81-7.77Z" fill="#fff"/>
  <path d="M195.69,504.67l-.33,13.85c-9.44,3.17-19.65,4.53-29.49,3.56,3.86-2.11,2.05-8.08,3.07-10.06.49-.95,16.21-9.52,18.29-11.02l8.46,3.67Z" fill="#fff"/>
  <path d="M545.49,562.25v10.59c0,1.81-8.7,8.82-11.4,9.09-9.79,1.01-2.31-10.66-3.2-11.65-2.36,1.76-13.74,9.45-15.2,3.94-1.95-7.35,23.72-16.22,29.8-11.98Z" fill="#fff"/>
  <path d="M84.1,575.4l-2.2-9.49,10.93-1.1c-2-3.26-11.73-.93-12.31-1.19-.2-.09-1.53-2.89-2.28-3.71-1.69-1.86-5.03-2.32-2.39-5.7,7.24-3.16,30.75,6.02,29.25,14.8-1.14,6.66-16.33,5.15-21.01,6.4Z" fill="#fff"/>
  <path d="M298,514.06l-11.88,20.96-4.9,1.66,4.38-15.69-1.8-.34c-8.31,5.74-2.66,19.52-12.81,21.14-.42-12.48,6.34-25.69,17.32-32.01l9.69,4.28Z" fill="#fff"/>
  <path d="M589.3,578.32c-4.83-4.95-10.49-8.41-16.78-11.32,5.56-4.15,6.21-12.58,10.6-17.83l6.17-25.62v54.77Z" fill="#fff"/>
  <path d="M381.11,666.05l23.49,29.83c-2.79-.06-11.59-.55-13.7-1.63-.89-.45-10.29-13.98-11.84-16.05-1.15-1.53-6.4-5.51-5.78-8.1l7.84-4.06Z" fill="#fff"/>
  <path d="M523.59,530.85c-1.2,7.13,1.91,24.2-.73,30.13-.88,1.98-9.77,3.35-10.91,11.22-.3,2.06.8,3.89.17,5.9-.73,2.29-6.37,6.96-8.23,8.99-.05-3.87-1.83-11.36-.61-14.85.41-1.18,5.22-3.88,6.43-5.25,8.1-9.13,12.1-22.91,10.34-34.94l3.54-1.2Z" fill="#fff"/>
  <path d="M20.13,527.65c1.08,1.6,7.53,8.21,7.62,8.78.08.47-2.91,8.6-3.2,8.98-2.98,4-7.33-.51-9.4-2.93-4.39-5.1-6.34-14.17-3.88-20.61.07-.17,2.33-2.69,2.51-2.72,3.89-.6,4.35,5.55,6.35,8.49Z" fill="#fff"/>
  <path d="M589.3,599.5c-5.95-8.99-13.65-17.09-22.66-23.02l3.08-5.33c4.14-1.39,19.57,9.81,19.57,12.65v15.7Z" fill="#fff"/>
  <path d="M78.09,527.37c.29.15,3.66,4.72,3.87,5.25,2.05,5.35.01,13.96-6.19,15.7l-7.74-12.35c2.11.12,3.57-1.4,4.69-2.99,2.02-2.86,1.17-7.77,5.37-5.61Z" fill="#fff"/>
  <path d="M379.04,575.41l-20.81,13.88-6.93-6.95c5.67,1.72,17.1-9.03,19.09-9.4,2.8-.52,5.22,3.67,8.64,2.48Z" fill="#fff"/>
  <path d="M284.86,540.35c-2.74,5.04-1.25,10.2,0,15.33-7.26-2.55-14.88-3.79-22.62-3.66l22.63-11.67Z" fill="#fff"/>
  <path d="M579.81,744.82l-2.65,9.39c-8.85,1.11-14.67-4.22-8.56-12.26l11.22,2.87Z" fill="#fff"/>
  <path d="M94.07,544.51c-.04.16-.99.22-1.14.79-.55,1.96-.64,4.66-.8,6.74l-10.21-1.47c2.43-5.11,6.79-8.16,5.84-14.6l6.98,2.87c-.32,1.86-.24,3.82-.66,5.67Z" fill="#fff"/>
  <path d="M589.3,751.39v11.68l-7.94-2.28c-1.53-4.75,2.41-6.52,2.1-10.87l5.84,1.46Z" fill="#fff"/>
  <path d="M84.82,578.32h5.11s.04,15.74.04,15.74c-.99,1.39-5.16-.86-5.16-1.14v-14.61Z" fill="#fff"/>
  <path d="M438.9,561.52l-.73,10.95c-.33.39-7.57-5.15-8.52-5.71-1.39-.82-3.03-1.31-4.61-1.6-1-1.54,12.76-3.3,13.86-3.64Z" fill="#fff"/>
  <path d="M589.3,748.47c-.96-.94-3.63-1.9-3.71-3.25-.32-5.61,3.05-15.09,2.96-21.23l.74-22.26v46.74Z" fill="#fff"/>
  <path d="M66.57,518.8c0-.34-1.96-2.11.35-1.82,3.19,2.15,6.11,2.42,7,6.86l-7.35,9.19c-.02-4.74.03-9.49,0-14.24Z" fill="#fff"/>
  <path d="M208.2,709.05c-5.52,6.14-10.12,15.35-15.43,21.42-5.77,6.6-12.04,7.68-20.32,9.61l24.19-33.85,11.56,2.81Z" fill="#fff"/>
  <path d="M244.39,267.54c3.06,2.27,6.69,5.09,8.73,8.43-28.31-14.93-70.11-10.65-95.23,9.2-45.73,36.11-30.42,103.81-60.91,147.92-11.42,16.53-23.03,25.3-28.33,46.18-2.55,10.05-2.81,25.55,1.58,34.78-1.02.11-1.97,0-2.94-.33-8.74-2.95-17.84-16.51-20.06-25.21-8.53-33.38,21.05-65.67,30.96-96.28,11.93-36.82,16.77-93.82,47.19-119.87,31.73-27.17,85.25-29.93,119.02-4.82ZM94.04,407.17c1.84-4.58,4.1-11.58,5.17-16.38.35-1.55,2.54-9.26.57-9.64-2.35-.45-4.59,12.2-5.55,14.72-2.39,6.29-6.55,12.84-9.42,18.68-.93,1.89-6.41,12.38-6.45,13.11-.22,5.08,7.17-4.31,7.93-5.44,2.69-4.01,6.05-10.83,7.75-15.04Z" fill="#fff"/>
  <path d="M30.07,255.54v-26.65c0-.09,1.06-1.46,1.47-.74.5,2.84,5.82,2.09,8.21,1.66,13.87-2.47,44.21-23.91,55.72-33.35.84-.69,1.62-1.88,1.78-2.98l3.42,7.15c7.54,2.41,28.17-12.67,34.89-17.39,12.28-8.63,23.74-18.76,35.79-27.73-1.76,12.94,14.98,3.88,20.7.98,16.29-8.28,32.58-22.75,46.46-34.58l1.04,4.79c3.96,2.8,21.74-8.33,25.54-11.06,10.49-7.54,20.18-17.98,28.16-28.05l13.51,12.77L30.07,255.54Z" fill="#fff"/>
  <path d="M475.6,738.77c.47.43,1.72,1.02,2.27.85,7.28-10.64,24.6-9.76,17.98,6.66,19.07-1.65,17.7,16.34.73,17.54,13.12,12.05-3.42,22.1-14.59,12.41.23,4.29-5.6,9.38-6.5,12.28-.4,1.29-1.85,13.28-1.18,13.28,6.67-5.78,14.04-12.35,23.37-13.13,24.4-2.02,9.75,15.5-3.44,19.93-13.03,4.38-42.18,2.23-53.18-6.4-9.66-7.58-9.95-16.62,4.75-15.73,11.32.69,16.78,10.12,23.74,16.8l2.94-16.06c-5.71-.77-10.73-3.89-10.23-10.23-9.12,4.86-24.15,2.49-19.82-10.68.7-2.13,5.47-4.52,5.96-6.84-22.38-5.61-8.47-22.49,8.76-16.08-4.31-9.03,2.94-16.84,12.35-11.98,3.09,1.6,4.58,6,6.1,7.4ZM492.73,736.97c-5.51-5.09-15.37,10.77-17.66,10.03-2.64-5.8-3.89-12.53-11.65-13.17l-2.25,1.48c-1.79,5.31,2.04,9.79,3.28,14.6-1.17,1.11-24.1-10.43-23.41,1.72,5.22,4.59,11.17,5.05,17.57,7.06,1.85,2.66-11.7,3.26-12.45,10.59-1.34,12.99,19.5.84,20.48,1.82-3.39,17.74,13.55,13.72,12.42-1.47,1.98-1.82,9.17,10.16,16.47,5.89,3.74-2.19.62-6.66-1.47-8.84-1.97-2.05-5.91-2.61-5.5-5.8,4.99-1.66,16.52.66,16.67-6.97.14-6.67-16.9-1.03-17.41-3.64,1.41-3.27,8.86-9.66,4.91-13.31ZM460.54,799.13c-2.59-2.92-8.88-8.17-12.69-8.85-2.04-.36-8.86-.79-9.61,1.77-1.76,6.03,21.51,16.05,26.94,14.11.34-.25-4.03-6.34-4.65-7.03ZM504.3,797.8c1.05-1.54,2.91-3.3,1.08-5.19-12.06-2.43-22.83,5.59-29.96,14.27,7.51,1.74,24.47-2.63,28.88-9.08Z"/>
  <path d="M37.37,712.32c.11-.97,1.79-2.59,1.46-4.01-7.16.01-23.53-4.22-23.15-13.4.29-6.91,11.12-6.34,15.84-4.86-2.43-12.75,7.29-23.3,14.62-8.76,1.6,1.14,4.75-7.4,11.95-3.57,4.21,2.24,2.81,10.12,1.18,13.79,13.67-.98,16.55,10.36,3.43,15.49-.78.31-7.06,2.04-7.45,2.04h-12.78l-1.45,22.64c4.85-3.33,9.91-10.34,15.84-11.53,5.4-1.08,12.74-.33,13.33,5.89-5.41,10.06-17.04,14.11-27.42,17.29-1.22,1.65,2.69,5.89.05,6.61-4.29,1.16-3.4-7.87-5.46-9.13-1.1-.67-10.76-2.33-14.35-3.9-6.07-2.66-18.15-11.57-6.83-15.82,9.73-3.66,13.73,3.65,21.18,6.95.4-5.03-.54-10.77,0-15.7ZM40.84,679.28c-.58-.57-1.57-.74-2.38-.8-5.13,0-3.94,9.72-2.95,13.08.27.93,3.8,3.54,1.86,4.7-2.42,1.45-13.03-8.11-17.95-1.84-1.46,2.54,4.04,6.31,5.97,7.23,6.37,3.06,25,4.21,31.98,2.93,11.21-2.05,12.76-11.23,1.71-9.24-2.58.46-5.7,3.07-8.57,3.47-3.04-1.75,11.55-12.66,5.53-17.62s-6.88,9.78-10.15,10.17c-3.31.2-2.81-9.87-5.05-12.09ZM65.01,723.74c-2.87-5.03-22.83,9.1-21.8,15.23,1.3,1.23,25.66-8.45,21.8-15.23ZM35.91,737.51c1.48-6.84-15.4-17.91-19.39-12.46-3.68,5.02,15.74,12.42,19.39,12.46Z"/>
  <path d="M510.46,698.81c4.29-1.36,9.41-5.4,13.51-1.46,3.4,3.49-8.91,11.76-9.13,9.14l6.56-7.67c-3.72-.78-12.69,6.41-14.92,5.82-1.79-.48,1.79-12.86-.42-15.32-2.49-1.99-8.23,11.73-8.03,13.88l-2.1-.08c-1.59-5.8-7.53-8.5-12.49-10.87-.55.55,4.5,8.22,4.93,10.03.21.87.95,3.51-.91,3.11-3.56-4.82-8.27-9.53-7.68-16.06,7.13-1.42,11.4,3.84,16.78,7.31,3.96-14.18,16.2-16.26,13.89,2.19Z"/>
  <path d="M115.49,693.34l-1.46-.74-8.02,10.59c-1.36-4.61-4.03-9.23-8.77-10.95-.66,3.71,1.36,7.05,1.48,10.56.03,1,.68,3.7-1.11,3.3-3.19-4.88-3.62-10.68-3.34-16.33,5.13-2.81,8.96,3.06,12.81,5.4,6.44-11.42,15.22-4.75,12.8,6.56,3.66-2.05,7.79-4.33,12.11-2.26,3.11,2.39-1.7,8.98-4.45,10.29l1.83-7.29c-5.7-.51-8.9,4.45-13.87,4.38v-13.51Z"/>
  <path d="M113.29,747.74c.66,3.94-4.01,4.48-6.45,7.78-3.16,4.3-3.18,10.26-6.33,14.13-4.58-4.07-6.09-10.34-11.67-13.9-1.01-.64-15.93-5.73-8.85-6.52s15.72,6.56,19.07,12.35c3.71-5.34,6.2-14.06,14.23-13.85Z"/>
  <path d="M370.74,760.41c1.3,1.79,1.28,4.01,2.82,5.57,4.23-4.52,9.58-10.27,16.43-9.47,1.94,1.74-6.03,4.67-7.65,5.86-3.95,2.89-6.15,6.85-9.52,10.2-1.23.21-6.08-10.97-7.66-12.77-2.47-2.81-5.96-3.24-7.31-6.57-.24-2.43,3.96-.45,5.05.07,2.06,1,6.51,5.28,7.84,7.11Z"/>
  <path d="M182.94,796.38c.64.81,1.82,1.39,2.27,2.46,3-4.54,10.57-14.05,16.41-10.57-3.31,2.89-7.63,5.51-10.68,8.65-1.41,1.46-4.32,7.76-6.33,7.67-2.28-.11-5.74-9.09-7.49-11.54-1.59-2.24-6.02-3.61-5.42-7.33,6.82-.13,8.07,6.69,11.24,10.66Z"/>
  <path d="M322.82,785.72c1.19.95-9.42,7.71-10.23,8.59-2.1,2.29-7.67,14.46-9.12,14.77l-12.03-12.06c-1.05-2.55,4.84-.2,5.62.23,3.07,1.69,3.86,4.44,6.05,6.71,2.88-7.85,10.4-18.28,19.72-18.25Z"/>
  <path d="M223.13,745.25c.07.21.98.13,1.19,1.36.26,1.55-.46,7.12-.04,7.7,3.76-2.91,7.98-6.25,13.06-5.78l.6,1.79-12.97,7.98c-6.25,2.42-3.82-4.34-4.43-7.92-.37-2.17-1.1-4.81-1.89-6.87-1.27-3.31-3.74-5.05-4.59-8.18,5.1-.77,7.76,6.04,9.08,9.92Z"/>
  <path d="M540.72,779.53c.67.88,2.24,3.89,3.3,3.25,2-5.29,9.99-14.42,16.06-10.58-8.63,4.26-12.96,9.38-17.23,17.8-2.48.73-4.86-8.61-6.21-11.13-1.6-2.96-4.34-4.69-5.01-7.76,5.27-.64,6.48,4.96,9.09,8.42Z"/>
  <path d="M358.25,700.66c-1.52,2.39-4.91,6.76-5.76,9.19-.64,1.85-1.56,10.77-3.03,10.85l-10.58-14.58,10.21,5.84c.27-6.64,4.51-11.8,9.24-16,4.13,1.54,1.36,2.43-.08,4.7Z"/>
  <path d="M162.68,800.59c-5.32-4.25-9.49-5.94-16.51-6.13l-.02-2.89c6.08-2.83,23.07,6.51,23.25,12.18s-6.33-2.85-6.72-3.16Z"/>
  <path d="M89.2,771.84c-1.51,2.38-7.83-4.58-9.56-5.4-1.84-.86-9.85-1.56-9.41-3.72,1.13-5.63,20.07,3.23,18.98,9.12Z"/>
  <path d="M335.23,794.48c2.46,2.32-7.83,4.9-9.27,5.69-2.61,1.44-5.25,4.38-7.73,6.17l-1.98-.56c2.65-7.63,11.3-11.32,18.98-11.3Z"/>
  <path d="M111.85,768.19c-2.18-7.04,19.45-15.81,20.43-11.31-.56,2.8-4.55,2.09-6.56,2.92-5.21,2.15-9.95,4.27-13.87,8.39Z"/>
  <path d="M402.4,766.74c2.21,3.45-8.26,3.41-10.22,4-1.21.37-8.47,5.51-8.76,2.91-.55-4.99,17.18-9.72,18.98-6.91Z"/>
  <path d="M51.97,790.83h-13.51c-.92,0-3.3,1.62-4.99.61-8.4-3.28,18.63-7.84,18.49-.61Z"/>
  <path d="M343.76,763.2c3.72-1.46,17.83,3.94,17.03,8.99-.22,1.36-.96.85-1.83.39-1.55-.83-2.23-2.44-5.09-3.68-1.69-.73-16.62-3.14-10.12-5.7Z"/>
  <path d="M120.6,773.3c-1.66-7.07,17.49-6,18.24-2.54.7,3.21-7.39.94-9.13,1.03-2.89.15-6.22,1.08-9.12,1.51Z"/>
  <path d="M260.77,787.17l-18.17,2.13c-.6-1.54-.97-2.96.94-3.72,1.71-.68,19.6-1.97,17.23,1.59Z"/>
  <path d="M78.98,801.06l-1.08,1.45-20.09,1.45.32-2.96c6.76-2.12,13.92-1.09,20.85.06Z"/>
  <path d="M339.25,719.65c.25.3,1.07.36,1.11.78l-1.1,2.46c-5.01-2.75-9.68-5.51-15.71-5.1v-2.91c5.02-.49,12.37.75,15.7,4.76Z"/>
  <path d="M211.12,800.32c.27,1.26-.35,1.46-1.2,2.08-2.73,2-11.43,3.9-14.86,6.67.21-7.04,10.22-9.46,16.05-8.75Z"/>
  <path d="M215.07,754.06c.17.35,1.92.39,1.16,2.44-4.33.78-4.33-3.51-6.9-5.87-.91-.83-11.2-5.88-3.77-5.79,5.63.07,7.57,5.18,9.51,9.22Z"/>
  <path d="M371.74,703.2l-.72,3.29c-6.02-.14-7.31,7.03-12.42,6.92-1.79-4.34,11.14-12.23,13.13-10.22Z"/>
  <path d="M389.63,801.05c-.46-.16-1.24-1.15-1.09-1.81.38-1.68,18.38-2.36,18.97.72-.17.35-1.71,1.09-1.82,1.09-3.03,0-14.28.61-16.06,0Z"/>
  <path d="M556.76,787.49c-.56.36-1.29,1.87-2.5,1.87-3-6.07,13.72-12.19,14.59-8.39.25,1.11-9.68,4.98-12.09,6.51Z"/>
  <path d="M420.65,724.38l-3.33,2.87c-1.64-.18-11.79-.2-11.99-1.06-1.15-4.85,12.77-2.56,15.32-1.81Z"/>
  <path d="M545.33,673.46c1.61.03,3.05.33,4.56.87v1.48c-.96.66-11.21,1.9-13.28,2.07-1.22.1-1.72,1.04-2.78-.62,2.2-3.23,7.89-3.88,11.5-3.8Z"/>
  <path d="M35.91,659.37l-13.87,2.2c-3.83-3.46,16.85-6.43,13.87-2.2Z"/>
  <path d="M436.35,707.58c-.32-.05-2.25-.85-1.82-1.45,4.56-2.37,10.4-1.79,15.32-.73l-1.09,2.18c-3.87-.4-8.69.56-12.41,0Z"/>
  <path d="M544.03,722.18c3.1,2.82-9.89,3.86-11.31,3.68-2.21-.27-1.17-2.69,0-3.68h11.32Z"/>
  <path d="M379.04,714.88c.44,1.76-2.09,2.39-3.26,2.94-1.3.61-8.2,2.93-9.15,2.17,1.21-4.89,8.37-5.27,12.4-5.1Z"/>
  <path d="M543.3,687.86l.43-2.26c1.84-.78,11.55-1.46,11.98.45.16.71-.83,1.81-1.09,1.81h-11.32Z"/>
  <path d="M66.37,663.97c.2.15,1.02,1.91.93,1.98-20.24,1.51-6.72-6.53-.93-1.98Z"/>
  <path d="M68.19,69.17c1.12.89,8.04.75,10.06,2.36,1.23,1.44-4.32,2.88-4.96,4.88-1.15,3.58,1.46,7.62,1.31,11.17-2.64,1.67-8.44-4.21-9.11-4.23-1.31-.04-7.86,6.63-8.76,6.42-3.03-.69.67-9.45.24-11.18-.61-2.42-7.36-3.37-6.46-7.06,10.49.64,9.49-4.55,12.43-12.42l2.54.73c.46,1.51,1.97,8.74,2.72,9.34ZM65.1,70.06c-2.53-.51-.75,1.97-2.16,3.29-1.24,1.15-4.48.28-5.12,1.8,3.28.47,3.1,3.11,2.92,5.85,3.88-1.25,5.86-.46,9.48.72-2.75-2.66-3.77-7.16.73-8.75-2.74.18-5.38.36-5.85-2.92Z"/>
  <path d="M558.6,149.69c-.46,6.17,2.86,6.04,5.88,9.8-6.95,1.57-2.42,7.08-7.65,8.46-3.12-.3-1.09-4.43-2.15-5.94s-7.62-.15-6.27-3.23c.51-1.16,9.59-1.69,6.58-9.13l3.62.05Z"/>
  <path d="M558.63,60.55l-5.51,1.42-.99,6.91c-4.41,1.83-3.12-4.58-4.49-6.47s-5.16-.42-4.34-4.04c4.73-.39,5.56-3.28,5.1-7.63,5.25-2.09,3.6,4.19,4.75,6.16,1.06,1.82,5.75.63,5.48,3.64Z"/>
  <path d="M423.57,39.38c-1.53,8.32,4.09,5.05,5.84,9.85l-5.11,1.1c-1.82,18.15-3.48,2.32-4.5.86-.7-1-6.33-.65-5.71-2.67.52-1.99,5.57-2.38,5.76-2.64.75-1-1.4-7.23,3.72-6.5Z"/>
  <path d="M39.56,136.5c-.65,7,2.12,5.89,5.84,9.49-1.1.5-4.69,1.93-5.16,2.69-1.22,1.99.44,5.67-1.76,6.08-2.56-1.42-2.18-4.67-2.91-5.85-.82-1.33-5.24-1.31-4.76-3.27,8.1-1.25,2.21-8.47,8.75-9.15Z"/>
  <path d="M469.57,79.54c-.54.53-3.72-.15-4.79-.68-.64-.32-10.75-8.35-11.1-8.97-.46-.81-.1-1.87-.18-2.75,1.26,0,2.62-.22,3.86.16,2.14.66,14.15,10.33,12.21,12.25Z"/>
  <path d="M512.65,86.11c-2.59-2.76,11.57-12.4,14.22-13.17,3.1-.9,1.89,2.68.42,4.1-1.03,1-9.21,7.08-10.49,7.76s-2.56,1.51-4.15,1.31Z"/>
  <path d="M168.77,73.7c-4.44.11-2.31-5.83-7.29-5.85,3.77-2.6,4.81-3.71,4.38-8.75,4.87-.06,1.61,6.53,7.28,7.67-2.83,1.73-4.35,3.42-4.37,6.94Z"/>
  <path d="M108.14,103.67c.55.43.46,3.68.92,4.2.86.97,5.4-.16,4.25,2.71-.32.79-3.46,1.15-4.21,2.01-1.07,1.24-.77,4.05-.93,4.2-2.28,2.2-2.28-3.16-2.85-3.92-1.24-1.68-5.58.2-4.45-3.38,4.46.28,5.4-1.66,5.12-5.85.61.1,1.88-.17,2.14.04Z"/>
  <path d="M526.44,138.63c-1.76,1.05-13.67-8.11-12.34-11.61,1.36-1.45,11.69,7.22,12.48,8.37.67.97.38,2.93-.15,3.24Z"/>
  <path d="M310.41,147.47c1.12,1.69-4.65,4.11-5.83,4.39l2.18,9.48c-2.98,1.53-6.75-4.15-7.64-4.19-1.26-.06-5.98,4.83-7.34,2.74-.9-2.37,1.69-6.17,1.03-8.27-.48-1.53-5.65-2.72-4.29-4.14l6.57-1.1c2.77-2.87-.58-7.84,5.14-6.65l2.11,6.68,8.07,1.06ZM301.48,149.82c-.06-.14-2.11-1.33-2.37-1.33l-3.29,1.19v5.09s5.83,0,5.83,0c-.18-1.49.44-3.63-.16-4.94Z"/>
  <path d="M300.23,395.71l3.92.71c2.07,2.98-2.76,2.71-3.61,4.42-.66,1.34-.05,7.1-1.48,7.34-4.66-.31-3.03-5.89-4.69-7.71-.85-.93-4.86-.97-4.4-2.89,6.58-1.55,4.21-6.43,8.4-9.08l1.85,7.2Z"/>
  <path d="M501.62,336.68c.39.29.42,4.16,1.16,5.04,1.03,1.22,4.89.27,3.97,3.22-.43,1.37-2.92,1.3-3.66,2.37-.8,1.17-.8,4.53-2.28,5.91-5,1.92-2.71-5.16-3.58-6.32-.21-.28-4.75-.47-4.29-2.63,4.43-2.21,5-2.41,5.94-7.57.38-.26,2.42-.27,2.75-.02Z"/>
  <path d="M138.85,232.17c-2.77,4.35-6.66,3.44-5.11,10.22-3.84.88-3.18-4.29-4.55-5.67-.87-.87-5.35-1.28-5.67-2.74-.5-2.3,3.76-1.36,4.76-2.53.71-.84,1.29-10.7,3.99-4.76,1.68,3.7.25,5.6,6.57,5.47Z"/>
  <path d="M251.19,225.69c.49.36.95,5.37.81,6.48l5.83,1.09c-1.02,1.65-4.25,1.57-5.17,2.85-1.49,2.07.61,5.78-2.47,6.27-1.96-4.15-2.71-6.74-7.67-7.66,5.14-3,4.04-3.48,5.22-9.02.47-.29,3.05-.31,3.45-.02Z"/>
  <path d="M245.5,176.61c.77.7,6.36-.81,5.02,2.94-7.91-.42-2.34,7.15-7.99,7.35,1.21-6.85-6.96-4.38-6.57-8.75,4.22-.51,6.73-1.94,5.84-6.59,3.86-1.15,3.26,4.64,3.71,5.05Z"/>
  <path d="M291.59,210.12c.57.42,2.39-.07,3.17.83,2.13,2.44-1.46,2.17-2.29,2.9-1.53,1.36-1.11,6.91-4.32,5.91-1.63-.51-.73-3.85-1.46-5.12s-5.22-1.26-4.76-3.26c.9-1.74,3.44-.67,4.26-1.21.72-.47,1.16-9.03,4.12-5,.74,1.01.29,4.25,1.26,4.96Z"/>
  <path d="M92.14,262.1c.23.22,4.39-.42,5.08,1.84-.52,1.88-4.84,2.41-5.01,2.64-.48.66.8,6.41-1.9,5.76-2.27-3.87-.19-6.51-6.12-6.66l-.09-2.82,5-.85.11-5.73c3.35-.5,2.68,5.58,2.93,5.82Z"/>
  <path d="M299.3,347.71c-1.03-.78-4.87.26-4.21-2.34,6.28-.21,4.29-3.32,6.93-7.3,2.58,1.16,1.28,4.62,2.14,5.87.66.96,4.5.41,4.06,2.5-4.54,2.24-5.22,2.83-6.93,7.66-1.88-1.22-.64-5.38-1.99-6.4Z"/>
  <path d="M195.22,199.89c.28.57,3.76,1.19,2.74,3.77-3.26.47-4.04,1.95-3.63,5.15-2.58.89-2.61-2.6-4.08-4.29-.83-.95-1.99-.84-2.44-1.25-2.85-2.58,5.66-4.31,6.16-8.33,1.9,1.2.58,3.59,1.25,4.95Z"/>
  <path d="M349.09,172.29c.2.16.6,4.19.82,5.04l4.14.61.9,1.65c-3.88.55-5.81,1.98-5.1,6.2-.8,2.65-5.53-6.57-8.02-6.55l5.01-1.9.08-5.04c.6.1,1.96-.16,2.17,0Z"/>
  <path d="M504.61,244.58c-1.07,5.11,5.08,3.56,4.39,7.3-3.25-.3-4.59,1.1-4.42,4.34l-3.61.05c1.57-5.34-4.01-2.91-3.64-7.3,6.27.45,3.15-4.74,7.29-4.4Z"/>
  <path d="M219.46,120.01c-3.07,3.65-19.07,14.55-23.48,14.88-1.26.09-1.54.24-2.36-.94l27.72-17.89c.68,2.77-.85,2.74-1.87,3.96Z"/>
  <path d="M151.99,148.19c1.37,1.3-7.02,8.42-8.41,9.45-2.56,1.89-10.74,7.07-13.45,7.75-1.46.37-1.93.65-2.94-.77,0-1.33,19.3-14.77,21.46-15.76,1.15-.52,2.02-.92,3.34-.67Z"/>
  <path d="M238.14,97.07c-2.25-2.1,9.91-7.81,11.3-8.77,3.35-2.31,6.13-5.74,9.87-7.66l2.19.75c.78,2.96-15.09,13.74-18.04,14.8-1.74.63-3.44,1.1-5.32.88Z"/>
  <path d="M527.11,197.24c.28.47.24,2.69.14,2.79-1.96,1.97-17.83-7.85-20.13-9.8-3.38-2.85-3.54-6.08,1.32-3.88,5.64,2.55,12.01,9.21,18.68,10.89Z"/>
  <path d="M448.39,145.99c-2.55,2.35-20.56-7.37-22.25-10.23-.55-.92-.42-1.9-.38-2.9,1.07-1.09,12.62,6.42,14.69,7.57,1.22.68,10.22,3.46,7.93,5.57Z"/>
  <path d="M310,77.79c2.83,2.59,9.64,7.88,11.6,10.47,1.75,2.31-.69,3.19-2.82,2.34-1.68-.68-9.49-7.83-10.95-9.56-1.6-1.91-6.4-7.41-2.18-8.05.92.16,3.42,3.96,4.35,4.81Z"/>
  <path d="M68.32,195.95c-3.78,4.03-9.15,8.67-14.88,9.19-2.68-2.75,7.79-7.31,9.21-8.31,2.7-1.89,5.05-5.64,9.03-6.29.91,4.24-2.13,4.11-3.35,5.41Z"/>
  <path d="M111.83,163.53c1.73,1.59-7.37,7.67-8.66,8.49-3.19,2.02-7.27,4.95-11.04,4.65,1.06-3.75,17.83-14.85,19.7-13.14Z"/>
  <path d="M356.79,94.15c1.18-.17,16.81,11.31,19.31,12.78.27,4.32-14.05-4.77-14.94-5.49-.62-.5-7.62-6.84-4.37-7.3Z"/>
  <path d="M391.85,122.22c3.18,2.03,10.22,6.84,12.93,9.15.66.56.98,1.42,1.27,2.21-7.53.88-14.15-5.73-18.15-11.41l1.01-1.73c.95-.16,2.19,1.31,2.94,1.79Z"/>
  <path d="M184.84,123.36c.43,1.87-.38,1.86-1.2,2.81-1.85,2.1-16.87,9.62-18.5,8.14.01-.97-.35-1.4.52-2.19,1.49-1.36,18.2-9.69,19.19-8.76Z"/>
  <path d="M212.58,94.15c1.99,1.74-17.97,14.11-18.23,9.12-.09-1.82,16.94-10.26,18.23-9.12Z"/>
  <path d="M338.06,75.98c.3.43.02,1.44.09,2.09-3.31,1.57-17.12-4.5-16.06-8.37.97-3.55,5.84,1.66,6.66,2.09,1.45.75,9.01,3.78,9.31,4.2Z"/>
  <path d="M472.17,170.41c1.65,1.39,3.09,3.04,5.08,4.06.68.41-.57,1.43-.76,1.47-2.74.52-16.07-7.9-14.22-12.41.52-.65,9,6.12,9.9,6.88Z"/>
  <path d="M283.4,76.63c2.55,3.11-10.15,14.33-12.4,12.41.73-1.73,11.1-13.99,12.4-12.41Z"/>
  <path d="M393.91,451.72c5.68,9.94,8.25,16.2,16.61,24.6.22.22,6.12,3.04,3.57,4.52-3.11,1.8-11.5-6.81-13.47-9.2-2.87-3.49-13.53-21.86-10.64-25.5,2.68.04,2.78,3.58,3.92,5.58Z"/>
  <path d="M164.4,559.33h12.78c3.08,0,20.83,7.5,23.98,9.6,1.53,1.02,3.92,2.71,1.55,4.28-11.89-5.88-24.2-11.2-37.85-11.06l-.46-2.82Z"/>
  <path d="M122.05,647.69c-4.73.48-9.71-2.53-13.52-5.09-2.57-1.72-8.25-5.78-7.64-8.78,1.7-1.74,16.72,11.18,20.44,11.32l.73,2.55Z"/>
  <path d="M224.19,346.17c1.07.65-.08,7.52.26,9.61,1.04,6.52,6.05,9.62,4.04,18.27-1.77,7.6-20.99,8.24-16.98-.93,6.13,4.45,14.66,3.02,12.72-6.04-.6-2.83-5.01-8.55-5.08-13.3-.03-2.2,1.64-9.67,5.04-7.6Z"/>
  <path d="M193.49,380.54c1.87,1.1,1.81,7.05,9.45,9.15,8.57,2.35,11.56-2.51,16.57-2,3.32.34-.84,3.87-2.04,4.55-5.07,2.89-13.64,2.67-18.9.36-2.22-.98-12.07-9.53-8.65-11.85.68-.46,2.87-.63,3.57-.22Z"/>
  <path d="M191.02,353.71c1.53-1.17,2.14-2.97,4.77-2.51,1.91,5.59-7.12,12-11.95,11.65-4.25-.3-15.97-10.12-10.22-12.33,4.28-1.64,5.27,9.54,13.38,6.84,2.03-.68,2.81-2.73,4.02-3.66Z"/>
  <path d="M200.06,323.56l.07,2.76c-5.51.85-9.48-.31-15.16,1.26-3.99,1.1-6.6,3.87-10.59,3.95-3.22-3.55,5.73-7.34,8.54-8.19,5.47-1.65,11.86-2.23,17.15.22Z"/>
  <path d="M255.33,331.81c2.95,2.9,4.41,7.97-.59,6.26-.37-.13-3.6-4.37-5.72-5.41-3.01-1.47-13.39-1.57-12.83-4.46,1.32-6.76,15.98.5,19.15,3.61Z"/>
  <path d="M235.58,354.14c1.37-.01,3.09,6.69,7.48,7.16,2.93.31,5.16-3.62,7.99-4.12,4.99.98-.77,6.27-2.91,7.32-7.69,3.76-13.66-.26-14.27-8.37.13-.52,1.47-1.98,1.71-1.99Z"/>
  <path d="M94.04,407.17c-1.7,4.21-5.06,11.02-7.75,15.04-.76,1.13-8.15,10.52-7.93,5.44.03-.73,5.51-11.21,6.45-13.11,2.87-5.83,7.02-12.39,9.42-18.68.96-2.52,3.2-15.17,5.55-14.72,1.97.37-.22,8.08-.57,9.64-1.07,4.8-3.32,11.81-5.17,16.38Z"/>
  <path d="M394.21,262.99c4.39-.24,15.42,2.64,18.43,6.03,6.35,7.14-9.61,2.05-12.09,1.87-3.91-.29-15.89,2.51-16.1-1.84-.03-3.87,6.7-5.9,9.75-6.06Z"/>
  <path d="M403.65,291.54c4.58,3.77,4.07,16.28-4.02,15.39-5.39-3.49-8.55-12.44-2.35-16.78,1.7-.56,5.09.33,6.38,1.38Z"/>
  <path d="M346.73,277.26c-1.16,1.29-8.53,2.69-10.53,3.7-2.47,1.25-12.17,10.09-13.25,5.44-1.36-5.86,19.2-19.16,24.57-12.17.11.43-.48,2.68-.78,3.02Z"/>
  <path d="M337.86,312.07c-5.02-5.06-4.41-15.84,3.42-14.79,4.93.67,6.42,16.48.73,17.28-2.34.43-2.92-1.25-4.15-2.5Z"/>
  <path d="M256,420.23c3,3.21,6.27,21.02,2.21,22.98-4.1-1.37-2.13-6.2-2.64-9.76-.67-4.63-1.45-9.46-2.83-13.95,1.84-2.29,1.98-.64,3.26.73Z"/>
  <path d="M573.23,530.85c1.48,1.72-9.15,21.3-10.58,24.83-.42,1.05-3.96,17.93-6.94,14.59-.16-2.51.14-5.01.81-7.43,1.76-6.37,9.68-25.44,14.21-30.48.73-.81,1.12-1.81,2.49-1.51Z"/>
  <path d="M533.61,602.62c7.17,9.92-5.36,21.22-9.26,7.62,3.23-3.44,1.66-10.91,9.26-7.62Z"/>
  <path d="M541.84,398.67c-1.63.28-1.72-.7-2.14-1.86-1.56-4.25-1.26-29.94-.8-35.77.6-7.56,3.42-12,4.43-1.46,1.18,12.42-1.8,26.54-1.49,39.09Z"/>
  <path d="M541.84,437.37c.75,6.66,1.91,13.35,1.49,20.11-.85,13.81-3.6,10.62-4.39-.77-.19-2.69-.43-18.05.67-19.02.64-.56,1.47-.29,2.23-.32Z"/>
  <path d="M540.38,297.89v17.16c0,.42-1.43,3.26-1.83,3.27-.26-.35-1.1-.89-1.1-1.08v-14.61c0-1.04,1.14-5.45,2.92-4.75Z"/>
  <path d="M51.97,368c3.68,9.22,1.78,19.63,1.49,29.43l-2.94,1.23c.55-8.73-2.1-19.61-.77-28.15.23-1.47.29-2.74,2.22-2.52Z"/>
  <path d="M43.21,305.93h2.91c.97,10.17,1.4,20.6-.33,30.7-.87,1.44-2.58.12-2.58-.39v-30.31Z"/>
  <path d="M313.87,547.13c1.34,1.21,1.68,4.43,4.51,6.06,6.31,3.64,8.57.39,14.67-.43.54,6.6-10.81,6.52-15.13,4.55-2.7-1.23-10.78-9-5.79-11.01.61.21,1.25.39,1.74.83Z"/>
  <path d="M346.68,538.39c3.77,5.07,2.49,9.8,12.27,4.14,3.08,2.27-1.36,6.1-3.65,6.55-8.56,1.67-16.29-9.98-11.3-12.07.7-.15,2.35.94,2.68,1.38Z"/>
  <path d="M309.68,522.81c-.31,4.86,1.25,6.71,6.17,5.81,1.9-.35,6.02-4.54,6.27.36-6.62,6.64-18.73,5.99-14.67-5.85l2.23-.32Z"/>
  <path d="M326.47,544.72c-5.68.09-7.47-2.86-6.44-8.27,1.52-4.24,14.21-2.82,10.82-.13l-7.3,2.21,2.91,6.18Z"/>
  <path d="M312.6,512.59l.14-2.79c4.68-2.7,9.97-3.83,13.73.99.47,2.89-11.18.46-13.86,1.8Z"/>
  <path d="M368.81,532.31c-3.28.67-2.58-2.89-4.7-4.42-1.22-.87-7.47-1.71-6.97-3.97,5.45-3.69,13.39,2.12,11.67,8.38Z"/>
  <path d="M396.49,331.55c.1.05.66,1.72.44,2.14-7.65,7.81-17.98,11.08-28.89,9.16-2.78-.49-12.33-4.04-8.29-7.63,9.32,4.15,18.31,5.38,27.8.76,2.58-1.25,6.21-5.9,8.93-4.44Z"/>
  <path d="M217.3,615.21c3.07,3.64,7.09,9.24,7.71,13.85-1.09,3.76-8.21-9.44-8.75-10.08-1.16-1.38-5.9-6.1-7.67-7.79-1.27-1.22-6.19-2.56-5.17-5.12,1.77-4.46,12.32,7.3,13.88,9.14Z"/>
  <path d="M34.99,582.1c7.33-2.11,6.86,14.5.56,14.54-5.36.03-5.28-13.18-.56-14.54Z"/>
  <path d="M68.95,593.46c-3.28-2.75-2.03-14.7,5.16-12.11,5.22,3.66,1.61,17.78-5.16,12.11Z"/>
  <path d="M309.68,684.21c.38,2.03-.41,2.1-1.63,3.11-3.63,2.98-23.12,11.38-27.7,11.75-1.22.1-1.72,1.04-2.77-.62l32.1-14.24Z"/>
  <path d="M397.62,638.51c-2.15,2.47-19.45,13.86-21.49,12.1,5.03-6.99,14.64-10.21,21.55-15.33,3.69,1.36,1.03,1.98-.05,3.22Z"/>
  <path d="M354.94,665.22l-7.38,6.12-14.51,5.56c-.36-2.06.31-2.11,1.66-3.08,1.12-.81,15.34-7.92,16.57-8.25s2.4-.48,3.66-.34Z"/>
  <path d="M179.98,681.05c-.65-.73-1.1-1.66-.97-2.68l27.72,10.58c-1.02,1.57-1.6.9-2.94.78-2.84-.25-22.3-6.97-23.82-8.68Z"/>
  <path d="M249.81,706.84c-3.11.25-22.64-4.08-22.61-6.2.02-1.28,2.26-.94,3.06-.91,1.83.06,15.98,4.06,17.7,4.96,1.03.54,2.19.45,1.85,2.15Z"/>
  <path d="M43.05,631.82c.59.62.51,2.11,1.07,2.54,5.56,4.29,11.88,3.32,18.43,2.37,2.01,2.65-4.85,4.73-6.76,4.96-4.47.52-16.95-3.66-15.47-9.64.33-1.34,1.97-1.03,2.73-.23Z"/>
  <path d="M50.94,618.8c2.84,1.29,6.12,7.06,2.75,8.35-5.32,2.05-11.3-6.86-5.01-9.36,1.16-.12,1.65.73,2.26,1.01Z"/>
  <path d="M72.45,627.22c-4.06-2.66,5.29-13.45,7.26-5.52.42,2.32-5.85,6.45-7.26,5.52Z"/>
  <path d="M508.75,646.74c-1.73,2.41-7.78,4.29-7.86-.14-.13-7.16,11.97-5.59,7.86.14Z"/>
  <path d="M492.75,639.09c.41.76.41,2.56,0,3.33l-3.11,2.29c-6.51-4.08.37-10.65,3.11-5.62Z"/>
  <path d="M492.73,736.97c3.95,3.65-3.51,10.04-4.91,13.31.5,2.61,17.54-3.03,17.41,3.64-.16,7.63-11.69,5.31-16.67,6.97-.4,3.19,3.54,3.75,5.5,5.8,2.09,2.18,5.22,6.65,1.47,8.84-7.3,4.26-14.48-7.71-16.47-5.89,1.13,15.19-15.81,19.21-12.42,1.47-.98-.98-21.82,11.17-20.48-1.82.76-7.34,14.3-7.93,12.45-10.59-6.4-2.01-12.35-2.47-17.57-7.06-.69-12.15,22.24-.61,23.41-1.72-1.24-4.82-5.07-9.3-3.28-14.6l2.25-1.48c7.76.63,9.01,7.37,11.65,13.17,2.29.74,12.15-15.13,17.66-10.03ZM481.02,755.27c-3.65-5.36-17.26-2.25-14.81,6.37,4.13,9.08,21.12,2.88,14.81-6.37Z" fill="#fff"/>
  <path d="M504.3,797.8c-4.41,6.45-21.38,10.82-28.88,9.08,7.13-8.68,17.9-16.7,29.96-14.27,1.83,1.89-.03,3.66-1.08,5.19Z" fill="#fff"/>
  <path d="M460.54,799.13c.61.69,4.99,6.78,4.65,7.03-5.43,1.94-28.71-8.08-26.94-14.11.75-2.55,7.57-2.13,9.61-1.77,3.8.68,10.1,5.93,12.69,8.85Z" fill="#fff"/>
  <path d="M40.84,679.28c2.23,2.22,1.73,12.28,5.05,12.09,3.28-.39,4.39-14.9,10.15-10.17s-8.57,15.87-5.53,17.62c2.87-.4,5.99-3.01,8.57-3.47,11.05-1.99,9.51,7.19-1.71,9.24-6.97,1.28-25.61.13-31.98-2.93-1.92-.92-7.42-4.69-5.97-7.23,4.92-6.27,15.53,3.29,17.95,1.84,1.94-1.16-1.59-3.77-1.86-4.7-.99-3.37-2.18-13.09,2.95-13.08.8.06,1.8.22,2.38.8Z" fill="#fff"/>
  <path d="M65.01,723.74c3.86,6.78-20.5,16.46-21.8,15.23-1.04-6.13,18.93-20.26,21.8-15.23Z" fill="#fff"/>
  <path d="M35.91,737.51c-3.65-.04-23.08-7.44-19.39-12.46,4-5.45,20.87,5.62,19.39,12.46Z" fill="#fff"/>
  <path d="M65.1,70.06c.47,3.28,3.11,3.1,5.85,2.92-4.5,1.58-3.48,6.08-.73,8.75-3.63-1.18-5.6-1.97-9.48-.72.18-2.74.37-5.39-2.92-5.85.63-1.52,3.88-.65,5.12-1.8,1.42-1.32-.37-3.8,2.16-3.29Z" fill="#fff"/>
  <path d="M301.48,149.82c.61,1.31-.02,3.45.16,4.94h-5.82s0-5.09,0-5.09l3.29-1.19c.26,0,2.31,1.19,2.37,1.33Z" fill="#fff"/>
  <path d="M481.02,755.27c6.3,9.26-10.68,15.45-14.81,6.37-2.44-8.62,11.16-11.74,14.81-6.37ZM470.47,761.45c1.5,3,8.56.92,8.47-2.27-.16-5.57-11.62-4.05-8.47,2.27Z"/>
  <path d="M470.47,761.45c-3.15-6.32,8.31-7.84,8.47-2.27.09,3.19-6.97,5.27-8.47,2.27Z" fill="#fff"/>
</svg>