<?xml version="1.0" encoding="UTF-8"?>
<svg id="Camada_1" xmlns="http://www.w3.org/2000/svg" version="1.1" viewBox="0 0 595.28 841.89">
  <!-- Generator: Adobe Illustrator 29.0.0, SVG Export Plug-In . SVG Version: 2.1.0 Build 186)  -->
  <path d="M594.41-.06v841.27s-594.27,0-594.27,0V-.06h594.27ZM108.92,4.33H5.25v60.61h88.34c.39-3.65.27-8.35.94-11.86,1.97-10.3,5.59-22.03,8.67-32.24,1.62-5.37,2.07-12.31,5.72-16.52ZM130.82,288.77v46.01c0,4.56,5.3-2.39,5.64-2.55,6.06-2.75,6.93,2.91,7.86,2.91h47.82c-1.71-11.68.18-23.11,9.48-30.68.31-1.19-1.26-.31-1.45-1.22-.69-3.32-4.19-28.27-3.34-29.49,1.68-2.4,7.88.43,9.89,1.5,2.14-11.71,6.57-18.96,18.24-23.75,1.08-.44,3.53-.22,3.66-.35.78-.8-1.34-10,8.48-10.19,2.06-.04,7.51,3.94,8.16,5.23.53,1.07-.1,3.22.16,3.5.33.35,7.67,1.18,9.48,1.83,4.34,1.57,16.8,10.9,16.8,15.33v12.78l5.11-4.75c-8.64-3.29-.32-12.7,6.79-10.43,2.91.93,2.12,7.69,1.96,10.42-.31,5.14-2.87,15.79-2.19,20.43.21,1.42,4.88,6.69,5.52,8.38,3.23,8.53,4.01,22.27,4.72,31.46l88.69-.75c4.07-3.7,7.35-6.67,12.88-8.33.46-3.77-.1-7.65,1.95-11.17,1.74-2.98,6.4-3.67,6.78-5.67l-.44-193.88c-29.53-23.66-52.25-54.28-65.22-89.54-.34-.93-1.28-1.06-1.48-1.63-1.01-2.9-4.38-19.26-5.65-19.75l-218.8-.13c-4.83,10.16-6.74,20.61-9.32,31.6-.14.58-1.23.56-1.35,1.11-.73,3.37-4.7,26.94-3.7,27.94,12.45-1.17,16.46,7.85,14.29,19.03-1.55,8.01-11.02,9.5-17.94,9.44-.36,5.37,1.3,12.6-2.17,17.18-1.33,1.75-4.86,2.67-5.18,4.35l.08,39.43c7.18,7.17,10.44,13.16,12.79,22.99.62,2.58.46,7.88,1.19,9.76,1.05,2.66,5.52,2.68,6.42,10.37.54,4.62.98,10.08,1.45,14.01.84,6.99-3.31,16.54-9.52,20.24-4.52,2.7-7.2,2.88-12.36,2.24,11.47,6.6,17.49,14.65,18.26,28.12,7.35-2.28,2.95-11.48,12.43-12.9l-.73-72.77c-6.87-2.17-8.8-11.96-.76-13.65v-1.08c-8.34-6.92-5.19-23.6-2.31-32.96.29-.94,1.33-1.09,1.51-1.6,2.26-6.63,4.19-12.89,8.08-18.79,1.45-1.59,4.78,3.55,5.41,4.83,2.62,5.37,6.99,17.93,7.67,23.76.84,7.24,1.66,19.65-5.02,24.01,5.35,5.24,6.42,11.2-.78,15.27l-.72,73.72c6.5.6,10.71,9.75,11.02,15.4s-2.13,16.74-6.18,20.89c-1.05,1.07-3.81,1.8-4.07,2.51ZM386.34,4.33h-51.1c2.68,7.84,4.45,16.53,7.39,24.22,15.98,41.77,48.55,78.05,87.3,100.51,47.32,27.42,105.46,34.63,159.38,29.36v-6.58c-32.28,3.84-64.34-3.39-93.22-17.39-53.13-25.75-90.06-75.54-109.74-130.12ZM457.16,4.33h-67.17c20,54.85,58.24,104.4,112.51,129.54,26.91,12.47,56.6,18.71,86.36,15.05.74.11.55-1.58.43-1.82-.45-.88-15.58-6.99-18.01-8.27-52.32-27.62-86.03-73.96-111.31-126.04-1.29-2.66-2.54-5.47-2.82-8.46ZM589.3,4.33h-129.22c7.02,15.86,15.05,31.54,24.33,46.15,18.39,28.96,42.66,56.47,71.5,75.29,10.3,6.72,21.81,13.15,33.39,17.31V4.33ZM102.71,67.86H5.25v22.64l97.29-.9c10.14-2.26,9.02-19.73.17-21.74ZM6.71,93.42h-1.46v107.35c4.36-7.39,1.3-15.65,3.24-23.45,2.22-8.97,5-10.48,5.56-22.16.62-13.09-.53-26.36-.03-39.46-.58-2.45-7.3-4.35-7.3-9.49v-12.78ZM90.67,93.42H10.36v12.05c0,4.01,4.75,6.55,8.36,6.97,12.32,1.45,51.4,1.54,63.57-.02,4.82-.62,5.29-1.89,6.94-5.32.37-.77,1.44-.47,1.44-.54v-13.14ZM126.71,118c-.78-1.46-.88-3.46-2.45-4.13-4.6,8.97-6.95,16.34-8.84,26.45-.11.59-1.27.37-1.45,1.62-.76,5.3.41,13.51,4.76,17.25,8.58,7.38,15.57-4.28,15.75-12.13s-4.02-22.05-7.77-29.06ZM84.09,116.06c-.71.22-1.57-.73-1.83-.73H18.39v44.55c6.07-4.21,12.2-8.67,19.63-10.3-1.03-19.8,18.95-26.66,19.79-2.84,9.29-1.04,17.71,3.24,26.28,5.11v-35.78ZM407.51,118.25v193.89c1.86,3.04,23.22,4.17,24.09,3.29-.9-6.52,3.8-18.24,3.55-23.76-.09-2.04-2.68-5.92-2.83-9.51-.44-10.75,5.71-10.8,6.9-14.89.74-2.55-.97-6.45,1.49-11.01,1.29-2.4,4.13-3.27,4.72-6.23.96-4.84-1.24-14.94-1.44-20.38s.13-10.94.1-16.37c.71-.19,1.34-.69,2.12-.44,2.66.85,20.15,18.32,21.89,16.41l.05-1.87-1.83-78.5c-21.22-6.95-40.51-18.1-58.81-30.63ZM52.3,138.37c-.86-1.41-1.12-3.23-2.99-3.89-6.18.49-7.32,8-7.22,13l12.8-.76c.05-3.42-.99-5.73-2.59-8.35ZM90.4,163.04c-15.15-22.1-65.8-15.33-76.22,9.02-1.93,4.52-2.62,10.68-2.36,15.55,25.61-11.56,54.49-16.39,82.49-12.41.08-4.03-1.66-8.88-3.92-12.16ZM470.3,150.38v80.33c6.04-1.37,24.23-26.65,26.68-27.04,1.03-.16,2.19-.14,2.89.74,1.14,3.78,12.72,29.47,14.23,30.35,2.41,1.39,18.07-9.1,21.4-10.57,1.85-14.79,4.21-29.16,9.89-42.7-8.41-4.23-7-11.28-5.74-19.43-23.56-.6-46.97-4.55-69.35-11.69ZM589.3,161.33l-45.5,1.43c-3.99,11.86-.1,16.32,11.65,17.45,10.76,1.04,23.26-.1,33.85-2.09v-16.8ZM130.58,165.23c-2.33-2.49-14.64-1.97-16.33,2.15-3.6,8.77,25.72,7.89,16.33-2.15ZM126.44,176.67h-6.57c.31,3.91-.39,8.29-.05,12.14.2,2.3,1.5,1.52,1.57,2.79,1.03,18.76-.88,38.52-.06,57.37h5.11v-72.3ZM91.28,178.98c-17.52-3.33-35.56-1.07-52.77,2.85-1.99,6.29-.92,13.4-3.08,20.32-1.27,4.08-5.42,5.66-1.71,12.5,5.27-2.64,21.02-12.25,26.41-9.48,1.14.59,2.21,3.55,4.8,4.2,9.16,2.28,10.64-12.36-.56-12.25l.9-1.64c5.82-2.53,11.63,3.84,10.04,9.69,6.49-.47,11.05,2.64,15.71,6.55,2.63-.33,1.71-28.93.24-32.73ZM96.5,179.59c-2.77-.28-2.1,6.87.73,6.58l-.73-6.58ZM589.3,181.78l-1.46,1.08c-1.49,41.56-2.58,83.46.72,124.9l.74,22.26v-148.24ZM563.02,183.97l-13.83-1.44c-4.55,6.67-4.95,14.5-6.66,22.07-.12.54-1.25.46-1.49,1.59-1.11,5.42-1.26,10.68-2.14,16.1l3.65.94,2.21,24.27,14.49-5.58c.7-8.8-.57-18.24.05-26.96.09-1.32,1.47-.76,1.56-2.11.68-9.64.69-19.32,2.15-28.88ZM584.18,182.51l-16.68,1.57c-1.34,2.05-.42,4.71-.86,6.68-2.17,9.78-3.28,22.04-3.65,32.98-.19,5.71.19,11.48.03,17.19l10.95-2.19c.06.59-.03,1.2-.01,1.8.03,1.06-6.16,17.58-7.08,19.93-1.62,4.16-3.99,9.32-5.84,13.88-.44,1.08-2.34.76-1.69,2.68.2.59,2.21.71,2.79,3.13,1.28,5.38-.09,11-5,13.76,4.05,4.45.83,8.16,1.02,12.27.16,3.53,7.76,10.07,1.22,15.06,10.84,2.32,18.86,10.04,27,16.81-.99-7.85-.13-15.94-.67-23.78-.09-1.31-1.49-.8-1.57-2.1-2.62-42.64-.2-86.95.05-129.67ZM33.72,183.25l-21.68,8.24c-3.43,9.43-7.45,20.01-5.97,30.73,1.11,8.08,8.62,12.17,16.27,9.15,5.18-2.04,8.22-11.86,7.75-17.1-.26-2.97-3.29-5.33-2.94-6.51.06-.2,2.05-1.48,2.78-3.11,3.11-6.93,4.29-13.74,3.79-21.41ZM101.93,193.15c-1.16-1.54-2.43-3.43-4.69-3.33-.08,6.34.23,12.92-.76,19.2-.45,2.87-3.85,14.34-5.8,17.49-.72,1.16-6.35,3.52-.04,4.65,5.53.98,12.67-6.65,13.56-11.37.51-2.69.06-22.64-.71-24.94-.42-1.26-1.15-1.16-1.56-1.7ZM59.76,209.06c-6.74-3.39-20.21,6.78-26.63,9.74-4.43,8.03,11.53,15.7,17.63,17.14,10.82,2.55,26.41.33,34.05-8.52,1.59-1.84,6.73-10.75,5.68-12.62-3.29-1.49-5.8-4.53-9.32-5.63-8.93-2.79-7.83,3.2-14.22,3.37-4.72.13-5.19-2.46-7.2-3.47ZM497.53,210.02c-.47-.58.11-2.13-.58-1.94-8.13,9.8-15.73,20.67-27,27.02l-23-17.53c-.2,10.64.57,21.63,2.18,31.4,31.12-1.36,67.38,4.94,96,17.53,1.96.86,11.39,6.63,12.07,6.23l12.37-29.98c-4.93.44-24.81,10.54-28.03,7.76l-1.9-24.91-26.26,13.55c-4.19-1.65-11.5-22.87-14.04-27.67-.42-.8-1.37-.91-1.82-1.46ZM5.25,229.98v21.91l9.98-10.1,19.96-9.98-5.1-4.03c-3.77,9.67-18.58,9.73-24.84,2.19ZM5.25,258.83c-.61,3.48.44,8.38,0,12.05,13.17-15.1,31.16-19.27,50.64-17.43,3.49.33,7.32,2.33,10.57,2.41,6.38.16,21.57-8.57,22.67-15.96-.22-1.13-6.87-4.6-7.75-4.67s-12.22,4.75-17.34,5.01c-11.97.61-14.27-2.78-23.58-4.96-5.53-1.3-21.54,7.09-26.09,10.78-.67.54-5.29,5.25-5.52,5.58-.73,1.06-3.44,6.17-3.61,7.19ZM101.86,276.5c-1.14-11.3.17-26.01-8.65-34.11l-9.62,9.35-11.9,5.99c10.63,8.58,19.75,15.9,23.17,29.75.46,1.86-.12,3.81.21,5.51.07.35,2.91,3.26,1.43,6.36l6.62-.47c1.22-1.66.31-17.91.01-21.12-.11-1.21-1.25-1.12-1.27-1.26ZM241.61,250.99c3.95-8.29-12.41-6.91-9.83-.76,1.42,3.39,8.27,4.03,9.83.76ZM443.46,266.32c20.12-3.21,42.27.04,62.04,4.76,17.1,4.09,35.79,10.39,49.85,20.96,8.56-11.84-.28-17.14-10.11-22.01-14.49-7.17-35.46-12.25-51.44-15-10.79-1.86-32.53-5.1-42.81-3.1-4.39.85-11.93,10.97-7.53,14.39ZM113.3,258.46h10.59c.29,0,1.19.72,1.69.87l.13,2.78c-4.42-.69-17.19-2.99-11.86,4.39,15.03.06,18.02,5.16.66,2.99-5.52,8.47,11.09,7.95,16.31,7.95v7.31c4.67-.57,6.14-9.55,6.47-13.6,1.41-17.33-8.06-22.38-23.66-16.36l-.34,3.68ZM261.2,258.76c-4.29-3.32-12.84-6.76-18.16-5.25-1.62.46-2.05,2.46-5.27,2.79-5.91.6-6.12-3.71-13.41-1.04-11.65,4.26-14.9,17.58-14.69,28.75,1.43,1.56,5.72-5.6,8.47-5.83,3.68-.32,8.68,8.63,13.43.73-7.75,4.27-10.12-11.05-6.83-12.32,1.37-.53,5.66.26,6.1-.11l-1.14-5.84c1.19-2.08,13.91-3.89,15.79-2.6l-.04,6.25c10.11-5.16,13.02,14.77,1.8,11.68l-1.08,1.45c2.95.89,5.62,3.13,8.96,2.76,4.33-.48,6.16-8.87,12.93-4.94.9-6.58-1.74-12.53-6.86-16.49ZM82.93,272.78c-11.26-14.05-25.07-18.08-43.03-16.53-12.74,1.09-28.78,9.35-34.6,20.89l.33,47.77c31.5,33.33,91.5,17.51,86.49-33.93-.64-6.61-5.19-13.2-9.19-18.19ZM241.78,260.65l-8.03,1.47,1.15,5.83-7.71,1.46.74,6.57,9.48-1.46c0,9.47-13.12,14.33-19.34,6.58-2.35,5.76-12.13,9.22-14.08,1.64-.96-3.72,1.8-2.92,1.3-4.2-.63-1.61-4.11-2.96-5.83-2.56l4.42,25.51,75.8-5.88,3-28.4c-2.84-.53-4.11,1.49-5.83,3.3-.64,1.7,1.97.82,2.61,1.76,2.6,3.79-5.27,12.2-10.19,10.2-1.82-.74-.39-4.9-4.35-4.83-3.19-.05-3.56,3.3-5.65,4.49-5.91,3.36-15.94-1.59-18.84-7.34-.65-2.77,8.99-1.31,9.41-1.73l-.84-5.74-7.19-.1v-6.57ZM109.64,264.3l-4.42,1.19,1.51,32.41c5.84-.4,10.34-3.79,10.9-9.83.13-1.37.29-8.52-.05-9.06-.32-.5-5.81-.65-7.38-4.67-1.47-3.76,1.39-5.96-.56-10.04ZM525.78,280.38c-25.46-7.81-53.89-15.26-80.57-11.03-1.84,6.85-4.47,13.42-6.1,20.36-1.22,5.2-3.21,13.15-3.84,17.47-.3,2.05-1.23,15.63-.74,16.28,4.89-3.48,7.31-8.87,13.18-12,2.49-1.33,10.08-2.96,10.72-3.51.96-.81,1.02-4.17,1.89-5.42,1.22-1.76,7.52-8.83,9.54-8.22,4.1,1.22-3.44,6.2-4.28,7.3-6.64,8.71-2.07,16.05,8.73,14.57,4.19-.58,3.65-2.98,5.22-3.53,8.5-3.01,26.24,10.25,28.77,18.83,11.12-.88,14.93-10.53,19.07-19.2,1.12-2.35,3.61-2.8,2.66-5.51-6.25-2.5-9.32-12.17-7.85-18.52.13-.57,1.17-.62,1.32-1.15.66-2.31.8-4.64,2.26-6.71ZM441.09,270.88c-1.86-1.67-8.94,12.48-4.37,14.59l4.37-14.59ZM127.9,280.37l-6.57-.73v52.58c0,.17-2.25-.47-1.46,2.19h8.03s0-54.04,0-54.04ZM554.03,294.47c-2.28-2.35-13.01-8.08-16.4-9.52-9.03-3.85-11.66-5.06-12.15,6.98-.31,7.52,5.35,16.08,13.65,13.83,2.07-.56,4.28-3.36,8.22-3.52,2.47-.1,6.33,1.93,7.64,1.17,2.9-1.69.91-7.03-.95-8.94ZM116.91,334.37l.76-37.93-10.85,5.2-.49,29.87c4.44,3.04,4.79,3.94,10.57,2.86ZM282.48,298.82l-52.33,4.22c1.68,6.12-6.3,27.86-13.46,27.53-21.67-19.6-26.54,20.93-7.38,16.25,2.63-.64,7.64-9.69,12.36-8.04,5.95,5.5,8.14,13.24,18.87,10.08,3.7-1.09,7.92-10.25,13.47-11.39,4.7-.96,18.02,9.07,19.04-1.44.63-6.53-6.05-6.79-10.83-7.82l-.37-1.84c2.27-2.91,12.37,2.29,14.29,4.9.72.99.44,2.97,1.73,4.66,1.49,1.96,11.31,8.76,13.57,6.52-.58-15.25-2.54-30.07-8.95-43.62ZM103.81,302.27l-8.66.84-.11,5.74h8.77s0-6.58,0-6.58ZM226.17,311.5c.8-2.82,1.32-5.53,1.01-8.49l-22.45,2c-6.28,5.99-9.15,14.37-10.39,22.1,2.88-.11,3.24-2.53,6.17-3.67,6.16-2.41,12.51-1.41,16.81,3.67.94-1.51,2.94-2.87,3.79-4.23,1.11-1.77,4.52-9.49,5.06-11.38ZM554.01,306.92c-.52-.31-5.35-1.76-5.96-1.76-9.64-.06-7.03,19.84-9.13,26.33,7.59.23,15.28-2.83,17.74-10.37,1.45-4.46,2.02-11.45-2.65-14.2ZM538.93,309.58l-5.8-.72c-3.84,7.05-7.35,18.76-14.87,22.76-13.56,7.23-12.21-1-19.05-7.92-1.9-1.92-7.45-5.3-10.09-6.3-9.49-3.59-6.19-.61-12.06,1.49-2.79,1-9.53.69-12.3-.49-5.76-2.46-2.6-8.32-11.84-5.39-11.77,3.74-20.6,17.84-13.63,29.43,8.77-3.67,25.7-7.78,28.83,4.71-2.06.69-1.81,2.98-3.36,3.99-2.21,1.43-6.32.61-8.32,2.24,1.89.89,5.89,3.51,6.88,5.17,3.86,6.52-1.96,13.97,11.83,14.5,8.02.31,11.53-5.98,15.38-7.1,4.76-1.38,11.46.77,16.3-4.35,1.28-1.35,3.47-7.81,4.53-8.05,1.84-.42,4.09.67,7.26-.4,7.99-2.7,15.55-15.21,17.5-22.69,1.64-6.27,1.31-14.4,2.81-20.9ZM103.08,312.5l-8.77-.39c-10.92,34.26-54.03,41.22-82.49,23.76.07,7.45-.71,14.91-1.41,22.31-.12,1.32-1.37.47-1.57,2.79-.44,4.93.36,10.68.15,15.7,6.08,1.53,51.04,4.45,52.45,2.23-.14-7.39-5.54-12.93-4.03-20.45,3.74-1.69,7.82-.57,11.35.78,3.42-10.1,14.03-17.97,23.06-23.34-3.14-8.11,2.73-13.56,9.79-7.33-1.26-4.34,1.47-4.11,1.47-4.38v-11.68ZM419.56,333.68c4.33.39,9.12-.28,13.51,0l-1.46-14.61c-5.68.13-11.34.1-16.94-.95-3.03-.56-9.76-3.59-11.16-3.51-2.67.15-5.48,5.14-5.4,7.68.23,7.84,15.31,10.83,21.45,11.38ZM575.14,332.52c-3.68-2.7-13.13-9.38-17.45-6.91l-4.9,5.5c11.47,6.7,20.17,16.8,23.76,29.56,2.74,9.75,1.91,11.78,1.01,20.79-1.6,16.17-2.34,32.48-4.33,48.6,4.55.42,9.87,3.96,10.78,8.58,2.21,11.17-4.79,9.27-12.95,10.43.65,10.85-1.18,21.68-1.49,32.44-.56,19.54-2.35,47.03-.74,65.8.12,1.39-.08,3.91,1.25,4.78,5.02,1.49,10.51,2.23,15.53.26,1.33-1.38,2-3.18,2.25-5.06,3.02-22.89-.38-58.08-.04-82.56.1-7.35,1.45-15.96,1.52-23.31.26-26.62,2.87-65.37,0-90.63-.73-6.43-9.14-14.58-14.19-18.28ZM433.76,336.64c-12.73-.04-26.87.28-37.42-7.94-32.87,16.75,6.87,29.74,24.63,26.84,2.69-.48,5.83-5.16,8.09-7.23,5.52-5.05,7.73-1.35,4.69-11.66ZM98.69,332.2c1.48-2.36-2.88-3.58-4.38-2.91v3.66c.29.29,4.26-.56,4.38-.74ZM5.25,330.03v506.81h584.05v-102.24c-9.76.99-19.72.56-29.55-.01-84.54-4.89-173.86-11.82-256.06-31.59-42.02-10.1-83.69-23.17-122.49-42.15l2.21,9.1-11.7,6.95c6.01,1.49,27.18,9.91,20.94,18.77-4.17,5.92-29.29,3.42-36.27,2.42,4.06,11.78-12.43,11.27-19.71,10.22.95,7.44,1.19,15.72,2.13,23.05.17,1.29,1.42,1.01,1.48,1.58,1.76,14.32.89,17.78-13.74,22.2l-.09,5.75c8.32.3,43.32,14.61,21.33,22.44-8.94,3.18-37.73,3.64-46.86,1.28-3.03-.78-7.39-3.85-9.89-4.04-5.23-.41-13.35,2.53-18.98,2.96-7.39.56-37.99,1.03-41.88-5.54-2.46-4.15.91-15.74,1.36-20.7l-22.62-6.97c-1.85-1.57-.31-13.06.07-15.87,5.32-38.82,9.62-81.18,19.57-118.73,1.36-5.13,2.82-10.15,4.41-15.21-7.56-14.82,1.08-29.83,9.53-41.89-12.21.06-15.99-9.34-10.95-19.71-8.82-2.1-14.06-11.24-13.92-20.09.06-4.09,3.81-13.29,3.55-15.13-.43-3.1-8.87-17.65-10.86-22.63-.24-.61-1.35-.71-1.61-1.49-.94-2.77-1.48-5.63-1.26-8.58l9.49,2.19c-.4-14.55,8.45-26.54,21.41-32.27,2.27-1,11.39-4.25,13.28-4.25h11.32l-1.55-25.1c-12.57-3.21-4.18-19.18-6.48-28.94h-10.22c1.08,4.84-2.13,13.51-.61,17.77.39,1.1,9.38,5.31,10.89,8.82,1.05,2.43,1.26,6.93-.75,8.87-4.29,4.15-29.09,2.73-34.78.38-.79-.32-4.39-3.62-4.48-3.9-.78-2.4-.47-16.52-.27-19.93.08-1.3,1.46-.78,1.57-2.1.3-3.47-.35-7.37-.01-10.91l-10.16-3.12c-.94-14.94,1.51-29.67,2.75-44.5l-3.58-3.96ZM558.35,339.08c-8.61-7.22-9.4-5.49-20.47-4.72l-4.8,9.88c5.71,3.24,11.76,7.39,16.45,12.06,5.28,5.26,14.95,17.89,15.6,25.31.36,4.15-1.36,6.33-1.4,10.09-.05,5.88,3.39,11.37,3.7,17.53.45,8.78-.98,12.71-5.14,20.11h7.3c-.47-31.45,17.42-66.23-11.24-90.26ZM105.88,334.52c-1.73-1.07-11.24.53-11.6,3.17-.73,5.38,11.57,5.71,12.46.69.14-.76-.39-3.57-.86-3.86ZM141.03,335.14c-.54-.43-5.02,1.29-5.16,1.92-1.14,5.4,6.52,4.08,5.89,6.47l-2.91,1.12,1.46,1.2c-.8,2.35-2.32,13.08-4.88,14-3.37,1.22-9.45-2.56-13.14-2.57-.44,0-7.38,1.25-7.76,1.38-2.12.74-5.72,9.05-8.7,10.26-5.51,2.25-10.35-2.48-15.49-1.63-4.49.74-7.93,6.43-11.58,8.57-1.79.12-13.43-6.62-14.24-7.99-1.85-3.14,5.82-1.72,1.74-6.52l-5.55-.66,8.87,33.48c29.58.31,58.79-8.69,85.21-21.2l-1.33-4.64c-4.13-.24-6.13-.55-8.77-3.79-.57-2.11,3.14-5.89,4.92-7.11-1.62-3.27-2.24-8.34-3.51-11.5-.35-.87-1.61-.91-2.01-1.79-1.17-2.55-2.32-6.25-3.08-9.01ZM131.38,338.96c-1.63-1.74-15.73-2.14-18.29-1.47-3.66.95-2.39,3.63-3.63,4.77-2.68,2.5-11.4,3.25-14.96,1.77-2.75-1.14-2.82-3.6-5.5-2.94-1.86.47-12.12,9.97-13.56,12.03-1.99,2.83-6.89,12.35-5.09,15.48.21.37,6.47,3.35,7.58,3.78l6.16-4.39c-13.37-11.73,10.73-20.81,9.59-3.74,9.58,4.56,12.2,1,17.26-6.85-6.01-3.1-1.78-12.23,3.64-12.64,3.42-.25,8.05,3.34,9.39,6.44.53,1.22-.49,2.73-.41,2.88.27.49,10.36,3.3,10.87,2.91.62-3.21,2.33-6.22,2.08-9.62-.28-3.76-5.09-4.36-5.12-8.41ZM420.65,358.51h-11.32c-4.45,0-19.7-4.52-23.35-7.31-4.24-3.24-6.05-8.67-4.03-13.86l-86.88.72c2.92,15.58,2.16,30.56-8.02,43.08,4.11.48,7.12,7.52,6.57,11.7,8.8-.1,16.78-4.56,25.48-1.76,10.52,3.38,15.31,14.73,14.66,25.13,10.12-.03,6.23,5.47,5.36,10.71-.36,2.18,2.19,6.63-2.43,7.56l1.43,2.88c-5.1,3.6-5.21,12.96-13.84,10.24-.63,11.19-3.51,19.31-14.23,24.05.37,14.86,3.1,27.95,4.82,42.32l36.83-5.72c2.01-15.42,1.32-32.65,11.29-44.95-16.86-5.14-19.18-20.34-8.33-33.15,8.05-9.51,23.94-14.22,35.76-16.85-2.78-15.66,8.56-33.51,19.99-43.5,1.67-1.46,4.36-1.8,5.82-2.97,1.83-1.47,2.83-6.46,4.43-8.33ZM193.6,338.06h-47.45c2,5.26,3.27,10.97,5.17,16.23,4.13,11.45,9.93,23.32,14.22,34.83,1.13,3.04,1.44,6.42,2.61,9.46,4.51-.16,9.52,1.2,11.96,5.19.27-1,3.17-4.6,3.26-4.88.83-2.59-2.41-2.17-1.4-5.51.23-.77,5-9.01,5.81-10.2,5.64-8.31,13.8-14.48,22.5-19.25-.91-2.01-.25-8.42-1.5-9.62-.78-.75-7.03-1.51-9.73-4.51-1.99-2.22-4.63-8.75-5.43-11.73ZM292.05,345.47c-6.24.59-11.61-2.09-14.86-7.39-3.69,5.34-8.59,7.11-15.02,5.51-2.62-.65-3.47-2.78-4.85-3.19-6.45-1.92-9.63,9.46-15.58,11.13-8.95,2.51-17.9-1.62-20.74-10.52-1.74.03-9.23,7.28-9.57,8.7-1.3,5.36,3.97,18.88,7.42,23.36,6.06,7.88,19.63,13.32,28.8,16.46,10.25,3.52,13.64,6.78,23.86,1.26,16.2-8.75,24.65-27.12,20.55-45.32ZM462.78,348.8c1.51-.94,1.92-3.4.56-4.86-6.47-6.94-29.16,2.73-34.67,8.54-2.43,2.56-9.21,12.67-7.66,16.23.27.63,8.36,7.85,9.61,9.05,2.12,2.05,3.86,6.42,7.41,6.88,6.06.79,9.22-11.67,15.48-10.79,1.03,3.65-3.13,3.57-4.37,6.56,6.54,2.88,16.9-5.12,13.5-12.41-1.8-1.93-4.95-3.15-7.49-3.46s-9.35,1.68-8.2-2.01c.78-2.49,12.73-.62,14.97,1.07-.34-4.05-6.61-8.9-10.43-9.34s-8.46,4.7-10.39.24c.85-3.44,18.99-4.03,21.68-5.71ZM552.31,364.88c-5.42-6.91-11.57-14.3-20.27-17.34-3.68,1.27-4.89,4.52-8.29,6.38-2.61,1.43-10.53,2.9-10.94,3.3-1.77,1.73-2.71,6.11-6.96,8.74-5.77,3.58-9.24,1.58-13.87,2.93-1.51.44-2.98,3.2-4.64,4.13-2.95,1.64-11.09,1.43-4.31,7.43,4.43,3.92,11.46,3.24,16.48,1.03,3.84,9.03,11,11.7,20.29,9.41,1.66-.41,3.4-2.47,4.88-2.42.53.02,6.35,4.65,9.12,5.45,7.55,2.18,14.79,1.2,21.65-2.42,6.08-3.2,7.83-5.79,5.58-13.11-1.38-4.48-6.13-10.18-8.74-13.5ZM121.31,351.96c-4.59-5.66-12.4-4-8.02,3.26,3.13,1.23,7.19.37,8.02-3.26ZM208.2,349.75c-1.27.14-3.17-.58-2.91.72l2.91.74v-1.45ZM89.56,360.35c-.83-1.08-1.74-2.48-3.37-2.24l-3.55,4.03c3.28,1.95,4.34,4.7,8.04.95.63-1.98-.5-1.94-1.12-2.74ZM150.52,360.7c-1.26-1.23-6.43,6.35,2.2,3.64l-2.2-3.64ZM213.78,369.72c-.63-.91-2.35-1.38-2.28-3.17-10.91,6.11-23.41,16.89-25.16,29.9,15.73,5,31.29-1.63,45.22-8.74-3.32-3.94-8.53-5.21-12.14-9.02-2.52-2.66-3.72-6.18-5.65-8.97ZM435.52,388.18c-4.36-4.36-11.21-12.8-15.55-16.21-1.34-1.06-3.38-2.14-5.12-1.43-4.91,1.98-17.63,19.76-19.37,25.22-2.58,8.1-3.83,20.39,5.34,24.74,16.81,7.98,32.2-12.16,40.71-23.99.33-.46,1.17-.75,1.76-.78.34-.45-7.01-6.8-7.76-7.55ZM476.76,376.14c-.53-.34-9.04-1.16-10.78-2.24-2.03,8.51-8.12,9.88-15.77,10.89l-6.14,37.93c.72.92,21.39,4.57,22.92,4.41,1.12-.12,8.49-4.98,10.82-5.97,10.01-4.24,21.8-8.92,32.47-11.34,2.66-.6,6.17-.74,8.94-.92v-13.88c-5.79.48-11.98-.57-16.74-4.06-1.81-1.32-3.43-4.66-5.05-5.05-3.68-.89-7.45,1.29-13.38-1.33-4.68-2.07-6.79-8.12-7.27-8.43ZM157.45,377.87c-.51-.59-.9-1.24-1.43-1.8l-29.59,12.01c-2.14,10.63-1.7,21.58-14.48,24.58-1.37,11.94,1.33,22.89,6.57,33.39,2.44,1.44,6.84-3.38,8.88-4.43,2.56-1.32,5.47-1.42,7.97-3.5,4.59-3.82,7.95-13.08,13.56-17.54,10.43-8.3,18.02-1.59,28.69-7.04,1.89-5.75.51-9.6-5.14-11.62-1.9-.68-4.28.12-5.9-.67-4.19-2.05-5.52-19.23-9.12-23.38ZM41.76,382.6l-22.64-.73c.91,5.06-1.7,31.39,1.14,33.56,3.27,2.48,29.28,3.74,31.63.69.39-.51.17-4.26-.1-5.21-1.4-5.09-9.81-6.63-10.62-9.08l.59-19.22ZM62.09,382.71l-4.28-.11c2.29,6.47-5.41,25.65,4.38,24.84-2.16-3.54,4.77-10.05,4.81-11.32.07-2.08-2.34-3.94-2.55-4.6-.45-1.39-1.42-8.24-2.37-8.8ZM445.47,392.1l1.46-8.76c-2.28,1.38-3.37,4.31-6.57,3.66-1.15,1.1,3.72,4.97,5.11,5.1ZM291.44,393.55c-1.57-7.32-4.27-12.79-10.94-5.47,4.07,2.07,5.74,8.06,10.94,5.47ZM283.4,393.57c-2.47.59-3.74-2.94-5.46-2.94-.96,0-9.84,5.84-13.33,6.4-7.75,1.24-26.02-9.59-30.08-8.23-.56.19-6.53,4.35-6.68,5.1.56,15.47-3.16,37.23,19.08,35.1.35-11.23-2.78-20.73,8.8-26.97,9.21-4.96,18.1-4.06,26.61-6.98.98-.34,1.3.43,1.06-1.48ZM121.09,401.37c1.37-3.39.83-8.56.96-12.19-12.22,3.77-25.6,6.65-38.34,8.02-5.93.63-12.25-2.3-15.81,3.17-5.17,7.92-3.91,18.65-1.89,26.97,1.14,4.72,2.65,4.86-.17,10.76,8.76-1.12,14.62,13.95,20.26,14.48,4.21.4,1.74-7.67,2.37-10.1,4.91-.95,7.83,3.35,11.31,5.84,3.39-4.89,4.91-8.34,4.02-14.6-12.06-.26-19.97-14.74-10.89-23.68,3.04-2.99,10.18-3.14,14.21-2.64,3.49.43,4.86,4.11,9.6-.2.27-.25,4.23-5.5,4.37-5.84ZM560.79,392.85c-8.95,4.04-17.12,6.77-27.14,4.15-2.99-.78-8.52-5.08-11.05-4.09-3.61,1.4,1.29,15.44-1.2,17.82-2.08,2-23.9,3.48-27.74,7.65,13.72,1.66,22.63,15.18,21.16,28.49,12.91-.98,30.03-5.84,39.77-14.63,13.03-11.77,8.88-23.89,6.2-39.39ZM322.82,397.2c-.45-1.45-1.81-1.91-3.06-2.4-9.28-3.67-33.74,3.23-44.19,5.16-1.99.37-6.91-.97-8.95,1.62l9.81,4.42,46.39-8.8ZM224.27,411.45v-15.34l-1.49-.78c-7.85,3.51-17.71,6.17-26.35,5.81-3.76-.16-6.64-1.5-10.15-1.42-4.05,10.6-7.71,23.32-6.46,35.02.53,4.94,4.2,12.68,7.99,16.1.7.64,4.37,3.09,5.11,3,7.03-.86,4.71-10.31,12.05-10.6s5.7,6.2,7,7.16c.45.33,2.9.07,4.55.93,5.85,3.05,4.84,8.91.8,13.06,5.01,1.04,7.62,6.44,12.03,7.69,3.26.93,7.66.24,10.97,1.79-1.28-13.3-1.8-29.98,5.11-41.62-3.31-1.01-25.87-4.71-26.69-5.81s-.3-2.29.83-2.93l9.07,2.15-4.37-14.24ZM329.4,408.89c-.93-2.29-1.5-9.18-4.59-9.32l-45.84,10.44,2.62,9.12,47.81-10.24ZM443.03,410.14c.51-3.02.22-6.24.62-9.27l-9.14,9.81c-2.44,16.67-4.05,21.39-19.85,27.64-24.52,9.71-50.89,12.34-56.61,44.15-1,5.55-2.46,13.56-3.08,18.22-.78,5.84-.2,12.4-2.03,18.28.39,4.95,13.97,3.88,15.85.35,1.47-2.75.97-19.76,1.5-24.6,2.65-24.25,11.75-35.05,33.58-44.55,10.6-4.61,28.88-8.3,34.3-19.72,1.81-3.81,4.19-16.37,4.85-20.32ZM275.87,410.59c-7.06-9.43-24.73-9.62-24.56,4.86l26.98,3.67c.38-2.81-.73-6.28-2.42-8.53ZM107.67,415.3c-.42-1.44.04-2.86-.53-4.26-21.45-6.29-17.05,25.7,2.22,19.06-.75-3.44-.07-7.07-.46-10.48-.06-.55-1.38-.64-1.45-.87-.77-2.3,2.07-1.35,1.49-2.92-.23-.63-1.18-.26-1.26-.53ZM327.15,422.72c.25-.26-.06-2.53.38-3.63.98-2.43,2.82-3.77,1.86-7.27l-11.69,2.54c-1.11.79,2.39,12.84-8.56,14.08-12.58,1.42-7.95-8.97-10.86-9.98l-16.64,3.5c-1.62,5.87,2.25,10.14,1.14,16.42,6.34,2.29,8.2,4.33,8.66,11.43l29.16-5.88c-1.55-3.43,1.86-6.61,2.05-7.72.44-2.62-1.07-11.3,1.66-13.07.83-.54,2.61-.17,2.84-.42ZM313.12,423.29c1.86-2.19,1.69-5.96.94-8.56l-11.67,2.2c-1.15,7.61,5.61,12.36,10.73,6.36ZM427.86,424.87l1.55-9.4c-7.98,8.38-19.53,13.17-30.58,7.59-2.74-1.39-5.8-6.32-7.92-6.7-3.81-.68-20.06,5.64-23.94,7.85-15.1,8.6-24.44,30.22-2.24,35.64.89-2.71,10.65-8.59,11.07-9.28.32-.52-.89-7.26,2.97-11.56,8.58-9.58,36.65-12.01,49.08-14.14ZM177.54,416.93l-6.57,1.46c5.52,8.14.83,16.35.75,24.46-.06,5.63,5.04,20.3,1.76,24.42-3.03,3.81-23.61.47-28.79-.68l12.19,24.12c3.62.97,10.53,1.42,13.58-.89,2.51-1.91,1.52-6.23,3.74-8.68,1.95-2.16,5.97-1.96,6.19-2.2,1.32-1.45,1.2-17.78,1.47-20.79.12-1.27,1.4-1.02,1.49-1.57,1.08-6.59-6.97-14.98-7.9-22.58-.74-6.05.36-11.4,2.08-17.06ZM154.55,465.86c4.21.51,10.14,0,14.6,0,.24,0,1.7-.74,1.85-1.24.93-6.61-2.57-11.54-2.92-18.12-.2-3.78.65-6.9.7-10.57-3.73,2.45-18.63-.16-18.22-4.8.35-4,5.57,1.87,8.54,2.44,2.02.38,6.96.61,8.64-.51,3.65-4.12,1.93-14.36-4.41-14.67-14.51-.71-17.24,14.56-25.9,21.57-4.87,3.94-10.71,4.72-15.33,8.85-1.42,4.88,18.87,13.44,22.58,14.51,1.56.45,8.87,2.43,9.86,2.55ZM278.3,421.31l-28.48-2.92c-.38,4.1,2.81,7.03,1.46,11.68,2.99,1.44,13.59-11.38,16.96-3.46,2.18,5.11-1.53,7.07-2.37,11.49,3.09-.24,9.33,2.4,11.94,1.37,2.99-1.18.04-14.87.47-18.16ZM336.69,424.23c.96-5.84-2.48-6.53-6.55-3.63l6.55,3.63ZM505.08,427.41c-13.59-15.44-48.09,3.44-43.39,18.21.34,1.08,1.49,2.21,2.76,1.98-1.28-4.45,8.6-14.74,12.1-14.59,5.68.23-4.01,6.12-4.78,6.95-2.88,3.09-4.67,7.02-3.31,11.31,7.45,6.1,5.8-2.64,9.54-7.27,1.22-1.51,10.2-8.39,9.08-3.34-.22.98-16.96,13.1-6.89,14.98,7.61,1.43,7.74-6.05,11.83-7.84,3.65-1.6,19.02-.6,19.91-4.96-.12-4.34-4.02-12.19-6.87-15.43ZM335.23,431.53c1.51-5.36-4.67-8.64-8.41-5.12-1.91,3.68,6.27,3.4,8.41,5.12ZM464.46,429.35l-20.63-3.65-4.09,7.68,17.74,6.83,6.99-10.85ZM263.46,434.96c.98-1.51,4.27-6.68,1.27-7.72-1.61-.56-5.07,3.16-6.88,3.92-6.98,2.95-9.12.34-12.22,8.23-.26.67-1.53,4.13-1.59,4.37-.65,2.76-.48,6.37-1.34,9.24,1.27,5.34,32,11.74,36.33,4.83-2.25-.18-11.85.86-12.41-1.86-.73-3.55,10.61-1.58,13.4-1.9,3.01-.35,10.17-1.97,8.85-5.75-6.53,1.47-13.43,3.57-20.05,1.08l-.39-1.81c.44-1.68,21.33.93,17.89-4.36-3.59-1.06-25.63-.36-25.57-5.49.02-1.9,2.22-2.02,2.71-2.78ZM425.76,427.89c-10.99,2.4-40.04,4.94-46.01,15.14-.45.76-1.83,4.78-1.44,5.3,12.6-8.5,31.19-8.98,43.61-16.57.58-.35,4.07-2.91,3.83-3.87ZM325.75,432.27c-2.39,2.42,11.41,11.49,7.31,1.8-.75-.9-6.71-2.41-7.31-1.8ZM490.27,463.95c6.08-4.7,23.69-8.59,31.69-10.32,19.12-4.13,38.81-5.8,58.07-9.1,5.99-10.82-13.49-13.96-20.85-12.24-.48.11-2.48,3.03-3.32,3.61-9.07,6.3-28.95,14.31-39.98,14.6-5.6.15-2.86-2.6-4.41-2.95-4.85,2.55-9.88,1.66-14.79,2.71-7.11,1.52-7.89,8.68-15.16,9-3.64.16-4.46-2.15-6.68-2.76-1.38-.38-2.67.58-4.91-.08-3.05-.9-5.36-5.61-7.24-5.12-6.92,6.71-6.27,18.26.64,24.83,8.39,7.98,27.82,10.06,36.94,2.54,3.31-2.72,2.67-5.53,5.04-8.23l-1.43-8.24c-8.14.97-18.29,5.43-14.6,15.33l-4.27-.1c-2.75-4.39,1.8-10.82,5.26-13.48ZM114.29,445.89c-2.01-3.72-2.94-8.79-3.92-12.9-4.37.34-2.65,5.27-3.85,9.65-.8,2.89-2.29,7.47-4.91,9.02,1.89,7.69,9.81,11.35,16.81,13.82,6.14,2.16,13.73,4.69,18.96-.73l-11.31-6.19c-2.9-1.93-10.21-9.75-11.78-12.67ZM457.72,443.39c-1.12-1.24-17.57-4.83-20.5-6.77-13.33,14.32-38.51,14.4-52.01,28.47-13.65,14.23-10.56,33.83-12.95,51.31-.51,3.7-1.19,6.56-4.86,8.28l-.42,1.8c27.26,15.3,60.76,18.05,91.64,19.7-1.45-22.23-2.01-45.83,4.44-66.73-6.19-2.31-6.24-9.31-8.87-13.91-.44-2.48,1.25-7.75,2-10.51.93-3.39,4.98-7.8,1.53-11.63ZM324.47,443.77c1.89,1.91,6.25,1.21,4.56-2.72-2.06-4.78-8.25-1.01-4.56,2.72ZM72.41,443.23c-13.68-7.58-37.15-2.05-45.87,10.7-4.2,6.14-10.23,20.9-1.22,25.06l4.75-6.54-4.75-2.2c-2.92-6.58,4.98-11.78,9.82-6.9,3.19,3.22-.67,8.04,9.14,7.66,4.51-.18,5.54-2.13,7.68-5.51-4.97-2.51-5.46-6.61-3.56-11.61,4.52-4.67,8.64.32,11.41,4.15.55.77-.3,2.08.66,2.76,3.26,2.3,13.13.13,13.41-5.15-7.78-1.22-8.55-9.32-1.46-12.42ZM96.22,457.54c4.21-6.66,1.18-5.93-4.09-10.67,2.42,17.87-9.8,3.95-14.9,7.95-.44.35-1.02,3.88-2.02,5.44-4.13,6.41-12.15,3.65-18.38,3.49-4.53,11.23-11.9,11.12-22.6,8.77-8.44,15.6-11.75,8.34-23.12,2.45l10.24,22.42,3.89,4.22c22.04-7.01,46.65-14.16,67.16-24.9,3.29-1.72,15.8-7.4,11.07-11.61-2.64-.66-10.24-1.99-9.06-6.08.24-.83,1.54-1.02,1.82-1.48ZM206.55,447.1l-3.15.45-1.03,2.97,5.83-.74-1.65-2.68ZM71.39,449.31c1.04,1.81,1.61,5.12,3.93,2.26-.23-3.56-1.79-4.74-5.09-3.23-.31,1.1.9.51,1.16.97ZM321.37,447.6l-12.09,2.14.42,18.3c8.38-2.7,11.48-12.27,11.67-20.44ZM497.31,484.11v23.37l69.35-10.98c.72-2.53-1.86-1.66-1.52-4.01.2-1.42,1.48-.8,1.58-2.13,1-12.92.25-27.56.6-40.5l-59.1,10.51c-1.93,2.08,1.86,12.23-2.94,18.19-1.34,1.66-5.76,4.79-7.96,5.54ZM305.3,450.52l-6.49,1.53c-.32,7.87-.11,15.68.69,23.5,1.58,15.44,4.6,34.31,7.32,49.77l5.05,55.92,7.87-.91c1.04-.85-.35-8.37-.61-10.23-5.06-35.36-10.13-72.47-13.88-108.22-.19-1.83.42-10.93.05-11.36ZM295.81,452.71c-8.51-.27-10.23,7.29-17.19,9.46-8.35,2.6-15.13,2.02-23.59.87-.56,3.34-5.38,12.64-8.65,13.61-3.67,1.09-15.31-2.2-16.27-1.3-.13.12.08,1.6,0,2.18,15.05.96,3.06,7.07,2.88,7.82-.24.97,3.71,12.39,3.68,15.92-.02,2.53-1.76,9.26-3.13,11.45-1.29,2.07-6.29,4.64-6.75,5.7-.53,1.25,1.03,3.01-.29,5.33-.75,1.32-5.74,3.9-7.11,5.12-1.72,1.53-1.4,3.93-5.41,5.91-2.88,1.43-16.07,4.03-19.36,4.06-2.28.03-12.94-2.65-13.42-2.17-.26,8.32-4.09,13.89-13.14,12.43,1.59,9.94,4.54,18.73,4.38,29.2,1.74.12,1.27.22,1.46-1.08,1.03-6.84-2.63-15.63.23-23.15,1-2.62,6.4-7.87,9.22-8.3,3.94-.6,5.25,1.1,6.86.98s2.58-2.39,5.18-2.81c4.31-.7,28.62-.67,32.85.08,3.72.66,14.71,8.63,12.09,13.83l6.56-.73c-5.37-7.97-2.58-16.7,2.32-24.37,2.84-4.43,13.39-13.92,14.45-18.51.22-.97.33-10-.02-10.39-.14-.15-2.18.09-3.28-.72-1.55-1.15-2.14-3.26-3.99-4.12l.02-1.32c3.84-6.94,16.63-6.41,23.63-5.48,14.1,1.87,1.46,10.41,1.18,11.39-3.88,13.53,18.53,22.81,21.55,36.71,1.15,5.32,1.35,10.97-1.61,15.87-.95,1.57-3.53,2.22-4.22,3.88-.88,2.1-.36,4.97-1.64,7.81-.51,1.12-3.81,3.65-4.62,4.91-.97,1.53-.53,3.31-1.23,4.61-.93,1.73-3.22,1.72-3.11,3.82l21.56-5.81-12.08-122.71ZM195.49,459.56c3.65,4.69,10.31,3.75,15.93,2.58,6.65-1.39,7.91-7.5,1.48-8.65-5.31-.95-14.96.12-18.55,4.35-.6,1.8.79,1.27,1.14,1.72ZM191.29,456.49c-.17-.25-4.8-1.8-4.98-1.59l-.73,16.06,10.21-5.85c-4.56-1.59-3.48-7.1-4.5-8.62ZM54.7,456.57c-4.73-4.16-6.94,6.87-.44,5.25,2.86-.72,1.99-3.88.44-5.25ZM280.12,457.09v.73l.37-.37-.37-.37ZM100.88,461.47c.23-.28.03-2.31-.36-2.92-2.03-1.98-2.35.11-1.46,2.19.27.66,1.6,1,1.82.73ZM242.52,457.82v12.78c0,.48,1.3,3.6,2.54,3.28,1.56-.25,7.49-11.26,6.14-13.06l-8.68-3ZM32.97,470.22c.36-1.18.57-2.05.1-3.27-2.7-6.96-8.39,3.83-.1,3.27ZM139.02,466.78c-.53.29-.97,1.93-3.3,2.88-10.66,4.36-19.24-3.74-28.99-5.26-.99.76,8.39,12.67,9.2,14.5,1.65,3.77,2.62,8.51,3.55,12.54,5.71,1.54,10.52,2.05,14.3,7.06.91,1.21-.03,2.9,1.92,4.47,3.18,2.56,18.49,3.84,22.86,3.04-3.34-4.56-3.49-11.73-5.62-17.33-.3-.79-1.37-.88-1.62-1.49-2.99-7.37-6.09-13.62-9.65-20.47-.51-.38-2.02-.28-2.64.06ZM225.3,474.33c-1.2-1.55-2.73-3.71-4.31-4.83-9.93-7-33.13-3.34-36.14,10.22,14.03,3.07,28.4,1.39,42.37-1.06,1.96-1.09-1.51-3.81-1.92-4.33ZM108.72,472.62c-.71-.65-1.63-.79-2.51-.38l-27.23,13.35c3.8,9.69,1.2,20.36-7.12,26.63,4.97,8.55,7.75,19.45,20.06,15.88,6.17-1.79,7.27-11.97,14.55-16.12,7.91-4.51,21.03,1.17,23.79-7.61,3.21-10.2-11.42-7.99-13.27-10.44-1.25-4.17-5.44-18.73-8.27-21.31ZM234.48,480.47l-3.64.35c.07,1.23,3.56,1.28,3.64-.35ZM176.31,483.61c-1.06,1.45-1.78,7.72.86,7.07.62-.15,4.42-9.01,4.02-9.49-1.22.71-4.12,1.38-4.87,2.42ZM228.64,481.19c-14.18,2.8-28.72,4.15-43.07,1.78-4.34,6.61-6.42,13.23-3.71,21.1,2.71,4.27,8.27-4.15,10.3-4.97,9.15-3.72,9.37,5.26,6.56,11.3,1.24,1.08,17.85-1.48,21.51-.7,3.34.71,3.38,5.12,6.45,5.01,2.43-.56,7.47-10.64,7.06-13.43l-5.09-20.08ZM472.39,484.2l-7.2-2.28c-1.35,7.54-2.85,15.36-3.64,23.02-.96,9.29-.54,18.13.04,26.23.35,4.83-.37,10.13-.06,15.02h9.5s1.36-61.99,1.36-61.99ZM494.38,484.85c-6.3,1.44-12.56,2.04-18.97.73-.25,12.52.32,25.11.02,37.64-.28,12.16-3.09,32.56-1.5,43.8,1.2,8.51,17.38,6.45,19.07,2.19l1.38-84.35ZM64.27,533.93c-.89-.52-5.25-.73-7.47-1.7-12.96-5.64-10.71-22.95,3.53-24.06,5.78-.45,8.07,3.55,12.48-1.39s4.74-13.53,3.25-19.75l-49.09,17.7c-7.61,8.08-8.14,22.36,1.55,29.5,2.52,1.85,5.45,2.79,8.13,4.3-8.21,9.52-3.1,19.88,10.09,16.63,3.79-.93,3.92-3.95,7.5-5.62,5.37-2.5,9.67-2.14,12.92-9.03.31-.87-2.58-6.41-2.89-6.59ZM162.58,507.48h17.16c-1.78-4.27-2.7-7.87-2.19-12.61-5.18-4.89-12.61,2.09-18.98-1.26.29,2.56,1.73,13.17,4.01,13.87ZM283.39,498.7c.12-1.23.21-1.64-.75-2.51-2.11-1.9-17.65-1.45-20.38,0-4.8,7.69,12.24,6.41,16.68,4.99,2.02-.65,2-2.76,4.45-2.49ZM565.21,500.18l-67.9,10.22v15.34l67.9-10.22v-15.34ZM181.92,509.67v24.1c10.72,2.62,24.43,2.32,33.58-4.37-2.83-.22-13.77,3.09-11.7-1.86,4.82-1.29,22.61-.46,18.55-8.42-1.55,2.24-24.62,5.04-16.53.21,1.7-1.01,16.08-1.58,16.24-4.18-7.21-6.19-19.06,1.43-27.69-3.33-.84-1.03,3.84-4.99,2.89-9.06-1.32-5.66-6.29,2.07-7.39,2.82-2.17,1.47-5.53,2.9-7.95,4.1ZM278.29,504.56l-10.95.72c2.87,17.7-19.28,25.49-19.75,41.99-.15,5.44,1.88,9.03,6.24,11.89,9.23-6,30.16-12.48,16.43,6,9.58,1.63,22.13-2.32,27.62-10.7,4.83-7.37,2.61-14.65-2.19-21.66-6.05-8.83-20.65-13.74-17.4-28.24ZM178.19,510.49c-14.8-.39-30.19-.45-44.29-5.05-6.45,6.4-3.09,5.15-2.33,11.15.5,3.96-1.22,7.73-1.2,9.52.01,1.52,2.91,2.98,3.38,3.84,2.65,4.79,4.45,10.66,4.37,16.24,5.64-1,33.18,1.58,36.21-.66.24-.18,3.09-4.72,3.18-5,.8-2.75,2.03-29.03.69-30.04ZM67.82,512.81c-8.69-7.2-24.36,6.76-11.84,15.13,5.89,3.93,7.98.51,13.88,1.45,1.13,1.64-2.04,2.2-1.84,4.69.15,1.82,7.28,14.09,8.76,15.94,9.87,12.33,33.47,16.21,47.75,21.72,5.59-1.59,9.62-11.9,10.46-17.34.93-6.01.97-12.03-1.33-17.83-.21-.53-5.32-8.09-5.78-8.3-1.65-.75-5.82,1.9-8.91,1.71-2.27-.13-9.66-3.01-10.06-5.34-.7-4.15,4.88.24,5.43.42,5.8,1.9,7.74,1.53,13.35-.96,5.48-12.67-7.49-13.4-16.39-10.93-7.04,1.95-9.04,11.29-14.45,15.49-6.81,5.29-15.21,4.78-20.81-1.81-2.32-2.74-6.31-12.44-8.23-14.03ZM351.29,511.87l-35.77,5.1c.45,8.12,1.15,16.25,2.23,24.31.08.57,1.32.29,1.49,1.57,1.59,12.34,2.04,24.97,3.62,37.33-.45,4.74-6,4.06-9.53,3.97-.15,5.31,1.37,8.35-2.91,12.04.22.93,16.23,8.27,17.17,8.39,1.47.2.95-.04,1.08-1.06,2.06-15.94.86-32.77,2.94-48.2,2.43-18.05,16.66-20.14,31.4-25.7l-.04-3.88c-10.45-.17-14.81-2.63-11.67-13.88ZM565.21,519.17l-51.1,8.76,51.1,13.15v-21.91ZM497.31,529.39v37.61c0,8.79-13.14,9.36-19.31,8.36-11.85-1.92-6.55-17.99-6.97-26.25h-11.68l2.16,8.96c-2.38,1.91-1.24,4.72-3.97,7.12-.86.76-4.58,2.48-5.82,2.94-10.69,3.95-45.84,8.08-55.66,3.76-8.57-3.77-4.06-11.24-4.61-11.82-9.16,2.61-36.31,6.68-43.34-.1-7.72-7.44,4.84-18.98,12.05-21.35,3.88-1.27,5.57-.72,9.05-1.19,2.33-.31.62-7.08-2.25-6.5-.46.09-.62,1.77-2.06,2.2-2.05.61-4.21.5-6.16,1.15-27.99,9.37-33.11,26.57-4.29,40.51,47.91,23.18,173.4,27.44,220,1.46,6.58-3.67,17.88-11.69,11.92-20.24-5.53.22-11.2.99-16.58-.91-6.52-2.3-3.76-8-6.05-10.74-1.45-1.74-35.19-10.8-39.99-11.84-3.78-.82-24.63-5.22-26.44-3.13ZM404.58,542.54l-32.11-8.77c.23,5.72,6.98,8.21,9.75,13.21,1.96,3.52,3.09,7.56,2.66,11.62.31.33,8.36-1.27,8.9-1.5,1.23-.52,3.35-4.07,4.58-5.09,4.48-3.68,7.62-1.03,6.22-9.47ZM380.05,551.03c-5.73-12-15.55-14.84-25.87-5.25-3.41,3.17-7.17,10.01-2.13,13.16,3.74,2.34,28.44,2.2,30.33-.31-.41-1.86-.18-4.22-.73-5.96-.39-1.22-1.44-1.31-1.6-1.64ZM69.48,544c-1.98-.03-2.17,2.83-4.22,4.33-5.26,3.83-14.12,5.81-19.6,11.27-3.75,3.73-12.03,20.67-12.58,25.74-.42,3.87-.09,7.36,2.11,10.5,7.3-13.04,15.1-27.33,27.48-36.38,3.49-2.55,7.94-4.99,11.92-6.71l-5.12-8.75ZM419.92,545.46l-10.95-1.47v3.65c3.74-2.54,8.81,2.34,10.95-2.18ZM456.33,549.2l-30.83-2.8-4.85,3.79c6.3,3.5,10.96,11.07,12.78,17.91,1.65,1.81,19.72-2.77,22.04-4.62,3.75-2.99,2.47-10.38.86-14.28ZM229.19,547.12c-1.54-.59-30.27-.57-32.86-.03-2.97.61-14.05,12.11-12.21,13.7,4.42-1.22,35.82,1.53,37.26.35.88-.71.61-2.57,2.18-3.61,2.63-1.75,9.85-1.89,13.12-2.58.5-.49-6.97-7.63-7.48-7.82ZM182.19,555.22c.32-.39,6.92-6.35,3.73-6.84-3.8-.59-9.34,8.01-8.37,11.68,2.53.61,2.95-2.79,4.65-4.84ZM137.75,579.05c9.13,1.17,20.54-.87,29.93,0,2.97,0-1.47-19.05-1.78-20.86-.38-2.23.99-8.67-1.85-9.14-7.13-1.16-17.62.9-25.13.13-1.7,9.42-3.53,20.25-12.5,25.11-.03.82,9.8,4.55,11.32,4.75ZM423.11,556.88c-2.48-2.86-4.6-6.26-8.86-6.88-7.78-1.14-22.47,8.02-19.56,16.68,2.33,6.94,28.15,3.53,34.31,2.96.96-5.29-2.73-9.12-5.89-12.76ZM588.93,553.49v.73l.37-.37-.37-.37ZM81.56,558.21c-3.45-2.13-2.14-3.95-7.09-2.3-47.66,15.93-52.29,120.76-59.71,160.94-.33,1.81.33,3.99-.6,5.88,8.75,10.82,22.91,11.81,34.42,4.69,4.65,3.81,12.3,7.27,18.36,7.22,5.83-.05,10.43-3.88,15.22-6.44,10.83,7.5,23.9,7.52,33.82-1.51,6.46,3.57,13.85,5.7,19.85.11l-12.3-97.36c-19.12-1.1-36.54-13.06-46.95-28.67-.7-1.06-6.84-11.74-6.34-12.21.22-.21,3.14-.94,3.58-.69,8.53,19.17,25.3,34.73,46.51,38.57,16.73,3.04,36.62,3.32,53.23.09,2.69-7.06,4.59-13.96,4.77-21.52.05-1.94.41-10.98-.72-11.77-13.59-1.34-32.02,3.1-44.99-1.01-11.78-3.73-21.33-18.96-30.88-24.61-6-3.55-13.06-5.01-20.16-9.41ZM271.72,555.68c-1.25-1.19-18.92,6.91-19.76,8.34-1.94,3.3,1.07,14.28.89,18.57,7.69,2.54,16.06,1.69,23.98.83l-3.68-1.06c-1.23-5.65,13.14-.11,13.16-7.69-1.55.09-11.04,3.88-10.21.38.34-1.42,18.4-3.13,16.78-11.33-7.35,3.12-16.14,6.53-24.1,4.03-9.58-3,4.73-6.52,2.94-12.06ZM236.67,557.87c-9.69,1.08-14.67.72-11.53,12.27,14.51,7.09,11.77-1.45,11.53-12.27ZM249.08,560.07l-8.01,1.29-.75,25,8.7-1.19c-.67-8.24-3.06-17.15.06-25.1ZM177.54,568.09h44.53l-.73-4.39c-14.57,0-29.3.39-43.81-.73v5.12ZM580.28,576.59c-46.08,29.99-183.98,25.63-231.68-1.05-5.28-2.96-9.99-6.64-14.09-11.09l-2.13,46.3c.84,7.75,13.29,7.64,19.1,6.83,6.42-.89,11.65-5.51,17.63-6.45,7.19,21.77,39.02,22.34,54.09,8.07,4.12,3.31,5.49,6.31,10.35,9.39,13.66,8.65,33.71,10.61,46.71-.13,2-1.65,4.39-7.11,7.34-6.87,16.18,12.7,40.14,17.11,55,0,1.05-1.21,2.38-5.71,3.43-6.03,2.04-.62,13.72,5.79,18.27,6.4,7.3.98,16.46-1.07,21.27-6.85,2.83-3.41,2.48-6.46,2.84-10.86.61-7.31.77-24.32.07-31.31-.08-.75-.27-3.43-1.36-3.37-.82,1.96-5.03,5.85-6.84,7.03ZM168.77,581.98c-11.74-.8-25.44,1.66-36.78-1.55-7.45-2.11-13.71-8.48-21.6-9.79,6.44,6.15,17.87,17.94,26.82,19.17,10.41,1.43,21.77-.34,32.3.19l-.74-8.03ZM222.44,571.02h-44.17l.78,18.94c9.69,2.21,15.14-10.89,24.59-6.32,3.05,4.03.74,6.1-.54,10.02,7.96,1.81,29.91-7.76,26.28,7.3l7.29-.73v-24.82c-3.24.07-6.52.21-9.65-.92-2.24-.8-4.05-3.31-4.57-3.46ZM308.95,579.04c-6.43,1.04-12.44,3.59-18.8,4.93-8.29,1.74-20.59,4.08-28.99,3.82-2.01-.06-6.67-1.7-7.92-1.48-.29.05-2.22,2.94-4.72,3.48-2.68.58-5.49.04-8.19.21l.13,6.82c9.09,5.39,20.69,5.78,30.82,3.33,1.94-.47,7.21-3.38,8.23-3.42.77-.03,6.14,1.93,8.61,2.07,13.92.79,26.21-3.42,20.83-19.74ZM174.61,590c-.12-2.32.58-6.33-1.44-8.02.23,2.34-.9,6.53,1.44,8.02ZM279.02,581.98c-.78-.52-2,.35-1.45.71.78.52,2-.35,1.45-.71ZM202.36,586.36c-7.81-2.6-12.27,7.06-20.34,7.39l-.87,22.2c11.55,1.72,25.76,2.84,35.81-4.04l-12.42.72c.1-.6-.16-1.95,0-2.17,1.52-1.94,19.75.81,20.44-6.58-6.07.14-12.19,2.76-18.25.71-.41-1.7.72-1.71,1.99-1.98,2.31-.47,19.18-1.25,18.44-4.94s-23.26.53-27.72-1.48c-4.35-1.96,4.53-7.71,2.9-9.84ZM589.3,696.99v-48.56c-55.29.17-111.17-4.12-165.9-12.6-10.68-1.65-20.72-3.01-31.39-4.39-11.22-1.45-22.76-11.15-34.7-12.08-3.93-.31-9.23,1.7-14.44,1.35-5.79-.39-12.76-2.61-14.76-8.6-.45-1.36.2-3.68-.27-4.47-.58-.97-19.58-8.86-20.71-8.93-2.91-.19-4.81,2.3-7.66,2.27,25.99,20.97-.43,22.53-19.14,16.58-6.27-1.99-15.35-5.38-15.99-12.84l-14.6-.4c-.69,10.76-11.22,11.78-19.97,11.24-3.31-.2-8.32-2.4-11.53-1.44-.74.22-.86,1.71-1.74,2.04-12.01,4.46-24.19,4.9-36.75,2.33.12,3.74-2.11,5.02,1.53,7.6,11.82,8.41,46.56,20.02,61.41,24.74,107.53,34.17,221.93,45.05,334.55,47.29,2.25.04,11.44.6,12.07-1.12ZM305.6,611.61c-1.6-2.64-8.78-9.3-11.64-9.9-.8-.17-14.38-1.4-15.14-1.32-.7.07-11.31,4.04-11.45,4.64.55,3.28,3.04,5.03,5.76,6.57,5.16,2.9,32.06,10.65,34.27,3.48.65-2.12-1.32-2.65-1.81-3.46ZM246.08,602.5c-1.69.1-4.74-1.86-6-1.6-.69.14-.66,1.81-1.66,2.14-1.56.51-9.62.12-10.43.91-.26.25.16,2.13-.76,3.27-1.49,1.85-4.24,2.55-5.87,3.95,8.37,1.66,26.31,4.8,24.73-8.67ZM367.58,617.55c-.6-.82-.9-1.71-.97-2.72l-5.82,2.2c.47.88,10.05,4.3,8.75,1.82-.36-.68-1.6-.82-1.96-1.31ZM589.3,646.23v-29.94c-6.16,7.42-16.86,9.87-26.31,8.43-5.65-.86-10.82-4.22-16.02-6.24-10.2,22.7-41.69,20.28-59.38,7.43-6.67,5.88-12.89,10.34-21.68,12.65l123.39,7.67ZM439.63,635.27c-5.91-3.45-11.79-6.57-16.74-11.37-4.39,1.74-8.13,5.93-13.19,5.54l29.93,5.83ZM589.3,701.73l-133.22-5.86c-93.67-12.18-190.33-25.95-276-67.15-1.81-.23-1.15,5.43-1.11,6.96.1,3.26,1.87,20.94,3.38,22.18,25.79,12.85,52.8,23.04,80.47,31.24,92.86,27.51,192.97,36.64,289.63,41.83,12.31.66,24.59.6,36.85.74v-29.94ZM174.62,629.44c-15.59,3.7-32.24,1.96-48.18.72-1.49,2.95,1.37,6.03,1.43,6.37,1.24,7.52,1.35,15.31,2.58,22.85,1.5,2.71,23.08,1.89,27.01,1.44,2.73-.31,19.12-3.74,19.95-5.23,1.68-2.99-1.26-5.14-1.38-6.03-.88-6.5-.7-13.56-1.41-20.12ZM178.27,659.38c-15.51,4.93-31.2,6.48-47.45,4.38l1.44,11.16c2.36,3.56,41.34.46,46.42-5.32l-.41-10.22ZM163.94,683.73c.7-1.13,7.55-6.09,2.27-6.85-4.96-.72-18.13,4.54-24.67,2.19-6.91,6.7,14.57,17.49,18.11,16.84.71-4.76,1.77-8.13,4.29-12.17ZM136.59,679.17c-.78.23-2.71-1.15-2.85-.44-.36,1.78,1.75,24.91,2.51,25.97,4.03,1.99,17.57,2.17,18-3.34.5-6.41-16.45-10.57-17.84-17.99-.27-1.43.44-2.79.19-4.21ZM162.96,695.87c5.36.95,23.19,1.76,26.99-1.81,5.27-4.95-14.88-12.59-17.91-14.15-3.93,4.66-9.64,9.32-9.08,15.96ZM136.65,730.94c-2.69.78-6.41,2.86-9.14,2.95-4.1.14-9.15-3.52-12.35-2.96-1.36.24-3.97,3.04-6.26,4.02-5.95,2.55-13.31,2.35-19.46.5-2.06-.62-5.89-3.53-7.18-3.51-1.66.02-2.95,2.52-4.58,3.18-7.52,3.02-12.48,3.62-20.26.96-2.48-.85-7.79-4.48-9.46-4.48-1.41,0-7.24,3.16-10.41,3.53-9.53,1.12-15.96-2.02-23.53-7.11.04,5.78-5.53,17.66.33,21.21,11.57,7.01,55.77,10,70.15,9.5,10.46-.36,42.07-4.11,50.03-9.84,6.21-4.48,1.17-11.59,2.13-17.94ZM123.52,756.5l-29.16,4.42-.1,17.74c8.12,4.86,17.79,4.58,26.89,3.98,1.83-6.7,2.67-12.92,8.2-17.76.31-1.98-3.45-.45-5.03-2.98-1.04-1.67-.82-3.57-.8-5.41ZM67.31,760.88l-30.95-2.87c-3.05,1.01-4.56,14.32-3.81,16.78,1.83,5.96,21.87,6.68,27.04,5.91-.67-8.84,7.67-12.38,7.73-19.81ZM90.67,760.88c-6.73,1.07-14.15-1.58-20.44,1.45l20.43,7.31v-8.76ZM124.25,782.79c1.27,2.21,53.99-2.53,8.5-17.36-5.26,4.47-7.52,10.77-8.5,17.36ZM62.92,780.6h12.05c.81,0,15.13-3.09,15.69-3.66.81-2.01-1.56-1.15-1.47-1.81.07-.52,2.34-.15,1.47-2.54l-19.31-6.6c-2.87.29-10.42,11.15-8.43,14.62Z"/>
  <polygon points="594.41 -.06 595.14 -.06 595.14 841.94 .14 841.94 .14 841.21 594.41 841.22 594.41 -.06" fill="#fff"/>
  <path d="M130.82,288.77c.26-.7,3.02-1.44,4.07-2.51,4.05-4.14,6.49-15.17,6.18-20.89s-4.52-14.8-11.02-15.4l.72-73.72c7.2-4.08,6.13-10.03.78-15.27,6.68-4.36,5.86-16.78,5.02-24.01-.68-5.83-5.05-18.4-7.67-23.76-.63-1.29-3.96-6.42-5.41-4.83-3.89,5.89-5.82,12.15-8.08,18.79-.17.51-1.22.66-1.51,1.6-2.88,9.36-6.03,26.04,2.3,32.96v1.08c-8.03,1.69-6.1,11.48.76,13.65l.73,72.77c-9.49,1.42-5.08,10.62-12.43,12.9-.77-13.47-6.79-21.51-18.26-28.12,5.16.64,7.84.46,12.36-2.24,6.2-3.7,10.35-13.25,9.52-20.24-.47-3.94-.91-9.4-1.45-14.01-.9-7.69-5.38-7.71-6.42-10.37-.74-1.88-.58-7.19-1.19-9.76-2.35-9.83-5.61-15.82-12.79-22.99l-.08-39.43c.32-1.68,3.85-2.6,5.18-4.35,3.47-4.58,1.81-11.81,2.17-17.18,6.92.05,16.39-1.43,17.94-9.44,2.17-11.18-1.84-20.2-14.29-19.03-1-1,2.97-24.56,3.7-27.94.12-.56,1.21-.54,1.35-1.11,2.57-10.99,4.48-21.44,9.32-31.6l218.8.13c1.28.49,4.65,16.85,5.65,19.75.2.57,1.13.7,1.48,1.63,12.98,35.26,35.69,65.89,65.22,89.54l.44,193.88c-.38,2-5.04,2.69-6.78,5.67-2.05,3.52-1.49,7.39-1.95,11.17-5.53,1.66-8.81,4.63-12.88,8.33l-88.69.75c-.71-9.19-1.48-22.93-4.72-31.46-.64-1.69-5.31-6.96-5.52-8.38-.68-4.64,1.88-15.28,2.19-20.43.16-2.72.95-9.49-1.96-10.42-7.11-2.27-15.43,7.14-6.79,10.43l-5.11,4.75v-12.78c0-4.43-12.46-13.76-16.8-15.33-1.81-.65-9.15-1.48-9.48-1.83-.26-.28.37-2.43-.16-3.5-.65-1.29-6.1-5.27-8.16-5.23-9.81.19-7.7,9.39-8.48,10.19-.13.13-2.57-.1-3.66.35-11.67,4.79-16.1,12.05-18.24,23.75-2.01-1.07-8.22-3.91-9.89-1.5-.85,1.22,2.64,26.16,3.34,29.49.19.91,1.76.03,1.45,1.22-9.3,7.57-11.19,19-9.48,30.68h-47.82c-.93,0-1.8-5.66-7.86-2.91-.34.16-5.64,7.11-5.64,2.55v-46.01ZM174.75,265.63c-.51-.29-1.88-5.79-3.46-7.13-7.49-6.37-8.51,7.05-9.94,7.86-1.69.95-8.43-1-10.82,3.43l8.01,8.4-2.08,8.66c4.56,2.99,9.71-2.64,12.73-2.82,2.85-.18,3.67,2.43,5.81,2.89,8.99,1.93,4.08-5.67,4.85-9.65.55-2.84,5.97-4.82,5.58-8.86-1.71-4.05-8.9-1.76-10.68-2.78ZM158.35,309.05c-2.11-2.37-6.71-2.95-9.09-.73-2.19,2.03-1.16,6.76-1.75,7.74-.36.59-7.1,1.38-7.26,7.06-.2,7.12,7.28,3.47,9.1,4.04.95.3,1.45,6.18,7.39,6.57,5.55.36,7.66-4.83,5.46-9.53,4.62-.34,5.92-3.56,8.77-6.22-2-6.32-8.91-3.71-11.22-5.4-.91-.67-.55-2.55-1.41-3.52Z" fill="#fff"/>
  <path d="M5.25,330.03l3.58,3.96c-1.24,14.83-3.68,29.56-2.75,44.5l10.16,3.12c-.34,3.54.31,7.44.01,10.91-.11,1.32-1.49.8-1.57,2.1-.21,3.42-.51,17.54.27,19.93.09.28,3.69,3.58,4.48,3.9,5.69,2.35,30.49,3.77,34.78-.38,2.01-1.94,1.8-6.44.75-8.87-1.51-3.51-10.5-7.72-10.89-8.82-1.52-4.26,1.68-12.93.61-17.77h10.22c2.3,9.76-6.1,25.72,6.48,28.94l1.55,25.1h-11.32c-1.88,0-11.01,3.25-13.28,4.25-12.96,5.72-21.81,17.72-21.41,32.27l-9.49-2.19c-.23,2.95.31,5.81,1.26,8.58.27.78,1.37.88,1.61,1.49,1.99,4.98,10.43,19.53,10.86,22.63.26,1.84-3.49,11.04-3.55,15.13-.14,8.85,5.1,17.99,13.92,20.09-5.04,10.37-1.26,19.77,10.95,19.71-8.45,12.06-17.1,27.07-9.53,41.89-1.59,5.06-3.05,10.08-4.41,15.21-9.95,37.55-14.25,79.92-19.57,118.73-.38,2.81-1.92,14.29-.07,15.87l22.62,6.97c-.45,4.96-3.82,16.55-1.36,20.7,3.89,6.57,34.49,6.1,41.88,5.54,5.64-.42,13.75-3.37,18.98-2.96,2.5.2,6.87,3.26,9.89,4.04,9.13,2.36,37.91,1.91,46.86-1.28,21.99-7.83-13-22.14-21.33-22.44l.09-5.75c14.63-4.43,15.5-7.88,13.74-22.2-.07-.56-1.32-.29-1.48-1.58-.94-7.33-1.18-15.62-2.13-23.05,7.28,1.06,23.77,1.56,19.71-10.22,6.98,1,32.09,3.5,36.27-2.42,6.24-8.86-14.92-17.28-20.94-18.77l11.7-6.95-2.21-9.1c38.79,18.98,80.47,32.04,122.49,42.15,82.2,19.77,171.52,26.7,256.06,31.59,9.83.57,19.79,1,29.55.01v102.24H5.25v-506.81ZM205.1,711.41c-6.02.78-25.56,6.75-18.81,15.53,5.55,7.22,33.72,8.25,42.63,6.83,6.12-.98,24.35-5.5,17.26-14.89-6.43-8.51-31.42-8.73-41.08-7.48ZM283.92,741.38c-6.6-7-29.54-5.81-35.75,2.16-4.79,10.92,21.61,10.58,27.51,9.26,4.87-1.09,13.52-5.82,8.23-11.42ZM269.11,796.98c2.98-3.05,4.8-4.05,1.45-8.28-6.62-8.38-29.45-7.62-39.28-5.82-27.58,5.04-25.53,19.81,1.35,21.85,10.43.79,28.88.02,36.48-7.75Z" fill="#fff"/>
  <path d="M589.3,696.99c-.64,1.72-9.83,1.17-12.07,1.12-112.62-2.23-227.02-13.11-334.55-47.29-14.85-4.72-49.59-16.33-61.41-24.74-3.64-2.59-1.41-3.86-1.53-7.6,12.56,2.57,24.74,2.12,36.75-2.33.89-.33,1-1.82,1.74-2.04,3.21-.95,8.23,1.24,11.53,1.44,8.75.54,19.27-.49,19.97-11.24l14.6.4c.64,7.46,9.73,10.85,15.99,12.84,18.71,5.95,45.13,4.39,19.14-16.58,2.85.03,4.75-2.46,7.66-2.27,1.13.07,20.13,7.96,20.71,8.93.47.79-.19,3.11.27,4.47,2,5.99,8.97,8.21,14.76,8.6,5.21.35,10.51-1.66,14.44-1.35,11.94.93,23.48,10.64,34.7,12.08,10.67,1.37,20.7,2.73,31.39,4.39,54.74,8.48,110.61,12.77,165.9,12.6v48.56Z" fill="#fff"/>
  <path d="M81.56,558.21c7.11,4.39,14.16,5.86,20.16,9.41,9.55,5.66,19.1,20.88,30.88,24.61,12.97,4.11,31.4-.34,44.99,1.01,1.13.79.77,9.83.72,11.77-.18,7.56-2.07,14.46-4.77,21.52-16.61,3.22-36.5,2.94-53.23-.09-21.21-3.85-37.98-19.4-46.51-38.57-.44-.25-3.36.48-3.58.69-.5.47,5.64,11.16,6.34,12.21,10.42,15.61,27.83,27.56,46.95,28.67l12.3,97.36c-6.01,5.59-13.39,3.47-19.85-.11-9.92,9.03-22.99,9.01-33.82,1.51-4.78,2.56-9.38,6.39-15.22,6.44-6.06.06-13.71-3.41-18.36-7.22-11.51,7.11-25.67,6.12-34.42-4.69.94-1.89.27-4.06.6-5.88,7.42-40.18,12.05-145.01,59.71-160.94,4.95-1.65,3.64.16,7.09,2.3Z" fill="#fff"/>
  <path d="M589.3,701.73v29.94c-12.27-.14-24.54-.08-36.85-.74-96.67-5.18-196.78-14.31-289.63-41.83-27.66-8.2-54.67-18.39-80.47-31.24-1.51-1.24-3.28-18.93-3.38-22.18-.05-1.53-.7-7.18,1.11-6.96,85.67,41.2,182.33,54.97,276,67.15l133.22,5.86Z" fill="#fff"/>
  <path d="M589.3,4.33v138.75c-11.58-4.16-23.09-10.59-33.39-17.31-28.84-18.82-53.11-46.33-71.5-75.29-9.28-14.61-17.31-30.29-24.33-46.15h129.22Z" fill="#fff"/>
  <path d="M420.65,358.51c-1.6,1.87-2.59,6.86-4.43,8.33-1.46,1.17-4.15,1.51-5.82,2.97-11.43,9.99-22.77,27.84-19.99,43.5-11.82,2.63-27.71,7.34-35.76,16.85-10.85,12.81-8.53,28.01,8.33,33.15-9.96,12.3-9.28,29.53-11.29,44.95l-36.83,5.72c-1.72-14.37-4.44-27.46-4.82-42.32,10.72-4.74,13.6-12.86,14.23-24.05,8.63,2.71,8.74-6.65,13.84-10.24l-1.43-2.88c4.62-.93,2.07-5.38,2.43-7.56.87-5.24,4.76-10.74-5.36-10.71.65-10.4-4.15-21.76-14.66-25.13-8.7-2.79-16.69,1.66-25.48,1.76.56-4.18-2.45-11.22-6.57-11.7,10.18-12.52,10.94-27.5,8.02-43.08l86.88-.72c-2.02,5.18-.21,10.61,4.03,13.86,3.65,2.79,18.9,7.31,23.35,7.31h11.32Z" fill="#fff"/>
  <path d="M457.16,4.33c.28,2.99,1.53,5.8,2.82,8.46,25.28,52.08,58.99,98.42,111.31,126.04,2.43,1.28,17.56,7.39,18.01,8.27.12.24.3,1.92-.43,1.82-29.76,3.66-59.44-2.58-86.36-15.05-54.28-25.14-92.52-74.68-112.51-129.54h67.17Z" fill="#fff"/>
  <path d="M580.28,576.59c1.81-1.18,6.02-5.07,6.84-7.03,1.08-.06,1.28,2.62,1.36,3.37.7,6.99.54,24-.07,31.31-.37,4.4,0,7.46-2.84,10.86-4.81,5.78-13.97,7.83-21.27,6.85-4.54-.61-16.23-7.03-18.27-6.4-1.05.32-2.38,4.82-3.43,6.03-14.86,17.11-38.81,12.7-55,0-2.95-.24-5.34,5.22-7.34,6.87-12.99,10.74-33.04,8.78-46.71.13-4.86-3.07-6.23-6.07-10.35-9.39-15.07,14.27-46.91,13.7-54.09-8.07-5.97.94-11.2,5.55-17.63,6.45-5.81.81-18.26.92-19.1-6.83l2.13-46.3c4.1,4.45,8.8,8.13,14.09,11.09,47.7,26.68,185.59,31.04,231.68,1.05Z" fill="#fff"/>
  <path d="M386.34,4.33c19.67,54.58,56.61,104.37,109.74,130.12,28.88,14,60.95,21.23,93.22,17.39v6.58c-53.91,5.27-112.06-1.93-159.37-29.36-38.75-22.46-71.32-58.74-87.3-100.51-2.94-7.69-4.71-16.38-7.39-24.22h51.1Z" fill="#fff"/>
  <path d="M407.51,118.25c18.3,12.53,37.6,23.67,58.81,30.63l1.83,78.5-.05,1.87c-1.74,1.91-19.23-15.56-21.89-16.41-.77-.25-1.41.25-2.12.44.03,5.43-.3,10.94-.1,16.37s2.41,15.54,1.44,20.38c-.59,2.96-3.43,3.83-4.72,6.23-2.46,4.56-.74,8.46-1.49,11.01-1.19,4.09-7.33,4.15-6.9,14.89.15,3.59,2.74,7.47,2.83,9.51.24,5.52-4.45,17.24-3.55,23.76-.87.88-22.24-.25-24.09-3.29V118.25Z" fill="#fff"/>
  <path d="M457.72,443.39c3.45,3.83-.6,8.25-1.53,11.63-.76,2.77-2.45,8.03-2,10.51,2.63,4.59,2.68,11.6,8.87,13.91-6.45,20.9-5.89,44.51-4.44,66.73-30.88-1.65-64.37-4.4-91.64-19.7l.42-1.8c3.67-1.72,4.36-4.59,4.86-8.28,2.39-17.48-.7-37.08,12.95-51.31,13.5-14.07,38.67-14.15,52.01-28.47,2.92,1.94,19.38,5.53,20.5,6.77Z" fill="#fff"/>
  <path d="M497.31,529.39c1.81-2.09,22.66,2.31,26.44,3.13,4.8,1.04,38.54,10.11,39.99,11.84,2.29,2.74-.47,8.44,6.05,10.74,5.39,1.9,11.05,1.13,16.58.91,5.97,8.55-5.34,16.58-11.92,20.24-46.61,25.98-172.1,21.72-220-1.46-28.82-13.94-23.7-31.14,4.29-40.51,1.95-.65,4.11-.54,6.16-1.15,1.44-.43,1.59-2.11,2.06-2.2,2.86-.58,4.58,6.18,2.25,6.5-3.48.47-5.17-.09-9.05,1.19-7.21,2.37-19.76,13.91-12.05,21.35,7.03,6.78,34.17,2.71,43.34.1.55.58-3.96,8.05,4.61,11.82,9.82,4.32,44.96.19,55.66-3.76,1.25-.46,4.96-2.18,5.82-2.94,2.73-2.4,1.58-5.2,3.97-7.12l-2.16-8.96h11.68c.42,8.27-4.88,24.34,6.97,26.25,6.16,1,19.31.43,19.31-8.36v-37.61Z" fill="#fff"/>
  <path d="M108.92,4.33c-3.66,4.21-4.11,11.15-5.72,16.52-3.08,10.21-6.69,21.94-8.67,32.24-.67,3.5-.55,8.2-.94,11.86H5.25V4.33h103.67Z" fill="#fff"/>
  <path d="M295.81,452.71l12.08,122.71-21.56,5.81c-.11-2.1,2.18-2.09,3.11-3.82.7-1.3.26-3.08,1.23-4.61.8-1.26,4.11-3.8,4.62-4.91,1.28-2.84.76-5.71,1.64-7.81.69-1.65,3.28-2.31,4.22-3.88,2.96-4.9,2.76-10.54,1.61-15.87-3.02-13.9-25.43-23.18-21.55-36.71.28-.98,12.92-9.52-1.18-11.39-7-.93-19.79-1.46-23.63,5.48l-.02,1.32c1.85.86,2.44,2.97,3.99,4.12,1.1.82,3.14.57,3.28.72.35.38.25,9.42.02,10.39-1.07,4.59-11.62,14.08-14.45,18.51-4.9,7.66-7.69,16.39-2.32,24.37l-6.56.73c2.62-5.2-8.38-13.17-12.09-13.83-4.24-.75-28.54-.78-32.85-.08-2.6.42-3.6,2.69-5.18,2.81s-2.91-1.58-6.86-.98c-2.83.43-8.23,5.68-9.22,8.3-2.86,7.52.8,16.31-.23,23.15-.19,1.29.27,1.2-1.46,1.08.15-10.47-2.79-19.26-4.38-29.2,9.05,1.47,12.88-4.1,13.14-12.43.48-.48,11.13,2.19,13.42,2.17,3.29-.04,16.48-2.64,19.36-4.06,4.01-1.99,3.69-4.38,5.41-5.91,1.37-1.22,6.36-3.8,7.11-5.12,1.31-2.31-.25-4.08.29-5.33.46-1.06,5.46-3.63,6.75-5.7,1.36-2.19,3.1-8.92,3.13-11.45.03-3.53-3.91-14.95-3.68-15.92.18-.75,12.18-6.86-2.88-7.82.09-.59-.13-2.06,0-2.18.96-.9,12.6,2.38,16.27,1.3,3.28-.97,8.09-10.27,8.65-13.61,8.46,1.15,15.24,1.73,23.59-.87,6.96-2.17,8.68-9.72,17.19-9.46Z" fill="#fff"/>
  <path d="M470.3,150.38c22.38,7.14,45.79,11.09,69.35,11.69-1.26,8.15-2.67,15.2,5.74,19.43-5.68,13.54-8.04,27.91-9.89,42.7-3.33,1.47-18.98,11.97-21.4,10.57-1.52-.88-13.09-26.58-14.23-30.35-.7-.89-1.87-.91-2.89-.74-2.45.39-20.65,25.66-26.68,27.04v-80.33Z" fill="#fff"/>
  <path d="M525.78,280.38c-1.46,2.06-1.61,4.39-2.26,6.71-.15.53-1.19.58-1.32,1.15-1.47,6.35,1.6,16.02,7.85,18.52.95,2.7-1.54,3.15-2.66,5.51-4.13,8.67-7.95,18.32-19.07,19.2-2.54-8.58-20.27-21.84-28.77-18.83-1.57.55-1.03,2.96-5.22,3.53-10.81,1.48-15.38-5.85-8.73-14.57.84-1.1,8.39-6.07,4.28-7.3-2.03-.6-8.32,6.47-9.54,8.22-.87,1.26-.93,4.61-1.89,5.42-.65.55-8.23,2.18-10.72,3.51-5.87,3.14-8.29,8.52-13.18,12-.49-.65.45-14.23.74-16.28.63-4.32,2.61-12.27,3.84-17.47,1.63-6.94,4.26-13.51,6.1-20.36,26.68-4.23,55.11,3.23,80.57,11.03ZM465.65,278.46c-4.41-3.47-17.32-3.12-16.52,1.53.43,2.52,4.5-.7,5.64-.91,7.21-1.33,7.42,3.34,13.33,3.48,1.07-.87-1.91-3.67-2.45-4.09ZM510.01,286.67c-2.89-3.97-5.9-5.57-10.95-5.47s-8.96,4.43-4.32,4.28,7.21-2.19,11.64,1.53c.85.72,2.94,6.12,5.53,3.59,1.52-1.48-1.56-3.45-1.91-3.92ZM456.24,290.78c-4.96-5.22-13.1,6.53-4.23,8.99,4.88,1.35,6.38-6.72,4.23-8.99ZM491.66,305c4.94,4.69,12.14-3.78,7.09-8.17-4.77-4.14-12.01,3.5-7.09,8.17Z" fill="#fff"/>
  <path d="M575.14,332.52c5.06,3.71,13.46,11.85,14.19,18.28,2.86,25.26.26,64.01,0,90.63-.07,7.35-1.42,15.95-1.52,23.31-.34,24.49,3.06,59.67.04,82.56-.25,1.88-.92,3.68-2.25,5.06-5.02,1.97-10.51,1.23-15.53-.26-1.33-.87-1.13-3.39-1.25-4.78-1.61-18.78.19-46.26.74-65.8.31-10.76,2.14-21.59,1.49-32.44,8.16-1.16,15.17.75,12.95-10.43-.91-4.62-6.23-8.16-10.78-8.58,1.98-16.13,2.73-32.43,4.33-48.6.89-9.01,1.73-11.04-1.01-20.79-3.59-12.77-12.29-22.86-23.76-29.56l4.9-5.5c4.31-2.47,13.77,4.21,17.45,6.91Z" fill="#fff"/>
  <path d="M538.93,309.58c-1.5,6.5-1.17,14.63-2.81,20.9-1.95,7.47-9.51,19.98-17.5,22.69-3.17,1.07-5.42-.02-7.26.4-1.05.24-3.25,6.69-4.53,8.05-4.84,5.11-11.54,2.97-16.3,4.35-3.85,1.12-7.36,7.41-15.38,7.1-13.79-.54-7.97-7.99-11.83-14.5-.98-1.66-4.99-4.28-6.88-5.17,2-1.63,6.12-.81,8.32-2.24,1.55-1.01,1.3-3.3,3.36-3.99-3.12-12.48-20.06-8.38-28.83-4.71-6.97-11.59,1.86-25.69,13.63-29.43,9.24-2.94,6.08,2.93,11.84,5.39,2.76,1.18,9.51,1.49,12.3.49,5.88-2.1,2.57-5.08,12.06-1.49,2.64,1,8.19,4.37,10.09,6.3,6.84,6.92,5.49,15.16,19.05,7.92,7.52-4.01,11.03-15.72,14.87-22.76l5.8.72ZM456.29,324.34l-3.17.56c4.15,11.65,23.84,13.99,33.26,6.92-.14-4.9-7.17.73-10.68,1.06-6.69.64-16.58-1.96-19.42-8.54Z" fill="#fff"/>
  <path d="M497.31,484.11c2.21-.76,6.63-3.89,7.96-5.54,4.81-5.96,1.01-16.11,2.94-18.19l59.1-10.51c-.35,12.94.4,27.57-.6,40.5-.1,1.33-1.38.71-1.58,2.13-.34,2.35,2.24,1.47,1.52,4.01l-69.35,10.98v-23.37Z" fill="#fff"/>
  <path d="M292.05,345.47c4.1,18.2-4.35,36.57-20.55,45.32-10.21,5.51-13.6,2.26-23.86-1.26-9.18-3.15-22.74-8.59-28.8-16.46-3.45-4.48-8.72-18-7.42-23.36.34-1.41,7.83-8.67,9.57-8.7,2.84,8.9,11.8,13.03,20.74,10.52,5.95-1.67,9.13-13.05,15.58-11.13,1.38.41,2.23,2.55,4.85,3.19,6.43,1.59,11.32-.17,15.02-5.51,3.25,5.31,8.62,7.98,14.86,7.39ZM277.56,349.75c-6.13,2.73-8.64,7.14-16.26,5.67-.93-.18-9.83-5.61-9.3-2.38.77,4.69,11.35,5.87,14.91,5.4,2.63-.35,13.54-5.49,10.65-8.69Z" fill="#fff"/>
  <path d="M584.18,182.51c-.25,42.72-2.67,87.03-.05,129.67.08,1.3,1.48.79,1.57,2.1.53,7.84-.32,15.93.67,23.78-8.13-6.77-16.16-14.48-27-16.81,6.54-5-1.07-11.54-1.22-15.06-.18-4.1,3.03-7.82-1.02-12.27,4.91-2.76,6.28-8.38,5-13.76-.58-2.42-2.59-2.54-2.79-3.13-.65-1.92,1.25-1.6,1.69-2.68,1.86-4.56,4.22-9.71,5.84-13.88.92-2.36,7.1-18.87,7.08-19.93-.02-.6.08-1.2.01-1.8l-10.95,2.19c.16-5.71-.23-11.47-.03-17.19.37-10.94,1.48-23.2,3.65-32.98.44-1.97-.48-4.64.86-6.68l16.68-1.57Z" fill="#fff"/>
  <path d="M224.27,411.45l4.37,14.24-9.07-2.15c-1.13.65-1.65,1.83-.83,2.93s23.38,4.8,26.69,5.81c-6.91,11.64-6.4,28.32-5.11,41.62-3.31-1.55-7.71-.87-10.97-1.79-4.41-1.25-7.02-6.66-12.03-7.69,4.04-4.15,5.04-10.01-.8-13.06-1.65-.86-4.1-.6-4.55-.93-1.3-.96.31-7.45-7-7.16s-5.03,9.74-12.05,10.6c-.74.09-4.41-2.36-5.11-3-3.79-3.43-7.47-11.16-7.99-16.1-1.25-11.7,2.41-24.42,6.46-35.02,3.51-.08,6.39,1.26,10.15,1.42,8.64.36,18.5-2.31,26.35-5.81l1.49.78v15.34Z" fill="#fff"/>
  <path d="M82.93,272.78c4,4.99,8.54,11.58,9.19,18.19,5.01,51.44-54.99,67.26-86.49,33.93l-.33-47.77c5.82-11.54,21.86-19.8,34.6-20.89,17.96-1.54,31.76,2.49,43.03,16.53ZM70.51,277.15c-28.01-25.99-75.98,4.87-56,37.36,24.53,39.91,93.87-2.22,56-37.36Z" fill="#fff"/>
  <path d="M282.48,298.82c6.41,13.55,8.38,28.37,8.95,43.62-2.26,2.25-12.07-4.55-13.57-6.52-1.28-1.69-1-3.67-1.73-4.66-1.92-2.61-12.01-7.81-14.29-4.9l.37,1.84c4.78,1.03,11.46,1.29,10.83,7.82-1.02,10.51-14.34.47-19.04,1.44-5.55,1.14-9.77,10.3-13.47,11.39-10.73,3.17-12.91-4.58-18.87-10.08-4.72-1.65-9.73,7.4-12.36,8.04-19.15,4.68-14.29-35.85,7.38-16.25,7.15.33,15.13-21.4,13.46-27.53l52.33-4.22ZM280.94,306.2c-5.16-2.66-15.27,1.15-12.88,4.1,1.59,1.96,5.52-2.46,8.41-2.26,2.55.18,3.06,2.84,5.77,2.22,2.41-.71-.24-3.53-1.3-4.07ZM236.68,314.69c1.56,1.57,5.22-3.06,7.09-3.49,3.68-.84,6.76,1.97,8.95-1.25-2.59-5.63-19.81.93-16.04,4.74ZM280.3,324.73c2.07-2.13.88-6.66-3.02-6.38-7.45.54-.82,10.32,3.02,6.38ZM244.09,329.18c4.77,2.98,8.46-5.67,3.52-7.56s-5.17,6.54-3.52,7.56Z" fill="#fff"/>
  <path d="M67.82,512.81c1.92,1.59,5.91,11.29,8.23,14.03,5.6,6.6,14.01,7.1,20.81,1.81,5.4-4.2,7.41-13.54,14.45-15.49,8.91-2.47,21.88-1.74,16.39,10.93-5.61,2.48-7.55,2.86-13.35.96-.55-.18-6.13-4.57-5.43-.42.39,2.33,7.79,5.2,10.06,5.34,3.09.18,7.26-2.47,8.91-1.71.46.21,5.57,7.77,5.78,8.3,2.3,5.8,2.26,11.82,1.33,17.83-.85,5.44-4.88,15.75-10.46,17.34-14.28-5.51-37.88-9.39-47.75-21.72-1.48-1.85-8.61-14.11-8.76-15.94-.2-2.48,2.98-3.05,1.84-4.69-5.91-.93-8,2.49-13.88-1.45-12.52-8.36,3.15-22.32,11.84-15.13Z" fill="#fff"/>
  <path d="M497.53,210.02c.45.55,1.39.67,1.82,1.46,2.54,4.8,9.85,26.02,14.04,27.67l26.26-13.55,1.9,24.91c3.21,2.78,23.09-7.32,28.03-7.76l-12.37,29.98c-.68.4-10.11-5.37-12.07-6.23-28.62-12.59-64.88-18.89-96-17.53-1.62-9.77-2.39-20.76-2.18-31.4l23,17.53c11.27-6.35,18.87-17.23,27-27.02.69-.19.12,1.37.58,1.94ZM498.51,231.7c-7.54-7.87-23.11.27-15.39,10.65,7.15,9.61,23.32-2.37,15.39-10.65Z" fill="#fff"/>
  <path d="M136.65,730.94c-.96,6.36,4.08,13.47-2.13,17.94-7.96,5.73-39.57,9.48-50.03,9.84-14.38.5-58.59-2.49-70.15-9.5-5.85-3.55-.28-15.42-.33-21.21,7.57,5.09,14,8.23,23.53,7.11,3.17-.37,8.99-3.53,10.41-3.53,1.68,0,6.99,3.63,9.46,4.48,7.78,2.66,12.75,2.06,20.26-.96,1.64-.66,2.92-3.15,4.58-3.18,1.3-.02,5.13,2.89,7.18,3.51,6.15,1.86,13.51,2.05,19.46-.5,2.29-.98,4.89-3.78,6.26-4.02,3.19-.56,8.24,3.1,12.35,2.96,2.73-.09,6.45-2.17,9.14-2.95Z" fill="#fff"/>
  <path d="M476.76,376.14c.48.31,2.59,6.36,7.27,8.43,5.94,2.62,9.7.44,13.38,1.33,1.62.39,3.25,3.73,5.05,5.05,4.76,3.49,10.96,4.55,16.74,4.06v13.88c-2.77.18-6.27.32-8.94.92-10.67,2.42-22.46,7.1-32.47,11.34-2.33.99-9.7,5.85-10.82,5.97-1.52.16-22.2-3.49-22.92-4.41l6.14-37.93c7.65-1.01,13.74-2.38,15.77-10.89,1.75,1.08,10.25,1.9,10.78,2.24Z" fill="#fff"/>
  <path d="M193.6,338.06c.8,2.98,3.44,9.51,5.43,11.73,2.69,3,8.94,3.76,9.73,4.51,1.25,1.2.59,7.61,1.5,9.62-8.7,4.77-16.86,10.94-22.5,19.25-.81,1.19-5.58,9.43-5.81,10.2-1.01,3.35,2.23,2.93,1.4,5.51-.09.28-2.99,3.88-3.26,4.88-2.43-3.99-7.44-5.36-11.96-5.19-1.18-3.04-1.48-6.42-2.61-9.46-4.29-11.5-10.08-23.38-14.22-34.83-1.9-5.26-3.17-10.97-5.17-16.23h47.45Z" fill="#fff"/>
  <path d="M103.08,312.5v11.68c0,.27-2.73.04-1.47,4.38-7.06-6.23-12.93-.78-9.79,7.33-9.03,5.37-19.64,13.24-23.06,23.34-3.53-1.35-7.61-2.47-11.35-.78-1.51,7.52,3.89,13.06,4.03,20.45-1.41,2.22-46.37-.7-52.45-2.23.22-5.02-.59-10.77-.15-15.7.21-2.32,1.45-1.47,1.57-2.79.69-7.4,1.48-14.86,1.41-22.31,28.45,17.46,71.57,10.5,82.49-23.76l8.77.39Z" fill="#fff"/>
  <path d="M102.71,67.86c8.84,2.01,9.97,19.48-.17,21.74l-97.29.9v-22.64h97.46Z" fill="#fff"/>
  <path d="M552.31,364.88c2.61,3.32,7.36,9.03,8.74,13.5,2.25,7.32.5,9.91-5.58,13.11-6.86,3.62-14.1,4.6-21.65,2.42-2.77-.8-8.59-5.43-9.12-5.45-1.48-.06-3.23,2.01-4.88,2.42-9.29,2.29-16.45-.39-20.29-9.41-5.02,2.21-12.05,2.89-16.48-1.03-6.79-6,1.36-5.79,4.31-7.43,1.66-.92,3.13-3.69,4.64-4.13,4.62-1.34,8.09.65,13.87-2.93,4.25-2.63,5.19-7.01,6.96-8.74.41-.4,8.33-1.87,10.94-3.3,3.4-1.86,4.61-5.11,8.29-6.38,8.7,3.04,14.85,10.44,20.27,17.34Z" fill="#fff"/>
  <path d="M157.45,377.87c3.6,4.15,4.93,21.33,9.12,23.38,1.62.79,4,0,5.9.67,5.65,2.01,7.03,5.86,5.14,11.62-10.67,5.45-18.27-1.26-28.69,7.04-5.61,4.46-8.97,13.72-13.56,17.54-2.5,2.08-5.41,2.18-7.97,3.5-2.03,1.05-6.44,5.86-8.88,4.43-5.23-10.5-7.93-21.45-6.57-33.39,12.78-3,12.34-13.95,14.48-24.58l29.59-12.01c.53.57.92,1.22,1.43,1.8ZM137.39,392.83c4.46.91,3.57-3.99,7.1-5.67,2.58-1.23,10.13-.08,9.68-2.71-.72-4.26-19.85.13-16.78,8.38ZM151.06,397.34c-3.97,1.23-2.2,10.23,3.33,8.51,3.97-1.23,2.2-10.23-3.33-8.51Z" fill="#fff"/>
  <path d="M560.79,392.85c2.68,15.5,6.83,27.62-6.2,39.39-9.74,8.79-26.86,13.65-39.77,14.63,1.47-13.32-7.44-26.84-21.16-28.49,3.84-4.17,25.66-5.65,27.74-7.65,2.48-2.38-2.41-16.42,1.2-17.82,2.53-.98,8.06,3.31,11.05,4.09,10.02,2.62,18.19-.11,27.14-4.15Z" fill="#fff"/>
  <path d="M84.09,116.06v35.78c-8.57-1.87-16.99-6.15-26.28-5.11-.84-23.81-20.82-16.96-19.79,2.84-7.43,1.63-13.57,6.09-19.62,10.3v-44.55s63.87,0,63.87,0c.25,0,1.12.95,1.83.73Z" fill="#fff"/>
  <path d="M141.03,335.14c.76,2.76,1.9,6.46,3.08,9.01.4.88,1.67.92,2.01,1.79,1.26,3.16,1.88,8.23,3.51,11.5-1.78,1.22-5.49,5-4.92,7.11,2.65,3.23,4.64,3.55,8.77,3.79l1.33,4.64c-26.41,12.5-55.62,21.51-85.21,21.2l-8.87-33.48,5.55.66c4.09,4.8-3.59,3.39-1.74,6.52.81,1.37,12.44,8.11,14.24,7.99,3.65-2.14,7.09-7.83,11.58-8.57,5.13-.85,9.98,3.88,15.49,1.63,2.98-1.22,6.58-9.52,8.7-10.26.37-.13,7.31-1.38,7.76-1.38,3.7.01,9.77,3.79,13.14,2.57,2.55-.93,4.08-11.65,4.88-14l-1.46-1.2,2.91-1.12c.63-2.38-7.04-1.06-5.89-6.47.13-.63,4.62-2.35,5.16-1.92ZM127.7,375.83c6.48-5.25-5.36-15.48-10.07-7.52-3.95,6.66,4.85,11.76,10.07,7.52ZM89.73,376.19c-4.99,1.24-5.24,11.08,1.32,11.56,11.45.84,9.92-14.35-1.32-11.56Z" fill="#fff"/>
  <path d="M64.27,533.93c.31.18,3.2,5.71,2.89,6.59-3.25,6.89-7.55,6.53-12.92,9.03-3.58,1.67-3.72,4.68-7.5,5.62-13.19,3.25-18.3-7.11-10.09-16.63-2.68-1.52-5.61-2.45-8.13-4.3-9.69-7.13-9.16-21.42-1.55-29.5l49.09-17.7c1.49,6.22,1.23,14.75-3.25,19.75s-6.7.94-12.48,1.39c-14.24,1.11-16.49,18.42-3.53,24.06,2.22.97,6.58,1.18,7.47,1.7Z" fill="#fff"/>
  <path d="M278.29,504.56c-3.24,14.5,11.36,19.41,17.4,28.24,4.8,7.01,7.02,14.29,2.19,21.66-5.49,8.39-18.04,12.33-27.62,10.7,13.73-18.48-7.21-12-16.43-6-4.37-2.85-6.4-6.45-6.24-11.89.47-16.5,22.63-24.29,19.75-41.99l10.95-.72Z" fill="#fff"/>
  <path d="M121.09,401.37c-.14.34-4.1,5.59-4.37,5.84-4.75,4.31-6.11.63-9.6.2-4.03-.5-11.17-.35-14.21,2.64-9.08,8.94-1.17,23.42,10.89,23.68.89,6.26-.64,9.71-4.02,14.6-3.48-2.49-6.4-6.79-11.31-5.84-.63,2.43,1.85,10.5-2.37,10.1-5.64-.53-11.5-15.61-20.26-14.48,2.82-5.9,1.31-6.04.17-10.76-2.02-8.32-3.27-19.05,1.89-26.97,3.56-5.47,9.89-2.53,15.81-3.17,12.74-1.36,26.12-4.25,38.34-8.02-.13,3.63.41,8.8-.96,12.19Z" fill="#fff"/>
  <path d="M589.3,646.23l-123.39-7.67c8.79-2.31,15.01-6.77,21.68-12.65,17.68,12.86,49.18,15.27,59.38-7.43,5.2,2.01,10.37,5.37,16.02,6.24,9.45,1.44,20.15-1.01,26.31-8.43v29.94Z" fill="#fff"/>
  <path d="M90.4,163.04c2.25,3.29,3.99,8.13,3.92,12.16-28-3.98-56.88.85-82.49,12.41-.26-4.88.43-11.04,2.36-15.55,10.42-24.36,61.07-31.12,76.22-9.02Z" fill="#fff"/>
  <path d="M490.27,463.95c-3.46,2.67-8,9.1-5.26,13.48l4.27.1c-3.69-9.9,6.46-14.36,14.6-15.33l1.43,8.24c-2.36,2.7-1.73,5.51-5.04,8.23-9.12,7.52-28.55,5.43-36.94-2.54-6.91-6.57-7.56-18.12-.64-24.83,1.89-.49,4.19,4.22,7.24,5.12,2.24.66,3.52-.3,4.91.08,2.21.6,3.04,2.92,6.68,2.76,7.27-.32,8.06-7.48,15.16-9,4.91-1.05,9.94-.16,14.79-2.71,1.54.35-1.19,3.1,4.41,2.95,11.03-.29,30.91-8.3,39.98-14.6.83-.58,2.84-3.5,3.32-3.61,7.37-1.71,26.84,1.42,20.85,12.24-19.27,3.29-38.96,4.97-58.07,9.1-8,1.73-25.61,5.62-31.69,10.32Z" fill="#fff"/>
  <path d="M351.29,511.87c-3.14,11.25,1.22,13.71,11.67,13.88l.04,3.88c-14.74,5.56-28.98,7.65-31.4,25.7-2.08,15.42-.87,32.26-2.94,48.2-.13,1.02.39,1.26-1.08,1.06-.95-.13-16.95-7.46-17.17-8.39,4.29-3.69,2.76-6.73,2.91-12.04,3.53.09,9.07.77,9.53-3.97-1.58-12.36-2.03-24.99-3.62-37.33-.17-1.29-1.41-1.01-1.49-1.57-1.08-8.06-1.78-16.19-2.23-24.31l35.77-5.1Z" fill="#fff"/>
  <path d="M443.03,410.14c-.67,3.94-3.04,16.51-4.85,20.32-5.43,11.42-23.7,15.1-34.3,19.72-21.82,9.5-30.93,20.3-33.58,44.55-.53,4.84-.03,21.85-1.5,24.6-1.88,3.53-15.46,4.6-15.85-.35,1.83-5.87,1.25-12.43,2.03-18.28.62-4.66,2.08-12.67,3.08-18.22,5.72-31.81,32.09-34.45,56.61-44.15,15.8-6.26,17.41-10.97,19.85-27.64l9.14-9.81c-.4,3.03-.11,6.25-.62,9.27Z" fill="#fff"/>
  <path d="M178.19,510.49c1.34,1.01.12,27.28-.69,30.04-.08.28-2.94,4.82-3.18,5-3.03,2.24-30.57-.33-36.21.66.08-5.58-1.72-11.45-4.37-16.24-.47-.85-3.37-2.31-3.38-3.84-.02-1.79,1.71-5.56,1.2-9.52-.76-6-4.12-4.75,2.33-11.15,14.11,4.6,29.49,4.66,44.29,5.05Z" fill="#fff"/>
  <path d="M108.72,472.62c2.83,2.58,7.02,17.14,8.27,21.31,1.85,2.45,16.47.24,13.27,10.44-2.76,8.78-15.88,3.09-23.79,7.61-7.28,4.15-8.37,14.33-14.55,16.12-12.31,3.57-15.1-7.32-20.06-15.88,8.33-6.27,10.93-16.94,7.12-26.63l27.23-13.35c.88-.41,1.8-.27,2.51.38ZM106.73,479.01c-6.48-1.17-15.18,1.9-15.33,9.49,6.21-.91,6.97-8.95,15.33-6.57v-2.91ZM102.74,498.31c2.2,3.34,3.83,3.42,6.96.82,2.4-5.81-2.74-10.21-7.91-6.1-.85,2.88-.21,3.51.95,5.28Z" fill="#fff"/>
  <path d="M494.38,484.85l-1.38,84.35c-1.68,4.26-17.86,6.33-19.07-2.19-1.59-11.24,1.22-31.64,1.5-43.8.29-12.53-.28-25.11-.02-37.64,6.41,1.32,12.67.72,18.97-.73Z" fill="#fff"/>
  <path d="M435.52,388.18c.75.75,8.1,7.11,7.76,7.55-.6.03-1.43.31-1.76.78-8.51,11.83-23.9,31.97-40.71,23.99-9.17-4.36-7.92-16.64-5.34-24.74,1.74-5.46,14.46-23.25,19.37-25.22,1.74-.7,3.78.38,5.12,1.43,4.34,3.41,11.18,11.86,15.55,16.21Z" fill="#fff"/>
  <path d="M443.46,266.32c-4.4-3.42,3.14-13.54,7.53-14.39,10.29-2,32.02,1.24,42.81,3.1,15.98,2.76,36.95,7.84,51.44,15,9.83,4.86,18.67,10.16,10.11,22.01-14.06-10.57-32.75-16.87-49.85-20.96-19.77-4.72-41.92-7.97-62.04-4.76Z" fill="#fff"/>
  <path d="M91.28,178.98c1.47,3.79,2.38,32.39-.24,32.73-4.66-3.91-9.21-7.02-15.71-6.55,1.59-5.85-4.22-12.22-10.04-9.69l-.9,1.64c11.19-.11,9.71,14.53.56,12.25-2.59-.64-3.66-3.61-4.8-4.2-5.39-2.76-21.14,6.84-26.41,9.48-3.72-6.83.43-8.42,1.71-12.5,2.16-6.92,1.08-14.02,3.08-20.32,17.21-3.92,35.25-6.19,52.77-2.85ZM55.51,191.16l-.25-7.19c-5.15-2.8-6.48,2.53-5.16,6.62l5.41.57ZM75.8,184.05l-1.09,6.02,3.75,1.07c2.81-.89,2.82-6.13,0-7.03l-2.66-.05Z" fill="#fff"/>
  <path d="M90.67,93.42v13.14c0,.08-1.07-.22-1.44.54-1.65,3.43-2.12,4.7-6.94,5.32-12.16,1.57-51.25,1.47-63.57.02-3.61-.43-8.36-2.97-8.36-6.97v-12.05h80.31Z" fill="#fff"/>
  <path d="M241.78,260.65v6.57s7.2.1,7.2.1l.84,5.74c-.42.42-10.06-1.04-9.41,1.73,2.91,5.76,12.93,10.7,18.84,7.34,2.09-1.19,2.46-4.54,5.65-4.49,3.96-.08,2.54,4.08,4.35,4.83,4.91,2.01,12.79-6.4,10.19-10.2-.64-.94-3.25-.06-2.61-1.76,1.72-1.8,2.99-3.83,5.83-3.3l-3,28.4-75.8,5.88-4.42-25.51c1.72-.39,5.2.96,5.83,2.56.5,1.28-2.25.48-1.3,4.2,1.95,7.58,11.73,4.12,14.08-1.64,6.22,7.75,19.34,2.89,19.34-6.58l-9.48,1.46-.74-6.57,7.71-1.46-1.15-5.83,8.03-1.47ZM240.14,284.2c-8.17,1.6-4.32,12.08,2.53,11.39,7.31-.74,8.74-13.59-2.53-11.39Z" fill="#fff"/>
  <path d="M154.55,465.86c-.99-.12-8.31-2.1-9.86-2.55-3.71-1.06-24-9.62-22.58-14.51,4.61-4.13,10.46-4.91,15.33-8.85,8.66-7.01,11.4-22.28,25.9-21.57,6.34.31,8.06,10.55,4.41,14.67-1.69,1.12-6.63.89-8.64.51-2.97-.57-8.19-6.43-8.54-2.44-.41,4.63,14.5,7.25,18.22,4.8-.05,3.68-.9,6.79-.7,10.57.35,6.58,3.85,11.51,2.92,18.12-.15.5-1.6,1.24-1.85,1.24-4.46,0-10.39.51-14.6,0Z" fill="#fff"/>
  <path d="M174.62,629.44c.71,6.56.53,13.62,1.41,20.12.12.9,3.06,3.05,1.38,6.03-.83,1.49-17.22,4.92-19.95,5.23-3.93.45-25.51,1.27-27.01-1.44-1.23-7.54-1.34-15.33-2.58-22.85-.06-.34-2.92-3.42-1.43-6.37,15.95,1.24,32.59,2.98,48.18-.72Z" fill="#fff"/>
  <path d="M5.25,258.83c.18-1.01,2.89-6.13,3.61-7.19.23-.34,4.85-5.04,5.52-5.58,4.55-3.69,20.55-12.08,26.09-10.78,9.31,2.18,11.61,5.58,23.58,4.96,5.12-.26,16.43-5.09,17.34-5.01s7.52,3.54,7.75,4.67c-1.1,7.39-16.29,16.12-22.67,15.96-3.26-.08-7.08-2.08-10.57-2.41-19.49-1.84-37.47,2.34-50.64,17.43.44-3.67-.61-8.57,0-12.05Z" fill="#fff"/>
  <path d="M558.35,339.08c28.65,24.02,10.77,58.81,11.24,90.27h-7.3c4.16-7.41,5.59-11.35,5.14-20.12-.31-6.17-3.75-11.65-3.7-17.53.03-3.76,1.76-5.93,1.4-10.09-.65-7.42-10.32-20.05-15.6-25.31-4.68-4.67-10.73-8.82-16.45-12.06l4.8-9.88c11.07-.77,11.86-2.5,20.47,4.72Z" fill="#fff"/>
  <path d="M228.64,481.19l5.09,20.08c.41,2.78-4.63,12.86-7.06,13.43-3.07.11-3.11-4.29-6.45-5.01-3.66-.78-20.27,1.78-21.51.7,2.81-6.03,2.59-15.01-6.56-11.3-2.03.82-7.59,9.24-10.3,4.97-2.71-7.86-.63-14.48,3.71-21.1,14.35,2.37,28.89,1.02,43.07-1.78Z" fill="#fff"/>
  <path d="M427.86,424.87c-12.44,2.13-40.5,4.57-49.08,14.14-3.86,4.3-2.65,11.04-2.97,11.56-.42.69-10.18,6.57-11.07,9.28-22.2-5.41-12.86-27.04,2.24-35.64,3.88-2.21,20.13-8.53,23.94-7.85,2.12.38,5.17,5.31,7.92,6.7,11.05,5.58,22.6.79,30.58-7.59l-1.55,9.4Z" fill="#fff"/>
  <path d="M59.76,209.06c2,1.01,2.47,3.6,7.2,3.47,6.39-.17,5.29-6.15,14.22-3.37,3.52,1.1,6.03,4.15,9.32,5.63,1.04,1.87-4.1,10.79-5.68,12.62-7.65,8.85-23.23,11.07-34.05,8.52-6.1-1.44-22.06-9.11-17.63-17.14,6.42-2.95,19.89-13.12,26.63-9.74ZM56,216.83c-.89.22-1.2,1.2-.76,2.21,2.25,5.25,22.05,3.65,21.53-1.11-.3-2.76-4.93.87-6.23,1.06-1.88.28-6.89.34-8.74.06-2.23-.33-4.61-2.51-5.81-2.21Z" fill="#fff"/>
  <path d="M462.78,348.8c-2.69,1.68-20.83,2.27-21.68,5.71,1.93,4.46,6.63-.68,10.39-.24s10.08,5.29,10.43,9.34c-2.24-1.69-14.19-3.55-14.97-1.07-1.15,3.69,5.63,1.7,8.2,2.01s5.69,1.53,7.49,3.46c3.39,7.29-6.97,15.28-13.5,12.41,1.24-2.99,5.4-2.91,4.37-6.56-6.26-.88-9.42,11.58-15.48,10.79-3.55-.46-5.3-4.84-7.41-6.88-1.25-1.21-9.34-8.42-9.61-9.05-1.55-3.56,5.23-13.67,7.66-16.23,5.52-5.82,28.21-15.49,34.67-8.54,1.36,1.46.96,3.91-.56,4.86Z" fill="#fff"/>
  <path d="M222.44,571.02c.52.15,2.33,2.65,4.57,3.46,3.14,1.12,6.41.99,9.67.92v24.82s-7.3.73-7.3.73c3.63-15.07-18.32-5.49-26.28-7.3,1.27-3.93,3.59-5.99.54-10.02-9.45-4.57-14.9,8.54-24.59,6.32l-.78-18.94h44.17Z" fill="#fff"/>
  <path d="M139.02,466.78c.63-.34,2.14-.44,2.64-.06,3.56,6.85,6.66,13.1,9.65,20.47.25.61,1.31.7,1.62,1.49,2.14,5.6,2.29,12.78,5.62,17.33-4.37.8-19.68-.48-22.86-3.04-1.95-1.57-1.01-3.26-1.92-4.47-3.78-5.01-8.59-5.52-14.3-7.06-.93-4.03-1.89-8.77-3.55-12.54-.8-1.83-10.18-13.75-9.2-14.5,9.75,1.52,18.33,9.62,28.99,5.26,2.33-.95,2.77-2.6,3.3-2.88Z" fill="#fff"/>
  <path d="M563.02,183.97c-1.46,9.56-1.46,19.24-2.15,28.88-.1,1.35-1.47.79-1.56,2.11-.61,8.72.66,18.16-.05,26.96l-14.49,5.58-2.21-24.27-3.65-.94c.87-5.42,1.02-10.67,2.14-16.1.23-1.13,1.36-1.05,1.49-1.59,1.71-7.58,2.1-15.41,6.66-22.07l13.83,1.44Z" fill="#fff"/>
  <polygon points="565.21 500.18 565.21 515.51 497.31 525.74 497.31 510.4 565.21 500.18" fill="#fff"/>
  <path d="M505.08,427.41c2.85,3.24,6.75,11.09,6.87,15.43-.9,4.36-16.27,3.36-19.91,4.96-4.09,1.79-4.22,9.27-11.83,7.84-10.08-1.89,6.67-14.01,6.89-14.98,1.12-5.05-7.86,1.83-9.08,3.34-3.74,4.63-2.09,13.36-9.54,7.27-1.36-4.3.43-8.23,3.31-11.31.77-.82,10.45-6.71,4.78-6.95-3.5-.14-13.38,10.14-12.1,14.59-1.26.23-2.41-.9-2.76-1.98-4.7-14.77,29.8-33.65,43.39-18.21Z" fill="#fff"/>
  <path d="M327.15,422.72c-.23.24-2.01-.12-2.84.42-2.73,1.76-1.22,10.45-1.66,13.07-.19,1.11-3.6,4.28-2.05,7.72l-29.16,5.88c-.46-7.1-2.32-9.13-8.66-11.43,1.11-6.28-2.77-10.55-1.14-16.42l16.64-3.5c2.91,1.02-1.72,11.4,10.86,9.98,10.95-1.24,7.45-13.28,8.56-14.08l11.69-2.54c.96,3.5-.88,4.84-1.86,7.27-.44,1.1-.13,3.36-.38,3.63Z" fill="#fff"/>
  <path d="M131.38,338.96c.03,4.05,4.84,4.65,5.12,8.41.25,3.4-1.46,6.41-2.08,9.62-.51.39-10.6-2.42-10.87-2.91-.08-.14.94-1.65.41-2.88-1.34-3.1-5.97-6.69-9.39-6.44-5.42.4-9.65,9.54-3.64,12.64-5.06,7.84-7.68,11.41-17.26,6.85,1.14-17.07-22.96-8-9.59,3.74l-6.16,4.39c-1.11-.43-7.37-3.41-7.58-3.78-1.8-3.13,3.1-12.65,5.09-15.48,1.45-2.06,11.7-11.56,13.56-12.03,2.68-.66,2.75,1.8,5.5,2.94,3.57,1.47,12.28.72,14.96-1.77,1.23-1.15-.03-3.83,3.63-4.77,2.56-.66,16.66-.27,18.29,1.47Z" fill="#fff"/>
  <path d="M137.75,579.05c-1.53-.2-11.35-3.93-11.32-4.75,8.97-4.86,10.79-15.69,12.5-25.11,7.51.77,18-1.3,25.13-.13,2.84.46,1.47,6.91,1.85,9.14.31,1.81,4.75,20.86,1.78,20.86-9.39-.87-20.81,1.17-29.93,0Z" fill="#fff"/>
  <path d="M33.72,183.25c.49,7.67-.68,14.48-3.79,21.41-.73,1.62-2.72,2.91-2.78,3.11-.35,1.18,2.68,3.54,2.94,6.51.46,5.24-2.57,15.06-7.75,17.1-7.65,3.02-15.16-1.06-16.27-9.15-1.47-10.72,2.54-21.3,5.97-30.73l21.68-8.24Z" fill="#fff"/>
  <path d="M72.41,443.23c-7.09,3.1-6.32,11.2,1.46,12.42-.28,5.28-10.15,7.46-13.41,5.15-.96-.68-.11-2-.66-2.76-2.77-3.83-6.89-8.82-11.41-4.15-1.9,4.99-1.41,9.1,3.56,11.61-2.14,3.38-3.17,5.34-7.68,5.51-9.81.38-5.94-4.44-9.14-7.66-4.83-4.88-12.73.32-9.82,6.9l4.75,2.2-4.75,6.54c-9.01-4.16-2.99-18.92,1.22-25.06,8.73-12.75,32.2-18.28,45.87-10.7Z" fill="#fff"/>
  <path d="M308.95,579.04c5.38,16.32-6.91,20.53-20.83,19.74-2.47-.14-7.85-2.1-8.61-2.07-1.03.04-6.3,2.95-8.23,3.42-10.13,2.46-21.73,2.07-30.82-3.33l-.13-6.82c2.7-.17,5.5.38,8.19-.21,2.5-.54,4.43-3.43,4.72-3.48,1.25-.22,5.91,1.42,7.92,1.48,8.4.26,20.71-2.08,28.99-3.82,6.37-1.34,12.37-3.89,18.8-4.93Z" fill="#fff"/>
  <path d="M433.76,336.64c3.03,10.31.83,6.62-4.69,11.66-2.27,2.07-5.4,6.76-8.09,7.23-17.76,2.9-57.5-10.09-24.63-26.84,10.55,8.22,24.68,7.9,37.42,7.94Z" fill="#fff"/>
  <path d="M305.3,450.52c.37.43-.24,9.53-.05,11.36,3.75,35.74,8.82,72.86,13.88,108.22.27,1.86,1.66,9.38.61,10.23l-7.87.91-5.05-55.92c-2.72-15.46-5.75-34.33-7.32-49.77-.8-7.82-1.01-15.62-.69-23.5l6.49-1.53Z" fill="#fff"/>
  <path d="M41.76,382.6l-.59,19.22c.81,2.45,9.22,3.99,10.62,9.08.26.95.49,4.71.1,5.21-2.34,3.06-28.36,1.8-31.63-.69-2.85-2.16-.24-28.49-1.14-33.56l22.64.73Z" fill="#fff"/>
  <path d="M283.4,393.57c.24,1.91-.07,1.14-1.06,1.48-8.51,2.93-17.4,2.02-26.61,6.98-11.57,6.24-8.45,15.74-8.8,26.97-22.24,2.13-18.52-19.62-19.08-35.1.14-.75,6.11-4.92,6.68-5.1,4.05-1.37,22.33,9.47,30.08,8.23,3.49-.56,12.36-6.4,13.33-6.4,1.72,0,2.99,3.53,5.46,2.94Z" fill="#fff"/>
  <path d="M177.54,416.93c-1.73,5.66-2.82,11.01-2.08,17.06.93,7.61,8.99,16,7.9,22.58-.09.55-1.37.29-1.49,1.57-.27,3.01-.15,19.34-1.47,20.79-.22.24-4.25.05-6.19,2.2-2.21,2.45-1.22,6.77-3.74,8.68-3.05,2.32-9.96,1.86-13.58.89l-12.19-24.12c5.18,1.15,25.76,4.49,28.79.68,3.28-4.12-1.82-18.79-1.76-24.42.09-8.11,4.77-16.32-.75-24.46l6.57-1.46Z" fill="#fff"/>
  <path d="M202.36,586.36c1.63,2.12-7.25,7.87-2.9,9.84,4.46,2.02,26.97-2.3,27.72,1.48s-16.14,4.46-18.44,4.94c-1.28.26-2.4.27-1.99,1.98,6.06,2.05,12.18-.57,18.25-.71-.68,7.39-18.92,4.64-20.44,6.58-.17.22.09,1.57,0,2.17l12.42-.72c-10.05,6.88-24.26,5.75-35.81,4.04l.87-22.2c8.07-.33,12.53-10,20.34-7.39Z" fill="#fff"/>
  <path d="M181.92,509.67c2.42-1.21,5.78-2.63,7.95-4.1,1.1-.74,6.08-8.48,7.39-2.82.95,4.07-3.73,8.04-2.89,9.06,8.63,4.76,20.48-2.85,27.69,3.33-.17,2.61-14.55,3.17-16.24,4.18-8.09,4.82,14.99,2.02,16.53-.21,4.06,7.97-13.73,7.13-18.55,8.42-2.07,4.94,8.88,1.64,11.7,1.86-9.15,6.69-22.87,6.99-33.58,4.37v-24.1Z" fill="#fff"/>
  <path d="M589.3,161.33v16.8c-10.59,1.99-23.09,3.13-33.85,2.09-11.75-1.14-15.64-5.59-11.65-17.45l45.5-1.43Z" fill="#fff"/>
  <path d="M213.78,369.72c1.92,2.79,3.13,6.32,5.65,8.97,3.61,3.8,8.83,5.08,12.14,9.02-13.93,7.12-29.5,13.75-45.22,8.74,1.74-13.01,14.24-23.79,25.16-29.9-.07,1.79,1.65,2.26,2.28,3.17Z" fill="#fff"/>
  <path d="M263.46,434.96c-.5.77-2.69.88-2.71,2.78-.06,5.13,21.98,4.44,25.57,5.49,3.43,5.3-17.45,2.68-17.89,4.36l.39,1.81c6.62,2.49,13.53.39,20.05-1.08,1.32,3.78-5.84,5.4-8.85,5.75-2.79.32-14.14-1.65-13.4,1.9.56,2.71,10.16,1.67,12.41,1.86-4.33,6.92-35.06.52-36.33-4.83.86-2.87.69-6.48,1.34-9.24.06-.25,1.33-3.7,1.59-4.37,3.1-7.89,5.24-5.28,12.22-8.23,1.81-.77,5.27-4.48,6.88-3.92,3,1.04-.29,6.21-1.27,7.72Z" fill="#fff"/>
  <path d="M101.86,276.5c.02.15,1.16.06,1.27,1.26.29,3.21,1.21,19.45-.01,21.12l-6.62.47c1.48-3.1-1.36-6.01-1.43-6.36-.33-1.69.25-3.65-.21-5.51-3.42-13.85-12.54-21.17-23.17-29.75l11.9-5.99,9.62-9.35c8.82,8.1,7.51,22.81,8.65,34.11Z" fill="#fff"/>
  <path d="M261.2,258.76c5.12,3.97,7.76,9.91,6.86,16.49-6.77-3.93-8.6,4.46-12.93,4.94-3.35.37-6.01-1.86-8.96-2.76l1.08-1.45c11.21,3.09,8.3-16.84-1.8-11.68l.04-6.25c-1.88-1.3-14.6.52-15.79,2.6l1.14,5.84c-.44.37-4.73-.42-6.1.11-3.29,1.27-.92,16.59,6.83,12.32-4.75,7.9-9.75-1.06-13.43-.73-2.75.24-7.04,7.4-8.47,5.83-.22-11.18,3.03-24.49,14.69-28.75,7.29-2.67,7.51,1.64,13.41,1.04,3.22-.33,3.65-2.33,5.27-2.79,5.32-1.51,13.88,1.93,18.16,5.25Z" fill="#fff"/>
  <path d="M123.52,756.5c-.02,1.84-.24,3.74.8,5.41,1.58,2.53,5.34,1,5.03,2.98-5.53,4.84-6.37,11.06-8.2,17.76-9.11.6-18.77.87-26.89-3.98l.1-17.74,29.16-4.42Z" fill="#fff"/>
  <path d="M126.71,118c3.76,7.01,7.96,20.96,7.77,29.06s-7.17,19.51-15.75,12.13c-4.35-3.74-5.51-11.95-4.76-17.25.18-1.25,1.34-1.03,1.45-1.62,1.88-10.11,4.23-17.48,8.84-26.45,1.57.67,1.66,2.66,2.45,4.13Z" fill="#fff"/>
  <path d="M271.72,555.68c1.79,5.54-12.52,9.06-2.94,12.06,7.96,2.5,16.76-.91,24.1-4.03,1.61,8.2-16.45,9.9-16.78,11.33-.83,3.51,8.66-.29,10.21-.38-.03,7.58-14.39,2.04-13.16,7.69l3.68,1.06c-7.93.86-16.29,1.71-23.98-.83.19-4.29-2.82-15.27-.89-18.57.84-1.43,18.51-9.53,19.76-8.34Z" fill="#fff"/>
  <path d="M6.71,93.42v12.78c0,5.14,6.73,7.04,7.3,9.49-.5,13.11.65,26.37.03,39.46-.55,11.68-3.33,13.19-5.56,22.16-1.94,7.81,1.12,16.06-3.24,23.45v-107.35h1.46Z" fill="#fff"/>
  <path d="M472.39,484.2l-1.36,61.99h-9.5c-.31-4.89.41-10.19.06-15.02-.58-8.1-.99-16.94-.04-26.23.79-7.67,2.29-15.49,3.64-23.02l7.2,2.28Z" fill="#fff"/>
  <path d="M67.31,760.88c-.06,7.42-8.4,10.97-7.73,19.81-5.17.77-25.21.06-27.04-5.91-.75-2.45.76-15.77,3.81-16.78l30.95,2.87Z" fill="#fff"/>
  <path d="M229.19,547.12c.51.2,7.98,7.34,7.48,7.82-3.26.69-10.49.83-13.12,2.58-1.57,1.04-1.3,2.9-2.18,3.61-1.45,1.18-32.84-1.57-37.26-.35-1.83-1.59,9.24-13.09,12.21-13.7,2.59-.53,31.32-.55,32.86.03Z" fill="#fff"/>
  <polygon points="565.21 519.17 565.21 541.07 514.1 527.92 565.21 519.17" fill="#fff"/>
  <path d="M456.33,549.2c1.61,3.9,2.88,11.29-.86,14.28-2.32,1.85-20.39,6.43-22.04,4.62-1.81-6.83-6.48-14.41-12.78-17.91l4.85-3.79,30.83,2.8Z" fill="#fff"/>
  <path d="M423.11,556.88c3.16,3.64,6.84,7.47,5.89,12.76-6.16.56-31.98,3.97-34.31-2.96-2.9-8.66,11.79-17.81,19.56-16.68,4.26.62,6.37,4.02,8.86,6.88Z" fill="#fff"/>
  <path d="M69.48,544l5.12,8.75c-3.98,1.73-8.43,4.16-11.92,6.71-12.38,9.04-20.19,23.33-27.48,36.38-2.21-3.14-2.53-6.63-2.11-10.5.55-5.07,8.83-22.01,12.58-25.74,5.48-5.46,14.35-7.43,19.6-11.27,2.05-1.5,2.24-4.35,4.22-4.33Z" fill="#fff"/>
  <path d="M178.27,659.38l.41,10.22c-5.08,5.79-44.05,8.88-46.42,5.32l-1.44-11.16c16.25,2.09,31.93.54,47.45-4.38Z" fill="#fff"/>
  <path d="M380.05,551.03c.16.33,1.21.42,1.6,1.64.55,1.75.32,4.11.73,5.96-1.9,2.51-26.59,2.65-30.33.31-5.04-3.15-1.27-10,2.13-13.16,10.32-9.59,20.14-6.75,25.87,5.25Z" fill="#fff"/>
  <path d="M226.17,311.5c-.54,1.89-3.95,9.6-5.06,11.38-.85,1.36-2.85,2.72-3.79,4.23-4.3-5.08-10.65-6.08-16.81-3.67-2.93,1.14-3.29,3.56-6.17,3.67,1.24-7.73,4.11-16.11,10.39-22.1l22.45-2c.31,2.96-.21,5.67-1.01,8.49Z" fill="#fff"/>
  <path d="M113.3,258.46l.34-3.68c15.6-6.01,25.06-.97,23.66,16.36-.33,4.06-1.8,13.03-6.47,13.6v-7.31c-5.23,0-21.84.51-16.32-7.95,17.35,2.17,14.37-2.93-.66-2.99-5.34-7.38,7.43-5.08,11.86-4.39l-.13-2.78c-.51-.14-1.41-.87-1.69-.87h-10.59Z" fill="#fff"/>
  <path d="M329.4,408.89l-47.81,10.24-2.62-9.12,45.84-10.44c3.09.13,3.66,7.02,4.59,9.32Z" fill="#fff"/>
  <path d="M225.3,474.33c.4.52,3.88,3.24,1.92,4.33-13.97,2.45-28.35,4.14-42.37,1.06,3.01-13.57,26.22-17.22,36.14-10.22,1.58,1.12,3.12,3.27,4.31,4.83Z" fill="#fff"/>
  <path d="M554.03,294.47c1.86,1.91,3.85,7.25.95,8.94-1.3.76-5.16-1.27-7.64-1.17-3.94.16-6.15,2.96-8.22,3.52-8.31,2.25-13.96-6.31-13.65-13.83.49-12.04,3.12-10.83,12.15-6.98,3.39,1.44,14.12,7.18,16.4,9.52Z" fill="#fff"/>
  <path d="M419.56,333.68c-6.14-.55-21.23-3.54-21.45-11.38-.07-2.54,2.74-7.53,5.4-7.68,1.4-.08,8.12,2.94,11.16,3.51,5.6,1.04,11.26,1.08,16.94.95l1.46,14.61c-4.39-.28-9.18.39-13.51,0Z" fill="#fff"/>
  <path d="M305.6,611.61c.49.81,2.47,1.34,1.81,3.46-2.21,7.16-29.11-.58-34.27-3.48-2.72-1.53-5.22-3.28-5.76-6.57.14-.6,10.75-4.57,11.45-4.64.76-.07,14.34,1.15,15.14,1.32,2.86.6,10.04,7.26,11.64,9.9Z" fill="#fff"/>
  <path d="M114.29,445.89c1.57,2.92,8.88,10.74,11.78,12.67l11.31,6.19c-5.24,5.42-12.83,2.89-18.96.73-7-2.46-14.92-6.13-16.81-13.82,2.61-1.55,4.11-6.13,4.91-9.02,1.21-4.38-.51-9.31,3.85-9.65.98,4.11,1.91,9.18,3.92,12.9Z" fill="#fff"/>
  <path d="M168.77,581.98l.74,8.03c-10.53-.53-21.89,1.24-32.3-.19-8.95-1.23-20.39-13.02-26.82-19.17,7.89,1.31,14.15,7.68,21.6,9.79,11.34,3.21,25.04.75,36.78,1.55Z" fill="#fff"/>
  <path d="M126.44,176.67v72.3h-5.11c-.82-18.85,1.09-38.61.06-57.37-.07-1.27-1.37-.48-1.57-2.79-.33-3.85.36-8.23.05-12.14h6.57Z" fill="#fff"/>
  <path d="M116.91,334.37c-5.78,1.08-6.14.18-10.57-2.86l.49-29.87,10.85-5.2-.76,37.93Z" fill="#fff"/>
  <path d="M404.58,542.54c1.4,8.44-1.74,5.79-6.22,9.47-1.23,1.02-3.35,4.56-4.58,5.09-.54.23-8.59,1.83-8.9,1.5.42-4.05-.71-8.09-2.66-11.62-2.77-5-9.52-7.49-9.75-13.21l32.11,8.77Z" fill="#fff"/>
  <path d="M554.01,306.92c4.66,2.75,4.1,9.74,2.65,14.2-2.46,7.55-10.15,10.6-17.74,10.37,2.11-6.49-.5-26.39,9.13-26.33.61,0,5.44,1.46,5.96,1.76Z" fill="#fff"/>
  <path d="M127.9,280.37v54.04h-8.03c-.79-2.66,1.46-2.02,1.46-2.19v-52.58l6.57.73Z" fill="#fff"/>
  <path d="M101.93,193.15c.41.54,1.14.44,1.56,1.7.77,2.3,1.22,22.26.71,24.94-.89,4.72-8.03,12.35-13.56,11.37-6.32-1.12-.68-3.49.04-4.65,1.95-3.15,5.35-14.62,5.8-17.49.99-6.28.68-12.86.76-19.2,2.26-.09,3.53,1.8,4.69,3.33Z" fill="#fff"/>
  <path d="M124.25,782.79c.98-6.59,3.23-12.9,8.5-17.36,45.49,14.83-7.22,19.57-8.5,17.36Z" fill="#fff"/>
  <path d="M278.3,421.31c-.44,3.29,2.52,16.98-.47,18.16-2.62,1.03-8.85-1.6-11.94-1.37.83-4.43,4.54-6.39,2.37-11.49-3.38-7.92-13.97,4.89-16.96,3.46,1.35-4.65-1.85-7.58-1.46-11.68l28.48,2.92Z" fill="#fff"/>
  <path d="M162.96,695.87c-.55-6.64,5.16-11.31,9.08-15.96,3.02,1.56,23.18,9.2,17.91,14.15-3.8,3.57-21.63,2.77-26.99,1.81Z" fill="#fff"/>
  <path d="M322.82,397.2l-46.39,8.8-9.81-4.42c2.04-2.59,6.96-1.25,8.95-1.62,10.45-1.93,34.92-8.83,44.19-5.16,1.25.5,2.62.95,3.06,2.4Z" fill="#fff"/>
  <path d="M589.3,181.78v148.24l-.74-22.26c-3.3-41.44-2.21-83.35-.72-124.9l1.46-1.08Z" fill="#fff"/>
  <path d="M163.94,683.73c-2.52,4.05-3.58,7.41-4.29,12.17-3.54.66-25.02-10.14-18.11-16.84,6.54,2.35,19.71-2.91,24.67-2.19,5.28.76-1.57,5.72-2.27,6.85Z" fill="#fff"/>
  <path d="M275.87,410.59c1.68,2.25,2.79,5.72,2.42,8.53l-26.98-3.67c-.17-14.48,17.5-14.28,24.56-4.86Z" fill="#fff"/>
  <path d="M107.67,415.3c.08.28,1.02-.1,1.26.53.58,1.57-2.26.61-1.49,2.92.08.23,1.39.32,1.45.87.39,3.41-.29,7.04.46,10.48-19.27,6.64-23.67-25.36-2.22-19.06.58,1.4.12,2.83.53,4.26Z" fill="#fff"/>
  <path d="M136.59,679.17c.25,1.42-.46,2.78-.19,4.21,1.4,7.42,18.34,11.58,17.84,17.99-.43,5.5-13.97,5.33-18,3.34-.76-1.06-2.86-24.19-2.51-25.97.14-.72,2.07.66,2.85.44Z" fill="#fff"/>
  <path d="M62.92,780.6c-1.99-3.47,5.55-14.33,8.43-14.62l19.31,6.6c.87,2.39-1.4,2.02-1.47,2.54-.1.67,2.28-.2,1.47,1.81-.57.57-14.89,3.66-15.69,3.66h-12.05Z" fill="#fff"/>
  <path d="M425.76,427.89c.24.96-3.25,3.52-3.83,3.87-12.42,7.59-31.01,8.07-43.61,16.57-.39-.52.99-4.54,1.44-5.3,5.97-10.2,35.01-12.74,46.01-15.14Z" fill="#fff"/>
  <path d="M109.64,264.3c1.96,4.08-.9,6.29.56,10.04,1.57,4.02,7.06,4.17,7.38,4.67.34.53.18,7.69.05,9.06-.56,6.05-5.06,9.43-10.9,9.83l-1.51-32.41,4.42-1.19Z" fill="#fff"/>
  <path d="M162.58,507.48c-2.28-.7-3.72-11.32-4.01-13.87,6.37,3.35,13.8-3.62,18.98,1.26-.51,4.74.41,8.34,2.19,12.61h-17.16Z" fill="#fff"/>
  <polygon points="464.46 429.35 457.47 440.2 439.73 433.37 443.83 425.7 464.46 429.35" fill="#fff"/>
  <path d="M5.25,229.98c6.25,7.54,21.07,7.48,24.84-2.19l5.1,4.03-19.96,9.98-9.98,10.1v-21.91Z" fill="#fff"/>
  <path d="M249.08,560.07c-3.12,7.95-.73,16.86-.06,25.1l-8.7,1.19.75-25,8.01-1.29Z" fill="#fff"/>
  <path d="M177.54,568.09v-5.12c14.51,1.12,29.24.73,43.8.73l.73,4.39h-44.53Z" fill="#fff"/>
  <path d="M246.08,602.5c1.59,13.47-16.36,10.33-24.73,8.67,1.63-1.4,4.38-2.1,5.87-3.95.92-1.14.5-3.02.76-3.27.81-.79,8.88-.4,10.43-.91,1-.33.97-2,1.66-2.14,1.27-.26,4.32,1.7,6,1.6Z" fill="#fff"/>
  <path d="M321.37,447.6c-.19,8.17-3.3,17.75-11.67,20.44l-.42-18.3,12.09-2.14Z" fill="#fff"/>
  <path d="M195.49,459.56c-.35-.45-1.74.08-1.14-1.72,3.6-4.23,13.25-5.3,18.55-4.35,6.43,1.15,5.17,7.26-1.48,8.65-5.62,1.17-12.29,2.12-15.93-2.58Z" fill="#fff"/>
  <path d="M62.09,382.71c.95.57,1.92,7.41,2.37,8.8.21.66,2.62,2.52,2.55,4.6-.04,1.27-6.97,7.79-4.81,11.32-9.79.82-2.09-18.37-4.38-24.84l4.28.11Z" fill="#fff"/>
  <path d="M236.67,557.87c.24,10.82,2.98,19.36-11.53,12.27-3.14-11.56,1.84-11.19,11.53-12.27Z" fill="#fff"/>
  <path d="M130.58,165.23c9.39,10.05-19.93,10.92-16.33,2.15,1.69-4.12,14-4.64,16.33-2.15Z" fill="#fff"/>
  <path d="M283.39,498.7c-2.45-.28-2.43,1.84-4.45,2.49-4.44,1.42-21.48,2.7-16.68-4.99,2.73-1.45,18.26-1.9,20.38,0,.97.87.87,1.28.75,2.51Z" fill="#fff"/>
  <path d="M52.3,138.37c1.61,2.62,2.65,4.94,2.59,8.35l-12.8.76c-.1-5,1.04-12.51,7.22-13,1.86.66,2.12,2.48,2.99,3.89Z" fill="#fff"/>
  <path d="M439.63,635.27l-29.93-5.83c5.05.39,8.79-3.8,13.19-5.54,4.96,4.8,10.83,7.92,16.74,11.37Z" fill="#fff"/>
  <path d="M90.67,760.88v8.76s-20.44-7.31-20.44-7.31c6.29-3.03,13.71-.38,20.44-1.45Z" fill="#fff"/>
  <path d="M313.12,423.29c-5.12,6-11.88,1.26-10.73-6.36l11.67-2.2c.75,2.6.93,6.37-.94,8.56Z" fill="#fff"/>
  <path d="M242.52,457.82l8.68,3c1.35,1.8-4.58,12.81-6.14,13.06-1.24.32-2.54-2.8-2.54-3.28v-12.78Z" fill="#fff"/>
  <path d="M191.29,456.49c1.02,1.53-.06,7.04,4.5,8.62l-10.21,5.85.73-16.06c.18-.21,4.81,1.34,4.98,1.59Z" fill="#fff"/>
  <path d="M105.88,334.52c.48.29,1,3.1.86,3.86-.89,5.01-13.19,4.69-12.46-.69.36-2.64,9.86-4.24,11.6-3.17Z" fill="#fff"/>
  <path d="M241.61,250.99c-1.56,3.28-8.41,2.64-9.83-.76-2.58-6.16,13.77-7.54,9.83.76Z" fill="#fff"/>
  <path d="M291.44,393.55c-5.2,2.6-6.87-3.4-10.94-5.47,6.67-7.32,9.37-1.85,10.94,5.47Z" fill="#fff"/>
  <polygon points="103.81 302.27 103.81 308.85 95.04 308.85 95.15 303.12 103.81 302.27" fill="#fff"/>
  <path d="M121.31,351.96c-.82,3.63-4.89,4.5-8.02,3.26-4.38-7.26,3.42-8.92,8.02-3.26Z" fill="#fff"/>
  <path d="M182.19,555.22c-1.7,2.05-2.12,5.45-4.65,4.84-.97-3.67,4.58-12.27,8.37-11.68,3.19.5-3.41,6.45-3.73,6.84Z" fill="#fff"/>
  <path d="M335.23,431.53c-2.14-1.73-10.32-1.44-8.41-5.12,3.74-3.51,9.92-.24,8.41,5.12Z" fill="#fff"/>
  <path d="M441.09,270.88l-4.37,14.59c-4.57-2.1,2.51-16.26,4.37-14.59Z" fill="#fff"/>
  <path d="M89.56,360.35c.62.8,1.75.76,1.12,2.74-3.7,3.75-4.76,1-8.04-.95l3.55-4.03c1.62-.24,2.53,1.16,3.37,2.24Z" fill="#fff"/>
  <path d="M325.75,432.27c.6-.61,6.56.91,7.31,1.8,4.1,9.69-9.7.62-7.31-1.8Z" fill="#fff"/>
  <path d="M176.31,483.61c.75-1.03,3.66-1.71,4.87-2.42.4.48-3.4,9.34-4.02,9.49-2.63.64-1.92-5.62-.86-7.07Z" fill="#fff"/>
  <path d="M54.7,456.57c1.55,1.36,2.42,4.53-.44,5.25-6.5,1.63-4.29-9.4.44-5.25Z" fill="#fff"/>
  <path d="M324.47,443.77c-3.7-3.73,2.49-7.5,4.56-2.72,1.7,3.93-2.66,4.63-4.56,2.72Z" fill="#fff"/>
  <path d="M419.92,545.46c-2.14,4.52-7.2-.36-10.94,2.18v-3.65s10.94,1.47,10.94,1.47Z" fill="#fff"/>
  <path d="M445.47,392.1c-1.39-.13-6.26-4-5.11-5.1,3.19.66,4.28-2.27,6.57-3.66l-1.46,8.76Z" fill="#fff"/>
  <path d="M32.97,470.22c-8.29.56-2.6-10.23.1-3.27.47,1.22.26,2.09-.1,3.27Z" fill="#fff"/>
  <path d="M336.69,424.23l-6.55-3.63c4.07-2.89,7.51-2.2,6.55,3.63Z" fill="#fff"/>
  <path d="M367.58,617.55c.36.49,1.6.62,1.96,1.31,1.3,2.47-8.28-.95-8.75-1.82l5.82-2.2c.07,1.01.36,1.9.97,2.72Z" fill="#fff"/>
  <polygon points="206.55 447.1 208.2 449.78 202.37 450.52 203.39 447.54 206.55 447.1" fill="#fff"/>
  <path d="M71.39,449.31c-.27-.46-1.47.14-1.16-.97,3.3-1.51,4.86-.33,5.09,3.23-2.32,2.86-2.88-.45-3.93-2.26Z" fill="#fff"/>
  <path d="M98.69,332.2c-.12.19-4.09,1.04-4.37.74v-3.66c1.5-.67,5.86.56,4.37,2.91Z" fill="#fff"/>
  <path d="M150.52,360.7l2.2,3.64c-8.62,2.71-3.46-4.87-2.2-3.64Z" fill="#fff"/>
  <path d="M96.5,179.59l.73,6.58c-2.82.29-3.5-6.85-.73-6.58Z" fill="#fff"/>
  <path d="M174.61,590c-2.34-1.5-1.21-5.69-1.44-8.02,2.02,1.69,1.32,5.7,1.44,8.02Z" fill="#fff"/>
  <path d="M100.88,461.47c-.22.27-1.55-.07-1.82-.73-.89-2.08-.57-4.16,1.46-2.19.39.61.59,2.64.36,2.92Z" fill="#fff"/>
  <path d="M234.48,480.47c-.08,1.63-3.58,1.58-3.64.35l3.64-.35Z" fill="#fff"/>
  <path d="M208.2,349.75v1.45s-2.91-.74-2.91-.74c-.26-1.3,1.64-.58,2.91-.72Z" fill="#fff"/>
  <path d="M279.02,581.98c.55.37-.67,1.24-1.45.71-.55-.37.67-1.24,1.45-.71Z" fill="#fff"/>
  <path d="M96.22,457.54c-.29.45-1.59.65-1.82,1.48-1.18,4.09,6.42,5.43,9.06,6.08,4.74,4.21-7.78,9.89-11.07,11.61-20.51,10.74-45.12,17.89-67.16,24.9l-3.89-4.22-10.24-22.42c11.37,5.89,14.68,13.15,23.12-2.45,10.7,2.34,18.07,2.46,22.6-8.77,6.23.16,14.25,2.92,18.38-3.49,1-1.56,1.58-5.09,2.02-5.44,5.1-4,17.31,9.91,14.9-7.95,5.27,4.75,8.29,4.01,4.09,10.67ZM86.73,472.89c5.62-10.5-14.77-10.77-9.51,1.82,3.12,1.03,7.73,1.52,9.51-1.82ZM70.56,475.75c-4.98-7.73-14.33-.76-12.65,4.21,3.7,5.41,16.93,2.43,12.65-4.21ZM45.24,482.09c-3.61-3.63-11.78,1.09-11.5,5.88,5.25,5.3,9.55,5.89,13.86-.6.08-.28-2.16-5.07-2.37-5.28Z" fill="#fff"/>
  <polygon points="588.93 553.49 589.3 553.85 588.93 554.22 588.93 553.49" fill="#fff"/>
  <polygon points="280.12 457.09 280.48 457.46 280.12 457.82 280.12 457.09" fill="#fff"/>
  <path d="M174.75,265.63c1.78,1.01,8.97-1.28,10.68,2.78.39,4.04-5.03,6.02-5.58,8.86-.77,3.98,4.14,11.58-4.85,9.65-2.14-.46-2.96-3.07-5.81-2.89-3.02.19-8.17,5.81-12.73,2.82l2.08-8.66-8.01-8.4c2.39-4.43,9.13-2.47,10.82-3.43,1.43-.81,2.45-14.23,9.94-7.86,1.57,1.34,2.95,6.84,3.46,7.13ZM169.85,263.96c-.73-.85-1.31-1.81-2.17-2.56-2.92,6.78-4.75,9.19-12.77,8.02,3.66,6.8,9.1,5.23,5.11,15.33,4.45-1.04,6.14-5.61,11.14-4.22,1.79.5,3.66,4.03,6.37,3.48-7.02-8.65,1.51-8.11,2.92-15.32-8.65,2.1-6.42.09-10.6-4.73Z"/>
  <path d="M158.35,309.05c.86.97.5,2.85,1.41,3.52,2.31,1.69,9.22-.92,11.22,5.4-2.85,2.67-4.15,5.88-8.77,6.22,2.2,4.7.1,9.9-5.46,9.53-5.94-.39-6.44-6.28-7.39-6.57-1.82-.57-9.3,3.08-9.1-4.04.16-5.68,6.91-6.47,7.26-7.06.59-.98-.44-5.71,1.75-7.74,2.38-2.21,6.99-1.64,9.09.73ZM166.59,316.89l-9.75-.11-1.54-5.78c-7.5-2.41-3.37,6.94-4.09,8.01-2.92,1.05-7.96,1.25-7.98,5.16l10.22-.73c-1.12,5.41,3.1,9.21,7.15,4.76l-1.71-6.24c2.67-2.04,7.82-.76,7.69-5.08Z"/>
  <path d="M205.1,711.41c9.66-1.25,34.65-1.03,41.08,7.48,7.1,9.39-11.14,13.91-17.26,14.89-8.91,1.42-37.07.39-42.63-6.83-6.76-8.78,12.78-14.75,18.81-15.53ZM189.36,725.71c2.5,4.35,29.17,5.65,34.57,5.26,4.46-.32,20.14-2.45,20.12-8.42-.02-7.97-24.77-9.36-30.4-9.16-4.7.17-29.39,3.45-24.29,12.32Z"/>
  <path d="M269.11,796.98c-7.6,7.77-26.05,8.54-36.48,7.75-26.88-2.04-28.94-16.81-1.35-21.85,9.82-1.8,32.66-2.56,39.28,5.82,3.35,4.24,1.53,5.23-1.45,8.28ZM266.96,789.75c-3.24-4.23-16.49-5.6-21.88-5.48-4.87.12-30.33,3.26-30.33,9.84s25.39,7.97,30.31,7.65c5.18-.33,28.09-3.93,21.9-12.02Z"/>
  <path d="M283.92,741.38c5.29,5.61-3.36,10.33-8.23,11.42-5.9,1.32-32.3,1.66-27.51-9.26,6.21-7.97,29.15-9.16,35.75-2.16ZM281.55,744.52c-3.52-3.81-8.8-4.92-13.84-4.88-2.83.03-20.34,2.75-15.5,7.9,4.11,4.37,25.97,4.27,30.45-2.01.27-1.06-.67-.53-1.11-1.01Z"/>
  <path d="M491.66,305c-4.92-4.67,2.32-12.31,7.09-8.17,5.06,4.39-2.15,12.86-7.09,8.17Z"/>
  <path d="M456.24,290.78c2.16,2.27.65,10.34-4.23,8.99-8.88-2.46-.73-14.21,4.23-8.99Z"/>
  <path d="M510.01,286.67c.34.47,3.43,2.44,1.91,3.92-2.59,2.53-4.68-2.88-5.53-3.59-4.43-3.71-7.13-1.67-11.64-1.53s-.56-4.19,4.32-4.28,8.06,1.5,10.95,5.47Z"/>
  <path d="M465.65,278.46c.54.42,3.52,3.22,2.45,4.09-5.91-.14-6.12-4.81-13.33-3.48-1.14.21-5.21,3.43-5.64.91-.8-4.65,12.11-5,16.52-1.53Z"/>
  <path d="M456.29,324.34c2.84,6.58,12.72,9.19,19.42,8.54,3.51-.34,10.54-5.97,10.68-1.06-9.42,7.06-29.12,4.73-33.26-6.92l3.17-.56Z"/>
  <path d="M277.56,349.75c2.89,3.2-8.02,8.34-10.65,8.69-3.56.48-14.15-.71-14.91-5.4-.53-3.23,8.37,2.2,9.3,2.38,7.62,1.47,10.13-2.94,16.26-5.67Z"/>
  <path d="M70.51,277.15c37.86,35.13-31.47,77.27-56,37.36-19.97-32.49,28-63.35,56-37.36ZM71.45,315.92c1.86-2.47,4.72-8.99,5.17-12,6.46-43.06-65.74-44.74-62.64-1.25,1.82,25.57,42.65,32.91,57.47,13.25Z"/>
  <path d="M236.68,314.69c-3.77-3.81,13.45-10.38,16.04-4.74-2.19,3.23-5.27.42-8.95,1.25-1.87.42-5.53,5.06-7.09,3.49Z"/>
  <path d="M280.94,306.2c1.06.54,3.71,3.36,1.3,4.07-2.7.62-3.22-2.04-5.77-2.22-2.89-.21-6.82,4.22-8.41,2.26-2.39-2.95,7.71-6.76,12.88-4.1Z"/>
  <path d="M244.09,329.18c-1.65-1.03-1.42-9.46,3.52-7.56s1.25,10.54-3.52,7.56Z"/>
  <path d="M280.3,324.73c-3.84,3.95-10.47-5.84-3.02-6.38,3.9-.28,5.09,4.25,3.02,6.38Z"/>
  <path d="M498.51,231.7c7.93,8.28-8.24,20.26-15.39,10.65-7.72-10.38,7.85-18.52,15.39-10.65ZM485.14,239.97c3.45,5.28,14.38,1.91,10.89-5.44-2.83-5.97-15.59-1.75-10.89,5.44Z"/>
  <path d="M137.39,392.83c-3.07-8.25,16.06-12.64,16.78-8.38.45,2.63-7.1,1.49-9.68,2.71-3.53,1.68-2.64,6.58-7.1,5.67Z"/>
  <path d="M151.06,397.34c5.52-1.72,7.3,7.28,3.33,8.51-5.52,1.72-7.3-7.28-3.33-8.51Z"/>
  <path d="M89.73,376.19c11.24-2.79,12.77,12.41,1.32,11.56-6.56-.48-6.31-10.33-1.32-11.56ZM94.32,384.07c.2-.2.22-4.15-.7-4.81l-4.32.52c-.22.3-.25,4.14-.1,4.29.18.18,4.94.18,5.12,0Z"/>
  <path d="M127.7,375.83c-5.23,4.23-14.02-.87-10.07-7.52,4.72-7.95,16.55,2.28,10.07,7.52ZM125.71,373.11l-1.43-4.06c-7.49-.93-5.23,5.41,1.43,4.06Z"/>
  <path d="M102.74,498.31c-1.16-1.77-1.8-2.4-.95-5.28,5.17-4.11,10.31.29,7.91,6.1-3.13,2.6-4.77,2.51-6.96-.82Z"/>
  <path d="M106.73,479.01v2.91c-8.36-2.37-9.12,5.66-15.33,6.57.15-7.59,8.85-10.66,15.33-9.49Z"/>
  <path d="M45.24,482.09c.2.21,2.45,5,2.37,5.28-4.31,6.49-8.61,5.89-13.86.6-.29-4.79,7.89-9.51,11.5-5.88ZM37.37,487.76l4.78,1.24c4.61-4.93-3.7-7.26-4.78-1.24Z"/>
  <path d="M70.56,475.75c4.28,6.64-8.96,9.62-12.65,4.21-1.67-4.96,7.67-11.94,12.65-4.21ZM67.19,475.47c-1.92-1.19-6.59.7-6.45,3.53,3.39,2.57,10.58-.97,6.45-3.53Z"/>
  <path d="M86.73,472.89c-1.78,3.34-6.39,2.85-9.51,1.82-5.25-12.59,15.13-12.32,9.51-1.82ZM82.95,471.31c.61-.5,1.27-.91,1.86-1.43-5.88-6.12-6.7,5.43-1.86,1.43Z"/>
  <path d="M55.51,191.16l-5.41-.57c-1.32-4.09,0-9.42,5.16-6.62l.25,7.19Z"/>
  <path d="M75.8,184.05l2.66.05c2.82.9,2.81,6.14,0,7.03l-3.75-1.07,1.09-6.02Z"/>
  <path d="M240.14,284.2c11.27-2.2,9.84,10.65,2.53,11.39-6.86.7-10.71-9.79-2.53-11.39ZM240.81,287.03c-4.49,1.52,1.59,8.68,3.03,3.76.67-2.3-.21-4.72-3.03-3.76Z"/>
  <path d="M56,216.83c1.2-.3,3.58,1.88,5.81,2.21,1.85.28,6.85.23,8.74-.06,1.29-.19,5.92-3.82,6.23-1.06.52,4.76-19.28,6.36-21.53,1.11-.43-1.01-.13-1.98.76-2.21Z"/>
  <path d="M169.85,263.96c4.18,4.82,1.95,6.83,10.6,4.73-1.41,7.22-9.94,6.67-2.92,15.32-2.71.56-4.58-2.98-6.37-3.48-5.01-1.4-6.69,3.18-11.14,4.22,3.98-10.1-1.46-8.53-5.11-15.33,8.03,1.16,9.85-1.24,12.77-8.02.86.74,1.43,1.71,2.17,2.56Z" fill="#fff"/>
  <path d="M166.59,316.89c.13,4.31-5.02,3.04-7.69,5.08l1.71,6.24c-4.05,4.45-8.28.65-7.15-4.76l-10.22.73c.02-3.91,5.06-4.11,7.98-5.16.73-1.07-3.4-10.43,4.09-8.01l1.54,5.78,9.75.11Z" fill="#fff"/>
  <path d="M189.36,725.71c-5.1-8.86,19.59-12.15,24.29-12.32,5.63-.21,30.38,1.18,30.4,9.16.02,5.98-15.66,8.11-20.12,8.42-5.4.38-32.07-.92-34.57-5.26Z" fill="#fff"/>
  <path d="M266.96,789.75c6.19,8.09-16.72,11.69-21.9,12.02s-30.31-.98-30.31-7.65,25.46-9.73,30.33-9.84c5.39-.13,18.64,1.24,21.88,5.48Z" fill="#fff"/>
  <path d="M281.55,744.52c.44.48,1.39-.04,1.11,1.01-4.48,6.28-26.34,6.38-30.45,2.01-4.84-5.15,12.67-7.87,15.5-7.9,5.03-.04,10.32,1.07,13.84,4.88Z" fill="#fff"/>
  <path d="M71.45,315.92c-14.82,19.66-55.65,12.32-57.47-13.25-3.1-43.48,69.1-41.8,62.64,1.25-.45,3.01-3.31,9.53-5.17,12Z" fill="#fff"/>
  <path d="M485.14,239.97c-4.7-7.19,8.06-11.41,10.89-5.44,3.48,7.35-7.45,10.71-10.89,5.44Z" fill="#fff"/>
  <path d="M94.32,384.07c-.18.18-4.94.18-5.12,0-.15-.15-.12-4,.1-4.29l4.32-.52c.91.67.9,4.61.7,4.81Z" fill="#fff"/>
  <path d="M125.71,373.11c-6.67,1.36-8.93-4.98-1.43-4.06l1.43,4.06Z" fill="#fff"/>
  <path d="M37.37,487.76c1.08-6.01,9.38-3.69,4.78,1.24l-4.78-1.24Z" fill="#fff"/>
  <path d="M67.19,475.47c4.13,2.55-3.06,6.09-6.45,3.53-.14-2.82,4.53-4.72,6.45-3.53Z" fill="#fff"/>
  <path d="M82.95,471.31c-4.84,4-4.03-7.56,1.86-1.43-.59.53-1.25.93-1.86,1.43Z" fill="#fff"/>
  <path d="M240.81,287.03c2.82-.96,3.7,1.46,3.03,3.76-1.43,4.92-7.52-2.24-3.03-3.76Z" fill="#fff"/>
</svg>